<?xml version="1.0" standalone="no"?>
  <!DOCTYPE svg PUBLIC "-//W3C//DTD SVG 1.1//EN" "http://www.w3.org/Graphics/SVG/1.1/DTD/svg11.dtd" >
  <svg>
  <metadata>
  Created by font-carrier
  </metadata>
  <defs>
  <font id="OpenSans-Medium" horiz-adv-x="2528" vert-adv-y="2528" >
    <font-face
      
      font-family="Open Sans Medium"
      
      font-weight="400"
      
      font-stretch="normal"
      
      units-per-em="2048"
      
      ascent="2189"
      
      descent="-600"
      
    />
      <missing-glyph />

      

      
      <glyph glyph-name="uni21" unicode="&#x21;" d="M348 426L205 426L158 1462L395 1462L348 426M142 114Q142 190 180.50 221.50Q219 253 275 253Q330 253 369 221.50Q408 190 408 114Q408 40 369 6Q330-28 275-28Q219-28 180.50 6Q142 40 142 114Z"  horiz-adv-x="552" vert-adv-y="2048"  />

      
      <glyph glyph-name="uni22" unicode="&#x22;" d="M339 1462L301 934L173 934L135 1462L339 1462M719 1462L681 934L553 934L515 1462L719 1462Z"  horiz-adv-x="854" vert-adv-y="2048"  />

      
      <glyph glyph-name="uni23" unicode="&#x23;" d="M985 885L924 572L1201 572L1201 426L896 426L813 0L657 0L740 426L463 426L382 0L229 0L306 426L50 426L50 572L335 572L397 885L125 885L125 1031L423 1031L505 1462L662 1462L581 1031L861 1031L942 1462L1095 1462L1013 1031L1272 1031L1272 885L985 885M490 572L768 572L829 885L552 885L490 572Z"  horiz-adv-x="1323" vert-adv-y="2048"  />

      
      <glyph glyph-name="uni24" unicode="&#x24;" d="M518-119L518 89Q399 91 294.50 110Q190 129 119 161L119 348Q192 314 302.50 287.50Q413 261 518 258L518 665Q380 709 291.50 759Q203 809 160 878.50Q117 948 117 1047Q117 1149 167 1222Q217 1295 307.50 1337Q398 1379 518 1386L518 1554L644 1554L644 1389Q753 1385 844 1364Q935 1343 1016 1309L953 1146Q882 1175 802 1194Q722 1213 644 1219L644 818Q772 778 865 733Q958 688 1008 621Q1058 554 1058 447Q1058 300 951 207.50Q844 115 644 96L644-119L518-119M644 266Q754 278 807.50 321Q861 364 861 435Q861 484 839.50 516.50Q818 549 770.50 573.50Q723 598 644 621L644 266M518 863L518 1215Q452 1210 406.50 1189.50Q361 1169 338 1136Q315 1103 315 1057Q315 1006 335 971Q355 936 400 910.50Q445 885 518 863Z"  horiz-adv-x="1171" vert-adv-y="2048"  />

      
      <glyph glyph-name="uni25" unicode="&#x25;" d="M401 1483Q557 1483 637.50 1363.50Q718 1244 718 1026Q718 808 640.50 686.50Q563 565 401 565Q251 565 171.50 686.50Q92 808 92 1026Q92 1244 167.50 1363.50Q243 1483 401 1483M402 1342Q329 1342 294.50 1263Q260 1184 260 1026Q260 867 294.50 787Q329 707 402 707Q477 707 513.50 787Q550 867 550 1026Q550 1183 514 1262.50Q478 1342 402 1342M1355 1462L544 0L375 0L1186 1462L1355 1462M1323 898Q1477 898 1558 778Q1639 658 1639 441Q1639 224 1561.50 102.50Q1484-19 1323-19Q1172-19 1093 102.50Q1014 224 1014 441Q1014 658 1089 778Q1164 898 1323 898M1323 755Q1250 755 1216 676.50Q1182 598 1182 440Q1182 282 1216 202Q1250 122 1323 122Q1398 122 1435 201Q1472 280 1472 440Q1472 598 1435.50 676.50Q1399 755 1323 755Z"  horiz-adv-x="1731" vert-adv-y="2048"  />

      
      <glyph glyph-name="uni26" unicode="&#x26;" d="M626 1485Q737 1485 818.50 1447.50Q900 1410 945.50 1339.50Q991 1269 991 1170Q991 1037 906.50 945.50Q822 854 694 780L1069 416Q1121 481 1154.50 563.50Q1188 646 1212 740L1417 740Q1385 612 1332.50 496Q1280 380 1200 289L1495 0L1232 0L1067 161Q1005 107 933 66Q861 25 774.50 2.50Q688-20 581-20Q434-20 327 27.50Q220 75 162 165Q104 255 104 383Q104 489 141 564.50Q178 640 247 698.50Q316 757 412 811Q364 865 324.50 918.50Q285 972 262 1031.50Q239 1091 239 1162Q239 1263 287 1335Q335 1407 421.50 1446Q508 1485 626 1485M532 686Q464 645 415 604.50Q366 564 340.50 514Q315 464 315 395Q315 285 390.50 219.50Q466 154 590 154Q708 154 794 192Q880 230 942 285L532 686M621 1323Q540 1323 486 1281Q432 1239 432 1157Q432 1088 469.50 1028Q507 968 574 897Q690 961 743.50 1021Q797 1081 797 1162Q797 1236 747.50 1279.50Q698 1323 621 1323Z"  horiz-adv-x="1503" vert-adv-y="2048"  />

      
      <glyph glyph-name="uni27" unicode="&#x27;" d="M339 1462L301 934L173 934L135 1462L339 1462Z"  horiz-adv-x="473" vert-adv-y="2048"  />

      
      <glyph glyph-name="uni28" unicode="&#x28;" d="M82 561Q82 730 114.50 889.50Q147 1049 214 1194.50Q281 1340 383 1462L565 1462Q421 1272 348 1040Q275 808 275 563Q275 404 307.50 248Q340 92 404.50-52Q469-196 563-324L383-324Q281-204 214-62Q147 80 114.50 237.50Q82 395 82 561Z"  horiz-adv-x="627" vert-adv-y="2048"  />

      
      <glyph glyph-name="uni29" unicode="&#x29;" d="M545 563Q545 396 512.50 238Q480 80 413.50-62.50Q347-205 244-324L64-324Q159-197 223-52Q287 93 319.50 248.50Q352 404 352 564Q352 727 319 885Q286 1043 222 1189Q158 1335 62 1462L244 1462Q347 1339 413.50 1194Q480 1049 512.50 889.50Q545 730 545 563Z"  horiz-adv-x="627" vert-adv-y="2048"  />

      
      <glyph glyph-name="uni2a" unicode="&#x2a;" d="M660 1556L622 1166L1011 1279L1039 1084L670 1049L909 731L731 634L556 979L397 635L212 731L449 1049L83 1085L113 1279L496 1166L457 1556L660 1556Z"  horiz-adv-x="1125" vert-adv-y="2048"  />

      
      <glyph glyph-name="uni2b" unicode="&#x2b;" d="M663 800L1068 800L1068 644L663 644L663 229L505 229L505 644L99 644L99 800L505 800L505 1217L663 1217L663 800Z"  horiz-adv-x="1171" vert-adv-y="2048"  />

      
      <glyph glyph-name="uni2c" unicode="&#x2c;" d="M385 238L398 215Q380 142 352.50 59Q325-24 292-107Q259-190 226-264L78-264Q99-184 118.50-95Q138-6 154.50 80Q171 166 181 238L385 238Z"  horiz-adv-x="544" vert-adv-y="2048"  />

      
      <glyph glyph-name="uni2d" unicode="&#x2d;" d="M77 463L77 637L583 637L583 463L77 463Z"  horiz-adv-x="659" vert-adv-y="2048"  />

      
      <glyph glyph-name="uni2e" unicode="&#x2e;" d="M142 114Q142 190 180.50 221.50Q219 253 274 253Q330 253 369 221.50Q408 190 408 114Q408 40 369 6Q330-28 274-28Q219-28 180.50 6Q142 40 142 114Z"  horiz-adv-x="550" vert-adv-y="2048"  />

      
      <glyph glyph-name="uni2f" unicode="&#x2f;" d="M756 1462L212 0L19 0L564 1462L756 1462Z"  horiz-adv-x="775" vert-adv-y="2048"  />

      
      <glyph glyph-name="uni30" unicode="&#x30;" d="M1074 733Q1074 555 1047 415Q1020 275 961.50 178Q903 81 809.50 30.50Q716-20 584-20Q418-20 310 69Q202 158 149 326.50Q96 495 96 733Q96 967 144 1135.50Q192 1304 299.50 1394.50Q407 1485 584 1485Q752 1485 860.50 1395.50Q969 1306 1021.50 1137.50Q1074 969 1074 733M298 733Q298 538 326 408Q354 278 417 213.50Q480 149 584 149Q688 149 751.50 213Q815 277 843 407Q871 537 871 733Q871 925 843 1054.50Q815 1184 752.50 1249.50Q690 1315 584 1315Q478 1315 415.50 1249.50Q353 1184 325.50 1054.50Q298 925 298 733Z"  horiz-adv-x="1171" vert-adv-y="2048"  />

      
      <glyph glyph-name="uni31" unicode="&#x31;" d="M751 0L552 0L552 989Q552 1042 552.50 1086.50Q553 1131 555 1171.50Q557 1212 559 1250Q533 1223 504.50 1198.50Q476 1174 439 1143L272 1008L169 1140L584 1462L751 1462L751 0Z"  horiz-adv-x="1171" vert-adv-y="2048"  />

      
      <glyph glyph-name="uni32" unicode="&#x32;" d="M1070 0L96 0L96 158L481 549Q591 660 663.50 743.50Q736 827 773 905.50Q810 984 810 1077Q810 1191 743 1251Q676 1311 565 1311Q465 1311 384.50 1274.50Q304 1238 218 1170L110 1304Q169 1354 238 1394.50Q307 1435 389 1459Q471 1483 571 1483Q708 1483 807.50 1435Q907 1387 961 1299Q1015 1211 1015 1093Q1015 976 968.50 876.50Q922 777 837 679Q752 581 636 470L351 188L351 179L1070 179L1070 0Z"  horiz-adv-x="1171" vert-adv-y="2048"  />

      
      <glyph glyph-name="uni33" unicode="&#x33;" d="M1016 1125Q1016 1026 977 953.50Q938 881 869 835Q800 789 709 770L709 763Q883 741 971.50 652Q1060 563 1060 417Q1060 290 1000 191Q940 92 815.50 36Q691-20 496-20Q379-20 279-1Q179 18 89 60L89 243Q180 197 286 171.50Q392 146 490 146Q681 146 764.50 220Q848 294 848 424Q848 510 803 564.50Q758 619 669.50 645Q581 671 449 671L312 671L312 837L451 837Q574 837 653.50 869.50Q733 902 772 961Q811 1020 811 1099Q811 1202 743.50 1258.50Q676 1315 553 1315Q477 1315 414.50 1298.50Q352 1282 298.50 1255Q245 1228 195 1194L96 1333Q177 1395 292.50 1439Q408 1483 557 1483Q782 1483 899 1384Q1016 1285 1016 1125Z"  horiz-adv-x="1171" vert-adv-y="2048"  />

      
      <glyph glyph-name="uni34" unicode="&#x34;" d="M1133 330L925 330L925 0L728 0L728 330L42 330L42 489L724 1468L925 1468L925 503L1133 503L1133 330M728 503L728 923Q728 973 729 1018.50Q730 1064 732 1105Q734 1146 736 1181.50Q738 1217 739 1246L731 1246Q712 1206 688.50 1163Q665 1120 639 1083L234 503L728 503Z"  horiz-adv-x="1171" vert-adv-y="2048"  />

      
      <glyph glyph-name="uni35" unicode="&#x35;" d="M576 904Q721 904 829.50 853.50Q938 803 998.50 706Q1059 609 1059 470Q1059 318 994 208Q929 98 805 39Q681-20 505-20Q391-20 292 0Q193 20 124 60L124 245Q198 202 302.50 175.50Q407 149 504 149Q610 149 688.50 182Q767 215 810 282Q853 349 853 452Q853 588 768 662Q683 736 501 736Q440 736 369 725.50Q298 715 252 704L158 761L214 1462L958 1462L958 1283L388 1283L354 880Q391 888 446 896Q501 904 576 904Z"  horiz-adv-x="1171" vert-adv-y="2048"  />

      
      <glyph glyph-name="uni36" unicode="&#x36;" d="M105 624Q105 755 123.50 880Q142 1005 186.50 1114Q231 1223 309 1305.50Q387 1388 504 1435Q621 1482 786 1482Q830 1482 883.50 1478Q937 1474 972 1464L972 1295Q934 1307 887 1313Q840 1319 793 1319Q608 1319 503 1243.50Q398 1168 353 1038.50Q308 909 301 746L312 746Q342 795 389 835Q436 875 502.50 898.50Q569 922 658 922Q786 922 881 869.50Q976 817 1028 717Q1080 617 1080 474Q1080 322 1023 211Q966 100 860.50 40Q755-20 609-20Q501-20 409 20.50Q317 61 249 141.50Q181 222 143 342.50Q105 463 105 624M606 147Q731 147 806.50 227.50Q882 308 882 473Q882 608 815 686.50Q748 765 613 765Q521 765 452.50 726Q384 687 346.50 628.50Q309 570 309 509Q309 446 327 382.50Q345 319 382 265.50Q419 212 475 179.50Q531 147 606 147Z"  horiz-adv-x="1171" vert-adv-y="2048"  />

      
      <glyph glyph-name="uni37" unicode="&#x37;" d="M274 0L862 1283L84 1283L84 1462L1077 1462L1077 1318L492 0L274 0Z"  horiz-adv-x="1171" vert-adv-y="2048"  />

      
      <glyph glyph-name="uni38" unicode="&#x38;" d="M585 1483Q711 1483 811.50 1443Q912 1403 969.50 1325.50Q1027 1248 1027 1133Q1027 1045 989.50 978.50Q952 912 888.50 862.50Q825 813 747 774Q837 732 911 678Q985 624 1029 551Q1073 478 1073 378Q1073 256 1012.50 166.50Q952 77 843 28.50Q734-20 588-20Q430-20 320 26.50Q210 73 152.50 160.50Q95 248 95 371Q95 472 137 546.50Q179 621 248 674.50Q317 728 399 766Q328 806 269.50 857Q211 908 176.50 976.50Q142 1045 142 1135Q142 1247 200.50 1324.50Q259 1402 360 1442.50Q461 1483 585 1483M289 375Q289 271 362.50 204Q436 137 584 137Q726 137 802.50 203.50Q879 270 879 379Q879 448 842.50 500Q806 552 741.50 593.50Q677 635 593 669L559 682Q474 646 414 602.50Q354 559 321.50 503.50Q289 448 289 375M583 1324Q475 1324 406.50 1272Q338 1220 338 1123Q338 1053 371.50 1004.50Q405 956 462 920.50Q519 885 590 855Q658 885 712.50 920.50Q767 956 798.50 1005.50Q830 1055 830 1123Q830 1221 761.50 1272.50Q693 1324 583 1324Z"  horiz-adv-x="1171" vert-adv-y="2048"  />

      
      <glyph glyph-name="uni39" unicode="&#x39;" d="M1070 839Q1070 708 1051.50 582.50Q1033 457 988.50 347.50Q944 238 866 155.50Q788 73 670 26Q552-21 388-21Q345-21 289-16Q233-11 197-1L197 169Q235 156 284 149Q333 142 380 142Q566 142 671 217Q776 292 821.50 421.50Q867 551 873 715L861 715Q831 667 785 627Q739 587 672 563Q605 539 512 539Q386 539 292 591.50Q198 644 146 744Q94 844 94 986Q94 1139 152 1250.50Q210 1362 316 1422Q422 1482 566 1482Q675 1482 767 1441.50Q859 1401 927 1320.50Q995 1240 1032.50 1119.50Q1070 999 1070 839M568 1314Q445 1314 369 1233.50Q293 1153 293 989Q293 853 358.50 774.50Q424 696 560 696Q654 696 722.50 734.50Q791 773 828.50 832Q866 891 866 953Q866 1015 848 1078.50Q830 1142 793 1195.50Q756 1249 700 1281.50Q644 1314 568 1314Z"  horiz-adv-x="1171" vert-adv-y="2048"  />

      
      <glyph glyph-name="uni3a" unicode="&#x3a;" d="M142 114Q142 190 180.50 221.50Q219 253 274 253Q330 253 369 221.50Q408 190 408 114Q408 40 369 6Q330-28 274-28Q219-28 180.50 6Q142 40 142 114M142 986Q142 1063 180.50 1094.50Q219 1126 274 1126Q330 1126 369 1094.50Q408 1063 408 986Q408 912 369 879Q330 846 274 846Q219 846 180.50 879Q142 912 142 986Z"  horiz-adv-x="550" vert-adv-y="2048"  />

      
      <glyph glyph-name="uni3b" unicode="&#x3b;" d="M372 238L386 215Q368 143 340 59.50Q312-24 279.50-107Q247-190 214-264L65-264Q85-184 105-95.50Q125-7 142 79.50Q159 166 169 238L372 238M139 986Q139 1063 177.50 1094.50Q216 1126 271 1126Q328 1126 366.50 1094.50Q405 1063 405 986Q405 912 366.50 879Q328 846 271 846Q216 846 177.50 879Q139 912 139 986Z"  horiz-adv-x="550" vert-adv-y="2048"  />

      
      <glyph glyph-name="uni3c" unicode="&#x3c;" d="M1069 233L99 662L99 769L1069 1250L1069 1079L312 723L1069 403L1069 233Z"  horiz-adv-x="1171" vert-adv-y="2048"  />

      
      <glyph glyph-name="uni3d" unicode="&#x3d;" d="M108 845L108 1001L1060 1001L1060 845L108 845M108 441L108 597L1060 597L1060 441L108 441Z"  horiz-adv-x="1171" vert-adv-y="2048"  />

      
      <glyph glyph-name="uni3e" unicode="&#x3e;" d="M99 403L858 722L99 1079L99 1250L1069 769L1069 662L99 233L99 403Z"  horiz-adv-x="1171" vert-adv-y="2048"  />

      
      <glyph glyph-name="uni3f" unicode="&#x3f;" d="M285 426L285 483Q285 560 301 616.50Q317 673 355.50 722.50Q394 772 462 826Q536 886 579.50 929Q623 972 642.50 1015Q662 1058 662 1118Q662 1212 599.50 1262Q537 1312 424 1312Q328 1312 249.50 1286.50Q171 1261 96 1224L25 1379Q111 1425 212.50 1454Q314 1483 437 1483Q635 1483 744 1386Q853 1289 853 1124Q853 1033 824 968.50Q795 904 740.50 850Q686 796 609 736Q545 683 510.50 643.50Q476 604 463.50 563.50Q451 523 451 466L451 426L285 426M244 114Q244 190 281.50 221.50Q319 253 377 253Q431 253 470 221.50Q509 190 509 114Q509 40 470 6Q431-28 377-28Q319-28 281.50 6Q244 40 244 114Z"  horiz-adv-x="907" vert-adv-y="2048"  />

      
      <glyph glyph-name="uni40" unicode="&#x40;" d="M1723 731Q1723 636 1701.50 545Q1680 454 1635.50 381Q1591 308 1524.50 264.50Q1458 221 1367 221Q1279 221 1223 270.50Q1167 320 1153 390L1143 390Q1104 318 1031.50 269.50Q959 221 855 221Q692 221 604 326Q516 431 516 605Q516 740 571 844Q626 948 726 1007.50Q826 1067 963 1067Q1054 1067 1142.50 1051.50Q1231 1036 1283 1017L1263 610Q1262 577 1261 557Q1260 537 1260 527Q1260 425 1295 390Q1330 355 1378 355Q1440 355 1482 406Q1524 457 1546 542.50Q1568 628 1568 732Q1568 918 1493 1049.50Q1418 1181 1286 1250Q1154 1319 984 1319Q812 1319 680 1265Q548 1211 457 1112.50Q366 1014 319 879.50Q272 745 272 583Q272 384 343 244.50Q414 105 551.50 32.50Q689-40 887-40Q1008-40 1125-13Q1242 14 1336 50L1336-96Q1245-134 1133-158Q1021-182 889-182Q645-182 471.50-91.50Q298-1 206 169Q114 339 114 577Q114 768 174 929.50Q234 1091 347 1210Q460 1329 621 1395Q782 1461 983 1461Q1199 1461 1366 1372.50Q1533 1284 1628 1120.50Q1723 957 1723 731M686 601Q686 473 737 414Q788 355 879 355Q991 355 1042.50 439Q1094 523 1102 661L1114 912Q1087 920 1048.50 925.50Q1010 931 968 931Q866 931 804 883.50Q742 836 714 761Q686 686 686 601Z"  horiz-adv-x="1836" vert-adv-y="2048"  />

      
      <glyph glyph-name="uni41" unicode="&#x41;" d="M1108 0L946 435L373 435L213 0L0 0L558 1468L768 1468L1323 0L1108 0M889 613L735 1044Q728 1066 713.50 1110Q699 1154 684.50 1201Q670 1248 661 1279Q651 1238 638 1192.50Q625 1147 612.50 1107.50Q600 1068 592 1044L436 613L889 613Z"  horiz-adv-x="1325" vert-adv-y="2048"  />

      
      <glyph glyph-name="uni42" unicode="&#x42;" d="M196 1462L620 1462Q899 1462 1040 1380Q1181 1298 1181 1099Q1181 1014 1150 947Q1119 880 1060 836Q1001 792 915 776L915 766Q1005 751 1075 712Q1145 673 1185.50 601.50Q1226 530 1226 418Q1226 284 1163 190.50Q1100 97 984.50 48.50Q869 0 710 0L196 0L196 1462M401 847L656 847Q833 847 901 905Q969 963 969 1074Q969 1189 888 1239.50Q807 1290 631 1290L401 1290L401 847M401 678L401 173L680 173Q861 173 935.50 244Q1010 315 1010 435Q1010 511 976.50 565.50Q943 620 868 649Q793 678 666 678L401 678Z"  horiz-adv-x="1336" vert-adv-y="2048"  />

      
      <glyph glyph-name="uni43" unicode="&#x43;" d="M820 1306Q707 1306 617.50 1266.50Q528 1227 466 1151.50Q404 1076 371 970Q338 864 338 731Q338 554 390.50 425Q443 296 549 226Q655 156 816 156Q912 156 999.50 173.50Q1087 191 1174 219L1174 43Q1090 11 1000.50-4.50Q911-20 791-20Q567-20 418.50 73Q270 166 197 334.50Q124 503 124 732Q124 898 170 1035.50Q216 1173 305 1273.50Q394 1374 523.50 1428.50Q653 1483 822 1483Q932 1483 1036.50 1459.50Q1141 1436 1229 1394L1153 1223Q1080 1256 996.50 1281Q913 1306 820 1306Z"  horiz-adv-x="1294" vert-adv-y="2048"  />

      
      <glyph glyph-name="uni44" unicode="&#x44;" d="M1370 745Q1370 498 1279 332.50Q1188 167 1015.50 83.50Q843 0 597 0L196 0L196 1462L642 1462Q866 1462 1029 1380.50Q1192 1299 1281 1139.50Q1370 980 1370 745M1155 739Q1155 927 1094 1049Q1033 1171 915 1230.50Q797 1290 626 1290L401 1290L401 174L590 174Q873 174 1014 316Q1155 458 1155 739Z"  horiz-adv-x="1494" vert-adv-y="2048"  />

      
      <glyph glyph-name="uni45" unicode="&#x45;" d="M1017 0L196 0L196 1462L1017 1462L1017 1286L401 1286L401 851L980 851L980 677L401 677L401 177L1017 177L1017 0Z"  horiz-adv-x="1140" vert-adv-y="2048"  />

      
      <glyph glyph-name="uni46" unicode="&#x46;" d="M400 0L196 0L196 1462L1016 1462L1016 1286L400 1286L400 790L978 790L978 615L400 615L400 0Z"  horiz-adv-x="1074" vert-adv-y="2048"  />

      
      <glyph glyph-name="uni47" unicode="&#x47;" d="M804 780L1332 780L1332 59Q1217 20 1095 0Q973-20 821-20Q595-20 440 70Q285 160 204.50 328Q124 496 124 732Q124 959 213 1128Q302 1297 472 1390Q642 1483 882 1483Q1002 1483 1112.50 1460Q1223 1437 1316 1396L1242 1223Q1164 1258 1069.50 1282.50Q975 1307 874 1307Q706 1307 585.50 1236Q465 1165 400.50 1036Q336 907 336 730Q336 557 390 428Q444 299 559 227Q674 155 855 155Q946 155 1010.50 165Q1075 175 1129 189L1129 601L804 601L804 780Z"  horiz-adv-x="1488" vert-adv-y="2048"  />

      
      <glyph glyph-name="uni48" unicode="&#x48;" d="M1327 0L1122 0L1122 675L401 675L401 0L196 0L196 1462L401 1462L401 852L1122 852L1122 1462L1327 1462L1327 0Z"  horiz-adv-x="1524" vert-adv-y="2048"  />

      
      <glyph glyph-name="uni49" unicode="&#x49;" d="M196 0L196 1462L401 1462L401 0L196 0Z"  horiz-adv-x="599" vert-adv-y="2048"  />

      
      <glyph glyph-name="uni4a" unicode="&#x4a;" d="M0-396Q-53-396-93-389Q-133-382-161-371L-161-198Q-129-207-92-213Q-55-219-13-219Q43-219 89-197Q135-175 162-121Q189-67 189 29L189 1462L395 1462L395 39Q395-110 346.50-206.50Q298-303 209-349.50Q120-396 0-396Z"  horiz-adv-x="582" vert-adv-y="2048"  />

      
      <glyph glyph-name="uni4b" unicode="&#x4b;" d="M1281 0L1042 0L551 687L401 559L401 0L196 0L196 1462L401 1462L401 748Q452 808 504.50 867Q557 926 609 986L1028 1462L1263 1462L699 825L1281 0Z"  horiz-adv-x="1281" vert-adv-y="2048"  />

      
      <glyph glyph-name="uni4c" unicode="&#x4c;" d="M196 0L196 1462L401 1462L401 178L1036 178L1036 0L196 0Z"  horiz-adv-x="1091" vert-adv-y="2048"  />

      
      <glyph glyph-name="uni4d" unicode="&#x4d;" d="M833 0L377 1257L369 1257Q372 1216 375.50 1151.50Q379 1087 381.50 1011.50Q384 936 384 863L384 0L196 0L196 1462L491 1462L924 271L931 271L1375 1462L1668 1462L1668 0L1470 0L1470 875Q1470 941 1472 1012.50Q1474 1084 1477.50 1148.50Q1481 1213 1484 1255L1475 1255L1008 0L833 0Z"  horiz-adv-x="1864" vert-adv-y="2048"  />

      
      <glyph glyph-name="uni4e" unicode="&#x4e;" d="M1378 0L1132 0L375 1198L367 1198Q370 1144 374 1079.50Q378 1015 380.50 944.50Q383 874 384 802L384 0L196 0L196 1462L440 1462L1194 270L1201 270Q1199 314 1196 379Q1193 444 1190.50 516.50Q1188 589 1188 654L1188 1462L1378 1462L1378 0Z"  horiz-adv-x="1573" vert-adv-y="2048"  />

      
      <glyph glyph-name="uni4f" unicode="&#x4f;" d="M1479 733Q1479 564 1436 425.50Q1393 287 1308.50 187.50Q1224 88 1097.50 34Q971-20 802-20Q630-20 502.50 34Q375 88 291 188Q207 288 165.50 427Q124 566 124 735Q124 960 198 1129Q272 1298 423.50 1391.50Q575 1485 805 1485Q1027 1485 1177 1392Q1327 1299 1403 1130.50Q1479 962 1479 733M339 733Q339 555 388.50 425.50Q438 296 540.50 225.50Q643 155 802 155Q963 155 1065 225.50Q1167 296 1215 425.50Q1263 555 1263 733Q1263 1003 1153 1155.50Q1043 1308 805 1308Q645 1308 542 1238.50Q439 1169 389 1040.50Q339 912 339 733Z"  horiz-adv-x="1602" vert-adv-y="2048"  />

      
      <glyph glyph-name="uni50" unicode="&#x50;" d="M599 1462Q882 1462 1012.50 1349Q1143 1236 1143 1028Q1143 934 1113 849.50Q1083 765 1015.50 700.50Q948 636 838 598.50Q728 561 568 561L401 561L401 0L196 0L196 1462L599 1462M583 1290L401 1290L401 734L546 734Q673 734 759 762.50Q845 791 889 854Q933 917 933 1020Q933 1156 848 1223Q763 1290 583 1290Z"  horiz-adv-x="1246" vert-adv-y="2048"  />

      
      <glyph glyph-name="uni51" unicode="&#x51;" d="M1479 733Q1479 557 1432.50 414Q1386 271 1293.50 170.50Q1201 70 1063 21L1409-348L1127-348L848-18Q836-18 825-19Q814-20 802-20Q630-20 502.50 34Q375 88 291 188Q207 288 165.50 427Q124 566 124 735Q124 960 198 1129Q272 1298 423.50 1391.50Q575 1485 805 1485Q1027 1485 1177 1392Q1327 1299 1403 1130.50Q1479 962 1479 733M339 733Q339 555 388.50 425.50Q438 296 540.50 225.50Q643 155 802 155Q963 155 1065 225.50Q1167 296 1215 425.50Q1263 555 1263 733Q1263 1003 1153 1155.50Q1043 1308 805 1308Q645 1308 542 1238.50Q439 1169 389 1040.50Q339 912 339 733Z"  horiz-adv-x="1602" vert-adv-y="2048"  />

      
      <glyph glyph-name="uni52" unicode="&#x52;" d="M599 1462Q784 1462 904.50 1416.50Q1025 1371 1084 1278.50Q1143 1186 1143 1044Q1143 932 1102 855Q1061 778 994.50 729Q928 680 852 652L1261 0L1026 0L670 598L401 598L401 0L196 0L196 1462L599 1462M586 1288L401 1288L401 769L600 769Q773 769 853 836.50Q933 904 933 1036Q933 1173 848 1230.50Q763 1288 586 1288Z"  horiz-adv-x="1286" vert-adv-y="2048"  />

      
      <glyph glyph-name="uni53" unicode="&#x53;" d="M1031 393Q1031 263 966.50 170.50Q902 78 785 29Q668-20 507-20Q426-20 352.50-11.50Q279-3 216 13Q153 29 102 53L102 247Q185 213 294 183.50Q403 154 519 154Q620 154 688.50 181.50Q757 209 792 259Q827 309 827 379Q827 449 793 496.50Q759 544 685.50 584Q612 624 493 669Q410 699 342 737.50Q274 776 224.50 826Q175 876 148 943.50Q121 1011 121 1099Q121 1220 180.50 1306Q240 1392 347 1437.50Q454 1483 595 1483Q711 1483 811.50 1460Q912 1437 1003 1397L938 1227Q853 1262 767 1284Q681 1306 589 1306Q504 1306 445.50 1281Q387 1256 356.50 1210Q326 1164 326 1101Q326 1030 358 983Q390 936 459 898Q528 860 639 817Q764 769 851.50 715Q939 661 985 585Q1031 509 1031 393Z"  horiz-adv-x="1124" vert-adv-y="2048"  />

      
      <glyph glyph-name="uni54" unicode="&#x54;" d="M674 0L468 0L468 1285L24 1285L24 1462L1117 1462L1117 1285L674 1285L674 0Z"  horiz-adv-x="1143" vert-adv-y="2048"  />

      
      <glyph glyph-name="uni55" unicode="&#x55;" d="M1323 1462L1323 516Q1323 362 1259.50 241Q1196 120 1068 50Q940-20 746-20Q471-20 326.50 127.50Q182 275 182 520L182 1462L388 1462L388 528Q388 343 480.50 249Q573 155 756 155Q882 155 962 200.50Q1042 246 1080.50 329.50Q1119 413 1119 528L1119 1462L1323 1462Z"  horiz-adv-x="1507" vert-adv-y="2048"  />

      
      <glyph glyph-name="uni56" unicode="&#x56;" d="M1249 1462L731 0L518 0L0 1462L212 1462L537 522Q555 473 571 418.50Q587 364 601 310Q615 256 624 211Q633 256 646.50 310Q660 364 677 419.50Q694 475 711 525L1035 1462L1249 1462Z"  horiz-adv-x="1249" vert-adv-y="2048"  />

      
      <glyph glyph-name="uni57" unicode="&#x57;" d="M1891 1462L1505 0L1288 0L1021 930Q1010 967 999 1010Q988 1053 977.50 1095.50Q967 1138 960 1172Q953 1206 950 1224Q948 1206 941.50 1172.50Q935 1139 926 1097Q917 1055 906 1011.50Q895 968 884 929L623 0L407 0L23 1462L232 1462L455 575Q466 531 476.50 485.50Q487 440 496 394.50Q505 349 512 306.50Q519 264 525 226Q530 265 538 309.50Q546 354 555.50 400Q565 446 576 491Q587 536 599 577L849 1462L1054 1462L1313 572Q1325 530 1336.50 484Q1348 438 1357.50 392Q1367 346 1374.50 304Q1382 262 1388 226Q1395 276 1405.50 334Q1416 392 1430 454Q1444 516 1458 576L1681 1462L1891 1462Z"  horiz-adv-x="1913" vert-adv-y="2048"  />

      
      <glyph glyph-name="uni58" unicode="&#x58;" d="M1224 0L990 0L609 621L223 0L5 0L491 760L38 1462L265 1462L618 893L970 1462L1189 1462L735 758L1224 0Z"  horiz-adv-x="1229" vert-adv-y="2048"  />

      
      <glyph glyph-name="uni59" unicode="&#x59;" d="M590 762L958 1462L1178 1462L692 568L692 0L487 0L487 559L0 1462L224 1462L590 762Z"  horiz-adv-x="1178" vert-adv-y="2048"  />

      
      <glyph glyph-name="uni5a" unicode="&#x5a;" d="M1104 0L71 0L71 146L836 1284L96 1284L96 1462L1084 1462L1084 1316L318 178L1104 178L1104 0Z"  horiz-adv-x="1176" vert-adv-y="2048"  />

      
      <glyph glyph-name="uni5b" unicode="&#x5b;" d="M621-324L160-324L160 1462L621 1462L621 1307L347 1307L347-168L621-168L621-324Z"  horiz-adv-x="672" vert-adv-y="2048"  />

      
      <glyph glyph-name="uni5c" unicode="&#x5c;" d="M211 1462L757 0L564 0L19 1462L211 1462Z"  horiz-adv-x="775" vert-adv-y="2048"  />

      
      <glyph glyph-name="uni5d" unicode="&#x5d;" d="M51-168L325-168L325 1307L51 1307L51 1462L513 1462L513-324L51-324L51-168Z"  horiz-adv-x="672" vert-adv-y="2048"  />

      
      <glyph glyph-name="uni5e" unicode="&#x5e;" d="M72 542L511 1472L619 1472L1100 542L929 542L568 1262L243 542L72 542Z"  horiz-adv-x="1171" vert-adv-y="2048"  />

      
      <glyph glyph-name="uni5f" unicode="&#x5f;" d="M887-311L-4-311L-4-184L887-184L887-311Z"  horiz-adv-x="883" vert-adv-y="2048"  />

      
      <glyph glyph-name="uni60" unicode="&#x60;" d="M316 1569Q342 1523 379 1466.50Q416 1410 456.50 1357Q497 1304 530 1266L530 1241L395 1241Q358 1270 313 1310Q268 1350 223 1394.50Q178 1439 141 1479.50Q104 1520 82 1549L82 1569L316 1569Z"  horiz-adv-x="611" vert-adv-y="2048"  />

      
      <glyph glyph-name="uni61" unicode="&#x61;" d="M593 1121Q797 1121 898 1030.50Q999 940 999 745L999 0L855 0L816 160L808 160Q762 100 712 60Q662 20 596.50 0Q531-20 437-20Q337-20 259 16Q181 52 136.50 124.50Q92 197 92 309Q92 477 221 564Q350 651 612 659L802 667L802 729Q802 858 744.50 911Q687 964 584 964Q499 964 421 939.50Q343 915 271 881L207 1027Q285 1067 384.50 1094Q484 1121 593 1121M800 535L646 528Q455 521 377.50 464.50Q300 408 300 307Q300 219 353 178Q406 137 493 137Q627 137 713.50 212.50Q800 288 800 436L800 535Z"  horiz-adv-x="1163" vert-adv-y="2048"  />

      
      <glyph glyph-name="uni62" unicode="&#x62;" d="M372 1556L372 1174Q372 1108 368.50 1045Q365 982 362 948L372 948Q417 1020 499.50 1070.50Q582 1121 712 1121Q913 1121 1034 977.50Q1155 834 1155 552Q1155 366 1099.50 238Q1044 110 943.50 45Q843-20 707-20Q578-20 498 27.50Q418 75 373 141L358 141L320 0L171 0L171 1556L372 1556M667 956Q558 956 493.50 913Q429 870 401 783Q373 696 372 564L372 549Q372 353 436 249Q500 145 668 145Q806 145 877.50 251Q949 357 949 554Q949 754 878 855Q807 956 667 956Z"  horiz-adv-x="1264" vert-adv-y="2048"  />

      
      <glyph glyph-name="uni63" unicode="&#x63;" d="M614-20Q462-20 348 41Q234 102 171.50 227.50Q109 353 109 545Q109 745 176 872.50Q243 1000 361.50 1061Q480 1122 633 1122Q723 1122 801.50 1104Q880 1086 933 1059L873 896Q817 918 752.50 935Q688 952 630 952Q524 952 454.50 905.50Q385 859 350 769Q315 679 315 547Q315 419 349.50 330.50Q384 242 451.50 196Q519 150 620 150Q709 150 780 170Q851 190 911 221L911 44Q853 12 783-4Q713-20 614-20Z"  horiz-adv-x="999" vert-adv-y="2048"  />

      
      <glyph glyph-name="uni64" unicode="&#x64;" d="M552-20Q350-20 229.50 123Q109 266 109 547Q109 831 231.50 976.50Q354 1122 557 1122Q642 1122 706 1099Q770 1076 816.50 1038Q863 1000 894 952L906 952Q901 983 896 1039Q891 1095 891 1137L891 1556L1092 1556L1092 0L933 0L900 153L891 153Q861 105 814.50 65.50Q768 26 703.50 3Q639-20 552-20M599 144Q762 144 829.50 238Q897 332 898 517L898 548Q898 745 833.50 850.50Q769 956 597 956Q457 956 386 846.50Q315 737 315 543Q315 351 386 247.50Q457 144 599 144Z"  horiz-adv-x="1264" vert-adv-y="2048"  />

      
      <glyph glyph-name="uni65" unicode="&#x65;" d="M603 1122Q747 1122 850 1060.50Q953 999 1008 887Q1063 775 1063 623L1063 509L315 509Q318 332 406 237.50Q494 143 653 143Q758 143 840 163Q922 183 1010 222L1010 53Q927 15 843.50-2.50Q760-20 644-20Q484-20 363.50 44Q243 108 176 233.50Q109 359 109 543Q109 725 170 854.50Q231 984 342 1053Q453 1122 603 1122M602 966Q480 966 406 886.50Q332 807 319 659L861 659Q860 750 832 819Q804 888 747.50 927Q691 966 602 966Z"  horiz-adv-x="1165" vert-adv-y="2048"  />

      
      <glyph glyph-name="uni66" unicode="&#x66;" d="M692 947L421 947L421 0L220 0L220 947L33 947L33 1044L220 1105L220 1181Q220 1320 263 1404.50Q306 1489 386.50 1528Q467 1567 582 1567Q651 1567 708.50 1555Q766 1543 808 1528L756 1374Q722 1385 680 1394.50Q638 1404 591 1404Q504 1404 462.50 1348Q421 1292 421 1179L421 1102L692 1102L692 947Z"  horiz-adv-x="715" vert-adv-y="2048"  />

      
      <glyph glyph-name="uni67" unicode="&#x67;" d="M483-492Q262-492 143.50-411Q25-330 25-185Q25-82 90-10.50Q155 61 272 86Q228 106 196.50 147.50Q165 189 165 241Q165 302 199.50 346.50Q234 391 303 433Q216 469 163 552.50Q110 636 110 748Q110 867 160.50 951Q211 1035 306 1079Q401 1123 537 1123Q567 1123 599 1120.50Q631 1118 660 1113Q689 1108 707 1103L1087 1103L1087 984L891 954Q920 916 938 864Q956 812 956 750Q956 582 841.50 484.50Q727 387 525 387Q478 388 430 395Q387 370 365 340.50Q343 311 343 273Q343 244 362.50 226Q382 208 419 199.50Q456 191 509 191L701 191Q881 191 977 115Q1073 39 1073-107Q1073-292 921-392Q769-492 483-492M490-345Q619-345 705.50-319Q792-293 836-245Q880-197 880-131Q880-71 851.50-39.50Q823-8 767 3Q711 14 629 14L447 14Q377 14 325-8Q273-30 244-71.50Q215-113 215-174Q215-257 286.50-301Q358-345 490-345M534 524Q645 524 700 582.50Q755 641 755 750Q755 867 699 926Q643 985 533 985Q426 985 369.50 924.50Q313 864 313 748Q313 641 370 582.50Q427 524 534 524Z"  horiz-adv-x="1123" vert-adv-y="2048"  />

      
      <glyph glyph-name="uni68" unicode="&#x68;" d="M372 1556L372 1128Q372 1077 369 1028Q366 979 362 946L374 946Q409 1004 460.50 1042.50Q512 1081 577.50 1100.50Q643 1120 716 1120Q845 1120 934 1078Q1023 1036 1069 947.50Q1115 859 1115 718L1115 0L916 0L916 691Q916 823 858 889.50Q800 956 680 956Q566 956 498 910.50Q430 865 401 777Q372 689 372 561L372 0L171 0L171 1556L372 1556Z"  horiz-adv-x="1279" vert-adv-y="2048"  />

      
      <glyph glyph-name="uni69" unicode="&#x69;" d="M372 1102L372 0L171 0L171 1102L372 1102M273 1519Q321 1519 355.50 1491Q390 1463 390 1400Q390 1337 355.50 1308.50Q321 1280 273 1280Q224 1280 190.50 1308.50Q157 1337 157 1400Q157 1463 190.50 1491Q224 1519 273 1519Z"  horiz-adv-x="544" vert-adv-y="2048"  />

      
      <glyph glyph-name="uni6a" unicode="&#x6a;" d="M50-492Q-1-492-43.50-484.50Q-86-477-117-467L-117-306Q-84-316-52-321Q-20-326 20-326Q87-326 129-289Q171-252 171-152L171 1102L372 1102L372-160Q372-260 338.50-335Q305-410 233.50-451Q162-492 50-492M157 1400Q157 1463 190.50 1491Q224 1519 273 1519Q321 1519 355.50 1491Q390 1463 390 1400Q390 1337 355.50 1308.50Q321 1280 273 1280Q224 1280 190.50 1308.50Q157 1337 157 1400Z"  horiz-adv-x="544" vert-adv-y="2048"  />

      
      <glyph glyph-name="uni6b" unicode="&#x6b;" d="M371 1556L371 776Q371 730 367.50 671.50Q364 613 361 564L368 564Q391 594 429.50 643Q468 692 498 726L850 1102L1082 1102L640 629L1113 0L875 0L504 503L371 385L371 0L171 0L171 1556L371 1556Z"  horiz-adv-x="1125" vert-adv-y="2048"  />

      
      <glyph glyph-name="uni6c" unicode="&#x6c;" d="M373 0L171 0L171 1556L373 1556L373 0Z"  horiz-adv-x="544" vert-adv-y="2048"  />

      
      <glyph glyph-name="uni6d" unicode="&#x6d;" d="M1392 1122Q1575 1122 1668.50 1026.50Q1762 931 1762 721L1762 0L1563 0L1563 696Q1563 826 1509.50 891Q1456 956 1350 956Q1200 956 1133.50 865.50Q1067 775 1067 600L1067 0L867 0L867 696Q867 783 843 840.50Q819 898 772 927Q725 956 653 956Q550 956 488.50 911.50Q427 867 399.50 780Q372 693 372 567L372 0L171 0L171 1102L330 1102L359 950L370 950Q403 1007 453.50 1045Q504 1083 566 1102.50Q628 1122 697 1122Q821 1122 906 1077Q991 1032 1031 940L1044 940Q1097 1033 1190.50 1077.50Q1284 1122 1392 1122Z"  horiz-adv-x="1925" vert-adv-y="2048"  />

      
      <glyph glyph-name="uni6e" unicode="&#x6e;" d="M719 1122Q910 1122 1012.50 1026Q1115 930 1115 718L1115 0L916 0L916 691Q916 823 858 889.50Q800 956 680 956Q509 956 440.50 855Q372 754 372 562L372 0L171 0L171 1102L330 1102L359 947L370 947Q405 1005 459 1044Q513 1083 579.50 1102.50Q646 1122 719 1122Z"  horiz-adv-x="1279" vert-adv-y="2048"  />

      
      <glyph glyph-name="uni6f" unicode="&#x6f;" d="M1134 553Q1134 417 1098.50 310.50Q1063 204 995.50 130.50Q928 57 833 18.50Q738-20 618-20Q506-20 412.50 18.50Q319 57 251 130.50Q183 204 146 310.50Q109 417 109 553Q109 734 171 861.50Q233 989 348.50 1055.50Q464 1122 624 1122Q776 1122 891 1055Q1006 988 1070 861Q1134 734 1134 553M315 553Q315 426 347.50 334.50Q380 243 447.50 194Q515 145 622 145Q727 145 795 194Q863 243 895 334.50Q927 426 927 553Q927 679 895 769Q863 859 795.50 907Q728 955 620 955Q462 955 388.50 849.50Q315 744 315 553Z"  horiz-adv-x="1241" vert-adv-y="2048"  />

      
      <glyph glyph-name="uni70" unicode="&#x70;" d="M713 1122Q914 1122 1034.50 979.50Q1155 837 1155 554Q1155 366 1099.50 238.50Q1044 111 943.50 45.50Q843-20 708-20Q623-20 559 2.50Q495 25 449.50 62.50Q404 100 373 143L360 143Q364 104 368.50 52.50Q373 1 373-40L373-490L171-490L171 1102L336 1102L363 944L373 944Q404 993 449.50 1033.50Q495 1074 560 1098Q625 1122 713 1122M667 956Q561 956 497.50 914.50Q434 873 404.50 791Q375 709 373 585L373 553Q373 421 401 330.50Q429 240 494 192.50Q559 145 669 145Q763 145 825.50 196Q888 247 918.50 340Q949 433 949 556Q949 743 880 849.50Q811 956 667 956Z"  horiz-adv-x="1264" vert-adv-y="2048"  />

      
      <glyph glyph-name="uni71" unicode="&#x71;" d="M890-490L890-21Q890 19 892.50 68Q895 117 900 155L889 155Q844 81 761 30.50Q678-20 547-20Q349-20 228.50 123Q108 266 108 549Q108 735 163.50 863Q219 991 320 1056.50Q421 1122 555 1122Q684 1122 765.50 1071.50Q847 1021 894 948L902 948L928 1102L1091 1102L1091-490L890-490M598 143Q706 143 770.50 184Q835 225 865 307.50Q895 390 897 514L897 549Q897 749 830.50 852.50Q764 956 596 956Q454 956 384.50 846.50Q315 737 315 545Q315 352 384.50 247.50Q454 143 598 143Z"  horiz-adv-x="1264" vert-adv-y="2048"  />

      
      <glyph glyph-name="uni72" unicode="&#x72;" d="M701 1122Q731 1122 766 1118.50Q801 1115 826 1110L805 923Q781 929 749.50 933Q718 937 691 937Q627 937 569 913Q511 889 467 843.50Q423 798 398 732.50Q373 667 373 583L373 0L171 0L171 1102L333 1102L357 903L366 903Q400 963 448.50 1013Q497 1063 560.50 1092.50Q624 1122 701 1122Z"  horiz-adv-x="860" vert-adv-y="2048"  />

      
      <glyph glyph-name="uni73" unicode="&#x73;" d="M898 308Q898 201 845.50 127.50Q793 54 693 17Q593-20 453-20Q337-20 253-2.50Q169 15 101 48L101 226Q174 191 270 164Q366 137 458 137Q587 137 644.50 178Q702 219 702 289Q702 330 679 361.50Q656 393 598.50 424.50Q541 456 434 497Q329 538 254.50 579Q180 620 141 678Q102 736 102 828Q102 971 216.50 1046.50Q331 1122 519 1122Q619 1122 707.50 1102Q796 1082 877 1046L812 891Q740 922 664 942.50Q588 963 509 963Q406 963 351.50 930Q297 897 297 839Q297 794 322.50 764Q348 734 408 705.50Q468 677 570 638Q671 600 744.50 559Q818 518 858 459Q898 400 898 308Z"  horiz-adv-x="987" vert-adv-y="2048"  />

      
      <glyph glyph-name="uni74" unicode="&#x74;" d="M555 143Q598 143 642 150.50Q686 158 718 170L718 16Q684 1 627.50-9.50Q571-20 512-20Q422-20 349 11Q276 42 232.50 117Q189 192 189 325L189 947L36 947L36 1040L196 1114L267 1352L391 1352L391 1102L710 1102L710 947L391 947L391 328Q391 235 435.50 189Q480 143 555 143Z"  horiz-adv-x="770" vert-adv-y="2048"  />

      
      <glyph glyph-name="uni75" unicode="&#x75;" d="M1107 1102L1107 0L946 0L918 151L907 151Q873 94 819 56Q765 18 698-1Q631-20 556-20Q429-20 340.50 22Q252 64 206.50 152.50Q161 241 161 381L161 1102L363 1102L363 409Q363 276 420.50 210Q478 144 596 144Q711 144 778.50 189.50Q846 235 875.50 322.50Q905 410 905 537L905 1102L1107 1102Z"  horiz-adv-x="1279" vert-adv-y="2048"  />

      
      <glyph glyph-name="uni76" unicode="&#x76;" d="M419 0L0 1102L213 1102L448 445Q471 380 493.50 303Q516 226 524 176L531 176Q541 227 565 304Q589 381 611 445L845 1102L1059 1102L639 0L419 0Z"  horiz-adv-x="1059" vert-adv-y="2048"  />

      
      <glyph glyph-name="uni77" unicode="&#x77;" d="M1070 2L902 578Q891 617 878.50 664Q866 711 854 758Q842 805 832.50 845.50Q823 886 818 911L810 911Q805 886 796 845.50Q787 805 775.50 757.50Q764 710 751.50 662Q739 614 727 575L551 2L329 2L23 1103L228 1103L379 526Q394 468 408 406Q422 344 432 289Q442 234 447 195L455 195Q460 221 467.50 259.50Q475 298 484 340.50Q493 383 503.50 423Q514 463 523 493L709 1103L927 1103L1106 494Q1119 450 1133 395.50Q1147 341 1158 288Q1169 235 1173 197L1181 197Q1185 231 1196 285Q1207 339 1221 402.50Q1235 466 1251 526L1404 1103L1606 1103L1298 2L1070 2Z"  horiz-adv-x="1629" vert-adv-y="2048"  />

      
      <glyph glyph-name="uni78" unicode="&#x78;" d="M424 564L50 1102L279 1102L550 696L821 1102L1048 1102L673 564L1068 0L839 0L550 431L259 0L32 0L424 564Z"  horiz-adv-x="1100" vert-adv-y="2048"  />

      
      <glyph glyph-name="uni79" unicode="&#x79;" d="M2 1102L219 1102L453 467Q471 418 486.50 371.50Q502 325 513.50 281.50Q525 238 532 196L539 196Q551 247 573 320Q595 393 621 468L845 1102L1061 1102L585-156Q546-261 490.50-336.50Q435-412 359-452.50Q283-493 179-493Q131-493 94.50-487.50Q58-482 32-475L32-315Q54-320 85.50-324Q117-328 151-328Q214-328 259.50-303.50Q305-279 337.50-234Q370-189 392-129L442 1L2 1102Z"  horiz-adv-x="1061" vert-adv-y="2048"  />

      
      <glyph glyph-name="uni7a" unicode="&#x7a;" d="M894 0L74 0L74 128L654 946L110 946L110 1102L880 1102L880 960L309 155L894 155L894 0Z"  horiz-adv-x="970" vert-adv-y="2048"  />

      
      <glyph glyph-name="uni7b" unicode="&#x7b;" d="M708-324Q571-323 480-289.50Q389-256 344.50-187Q300-118 300-13L300 295Q300 364 271.50 406.50Q243 449 187.50 468.50Q132 488 51 488L51 651Q132 652 187.50 671Q243 690 271.50 732Q300 774 300 844L300 1154Q300 1259 346.50 1327Q393 1395 484 1428.50Q575 1462 708 1462L708 1304Q639 1302 590 1283.50Q541 1265 515 1225Q489 1185 489 1120L489 820Q489 718 434 657Q379 596 268 577L268 565Q381 546 435 485Q489 424 489 322L489 17Q489-48 514.50-87.50Q540-127 589-145Q638-163 708-164L708-324Z"  horiz-adv-x="778" vert-adv-y="2048"  />

      
      <glyph glyph-name="uni7c" unicode="&#x7c;" d="M483 1555L642 1555L642-488L483-488L483 1555Z"  horiz-adv-x="1126" vert-adv-y="2048"  />

      
      <glyph glyph-name="uni7d" unicode="&#x7d;" d="M71-324L71-164Q140-162 188.50-144Q237-126 263-86.50Q289-47 289 18L289 320Q289 423 344 484Q399 545 509 563L509 575Q398 594 343.50 655.50Q289 717 289 818L289 1121Q289 1187 263.50 1226.50Q238 1266 189 1284.50Q140 1303 71 1304L71 1462Q208 1461 298.50 1428Q389 1395 433.50 1326.50Q478 1258 478 1153L478 845Q478 775 506.50 732.50Q535 690 591 670.50Q647 651 728 651L728 488Q647 488 591 468.50Q535 449 506.50 407Q478 365 478 296L478-15Q478-119 431.50-187.50Q385-256 294.50-290Q204-324 71-324Z"  horiz-adv-x="778" vert-adv-y="2048"  />

      
      <glyph glyph-name="uni7e" unicode="&#x7e;" d="M553 648Q481 680 431 692Q381 704 334 704Q277 704 213.50 670Q150 636 99 584L99 754Q150 807 212 834Q274 861 348 861Q409 861 468 848Q527 835 617 796Q691 765 740.50 752.50Q790 740 835 740Q894 740 956.50 774Q1019 808 1069 860L1069 692Q1021 640 959 611.50Q897 583 822 583Q762 583 703 595.50Q644 608 553 648Z"  horiz-adv-x="1171" vert-adv-y="2048"  />

      
      <glyph glyph-name="unia1" unicode="&#xa1;" d="M201 662L345 662L393-373L154-373L201 662M408 976Q408 900 369.50 868.50Q331 837 275 837Q220 837 181 868.50Q142 900 142 976Q142 1050 181 1083.50Q220 1117 275 1117Q331 1117 369.50 1083.50Q408 1050 408 976Z"  horiz-adv-x="552" vert-adv-y="2048"  />

      
      <glyph glyph-name="unia2" unicode="&#xa2;" d="M725 1483L725 1320Q807 1317 878.50 1299.50Q950 1282 1002 1258L943 1095Q884 1118 818.50 1134Q753 1150 696 1150Q590 1150 519.50 1104.50Q449 1059 414.50 969Q380 879 380 743Q380 609 415 521.50Q450 434 518 391Q586 348 688 348Q777 348 845.50 365.50Q914 383 981 412L981 240Q923 212 862.50 195.50Q802 179 724 176L724-20L583-20L583 182Q457 200 365 263.50Q273 327 224 444.50Q175 562 175 741Q175 926 225.50 1046Q276 1166 368 1230Q460 1294 583 1312L583 1483L725 1483Z"  horiz-adv-x="1171" vert-adv-y="2048"  />

      
      <glyph glyph-name="unia3" unicode="&#xa3;" d="M690 1482Q801 1482 891.50 1458Q982 1434 1055 1400L987 1242Q923 1271 850 1293Q777 1315 699 1315Q592 1315 532.50 1257.50Q473 1200 473 1070L473 806L879 806L879 656L473 656L473 454Q473 373 452.50 319.50Q432 266 399 233Q366 200 328 179L1102 179L1102 0L72 0L72 168Q132 185 177 217.50Q222 250 247.50 307Q273 364 273 452L273 656L79 656L79 806L273 806L273 1084Q273 1215 325.50 1303Q378 1391 472 1436.50Q566 1482 690 1482Z"  horiz-adv-x="1171" vert-adv-y="2048"  />

      
      <glyph glyph-name="unia4" unicode="&#xa4;" d="M184 723Q184 784 203 841Q222 898 254 946L119 1083L225 1187L360 1055Q408 1088 465.50 1106Q523 1124 586 1124Q647 1124 702.50 1106Q758 1088 807 1055L943 1187L1050 1084L916 947Q947 900 966.50 842.50Q986 785 986 723Q986 661 968 603.50Q950 546 916 498L1047 363L943 260L807 392Q760 361 703.50 342.50Q647 324 586 324Q522 324 464 342Q406 360 360 393L225 261L120 364L254 500Q222 548 203 605Q184 662 184 723M332 723Q332 652 366 594.50Q400 537 457.50 503.50Q515 470 585 470Q657 470 715 504Q773 538 807 595.50Q841 653 841 723Q841 795 807 853Q773 911 715 945.50Q657 980 586 980Q515 980 457.50 945.50Q400 911 366 853Q332 795 332 723Z"  horiz-adv-x="1171" vert-adv-y="2048"  />

      
      <glyph glyph-name="unia5" unicode="&#xa5;" d="M584 771L933 1462L1142 1462L732 697L978 697L978 560L681 560L681 395L978 395L978 259L681 259L681 0L487 0L487 259L189 259L189 395L487 395L487 560L189 560L189 697L431 697L25 1462L237 1462L584 771Z"  horiz-adv-x="1171" vert-adv-y="2048"  />

      
      <glyph glyph-name="unia6" unicode="&#xa6;" d="M483 1555L642 1555L642 769L483 769L483 1555M483 299L642 299L642-488L483-488L483 299Z"  horiz-adv-x="1126" vert-adv-y="2048"  />

      
      <glyph glyph-name="unia7" unicode="&#xa7;" d="M135 807Q135 905 183.50 967.50Q232 1030 295 1063Q223 1102 182 1158Q141 1214 141 1297Q141 1420 246.50 1493Q352 1566 541 1566Q651 1566 732.50 1545.50Q814 1525 891 1494L833 1350Q764 1379 693.50 1400Q623 1421 531 1421Q417 1421 367.50 1390Q318 1359 318 1301Q318 1262 343 1232Q368 1202 425 1174Q482 1146 577 1111Q678 1073 752.50 1028.50Q827 984 867 925Q907 866 907 783Q907 680 863 614.50Q819 549 758 514Q828 476 866.50 422Q905 368 905 290Q905 148 788.50 68Q672-12 465-12Q353-12 268.50 7Q184 26 118 58L118 218Q165 196 224 175.50Q283 155 346 143Q409 131 470 131Q614 131 669 174Q724 217 724 275Q724 315 704 344.50Q684 374 629 403.50Q574 433 470 472Q366 512 291 554.50Q216 597 175.50 657Q135 717 135 807M298 826Q298 776 326 737.50Q354 699 415.50 665Q477 631 576 593L620 577Q666 604 704 648.50Q742 693 742 759Q742 809 715 849.50Q688 890 622.50 925.50Q557 961 439 998Q384 982 341 937Q298 892 298 826Z"  horiz-adv-x="1038" vert-adv-y="2048"  />

      
      <glyph glyph-name="unia8" unicode="&#xa8;" d="M302 1397Q302 1452 332 1477.50Q362 1503 405 1503Q448 1503 478.50 1477.50Q509 1452 509 1397Q509 1343 478.50 1316.50Q448 1290 405 1290Q362 1290 332 1316.50Q302 1343 302 1397M691 1397Q691 1452 720.50 1477.50Q750 1503 793 1503Q836 1503 867 1477.50Q898 1452 898 1397Q898 1343 867 1316.50Q836 1290 793 1290Q750 1290 720.50 1316.50Q691 1343 691 1397Z"  horiz-adv-x="1201" vert-adv-y="2048"  />

      
      <glyph glyph-name="unia9" unicode="&#xa9;" d="M852-20Q689-20 551.50 36Q414 92 312.50 193Q211 294 155.50 431.50Q100 569 100 731Q100 892 156 1029.50Q212 1167 314 1268.50Q416 1370 553.50 1426.50Q691 1483 852 1483Q1009 1483 1145.50 1427Q1282 1371 1385 1269.50Q1488 1168 1546 1031Q1604 894 1604 731Q1604 569 1548 431.50Q1492 294 1390.50 193Q1289 92 1152 36Q1015-20 852-20M884 271Q680 271 577.50 396.50Q475 522 475 731Q475 865 523.50 968.50Q572 1072 665.50 1131Q759 1190 892 1190Q957 1190 1022.50 1174Q1088 1158 1145 1129L1088 1007Q1038 1033 989 1046.50Q940 1060 894 1060Q768 1060 699 972Q630 884 630 731Q630 572 692.50 486.50Q755 401 891 401Q940 401 998 414Q1056 427 1108 448L1108 321Q1059 299 1007 285Q955 271 884 271M852 89Q983 89 1098 136.50Q1213 184 1300 270.50Q1387 357 1436.50 474Q1486 591 1486 731Q1486 864 1438.50 980Q1391 1096 1306 1185Q1221 1274 1105.50 1324Q990 1374 852 1374Q714 1374 598 1326.50Q482 1279 396.50 1192.50Q311 1106 264 988.50Q217 871 217 731Q217 597 263.50 480.50Q310 364 395.50 276Q481 188 597 138.50Q713 89 852 89Z"  horiz-adv-x="1704" vert-adv-y="2048"  />

      
      <glyph glyph-name="uniaa" unicode="&#xaa;" d="M373 1479Q507 1479 574 1419.50Q641 1360 641 1239L641 791L539 791L514 884Q474 837 415.50 807.50Q357 778 281 778Q215 778 165.50 800.50Q116 823 89.50 869.50Q63 916 63 985Q63 1056 99.50 1102.50Q136 1149 209.50 1173.50Q283 1198 393 1202L501 1206L501 1246Q501 1309 461.50 1336.50Q422 1364 359 1364Q307 1364 254 1349Q201 1334 152 1309L103 1414Q159 1442 227.50 1460.50Q296 1479 373 1479M501 1110L403 1106Q287 1101 246.50 1069.50Q206 1038 206 985Q206 936 235 913Q264 890 312 890Q409 890 455 938Q501 986 501 1064L501 1110Z"  horiz-adv-x="738" vert-adv-y="2048"  />

      
      <glyph glyph-name="uniab" unicode="&#xab;" d="M80 560L428 981L572 900L287 548L572 197L428 115L80 534L80 560M505 560L856 981L999 900L715 548L999 197L856 115L505 534L505 560Z"  horiz-adv-x="1076" vert-adv-y="2048"  />

      
      <glyph glyph-name="uniac" unicode="&#xac;" d="M1065 800L1065 259L910 259L910 644L99 644L99 800L1065 800Z"  horiz-adv-x="1171" vert-adv-y="2048"  />

      
      <glyph glyph-name="uniad" unicode="&#xad;" d="M77 463L77 637L583 637L583 463L77 463Z"  horiz-adv-x="659" vert-adv-y="2048"  />

      
      <glyph glyph-name="uniae" unicode="&#xae;" d="M572 284L572 1180L836 1180Q1000 1180 1078 1113Q1156 1046 1156 914Q1156 817 1106.50 760.50Q1057 704 993 679L1231 284L1061 284L857 637L722 637L722 284L572 284M722 760L831 760Q913 760 958.50 800.50Q1004 841 1004 910Q1004 986 962 1019.50Q920 1053 829 1053L722 1053L722 760M852-20Q689-20 551.50 36Q414 92 312.50 193Q211 294 155.50 431.50Q100 569 100 731Q100 892 156 1029.50Q212 1167 314 1268.50Q416 1370 553.50 1426.50Q691 1483 852 1483Q1009 1483 1145.50 1427Q1282 1371 1385 1269.50Q1488 1168 1546 1031Q1604 894 1604 731Q1604 569 1548 431.50Q1492 294 1390.50 193Q1289 92 1152 36Q1015-20 852-20M852 89Q983 89 1098 136.50Q1213 184 1300 270.50Q1387 357 1436.50 474Q1486 591 1486 731Q1486 864 1438.50 980Q1391 1096 1306 1185Q1221 1274 1105.50 1324Q990 1374 852 1374Q714 1374 598 1326.50Q482 1279 396.50 1192.50Q311 1106 264 988.50Q217 871 217 731Q217 597 263.50 480.50Q310 364 395.50 276Q481 188 597 138.50Q713 89 852 89Z"  horiz-adv-x="1704" vert-adv-y="2048"  />

      
      <glyph glyph-name="uniaf" unicode="&#xaf;" d="M1030 1556L-6 1556L-6 1702L1030 1702L1030 1556Z"  horiz-adv-x="1024" vert-adv-y="2048"  />

      
      <glyph glyph-name="unib0" unicode="&#xb0;" d="M438 843Q340 843 265.50 883Q191 923 149.50 995.50Q108 1068 108 1162Q108 1257 149 1329Q190 1401 264 1442Q338 1483 438 1483Q536 1483 610.50 1442.50Q685 1402 727 1329.50Q769 1257 769 1162Q769 1068 727 995.50Q685 923 610.50 883Q536 843 438 843M440 976Q529 976 577.50 1027Q626 1078 626 1162Q626 1249 576.50 1300.50Q527 1352 440 1352Q348 1352 300 1300.50Q252 1249 252 1162Q252 1078 299.50 1027Q347 976 440 976Z"  horiz-adv-x="877" vert-adv-y="2048"  />

      
      <glyph glyph-name="unib1" unicode="&#xb1;" d="M99 0L99 156L1070 156L1070 0L99 0M663 819L1068 819L1068 663L663 663L663 248L505 248L505 663L99 663L99 819L505 819L505 1236L663 1236L663 819Z"  horiz-adv-x="1171" vert-adv-y="2048"  />

      
      <glyph glyph-name="unib2" unicode="&#xb2;" d="M646 852L51 852L51 972L285 1201Q362 1276 403.50 1324Q445 1372 461 1411Q477 1450 477 1494Q477 1553 442 1584.50Q407 1616 347 1616Q291 1616 241.50 1593.50Q192 1571 139 1528L58 1633Q120 1685 192.50 1716.50Q265 1748 357 1748Q487 1748 563 1683.50Q639 1619 639 1504Q639 1438 613 1382Q587 1326 534.50 1268.50Q482 1211 404 1138L250 992L646 992L646 852Z"  horiz-adv-x="728" vert-adv-y="2048"  />

      
      <glyph glyph-name="unib3" unicode="&#xb3;" d="M349 1747Q487 1747 562.50 1684Q638 1621 638 1521Q638 1441 594.50 1388.50Q551 1336 482 1315L482 1307Q568 1290 615.50 1236Q663 1182 663 1102Q663 983 577 910Q491 837 311 837Q236 837 170.50 851Q105 865 43 896L43 1035Q110 1001 178.50 981Q247 961 311 961Q411 961 458 1000.50Q505 1040 505 1109Q505 1176 452 1210.50Q399 1245 294 1245L176 1245L176 1364L289 1364Q393 1364 436.50 1403Q480 1442 480 1503Q480 1561 442 1591.50Q404 1622 343 1622Q284 1622 231.50 1601Q179 1580 124 1544L48 1646Q110 1691 181 1719Q252 1747 349 1747Z"  horiz-adv-x="728" vert-adv-y="2048"  />

      
      <glyph glyph-name="unib4" unicode="&#xb4;" d="M530 1569L530 1549Q508 1520 470.50 1479.50Q433 1439 388 1394.50Q343 1350 298 1310Q253 1270 216 1241L82 1241L82 1266Q114 1304 153.50 1357Q193 1410 231 1466.50Q269 1523 294 1569L530 1569Z"  horiz-adv-x="611" vert-adv-y="2048"  />

      
      <glyph glyph-name="unib5" unicode="&#xb5;" d="M1116 1102L1116 0L957 0L927 152L917 152Q884 97 840 58.50Q796 20 737.50 0Q679-20 604-20Q524-20 466 6Q408 32 370 78L363 78Q366 54 368 16.50Q370-21 371-66.50Q372-112 372-161L372-492L171-492L171 1102L372 1102L372 407Q372 278 431 211Q490 144 610 144Q726 144 792.50 189.50Q859 235 887.50 323Q916 411 916 537L916 1102L1116 1102Z"  horiz-adv-x="1288" vert-adv-y="2048"  />

      
      <glyph glyph-name="unib6" unicode="&#xb6;" d="M1130-260L1006-260L1006 1426L803 1426L803-260L678-260L678 573Q647 564 609 559.50Q571 555 532 555Q407 555 314.50 603Q222 651 171 760Q120 869 120 1050Q120 1241 175.50 1351.50Q231 1462 330.50 1509Q430 1556 563 1556L1130 1556L1130-260Z"  horiz-adv-x="1341" vert-adv-y="2048"  />

      
      <glyph glyph-name="unib7" unicode="&#xb7;" d="M142 716Q142 792 180.50 823.50Q219 855 274 855Q330 855 369 823.50Q408 792 408 716Q408 642 369 608Q330 574 274 574Q219 574 180.50 608Q142 642 142 716Z"  horiz-adv-x="550" vert-adv-y="2048"  />

      
      <glyph glyph-name="unib8" unicode="&#xb8;" d="M425-277Q425-378 352-435Q279-492 126-492Q92-492 62-488Q32-484 12-478L12-358Q33-362 66-366Q99-370 129-370Q193-370 228.50-350.50Q264-331 264-283Q264-232 214.50-206Q165-180 80-170L166 0L297 0L250-99Q298-110 337.50-132Q377-154 401-189.50Q425-225 425-277Z"  horiz-adv-x="446" vert-adv-y="2048"  />

      
      <glyph glyph-name="unib9" unicode="&#xb9;" d="M507 1729L507 852L346 852L346 1388Q346 1422 347 1456.50Q348 1491 349.50 1523.50Q351 1556 353 1582Q335 1563 309.50 1541.50Q284 1520 258 1502L157 1429L80 1531L356 1729L507 1729Z"  horiz-adv-x="728" vert-adv-y="2048"  />

      
      <glyph glyph-name="uniba" unicode="&#xba;" d="M710 1130Q710 964 622 871Q534 778 385 778Q244 778 154.50 869Q65 960 65 1130Q65 1298 151.50 1389Q238 1480 389 1480Q486 1480 557.50 1439Q629 1398 669.50 1320Q710 1242 710 1130M206 1130Q206 1015 248.50 955.50Q291 896 386 896Q480 896 523 955.50Q566 1015 566 1130Q566 1245 523.50 1303.50Q481 1362 387 1362Q293 1362 249.50 1304.50Q206 1247 206 1130Z"  horiz-adv-x="773" vert-adv-y="2048"  />

      
      <glyph glyph-name="unibb" unicode="&#xbb;" d="M997 534L646 115L504 197L788 549L504 900L646 981L997 561L997 534M570 534L221 115L78 197L362 549L78 900L221 981L570 561L570 534Z"  horiz-adv-x="1076" vert-adv-y="2048"  />

      
      <glyph glyph-name="unibc" unicode="&#xbc;" d="M277 0L1138 1462L1306 1462L444 0L277 0M327 586L327 1122Q327 1156 328 1190.50Q329 1225 330.50 1257.50Q332 1290 334 1316Q315 1297 290 1275.50Q265 1254 239 1235L138 1163L61 1265L336 1462L487 1462L487 586L327 586M1250 0L1250 192L853 192L853 304L1253 883L1416 883L1416 319L1543 319L1543 192L1416 192L1416 0L1250 0M1000 319L1250 319L1250 515Q1250 559 1251 612Q1252 665 1255 714Q1245 688 1216 640Q1187 592 1165 560L1000 319Z"  horiz-adv-x="1562" vert-adv-y="2048"  />

      
      <glyph glyph-name="unibd" unicode="&#xbd;" d="M236 0L1098 1462L1265 1462L403 0L236 0M310 586L310 1122Q310 1147 310.50 1173Q311 1199 312.50 1224.50Q314 1250 315.50 1273Q317 1296 318 1316Q298 1297 273 1275.50Q248 1254 222 1235L121 1163L44 1265L320 1462L471 1462L471 586L310 586M951 0L951 120L1184 349Q1261 424 1302.50 472Q1344 520 1360.50 559Q1377 598 1377 642Q1377 701 1341 732.50Q1305 764 1246 764Q1190 764 1140.50 741.50Q1091 719 1039 676L958 781Q1019 833 1092 864.50Q1165 896 1256 896Q1387 896 1462.50 831.50Q1538 767 1538 652Q1538 586 1511.50 530Q1485 474 1433 416.50Q1381 359 1303 286L1150 140L1545 140L1545 0L951 0Z"  horiz-adv-x="1627" vert-adv-y="2048"  />

      
      <glyph glyph-name="unibe" unicode="&#xbe;" d="M365 0L1227 1462L1394 1462L533 0L365 0M316 570Q241 570 175 584.50Q109 599 47 630L47 768Q115 734 183.50 714.50Q252 695 317 695Q416 695 463.50 734Q511 773 511 843Q511 910 457.50 944Q404 978 298 978L181 978L181 1098L293 1098Q397 1098 441 1137Q485 1176 485 1237Q485 1295 447 1325.50Q409 1356 348 1356Q288 1356 236.50 1335Q185 1314 129 1278L52 1379Q114 1425 186 1453Q258 1481 354 1481Q492 1481 567 1418Q642 1355 642 1254Q642 1175 599 1122.50Q556 1070 487 1049L487 1040Q573 1023 621 969.50Q669 916 669 836Q669 716 582.50 643Q496 570 316 570M1317 0L1317 192L920 192L920 304L1320 883L1483 883L1483 319L1610 319L1610 192L1483 192L1483 0L1317 0M1068 319L1317 319L1317 515Q1317 559 1318.50 612Q1320 665 1323 714Q1311 688 1282.50 640Q1254 592 1232 560L1068 319Z"  horiz-adv-x="1628" vert-adv-y="2048"  />

      
      <glyph glyph-name="unibf" unicode="&#xbf;" d="M622 664L622 607Q622 531 606 474Q590 417 551.50 368Q513 319 445 264Q371 204 327 161.50Q283 119 264 75.50Q245 32 245-27Q245-121 308-171.50Q371-222 483-222Q578-222 657-196Q736-170 811-134L882-289Q795-335 694.50-364Q594-393 470-393Q271-393 162.50-295.50Q54-198 54-34Q54 57 83 121.50Q112 186 167 240Q222 294 297 354Q363 407 396.50 446.50Q430 486 443 527Q456 568 456 625L456 664L622 664M663 976Q663 900 625.50 868.50Q588 837 530 837Q476 837 437 868.50Q398 900 398 976Q398 1051 437 1084.50Q476 1118 530 1118Q588 1118 625.50 1084.50Q663 1051 663 976Z"  horiz-adv-x="907" vert-adv-y="2048"  />

      
      <glyph glyph-name="unic0" unicode="&#xc0;" d="M1108 0L946 435L373 435L213 0L0 0L558 1468L768 1468L1323 0L1108 0M889 613L735 1044Q728 1066 713.50 1110Q699 1154 684.50 1201Q670 1248 661 1279Q651 1238 638 1192.50Q625 1147 612.50 1107.50Q600 1068 592 1044L436 613L889 613M597 1930Q623 1884 660 1827.50Q697 1771 737.50 1718Q778 1665 811 1627L811 1602L676 1602Q639 1631 594 1671Q549 1711 504 1755.50Q459 1800 422 1840.50Q385 1881 363 1910L363 1930L597 1930Z"  horiz-adv-x="1325" vert-adv-y="2048"  />

      
      <glyph glyph-name="unic1" unicode="&#xc1;" d="M1108 0L946 435L373 435L213 0L0 0L558 1468L768 1468L1323 0L1108 0M889 613L735 1044Q728 1066 713.50 1110Q699 1154 684.50 1201Q670 1248 661 1279Q651 1238 638 1192.50Q625 1147 612.50 1107.50Q600 1068 592 1044L436 613L889 613M976 1930L976 1910Q954 1881 916.50 1840.50Q879 1800 834 1755.50Q789 1711 744 1671Q699 1631 662 1602L528 1602L528 1627Q560 1665 599.50 1718Q639 1771 677 1827.50Q715 1884 740 1930L976 1930Z"  horiz-adv-x="1325" vert-adv-y="2048"  />

      
      <glyph glyph-name="unic2" unicode="&#xc2;" d="M1108 0L946 435L373 435L213 0L0 0L558 1468L768 1468L1323 0L1108 0M889 613L735 1044Q728 1066 713.50 1110Q699 1154 684.50 1201Q670 1248 661 1279Q651 1238 638 1192.50Q625 1147 612.50 1107.50Q600 1068 592 1044L436 613L889 613M771 1929Q797 1884 842.50 1827.50Q888 1771 938 1717.50Q988 1664 1026 1625L1026 1602L887 1602Q833 1636 774.50 1685.50Q716 1735 662 1790Q608 1735 551 1686.50Q494 1638 440 1602L304 1602L304 1625Q342 1665 390.50 1718.50Q439 1772 484 1828Q529 1884 556 1929L771 1929Z"  horiz-adv-x="1325" vert-adv-y="2048"  />

      
      <glyph glyph-name="unic3" unicode="&#xc3;" d="M1108 0L946 435L373 435L213 0L0 0L558 1468L768 1468L1323 0L1108 0M889 613L735 1044Q728 1066 713.50 1110Q699 1154 684.50 1201Q670 1248 661 1279Q651 1238 638 1192.50Q625 1147 612.50 1107.50Q600 1068 592 1044L436 613L889 613M275 1604Q281 1669 299.50 1719Q318 1769 348.50 1803Q379 1837 419.50 1854.50Q460 1872 508 1872Q553 1872 594.50 1854.50Q636 1837 674 1814Q712 1791 748 1773.50Q784 1756 818 1756Q861 1756 888 1784.50Q915 1813 929 1874L1040 1874Q1027 1747 965.50 1676Q904 1605 807 1605Q763 1605 722.50 1623Q682 1641 644 1663.50Q606 1686 569.50 1704Q533 1722 497 1722Q453 1722 426.50 1693.50Q400 1665 386 1604L275 1604Z"  horiz-adv-x="1325" vert-adv-y="2048"  />

      
      <glyph glyph-name="unic4" unicode="&#xc4;" d="M1108 0L946 435L373 435L213 0L0 0L558 1468L768 1468L1323 0L1108 0M889 613L735 1044Q728 1066 713.50 1110Q699 1154 684.50 1201Q670 1248 661 1279Q651 1238 638 1192.50Q625 1147 612.50 1107.50Q600 1068 592 1044L436 613L889 613M362 1758Q362 1813 392 1838.50Q422 1864 465 1864Q508 1864 538.50 1838.50Q569 1813 569 1758Q569 1704 538.50 1677.50Q508 1651 465 1651Q422 1651 392 1677.50Q362 1704 362 1758M751 1758Q751 1813 780.50 1838.50Q810 1864 853 1864Q896 1864 927 1838.50Q958 1813 958 1758Q958 1704 927 1677.50Q896 1651 853 1651Q810 1651 780.50 1677.50Q751 1704 751 1758Z"  horiz-adv-x="1325" vert-adv-y="2048"  />

      
      <glyph glyph-name="unic5" unicode="&#xc5;" d="M1108 0L946 435L373 435L213 0L0 0L558 1468L768 1468L1323 0L1108 0M889 613L735 1044Q728 1066 713.50 1110Q699 1154 684.50 1201Q670 1248 661 1279Q651 1238 638 1192.50Q625 1147 612.50 1107.50Q600 1068 592 1044L436 613L889 613M659 1361Q558 1361 494.50 1420Q431 1479 431 1583Q431 1685 494.50 1744Q558 1803 659 1803Q757 1803 824 1744.50Q891 1686 891 1585Q891 1480 824.50 1420.50Q758 1361 659 1361M659 1469Q709 1469 741 1499.50Q773 1530 773 1583Q773 1635 740 1665.50Q707 1696 659 1696Q611 1696 578 1665.50Q545 1635 545 1583Q545 1530 574.50 1499.50Q604 1469 659 1469Z"  horiz-adv-x="1325" vert-adv-y="2048"  />

      
      <glyph glyph-name="unic6" unicode="&#xc6;" d="M1706 0L915 0L915 435L413 435L209 0L-1 0L678 1462L1706 1462L1706 1286L1120 1286L1120 851L1668 851L1668 677L1120 677L1120 177L1706 177L1706 0M491 613L915 613L915 1282L797 1282L491 613Z"  horiz-adv-x="1821" vert-adv-y="2048"  />

      
      <glyph glyph-name="unic7" unicode="&#xc7;" d="M820 1306Q707 1306 617.50 1266.50Q528 1227 466 1151.50Q404 1076 371 970Q338 864 338 731Q338 554 390.50 425Q443 296 549 226Q655 156 816 156Q912 156 999.50 173.50Q1087 191 1174 219L1174 43Q1090 11 1000.50-4.50Q911-20 791-20Q567-20 418.50 73Q270 166 197 334.50Q124 503 124 732Q124 898 170 1035.50Q216 1173 305 1273.50Q394 1374 523.50 1428.50Q653 1483 822 1483Q932 1483 1036.50 1459.50Q1141 1436 1229 1394L1153 1223Q1080 1256 996.50 1281Q913 1306 820 1306M970-277Q970-378 897-435Q824-492 671-492Q637-492 607-488Q577-484 557-478L557-358Q578-362 611-366Q644-370 674-370Q738-370 773.50-350.50Q809-331 809-283Q809-232 759.50-206Q710-180 625-170L711 0L842 0L795-99Q843-110 882.50-132Q922-154 946-189.50Q970-225 970-277Z"  horiz-adv-x="1294" vert-adv-y="2048"  />

      
      <glyph glyph-name="unic8" unicode="&#xc8;" d="M1017 0L196 0L196 1462L1017 1462L1017 1286L401 1286L401 851L980 851L980 677L401 677L401 177L1017 177L1017 0M560 1930Q586 1884 623 1827.50Q660 1771 700.50 1718Q741 1665 774 1627L774 1602L639 1602Q602 1631 557 1671Q512 1711 467 1755.50Q422 1800 385 1840.50Q348 1881 326 1910L326 1930L560 1930Z"  horiz-adv-x="1140" vert-adv-y="2048"  />

      
      <glyph glyph-name="unic9" unicode="&#xc9;" d="M1017 0L196 0L196 1462L1017 1462L1017 1286L401 1286L401 851L980 851L980 677L401 677L401 177L1017 177L1017 0M939 1930L939 1910Q917 1881 879.50 1840.50Q842 1800 797 1755.50Q752 1711 707 1671Q662 1631 625 1602L491 1602L491 1627Q523 1665 562.50 1718Q602 1771 640 1827.50Q678 1884 703 1930L939 1930Z"  horiz-adv-x="1140" vert-adv-y="2048"  />

      
      <glyph glyph-name="unica" unicode="&#xca;" d="M1017 0L196 0L196 1462L1017 1462L1017 1286L401 1286L401 851L980 851L980 677L401 677L401 177L1017 177L1017 0M733 1929Q759 1884 804.50 1827.50Q850 1771 900 1717.50Q950 1664 988 1625L988 1602L849 1602Q795 1636 736.50 1685.50Q678 1735 624 1790Q570 1735 513 1686.50Q456 1638 402 1602L266 1602L266 1625Q304 1665 352.50 1718.50Q401 1772 446 1828Q491 1884 518 1929L733 1929Z"  horiz-adv-x="1140" vert-adv-y="2048"  />

      
      <glyph glyph-name="unicb" unicode="&#xcb;" d="M1017 0L196 0L196 1462L1017 1462L1017 1286L401 1286L401 851L980 851L980 677L401 677L401 177L1017 177L1017 0M325 1758Q325 1813 355 1838.50Q385 1864 428 1864Q471 1864 501.50 1838.50Q532 1813 532 1758Q532 1704 501.50 1677.50Q471 1651 428 1651Q385 1651 355 1677.50Q325 1704 325 1758M714 1758Q714 1813 743.50 1838.50Q773 1864 816 1864Q859 1864 890 1838.50Q921 1813 921 1758Q921 1704 890 1677.50Q859 1651 816 1651Q773 1651 743.50 1677.50Q714 1704 714 1758Z"  horiz-adv-x="1140" vert-adv-y="2048"  />

      
      <glyph glyph-name="unicc" unicode="&#xcc;" d="M196 0L196 1462L401 1462L401 0L196 0M202 1930Q228 1884 265 1827.50Q302 1771 342.50 1718Q383 1665 416 1627L416 1602L281 1602Q244 1631 199 1671Q154 1711 109 1755.50Q64 1800 27 1840.50Q-10 1881-32 1910L-32 1930L202 1930Z"  horiz-adv-x="599" vert-adv-y="2048"  />

      
      <glyph glyph-name="unicd" unicode="&#xcd;" d="M196 0L196 1462L401 1462L401 0L196 0M632 1930L632 1910Q610 1881 572.50 1840.50Q535 1800 490 1755.50Q445 1711 400 1671Q355 1631 318 1602L184 1602L184 1627Q216 1665 255.50 1718Q295 1771 333 1827.50Q371 1884 396 1930L632 1930Z"  horiz-adv-x="599" vert-adv-y="2048"  />

      
      <glyph glyph-name="unice" unicode="&#xce;" d="M196 0L196 1462L401 1462L401 0L196 0M406 1929Q432 1884 477.50 1827.50Q523 1771 573 1717.50Q623 1664 661 1625L661 1602L522 1602Q468 1636 409.50 1685.50Q351 1735 297 1790Q243 1735 186 1686.50Q129 1638 75 1602L-61 1602L-61 1625Q-23 1665 25.50 1718.50Q74 1772 119 1828Q164 1884 191 1929L406 1929Z"  horiz-adv-x="599" vert-adv-y="2048"  />

      
      <glyph glyph-name="unicf" unicode="&#xcf;" d="M196 0L196 1462L401 1462L401 0L196 0M3 1758Q3 1813 33 1838.50Q63 1864 106 1864Q149 1864 179.50 1838.50Q210 1813 210 1758Q210 1704 179.50 1677.50Q149 1651 106 1651Q63 1651 33 1677.50Q3 1704 3 1758M392 1758Q392 1813 421.50 1838.50Q451 1864 494 1864Q537 1864 568 1838.50Q599 1813 599 1758Q599 1704 568 1677.50Q537 1651 494 1651Q451 1651 421.50 1677.50Q392 1704 392 1758Z"  horiz-adv-x="599" vert-adv-y="2048"  />

      
      <glyph glyph-name="unid0" unicode="&#xd0;" d="M642 1462Q866 1462 1029 1380.50Q1192 1299 1281 1139.50Q1370 980 1370 745Q1370 498 1279 332.50Q1188 167 1015 83.50Q842 0 596 0L206 0L206 636L55 636L55 811L206 811L206 1462L642 1462M626 1290L410 1290L410 811L748 811L748 636L410 636L410 174L589 174Q872 174 1013.50 316Q1155 458 1155 739Q1155 927 1093.50 1049Q1032 1171 914 1230.50Q796 1290 626 1290Z"  horiz-adv-x="1494" vert-adv-y="2048"  />

      
      <glyph glyph-name="unid1" unicode="&#xd1;" d="M1378 0L1132 0L375 1198L367 1198Q370 1144 374 1079.50Q378 1015 380.50 944.50Q383 874 384 802L384 0L196 0L196 1462L440 1462L1194 270L1201 270Q1199 314 1196 379Q1193 444 1190.50 516.50Q1188 589 1188 654L1188 1462L1378 1462L1378 0M403 1604Q409 1669 427.50 1719Q446 1769 476.50 1803Q507 1837 547.50 1854.50Q588 1872 636 1872Q681 1872 722.50 1854.50Q764 1837 802 1814Q840 1791 876 1773.50Q912 1756 946 1756Q989 1756 1016 1784.50Q1043 1813 1057 1874L1168 1874Q1155 1747 1093.50 1676Q1032 1605 935 1605Q891 1605 850.50 1623Q810 1641 772 1663.50Q734 1686 697.50 1704Q661 1722 625 1722Q581 1722 554.50 1693.50Q528 1665 514 1604L403 1604Z"  horiz-adv-x="1573" vert-adv-y="2048"  />

      
      <glyph glyph-name="unid2" unicode="&#xd2;" d="M1479 733Q1479 564 1436 425.50Q1393 287 1308.50 187.50Q1224 88 1097.50 34Q971-20 802-20Q630-20 502.50 34Q375 88 291 188Q207 288 165.50 427Q124 566 124 735Q124 960 198 1129Q272 1298 423.50 1391.50Q575 1485 805 1485Q1027 1485 1177 1392Q1327 1299 1403 1130.50Q1479 962 1479 733M339 733Q339 555 388.50 425.50Q438 296 540.50 225.50Q643 155 802 155Q963 155 1065 225.50Q1167 296 1215 425.50Q1263 555 1263 733Q1263 1003 1153 1155.50Q1043 1308 805 1308Q645 1308 542 1238.50Q439 1169 389 1040.50Q339 912 339 733M739 1930Q765 1884 802 1827.50Q839 1771 879.50 1718Q920 1665 953 1627L953 1602L818 1602Q781 1631 736 1671Q691 1711 646 1755.50Q601 1800 564 1840.50Q527 1881 505 1910L505 1930L739 1930Z"  horiz-adv-x="1602" vert-adv-y="2048"  />

      
      <glyph glyph-name="unid3" unicode="&#xd3;" d="M1479 733Q1479 564 1436 425.50Q1393 287 1308.50 187.50Q1224 88 1097.50 34Q971-20 802-20Q630-20 502.50 34Q375 88 291 188Q207 288 165.50 427Q124 566 124 735Q124 960 198 1129Q272 1298 423.50 1391.50Q575 1485 805 1485Q1027 1485 1177 1392Q1327 1299 1403 1130.50Q1479 962 1479 733M339 733Q339 555 388.50 425.50Q438 296 540.50 225.50Q643 155 802 155Q963 155 1065 225.50Q1167 296 1215 425.50Q1263 555 1263 733Q1263 1003 1153 1155.50Q1043 1308 805 1308Q645 1308 542 1238.50Q439 1169 389 1040.50Q339 912 339 733M1117 1930L1117 1910Q1095 1881 1057.50 1840.50Q1020 1800 975 1755.50Q930 1711 885 1671Q840 1631 803 1602L669 1602L669 1627Q701 1665 740.50 1718Q780 1771 818 1827.50Q856 1884 881 1930L1117 1930Z"  horiz-adv-x="1602" vert-adv-y="2048"  />

      
      <glyph glyph-name="unid4" unicode="&#xd4;" d="M1479 733Q1479 564 1436 425.50Q1393 287 1308.50 187.50Q1224 88 1097.50 34Q971-20 802-20Q630-20 502.50 34Q375 88 291 188Q207 288 165.50 427Q124 566 124 735Q124 960 198 1129Q272 1298 423.50 1391.50Q575 1485 805 1485Q1027 1485 1177 1392Q1327 1299 1403 1130.50Q1479 962 1479 733M339 733Q339 555 388.50 425.50Q438 296 540.50 225.50Q643 155 802 155Q963 155 1065 225.50Q1167 296 1215 425.50Q1263 555 1263 733Q1263 1003 1153 1155.50Q1043 1308 805 1308Q645 1308 542 1238.50Q439 1169 389 1040.50Q339 912 339 733M912 1929Q938 1884 983.50 1827.50Q1029 1771 1079 1717.50Q1129 1664 1167 1625L1167 1602L1028 1602Q974 1636 915.50 1685.50Q857 1735 803 1790Q749 1735 692 1686.50Q635 1638 581 1602L445 1602L445 1625Q483 1665 531.50 1718.50Q580 1772 625 1828Q670 1884 697 1929L912 1929Z"  horiz-adv-x="1602" vert-adv-y="2048"  />

      
      <glyph glyph-name="unid5" unicode="&#xd5;" d="M1479 733Q1479 564 1436 425.50Q1393 287 1308.50 187.50Q1224 88 1097.50 34Q971-20 802-20Q630-20 502.50 34Q375 88 291 188Q207 288 165.50 427Q124 566 124 735Q124 960 198 1129Q272 1298 423.50 1391.50Q575 1485 805 1485Q1027 1485 1177 1392Q1327 1299 1403 1130.50Q1479 962 1479 733M339 733Q339 555 388.50 425.50Q438 296 540.50 225.50Q643 155 802 155Q963 155 1065 225.50Q1167 296 1215 425.50Q1263 555 1263 733Q1263 1003 1153 1155.50Q1043 1308 805 1308Q645 1308 542 1238.50Q439 1169 389 1040.50Q339 912 339 733M415 1604Q421 1669 439.50 1719Q458 1769 488.50 1803Q519 1837 559.50 1854.50Q600 1872 648 1872Q693 1872 734.50 1854.50Q776 1837 814 1814Q852 1791 888 1773.50Q924 1756 958 1756Q1001 1756 1028 1784.50Q1055 1813 1069 1874L1180 1874Q1167 1747 1105.50 1676Q1044 1605 947 1605Q903 1605 862.50 1623Q822 1641 784 1663.50Q746 1686 709.50 1704Q673 1722 637 1722Q593 1722 566.50 1693.50Q540 1665 526 1604L415 1604Z"  horiz-adv-x="1602" vert-adv-y="2048"  />

      
      <glyph glyph-name="unid6" unicode="&#xd6;" d="M1479 733Q1479 564 1436 425.50Q1393 287 1308.50 187.50Q1224 88 1097.50 34Q971-20 802-20Q630-20 502.50 34Q375 88 291 188Q207 288 165.50 427Q124 566 124 735Q124 960 198 1129Q272 1298 423.50 1391.50Q575 1485 805 1485Q1027 1485 1177 1392Q1327 1299 1403 1130.50Q1479 962 1479 733M339 733Q339 555 388.50 425.50Q438 296 540.50 225.50Q643 155 802 155Q963 155 1065 225.50Q1167 296 1215 425.50Q1263 555 1263 733Q1263 1003 1153 1155.50Q1043 1308 805 1308Q645 1308 542 1238.50Q439 1169 389 1040.50Q339 912 339 733M503 1758Q503 1813 533 1838.50Q563 1864 606 1864Q649 1864 679.50 1838.50Q710 1813 710 1758Q710 1704 679.50 1677.50Q649 1651 606 1651Q563 1651 533 1677.50Q503 1704 503 1758M892 1758Q892 1813 921.50 1838.50Q951 1864 994 1864Q1037 1864 1068 1838.50Q1099 1813 1099 1758Q1099 1704 1068 1677.50Q1037 1651 994 1651Q951 1651 921.50 1677.50Q892 1704 892 1758Z"  horiz-adv-x="1602" vert-adv-y="2048"  />

      
      <glyph glyph-name="unid7" unicode="&#xd7;" d="M927 1175L1036 1065L694 723L1034 382L925 271L582 610L245 272L133 382L472 723L132 1062L244 1175L584 833L927 1175Z"  horiz-adv-x="1171" vert-adv-y="2048"  />

      
      <glyph glyph-name="unid8" unicode="&#xd8;" d="M1479 733Q1479 564 1436 425.50Q1393 287 1308.50 187.50Q1224 88 1097.50 34Q971-20 802-20Q689-20 596 3.50Q503 27 430 73L331-69L204 15L309 166Q215 266 169.50 410.50Q124 555 124 735Q124 960 198 1129Q272 1298 423.50 1391.50Q575 1485 805 1485Q911 1485 1002 1461.50Q1093 1438 1167 1395L1262 1530L1388 1445L1286 1301Q1381 1203 1430 1059Q1479 915 1479 733M1263 733Q1263 856 1239 956Q1215 1056 1167 1128L538 229Q589 194 655 174.50Q721 155 802 155Q963 155 1065 225.50Q1167 296 1215 425.50Q1263 555 1263 733M339 733Q339 613 362 514.50Q385 416 431 343L1060 1238Q1010 1272 946.50 1290Q883 1308 805 1308Q645 1308 542 1238.50Q439 1169 389 1040.50Q339 912 339 733Z"  horiz-adv-x="1602" vert-adv-y="2048"  />

      
      <glyph glyph-name="unid9" unicode="&#xd9;" d="M1323 1462L1323 516Q1323 362 1259.50 241Q1196 120 1068 50Q940-20 746-20Q471-20 326.50 127.50Q182 275 182 520L182 1462L388 1462L388 528Q388 343 480.50 249Q573 155 756 155Q882 155 962 200.50Q1042 246 1080.50 329.50Q1119 413 1119 528L1119 1462L1323 1462M691 1930Q717 1884 754 1827.50Q791 1771 831.50 1718Q872 1665 905 1627L905 1602L770 1602Q733 1631 688 1671Q643 1711 598 1755.50Q553 1800 516 1840.50Q479 1881 457 1910L457 1930L691 1930Z"  horiz-adv-x="1507" vert-adv-y="2048"  />

      
      <glyph glyph-name="unida" unicode="&#xda;" d="M1323 1462L1323 516Q1323 362 1259.50 241Q1196 120 1068 50Q940-20 746-20Q471-20 326.50 127.50Q182 275 182 520L182 1462L388 1462L388 528Q388 343 480.50 249Q573 155 756 155Q882 155 962 200.50Q1042 246 1080.50 329.50Q1119 413 1119 528L1119 1462L1323 1462M1070 1930L1070 1910Q1048 1881 1010.50 1840.50Q973 1800 928 1755.50Q883 1711 838 1671Q793 1631 756 1602L622 1602L622 1627Q654 1665 693.50 1718Q733 1771 771 1827.50Q809 1884 834 1930L1070 1930Z"  horiz-adv-x="1507" vert-adv-y="2048"  />

      
      <glyph glyph-name="unidb" unicode="&#xdb;" d="M1323 1462L1323 516Q1323 362 1259.50 241Q1196 120 1068 50Q940-20 746-20Q471-20 326.50 127.50Q182 275 182 520L182 1462L388 1462L388 528Q388 343 480.50 249Q573 155 756 155Q882 155 962 200.50Q1042 246 1080.50 329.50Q1119 413 1119 528L1119 1462L1323 1462M864 1929Q890 1884 935.50 1827.50Q981 1771 1031 1717.50Q1081 1664 1119 1625L1119 1602L980 1602Q926 1636 867.50 1685.50Q809 1735 755 1790Q701 1735 644 1686.50Q587 1638 533 1602L397 1602L397 1625Q435 1665 483.50 1718.50Q532 1772 577 1828Q622 1884 649 1929L864 1929Z"  horiz-adv-x="1507" vert-adv-y="2048"  />

      
      <glyph glyph-name="unidc" unicode="&#xdc;" d="M1323 1462L1323 516Q1323 362 1259.50 241Q1196 120 1068 50Q940-20 746-20Q471-20 326.50 127.50Q182 275 182 520L182 1462L388 1462L388 528Q388 343 480.50 249Q573 155 756 155Q882 155 962 200.50Q1042 246 1080.50 329.50Q1119 413 1119 528L1119 1462L1323 1462M456 1758Q456 1813 486 1838.50Q516 1864 559 1864Q602 1864 632.50 1838.50Q663 1813 663 1758Q663 1704 632.50 1677.50Q602 1651 559 1651Q516 1651 486 1677.50Q456 1704 456 1758M845 1758Q845 1813 874.50 1838.50Q904 1864 947 1864Q990 1864 1021 1838.50Q1052 1813 1052 1758Q1052 1704 1021 1677.50Q990 1651 947 1651Q904 1651 874.50 1677.50Q845 1704 845 1758Z"  horiz-adv-x="1507" vert-adv-y="2048"  />

      
      <glyph glyph-name="unidd" unicode="&#xdd;" d="M590 762L958 1462L1178 1462L692 568L692 0L487 0L487 559L0 1462L224 1462L590 762M905 1930L905 1910Q883 1881 845.50 1840.50Q808 1800 763 1755.50Q718 1711 673 1671Q628 1631 591 1602L457 1602L457 1627Q489 1665 528.50 1718Q568 1771 606 1827.50Q644 1884 669 1930L905 1930Z"  horiz-adv-x="1178" vert-adv-y="2048"  />

      
      <glyph glyph-name="unide" unicode="&#xde;" d="M1144 779Q1144 685 1114.50 601Q1085 517 1018.50 452.50Q952 388 842 351Q732 314 571 314L401 314L401 0L196 0L196 1462L401 1462L401 1213L602 1213Q887 1213 1015.50 1098.50Q1144 984 1144 779M401 485L545 485Q677 485 763 514Q849 543 891.50 606Q934 669 934 772Q934 909 849.50 975Q765 1041 578 1041L401 1041L401 485Z"  horiz-adv-x="1246" vert-adv-y="2048"  />

      
      <glyph glyph-name="unidf" unicode="&#xdf;" d="M1100 1261Q1100 1189 1071 1137Q1042 1085 999.50 1045.50Q957 1006 914.50 973.50Q872 941 843 910.50Q814 880 814 843Q814 813 830 790Q846 767 887 736.50Q928 706 1002 657Q1073 611 1124.50 562.50Q1176 514 1204 455Q1232 396 1232 313Q1232 201 1183.50 127Q1135 53 1046 16.50Q957-20 835-20Q738-20 665.50-3Q593 14 538 46L538 220Q574 199 621 179.50Q668 160 721 148Q774 136 826 136Q933 136 982.50 181Q1032 226 1032 304Q1032 353 1014.50 388.50Q997 424 955.50 460Q914 496 840 542Q757 594 708 637.50Q659 681 638 725Q617 769 617 825Q617 890 645 934.50Q673 979 715 1012.50Q757 1046 798.50 1078Q840 1110 868 1148Q896 1186 896 1241Q896 1322 825.50 1362.50Q755 1403 644 1403Q569 1403 507 1381.50Q445 1360 408.50 1310.50Q372 1261 372 1175L372 0L171 0L171 1178Q171 1317 233 1402.50Q295 1488 401.50 1527.50Q508 1567 644 1567Q780 1567 882 1532.50Q984 1498 1042 1430Q1100 1362 1100 1261Z"  horiz-adv-x="1320" vert-adv-y="2048"  />

      
      <glyph glyph-name="unie0" unicode="&#xe0;" d="M593 1121Q797 1121 898 1030.50Q999 940 999 745L999 0L855 0L816 160L808 160Q762 100 712 60Q662 20 596.50 0Q531-20 437-20Q337-20 259 16Q181 52 136.50 124.50Q92 197 92 309Q92 477 221 564Q350 651 612 659L802 667L802 729Q802 858 744.50 911Q687 964 584 964Q499 964 421 939.50Q343 915 271 881L207 1027Q285 1067 384.50 1094Q484 1121 593 1121M800 535L646 528Q455 521 377.50 464.50Q300 408 300 307Q300 219 353 178Q406 137 493 137Q627 137 713.50 212.50Q800 288 800 436L800 535M517 1569Q543 1523 580 1466.50Q617 1410 657.50 1357Q698 1304 731 1266L731 1241L596 1241Q559 1270 514 1310Q469 1350 424 1394.50Q379 1439 342 1479.50Q305 1520 283 1549L283 1569L517 1569Z"  horiz-adv-x="1163" vert-adv-y="2048"  />

      
      <glyph glyph-name="unie1" unicode="&#xe1;" d="M593 1121Q797 1121 898 1030.50Q999 940 999 745L999 0L855 0L816 160L808 160Q762 100 712 60Q662 20 596.50 0Q531-20 437-20Q337-20 259 16Q181 52 136.50 124.50Q92 197 92 309Q92 477 221 564Q350 651 612 659L802 667L802 729Q802 858 744.50 911Q687 964 584 964Q499 964 421 939.50Q343 915 271 881L207 1027Q285 1067 384.50 1094Q484 1121 593 1121M800 535L646 528Q455 521 377.50 464.50Q300 408 300 307Q300 219 353 178Q406 137 493 137Q627 137 713.50 212.50Q800 288 800 436L800 535M897 1569L897 1549Q875 1520 837.50 1479.50Q800 1439 755 1394.50Q710 1350 665 1310Q620 1270 583 1241L449 1241L449 1266Q481 1304 520.50 1357Q560 1410 598 1466.50Q636 1523 661 1569L897 1569Z"  horiz-adv-x="1163" vert-adv-y="2048"  />

      
      <glyph glyph-name="unie2" unicode="&#xe2;" d="M593 1121Q797 1121 898 1030.50Q999 940 999 745L999 0L855 0L816 160L808 160Q762 100 712 60Q662 20 596.50 0Q531-20 437-20Q337-20 259 16Q181 52 136.50 124.50Q92 197 92 309Q92 477 221 564Q350 651 612 659L802 667L802 729Q802 858 744.50 911Q687 964 584 964Q499 964 421 939.50Q343 915 271 881L207 1027Q285 1067 384.50 1094Q484 1121 593 1121M800 535L646 528Q455 521 377.50 464.50Q300 408 300 307Q300 219 353 178Q406 137 493 137Q627 137 713.50 212.50Q800 288 800 436L800 535M691 1568Q717 1523 762.50 1466.50Q808 1410 858 1356.50Q908 1303 946 1264L946 1241L807 1241Q753 1275 694.50 1324.50Q636 1374 582 1429Q528 1374 471 1325.50Q414 1277 360 1241L224 1241L224 1264Q262 1304 310.50 1357.50Q359 1411 404 1467Q449 1523 476 1568L691 1568Z"  horiz-adv-x="1163" vert-adv-y="2048"  />

      
      <glyph glyph-name="unie3" unicode="&#xe3;" d="M593 1121Q797 1121 898 1030.50Q999 940 999 745L999 0L855 0L816 160L808 160Q762 100 712 60Q662 20 596.50 0Q531-20 437-20Q337-20 259 16Q181 52 136.50 124.50Q92 197 92 309Q92 477 221 564Q350 651 612 659L802 667L802 729Q802 858 744.50 911Q687 964 584 964Q499 964 421 939.50Q343 915 271 881L207 1027Q285 1067 384.50 1094Q484 1121 593 1121M800 535L646 528Q455 521 377.50 464.50Q300 408 300 307Q300 219 353 178Q406 137 493 137Q627 137 713.50 212.50Q800 288 800 436L800 535M194 1243Q200 1308 218.50 1358Q237 1408 267.50 1442Q298 1476 338.50 1493.50Q379 1511 427 1511Q472 1511 513.50 1493.50Q555 1476 593 1453Q631 1430 667 1412.50Q703 1395 737 1395Q780 1395 807 1423.50Q834 1452 848 1513L959 1513Q946 1386 884.50 1315Q823 1244 726 1244Q682 1244 641.50 1262Q601 1280 563 1302.50Q525 1325 488.50 1343Q452 1361 416 1361Q372 1361 345.50 1332.50Q319 1304 305 1243L194 1243Z"  horiz-adv-x="1163" vert-adv-y="2048"  />

      
      <glyph glyph-name="unie4" unicode="&#xe4;" d="M593 1121Q797 1121 898 1030.50Q999 940 999 745L999 0L855 0L816 160L808 160Q762 100 712 60Q662 20 596.50 0Q531-20 437-20Q337-20 259 16Q181 52 136.50 124.50Q92 197 92 309Q92 477 221 564Q350 651 612 659L802 667L802 729Q802 858 744.50 911Q687 964 584 964Q499 964 421 939.50Q343 915 271 881L207 1027Q285 1067 384.50 1094Q484 1121 593 1121M800 535L646 528Q455 521 377.50 464.50Q300 408 300 307Q300 219 353 178Q406 137 493 137Q627 137 713.50 212.50Q800 288 800 436L800 535M283 1397Q283 1452 313 1477.50Q343 1503 386 1503Q429 1503 459.50 1477.50Q490 1452 490 1397Q490 1343 459.50 1316.50Q429 1290 386 1290Q343 1290 313 1316.50Q283 1343 283 1397M672 1397Q672 1452 701.50 1477.50Q731 1503 774 1503Q817 1503 848 1477.50Q879 1452 879 1397Q879 1343 848 1316.50Q817 1290 774 1290Q731 1290 701.50 1316.50Q672 1343 672 1397Z"  horiz-adv-x="1163" vert-adv-y="2048"  />

      
      <glyph glyph-name="unie5" unicode="&#xe5;" d="M593 1121Q797 1121 898 1030.50Q999 940 999 745L999 0L855 0L816 160L808 160Q762 100 712 60Q662 20 596.50 0Q531-20 437-20Q337-20 259 16Q181 52 136.50 124.50Q92 197 92 309Q92 477 221 564Q350 651 612 659L802 667L802 729Q802 858 744.50 911Q687 964 584 964Q499 964 421 939.50Q343 915 271 881L207 1027Q285 1067 384.50 1094Q484 1121 593 1121M800 535L646 528Q455 521 377.50 464.50Q300 408 300 307Q300 219 353 178Q406 137 493 137Q627 137 713.50 212.50Q800 288 800 436L800 535M582 1241Q481 1241 417.50 1300Q354 1359 354 1463Q354 1565 417.50 1624Q481 1683 582 1683Q680 1683 747 1624.50Q814 1566 814 1465Q814 1360 747.50 1300.50Q681 1241 582 1241M582 1349Q632 1349 664 1379.50Q696 1410 696 1463Q696 1515 663 1545.50Q630 1576 582 1576Q534 1576 501 1545.50Q468 1515 468 1463Q468 1410 497.50 1379.50Q527 1349 582 1349Z"  horiz-adv-x="1163" vert-adv-y="2048"  />

      
      <glyph glyph-name="unie6" unicode="&#xe6;" d="M1255 1122Q1390 1122 1488.50 1060.50Q1587 999 1640 887.50Q1693 776 1693 626L1693 510L980 510Q984 326 1064.50 234.50Q1145 143 1294 143Q1395 143 1476 163Q1557 183 1641 222L1641 53Q1558 15 1476.50-2.50Q1395-20 1286-20Q1192-20 1112 6.50Q1032 33 970 84.50Q908 136 866 212Q817 139 760.50 87Q704 35 627.50 7.50Q551-20 441-20Q342-20 263 16Q184 52 138 124.50Q92 197 92 309Q92 421 147 496.50Q202 572 312.50 613Q423 654 589 659L776 667L776 741Q776 863 717.50 913.50Q659 964 559 964Q478 964 400.50 940.50Q323 917 252 882L188 1027Q265 1068 367 1094.50Q469 1121 573 1121Q698 1121 781.50 1079Q865 1037 908 945Q965 1029 1051.50 1075.50Q1138 1122 1255 1122M773 535L627 528Q447 521 373.50 464.50Q300 408 300 307Q300 219 350.50 178Q401 137 485 137Q568 137 633 170.50Q698 204 735.50 270.50Q773 337 773 436L773 535M1252 966Q1135 966 1065 888Q995 810 985 659L1489 659Q1489 750 1463.50 819.50Q1438 889 1385 927.50Q1332 966 1252 966Z"  horiz-adv-x="1794" vert-adv-y="2048"  />

      
      <glyph glyph-name="unie7" unicode="&#xe7;" d="M614-20Q462-20 348 41Q234 102 171.50 227.50Q109 353 109 545Q109 745 176 872.50Q243 1000 361.50 1061Q480 1122 633 1122Q723 1122 801.50 1104Q880 1086 933 1059L873 896Q817 918 752.50 935Q688 952 630 952Q524 952 454.50 905.50Q385 859 350 769Q315 679 315 547Q315 419 349.50 330.50Q384 242 451.50 196Q519 150 620 150Q709 150 780 170Q851 190 911 221L911 44Q853 12 783-4Q713-20 614-20M792-277Q792-378 719-435Q646-492 493-492Q459-492 429-488Q399-484 379-478L379-358Q400-362 433-366Q466-370 496-370Q560-370 595.50-350.50Q631-331 631-283Q631-232 581.50-206Q532-180 447-170L533 0L664 0L617-99Q665-110 704.50-132Q744-154 768-189.50Q792-225 792-277Z"  horiz-adv-x="999" vert-adv-y="2048"  />

      
      <glyph glyph-name="unie8" unicode="&#xe8;" d="M603 1122Q747 1122 850 1060.50Q953 999 1008 887Q1063 775 1063 623L1063 509L315 509Q318 332 406 237.50Q494 143 653 143Q758 143 840 163Q922 183 1010 222L1010 53Q927 15 843.50-2.50Q760-20 644-20Q484-20 363.50 44Q243 108 176 233.50Q109 359 109 543Q109 725 170 854.50Q231 984 342 1053Q453 1122 603 1122M602 966Q480 966 406 886.50Q332 807 319 659L861 659Q860 750 832 819Q804 888 747.50 927Q691 966 602 966M525 1569Q551 1523 588 1466.50Q625 1410 665.50 1357Q706 1304 739 1266L739 1241L604 1241Q567 1270 522 1310Q477 1350 432 1394.50Q387 1439 350 1479.50Q313 1520 291 1549L291 1569L525 1569Z"  horiz-adv-x="1165" vert-adv-y="2048"  />

      
      <glyph glyph-name="unie9" unicode="&#xe9;" d="M603 1122Q747 1122 850 1060.50Q953 999 1008 887Q1063 775 1063 623L1063 509L315 509Q318 332 406 237.50Q494 143 653 143Q758 143 840 163Q922 183 1010 222L1010 53Q927 15 843.50-2.50Q760-20 644-20Q484-20 363.50 44Q243 108 176 233.50Q109 359 109 543Q109 725 170 854.50Q231 984 342 1053Q453 1122 603 1122M602 966Q480 966 406 886.50Q332 807 319 659L861 659Q860 750 832 819Q804 888 747.50 927Q691 966 602 966M904 1569L904 1549Q882 1520 844.50 1479.50Q807 1439 762 1394.50Q717 1350 672 1310Q627 1270 590 1241L456 1241L456 1266Q488 1304 527.50 1357Q567 1410 605 1466.50Q643 1523 668 1569L904 1569Z"  horiz-adv-x="1165" vert-adv-y="2048"  />

      
      <glyph glyph-name="uniea" unicode="&#xea;" d="M603 1122Q747 1122 850 1060.50Q953 999 1008 887Q1063 775 1063 623L1063 509L315 509Q318 332 406 237.50Q494 143 653 143Q758 143 840 163Q922 183 1010 222L1010 53Q927 15 843.50-2.50Q760-20 644-20Q484-20 363.50 44Q243 108 176 233.50Q109 359 109 543Q109 725 170 854.50Q231 984 342 1053Q453 1122 603 1122M602 966Q480 966 406 886.50Q332 807 319 659L861 659Q860 750 832 819Q804 888 747.50 927Q691 966 602 966M698 1568Q724 1523 769.50 1466.50Q815 1410 865 1356.50Q915 1303 953 1264L953 1241L814 1241Q760 1275 701.50 1324.50Q643 1374 589 1429Q535 1374 478 1325.50Q421 1277 367 1241L231 1241L231 1264Q269 1304 317.50 1357.50Q366 1411 411 1467Q456 1523 483 1568L698 1568Z"  horiz-adv-x="1165" vert-adv-y="2048"  />

      
      <glyph glyph-name="unieb" unicode="&#xeb;" d="M603 1122Q747 1122 850 1060.50Q953 999 1008 887Q1063 775 1063 623L1063 509L315 509Q318 332 406 237.50Q494 143 653 143Q758 143 840 163Q922 183 1010 222L1010 53Q927 15 843.50-2.50Q760-20 644-20Q484-20 363.50 44Q243 108 176 233.50Q109 359 109 543Q109 725 170 854.50Q231 984 342 1053Q453 1122 603 1122M602 966Q480 966 406 886.50Q332 807 319 659L861 659Q860 750 832 819Q804 888 747.50 927Q691 966 602 966M291 1397Q291 1452 321 1477.50Q351 1503 394 1503Q437 1503 467.50 1477.50Q498 1452 498 1397Q498 1343 467.50 1316.50Q437 1290 394 1290Q351 1290 321 1316.50Q291 1343 291 1397M680 1397Q680 1452 709.50 1477.50Q739 1503 782 1503Q825 1503 856 1477.50Q887 1452 887 1397Q887 1343 856 1316.50Q825 1290 782 1290Q739 1290 709.50 1316.50Q680 1343 680 1397Z"  horiz-adv-x="1165" vert-adv-y="2048"  />

      
      <glyph glyph-name="uniec" unicode="&#xec;" d="M372 0L171 0L171 1102L372 1102L372 0M209 1569Q235 1523 272 1466.50Q309 1410 349.50 1357Q390 1304 423 1266L423 1241L288 1241Q251 1270 206 1310Q161 1350 116 1394.50Q71 1439 34 1479.50Q-3 1520-25 1549L-25 1569L209 1569Z"  horiz-adv-x="544" vert-adv-y="2048"  />

      
      <glyph glyph-name="unied" unicode="&#xed;" d="M372 0L171 0L171 1102L372 1102L372 0M588 1569L588 1549Q566 1520 528.50 1479.50Q491 1439 446 1394.50Q401 1350 356 1310Q311 1270 274 1241L140 1241L140 1266Q172 1304 211.50 1357Q251 1410 289 1466.50Q327 1523 352 1569L588 1569Z"  horiz-adv-x="544" vert-adv-y="2048"  />

      
      <glyph glyph-name="uniee" unicode="&#xee;" d="M372 0L171 0L171 1102L372 1102L372 0M381 1568Q407 1523 452.50 1466.50Q498 1410 548 1356.50Q598 1303 636 1264L636 1241L497 1241Q443 1275 384.50 1324.50Q326 1374 272 1429Q218 1374 161 1325.50Q104 1277 50 1241L-86 1241L-86 1264Q-48 1304 0.50 1357.50Q49 1411 94 1467Q139 1523 166 1568L381 1568Z"  horiz-adv-x="544" vert-adv-y="2048"  />

      
      <glyph glyph-name="unief" unicode="&#xef;" d="M372 0L171 0L171 1102L372 1102L372 0M-26 1397Q-26 1452 4 1477.50Q34 1503 77 1503Q120 1503 150.50 1477.50Q181 1452 181 1397Q181 1343 150.50 1316.50Q120 1290 77 1290Q34 1290 4 1316.50Q-26 1343-26 1397M363 1397Q363 1452 392.50 1477.50Q422 1503 465 1503Q508 1503 539 1477.50Q570 1452 570 1397Q570 1343 539 1316.50Q508 1290 465 1290Q422 1290 392.50 1316.50Q363 1343 363 1397Z"  horiz-adv-x="544" vert-adv-y="2048"  />

      
      <glyph glyph-name="unif0" unicode="&#xf0;" d="M444 1566Q513 1534 578 1497.50Q643 1461 701 1419L933 1557L1012 1442L817 1327Q913 1237 983.50 1122.50Q1054 1008 1092 868.50Q1130 729 1130 565Q1130 375 1068.50 244.50Q1007 114 891.50 47Q776-20 615-20Q467-20 352 40Q237 100 172.50 212Q108 324 108 479Q108 634 167.50 744.50Q227 855 335 914.50Q443 974 587 974Q660 974 719 961Q778 948 823.50 922.50Q869 897 898 858L907 861Q875 973 812 1067Q749 1161 666 1237L408 1086L330 1203L547 1329Q506 1357 460.50 1384.50Q415 1412 368 1436L444 1566M621 817Q514 817 445.50 777.50Q377 738 344.50 661.50Q312 585 312 474Q312 375 345 299Q378 223 445.50 180.50Q513 138 619 138Q778 138 852 236.50Q926 335 926 525Q926 583 908 635Q890 687 853 728Q816 769 758.50 793Q701 817 621 817Z"  horiz-adv-x="1238" vert-adv-y="2048"  />

      
      <glyph glyph-name="unif1" unicode="&#xf1;" d="M719 1122Q910 1122 1012.50 1026Q1115 930 1115 718L1115 0L916 0L916 691Q916 823 858 889.50Q800 956 680 956Q509 956 440.50 855Q372 754 372 562L372 0L171 0L171 1102L330 1102L359 947L370 947Q405 1005 459 1044Q513 1083 579.50 1102.50Q646 1122 719 1122M255 1243Q261 1308 279.50 1358Q298 1408 328.50 1442Q359 1476 399.50 1493.50Q440 1511 488 1511Q533 1511 574.50 1493.50Q616 1476 654 1453Q692 1430 728 1412.50Q764 1395 798 1395Q841 1395 868 1423.50Q895 1452 909 1513L1020 1513Q1007 1386 945.50 1315Q884 1244 787 1244Q743 1244 702.50 1262Q662 1280 624 1302.50Q586 1325 549.50 1343Q513 1361 477 1361Q433 1361 406.50 1332.50Q380 1304 366 1243L255 1243Z"  horiz-adv-x="1279" vert-adv-y="2048"  />

      
      <glyph glyph-name="unif2" unicode="&#xf2;" d="M1134 553Q1134 417 1098.50 310.50Q1063 204 995.50 130.50Q928 57 833 18.50Q738-20 618-20Q506-20 412.50 18.50Q319 57 251 130.50Q183 204 146 310.50Q109 417 109 553Q109 734 171 861.50Q233 989 348.50 1055.50Q464 1122 624 1122Q776 1122 891 1055Q1006 988 1070 861Q1134 734 1134 553M315 553Q315 426 347.50 334.50Q380 243 447.50 194Q515 145 622 145Q727 145 795 194Q863 243 895 334.50Q927 426 927 553Q927 679 895 769Q863 859 795.50 907Q728 955 620 955Q462 955 388.50 849.50Q315 744 315 553M558 1569Q584 1523 621 1466.50Q658 1410 698.50 1357Q739 1304 772 1266L772 1241L637 1241Q600 1270 555 1310Q510 1350 465 1394.50Q420 1439 383 1479.50Q346 1520 324 1549L324 1569L558 1569Z"  horiz-adv-x="1241" vert-adv-y="2048"  />

      
      <glyph glyph-name="unif3" unicode="&#xf3;" d="M1134 553Q1134 417 1098.50 310.50Q1063 204 995.50 130.50Q928 57 833 18.50Q738-20 618-20Q506-20 412.50 18.50Q319 57 251 130.50Q183 204 146 310.50Q109 417 109 553Q109 734 171 861.50Q233 989 348.50 1055.50Q464 1122 624 1122Q776 1122 891 1055Q1006 988 1070 861Q1134 734 1134 553M315 553Q315 426 347.50 334.50Q380 243 447.50 194Q515 145 622 145Q727 145 795 194Q863 243 895 334.50Q927 426 927 553Q927 679 895 769Q863 859 795.50 907Q728 955 620 955Q462 955 388.50 849.50Q315 744 315 553M937 1569L937 1549Q915 1520 877.50 1479.50Q840 1439 795 1394.50Q750 1350 705 1310Q660 1270 623 1241L489 1241L489 1266Q521 1304 560.50 1357Q600 1410 638 1466.50Q676 1523 701 1569L937 1569Z"  horiz-adv-x="1241" vert-adv-y="2048"  />

      
      <glyph glyph-name="unif4" unicode="&#xf4;" d="M1134 553Q1134 417 1098.50 310.50Q1063 204 995.50 130.50Q928 57 833 18.50Q738-20 618-20Q506-20 412.50 18.50Q319 57 251 130.50Q183 204 146 310.50Q109 417 109 553Q109 734 171 861.50Q233 989 348.50 1055.50Q464 1122 624 1122Q776 1122 891 1055Q1006 988 1070 861Q1134 734 1134 553M315 553Q315 426 347.50 334.50Q380 243 447.50 194Q515 145 622 145Q727 145 795 194Q863 243 895 334.50Q927 426 927 553Q927 679 895 769Q863 859 795.50 907Q728 955 620 955Q462 955 388.50 849.50Q315 744 315 553M731 1568Q757 1523 802.50 1466.50Q848 1410 898 1356.50Q948 1303 986 1264L986 1241L847 1241Q793 1275 734.50 1324.50Q676 1374 622 1429Q568 1374 511 1325.50Q454 1277 400 1241L264 1241L264 1264Q302 1304 350.50 1357.50Q399 1411 444 1467Q489 1523 516 1568L731 1568Z"  horiz-adv-x="1241" vert-adv-y="2048"  />

      
      <glyph glyph-name="unif5" unicode="&#xf5;" d="M1134 553Q1134 417 1098.50 310.50Q1063 204 995.50 130.50Q928 57 833 18.50Q738-20 618-20Q506-20 412.50 18.50Q319 57 251 130.50Q183 204 146 310.50Q109 417 109 553Q109 734 171 861.50Q233 989 348.50 1055.50Q464 1122 624 1122Q776 1122 891 1055Q1006 988 1070 861Q1134 734 1134 553M315 553Q315 426 347.50 334.50Q380 243 447.50 194Q515 145 622 145Q727 145 795 194Q863 243 895 334.50Q927 426 927 553Q927 679 895 769Q863 859 795.50 907Q728 955 620 955Q462 955 388.50 849.50Q315 744 315 553M235 1243Q241 1308 259.50 1358Q278 1408 308.50 1442Q339 1476 379.50 1493.50Q420 1511 468 1511Q513 1511 554.50 1493.50Q596 1476 634 1453Q672 1430 708 1412.50Q744 1395 778 1395Q821 1395 848 1423.50Q875 1452 889 1513L1000 1513Q987 1386 925.50 1315Q864 1244 767 1244Q723 1244 682.50 1262Q642 1280 604 1302.50Q566 1325 529.50 1343Q493 1361 457 1361Q413 1361 386.50 1332.50Q360 1304 346 1243L235 1243Z"  horiz-adv-x="1241" vert-adv-y="2048"  />

      
      <glyph glyph-name="unif6" unicode="&#xf6;" d="M1134 553Q1134 417 1098.50 310.50Q1063 204 995.50 130.50Q928 57 833 18.50Q738-20 618-20Q506-20 412.50 18.50Q319 57 251 130.50Q183 204 146 310.50Q109 417 109 553Q109 734 171 861.50Q233 989 348.50 1055.50Q464 1122 624 1122Q776 1122 891 1055Q1006 988 1070 861Q1134 734 1134 553M315 553Q315 426 347.50 334.50Q380 243 447.50 194Q515 145 622 145Q727 145 795 194Q863 243 895 334.50Q927 426 927 553Q927 679 895 769Q863 859 795.50 907Q728 955 620 955Q462 955 388.50 849.50Q315 744 315 553M323 1397Q323 1452 353 1477.50Q383 1503 426 1503Q469 1503 499.50 1477.50Q530 1452 530 1397Q530 1343 499.50 1316.50Q469 1290 426 1290Q383 1290 353 1316.50Q323 1343 323 1397M712 1397Q712 1452 741.50 1477.50Q771 1503 814 1503Q857 1503 888 1477.50Q919 1452 919 1397Q919 1343 888 1316.50Q857 1290 814 1290Q771 1290 741.50 1316.50Q712 1343 712 1397Z"  horiz-adv-x="1241" vert-adv-y="2048"  />

      
      <glyph glyph-name="unif7" unicode="&#xf7;" d="M99 644L99 800L1070 800L1070 644L99 644M584 245Q535 245 501.50 275.50Q468 306 468 372Q468 441 501.50 469Q535 497 584 497Q631 497 664.50 469Q698 441 698 372Q698 306 664.50 275.50Q631 245 584 245M584 946Q535 946 501.50 976.50Q468 1007 468 1073Q468 1142 501.50 1170Q535 1198 584 1198Q631 1198 664.50 1170Q698 1142 698 1073Q698 1007 664.50 976.50Q631 946 584 946Z"  horiz-adv-x="1171" vert-adv-y="2048"  />

      
      <glyph glyph-name="unif8" unicode="&#xf8;" d="M1134 553Q1134 371 1071.50 243Q1009 115 893 47.50Q777-20 618-20Q542-20 477-3Q412 14 356 47L273-69L153 13L243 137Q179 212 144 316Q109 420 109 553Q109 825 247 973.50Q385 1122 624 1122Q700 1122 767.50 1103.50Q835 1085 890 1050L968 1160L1090 1078L1003 958Q1065 885 1099.50 783.50Q1134 682 1134 553M315 553Q315 479 326 417.50Q337 356 360 308L790 907Q757 930 714.50 942.50Q672 955 620 955Q462 955 388.50 849.50Q315 744 315 553M927 553Q927 622 916.50 681Q906 740 885 786L457 190Q488 168 530 156.50Q572 145 622 145Q727 145 795 194Q863 243 895 334.50Q927 426 927 553Z"  horiz-adv-x="1241" vert-adv-y="2048"  />

      
      <glyph glyph-name="unif9" unicode="&#xf9;" d="M1107 1102L1107 0L946 0L918 151L907 151Q873 94 819 56Q765 18 698-1Q631-20 556-20Q429-20 340.50 22Q252 64 206.50 152.50Q161 241 161 381L161 1102L363 1102L363 409Q363 276 420.50 210Q478 144 596 144Q711 144 778.50 189.50Q846 235 875.50 322.50Q905 410 905 537L905 1102L1107 1102M576 1569Q602 1523 639 1466.50Q676 1410 716.50 1357Q757 1304 790 1266L790 1241L655 1241Q618 1270 573 1310Q528 1350 483 1394.50Q438 1439 401 1479.50Q364 1520 342 1549L342 1569L576 1569Z"  horiz-adv-x="1279" vert-adv-y="2048"  />

      
      <glyph glyph-name="unifa" unicode="&#xfa;" d="M1107 1102L1107 0L946 0L918 151L907 151Q873 94 819 56Q765 18 698-1Q631-20 556-20Q429-20 340.50 22Q252 64 206.50 152.50Q161 241 161 381L161 1102L363 1102L363 409Q363 276 420.50 210Q478 144 596 144Q711 144 778.50 189.50Q846 235 875.50 322.50Q905 410 905 537L905 1102L1107 1102M955 1569L955 1549Q933 1520 895.50 1479.50Q858 1439 813 1394.50Q768 1350 723 1310Q678 1270 641 1241L507 1241L507 1266Q539 1304 578.50 1357Q618 1410 656 1466.50Q694 1523 719 1569L955 1569Z"  horiz-adv-x="1279" vert-adv-y="2048"  />

      
      <glyph glyph-name="unifb" unicode="&#xfb;" d="M1107 1102L1107 0L946 0L918 151L907 151Q873 94 819 56Q765 18 698-1Q631-20 556-20Q429-20 340.50 22Q252 64 206.50 152.50Q161 241 161 381L161 1102L363 1102L363 409Q363 276 420.50 210Q478 144 596 144Q711 144 778.50 189.50Q846 235 875.50 322.50Q905 410 905 537L905 1102L1107 1102M749 1568Q775 1523 820.50 1466.50Q866 1410 916 1356.50Q966 1303 1004 1264L1004 1241L865 1241Q811 1275 752.50 1324.50Q694 1374 640 1429Q586 1374 529 1325.50Q472 1277 418 1241L282 1241L282 1264Q320 1304 368.50 1357.50Q417 1411 462 1467Q507 1523 534 1568L749 1568Z"  horiz-adv-x="1279" vert-adv-y="2048"  />

      
      <glyph glyph-name="unifc" unicode="&#xfc;" d="M1107 1102L1107 0L946 0L918 151L907 151Q873 94 819 56Q765 18 698-1Q631-20 556-20Q429-20 340.50 22Q252 64 206.50 152.50Q161 241 161 381L161 1102L363 1102L363 409Q363 276 420.50 210Q478 144 596 144Q711 144 778.50 189.50Q846 235 875.50 322.50Q905 410 905 537L905 1102L1107 1102M341 1397Q341 1452 371 1477.50Q401 1503 444 1503Q487 1503 517.50 1477.50Q548 1452 548 1397Q548 1343 517.50 1316.50Q487 1290 444 1290Q401 1290 371 1316.50Q341 1343 341 1397M730 1397Q730 1452 759.50 1477.50Q789 1503 832 1503Q875 1503 906 1477.50Q937 1452 937 1397Q937 1343 906 1316.50Q875 1290 832 1290Q789 1290 759.50 1316.50Q730 1343 730 1397Z"  horiz-adv-x="1279" vert-adv-y="2048"  />

      
      <glyph glyph-name="unifd" unicode="&#xfd;" d="M2 1102L219 1102L453 467Q471 418 486.50 371.50Q502 325 513.50 281.50Q525 238 532 196L539 196Q551 247 573 320Q595 393 621 468L845 1102L1061 1102L585-156Q546-261 490.50-336.50Q435-412 359-452.50Q283-493 179-493Q131-493 94.50-487.50Q58-482 32-475L32-315Q54-320 85.50-324Q117-328 151-328Q214-328 259.50-303.50Q305-279 337.50-234Q370-189 392-129L442 1L2 1102M846 1569L846 1549Q824 1520 786.50 1479.50Q749 1439 704 1394.50Q659 1350 614 1310Q569 1270 532 1241L398 1241L398 1266Q430 1304 469.50 1357Q509 1410 547 1466.50Q585 1523 610 1569L846 1569Z"  horiz-adv-x="1061" vert-adv-y="2048"  />

      
      <glyph glyph-name="unife" unicode="&#xfe;" d="M1155 554Q1155 366 1100 238.50Q1045 111 945.50 45.50Q846-20 712-20Q626-20 561 2Q496 24 450 60.50Q404 97 373 142L360 142Q363 123 366 90Q369 57 371 23Q373-11 373-34L373-490L171-490L171 1556L373 1556L373 1113Q373 1077 370.50 1026.50Q368 976 365 946L374 946Q405 994 450.50 1034Q496 1074 561 1098Q626 1122 713 1122Q914 1122 1034.50 978Q1155 834 1155 554M949 556Q949 756 880.50 856Q812 956 668 956Q509 956 442 863.50Q375 771 373 588L373 553Q373 356 438 250.50Q503 145 669 145Q764 145 826 193Q888 241 918.50 332.50Q949 424 949 556Z"  horiz-adv-x="1264" vert-adv-y="2048"  />

      
      <glyph glyph-name="uniff" unicode="&#xff;" d="M2 1102L219 1102L453 467Q471 418 486.50 371.50Q502 325 513.50 281.50Q525 238 532 196L539 196Q551 247 573 320Q595 393 621 468L845 1102L1061 1102L585-156Q546-261 490.50-336.50Q435-412 359-452.50Q283-493 179-493Q131-493 94.50-487.50Q58-482 32-475L32-315Q54-320 85.50-324Q117-328 151-328Q214-328 259.50-303.50Q305-279 337.50-234Q370-189 392-129L442 1L2 1102M232 1397Q232 1452 262 1477.50Q292 1503 335 1503Q378 1503 408.50 1477.50Q439 1452 439 1397Q439 1343 408.50 1316.50Q378 1290 335 1290Q292 1290 262 1316.50Q232 1343 232 1397M621 1397Q621 1452 650.50 1477.50Q680 1503 723 1503Q766 1503 797 1477.50Q828 1452 828 1397Q828 1343 797 1316.50Q766 1290 723 1290Q680 1290 650.50 1316.50Q621 1343 621 1397Z"  horiz-adv-x="1061" vert-adv-y="2048"  />

      
      <glyph glyph-name="uni0100" unicode="&#x0100;" d="M1108 0L946 435L373 435L213 0L0 0L558 1468L768 1468L1323 0L1108 0M889 613L735 1044Q728 1066 713.50 1110Q699 1154 684.50 1201Q670 1248 661 1279Q651 1238 638 1192.50Q625 1147 612.50 1107.50Q600 1068 592 1044L436 613L889 613M970 1757L970 1604L351 1604L351 1757L970 1757Z"  horiz-adv-x="1325" vert-adv-y="2048"  />

      
      <glyph glyph-name="uni0101" unicode="&#x0101;" d="M593 1121Q797 1121 898 1030.50Q999 940 999 745L999 0L855 0L816 160L808 160Q762 100 712 60Q662 20 596.50 0Q531-20 437-20Q337-20 259 16Q181 52 136.50 124.50Q92 197 92 309Q92 477 221 564Q350 651 612 659L802 667L802 729Q802 858 744.50 911Q687 964 584 964Q499 964 421 939.50Q343 915 271 881L207 1027Q285 1067 384.50 1094Q484 1121 593 1121M800 535L646 528Q455 521 377.50 464.50Q300 408 300 307Q300 219 353 178Q406 137 493 137Q627 137 713.50 212.50Q800 288 800 436L800 535M890 1396L890 1243L271 1243L271 1396L890 1396Z"  horiz-adv-x="1163" vert-adv-y="2048"  />

      
      <glyph glyph-name="uni0102" unicode="&#x0102;" d="M1108 0L946 435L373 435L213 0L0 0L558 1468L768 1468L1323 0L1108 0M889 613L735 1044Q728 1066 713.50 1110Q699 1154 684.50 1201Q670 1248 661 1279Q651 1238 638 1192.50Q625 1147 612.50 1107.50Q600 1068 592 1044L436 613L889 613M1000 1889Q993 1804 951.50 1739.50Q910 1675 837 1638.50Q764 1602 664 1602Q510 1602 427.50 1680Q345 1758 337 1889L458 1889Q463 1833 489.50 1804.50Q516 1776 561 1766.50Q606 1757 667 1757Q721 1757 766 1767.50Q811 1778 840.50 1807Q870 1836 877 1889L1000 1889Z"  horiz-adv-x="1325" vert-adv-y="2048"  />

      
      <glyph glyph-name="uni0103" unicode="&#x0103;" d="M593 1121Q797 1121 898 1030.50Q999 940 999 745L999 0L855 0L816 160L808 160Q762 100 712 60Q662 20 596.50 0Q531-20 437-20Q337-20 259 16Q181 52 136.50 124.50Q92 197 92 309Q92 477 221 564Q350 651 612 659L802 667L802 729Q802 858 744.50 911Q687 964 584 964Q499 964 421 939.50Q343 915 271 881L207 1027Q285 1067 384.50 1094Q484 1121 593 1121M800 535L646 528Q455 521 377.50 464.50Q300 408 300 307Q300 219 353 178Q406 137 493 137Q627 137 713.50 212.50Q800 288 800 436L800 535M920 1528Q913 1443 871.50 1378.50Q830 1314 757 1277.50Q684 1241 584 1241Q430 1241 347.50 1319Q265 1397 257 1528L378 1528Q383 1472 409.50 1443.50Q436 1415 481 1405.50Q526 1396 587 1396Q641 1396 686 1406.50Q731 1417 760.50 1446Q790 1475 797 1528L920 1528Z"  horiz-adv-x="1163" vert-adv-y="2048"  />

      
      <glyph glyph-name="uni0104" unicode="&#x0104;" d="M1108 0L946 435L373 435L213 0L0 0L558 1468L768 1468L1323 0L1108 0M889 613L735 1044Q728 1066 713.50 1110Q699 1154 684.50 1201Q670 1248 661 1279Q651 1238 638 1192.50Q625 1147 612.50 1107.50Q600 1068 592 1044L436 613L889 613M1119-237Q1119-283 1143-306.50Q1167-330 1211-330Q1243-330 1269-325Q1295-320 1313-316L1313-441Q1284-449 1253-454.50Q1222-460 1180-460Q1073-460 1018-406.50Q963-353 963-260Q963-202 992.50-147.50Q1022-93 1067.50-47Q1113-1 1162 31L1264 0Q1194-64 1156.50-120Q1119-176 1119-237Z"  horiz-adv-x="1325" vert-adv-y="2048"  />

      
      <glyph glyph-name="uni0105" unicode="&#x0105;" d="M593 1121Q797 1121 898 1030.50Q999 940 999 745L999 0L855 0L816 160L808 160Q762 100 712 60Q662 20 596.50 0Q531-20 437-20Q337-20 259 16Q181 52 136.50 124.50Q92 197 92 309Q92 477 221 564Q350 651 612 659L802 667L802 729Q802 858 744.50 911Q687 964 584 964Q499 964 421 939.50Q343 915 271 881L207 1027Q285 1067 384.50 1094Q484 1121 593 1121M800 535L646 528Q455 521 377.50 464.50Q300 408 300 307Q300 219 353 178Q406 137 493 137Q627 137 713.50 212.50Q800 288 800 436L800 535M849-237Q849-283 873-306.50Q897-330 941-330Q973-330 999-325Q1025-320 1043-316L1043-441Q1014-449 983-454.50Q952-460 910-460Q803-460 748-406.50Q693-353 693-260Q693-202 722.50-147.50Q752-93 797.50-47Q843-1 892 31L994 0Q924-64 886.50-120Q849-176 849-237Z"  horiz-adv-x="1163" vert-adv-y="2048"  />

      
      <glyph glyph-name="uni0106" unicode="&#x0106;" d="M820 1306Q707 1306 617.50 1266.50Q528 1227 466 1151.50Q404 1076 371 970Q338 864 338 731Q338 554 390.50 425Q443 296 549 226Q655 156 816 156Q912 156 999.50 173.50Q1087 191 1174 219L1174 43Q1090 11 1000.50-4.50Q911-20 791-20Q567-20 418.50 73Q270 166 197 334.50Q124 503 124 732Q124 898 170 1035.50Q216 1173 305 1273.50Q394 1374 523.50 1428.50Q653 1483 822 1483Q932 1483 1036.50 1459.50Q1141 1436 1229 1394L1153 1223Q1080 1256 996.50 1281Q913 1306 820 1306M1091 1930L1091 1910Q1069 1881 1031.50 1840.50Q994 1800 949 1755.50Q904 1711 859 1671Q814 1631 777 1602L643 1602L643 1627Q675 1665 714.50 1718Q754 1771 792 1827.50Q830 1884 855 1930L1091 1930Z"  horiz-adv-x="1294" vert-adv-y="2048"  />

      
      </font>
</defs>
</svg>
