<?xml version="1.0" standalone="no"?>
  <!DOCTYPE svg PUBLIC "-//W3C//DTD SVG 1.1//EN" "http://www.w3.org/Graphics/SVG/1.1/DTD/svg11.dtd" >
  <svg>
  <metadata>
  Created by font-carrier
  </metadata>
  <defs>
  <font id="OpenSansCondensed-Regular" horiz-adv-x="2048" vert-adv-y="2048" >
    <font-face
      
      font-family="Open Sans Condensed"
      
      font-weight="400"
      
      font-stretch="normal"
      
      units-per-em="2048"
      
      ascent="2189"
      
      descent="-600"
      
    />
      <missing-glyph />

      

      
      <glyph glyph-name="uni21" unicode="&#x21;" d="M294 405L178 405L142 1462L328 1462L294 405M133 107Q133 168 159 200Q185 232 237 232Q285 232 313 202.50Q341 173 341 107Q341 43 311.50 13Q282-17 237-17Q186-17 159.50 14.50Q133 46 133 107Z"  horiz-adv-x="472" vert-adv-y="2048"  />

      
      <glyph glyph-name="uni22" unicode="&#x22;" d="M299 1462L269 934L153 934L121 1462L299 1462M638 1462L608 934L492 934L460 1462L638 1462Z"  horiz-adv-x="757" vert-adv-y="2048"  />

      
      <glyph glyph-name="uni23" unicode="&#x23;" d="M714 927L672 573L851 573L851 448L658 448L601 0L481 0L537 448L327 448L274 0L157 0L210 448L39 448L39 573L225 573L267 927L86 927L86 1049L283 1049L332 1462L452 1462L401 1049L610 1049L662 1462L778 1462L727 1049L898 1049L898 927L714 927M343 573L552 573L596 927L386 927L343 573Z"  horiz-adv-x="934" vert-adv-y="2048"  />

      
      <glyph glyph-name="uni24" unicode="&#x24;" d="M386-119L386 99Q295 101 216.50 120Q138 139 82 167L82 316Q139 282 220 257Q301 232 386 230L386 690Q278 734 210.50 783Q143 832 111.50 897Q80 962 80 1053Q80 1148 118.50 1220.50Q157 1293 226 1337Q295 1381 386 1389L386 1556L481 1556L481 1393Q559 1389 628.50 1371.50Q698 1354 762 1322L717 1198Q663 1226 606 1241Q549 1256 481 1260L481 798Q586 754 655 706.50Q724 659 758.50 597Q793 535 793 447Q793 312 711.50 221Q630 130 481 107L481-119L386-119M481 237Q567 253 612 307Q657 361 657 437Q657 489 638.50 526.50Q620 564 581.50 594Q543 624 481 651L481 237M386 839L386 1258Q333 1250 295 1223Q257 1196 237 1153.50Q217 1111 217 1056Q217 1000 234 962Q251 924 288 895.50Q325 867 386 839Z"  horiz-adv-x="871" vert-adv-y="2048"  />

      
      <glyph glyph-name="uni25" unicode="&#x25;" d="M316 1483Q428 1483 489.50 1365Q551 1247 551 1026Q551 806 490 685.50Q429 565 316 565Q203 565 143 686Q83 807 83 1026Q83 1247 142 1365Q201 1483 316 1483M314 1369Q259 1369 235 1283.50Q211 1198 211 1026Q211 854 235.50 768Q260 682 316 682Q371 682 396.50 767Q422 852 422 1026Q422 1199 394.50 1284Q367 1369 314 1369M984 1462L476 0L351 0L859 1462L984 1462M1023 899Q1135 899 1196.50 781Q1258 663 1258 442Q1258 217 1196 99.50Q1134-18 1023-18Q911-18 850.50 102Q790 222 790 442Q790 669 850 784Q910 899 1023 899M1021 785Q966 785 941.50 700Q917 615 917 442Q917 270 941.50 184Q966 98 1023 98Q1079 98 1103 185.50Q1127 273 1127 442Q1127 609 1100.50 697Q1074 785 1021 785Z"  horiz-adv-x="1339" vert-adv-y="2048"  />

      
      <glyph glyph-name="uni26" unicode="&#x26;" d="M415 1483Q492 1483 546 1447Q600 1411 628.50 1343Q657 1275 657 1178Q657 1051 612 953.50Q567 856 475 772L689 409Q715 464 730.50 535Q746 606 748 688L905 688Q899 588 866.50 472Q834 356 784 270L960 0L775 0L686 155Q643 100 595 61Q547 22 490.50 1Q434-20 364-20Q262-20 194.50 30.50Q127 81 93.50 169Q60 257 60 369Q60 457 84 530.50Q108 604 158.50 669Q209 734 288 795Q246 865 220 925Q194 985 181.50 1047.50Q169 1110 169 1184Q169 1277 199 1344Q229 1411 284.50 1447Q340 1483 415 1483M360 690Q308 644 276.50 597Q245 550 231 496Q217 442 217 374Q217 256 263 189Q309 122 385 122Q451 122 504 161Q557 200 604 279L360 690M412 1357Q367 1357 342 1311.50Q317 1266 317 1181Q317 1107 339.50 1024Q362 941 402 880Q464 936 489 1013Q514 1090 514 1181Q514 1268 488 1312.50Q462 1357 412 1357Z"  horiz-adv-x="956" vert-adv-y="2048"  />

      
      <glyph glyph-name="uni27" unicode="&#x27;" d="M299 1462L269 934L153 934L121 1462L299 1462Z"  horiz-adv-x="416" vert-adv-y="2048"  />

      
      <glyph glyph-name="uni28" unicode="&#x28;" d="M100 567Q100 740 134 902.50Q168 1065 233.50 1210Q299 1355 392 1474L528 1474Q394 1275 325 1044.50Q256 814 256 569Q256 407 287.50 249.50Q319 92 379.50-53.50Q440-199 526-324L392-324Q297-208 232-67Q167 74 133.50 234.50Q100 395 100 567Z"  horiz-adv-x="590" vert-adv-y="2048"  />

      
      <glyph glyph-name="uni29" unicode="&#x29;" d="M489 568Q489 399 455.50 238Q422 77 357-66Q292-209 198-324L63-324Q150-198 210.50-51.50Q271 95 302.50 253Q334 411 334 570Q334 736 302.50 893.50Q271 1051 210.50 1197Q150 1343 62 1474L198 1474Q292 1356 356.50 1210Q421 1064 455 901Q489 738 489 568Z"  horiz-adv-x="590" vert-adv-y="2048"  />

      
      <glyph glyph-name="uni2a" unicode="&#x2a;" d="M481 1559L452 1293L696 1369L724 1222L483 1197L656 972L526 894L402 1139L272 894L146 972L314 1197L76 1220L106 1366L348 1293L323 1559L481 1559Z"  horiz-adv-x="800" vert-adv-y="2048"  />

      
      <glyph glyph-name="uni2b" unicode="&#x2b;" d="M502 788L809 788L809 657L502 657L502 245L371 245L371 657L61 657L61 788L371 788L371 1203L502 1203L502 788Z"  horiz-adv-x="874" vert-adv-y="2048"  />

      
      <glyph glyph-name="uni2c" unicode="&#x2c;" d="M331 230L344 208Q325 125 302 43Q279-39 252-117.50Q225-196 192-269L74-269Q97-185 115.50-98Q134-11 147.50 73Q161 157 168 230L331 230Z"  horiz-adv-x="452" vert-adv-y="2048"  />

      
      <glyph glyph-name="uni2d" unicode="&#x2d;" d="M55 476L55 630L504 630L504 476L55 476Z"  horiz-adv-x="559" vert-adv-y="2048"  />

      
      <glyph glyph-name="uni2e" unicode="&#x2e;" d="M122 107Q122 168 148.50 200Q175 232 226 232Q275 232 303 202.50Q331 173 331 107Q331 43 302 13Q273-17 226-17Q177-17 149.50 14.50Q122 46 122 107Z"  horiz-adv-x="453" vert-adv-y="2048"  />

      
      <glyph glyph-name="uni2f" unicode="&#x2f;" d="M722 1467L187-5L40-5L578 1467L722 1467Z"  horiz-adv-x="750" vert-adv-y="2048"  />

      
      <glyph glyph-name="uni30" unicode="&#x30;" d="M784 731Q784 555 764.50 416Q745 277 703 180Q661 83 594.50 32Q528-19 435-19Q324-19 246 49.50Q168 118 126.50 281.50Q85 445 85 731Q85 981 123.50 1148Q162 1315 239.50 1399Q317 1483 435 1483Q555 1483 632 1398.50Q709 1314 746.50 1147Q784 980 784 731M246 731Q246 530 265 395.50Q284 261 326 193Q368 125 435 125Q502 125 544 193.50Q586 262 605.50 397Q625 532 625 731Q625 930 605 1065Q585 1200 543.50 1269Q502 1338 435 1338Q368 1338 326 1270Q284 1202 265 1067.50Q246 933 246 731Z"  horiz-adv-x="871" vert-adv-y="2048"  />

      
      <glyph glyph-name="uni31" unicode="&#x31;" d="M590 0L432 0L432 1004Q432 1048 433 1092.50Q434 1137 436 1183Q438 1229 440 1275Q427 1256 405 1232Q383 1208 350 1176L220 1050L130 1148L454 1462L590 1462L590 0Z"  horiz-adv-x="871" vert-adv-y="2048"  />

      
      <glyph glyph-name="uni32" unicode="&#x32;" d="M774 0L70 0L70 117L359 543Q444 668 493.50 759Q543 850 564.50 931.50Q586 1013 586 1109Q586 1216 534.50 1278Q483 1340 387 1340Q323 1340 270.50 1317Q218 1294 163 1241L82 1351Q132 1398 181 1427Q230 1456 283.50 1469.50Q337 1483 400 1483Q508 1483 585.50 1437Q663 1391 704 1308Q745 1225 745 1115Q745 998 718 900Q691 802 636.50 705.50Q582 609 499 495L256 150L256 143L774 143L774 0Z"  horiz-adv-x="871" vert-adv-y="2048"  />

      
      <glyph glyph-name="uni33" unicode="&#x33;" d="M748 1127Q748 1039 720 968Q692 897 638.50 846.50Q585 796 507 768L507 760Q635 732 703.50 638.50Q772 545 772 398Q772 274 725.50 179.50Q679 85 590.50 32.50Q502-20 375-20Q287-20 215.50-6Q144 8 79 39L79 197Q143 159 215 138.50Q287 118 360 118Q486 118 546.50 198Q607 278 607 406Q607 498 573 560.50Q539 623 472 654.50Q405 686 306 686L231 686L231 824L312 824Q398 824 460.50 860Q523 896 557 960.50Q591 1025 591 1111Q591 1222 538 1283Q485 1344 388 1344Q340 1344 300 1332Q260 1320 223.50 1297Q187 1274 149 1240L72 1350Q149 1421 229 1452Q309 1483 408 1483Q566 1483 657 1387.50Q748 1292 748 1127Z"  horiz-adv-x="871" vert-adv-y="2048"  />

      
      <glyph glyph-name="uni34" unicode="&#x34;" d="M843 322L688 322L688 0L532 0L532 322L34 322L34 452L519 1474L688 1474L688 457L843 457L843 322M532 457L532 1047Q532 1070 533 1099Q534 1128 535 1158.50Q536 1189 537 1217Q538 1245 539 1266L532 1266Q516 1218 497.50 1173Q479 1128 461 1086L175 457L532 457Z"  horiz-adv-x="871" vert-adv-y="2048"  />

      
      <glyph glyph-name="uni35" unicode="&#x35;" d="M426 896Q538 896 617 842Q696 788 738 692Q780 596 780 469Q780 324 732.50 214Q685 104 593 42Q501-20 365-20Q282-20 216-4.50Q150 11 100 41L100 199Q156 162 221.50 140Q287 118 353 118Q444 118 502.50 165.50Q561 213 590 291.50Q619 370 619 464Q619 609 555.50 685Q492 761 373 761Q323 761 274 751.50Q225 742 176 727L113 788L157 1462L702 1462L702 1318L289 1318L259 876Q301 886 343.50 891Q386 896 426 896Z"  horiz-adv-x="871" vert-adv-y="2048"  />

      
      <glyph glyph-name="uni36" unicode="&#x36;" d="M91 622Q91 788 108.50 924Q126 1060 161.50 1164Q197 1268 253 1339Q309 1410 385.50 1446Q462 1482 561 1482Q604 1482 642.50 1476.50Q681 1471 712 1460L712 1319Q680 1330 643.50 1335.50Q607 1341 566 1341Q466 1341 395.50 1275Q325 1209 287 1078.50Q249 948 243 753L251 753Q272 803 305 841Q338 879 383.50 900.50Q429 922 485 922Q587 922 653.50 860.50Q720 799 753 695Q786 591 786 461Q786 323 748.50 214Q711 105 636 42Q561-21 449-21Q362-21 295 21Q228 63 182.50 144.50Q137 226 114 346Q91 466 91 622M447 121Q533 121 581 205Q629 289 629 458Q629 616 584 698.50Q539 781 448 781Q384 781 340.50 744.50Q297 708 275 648.50Q253 589 253 518Q253 456 263 387Q273 318 295 257.50Q317 197 354.50 159Q392 121 447 121Z"  horiz-adv-x="871" vert-adv-y="2048"  />

      
      <glyph glyph-name="uni37" unicode="&#x37;" d="M192 0L634 1317L66 1317L66 1462L794 1462L794 1344L358 0L192 0Z"  horiz-adv-x="871" vert-adv-y="2048"  />

      
      <glyph glyph-name="uni38" unicode="&#x38;" d="M438 1483Q542 1483 616 1441Q690 1399 729.50 1323Q769 1247 769 1143Q769 1061 743.50 992.50Q718 924 667 867.50Q616 811 539 765Q617 713 676 656Q735 599 768.50 529Q802 459 802 369Q802 254 758 166.50Q714 79 633.50 29.50Q553-20 444-20Q326-20 242 27Q158 74 114 159.50Q70 245 70 359Q70 447 97 519.50Q124 592 178.50 652Q233 712 314 764Q244 817 197.50 876Q151 935 128 1001Q105 1067 105 1141Q105 1244 146 1321Q187 1398 262 1440.50Q337 1483 438 1483M226 358Q226 251 281 182Q336 113 436 113Q539 113 592 184.50Q645 256 645 368Q645 422 626 472.50Q607 523 566.50 570.50Q526 618 461 663L421 691Q352 646 309 597.50Q266 549 246 491Q226 433 226 358M435 1349Q354 1349 306 1291Q258 1233 258 1131Q258 1068 278 1017.50Q298 967 337 924.50Q376 882 434 842Q497 882 536.50 925.50Q576 969 595 1019.50Q614 1070 614 1131Q614 1233 567 1291Q520 1349 435 1349Z"  horiz-adv-x="871" vert-adv-y="2048"  />

      
      <glyph glyph-name="uni39" unicode="&#x39;" d="M771 851Q771 683 753 545.50Q735 408 698 302.50Q661 197 604.50 125.50Q548 54 471.50 17Q395-20 298-20Q261-20 215.50-13.50Q170-7 141 1L141 145Q173 133 211 126.50Q249 120 295 120Q410 120 479.50 201.50Q549 283 582 417Q615 551 619 708L612 708Q591 659 558 621Q525 583 480 561.50Q435 540 379 540Q276 540 209 601Q142 662 109.50 766.50Q77 871 77 1000Q77 1138 115 1247.50Q153 1357 229.50 1420Q306 1483 423 1483Q508 1483 573 1441.50Q638 1400 682 1319.50Q726 1239 748.50 1121.50Q771 1004 771 851M422 1340Q330 1340 283 1256.50Q236 1173 236 1004Q236 847 281 763.50Q326 680 417 680Q483 680 526 719.50Q569 759 590 822Q611 885 611 957Q611 1010 603 1075.50Q595 1141 575 1201.50Q555 1262 518 1301Q481 1340 422 1340Z"  horiz-adv-x="871" vert-adv-y="2048"  />

      
      <glyph glyph-name="uni3a" unicode="&#x3a;" d="M124 108Q124 168 150 200Q176 232 228 232Q277 232 304.50 202.50Q332 173 332 108Q332 44 303.50 13.50Q275-17 228-17Q176-17 150 15Q124 47 124 108M124 979Q124 1041 150 1072.50Q176 1104 228 1104Q279 1104 305.50 1073Q332 1042 332 980Q332 916 303 884.50Q274 853 228 853Q177 853 150.50 885.50Q124 918 124 979Z"  horiz-adv-x="456" vert-adv-y="2048"  />

      
      <glyph glyph-name="uni3b" unicode="&#x3b;" d="M331 230L344 208Q326 125 303 43Q280-39 252.50-117.50Q225-196 192-269L74-269Q98-181 116.50-94.50Q135-8 148.50 74Q162 156 170 230L331 230M125 980Q125 1041 151 1072.50Q177 1104 229 1104Q280 1104 307 1072.50Q334 1041 334 980Q334 916 304.50 884.50Q275 853 229 853Q178 853 151.50 885.50Q125 918 125 980Z"  horiz-adv-x="456" vert-adv-y="2048"  />

      
      <glyph glyph-name="uni3c" unicode="&#x3c;" d="M812 274L59 685L59 777L812 1180L812 1031L234 730L812 422L812 274Z"  horiz-adv-x="874" vert-adv-y="2048"  />

      
      <glyph glyph-name="uni3d" unicode="&#x3d;" d="M61 875L61 1006L809 1006L809 875L61 875M61 437L61 566L809 566L809 437L61 437Z"  horiz-adv-x="874" vert-adv-y="2048"  />

      
      <glyph glyph-name="uni3e" unicode="&#x3e;" d="M61 422L640 729L61 1031L61 1180L814 777L814 685L61 274L61 422Z"  horiz-adv-x="874" vert-adv-y="2048"  />

      
      <glyph glyph-name="uni3f" unicode="&#x3f;" d="M198 405L198 463Q198 534 207.50 590Q217 646 240.50 697Q264 748 306 802Q354 865 384 917Q414 969 427.50 1021.50Q441 1074 441 1136Q441 1239 399 1290.50Q357 1342 283 1342Q227 1342 181 1323.50Q135 1305 85 1270L26 1392Q88 1437 154 1460Q220 1483 290 1483Q437 1483 516 1396.50Q595 1310 595 1148Q595 1059 577 994Q559 929 522 869Q485 809 428 734Q386 679 363 635Q340 591 331 547Q322 503 322 446L322 405L198 405M159 107Q159 168 185.50 200Q212 232 262 232Q311 232 339 202.50Q367 173 367 108Q367 44 338 13.50Q309-17 262-17Q213-17 186 14.50Q159 46 159 107Z"  horiz-adv-x="639" vert-adv-y="2048"  />

      
      <glyph glyph-name="uni40" unicode="&#x40;" d="M1229 736Q1229 614 1212 520Q1195 426 1162.50 361.50Q1130 297 1083 264Q1036 231 976 231Q895 231 854 281Q813 331 805 421L795 421Q773 324 730.50 277.50Q688 231 624 231Q521 231 465 327.50Q409 424 409 601Q409 753 444 858Q479 963 545.50 1017.50Q612 1072 708 1072Q758 1072 808 1063Q858 1054 902 1036L886 615Q885 584 883 551Q881 518 881 499Q881 420 905.50 384Q930 348 973 348Q1015 348 1043.50 389Q1072 430 1086.50 517Q1101 604 1101 740Q1101 926 1051 1066.50Q1001 1207 910 1285.50Q819 1364 695 1363Q569 1363 480 1296.50Q391 1230 335 1119Q279 1008 252.50 873Q226 738 226 602Q226 417 270.50 266Q315 115 408.50 26.50Q502-62 648-62Q724-62 798-40.50Q872-19 927 14L927-107Q866-141 798.50-157.50Q731-174 645-174Q469-174 347-84.50Q225 5 162 175.50Q99 346 99 589Q99 793 142 956.50Q185 1120 264 1236.50Q343 1353 453 1414.50Q563 1476 696 1474Q864 1474 983.50 1375Q1103 1276 1166 1109Q1229 942 1229 736M539 597Q539 473 565.50 410.50Q592 348 642 348Q690 348 716 428Q742 508 752 686L766 957Q753 963 736 965Q719 967 699 967Q650 967 614 924.50Q578 882 558.50 800Q539 718 539 597Z"  horiz-adv-x="1322" vert-adv-y="2048"  />

      
      <glyph glyph-name="uni41" unicode="&#x41;" d="M737 0L627 470L280 470L170 0L0 0L353 1462L546 1462L906 0L737 0M597 617L485 1113Q478 1150 471.50 1185.50Q465 1221 459.50 1254.50Q454 1288 449 1320Q446 1288 441 1254Q436 1220 429 1185.50Q422 1151 414 1115L305 617L597 617Z"  horiz-adv-x="906" vert-adv-y="2048"  />

      
      <glyph glyph-name="uni42" unicode="&#x42;" d="M151 1462L470 1462Q661 1462 759 1375Q857 1288 857 1112Q857 1018 833 947.50Q809 877 762.50 833Q716 789 647 774L647 766Q729 747 782 702Q835 657 861 586.50Q887 516 887 418Q887 292 844 198Q801 104 718.50 52Q636 0 517 0L151 0L151 1462M310 832L468 832Q587 832 641 898.50Q695 965 695 1098Q695 1209 638 1267.50Q581 1326 465 1326L310 1326L310 832M310 696L310 139L499 139Q609 139 665.50 210.50Q722 282 722 426Q722 516 693 576Q664 636 610 666Q556 696 480 696L310 696Z"  horiz-adv-x="967" vert-adv-y="2048"  />

      
      <glyph glyph-name="uni43" unicode="&#x43;" d="M596 1340Q509 1340 446.50 1291Q384 1242 344.50 1156.50Q305 1071 286.50 961.50Q268 852 268 731Q268 543 309.50 407Q351 271 427 197.50Q503 124 606 124Q668 124 723 140Q778 156 824 179L824 35Q776 7 717-6.50Q658-20 588-20Q439-20 330 70Q221 160 162 328.50Q103 497 103 733Q103 888 132.50 1024Q162 1160 222.50 1264Q283 1368 375 1426.50Q467 1485 591 1485Q663 1485 729.50 1466.50Q796 1448 857 1413L800 1278Q754 1307 703 1323.50Q652 1340 596 1340Z"  horiz-adv-x="906" vert-adv-y="2048"  />

      
      <glyph glyph-name="uni44" unicode="&#x44;" d="M945 749Q945 502 888 335.50Q831 169 718.50 84.50Q606 0 438 0L151 0L151 1462L450 1462Q613 1462 723 1381Q833 1300 889 1141Q945 982 945 749M779 741Q779 932 742 1061Q705 1190 631 1255Q557 1320 444 1320L310 1320L310 143L432 143Q613 143 696 293.50Q779 444 779 741Z"  horiz-adv-x="1047" vert-adv-y="2048"  />

      
      <glyph glyph-name="uni45" unicode="&#x45;" d="M726 0L151 0L151 1462L726 1462L726 1320L310 1320L310 835L701 835L701 692L310 692L310 145L726 145L726 0Z"  horiz-adv-x="818" vert-adv-y="2048"  />

      
      <glyph glyph-name="uni46" unicode="&#x46;" d="M310 0L151 0L151 1462L726 1462L726 1320L310 1320L310 774L702 774L702 630L310 630L310 0Z"  horiz-adv-x="772" vert-adv-y="2048"  />

      
      <glyph glyph-name="uni47" unicode="&#x47;" d="M629 766L1000 766L1000 51Q911 16 816-2Q721-20 624-20Q445-20 329.50 78.50Q214 177 158.50 347.50Q103 518 103 734Q103 953 163.50 1122Q224 1291 346.50 1387Q469 1483 654 1483Q744 1483 827 1459.50Q910 1436 983 1389L926 1254Q858 1298 791.50 1319Q725 1340 657 1340Q530 1340 444 1269Q358 1198 314 1062Q270 926 270 730Q270 558 307.50 420.50Q345 283 426 203.50Q507 124 637 124Q695 124 747.50 132.50Q800 141 845 157L845 623L629 623L629 766Z"  horiz-adv-x="1110" vert-adv-y="2048"  />

      
      <glyph glyph-name="uni48" unicode="&#x48;" d="M932 0L773 0L773 692L310 692L310 0L151 0L151 1462L310 1462L310 837L773 837L773 1462L932 1462L932 0Z"  horiz-adv-x="1081" vert-adv-y="2048"  />

      
      <glyph glyph-name="uni49" unicode="&#x49;" d="M151 0L151 1462L310 1462L310 0L151 0Z"  horiz-adv-x="458" vert-adv-y="2048"  />

      
      <glyph glyph-name="uni4a" unicode="&#x4a;" d="M32-391Q-4-391-37-386Q-70-381-99-369L-99-226Q-74-235-45-241Q-16-247 15-247Q62-247 90.50-221.50Q119-196 132.50-140.50Q146-85 146 6L146 1462L305 1462L305-8Q305-147 274-231Q243-315 182-353Q121-391 32-391Z"  horiz-adv-x="450" vert-adv-y="2048"  />

      
      <glyph glyph-name="uni4b" unicode="&#x4b;" d="M908 0L730 0L416 686L310 556L310 0L151 0L151 1462L310 1462L310 720Q322 749 350 801.50Q378 854 421 930L716 1462L889 1462L524 816L908 0Z"  horiz-adv-x="900" vert-adv-y="2048"  />

      
      <glyph glyph-name="uni4c" unicode="&#x4c;" d="M151 0L151 1462L310 1462L310 145L718 145L718 0L151 0Z"  horiz-adv-x="753" vert-adv-y="2048"  />

      
      <glyph glyph-name="uni4d" unicode="&#x4d;" d="M654 0L299 1242L291 1242Q295 1175 297.50 1121.50Q300 1068 301 1029Q302 990 302 965L302 0L151 0L151 1462L376 1462L725 246L731 246L1081 1462L1309 1462L1309 0L1153 0L1153 961Q1153 988 1154 1028Q1155 1068 1157.50 1121.50Q1160 1175 1162 1242L1155 1242L800 0L654 0Z"  horiz-adv-x="1455" vert-adv-y="2048"  />

      
      <glyph glyph-name="uni4e" unicode="&#x4e;" d="M1002 0L809 0L299 1210L291 1210Q295 1157 297.50 1107.50Q300 1058 301 1012Q302 966 302 922L302 0L151 0L151 1462L343 1462L854 270L860 270Q857 329 854.50 381Q852 433 851 478.50Q850 524 850 562L850 1462L1002 1462L1002 0Z"  horiz-adv-x="1150" vert-adv-y="2048"  />

      
      <glyph glyph-name="uni4f" unicode="&#x4f;" d="M1016 733Q1016 576 991 439.50Q966 303 912.50 199.50Q859 96 772 38Q685-20 561-20Q435-20 347 39.50Q259 99 205.50 203Q152 307 127.50 444Q103 581 103 735Q103 985 154.50 1151Q206 1317 308 1400Q410 1483 561 1483Q725 1483 825 1383.50Q925 1284 970.50 1114Q1016 944 1016 733M268 733Q268 534 301.50 398.50Q335 263 400 194Q465 125 559 125Q655 125 719 192.50Q783 260 815.50 395.50Q848 531 848 733Q848 1034 776 1186Q704 1338 561 1338Q463 1338 398 1269.50Q333 1201 300.50 1066.50Q268 932 268 733Z"  horiz-adv-x="1117" vert-adv-y="2048"  />

      
      <glyph glyph-name="uni50" unicode="&#x50;" d="M413 1462Q628 1462 730.50 1358Q833 1254 833 1034Q833 921 806.50 835.50Q780 750 727.50 692Q675 634 595.50 604.50Q516 575 409 575L310 575L310 0L151 0L151 1462L413 1462M407 1322L310 1322L310 716L395 716Q492 716 552.50 748Q613 780 641.50 850Q670 920 670 1032Q670 1187 606 1254.50Q542 1322 407 1322Z"  horiz-adv-x="896" vert-adv-y="2048"  />

      
      <glyph glyph-name="uni51" unicode="&#x51;" d="M1016 733Q1016 543 984.50 399.50Q953 256 892 161.50Q831 67 743 22L962-348L773-348L593-16Q586-17 573.50-18.50Q561-20 551-20Q428-20 342.50 40Q257 100 204 205Q151 310 127 446Q103 582 103 735Q103 985 154.50 1151Q206 1317 308 1400Q410 1483 562 1483Q708 1483 809 1399.50Q910 1316 963 1149.50Q1016 983 1016 733M268 733Q268 534 301 398.50Q334 263 399 194Q464 125 559 125Q655 125 719 192.50Q783 260 815.50 395.50Q848 531 848 733Q848 1035 776 1186.50Q704 1338 562 1338Q463 1338 398 1269.50Q333 1201 300.50 1066Q268 931 268 733Z"  horiz-adv-x="1117" vert-adv-y="2048"  />

      
      <glyph glyph-name="uni52" unicode="&#x52;" d="M401 1462Q549 1462 645 1417.50Q741 1373 788 1282.50Q835 1192 835 1054Q835 956 811 879Q787 802 737 747Q687 692 607 657L904 0L727 0L463 617L310 617L310 0L151 0L151 1462L401 1462M402 1318L310 1318L310 751L424 751Q543 751 607.50 824.50Q672 898 672 1046Q672 1190 607 1254Q542 1318 402 1318Z"  horiz-adv-x="931" vert-adv-y="2048"  />

      
      <glyph glyph-name="uni53" unicode="&#x53;" d="M762 399Q762 275 714.50 180.50Q667 86 581.50 33Q496-20 380-20Q323-20 270-13.50Q217-7 169.50 7Q122 21 79 42L79 207Q147 169 226.50 149Q306 129 374 129Q447 129 497 163.50Q547 198 573.50 256Q600 314 600 384Q600 458 578 508.50Q556 559 506 600Q456 641 371 685Q307 720 255 757Q203 794 166 840.50Q129 887 109 950Q89 1013 89 1100Q87 1215 134.50 1301.50Q182 1388 266.50 1436Q351 1484 460 1483Q543 1483 618.50 1462.50Q694 1442 749 1413L697 1267Q636 1300 576.50 1316.50Q517 1333 463 1333Q396 1333 348.50 1304Q301 1275 275.50 1224.50Q250 1174 250 1107Q250 1030 272.50 980Q295 930 345.50 891Q396 852 479 807Q574 757 637 699.50Q700 642 731 569Q762 496 762 399Z"  horiz-adv-x="841" vert-adv-y="2048"  />

      
      <glyph glyph-name="uni54" unicode="&#x54;" d="M463 0L304 0L304 1318L19 1318L19 1462L749 1462L749 1318L463 1318L463 0Z"  horiz-adv-x="770" vert-adv-y="2048"  />

      
      <glyph glyph-name="uni55" unicode="&#x55;" d="M923 1462L923 457Q923 290 878 184.50Q833 79 746.50 29.50Q660-20 533-20Q340-20 239 96Q138 212 138 456L138 1462L297 1462L297 455Q297 279 358.50 202Q420 125 533 125Q608 125 659 158Q710 191 736 264Q762 337 762 457L762 1462L923 1462Z"  horiz-adv-x="1061" vert-adv-y="2048"  />

      
      <glyph glyph-name="uni56" unicode="&#x56;" d="M886 1462L533 0L349 0L0 1462L166 1462L393 452Q403 410 411.50 363.50Q420 317 427.50 270.50Q435 224 441 181Q447 224 454.50 270Q462 316 471.50 363Q481 410 491 455L720 1462L886 1462Z"  horiz-adv-x="886" vert-adv-y="2048"  />

      
      <glyph glyph-name="uni57" unicode="&#x57;" d="M1449 1462L1148 0L958 0L767 956Q764 975 759.50 1002Q755 1029 750.50 1063.50Q746 1098 740 1140.50Q734 1183 728 1234Q724 1200 720 1165.50Q716 1131 711 1096Q706 1061 700.50 1026.50Q695 992 688 958L500 0L312 0L8 1462L169 1462L353 537Q363 483 372 433Q381 383 388.50 337.50Q396 292 401.50 253.50Q407 215 410 184Q416 227 423 272.50Q430 318 437.50 363.50Q445 409 452.50 452Q460 495 467 533L654 1462L804 1462L988 535Q996 496 1003.50 455Q1011 414 1017.50 371Q1024 328 1031 281Q1038 234 1044 183Q1052 248 1061.50 309.50Q1071 371 1081 428.50Q1091 486 1101 537L1288 1462L1449 1462Z"  horiz-adv-x="1457" vert-adv-y="2048"  />

      
      <glyph glyph-name="uni58" unicode="&#x58;" d="M791 0L620 0L411 610L180 0L15 0L324 764L53 1462L218 1462L413 905L611 1462L778 1462L504 753L791 0Z"  horiz-adv-x="804" vert-adv-y="2048"  />

      
      <glyph glyph-name="uni59" unicode="&#x59;" d="M394 760L619 1462L786 1462L472 569L472 0L313 0L313 565L0 1462L166 1462L394 760Z"  horiz-adv-x="786" vert-adv-y="2048"  />

      
      <glyph glyph-name="uni5a" unicode="&#x5a;" d="M690 0L53 0L53 124L506 1318L63 1318L63 1462L677 1462L677 1336L223 145L690 145L690 0Z"  horiz-adv-x="731" vert-adv-y="2048"  />

      
      <glyph glyph-name="uni5b" unicode="&#x5b;" d="M573-329L150-329L150 1474L573 1474L573 1344L296 1344L296-199L573-199L573-329Z"  horiz-adv-x="638" vert-adv-y="2048"  />

      
      <glyph glyph-name="uni5c" unicode="&#x5c;" d="M183 1467L720-5L573-5L39 1467L183 1467Z"  horiz-adv-x="750" vert-adv-y="2048"  />

      
      <glyph glyph-name="uni5d" unicode="&#x5d;" d="M64-199L342-199L342 1344L64 1344L64 1474L488 1474L488-329L64-329L64-199Z"  horiz-adv-x="638" vert-adv-y="2048"  />

      
      <glyph glyph-name="uni5e" unicode="&#x5e;" d="M32 689L402 1460L496 1460L866 689L714 689L449 1263L180 689L32 689Z"  horiz-adv-x="895" vert-adv-y="2048"  />

      
      <glyph glyph-name="uni5f" unicode="&#x5f;" d="M889-293L-4-293L-4-172L889-172L889-293Z"  horiz-adv-x="885" vert-adv-y="2048"  />

      
      <glyph glyph-name="uni60" unicode="&#x60;" d="M266 1568Q289 1520 321.50 1464Q354 1408 389 1355.50Q424 1303 454 1264L454 1241L355 1241Q324 1268 285.50 1306.50Q247 1345 208 1388.50Q169 1432 136 1474Q103 1516 82 1550L82 1568L266 1568Z"  horiz-adv-x="536" vert-adv-y="2048"  />

      
      <glyph glyph-name="uni61" unicode="&#x61;" d="M428 1118Q580 1118 645 1021Q710 924 710 740L710 0L593 0L570 156L566 156Q540 100 504 60.50Q468 21 422 0.50Q376-20 316-20Q231-20 177 25Q123 70 97 143.50Q71 217 71 302Q71 465 165 555Q259 645 432 653L557 661L557 736Q557 868 521 929Q485 990 405 990Q359 990 308.50 974Q258 958 199 923L150 1039Q212 1079 282.50 1098.50Q353 1118 428 1118M559 548L457 541Q341 534 284.50 475.50Q228 417 228 306Q228 203 265 154Q302 105 367 105Q458 105 508.50 193Q559 281 559 436L559 548Z"  horiz-adv-x="841" vert-adv-y="2048"  />

      
      <glyph glyph-name="uni62" unicode="&#x62;" d="M288 1556L288 1098Q288 1066 286.50 1026.50Q285 987 283 943L290 943Q331 1029 392.50 1072.50Q454 1116 533 1116Q690 1116 771.50 972.50Q853 829 853 551Q853 367 816.50 239.50Q780 112 709.50 46Q639-20 537-20Q456-20 395 20.50Q334 61 290 146L281 146L259 0L134 0L134 1556L288 1556M500 981Q416 981 370 927.50Q324 874 306 781Q288 688 288 569L288 522Q288 314 341.50 213.50Q395 113 501 113Q599 113 647 220Q695 327 695 553Q695 765 648.50 873Q602 981 500 981Z"  horiz-adv-x="937" vert-adv-y="2048"  />

      
      <glyph glyph-name="uni63" unicode="&#x63;" d="M451-20Q330-20 249.50 43Q169 106 129 231Q89 356 89 541Q89 722 129.50 851Q170 980 252 1049Q334 1118 457 1118Q519 1118 568.50 1105Q618 1092 661 1068L612 941Q575 961 538.50 971Q502 981 467 981Q395 981 346 931.50Q297 882 271.50 785Q246 688 246 543Q246 402 270.50 307Q295 212 344.50 163.50Q394 115 468 115Q512 115 557.50 127.50Q603 140 649 164L649 34Q607 8 551.50-6Q496-20 451-20Z"  horiz-adv-x="703" vert-adv-y="2048"  />

      
      <glyph glyph-name="uni64" unicode="&#x64;" d="M407-20Q250-20 168.50 124.50Q87 269 87 546Q87 821 169 969.50Q251 1118 402 1118Q455 1118 502 1097.50Q549 1077 586.50 1039.50Q624 1002 650 949L657 949Q655 995 653.50 1031.50Q652 1068 652 1100L652 1556L805 1556L805 0L682 0L661 148L652 148Q624 96 588.50 58Q553 20 508.50 0Q464-20 407-20M441 111Q545 111 598.50 208Q652 305 652 495L652 570Q652 779 600.50 880Q549 981 439 981Q339 981 291.50 869.50Q244 758 244 546Q244 332 291.50 221.50Q339 111 441 111Z"  horiz-adv-x="937" vert-adv-y="2048"  />

      
      <glyph glyph-name="uni65" unicode="&#x65;" d="M436 1116Q548 1116 620.50 1051Q693 986 728.50 876Q764 766 764 631L764 522L241 522Q243 317 304.50 214Q366 111 490 111Q549 111 606 129Q663 147 724 187L724 49Q667 14 605-3Q543-20 473-20Q336-20 251 53.50Q166 127 127.50 254.50Q89 382 89 543Q89 727 128 855Q167 983 244.50 1049.50Q322 1116 436 1116M436 990Q349 990 300 905.50Q251 821 243 645L620 645Q620 738 600.50 816.50Q581 895 540.50 942.50Q500 990 436 990Z"  horiz-adv-x="847" vert-adv-y="2048"  />

      
      <glyph glyph-name="uni66" unicode="&#x66;" d="M479 968L306 968L306 0L153 0L153 968L18 968L18 1051L153 1103L153 1177Q153 1302 174.50 1389Q196 1476 249.50 1521.50Q303 1567 397 1567Q441 1567 478.50 1559Q516 1551 556 1535L516 1411Q488 1421 463.50 1426.50Q439 1432 415 1432Q353 1432 330.50 1377.50Q308 1323 306 1181L306 1098L479 1098L479 968Z"  horiz-adv-x="509" vert-adv-y="2048"  />

      
      <glyph glyph-name="uni67" unicode="&#x67;" d="M351-492Q194-492 104-412Q14-332 14-188Q14-75 68-3Q122 69 207 93Q165 113 138.50 153Q112 193 112 248Q112 304 138.50 350Q165 396 213 438Q149 476 112 560Q75 644 75 753Q75 865 111.50 946.50Q148 1028 217 1073Q286 1118 382 1118Q412 1118 435 1115Q458 1112 476 1107Q494 1102 508 1095L780 1095L780 996L633 978Q661 933 674 875.50Q687 818 687 759Q687 590 607 493.50Q527 397 381 397Q336 397 309 406Q282 381 261.50 349Q241 317 241 270Q241 241 254.50 219Q268 197 294 185Q320 173 358 173L516 173Q639 173 705.50 102Q772 31 772-114Q772-294 663.50-393Q555-492 351-492M363-370Q450-370 508.50-343.50Q567-317 596.50-263Q626-209 626-129Q626-64 605.50-29Q585 6 547 19Q509 32 456 32L325 32Q279 32 241.50 11.50Q204-9 182-54Q160-99 160-174Q160-271 214.50-320.50Q269-370 363-370M382 511Q454 511 493.50 573Q533 635 533 755Q533 881 492.50 943Q452 1005 380 1005Q310 1005 270 938.50Q230 872 230 752Q230 637 268 574Q306 511 382 511Z"  horiz-adv-x="790" vert-adv-y="2048"  />

      
      <glyph glyph-name="uni68" unicode="&#x68;" d="M288 1556L288 1104Q288 1060 285.50 1019.50Q283 979 277 943L288 943Q308 997 343.50 1036Q379 1075 426 1096.50Q473 1118 527 1118Q619 1118 678 1075.50Q737 1033 765 950.50Q793 868 793 746L793 0L639 0L639 716Q639 858 605 919Q571 980 495 980Q425 980 379 937Q333 894 310.50 804.50Q288 715 288 575L288 0L134 0L134 1556L288 1556Z"  horiz-adv-x="923" vert-adv-y="2048"  />

      
      <glyph glyph-name="uni69" unicode="&#x69;" d="M289 1098L289 0L136 0L136 1098L289 1098M215 1510Q262 1510 283.50 1480Q305 1450 305 1397Q305 1345 282 1315Q259 1285 215 1285Q172 1285 147 1315Q122 1345 122 1397Q122 1452 146 1481Q170 1510 215 1510Z"  horiz-adv-x="424" vert-adv-y="2048"  />

      
      <glyph glyph-name="uni6a" unicode="&#x6a;" d="M72-492Q44-492 20-487Q-4-482-24-474L-24-337Q-7-344 11.50-348.50Q30-353 46-353Q95-353 115-311Q135-269 135-178L135 1098L289 1098L289-178Q289-286 264-355.50Q239-425 190.50-458Q142-491 72-492M122 1397Q122 1452 146 1481Q170 1510 215 1510Q261 1510 283 1480Q305 1450 305 1397Q305 1345 282 1315Q259 1285 215 1285Q172 1285 147 1315Q122 1345 122 1397Z"  horiz-adv-x="424" vert-adv-y="2048"  />

      
      <glyph glyph-name="uni6b" unicode="&#x6b;" d="M288 1556L288 779Q288 721 286 666Q284 611 279 555L286 555Q303 589 320 620Q337 651 356 680L607 1098L773 1098L508 676L792 0L627 0L404 552L288 407L288 0L134 0L134 1556L288 1556Z"  horiz-adv-x="800" vert-adv-y="2048"  />

      
      <glyph glyph-name="uni6c" unicode="&#x6c;" d="M288 0L134 0L134 1556L288 1556L288 0Z"  horiz-adv-x="420" vert-adv-y="2048"  />

      
      <glyph glyph-name="uni6d" unicode="&#x6d;" d="M996 1118Q1125 1118 1187.50 1024.50Q1250 931 1250 740L1250 0L1096 0L1096 713Q1096 857 1059.50 919.50Q1023 982 954 982Q854 982 811 888Q768 794 768 616L768 0L616 0L616 715Q616 813 600 871.50Q584 930 552.50 956Q521 982 473 982Q399 982 359 931Q319 880 303.50 791Q288 702 288 588L288 0L134 0L134 1098L257 1098L275 942L284 942Q305 998 338 1037Q371 1076 416.50 1097Q462 1118 519 1118Q614 1118 668.50 1066.50Q723 1015 741 937L752 937Q790 1029 847 1073.50Q904 1118 996 1118Z"  horiz-adv-x="1380" vert-adv-y="2048"  />

      
      <glyph glyph-name="uni6e" unicode="&#x6e;" d="M529 1118Q659 1118 726 1027Q793 936 793 748L793 0L639 0L639 717Q639 850 604.50 916Q570 982 496 982Q388 982 338 886Q288 790 288 578L288 0L134 0L134 1098L257 1098L274 939L284 939Q307 994 343 1034Q379 1074 426 1096Q473 1118 529 1118Z"  horiz-adv-x="923" vert-adv-y="2048"  />

      
      <glyph glyph-name="uni6f" unicode="&#x6f;" d="M815 550Q815 420 793 315Q771 210 726 135Q681 60 612 20Q543-20 449-20Q359-20 291 20Q223 60 178 134.50Q133 209 110 314.50Q87 420 87 550Q87 732 126 858.50Q165 985 246 1051.50Q327 1118 452 1118Q569 1118 650 1053.50Q731 989 773 862.50Q815 736 815 550M244 550Q244 407 266 310Q288 213 334.50 164Q381 115 453 115Q524 115 569.50 163Q615 211 637 307.50Q659 404 659 550Q659 693 637 789.50Q615 886 569.50 934.50Q524 983 452 983Q342 983 293 874.50Q244 766 244 550Z"  horiz-adv-x="902" vert-adv-y="2048"  />

      
      <glyph glyph-name="uni70" unicode="&#x70;" d="M531 1118Q689 1118 770.50 976.50Q852 835 852 551Q852 368 815.50 240.50Q779 113 709 46.50Q639-20 539-20Q483-20 435 1.50Q387 23 350 62.50Q313 102 288 155L281 155Q283 115 285.50 78Q288 41 288 8L288-490L134-490L134 1098L259 1098L278 937L287 937Q315 998 351.50 1038Q388 1078 433 1098Q478 1118 531 1118M498 985Q428 985 381.50 941Q335 897 311.50 808.50Q288 720 288 586L288 533Q288 391 311.50 298Q335 205 382.50 160Q430 115 500 115Q564 115 607.50 161Q651 207 673 303Q695 399 695 549Q695 766 649.50 875.50Q604 985 498 985Z"  horiz-adv-x="937" vert-adv-y="2048"  />

      
      <glyph glyph-name="uni71" unicode="&#x71;" d="M651-490L651-26Q651 6 653 54Q655 102 659 162L651 162Q608 72 546.50 26Q485-20 402-20Q251-20 169 123Q87 266 87 543Q87 733 125.50 860.50Q164 988 236 1053Q308 1118 409 1118Q490 1118 549 1076Q608 1034 650 945L659 945L676 1098L805 1098L805-490L651-490M444 115Q511 115 557 158.50Q603 202 627 286.50Q651 371 651 495L651 565Q651 779 599.50 880Q548 981 439 981Q339 981 291.50 868Q244 755 244 542Q244 319 294 217Q344 115 444 115Z"  horiz-adv-x="937" vert-adv-y="2048"  />

      
      <glyph glyph-name="uni72" unicode="&#x72;" d="M501 1117Q524 1117 547 1113.50Q570 1110 595 1102L571 944Q553 952 533 955Q513 958 490 958Q445 958 407.50 928.50Q370 899 343 846Q316 793 301.50 723Q287 653 288 572L288 0L134 0L134 1098L254 1098L275 903L285 903Q308 966 339 1014Q370 1062 410.50 1089.50Q451 1117 501 1117Z"  horiz-adv-x="614" vert-adv-y="2048"  />

      
      <glyph glyph-name="uni73" unicode="&#x73;" d="M622 290Q622 191 586 121.50Q550 52 481.50 16Q413-20 315-20Q239-20 176-2Q113 16 69 41L69 201Q113 165 178 141.50Q243 118 310 118Q387 118 428.50 162Q470 206 470 285Q470 332 453 366.50Q436 401 398.50 432.50Q361 464 300 499Q232 541 179.50 586Q127 631 98 689.50Q69 748 69 832Q69 960 152.50 1039Q236 1118 373 1118Q442 1118 503.50 1100.50Q565 1083 620 1048L562 924Q520 953 472.50 970Q425 987 375 987Q302 987 259.50 946Q217 905 217 836Q217 790 234 757Q251 724 290 693Q329 662 393 623Q461 580 512.50 535.50Q564 491 593 433Q622 375 622 290Z"  horiz-adv-x="688" vert-adv-y="2048"  />

      
      <glyph glyph-name="uni74" unicode="&#x74;" d="M392 116Q417 116 442 121.50Q467 127 490 137L490 11Q459-3 423-11.50Q387-20 343-20Q272-20 226.50 12Q181 44 159.50 107.50Q138 171 138 267L138 969L36 969L36 1053L145 1094L186 1347L292 1347L292 1098L478 1098L478 969L292 969L292 285Q292 200 312.50 158Q333 116 392 116Z"  horiz-adv-x="519" vert-adv-y="2048"  />

      
      <glyph glyph-name="uni75" unicode="&#x75;" d="M789 1098L789 0L666 0L649 156L638 156Q616 102 580.50 62.50Q545 23 499 1.50Q453-20 396-20Q300-20 241.50 28Q183 76 156.50 165Q130 254 130 377L130 1098L284 1098L284 406Q284 258 318.50 188Q353 118 424 118Q501 118 547 160.50Q593 203 614 289.50Q635 376 635 509L635 1098L789 1098Z"  horiz-adv-x="923" vert-adv-y="2048"  />

      
      <glyph glyph-name="uni76" unicode="&#x76;" d="M283 0L8 1098L166 1098L317 431Q331 371 342.50 308Q354 245 364 177L372 177Q377 216 387 271Q397 326 413 393L575 1098L733 1098L454 0L283 0Z"  horiz-adv-x="741" vert-adv-y="2048"  />

      
      <glyph glyph-name="uni77" unicode="&#x77;" d="M781 0L649 681Q644 709 639 739Q634 769 629.50 799Q625 829 621 858.50Q617 888 613 916L608 916Q604 887 599.50 856.50Q595 826 590.50 796Q586 766 581 737Q576 708 571 681L431 0L255 0L18 1098L172 1098L289 526Q299 472 309 415.50Q319 359 328 302.50Q337 246 345 190L351 190Q356 225 361.50 263.50Q367 302 373.50 343.50Q380 385 388 429.50Q396 474 406 520L525 1098L696 1098L814 517Q823 479 831.50 429Q840 379 849 319Q858 259 868 190L874 190Q877 220 882 255Q887 290 894 331.50Q901 373 910 420L1050 1098L1200 1098L958 0L781 0Z"  horiz-adv-x="1218" vert-adv-y="2048"  />

      
      <glyph glyph-name="uni78" unicode="&#x78;" d="M289 566L46 1098L211 1098L379 691L550 1098L713 1098L468 558L723 0L560 0L375 433L191 0L30 0L289 566Z"  horiz-adv-x="751" vert-adv-y="2048"  />

      
      <glyph glyph-name="uni79" unicode="&#x79;" d="M12 1098L171 1098L326 456Q335 414 343.50 374Q352 334 359.50 294.50Q367 255 372 215L380 215Q388 273 400 332.50Q412 392 428 457L579 1098L737 1098L411-176Q382-286 343-356Q304-426 251.50-459Q199-492 127-492Q103-492 79-487Q55-482 28-475L28-338Q47-345 67.50-349Q88-353 107-353Q145-353 172-333.50Q199-314 220-269Q241-224 261-146L300 8L12 1098Z"  horiz-adv-x="746" vert-adv-y="2048"  />

      
      <glyph glyph-name="uni7a" unicode="&#x7a;" d="M567 0L52 0L52 106L385 966L74 966L74 1098L553 1098L553 985L223 131L567 131L567 0Z"  horiz-adv-x="611" vert-adv-y="2048"  />

      
      <glyph glyph-name="uni7b" unicode="&#x7b;" d="M649-329Q528-327 449-292.50Q370-258 331.50-187Q293-116 293-6L293 305Q293 376 274 421.50Q255 467 210 488.50Q165 510 86 510L86 629Q157 629 203 647Q249 665 271 709.50Q293 754 293 833L293 1147Q293 1254 330 1324Q367 1394 445.50 1429.50Q524 1465 649 1467L649 1342Q580 1340 534 1320Q488 1300 465.50 1256.50Q443 1213 443 1140L443 826Q443 713 401 652Q359 591 258 573L258 565Q362 546 402.50 483Q443 420 443 311L443-1Q443-71 464-115.50Q485-160 530.50-181Q576-202 649-203L649-329Z"  horiz-adv-x="738" vert-adv-y="2048"  />

      
      <glyph glyph-name="uni7c" unicode="&#x7c;" d="M340 1563L483 1563L483-486L340-486L340 1563Z"  horiz-adv-x="823" vert-adv-y="2048"  />

      
      <glyph glyph-name="uni7d" unicode="&#x7d;" d="M86-329L86-203Q160-202 205.50-181.50Q251-161 272-116.50Q293-72 293-1L293 311Q293 424 335.50 485Q378 546 477 565L477 573Q378 591 335.50 652Q293 713 293 826L293 1140Q293 1213 269.50 1256.50Q246 1300 200 1320Q154 1340 86 1342L86 1467Q207 1465 286 1431Q365 1397 404 1327Q443 1257 443 1147L443 833Q443 764 461 718.50Q479 673 524 651Q569 629 649 629L649 510Q574 510 528.50 490Q483 470 463 425Q443 380 443 305L443-6Q443-113 406.50-184Q370-255 291-291Q212-327 86-329Z"  horiz-adv-x="738" vert-adv-y="2048"  />

      
      <glyph glyph-name="uni7e" unicode="&#x7e;" d="M419 659Q373 685 330.50 700.50Q288 716 250 716Q204 716 155 684.50Q106 653 59 596L59 745Q100 794 148.50 820.50Q197 847 258 847Q314 847 359.50 830Q405 813 457 786Q507 759 547.50 744.50Q588 730 626 730Q673 730 724 762.50Q775 795 816 847L816 699Q777 653 727 627Q677 601 619 601Q559 601 516.50 616Q474 631 419 659Z"  horiz-adv-x="874" vert-adv-y="2048"  />

      
      <glyph glyph-name="unia1" unicode="&#xa1;" d="M177 680L294 680L328-386L142-386L177 680M343 979Q343 914 314.50 884Q286 854 239 854Q187 854 161 885.50Q135 917 135 979Q135 1039 160.50 1072Q186 1105 239 1105Q285 1105 314 1074Q343 1043 343 979Z"  horiz-adv-x="472" vert-adv-y="2048"  />

      
      <glyph glyph-name="unia2" unicode="&#xa2;" d="M555 1483L555 1317Q605 1313 647.50 1300.50Q690 1288 726 1268L678 1138Q641 1159 603 1168.50Q565 1178 535 1178Q457 1178 407.50 1129Q358 1080 334.50 983.50Q311 887 311 744Q311 599 335.50 504.50Q360 410 409 363.50Q458 317 533 317Q577 317 623.50 330.50Q670 344 716 367L716 234Q685 215 645 202Q605 189 556 183L556-20L454-20L454 184Q352 198 285.50 267.50Q219 337 186.50 457Q154 577 154 742Q154 908 187 1029.50Q220 1151 286 1223Q352 1295 452 1312L452 1483L555 1483Z"  horiz-adv-x="875" vert-adv-y="2048"  />

      
      <glyph glyph-name="unia3" unicode="&#xa3;" d="M532 1483Q603 1483 664.50 1461.50Q726 1440 782 1398L721 1274Q669 1309 626 1324.50Q583 1340 539 1340Q460 1340 425 1283Q390 1226 390 1099L390 795L641 795L641 671L390 671L390 426Q390 359 376 305.50Q362 252 334 212Q306 172 264 145L789 145L789 0L89 0L89 133Q136 155 168 194Q200 233 216.50 290.50Q233 348 233 426L233 671L82 671L82 795L233 795L233 1101Q233 1227 265.50 1312Q298 1397 364.50 1440Q431 1483 532 1483Z"  horiz-adv-x="869" vert-adv-y="2048"  />

      
      <glyph glyph-name="unia4" unicode="&#xa4;" d="M170 723Q170 788 189.50 847Q209 906 248 958L113 1096L193 1174L326 1036Q379 1077 438 1097.50Q497 1118 564 1118Q629 1118 688.50 1099Q748 1080 800 1038L935 1174L1017 1097L882 960Q920 909 940 849Q960 789 960 723Q960 658 940.50 597.50Q921 537 882 484L1016 348L937 270L800 405Q748 367 688 347.50Q628 328 564 328Q495 328 435.50 348Q376 368 326 408L193 272L115 352L248 486Q208 539 189 598.50Q170 658 170 723M279 723Q279 643 317 577.50Q355 512 420 474Q485 436 565 436Q648 436 713 475Q778 514 815.50 579.50Q853 645 853 723Q853 801 813 866.50Q773 932 707.50 972Q642 1012 564 1012Q487 1012 422 973Q357 934 318 868.50Q279 803 279 723Z"  horiz-adv-x="1131" vert-adv-y="2048"  />

      
      <glyph glyph-name="unia5" unicode="&#xa5;" d="M434 765L626 1462L788 1462L542 680L745 680L745 567L512 567L512 385L745 385L745 272L512 272L512 0L353 0L353 272L124 272L124 385L353 385L353 567L124 567L124 680L321 680L77 1462L238 1462L434 765Z"  horiz-adv-x="871" vert-adv-y="2048"  />

      
      <glyph glyph-name="unia6" unicode="&#xa6;" d="M340 1555L483 1555L483 756L340 756L340 1555M340 314L483 314L483-487L340-487L340 314Z"  horiz-adv-x="823" vert-adv-y="2048"  />

      
      <glyph glyph-name="unia7" unicode="&#xa7;" d="M82 838Q82 918 123 977Q164 1036 234 1069Q168 1116 134.50 1172.50Q101 1229 101 1298Q101 1420 185 1488Q269 1556 396 1556Q466 1556 520.50 1541.50Q575 1527 633 1494L583 1384Q532 1414 488 1428Q444 1442 397 1442Q324 1442 282 1404.50Q240 1367 240 1305Q240 1259 260 1226Q280 1193 318.50 1166Q357 1139 411 1108Q489 1067 542.50 1025.50Q596 984 624 932.50Q652 881 652 809Q652 731 619 668Q586 605 531 570Q593 521 620.50 467Q648 413 648 345Q648 215 561 138Q474 61 330 61Q256 61 194 78Q132 95 82 126L82 261Q113 237 154 218Q195 199 240 188.50Q285 178 327 178Q410 178 459 223.50Q508 269 508 338Q508 390 487 423Q466 456 420.50 486Q375 516 299 559Q222 603 174 643.50Q126 684 104 730.50Q82 777 82 838M215 856Q215 814 234 782.50Q253 751 286.50 725Q320 699 363 673L441 631Q479 656 499.50 695Q520 734 520 787Q520 835 505 867.50Q490 900 448.50 932.50Q407 965 326 1011Q274 992 244.50 951.50Q215 911 215 856Z"  horiz-adv-x="749" vert-adv-y="2048"  />

      
      <glyph glyph-name="unia8" unicode="&#xa8;" d="M288 1367Q288 1417 312 1441Q336 1465 372 1465Q407 1465 430.50 1440.50Q454 1416 454 1367Q454 1316 430.50 1290.50Q407 1265 372 1265Q336 1265 312 1290.50Q288 1316 288 1367M616 1367Q616 1417 640.50 1441Q665 1465 700 1465Q736 1465 760.50 1440.50Q785 1416 785 1367Q785 1316 760.50 1290.50Q736 1265 700 1265Q663 1265 639.50 1290.50Q616 1316 616 1367Z"  horiz-adv-x="1074" vert-adv-y="2048"  />

      
      <glyph glyph-name="unia9" unicode="&#xa9;" d="M849-20Q676-20 537 39Q398 98 300 202Q202 306 150 441.50Q98 577 98 731Q98 899 156 1037Q214 1175 317 1275Q420 1375 556.50 1429Q693 1483 850 1483Q1017 1483 1155 1425.50Q1293 1368 1393 1265.50Q1493 1163 1547.50 1026Q1602 889 1602 731Q1602 568 1546 430.50Q1490 293 1388.50 192Q1287 91 1149.50 35.50Q1012-20 849-20M881 276Q688 276 580.50 393Q473 510 473 727Q473 868 523 970.50Q573 1073 666 1128.50Q759 1184 889 1184Q955 1184 1019 1170Q1083 1156 1144 1127L1094 1020Q1042 1045 991.50 1056Q941 1067 892 1067Q760 1067 686 980Q612 893 612 733Q612 558 683 475.50Q754 393 891 393Q941 393 996 405Q1051 417 1108 442L1108 325Q1055 301 997.50 288.50Q940 276 881 276M849 82Q993 82 1111 132Q1229 182 1314.50 270.50Q1400 359 1446 477Q1492 595 1492 731Q1492 872 1444 990.50Q1396 1109 1309.50 1196.50Q1223 1284 1106 1332Q989 1380 850 1380Q706 1380 588 1330.50Q470 1281 385 1192.50Q300 1104 253.50 986Q207 868 207 731Q207 586 255.50 467Q304 348 391 262Q478 176 595 129Q712 82 849 82Z"  horiz-adv-x="1700" vert-adv-y="2048"  />

      
      <glyph glyph-name="uniaa" unicode="&#xaa;" d="M309 1479Q412 1479 459 1422Q506 1365 506 1252L506 798L424 798L404 900Q370 842 325 814Q280 786 219 786Q169 786 131.50 811.50Q94 837 73.50 882Q53 927 53 984Q53 1053 81.50 1097Q110 1141 166 1164Q222 1187 303 1193L388 1199L388 1256Q388 1321 365.50 1351Q343 1381 290 1381Q253 1381 217 1369Q181 1357 142 1336L106 1424Q155 1451 204.50 1465Q254 1479 309 1479M388 1118L326 1112Q244 1106 207.50 1077Q171 1048 171 986Q171 934 193.50 908Q216 882 259 882Q320 882 354 931Q388 980 388 1065L388 1118Z"  horiz-adv-x="609" vert-adv-y="2048"  />

      
      <glyph glyph-name="uniab" unicode="&#xab;" d="M73 558L367 951L475 896L254 544L475 196L367 137L73 529L73 558M456 558L752 951L857 896L638 544L858 196L752 137L456 529L456 558Z"  horiz-adv-x="930" vert-adv-y="2048"  />

      
      <glyph glyph-name="uniac" unicode="&#xac;" d="M794 788L794 246L661 246L661 657L62 657L62 788L794 788Z"  horiz-adv-x="874" vert-adv-y="2048"  />

      
      <glyph glyph-name="uniad" unicode="&#xad;" d="M55 476L55 630L504 630L504 476L55 476Z"  horiz-adv-x="559" vert-adv-y="2048"  />

      
      <glyph glyph-name="uniae" unicode="&#xae;" d="M583 297L583 1175L822 1175Q973 1175 1056 1112Q1139 1049 1139 918Q1139 828 1101 769Q1063 710 988 678L1185 297L1036 297L865 647L718 647L718 297L583 297M716 751L814 751Q898 751 948 790Q998 829 998 912Q998 991 952.50 1027Q907 1063 815 1063L716 1063L716 751M849-20Q676-20 537 39Q398 98 300 202Q202 306 150 441.50Q98 577 98 731Q98 899 156 1037Q214 1175 317 1275Q420 1375 556.50 1429Q693 1483 850 1483Q1017 1483 1155 1425.50Q1293 1368 1393 1265.50Q1493 1163 1547.50 1026Q1602 889 1602 731Q1602 568 1546 430.50Q1490 293 1388.50 192Q1287 91 1149.50 35.50Q1012-20 849-20M849 82Q993 82 1111 132Q1229 182 1314.50 270.50Q1400 359 1446 477Q1492 595 1492 731Q1492 872 1444 990.50Q1396 1109 1309.50 1196.50Q1223 1284 1106 1332Q989 1380 850 1380Q706 1380 588 1330.50Q470 1281 385 1192.50Q300 1104 253.50 986Q207 868 207 731Q207 586 255.50 467Q304 348 391 262Q478 176 595 129Q712 82 849 82Z"  horiz-adv-x="1700" vert-adv-y="2048"  />

      
      <glyph glyph-name="uniaf" unicode="&#xaf;" d="M889 1556L-8 1556L-8 1679L889 1679L889 1556Z"  horiz-adv-x="882" vert-adv-y="2048"  />

      
      <glyph glyph-name="unib0" unicode="&#xb0;" d="M372 937Q292 937 229 970Q166 1003 130.50 1064.50Q95 1126 95 1209Q95 1293 131.50 1354Q168 1415 231 1448Q294 1481 372 1481Q452 1481 515 1448Q578 1415 614.50 1354Q651 1293 651 1209Q651 1125 614 1064Q577 1003 514 970Q451 937 372 937M374 1037Q449 1037 494.50 1084Q540 1131 540 1209Q540 1286 495.50 1333.50Q451 1381 374 1381Q292 1381 249 1331Q206 1281 206 1209Q206 1129 253.50 1083Q301 1037 374 1037Z"  horiz-adv-x="746" vert-adv-y="2048"  />

      
      <glyph glyph-name="unib1" unicode="&#xb1;" d="M62 0L62 130L809 130L809 0L62 0M502 821L809 821L809 690L502 690L502 278L371 278L371 690L61 690L61 821L371 821L371 1236L502 1236L502 821Z"  horiz-adv-x="874" vert-adv-y="2048"  />

      
      <glyph glyph-name="unib2" unicode="&#xb2;" d="M551 850L53 850L53 957L233 1180Q290 1249 328 1302Q366 1355 385 1403.50Q404 1452 404 1507Q404 1563 371.50 1598.50Q339 1634 278 1634Q235 1634 195.50 1613.50Q156 1593 118 1551L52 1635Q97 1688 156.50 1717.50Q216 1747 289 1747Q406 1747 470 1683.50Q534 1620 534 1514Q534 1442 509 1381Q484 1320 432.50 1253Q381 1186 302 1094L193 959L551 959L551 850Z"  horiz-adv-x="637" vert-adv-y="2048"  />

      
      <glyph glyph-name="unib3" unicode="&#xb3;" d="M286 1746Q398 1746 463 1687Q528 1628 528 1523Q528 1447 491.50 1394Q455 1341 389 1315L389 1308Q471 1283 512.50 1228Q554 1173 554 1083Q554 968 474 901.50Q394 835 265 835Q210 835 158 846.50Q106 858 58 882L58 1007Q105 977 156.50 962.50Q208 948 265 948Q350 948 389 987.50Q428 1027 428 1091Q428 1169 383 1209Q338 1249 246 1249L176 1249L176 1355L242 1355Q322 1355 364.50 1396.50Q407 1438 407 1508Q407 1567 372.50 1600Q338 1633 274 1633Q230 1633 191.50 1616Q153 1599 113 1561L51 1650Q104 1697 162 1721.50Q220 1746 286 1746Z"  horiz-adv-x="637" vert-adv-y="2048"  />

      
      <glyph glyph-name="unib4" unicode="&#xb4;" d="M453 1568L453 1550Q433 1517 400 1475.50Q367 1434 328 1390.50Q289 1347 250 1308Q211 1269 180 1241L82 1241L82 1264Q122 1319 156 1371Q190 1423 218 1472.50Q246 1522 269 1568L453 1568Z"  horiz-adv-x="535" vert-adv-y="2048"  />

      
      <glyph glyph-name="unib5" unicode="&#xb5;" d="M793 1098L793 0L670 0L653 159L643 159Q624 105 592.50 64.50Q561 24 521 2Q481-20 435-20Q383-20 346 4.50Q309 29 286 81L280 81Q282 44 284 9Q286-26 287-58Q288-90 288-118L288-490L134-490L134 1098L288 1098L288 391Q288 255 322.50 186.50Q357 118 428 118Q505 118 551 163Q597 208 618 297.50Q639 387 639 520L639 1098L793 1098Z"  horiz-adv-x="927" vert-adv-y="2048"  />

      
      <glyph glyph-name="unib6" unicode="&#xb6;" d="M804-260L692-260L692 1447L551 1447L551-260L441-260L441 577Q424 568 405.50 563.50Q387 559 364 559Q284 559 231 614.50Q178 670 152.50 779.50Q127 889 127 1052Q127 1218 156 1330Q185 1442 247.50 1499Q310 1556 408 1556L804 1556L804-260Z"  horiz-adv-x="977" vert-adv-y="2048"  />

      
      <glyph glyph-name="unib7" unicode="&#xb7;" d="M122 717Q122 778 148.50 810Q175 842 226 842Q275 842 303 812.50Q331 783 331 717Q331 653 302 623Q273 593 226 593Q177 593 149.50 624.50Q122 656 122 717Z"  horiz-adv-x="453" vert-adv-y="2048"  />

      
      <glyph glyph-name="unib8" unicode="&#xb8;" d="M377-283Q377-384 313.50-438Q250-492 137-492Q102-492 73-488.50Q44-485 24-479L24-376Q44-382 67.50-385Q91-388 114-388Q181-388 214.50-359Q248-330 248-283Q248-227 205-199.50Q162-172 88-162L158 0L253 0L207-105Q262-116 300-140Q338-164 357.50-200Q377-236 377-283Z"  horiz-adv-x="419" vert-adv-y="2048"  />

      
      <glyph glyph-name="unib9" unicode="&#xb9;" d="M434 1726L434 850L310 850L310 1396Q310 1427 311 1458Q312 1489 313.50 1520.50Q315 1552 318 1583Q302 1567 288.50 1556Q275 1545 264 1537L143 1446L78 1532L331 1726L434 1726Z"  horiz-adv-x="637" vert-adv-y="2048"  />

      
      <glyph glyph-name="uniba" unicode="&#xba;" d="M574 1135Q574 969 509 877Q444 785 321 785Q195 785 128.50 877.50Q62 970 62 1135Q62 1298 131 1388.50Q200 1479 322 1479Q401 1479 457.50 1440Q514 1401 544 1324.50Q574 1248 574 1135M187 1134Q187 1007 219.50 947Q252 887 319 887Q391 887 422.50 947.50Q454 1008 454 1134Q454 1258 422.50 1317.50Q391 1377 320 1377Q257 1377 222 1318Q187 1259 187 1134Z"  horiz-adv-x="638" vert-adv-y="2048"  />

      
      <glyph glyph-name="unibb" unicode="&#xbb;" d="M857 529L561 137L455 196L674 544L455 896L561 951L857 558L857 529M477 529L179 137L75 196L292 544L75 896L179 951L477 558L477 529Z"  horiz-adv-x="928" vert-adv-y="2048"  />

      
      <glyph glyph-name="unibc" unicode="&#xbc;" d="M310 0L1056 1462L1190 1462L442 0L310 0M287 586L287 1134Q287 1165 288 1196Q289 1227 290.50 1258.50Q292 1290 295 1321Q278 1305 264.50 1293.50Q251 1282 241 1273L120 1184L55 1268L307 1462L412 1462L412 586L287 586M1183 0L1183 194L850 194L850 286L1180 881L1303 881L1303 300L1409 300L1409 194L1303 194L1303 0L1183 0M970 300L1183 300L1183 566Q1183 617 1183.50 655.50Q1184 694 1186 719Q1180 700 1169.50 676.50Q1159 653 1142 621L970 300Z"  horiz-adv-x="1443" vert-adv-y="2048"  />

      
      <glyph glyph-name="unibd" unicode="&#xbd;" d="M285 0L1031 1462L1165 1462L417 0L285 0M287 586L287 1134Q287 1157 287.50 1180.50Q288 1204 289 1227.50Q290 1251 291.50 1274.50Q293 1298 295 1321Q278 1305 264.50 1293.50Q251 1282 241 1273L120 1184L55 1268L307 1462L412 1462L412 586L287 586M930 0L930 109L1111 329Q1168 398 1206.50 450.50Q1245 503 1264 551.50Q1283 600 1283 655Q1283 713 1250 748.50Q1217 784 1155 784Q1112 784 1072.50 764Q1033 744 994 701L929 785Q973 838 1033 867.50Q1093 897 1165 897Q1283 897 1347 833.50Q1411 770 1411 665Q1411 592 1387 533Q1363 474 1319 415Q1275 356 1214 282L1070 111L1429 111L1429 0L930 0Z"  horiz-adv-x="1514" vert-adv-y="2048"  />

      
      <glyph glyph-name="unibe" unicode="&#xbe;" d="M339 0L1085 1462L1219 1462L471 0L339 0M263 570Q208 570 156 582.50Q104 595 56 620L56 743Q103 715 154.50 700Q206 685 263 685Q348 685 387 724Q426 763 426 827Q426 905 380.50 946Q335 987 244 987L174 987L174 1093L240 1093Q320 1093 362.50 1134.50Q405 1176 405 1246Q405 1305 370.50 1338.50Q336 1372 272 1372Q228 1372 189.50 1353Q151 1334 111 1298L49 1386Q102 1434 160 1458.50Q218 1483 284 1483Q395 1483 460 1424Q525 1365 525 1259Q525 1184 488.50 1131Q452 1078 387 1051L387 1043Q469 1021 510.50 965.50Q552 910 552 821Q552 705 471.50 637.50Q391 570 263 570M1210 0L1210 194L878 194L878 286L1208 881L1330 881L1330 300L1437 300L1437 194L1330 194L1330 0L1210 0M997 300L1210 300L1210 566Q1210 617 1210.50 655.50Q1211 694 1214 719Q1208 700 1197 676.50Q1186 653 1169 621L997 300Z"  horiz-adv-x="1471" vert-adv-y="2048"  />

      
      <glyph glyph-name="unibf" unicode="&#xbf;" d="M441 680L441 622Q441 551 431.50 495Q422 439 398.50 388.50Q375 338 333 283Q285 220 255.50 168Q226 116 212 64Q198 12 198-51Q198-154 240-205.50Q282-257 356-257Q412-257 458.50-238.50Q505-220 554-185L613-307Q552-352 486-375Q420-398 349-398Q202-398 123-311.50Q44-225 44-63Q44 26 62 91Q80 156 117.50 216Q155 276 211 351Q253 406 276 450Q299 494 308 538.50Q317 583 317 639L317 680L441 680M480 978Q480 917 453.50 885Q427 853 377 853Q328 853 300 882.50Q272 912 272 977Q272 1042 301 1072Q330 1102 377 1102Q427 1102 453.50 1070.50Q480 1039 480 978Z"  horiz-adv-x="639" vert-adv-y="2048"  />

      
      <glyph glyph-name="unic0" unicode="&#xc0;" d="M737 0L627 470L280 470L170 0L0 0L353 1462L546 1462L906 0L737 0M597 617L485 1113Q478 1150 471.50 1185.50Q465 1221 459.50 1254.50Q454 1288 449 1320Q446 1288 441 1254Q436 1220 429 1185.50Q422 1151 414 1115L305 617L597 617M327 1905Q350 1857 382.50 1801Q415 1745 450 1692.50Q485 1640 515 1601L515 1578L416 1578Q385 1605 346.50 1643.50Q308 1682 269 1725.50Q230 1769 197 1811Q164 1853 143 1887L143 1905L327 1905Z"  horiz-adv-x="906" vert-adv-y="2048"  />

      
      <glyph glyph-name="unic1" unicode="&#xc1;" d="M737 0L627 470L280 470L170 0L0 0L353 1462L546 1462L906 0L737 0M597 617L485 1113Q478 1150 471.50 1185.50Q465 1221 459.50 1254.50Q454 1288 449 1320Q446 1288 441 1254Q436 1220 429 1185.50Q422 1151 414 1115L305 617L597 617M723 1905L723 1887Q703 1854 670 1812.50Q637 1771 598 1727.50Q559 1684 520 1645Q481 1606 450 1578L352 1578L352 1601Q392 1656 426 1708Q460 1760 488 1809.50Q516 1859 539 1905L723 1905Z"  horiz-adv-x="906" vert-adv-y="2048"  />

      
      <glyph glyph-name="unic2" unicode="&#xc2;" d="M737 0L627 470L280 470L170 0L0 0L353 1462L546 1462L906 0L737 0M597 617L485 1113Q478 1150 471.50 1185.50Q465 1221 459.50 1254.50Q454 1288 449 1320Q446 1288 441 1254Q436 1220 429 1185.50Q422 1151 414 1115L305 617L597 617M521 1905Q543 1859 575.50 1804Q608 1749 643.50 1695Q679 1641 710 1598L710 1578L625 1578Q582 1619 538 1671Q494 1723 448 1778Q402 1724 355.50 1669.50Q309 1615 272 1578L186 1578L186 1598Q222 1646 257 1700.50Q292 1755 322.50 1808Q353 1861 373 1905L521 1905Z"  horiz-adv-x="906" vert-adv-y="2048"  />

      
      <glyph glyph-name="unic3" unicode="&#xc3;" d="M737 0L627 470L280 470L170 0L0 0L353 1462L546 1462L906 0L737 0M597 617L485 1113Q478 1150 471.50 1185.50Q465 1221 459.50 1254.50Q454 1288 449 1320Q446 1288 441 1254Q436 1220 429 1185.50Q422 1151 414 1115L305 617L597 617M156 1579Q161 1627 172 1671Q183 1715 202.50 1748.50Q222 1782 252 1801.50Q282 1821 323 1821Q361 1821 395 1803Q429 1785 461 1761.50Q493 1738 523 1720Q553 1702 582 1702Q614 1702 630.50 1735Q647 1768 656 1823L754 1823Q747 1705 702 1643Q657 1581 589 1581Q552 1581 516 1599Q480 1617 447.50 1641Q415 1665 386 1683Q357 1701 332 1701Q304 1701 282.50 1669Q261 1637 252 1579L156 1579Z"  horiz-adv-x="906" vert-adv-y="2048"  />

      
      <glyph glyph-name="unic4" unicode="&#xc4;" d="M737 0L627 470L280 470L170 0L0 0L353 1462L546 1462L906 0L737 0M597 617L485 1113Q478 1150 471.50 1185.50Q465 1221 459.50 1254.50Q454 1288 449 1320Q446 1288 441 1254Q436 1220 429 1185.50Q422 1151 414 1115L305 617L597 617M203 1704Q203 1754 227 1778Q251 1802 287 1802Q322 1802 345.50 1777.50Q369 1753 369 1704Q369 1653 345.50 1627.50Q322 1602 287 1602Q251 1602 227 1627.50Q203 1653 203 1704M531 1704Q531 1754 555.50 1778Q580 1802 615 1802Q651 1802 675.50 1777.50Q700 1753 700 1704Q700 1653 675.50 1627.50Q651 1602 615 1602Q578 1602 554.50 1627.50Q531 1653 531 1704Z"  horiz-adv-x="906" vert-adv-y="2048"  />

      
      <glyph glyph-name="unic5" unicode="&#xc5;" d="M737 0L627 470L280 470L170 0L0 0L353 1462L546 1462L906 0L737 0M597 617L485 1113Q478 1150 471.50 1185.50Q465 1221 459.50 1254.50Q454 1288 449 1320Q446 1288 441 1254Q436 1220 429 1185.50Q422 1151 414 1115L305 617L597 617M453 1377Q356 1377 299 1432.50Q242 1488 242 1579Q242 1671 299 1726.50Q356 1782 453 1782Q545 1782 604.50 1727.50Q664 1673 664 1582Q664 1490 606.50 1433.50Q549 1377 453 1377M455 1472Q504 1472 535 1501Q566 1530 566 1578Q566 1628 537 1659Q508 1690 455 1690Q404 1690 373 1659Q342 1628 342 1579Q342 1531 370 1501.50Q398 1472 455 1472Z"  horiz-adv-x="906" vert-adv-y="2048"  />

      
      <glyph glyph-name="unic6" unicode="&#xc6;" d="M1156 0L573 0L573 470L303 470L169 0L-4 0L434 1462L1156 1462L1156 1318L732 1318L732 835L1130 835L1130 692L732 692L732 145L1156 145L1156 0M342 617L575 617L575 1316L542 1316L342 617Z"  horiz-adv-x="1252" vert-adv-y="2048"  />

      
      <glyph glyph-name="unic7" unicode="&#xc7;" d="M596 1340Q509 1340 446.50 1291Q384 1242 344.50 1156.50Q305 1071 286.50 961.50Q268 852 268 731Q268 543 309.50 407Q351 271 427 197.50Q503 124 606 124Q668 124 723 140Q778 156 824 179L824 35Q776 7 717-6.50Q658-20 588-20Q439-20 330 70Q221 160 162 328.50Q103 497 103 733Q103 888 132.50 1024Q162 1160 222.50 1264Q283 1368 375 1426.50Q467 1485 591 1485Q663 1485 729.50 1466.50Q796 1448 857 1413L800 1278Q754 1307 703 1323.50Q652 1340 596 1340M724-283Q724-384 660.50-438Q597-492 484-492Q449-492 420-488.50Q391-485 371-479L371-376Q391-382 414.50-385Q438-388 461-388Q528-388 561.50-359Q595-330 595-283Q595-227 552-199.50Q509-172 435-162L505 0L600 0L554-105Q609-116 647-140Q685-164 704.50-200Q724-236 724-283Z"  horiz-adv-x="906" vert-adv-y="2048"  />

      
      <glyph glyph-name="unic8" unicode="&#xc8;" d="M726 0L151 0L151 1462L726 1462L726 1320L310 1320L310 835L701 835L701 692L310 692L310 145L726 145L726 0M337 1905Q360 1857 392.50 1801Q425 1745 460 1692.50Q495 1640 525 1601L525 1578L426 1578Q395 1605 356.50 1643.50Q318 1682 279 1725.50Q240 1769 207 1811Q174 1853 153 1887L153 1905L337 1905Z"  horiz-adv-x="818" vert-adv-y="2048"  />

      
      <glyph glyph-name="unic9" unicode="&#xc9;" d="M726 0L151 0L151 1462L726 1462L726 1320L310 1320L310 835L701 835L701 692L310 692L310 145L726 145L726 0M703 1905L703 1887Q683 1854 650 1812.50Q617 1771 578 1727.50Q539 1684 500 1645Q461 1606 430 1578L332 1578L332 1601Q372 1656 406 1708Q440 1760 468 1809.50Q496 1859 519 1905L703 1905Z"  horiz-adv-x="818" vert-adv-y="2048"  />

      
      <glyph glyph-name="unica" unicode="&#xca;" d="M726 0L151 0L151 1462L726 1462L726 1320L310 1320L310 835L701 835L701 692L310 692L310 145L726 145L726 0M510 1905Q532 1859 564.50 1804Q597 1749 632.50 1695Q668 1641 699 1598L699 1578L614 1578Q571 1619 527 1671Q483 1723 437 1778Q391 1724 344.50 1669.50Q298 1615 261 1578L175 1578L175 1598Q211 1646 246 1700.50Q281 1755 311.50 1808Q342 1861 362 1905L510 1905Z"  horiz-adv-x="818" vert-adv-y="2048"  />

      
      <glyph glyph-name="unicb" unicode="&#xcb;" d="M726 0L151 0L151 1462L726 1462L726 1320L310 1320L310 835L701 835L701 692L310 692L310 145L726 145L726 0M184 1704Q184 1754 208 1778Q232 1802 268 1802Q303 1802 326.50 1777.50Q350 1753 350 1704Q350 1653 326.50 1627.50Q303 1602 268 1602Q232 1602 208 1627.50Q184 1653 184 1704M512 1704Q512 1754 536.50 1778Q561 1802 596 1802Q632 1802 656.50 1777.50Q681 1753 681 1704Q681 1653 656.50 1627.50Q632 1602 596 1602Q559 1602 535.50 1627.50Q512 1653 512 1704Z"  horiz-adv-x="818" vert-adv-y="2048"  />

      
      <glyph glyph-name="unicc" unicode="&#xcc;" d="M151 0L151 1462L310 1462L310 0L151 0M146 1914Q169 1866 201.50 1810Q234 1754 269 1701.50Q304 1649 334 1610L334 1587L235 1587Q204 1614 165.50 1652.50Q127 1691 88 1734.50Q49 1778 16 1820Q-17 1862-38 1896L-38 1914L146 1914Z"  horiz-adv-x="458" vert-adv-y="2048"  />

      
      <glyph glyph-name="unicd" unicode="&#xcd;" d="M151 0L151 1462L310 1462L310 0L151 0M490 1914L490 1896Q470 1863 437 1821.50Q404 1780 365 1736.50Q326 1693 287 1654Q248 1615 217 1587L119 1587L119 1610Q159 1665 193 1717Q227 1769 255 1818.50Q283 1868 306 1914L490 1914Z"  horiz-adv-x="458" vert-adv-y="2048"  />

      
      <glyph glyph-name="unice" unicode="&#xce;" d="M151 0L151 1462L310 1462L310 0L151 0M303 1910Q325 1864 357.50 1809Q390 1754 425.50 1700Q461 1646 492 1603L492 1583L407 1583Q364 1624 320 1676Q276 1728 230 1783Q184 1729 137.50 1674.50Q91 1620 54 1583L-32 1583L-32 1603Q4 1651 39 1705.50Q74 1760 104.50 1813Q135 1866 155 1910L303 1910Z"  horiz-adv-x="458" vert-adv-y="2048"  />

      
      <glyph glyph-name="unicf" unicode="&#xcf;" d="M151 0L151 1462L310 1462L310 0L151 0M-20 1710Q-20 1760 4 1784Q28 1808 64 1808Q99 1808 122.50 1783.50Q146 1759 146 1710Q146 1659 122.50 1633.50Q99 1608 64 1608Q28 1608 4 1633.50Q-20 1659-20 1710M308 1710Q308 1760 332.50 1784Q357 1808 392 1808Q428 1808 452.50 1783.50Q477 1759 477 1710Q477 1659 452.50 1633.50Q428 1608 392 1608Q355 1608 331.50 1633.50Q308 1659 308 1710Z"  horiz-adv-x="458" vert-adv-y="2048"  />

      
      <glyph glyph-name="unid0" unicode="&#xd0;" d="M449 1462Q612 1462 722 1381Q832 1300 888.50 1141Q945 982 945 749Q945 502 888 335.50Q831 169 718.50 84.50Q606 0 438 0L150 0L150 687L45 687L45 816L150 816L150 1462L449 1462M445 1320L312 1320L312 816L519 816L519 687L312 687L312 143L434 143Q614 143 697 293.50Q780 444 780 741Q780 932 743.50 1061Q707 1190 632.50 1255Q558 1320 445 1320Z"  horiz-adv-x="1049" vert-adv-y="2048"  />

      
      <glyph glyph-name="unid1" unicode="&#xd1;" d="M1002 0L809 0L299 1210L291 1210Q295 1157 297.50 1107.50Q300 1058 301 1012Q302 966 302 922L302 0L151 0L151 1462L343 1462L854 270L860 270Q857 329 854.50 381Q852 433 851 478.50Q850 524 850 562L850 1462L1002 1462L1002 0M286 1579Q291 1627 302 1671Q313 1715 332.50 1748.50Q352 1782 382 1801.50Q412 1821 453 1821Q491 1821 525 1803Q559 1785 591 1761.50Q623 1738 653 1720Q683 1702 712 1702Q744 1702 760.50 1735Q777 1768 786 1823L884 1823Q877 1705 832 1643Q787 1581 719 1581Q682 1581 646 1599Q610 1617 577.50 1641Q545 1665 516 1683Q487 1701 462 1701Q434 1701 412.50 1669Q391 1637 382 1579L286 1579Z"  horiz-adv-x="1150" vert-adv-y="2048"  />

      
      <glyph glyph-name="unid2" unicode="&#xd2;" d="M1016 733Q1016 576 991 439.50Q966 303 912.50 199.50Q859 96 772 38Q685-20 561-20Q435-20 347 39.50Q259 99 205.50 203Q152 307 127.50 444Q103 581 103 735Q103 985 154.50 1151Q206 1317 308 1400Q410 1483 561 1483Q725 1483 825 1383.50Q925 1284 970.50 1114Q1016 944 1016 733M268 733Q268 534 301.50 398.50Q335 263 400 194Q465 125 559 125Q655 125 719 192.50Q783 260 815.50 395.50Q848 531 848 733Q848 1034 776 1186Q704 1338 561 1338Q463 1338 398 1269.50Q333 1201 300.50 1066.50Q268 932 268 733M441 1905Q464 1857 496.50 1801Q529 1745 564 1692.50Q599 1640 629 1601L629 1578L530 1578Q499 1605 460.50 1643.50Q422 1682 383 1725.50Q344 1769 311 1811Q278 1853 257 1887L257 1905L441 1905Z"  horiz-adv-x="1117" vert-adv-y="2048"  />

      
      <glyph glyph-name="unid3" unicode="&#xd3;" d="M1016 733Q1016 576 991 439.50Q966 303 912.50 199.50Q859 96 772 38Q685-20 561-20Q435-20 347 39.50Q259 99 205.50 203Q152 307 127.50 444Q103 581 103 735Q103 985 154.50 1151Q206 1317 308 1400Q410 1483 561 1483Q725 1483 825 1383.50Q925 1284 970.50 1114Q1016 944 1016 733M268 733Q268 534 301.50 398.50Q335 263 400 194Q465 125 559 125Q655 125 719 192.50Q783 260 815.50 395.50Q848 531 848 733Q848 1034 776 1186Q704 1338 561 1338Q463 1338 398 1269.50Q333 1201 300.50 1066.50Q268 932 268 733M828 1905L828 1887Q808 1854 775 1812.50Q742 1771 703 1727.50Q664 1684 625 1645Q586 1606 555 1578L457 1578L457 1601Q497 1656 531 1708Q565 1760 593 1809.50Q621 1859 644 1905L828 1905Z"  horiz-adv-x="1117" vert-adv-y="2048"  />

      
      <glyph glyph-name="unid4" unicode="&#xd4;" d="M1016 733Q1016 576 991 439.50Q966 303 912.50 199.50Q859 96 772 38Q685-20 561-20Q435-20 347 39.50Q259 99 205.50 203Q152 307 127.50 444Q103 581 103 735Q103 985 154.50 1151Q206 1317 308 1400Q410 1483 561 1483Q725 1483 825 1383.50Q925 1284 970.50 1114Q1016 944 1016 733M268 733Q268 534 301.50 398.50Q335 263 400 194Q465 125 559 125Q655 125 719 192.50Q783 260 815.50 395.50Q848 531 848 733Q848 1034 776 1186Q704 1338 561 1338Q463 1338 398 1269.50Q333 1201 300.50 1066.50Q268 932 268 733M632 1905Q654 1859 686.50 1804Q719 1749 754.50 1695Q790 1641 821 1598L821 1578L736 1578Q693 1619 649 1671Q605 1723 559 1778Q513 1724 466.50 1669.50Q420 1615 383 1578L297 1578L297 1598Q333 1646 368 1700.50Q403 1755 433.50 1808Q464 1861 484 1905L632 1905Z"  horiz-adv-x="1117" vert-adv-y="2048"  />

      
      <glyph glyph-name="unid5" unicode="&#xd5;" d="M1016 733Q1016 576 991 439.50Q966 303 912.50 199.50Q859 96 772 38Q685-20 561-20Q435-20 347 39.50Q259 99 205.50 203Q152 307 127.50 444Q103 581 103 735Q103 985 154.50 1151Q206 1317 308 1400Q410 1483 561 1483Q725 1483 825 1383.50Q925 1284 970.50 1114Q1016 944 1016 733M268 733Q268 534 301.50 398.50Q335 263 400 194Q465 125 559 125Q655 125 719 192.50Q783 260 815.50 395.50Q848 531 848 733Q848 1034 776 1186Q704 1338 561 1338Q463 1338 398 1269.50Q333 1201 300.50 1066.50Q268 932 268 733M267 1579Q272 1627 283 1671Q294 1715 313.50 1748.50Q333 1782 363 1801.50Q393 1821 434 1821Q472 1821 506 1803Q540 1785 572 1761.50Q604 1738 634 1720Q664 1702 693 1702Q725 1702 741.50 1735Q758 1768 767 1823L865 1823Q858 1705 813 1643Q768 1581 700 1581Q663 1581 627 1599Q591 1617 558.50 1641Q526 1665 497 1683Q468 1701 443 1701Q415 1701 393.50 1669Q372 1637 363 1579L267 1579Z"  horiz-adv-x="1117" vert-adv-y="2048"  />

      
      <glyph glyph-name="unid6" unicode="&#xd6;" d="M1016 733Q1016 576 991 439.50Q966 303 912.50 199.50Q859 96 772 38Q685-20 561-20Q435-20 347 39.50Q259 99 205.50 203Q152 307 127.50 444Q103 581 103 735Q103 985 154.50 1151Q206 1317 308 1400Q410 1483 561 1483Q725 1483 825 1383.50Q925 1284 970.50 1114Q1016 944 1016 733M268 733Q268 534 301.50 398.50Q335 263 400 194Q465 125 559 125Q655 125 719 192.50Q783 260 815.50 395.50Q848 531 848 733Q848 1034 776 1186Q704 1338 561 1338Q463 1338 398 1269.50Q333 1201 300.50 1066.50Q268 932 268 733M316 1704Q316 1754 340 1778Q364 1802 400 1802Q435 1802 458.50 1777.50Q482 1753 482 1704Q482 1653 458.50 1627.50Q435 1602 400 1602Q364 1602 340 1627.50Q316 1653 316 1704M644 1704Q644 1754 668.50 1778Q693 1802 728 1802Q764 1802 788.50 1777.50Q813 1753 813 1704Q813 1653 788.50 1627.50Q764 1602 728 1602Q691 1602 667.50 1627.50Q644 1653 644 1704Z"  horiz-adv-x="1117" vert-adv-y="2048"  />

      
      <glyph glyph-name="unid7" unicode="&#xd7;" d="M717 1095L808 1008L526 723L802 442L715 355L435 634L155 353L68 442L346 723L68 1001L156 1091L435 812L717 1095Z"  horiz-adv-x="874" vert-adv-y="2048"  />

      
      <glyph glyph-name="unid8" unicode="&#xd8;" d="M1021 733Q1021 554 992.50 414Q964 274 907.50 177.50Q851 81 765.50 30.50Q680-20 566-20Q487-20 422 6Q357 32 306 81L216-101L117-57L230 170Q166 275 137 415.50Q108 556 108 735Q108 985 160 1151Q212 1317 314 1400Q416 1483 566 1483Q646 1483 713 1455Q780 1427 832 1371L921 1544L1020 1496L909 1278Q966 1182 993.50 1045.50Q1021 909 1021 733M857 733Q857 841 847 932.50Q837 1024 816 1094L376 224Q411 173 458.50 147.50Q506 122 564 122Q662 122 727 190.50Q792 259 824.50 395Q857 531 857 733M272 733Q272 611 284.50 515Q297 419 322 348L764 1225Q728 1284 679 1312Q630 1340 566 1340Q468 1340 402.50 1271Q337 1202 304.50 1067Q272 932 272 733Z"  horiz-adv-x="1123" vert-adv-y="2048"  />

      
      <glyph glyph-name="unid9" unicode="&#xd9;" d="M923 1462L923 457Q923 290 878 184.50Q833 79 746.50 29.50Q660-20 533-20Q340-20 239 96Q138 212 138 456L138 1462L297 1462L297 455Q297 279 358.50 202Q420 125 533 125Q608 125 659 158Q710 191 736 264Q762 337 762 457L762 1462L923 1462M426 1905Q449 1857 481.50 1801Q514 1745 549 1692.50Q584 1640 614 1601L614 1578L515 1578Q484 1605 445.50 1643.50Q407 1682 368 1725.50Q329 1769 296 1811Q263 1853 242 1887L242 1905L426 1905Z"  horiz-adv-x="1061" vert-adv-y="2048"  />

      
      <glyph glyph-name="unida" unicode="&#xda;" d="M923 1462L923 457Q923 290 878 184.50Q833 79 746.50 29.50Q660-20 533-20Q340-20 239 96Q138 212 138 456L138 1462L297 1462L297 455Q297 279 358.50 202Q420 125 533 125Q608 125 659 158Q710 191 736 264Q762 337 762 457L762 1462L923 1462M811 1905L811 1887Q791 1854 758 1812.50Q725 1771 686 1727.50Q647 1684 608 1645Q569 1606 538 1578L440 1578L440 1601Q480 1656 514 1708Q548 1760 576 1809.50Q604 1859 627 1905L811 1905Z"  horiz-adv-x="1061" vert-adv-y="2048"  />

      
      <glyph glyph-name="unidb" unicode="&#xdb;" d="M923 1462L923 457Q923 290 878 184.50Q833 79 746.50 29.50Q660-20 533-20Q340-20 239 96Q138 212 138 456L138 1462L297 1462L297 455Q297 279 358.50 202Q420 125 533 125Q608 125 659 158Q710 191 736 264Q762 337 762 457L762 1462L923 1462M603 1905Q625 1859 657.50 1804Q690 1749 725.50 1695Q761 1641 792 1598L792 1578L707 1578Q664 1619 620 1671Q576 1723 530 1778Q484 1724 437.50 1669.50Q391 1615 354 1578L268 1578L268 1598Q304 1646 339 1700.50Q374 1755 404.50 1808Q435 1861 455 1905L603 1905Z"  horiz-adv-x="1061" vert-adv-y="2048"  />

      
      <glyph glyph-name="unidc" unicode="&#xdc;" d="M923 1462L923 457Q923 290 878 184.50Q833 79 746.50 29.50Q660-20 533-20Q340-20 239 96Q138 212 138 456L138 1462L297 1462L297 455Q297 279 358.50 202Q420 125 533 125Q608 125 659 158Q710 191 736 264Q762 337 762 457L762 1462L923 1462M283 1703Q283 1753 307 1777Q331 1801 367 1801Q402 1801 425.50 1776.50Q449 1752 449 1703Q449 1652 425.50 1626.50Q402 1601 367 1601Q331 1601 307 1626.50Q283 1652 283 1703M611 1703Q611 1753 635.50 1777Q660 1801 695 1801Q731 1801 755.50 1776.50Q780 1752 780 1703Q780 1652 755.50 1626.50Q731 1601 695 1601Q658 1601 634.50 1626.50Q611 1652 611 1703Z"  horiz-adv-x="1061" vert-adv-y="2048"  />

      
      <glyph glyph-name="unidd" unicode="&#xdd;" d="M394 760L619 1462L786 1462L472 569L472 0L313 0L313 565L0 1462L166 1462L394 760M641 1905L641 1887Q621 1854 588 1812.50Q555 1771 516 1727.50Q477 1684 438 1645Q399 1606 368 1578L270 1578L270 1601Q310 1656 344 1708Q378 1760 406 1809.50Q434 1859 457 1905L641 1905Z"  horiz-adv-x="786" vert-adv-y="2048"  />

      
      <glyph glyph-name="unide" unicode="&#xde;" d="M828 784Q828 674 803 587.50Q778 501 727 441Q676 381 597.50 350Q519 319 412 319L310 319L310 0L151 0L151 1462L310 1462L310 1206L414 1206Q626 1206 727 1102.50Q828 999 828 784M310 461L396 461Q495 461 554.50 495Q614 529 640.50 599Q667 669 667 776Q667 928 606 996Q545 1064 411 1064L310 1064L310 461Z"  horiz-adv-x="884" vert-adv-y="2048"  />

      
      <glyph glyph-name="unidf" unicode="&#xdf;" d="M757 1269Q757 1207 738 1159Q719 1111 691.50 1071.50Q664 1032 636 997.50Q608 963 589 927Q570 891 570 849Q570 812 583 780Q596 748 621.50 715Q647 682 683 642Q746 575 783.50 524Q821 473 837 423Q853 373 853 307Q853 207 819.50 133.50Q786 60 721.50 20Q657-20 563-20Q512-20 459.50-7Q407 6 367 34L367 184Q394 166 422.50 151Q451 136 482.50 127Q514 118 550 118Q622 118 660 166Q698 214 698 296Q698 342 684.50 380Q671 418 642 457Q613 496 566 543Q510 601 477.50 651.50Q445 702 431.50 749Q418 796 418 842Q418 899 437 941Q456 983 483.50 1018Q511 1053 538.50 1088Q566 1123 585 1165.50Q604 1208 604 1265Q604 1344 568 1387.50Q532 1431 459 1431Q403 1431 365 1401Q327 1371 307.50 1313Q288 1255 288 1171L288 0L134 0L134 1176Q134 1298 173 1385.50Q212 1473 285.50 1520Q359 1567 462 1567Q555 1567 621 1532Q687 1497 722 1430.50Q757 1364 757 1269Z"  horiz-adv-x="918" vert-adv-y="2048"  />

      
      <glyph glyph-name="unie0" unicode="&#xe0;" d="M428 1118Q580 1118 645 1021Q710 924 710 740L710 0L593 0L570 156L566 156Q540 100 504 60.50Q468 21 422 0.50Q376-20 316-20Q231-20 177 25Q123 70 97 143.50Q71 217 71 302Q71 465 165 555Q259 645 432 653L557 661L557 736Q557 868 521 929Q485 990 405 990Q359 990 308.50 974Q258 958 199 923L150 1039Q212 1079 282.50 1098.50Q353 1118 428 1118M559 548L457 541Q341 534 284.50 475.50Q228 417 228 306Q228 203 265 154Q302 105 367 105Q458 105 508.50 193Q559 281 559 436L559 548M371 1568Q394 1520 426.50 1464Q459 1408 494 1355.50Q529 1303 559 1264L559 1241L460 1241Q429 1268 390.50 1306.50Q352 1345 313 1388.50Q274 1432 241 1474Q208 1516 187 1550L187 1568L371 1568Z"  horiz-adv-x="841" vert-adv-y="2048"  />

      
      <glyph glyph-name="unie1" unicode="&#xe1;" d="M428 1118Q580 1118 645 1021Q710 924 710 740L710 0L593 0L570 156L566 156Q540 100 504 60.50Q468 21 422 0.50Q376-20 316-20Q231-20 177 25Q123 70 97 143.50Q71 217 71 302Q71 465 165 555Q259 645 432 653L557 661L557 736Q557 868 521 929Q485 990 405 990Q359 990 308.50 974Q258 958 199 923L150 1039Q212 1079 282.50 1098.50Q353 1118 428 1118M559 548L457 541Q341 534 284.50 475.50Q228 417 228 306Q228 203 265 154Q302 105 367 105Q458 105 508.50 193Q559 281 559 436L559 548M661 1568L661 1550Q641 1517 608 1475.50Q575 1434 536 1390.50Q497 1347 458 1308Q419 1269 388 1241L290 1241L290 1264Q330 1319 364 1371Q398 1423 426 1472.50Q454 1522 477 1568L661 1568Z"  horiz-adv-x="841" vert-adv-y="2048"  />

      
      <glyph glyph-name="unie2" unicode="&#xe2;" d="M428 1118Q580 1118 645 1021Q710 924 710 740L710 0L593 0L570 156L566 156Q540 100 504 60.50Q468 21 422 0.50Q376-20 316-20Q231-20 177 25Q123 70 97 143.50Q71 217 71 302Q71 465 165 555Q259 645 432 653L557 661L557 736Q557 868 521 929Q485 990 405 990Q359 990 308.50 974Q258 958 199 923L150 1039Q212 1079 282.50 1098.50Q353 1118 428 1118M559 548L457 541Q341 534 284.50 475.50Q228 417 228 306Q228 203 265 154Q302 105 367 105Q458 105 508.50 193Q559 281 559 436L559 548M505 1568Q527 1522 559.50 1467Q592 1412 627.50 1358Q663 1304 694 1261L694 1241L609 1241Q566 1282 522 1334Q478 1386 432 1441Q386 1387 339.50 1332.50Q293 1278 256 1241L170 1241L170 1261Q206 1309 241 1363.50Q276 1418 306.50 1471Q337 1524 357 1568L505 1568Z"  horiz-adv-x="841" vert-adv-y="2048"  />

      
      <glyph glyph-name="unie3" unicode="&#xe3;" d="M428 1118Q580 1118 645 1021Q710 924 710 740L710 0L593 0L570 156L566 156Q540 100 504 60.50Q468 21 422 0.50Q376-20 316-20Q231-20 177 25Q123 70 97 143.50Q71 217 71 302Q71 465 165 555Q259 645 432 653L557 661L557 736Q557 868 521 929Q485 990 405 990Q359 990 308.50 974Q258 958 199 923L150 1039Q212 1079 282.50 1098.50Q353 1118 428 1118M559 548L457 541Q341 534 284.50 475.50Q228 417 228 306Q228 203 265 154Q302 105 367 105Q458 105 508.50 193Q559 281 559 436L559 548M133 1243Q138 1291 149 1335Q160 1379 179.50 1412.50Q199 1446 229 1465.50Q259 1485 300 1485Q338 1485 372 1467Q406 1449 438 1425.50Q470 1402 500 1384Q530 1366 559 1366Q591 1366 607.50 1399Q624 1432 633 1487L731 1487Q724 1369 679 1307Q634 1245 566 1245Q529 1245 493 1263Q457 1281 424.50 1305Q392 1329 363 1347Q334 1365 309 1365Q281 1365 259.50 1333Q238 1301 229 1243L133 1243Z"  horiz-adv-x="841" vert-adv-y="2048"  />

      
      <glyph glyph-name="unie4" unicode="&#xe4;" d="M428 1118Q580 1118 645 1021Q710 924 710 740L710 0L593 0L570 156L566 156Q540 100 504 60.50Q468 21 422 0.50Q376-20 316-20Q231-20 177 25Q123 70 97 143.50Q71 217 71 302Q71 465 165 555Q259 645 432 653L557 661L557 736Q557 868 521 929Q485 990 405 990Q359 990 308.50 974Q258 958 199 923L150 1039Q212 1079 282.50 1098.50Q353 1118 428 1118M559 548L457 541Q341 534 284.50 475.50Q228 417 228 306Q228 203 265 154Q302 105 367 105Q458 105 508.50 193Q559 281 559 436L559 548M182 1367Q182 1417 206 1441Q230 1465 266 1465Q301 1465 324.50 1440.50Q348 1416 348 1367Q348 1316 324.50 1290.50Q301 1265 266 1265Q230 1265 206 1290.50Q182 1316 182 1367M510 1367Q510 1417 534.50 1441Q559 1465 594 1465Q630 1465 654.50 1440.50Q679 1416 679 1367Q679 1316 654.50 1290.50Q630 1265 594 1265Q557 1265 533.50 1290.50Q510 1316 510 1367Z"  horiz-adv-x="841" vert-adv-y="2048"  />

      
      <glyph glyph-name="unie5" unicode="&#xe5;" d="M428 1118Q580 1118 645 1021Q710 924 710 740L710 0L593 0L570 156L566 156Q540 100 504 60.50Q468 21 422 0.50Q376-20 316-20Q231-20 177 25Q123 70 97 143.50Q71 217 71 302Q71 465 165 555Q259 645 432 653L557 661L557 736Q557 868 521 929Q485 990 405 990Q359 990 308.50 974Q258 958 199 923L150 1039Q212 1079 282.50 1098.50Q353 1118 428 1118M559 548L457 541Q341 534 284.50 475.50Q228 417 228 306Q228 203 265 154Q302 105 367 105Q458 105 508.50 193Q559 281 559 436L559 548M432 1249Q335 1249 278 1304.50Q221 1360 221 1451Q221 1543 278 1598.50Q335 1654 432 1654Q524 1654 583.50 1599.50Q643 1545 643 1454Q643 1362 585.50 1305.50Q528 1249 432 1249M434 1344Q483 1344 514 1373Q545 1402 545 1450Q545 1500 516 1531Q487 1562 434 1562Q383 1562 352 1531Q321 1500 321 1451Q321 1403 349 1373.50Q377 1344 434 1344Z"  horiz-adv-x="841" vert-adv-y="2048"  />

      
      <glyph glyph-name="unie6" unicode="&#xe6;" d="M905 1116Q1018 1116 1090 1051Q1162 986 1196.50 876.50Q1231 767 1231 632L1231 523L709 523Q712 315 773 212Q834 109 952 109Q1011 109 1071.50 127.50Q1132 146 1191 183L1191 48Q1136 14 1073.50-3Q1011-20 939-20Q866-20 803.50 7Q741 34 694 85.50Q647 137 620 210Q588 131 544.50 80Q501 29 446.50 4.50Q392-20 325-20Q237-20 180.50 24.50Q124 69 97.50 143Q71 217 71 303Q71 412 113.50 488Q156 564 237 606Q318 648 433 653L557 660L557 741Q557 866 520 928Q483 990 406 990Q361 990 310 974Q259 958 200 923L150 1040Q205 1074 271.50 1096Q338 1118 417 1118Q508 1118 565.50 1078Q623 1038 651 955Q692 1033 755.50 1074.50Q819 1116 905 1116M559 547L458 541Q340 534 284 477Q228 420 228 306Q228 205 264 155.50Q300 106 367 106Q427 106 470 145Q513 184 536 256Q559 328 559 427L559 547M904 988Q819 988 768.50 903.50Q718 819 711 645L1088 645Q1088 742 1068.50 819.50Q1049 897 1008.50 942.50Q968 988 904 988Z"  horiz-adv-x="1318" vert-adv-y="2048"  />

      
      <glyph glyph-name="unie7" unicode="&#xe7;" d="M451-20Q330-20 249.50 43Q169 106 129 231Q89 356 89 541Q89 722 129.50 851Q170 980 252 1049Q334 1118 457 1118Q519 1118 568.50 1105Q618 1092 661 1068L612 941Q575 961 538.50 971Q502 981 467 981Q395 981 346 931.50Q297 882 271.50 785Q246 688 246 543Q246 402 270.50 307Q295 212 344.50 163.50Q394 115 468 115Q512 115 557.50 127.50Q603 140 649 164L649 34Q607 8 551.50-6Q496-20 451-20M619-283Q619-384 555.50-438Q492-492 379-492Q344-492 315-488.50Q286-485 266-479L266-376Q286-382 309.50-385Q333-388 356-388Q423-388 456.50-359Q490-330 490-283Q490-227 447-199.50Q404-172 330-162L400 0L495 0L449-105Q504-116 542-140Q580-164 599.50-200Q619-236 619-283Z"  horiz-adv-x="703" vert-adv-y="2048"  />

      
      <glyph glyph-name="unie8" unicode="&#xe8;" d="M436 1116Q548 1116 620.50 1051Q693 986 728.50 876Q764 766 764 631L764 522L241 522Q243 317 304.50 214Q366 111 490 111Q549 111 606 129Q663 147 724 187L724 49Q667 14 605-3Q543-20 473-20Q336-20 251 53.50Q166 127 127.50 254.50Q89 382 89 543Q89 727 128 855Q167 983 244.50 1049.50Q322 1116 436 1116M436 990Q349 990 300 905.50Q251 821 243 645L620 645Q620 738 600.50 816.50Q581 895 540.50 942.50Q500 990 436 990M369 1568Q392 1520 424.50 1464Q457 1408 492 1355.50Q527 1303 557 1264L557 1241L458 1241Q427 1268 388.50 1306.50Q350 1345 311 1388.50Q272 1432 239 1474Q206 1516 185 1550L185 1568L369 1568Z"  horiz-adv-x="847" vert-adv-y="2048"  />

      
      <glyph glyph-name="unie9" unicode="&#xe9;" d="M436 1116Q548 1116 620.50 1051Q693 986 728.50 876Q764 766 764 631L764 522L241 522Q243 317 304.50 214Q366 111 490 111Q549 111 606 129Q663 147 724 187L724 49Q667 14 605-3Q543-20 473-20Q336-20 251 53.50Q166 127 127.50 254.50Q89 382 89 543Q89 727 128 855Q167 983 244.50 1049.50Q322 1116 436 1116M436 990Q349 990 300 905.50Q251 821 243 645L620 645Q620 738 600.50 816.50Q581 895 540.50 942.50Q500 990 436 990M701 1568L701 1550Q681 1517 648 1475.50Q615 1434 576 1390.50Q537 1347 498 1308Q459 1269 428 1241L330 1241L330 1264Q370 1319 404 1371Q438 1423 466 1472.50Q494 1522 517 1568L701 1568Z"  horiz-adv-x="847" vert-adv-y="2048"  />

      
      <glyph glyph-name="uniea" unicode="&#xea;" d="M436 1116Q548 1116 620.50 1051Q693 986 728.50 876Q764 766 764 631L764 522L241 522Q243 317 304.50 214Q366 111 490 111Q549 111 606 129Q663 147 724 187L724 49Q667 14 605-3Q543-20 473-20Q336-20 251 53.50Q166 127 127.50 254.50Q89 382 89 543Q89 727 128 855Q167 983 244.50 1049.50Q322 1116 436 1116M436 990Q349 990 300 905.50Q251 821 243 645L620 645Q620 738 600.50 816.50Q581 895 540.50 942.50Q500 990 436 990M503 1568Q525 1522 557.50 1467Q590 1412 625.50 1358Q661 1304 692 1261L692 1241L607 1241Q564 1282 520 1334Q476 1386 430 1441Q384 1387 337.50 1332.50Q291 1278 254 1241L168 1241L168 1261Q204 1309 239 1363.50Q274 1418 304.50 1471Q335 1524 355 1568L503 1568Z"  horiz-adv-x="847" vert-adv-y="2048"  />

      
      <glyph glyph-name="unieb" unicode="&#xeb;" d="M436 1116Q548 1116 620.50 1051Q693 986 728.50 876Q764 766 764 631L764 522L241 522Q243 317 304.50 214Q366 111 490 111Q549 111 606 129Q663 147 724 187L724 49Q667 14 605-3Q543-20 473-20Q336-20 251 53.50Q166 127 127.50 254.50Q89 382 89 543Q89 727 128 855Q167 983 244.50 1049.50Q322 1116 436 1116M436 990Q349 990 300 905.50Q251 821 243 645L620 645Q620 738 600.50 816.50Q581 895 540.50 942.50Q500 990 436 990M181 1367Q181 1417 205 1441Q229 1465 265 1465Q300 1465 323.50 1440.50Q347 1416 347 1367Q347 1316 323.50 1290.50Q300 1265 265 1265Q229 1265 205 1290.50Q181 1316 181 1367M509 1367Q509 1417 533.50 1441Q558 1465 593 1465Q629 1465 653.50 1440.50Q678 1416 678 1367Q678 1316 653.50 1290.50Q629 1265 593 1265Q556 1265 532.50 1290.50Q509 1316 509 1367Z"  horiz-adv-x="847" vert-adv-y="2048"  />

      
      <glyph glyph-name="uniec" unicode="&#xec;" d="M288 0L134 0L134 1098L288 1098L288 0M149 1568Q172 1520 204.50 1464Q237 1408 272 1355.50Q307 1303 337 1264L337 1241L238 1241Q207 1268 168.50 1306.50Q130 1345 91 1388.50Q52 1432 19 1474Q-14 1516-35 1550L-35 1568L149 1568Z"  horiz-adv-x="422" vert-adv-y="2048"  />

      
      <glyph glyph-name="unied" unicode="&#xed;" d="M288 0L134 0L134 1098L288 1098L288 0M480 1568L480 1550Q460 1517 427 1475.50Q394 1434 355 1390.50Q316 1347 277 1308Q238 1269 207 1241L109 1241L109 1264Q149 1319 183 1371Q217 1423 245 1472.50Q273 1522 296 1568L480 1568Z"  horiz-adv-x="422" vert-adv-y="2048"  />

      
      <glyph glyph-name="uniee" unicode="&#xee;" d="M288 0L134 0L134 1098L288 1098L288 0M283 1568Q305 1522 337.50 1467Q370 1412 405.50 1358Q441 1304 472 1261L472 1241L387 1241Q344 1282 300 1334Q256 1386 210 1441Q164 1387 117.50 1332.50Q71 1278 34 1241L-52 1241L-52 1261Q-16 1309 19 1363.50Q54 1418 84.50 1471Q115 1524 135 1568L283 1568Z"  horiz-adv-x="422" vert-adv-y="2048"  />

      
      <glyph glyph-name="unief" unicode="&#xef;" d="M288 0L134 0L134 1098L288 1098L288 0M-39 1367Q-39 1417-15 1441Q9 1465 45 1465Q80 1465 103.50 1440.50Q127 1416 127 1367Q127 1316 103.50 1290.50Q80 1265 45 1265Q9 1265-15 1290.50Q-39 1316-39 1367M289 1367Q289 1417 313.50 1441Q338 1465 373 1465Q409 1465 433.50 1440.50Q458 1416 458 1367Q458 1316 433.50 1290.50Q409 1265 373 1265Q336 1265 312.50 1290.50Q289 1316 289 1367Z"  horiz-adv-x="422" vert-adv-y="2048"  />

      
      <glyph glyph-name="unif0" unicode="&#xf0;" d="M321 1560Q359 1538 396 1510.50Q433 1483 470 1449L641 1560L702 1472L543 1374Q634 1270 694.50 1143Q755 1016 786 863.50Q817 711 817 530Q817 349 775.50 226.50Q734 104 652.50 42Q571-20 451-20Q331-20 250 48Q169 116 128 228.50Q87 341 87 475Q87 633 129.50 743Q172 853 248 910.50Q324 968 425 968Q470 968 507.50 956.50Q545 945 574.50 923.50Q604 902 625 870L631 872Q609 990 559.50 1096Q510 1202 434 1293L276 1191L216 1277L365 1373Q337 1402 308 1426Q279 1450 250 1470L321 1560M457 833Q388 833 340 791.50Q292 750 267 669.50Q242 589 242 470Q242 370 264.50 289Q287 208 334.50 160.50Q382 113 456 113Q566 113 614.50 207.50Q663 302 663 486Q663 559 650 622Q637 685 611 732.50Q585 780 546.50 806.50Q508 833 457 833Z"  horiz-adv-x="904" vert-adv-y="2048"  />

      
      <glyph glyph-name="unif1" unicode="&#xf1;" d="M529 1118Q659 1118 726 1027Q793 936 793 748L793 0L639 0L639 717Q639 850 604.50 916Q570 982 496 982Q388 982 338 886Q288 790 288 578L288 0L134 0L134 1098L257 1098L274 939L284 939Q307 994 343 1034Q379 1074 426 1096Q473 1118 529 1118M177 1244Q182 1292 193 1336Q204 1380 223.50 1413.50Q243 1447 273 1466.50Q303 1486 344 1486Q382 1486 416 1468Q450 1450 482 1426.50Q514 1403 544 1385Q574 1367 603 1367Q635 1367 651.50 1400Q668 1433 677 1488L775 1488Q768 1370 723 1308Q678 1246 610 1246Q573 1246 537 1264Q501 1282 468.50 1306Q436 1330 407 1348Q378 1366 353 1366Q325 1366 303.50 1334Q282 1302 273 1244L177 1244Z"  horiz-adv-x="923" vert-adv-y="2048"  />

      
      <glyph glyph-name="unif2" unicode="&#xf2;" d="M815 550Q815 420 793 315Q771 210 726 135Q681 60 612 20Q543-20 449-20Q359-20 291 20Q223 60 178 134.50Q133 209 110 314.50Q87 420 87 550Q87 732 126 858.50Q165 985 246 1051.50Q327 1118 452 1118Q569 1118 650 1053.50Q731 989 773 862.50Q815 736 815 550M244 550Q244 407 266 310Q288 213 334.50 164Q381 115 453 115Q524 115 569.50 163Q615 211 637 307.50Q659 404 659 550Q659 693 637 789.50Q615 886 569.50 934.50Q524 983 452 983Q342 983 293 874.50Q244 766 244 550M389 1568Q412 1520 444.50 1464Q477 1408 512 1355.50Q547 1303 577 1264L577 1241L478 1241Q447 1268 408.50 1306.50Q370 1345 331 1388.50Q292 1432 259 1474Q226 1516 205 1550L205 1568L389 1568Z"  horiz-adv-x="902" vert-adv-y="2048"  />

      
      <glyph glyph-name="unif3" unicode="&#xf3;" d="M815 550Q815 420 793 315Q771 210 726 135Q681 60 612 20Q543-20 449-20Q359-20 291 20Q223 60 178 134.50Q133 209 110 314.50Q87 420 87 550Q87 732 126 858.50Q165 985 246 1051.50Q327 1118 452 1118Q569 1118 650 1053.50Q731 989 773 862.50Q815 736 815 550M244 550Q244 407 266 310Q288 213 334.50 164Q381 115 453 115Q524 115 569.50 163Q615 211 637 307.50Q659 404 659 550Q659 693 637 789.50Q615 886 569.50 934.50Q524 983 452 983Q342 983 293 874.50Q244 766 244 550M717 1568L717 1550Q697 1517 664 1475.50Q631 1434 592 1390.50Q553 1347 514 1308Q475 1269 444 1241L346 1241L346 1264Q386 1319 420 1371Q454 1423 482 1472.50Q510 1522 533 1568L717 1568Z"  horiz-adv-x="902" vert-adv-y="2048"  />

      
      <glyph glyph-name="unif4" unicode="&#xf4;" d="M815 550Q815 420 793 315Q771 210 726 135Q681 60 612 20Q543-20 449-20Q359-20 291 20Q223 60 178 134.50Q133 209 110 314.50Q87 420 87 550Q87 732 126 858.50Q165 985 246 1051.50Q327 1118 452 1118Q569 1118 650 1053.50Q731 989 773 862.50Q815 736 815 550M244 550Q244 407 266 310Q288 213 334.50 164Q381 115 453 115Q524 115 569.50 163Q615 211 637 307.50Q659 404 659 550Q659 693 637 789.50Q615 886 569.50 934.50Q524 983 452 983Q342 983 293 874.50Q244 766 244 550M522 1568Q544 1522 576.50 1467Q609 1412 644.50 1358Q680 1304 711 1261L711 1241L626 1241Q583 1282 539 1334Q495 1386 449 1441Q403 1387 356.50 1332.50Q310 1278 273 1241L187 1241L187 1261Q223 1309 258 1363.50Q293 1418 323.50 1471Q354 1524 374 1568L522 1568Z"  horiz-adv-x="902" vert-adv-y="2048"  />

      
      <glyph glyph-name="unif5" unicode="&#xf5;" d="M815 550Q815 420 793 315Q771 210 726 135Q681 60 612 20Q543-20 449-20Q359-20 291 20Q223 60 178 134.50Q133 209 110 314.50Q87 420 87 550Q87 732 126 858.50Q165 985 246 1051.50Q327 1118 452 1118Q569 1118 650 1053.50Q731 989 773 862.50Q815 736 815 550M244 550Q244 407 266 310Q288 213 334.50 164Q381 115 453 115Q524 115 569.50 163Q615 211 637 307.50Q659 404 659 550Q659 693 637 789.50Q615 886 569.50 934.50Q524 983 452 983Q342 983 293 874.50Q244 766 244 550M151 1243Q156 1291 167 1335Q178 1379 197.50 1412.50Q217 1446 247 1465.50Q277 1485 318 1485Q356 1485 390 1467Q424 1449 456 1425.50Q488 1402 518 1384Q548 1366 577 1366Q609 1366 625.50 1399Q642 1432 651 1487L749 1487Q742 1369 697 1307Q652 1245 584 1245Q547 1245 511 1263Q475 1281 442.50 1305Q410 1329 381 1347Q352 1365 327 1365Q299 1365 277.50 1333Q256 1301 247 1243L151 1243Z"  horiz-adv-x="902" vert-adv-y="2048"  />

      
      <glyph glyph-name="unif6" unicode="&#xf6;" d="M815 550Q815 420 793 315Q771 210 726 135Q681 60 612 20Q543-20 449-20Q359-20 291 20Q223 60 178 134.50Q133 209 110 314.50Q87 420 87 550Q87 732 126 858.50Q165 985 246 1051.50Q327 1118 452 1118Q569 1118 650 1053.50Q731 989 773 862.50Q815 736 815 550M244 550Q244 407 266 310Q288 213 334.50 164Q381 115 453 115Q524 115 569.50 163Q615 211 637 307.50Q659 404 659 550Q659 693 637 789.50Q615 886 569.50 934.50Q524 983 452 983Q342 983 293 874.50Q244 766 244 550M201 1367Q201 1417 225 1441Q249 1465 285 1465Q320 1465 343.50 1440.50Q367 1416 367 1367Q367 1316 343.50 1290.50Q320 1265 285 1265Q249 1265 225 1290.50Q201 1316 201 1367M529 1367Q529 1417 553.50 1441Q578 1465 613 1465Q649 1465 673.50 1440.50Q698 1416 698 1367Q698 1316 673.50 1290.50Q649 1265 613 1265Q576 1265 552.50 1290.50Q529 1316 529 1367Z"  horiz-adv-x="902" vert-adv-y="2048"  />

      
      <glyph glyph-name="unif7" unicode="&#xf7;" d="M61 658L61 788L809 788L809 658L61 658M438 235Q390 235 365 266Q340 297 340 356Q340 416 364.50 446.50Q389 477 438 477Q486 477 510 446.50Q534 416 534 356Q534 295 508 265Q482 235 438 235M438 967Q390 967 365 997.50Q340 1028 340 1087Q340 1146 364.50 1177Q389 1208 438 1208Q486 1208 510 1177Q534 1146 534 1087Q534 1026 508 996.50Q482 967 438 967Z"  horiz-adv-x="874" vert-adv-y="2048"  />

      
      <glyph glyph-name="unif8" unicode="&#xf8;" d="M819 550Q819 367 776.50 239.50Q734 112 652.50 46Q571-20 453-20Q398-20 350.50-3.50Q303 13 266 45L176-138L82-92L191 125Q140 202 115.50 308Q91 414 91 550Q91 831 184 974.50Q277 1118 457 1118Q514 1118 561.50 1100Q609 1082 649 1044L728 1200L822 1154L727 962Q774 887 796.50 783.50Q819 680 819 550M245 550Q245 466 253 399Q261 332 276 285L593 917Q568 952 534 969.50Q500 987 457 987Q345 987 295 877.50Q245 768 245 550M670 550Q670 628 662 690.50Q654 753 642 799L328 171Q352 140 384.50 124.50Q417 109 455 109Q529 109 576.50 158Q624 207 647 305Q670 403 670 550Z"  horiz-adv-x="909" vert-adv-y="2048"  />

      
      <glyph glyph-name="unif9" unicode="&#xf9;" d="M789 1098L789 0L666 0L649 156L638 156Q616 102 580.50 62.50Q545 23 499 1.50Q453-20 396-20Q300-20 241.50 28Q183 76 156.50 165Q130 254 130 377L130 1098L284 1098L284 406Q284 258 318.50 188Q353 118 424 118Q501 118 547 160.50Q593 203 614 289.50Q635 376 635 509L635 1098L789 1098M402 1568Q425 1520 457.50 1464Q490 1408 525 1355.50Q560 1303 590 1264L590 1241L491 1241Q460 1268 421.50 1306.50Q383 1345 344 1388.50Q305 1432 272 1474Q239 1516 218 1550L218 1568L402 1568Z"  horiz-adv-x="923" vert-adv-y="2048"  />

      
      <glyph glyph-name="unifa" unicode="&#xfa;" d="M789 1098L789 0L666 0L649 156L638 156Q616 102 580.50 62.50Q545 23 499 1.50Q453-20 396-20Q300-20 241.50 28Q183 76 156.50 165Q130 254 130 377L130 1098L284 1098L284 406Q284 258 318.50 188Q353 118 424 118Q501 118 547 160.50Q593 203 614 289.50Q635 376 635 509L635 1098L789 1098M733 1568L733 1550Q713 1517 680 1475.50Q647 1434 608 1390.50Q569 1347 530 1308Q491 1269 460 1241L362 1241L362 1264Q402 1319 436 1371Q470 1423 498 1472.50Q526 1522 549 1568L733 1568Z"  horiz-adv-x="923" vert-adv-y="2048"  />

      
      <glyph glyph-name="unifb" unicode="&#xfb;" d="M789 1098L789 0L666 0L649 156L638 156Q616 102 580.50 62.50Q545 23 499 1.50Q453-20 396-20Q300-20 241.50 28Q183 76 156.50 165Q130 254 130 377L130 1098L284 1098L284 406Q284 258 318.50 188Q353 118 424 118Q501 118 547 160.50Q593 203 614 289.50Q635 376 635 509L635 1098L789 1098M536 1568Q558 1522 590.50 1467Q623 1412 658.50 1358Q694 1304 725 1261L725 1241L640 1241Q597 1282 553 1334Q509 1386 463 1441Q417 1387 370.50 1332.50Q324 1278 287 1241L201 1241L201 1261Q237 1309 272 1363.50Q307 1418 337.50 1471Q368 1524 388 1568L536 1568Z"  horiz-adv-x="923" vert-adv-y="2048"  />

      
      <glyph glyph-name="unifc" unicode="&#xfc;" d="M789 1098L789 0L666 0L649 156L638 156Q616 102 580.50 62.50Q545 23 499 1.50Q453-20 396-20Q300-20 241.50 28Q183 76 156.50 165Q130 254 130 377L130 1098L284 1098L284 406Q284 258 318.50 188Q353 118 424 118Q501 118 547 160.50Q593 203 614 289.50Q635 376 635 509L635 1098L789 1098M214 1367Q214 1417 238 1441Q262 1465 298 1465Q333 1465 356.50 1440.50Q380 1416 380 1367Q380 1316 356.50 1290.50Q333 1265 298 1265Q262 1265 238 1290.50Q214 1316 214 1367M542 1367Q542 1417 566.50 1441Q591 1465 626 1465Q662 1465 686.50 1440.50Q711 1416 711 1367Q711 1316 686.50 1290.50Q662 1265 626 1265Q589 1265 565.50 1290.50Q542 1316 542 1367Z"  horiz-adv-x="923" vert-adv-y="2048"  />

      
      <glyph glyph-name="unifd" unicode="&#xfd;" d="M12 1098L171 1098L326 456Q335 414 343.50 374Q352 334 359.50 294.50Q367 255 372 215L380 215Q388 273 400 332.50Q412 392 428 457L579 1098L737 1098L411-176Q382-286 343-356Q304-426 251.50-459Q199-492 127-492Q103-492 79-487Q55-482 28-475L28-338Q47-345 67.50-349Q88-353 107-353Q145-353 172-333.50Q199-314 220-269Q241-224 261-146L300 8L12 1098M642 1568L642 1550Q622 1517 589 1475.50Q556 1434 517 1390.50Q478 1347 439 1308Q400 1269 369 1241L271 1241L271 1264Q311 1319 345 1371Q379 1423 407 1472.50Q435 1522 458 1568L642 1568Z"  horiz-adv-x="746" vert-adv-y="2048"  />

      
      <glyph glyph-name="unife" unicode="&#xfe;" d="M852 551Q852 368 815.50 240.50Q779 113 709 46.50Q639-20 539-20Q483-20 434.50 1.50Q386 23 349 62.50Q312 102 288 155L281 155Q283 128 285 102.50Q287 77 288.50 53.50Q290 30 290 8L290-490L134-490L134 1556L288 1556L288 1109Q288 1066 286.50 1023.50Q285 981 281 937L287 937Q315 998 351.50 1038Q388 1078 433 1098Q478 1118 531 1118Q689 1118 770.50 973.50Q852 829 852 551M695 549Q695 773 648.50 878Q602 983 498 983Q393 983 340.50 886Q288 789 288 586L288 533Q288 318 341 216.50Q394 115 500 115Q575 115 617.50 172Q660 229 677.50 327.50Q695 426 695 549Z"  horiz-adv-x="937" vert-adv-y="2048"  />

      
      <glyph glyph-name="uniff" unicode="&#xff;" d="M12 1098L171 1098L326 456Q335 414 343.50 374Q352 334 359.50 294.50Q367 255 372 215L380 215Q388 273 400 332.50Q412 392 428 457L579 1098L737 1098L411-176Q382-286 343-356Q304-426 251.50-459Q199-492 127-492Q103-492 79-487Q55-482 28-475L28-338Q47-345 67.50-349Q88-353 107-353Q145-353 172-333.50Q199-314 220-269Q241-224 261-146L300 8L12 1098M124 1367Q124 1417 148 1441Q172 1465 208 1465Q243 1465 266.50 1440.50Q290 1416 290 1367Q290 1316 266.50 1290.50Q243 1265 208 1265Q172 1265 148 1290.50Q124 1316 124 1367M452 1367Q452 1417 476.50 1441Q501 1465 536 1465Q572 1465 596.50 1440.50Q621 1416 621 1367Q621 1316 596.50 1290.50Q572 1265 536 1265Q499 1265 475.50 1290.50Q452 1316 452 1367Z"  horiz-adv-x="746" vert-adv-y="2048"  />

      
      <glyph glyph-name="uni0100" unicode="&#x0100;" d="M737 0L627 470L280 470L170 0L0 0L353 1462L546 1462L906 0L737 0M597 617L485 1113Q478 1150 471.50 1185.50Q465 1221 459.50 1254.50Q454 1288 449 1320Q446 1288 441 1254Q436 1220 429 1185.50Q422 1151 414 1115L305 617L597 617M696 1740L696 1622L207 1622L207 1740L696 1740Z"  horiz-adv-x="906" vert-adv-y="2048"  />

      
      <glyph glyph-name="uni0101" unicode="&#x0101;" d="M428 1118Q580 1118 645 1021Q710 924 710 740L710 0L593 0L570 156L566 156Q540 100 504 60.50Q468 21 422 0.50Q376-20 316-20Q231-20 177 25Q123 70 97 143.50Q71 217 71 302Q71 465 165 555Q259 645 432 653L557 661L557 736Q557 868 521 929Q485 990 405 990Q359 990 308.50 974Q258 958 199 923L150 1039Q212 1079 282.50 1098.50Q353 1118 428 1118M559 548L457 541Q341 534 284.50 475.50Q228 417 228 306Q228 203 265 154Q302 105 367 105Q458 105 508.50 193Q559 281 559 436L559 548M677 1376L677 1258L188 1258L188 1376L677 1376Z"  horiz-adv-x="841" vert-adv-y="2048"  />

      
      <glyph glyph-name="uni0102" unicode="&#x0102;" d="M737 0L627 470L280 470L170 0L0 0L353 1462L546 1462L906 0L737 0M597 617L485 1113Q478 1150 471.50 1185.50Q465 1221 459.50 1254.50Q454 1288 449 1320Q446 1288 441 1254Q436 1220 429 1185.50Q422 1151 414 1115L305 617L597 617M694 1876Q693 1793 661.50 1733Q630 1673 574.50 1640.50Q519 1608 445 1608Q336 1608 272.50 1675Q209 1742 204 1876L305 1876Q310 1827 327.50 1793.50Q345 1760 376 1743Q407 1726 449 1726Q491 1726 521.50 1742.50Q552 1759 570.50 1792.50Q589 1826 593 1876L694 1876Z"  horiz-adv-x="906" vert-adv-y="2048"  />

      
      <glyph glyph-name="uni0103" unicode="&#x0103;" d="M428 1118Q580 1118 645 1021Q710 924 710 740L710 0L593 0L570 156L566 156Q540 100 504 60.50Q468 21 422 0.50Q376-20 316-20Q231-20 177 25Q123 70 97 143.50Q71 217 71 302Q71 465 165 555Q259 645 432 653L557 661L557 736Q557 868 521 929Q485 990 405 990Q359 990 308.50 974Q258 958 199 923L150 1039Q212 1079 282.50 1098.50Q353 1118 428 1118M559 548L457 541Q341 534 284.50 475.50Q228 417 228 306Q228 203 265 154Q302 105 367 105Q458 105 508.50 193Q559 281 559 436L559 548M674 1512Q673 1429 641.50 1369Q610 1309 554.50 1276.50Q499 1244 425 1244Q316 1244 252.50 1311Q189 1378 184 1512L285 1512Q290 1463 307.50 1429.50Q325 1396 356 1379Q387 1362 429 1362Q471 1362 501.50 1378.50Q532 1395 550.50 1428.50Q569 1462 573 1512L674 1512Z"  horiz-adv-x="841" vert-adv-y="2048"  />

      
      <glyph glyph-name="uni0104" unicode="&#x0104;" d="M737 0L627 470L280 470L170 0L0 0L353 1462L546 1462L906 0L737 0M597 617L485 1113Q478 1150 471.50 1185.50Q465 1221 459.50 1254.50Q454 1288 449 1320Q446 1288 441 1254Q436 1220 429 1185.50Q422 1151 414 1115L305 617L597 617M726-244Q726-294 750-320Q774-346 818-346Q841-346 856.50-342Q872-338 883-334L883-441Q866-448 842-452.50Q818-457 789-457Q694-457 646-409Q598-361 598-270Q598-218 617.50-166.50Q637-115 674.50-66.50Q712-18 764 24L853 0Q783-70 754.50-127Q726-184 726-244Z"  horiz-adv-x="906" vert-adv-y="2048"  />

      
      <glyph glyph-name="uni0105" unicode="&#x0105;" d="M428 1118Q580 1118 645 1021Q710 924 710 740L710 0L593 0L570 156L566 156Q540 100 504 60.50Q468 21 422 0.50Q376-20 316-20Q231-20 177 25Q123 70 97 143.50Q71 217 71 302Q71 465 165 555Q259 645 432 653L557 661L557 736Q557 868 521 929Q485 990 405 990Q359 990 308.50 974Q258 958 199 923L150 1039Q212 1079 282.50 1098.50Q353 1118 428 1118M559 548L457 541Q341 534 284.50 475.50Q228 417 228 306Q228 203 265 154Q302 105 367 105Q458 105 508.50 193Q559 281 559 436L559 548M571-244Q571-294 595-320Q619-346 663-346Q686-346 701.50-342Q717-338 728-334L728-441Q711-448 687-452.50Q663-457 634-457Q539-457 491-409Q443-361 443-270Q443-218 462.50-166.50Q482-115 519.50-66.50Q557-18 609 24L698 0Q628-70 599.50-127Q571-184 571-244Z"  horiz-adv-x="841" vert-adv-y="2048"  />

      
      <glyph glyph-name="uni0106" unicode="&#x0106;" d="M596 1340Q509 1340 446.50 1291Q384 1242 344.50 1156.50Q305 1071 286.50 961.50Q268 852 268 731Q268 543 309.50 407Q351 271 427 197.50Q503 124 606 124Q668 124 723 140Q778 156 824 179L824 35Q776 7 717-6.50Q658-20 588-20Q439-20 330 70Q221 160 162 328.50Q103 497 103 733Q103 888 132.50 1024Q162 1160 222.50 1264Q283 1368 375 1426.50Q467 1485 591 1485Q663 1485 729.50 1466.50Q796 1448 857 1413L800 1278Q754 1307 703 1323.50Q652 1340 596 1340M837 1932L837 1914Q817 1881 784 1839.50Q751 1798 712 1754.50Q673 1711 634 1672Q595 1633 564 1605L466 1605L466 1628Q506 1683 540 1735Q574 1787 602 1836.50Q630 1886 653 1932L837 1932Z"  horiz-adv-x="906" vert-adv-y="2048"  />

      
      <glyph glyph-name="uni0107" unicode="&#x0107;" d="M451-20Q330-20 249.50 43Q169 106 129 231Q89 356 89 541Q89 722 129.50 851Q170 980 252 1049Q334 1118 457 1118Q519 1118 568.50 1105Q618 1092 661 1068L612 941Q575 961 538.50 971Q502 981 467 981Q395 981 346 931.50Q297 882 271.50 785Q246 688 246 543Q246 402 270.50 307Q295 212 344.50 163.50Q394 115 468 115Q512 115 557.50 127.50Q603 140 649 164L649 34Q607 8 551.50-6Q496-20 451-20M692 1568L692 1550Q672 1517 639 1475.50Q606 1434 567 1390.50Q528 1347 489 1308Q450 1269 419 1241L321 1241L321 1264Q361 1319 395 1371Q429 1423 457 1472.50Q485 1522 508 1568L692 1568Z"  horiz-adv-x="703" vert-adv-y="2048"  />

      
      <glyph glyph-name="uni0108" unicode="&#x0108;" d="M596 1340Q509 1340 446.50 1291Q384 1242 344.50 1156.50Q305 1071 286.50 961.50Q268 852 268 731Q268 543 309.50 407Q351 271 427 197.50Q503 124 606 124Q668 124 723 140Q778 156 824 179L824 35Q776 7 717-6.50Q658-20 588-20Q439-20 330 70Q221 160 162 328.50Q103 497 103 733Q103 888 132.50 1024Q162 1160 222.50 1264Q283 1368 375 1426.50Q467 1485 591 1485Q663 1485 729.50 1466.50Q796 1448 857 1413L800 1278Q754 1307 703 1323.50Q652 1340 596 1340M638 1932Q660 1886 692.50 1831Q725 1776 760.50 1722Q796 1668 827 1625L827 1605L742 1605Q699 1646 655 1698Q611 1750 565 1805Q519 1751 472.50 1696.50Q426 1642 389 1605L303 1605L303 1625Q339 1673 374 1727.50Q409 1782 439.50 1835Q470 1888 490 1932L638 1932Z"  horiz-adv-x="906" vert-adv-y="2048"  />

      
      <glyph glyph-name="uni0109" unicode="&#x0109;" d="M451-20Q330-20 249.50 43Q169 106 129 231Q89 356 89 541Q89 722 129.50 851Q170 980 252 1049Q334 1118 457 1118Q519 1118 568.50 1105Q618 1092 661 1068L612 941Q575 961 538.50 971Q502 981 467 981Q395 981 346 931.50Q297 882 271.50 785Q246 688 246 543Q246 402 270.50 307Q295 212 344.50 163.50Q394 115 468 115Q512 115 557.50 127.50Q603 140 649 164L649 34Q607 8 551.50-6Q496-20 451-20M496 1568Q518 1522 550.50 1467Q583 1412 618.50 1358Q654 1304 685 1261L685 1241L600 1241Q557 1282 513 1334Q469 1386 423 1441Q377 1387 330.50 1332.50Q284 1278 247 1241L161 1241L161 1261Q197 1309 232 1363.50Q267 1418 297.50 1471Q328 1524 348 1568L496 1568Z"  horiz-adv-x="703" vert-adv-y="2048"  />

      
      </font>
</defs>
</svg>
