<?xml version="1.0" standalone="no"?>
  <!DOCTYPE svg PUBLIC "-//W3C//DTD SVG 1.1//EN" "http://www.w3.org/Graphics/SVG/1.1/DTD/svg11.dtd" >
  <svg>
  <metadata>
  Created by font-carrier
  </metadata>
  <defs>
  <font id="OpenSansCondensed-Bold" horiz-adv-x="2249" vert-adv-y="2249" >
    <font-face
      
      font-family="Open Sans Condensed"
      
      font-weight="400"
      
      font-stretch="normal"
      
      units-per-em="2048"
      
      ascent="2189"
      
      descent="-600"
      
    />
      <missing-glyph />

      

      
      <glyph glyph-name="uni21" unicode="&#x21;" d="M375 475L152 475L106 1462L418 1462L375 475M104 145Q104 227 144.50 270Q185 313 264 313Q338 313 379 270.50Q420 228 420 145Q420 64 377.50 20.50Q335-23 264-23Q189-23 146.50 20.50Q104 64 104 145Z"  horiz-adv-x="526" vert-adv-y="2048"  />

      
      <glyph glyph-name="uni22" unicode="&#x22;" d="M387 1462L348 934L133 934L94 1462L387 1462M813 1462L774 934L559 934L520 1462L813 1462Z"  horiz-adv-x="907" vert-adv-y="2048"  />

      
      <glyph glyph-name="uni23" unicode="&#x23;" d="M819 866L784 606L969 606L969 412L760 412L705 0L506 0L563 412L406 412L352 0L158 0L211 412L41 412L41 606L238 606L272 866L88 866L88 1065L299 1065L354 1462L549 1462L494 1065L651 1065L705 1462L899 1462L844 1065L1018 1065L1018 866L819 866M434 606L590 606L625 866L469 866L434 606Z"  horiz-adv-x="1049" vert-adv-y="2048"  />

      
      <glyph glyph-name="uni24" unicode="&#x24;" d="M422-119L422 84Q337 87 252 107.50Q167 128 96 162L96 406Q164 361 251.50 326.50Q339 292 422 289L422 655Q309 700 234.50 753.50Q160 807 124 878.50Q88 950 88 1047Q88 1151 130.50 1226Q173 1301 248.50 1346Q324 1391 422 1403L422 1554L551 1554L551 1405Q626 1401 702 1379Q778 1357 848 1319L786 1116Q731 1147 671 1165.50Q611 1184 551 1190L551 840Q662 797 733.50 747.50Q805 698 839.50 631Q874 564 874 469Q874 323 790 221Q706 119 551 90L551-119L422-119M551 305Q608 322 635 361Q662 400 662 451Q662 486 649.50 512.50Q637 539 612.50 560.50Q588 582 551 600L551 305M422 895L422 1188Q381 1180 355.50 1160Q330 1140 318.50 1110Q307 1080 307 1042Q307 1008 318.50 982.50Q330 957 355.50 936.50Q381 916 422 895Z"  horiz-adv-x="961" vert-adv-y="2048"  />

      
      <glyph glyph-name="uni25" unicode="&#x25;" d="M350 1483Q485 1483 564 1361.50Q643 1240 643 1026Q643 806 566.50 685.50Q490 565 350 565Q215 565 138 688.50Q61 812 61 1026Q61 1246 136.50 1364.50Q212 1483 350 1483M352 1294Q311 1294 290.50 1227.50Q270 1161 270 1024Q270 885 290.50 818.50Q311 752 354 752Q396 752 415 817.50Q434 883 434 1024Q434 1162 414 1228Q394 1294 352 1294M1171 1462L606 0L403 0L969 1462L1171 1462M1225 899Q1360 899 1439 777.50Q1518 656 1518 442Q1518 223 1441.50 102.50Q1365-18 1225-18Q1088-18 1012 106.50Q936 231 936 442Q936 665 1011 782Q1086 899 1225 899M1225 713Q1183 713 1164 645Q1145 577 1145 440Q1145 302 1164.50 236Q1184 170 1227 170Q1271 170 1289 241.50Q1307 313 1307 440Q1307 568 1288 640.50Q1269 713 1225 713Z"  horiz-adv-x="1579" vert-adv-y="2048"  />

      
      <glyph glyph-name="uni26" unicode="&#x26;" d="M508 1481Q614 1481 687 1441Q760 1401 798 1327Q836 1253 836 1149Q836 1034 782.50 941Q729 848 631 770L795 528Q816 575 830.50 636Q845 697 854 772L1135 772Q1119 652 1078.50 526.50Q1038 401 973 295L1192 0L854 0L782 111Q733 69 679.50 40Q626 11 564-4.50Q502-20 426-20Q301-20 217.50 31.50Q134 83 92.50 175.50Q51 268 51 391Q51 479 77 552.50Q103 626 156 688Q209 750 291 801Q250 858 223 912Q196 966 183 1024.50Q170 1083 170 1151Q170 1251 212 1325Q254 1399 330 1440Q406 1481 508 1481M418 633Q385 603 365 569.50Q345 536 335.50 496.50Q326 457 326 408Q326 328 364 273.50Q402 219 469 219Q522 219 561 242Q600 265 637 309L418 633M506 1282Q469 1282 445.50 1249.50Q422 1217 422 1151Q422 1102 441.50 1045Q461 988 498 938Q545 979 567.50 1037.50Q590 1096 590 1159Q590 1221 567 1251.50Q544 1282 506 1282Z"  horiz-adv-x="1184" vert-adv-y="2048"  />

      
      <glyph glyph-name="uni27" unicode="&#x27;" d="M387 1462L348 934L133 934L94 1462L387 1462Z"  horiz-adv-x="481" vert-adv-y="2048"  />

      
      <glyph glyph-name="uni28" unicode="&#x28;" d="M92 575Q92 761 127 926Q162 1091 225 1233.50Q288 1376 371 1491L614 1491Q481 1292 415.50 1064Q350 836 350 578Q350 411 380.50 256.50Q411 102 469.50-42Q528-186 612-324L371-324Q285-206 222.50-67.50Q160 71 126 231.50Q92 392 92 575Z"  horiz-adv-x="639" vert-adv-y="2048"  />

      
      <glyph glyph-name="uni29" unicode="&#x29;" d="M549 575Q549 393 514.50 232Q480 71 416.50-68Q353-207 266-324L27-324Q111-185 169.50-41Q228 103 258.50 257Q289 411 289 578Q289 751 260 909.50Q231 1068 173 1213Q115 1358 27 1491L266 1491Q351 1376 414.50 1233.50Q478 1091 513.50 925.50Q549 760 549 575Z"  horiz-adv-x="639" vert-adv-y="2048"  />

      
      <glyph glyph-name="uni2a" unicode="&#x2a;" d="M582 1561L545 1270L809 1366L866 1130L598 1100L797 874L592 735L455 997L315 733L113 874L309 1100L43 1128L98 1366L365 1270L330 1561L582 1561Z"  horiz-adv-x="911" vert-adv-y="2048"  />

      
      <glyph glyph-name="uni2b" unicode="&#x2b;" d="M596 831L901 831L901 614L596 614L596 233L375 233L375 614L68 614L68 831L375 831L375 1217L596 1217L596 831Z"  horiz-adv-x="969" vert-adv-y="2048"  />

      
      <glyph glyph-name="uni2c" unicode="&#x2c;" d="M414 272L426 250Q409 148 387.50 55.50Q366-37 341-120.50Q316-204 285-279L68-279Q85-199 102-99Q119 1 132 99.50Q145 198 150 272L414 272Z"  horiz-adv-x="522" vert-adv-y="2048"  />

      
      <glyph glyph-name="uni2d" unicode="&#x2d;" d="M57 422L57 678L567 678L567 422L57 422Z"  horiz-adv-x="625" vert-adv-y="2048"  />

      
      <glyph glyph-name="uni2e" unicode="&#x2e;" d="M104 145Q104 227 145 270Q186 313 264 313Q338 313 379 270.50Q420 228 420 145Q420 64 378 20.50Q336-23 264-23Q191-23 147.50 20.50Q104 64 104 145Z"  horiz-adv-x="522" vert-adv-y="2048"  />

      
      <glyph glyph-name="uni2f" unicode="&#x2f;" d="M813 1477L256-14L18-14L578 1477L813 1477Z"  horiz-adv-x="827" vert-adv-y="2048"  />

      
      <glyph glyph-name="uni30" unicode="&#x30;" d="M883 731Q883 565 863.50 427.50Q844 290 798 189.50Q752 89 674 34.50Q596-20 479-20Q347-20 257.50 57Q168 134 122 299.50Q76 465 76 731Q76 988 120 1154.50Q164 1321 253.50 1402Q343 1483 479 1483Q614 1483 703.50 1399Q793 1315 838 1148Q883 981 883 731M352 731Q352 557 363.50 444.50Q375 332 402.50 277.50Q430 223 479 223Q529 223 556.50 277.50Q584 332 595 444.50Q606 557 606 731Q606 900 595 1013Q584 1126 556.50 1182.50Q529 1239 479 1239Q431 1239 403 1183Q375 1127 363.50 1014Q352 901 352 731Z"  horiz-adv-x="961" vert-adv-y="2048"  />

      
      <glyph glyph-name="uni31" unicode="&#x31;" d="M733 0L459 0L459 854Q459 900 459.50 944.50Q460 989 461.50 1032.50Q463 1076 465 1118Q451 1099 432 1075Q413 1051 387 1022L260 891L96 1053L489 1462L733 1462L733 0Z"  horiz-adv-x="961" vert-adv-y="2048"  />

      
      <glyph glyph-name="uni32" unicode="&#x32;" d="M856 0L59 0L59 199L340 590Q430 715 477 797.50Q524 880 540.50 943.50Q557 1007 557 1073Q557 1150 520.50 1195.50Q484 1241 412 1241Q355 1241 304 1211Q253 1181 190 1104L55 1286Q116 1358 175.50 1401.50Q235 1445 301 1464Q367 1483 444 1483Q560 1483 648 1433.50Q736 1384 785 1296Q834 1208 834 1090Q834 993 811 905.50Q788 818 733 723Q678 628 582 508L387 252L387 242L856 242L856 0Z"  horiz-adv-x="961" vert-adv-y="2048"  />

      
      <glyph glyph-name="uni33" unicode="&#x33;" d="M842 1112Q842 1033 814 966Q786 899 730.50 848.50Q675 798 594 768L594 762Q731 733 800.50 644Q870 555 870 412Q870 280 814.50 183Q759 86 655 33Q551-20 406-20Q311-20 233-5.50Q155 9 68 49L68 307Q143 263 219 240Q295 217 365 217Q477 217 529.50 271.50Q582 326 582 424Q582 497 553.50 543.50Q525 590 465 612.50Q405 635 309 635L236 635L236 866L311 866Q396 866 454 891.50Q512 917 541.50 965.50Q571 1014 571 1081Q571 1161 529.50 1203Q488 1245 408 1245Q368 1245 330 1234Q292 1223 254 1201.50Q216 1180 176 1147L68 1348Q158 1422 250.50 1452.50Q343 1483 461 1483Q637 1483 739.50 1387.50Q842 1292 842 1112Z"  horiz-adv-x="961" vert-adv-y="2048"  />

      
      <glyph glyph-name="uni34" unicode="&#x34;" d="M936 297L788 297L788 0L518 0L518 297L35 297L35 518L516 1466L788 1466L788 524L936 524L936 297M516 524L516 862Q516 877 516.50 909.50Q517 942 518 978.50Q519 1015 520 1044Q521 1073 522 1083L514 1083Q501 1039 485 1000Q469 961 451 926L258 524L516 524Z"  horiz-adv-x="961" vert-adv-y="2048"  />

      
      <glyph glyph-name="uni35" unicode="&#x35;" d="M516 936Q622 936 701.50 878.50Q781 821 825.50 718.50Q870 616 870 481Q870 324 818 211.50Q766 99 662 39.50Q558-20 401-20Q311-20 236.50-3Q162 14 100 49L100 305Q165 267 239.50 242Q314 217 383 217Q452 217 498 249Q544 281 567 338Q590 395 590 471Q590 584 536.50 643Q483 702 379 702Q339 702 296 693.50Q253 685 209 668L117 737L160 1462L795 1462L795 1219L391 1219L371 918Q415 929 451 932.50Q487 936 516 936Z"  horiz-adv-x="961" vert-adv-y="2048"  />

      
      <glyph glyph-name="uni36" unicode="&#x36;" d="M76 621Q76 765 92.50 894.50Q109 1024 147 1131.50Q185 1239 249 1318Q313 1397 407 1440Q501 1483 631 1483Q680 1483 727.50 1478.50Q775 1474 819 1464L819 1229Q781 1238 739.50 1243.50Q698 1249 653 1249Q551 1249 482 1199.50Q413 1150 376 1048Q339 946 334 788L342 788Q365 843 398 880Q431 917 474.50 936.50Q518 956 571 956Q674 956 745 897Q816 838 853.50 732.50Q891 627 891 485Q891 335 845 221Q799 107 711 43.50Q623-20 496-20Q397-20 319 23Q241 66 186.50 148.50Q132 231 104 350Q76 469 76 621M489 219Q548 219 582 283Q616 347 616 479Q616 599 585 660Q554 721 492 721Q449 721 418 693.50Q387 666 370.50 620Q354 574 354 518Q354 462 362 409Q370 356 387 313Q404 270 429.50 244.50Q455 219 489 219Z"  horiz-adv-x="961" vert-adv-y="2048"  />

      
      <glyph glyph-name="uni37" unicode="&#x37;" d="M178 0L606 1219L70 1219L70 1462L887 1462L887 1272L469 0L178 0Z"  horiz-adv-x="961" vert-adv-y="2048"  />

      
      <glyph glyph-name="uni38" unicode="&#x38;" d="M481 1483Q602 1483 686.50 1441Q771 1399 815.50 1321Q860 1243 860 1133Q860 1054 837.50 987.50Q815 921 768.50 866.50Q722 812 649 768Q733 710 787.50 651Q842 592 868.50 526Q895 460 895 381Q895 257 845 167Q795 77 702 28.50Q609-20 481-20Q347-20 253.50 27Q160 74 111.50 162.50Q63 251 63 375Q63 456 87 525.50Q111 595 161.50 654.50Q212 714 291 764Q226 816 183.50 874Q141 932 120.50 996.50Q100 1061 100 1133Q100 1243 146.50 1321Q193 1399 278.50 1441Q364 1483 481 1483M328 379Q328 299 366 250Q404 201 477 201Q556 201 594.50 248.50Q633 296 633 379Q633 418 621 455.50Q609 493 580 530.50Q551 568 500 608L471 631Q419 593 387.50 554.50Q356 516 342 473Q328 430 328 379M481 1262Q428 1262 395 1221.50Q362 1181 362 1112Q362 1069 375 1033Q388 997 414 965Q440 933 479 903Q525 937 552 969.50Q579 1002 590.50 1036.50Q602 1071 602 1112Q602 1181 568.50 1221.50Q535 1262 481 1262Z"  horiz-adv-x="961" vert-adv-y="2048"  />

      
      <glyph glyph-name="uni39" unicode="&#x39;" d="M883 850Q883 701 864.50 569Q846 437 806 329Q766 221 701 143Q636 65 543 22.50Q450-20 326-20Q278-20 228.50-14.50Q179-9 137 0L137 236Q174 225 216.50 219Q259 213 303 213Q413 213 482.50 269.50Q552 326 587 429.50Q622 533 627 674L616 674Q593 620 559.50 582.50Q526 545 483 525.50Q440 506 387 506Q283 506 211.50 565Q140 624 104 730.50Q68 837 68 977Q68 1128 114 1241.50Q160 1355 249 1419Q338 1483 467 1483Q565 1483 642.50 1440.50Q720 1398 773.50 1316Q827 1234 855 1117Q883 1000 883 850M469 1243Q412 1243 376 1179Q340 1115 340 983Q340 863 372 802Q404 741 467 741Q516 741 546 774Q576 807 590 855.50Q604 904 604 950Q604 985 599 1034.50Q594 1084 580 1131.50Q566 1179 539.50 1211Q513 1243 469 1243Z"  horiz-adv-x="961" vert-adv-y="2048"  />

      
      <glyph glyph-name="uni3a" unicode="&#x3a;" d="M109 145Q109 227 149.50 270Q190 313 268 313Q342 313 382 270.50Q422 228 422 145Q422 64 380.50 20.50Q339-23 268-23Q193-23 151 20.50Q109 64 109 145M109 963Q109 1044 149.50 1088.50Q190 1133 268 1133Q344 1133 383 1088.50Q422 1044 422 963Q422 881 380.50 838Q339 795 268 795Q193 795 151 839Q109 883 109 963Z"  horiz-adv-x="532" vert-adv-y="2048"  />

      
      <glyph glyph-name="uni3b" unicode="&#x3b;" d="M414 272L426 250Q409 148 387.50 55.50Q366-37 340.50-120.50Q315-204 285-279L66-279Q84-197 100.50-98Q117 1 129 98.50Q141 196 147 272L414 272M109 963Q109 1044 149.50 1088.50Q190 1133 268 1133Q344 1133 383 1088.50Q422 1044 422 963Q422 881 380.50 838Q339 795 268 795Q193 795 151 839Q109 883 109 963Z"  horiz-adv-x="532" vert-adv-y="2048"  />

      
      <glyph glyph-name="uni3c" unicode="&#x3c;" d="M901 246L59 664L59 807L901 1223L901 979L371 735L901 487L901 246Z"  horiz-adv-x="969" vert-adv-y="2048"  />

      
      <glyph glyph-name="uni3d" unicode="&#x3d;" d="M68 838L68 1055L901 1055L901 838L68 838M68 387L68 606L901 606L901 387L68 387Z"  horiz-adv-x="969" vert-adv-y="2048"  />

      
      <glyph glyph-name="uni3e" unicode="&#x3e;" d="M66 487L596 735L66 979L66 1223L907 807L907 664L66 246L66 487Z"  horiz-adv-x="969" vert-adv-y="2048"  />

      
      <glyph glyph-name="uni3f" unicode="&#x3f;" d="M213 475L213 551Q213 619 225.50 671Q238 723 266 769Q294 815 340 864Q384 911 410.50 948.50Q437 986 449 1023Q461 1060 461 1106Q461 1174 428 1208.50Q395 1243 330 1243Q275 1243 219 1219Q163 1195 100 1151L10 1360Q95 1422 180 1452.50Q265 1483 352 1483Q534 1483 628.50 1389Q723 1295 723 1130Q723 1042 702.50 976.50Q682 911 642 855Q602 799 541 737Q494 689 471 656Q448 623 441 592.50Q434 562 434 522L434 475L213 475M166 145Q166 227 206.50 270Q247 313 326 313Q400 313 440.50 270.50Q481 228 481 145Q481 64 439.50 20.50Q398-23 326-23Q252-23 209 20.50Q166 64 166 145Z"  horiz-adv-x="756" vert-adv-y="2048"  />

      
      <glyph glyph-name="uni40" unicode="&#x40;" d="M1399 750Q1399 633 1377 538Q1355 443 1315.50 374.50Q1276 306 1221 269.50Q1166 233 1100 233Q1018 233 969 274Q920 315 901 391L889 391Q854 310 805.50 271.50Q757 233 694 233Q565 233 494.50 336Q424 439 424 625Q424 769 467.50 876Q511 983 593 1041.50Q675 1100 788 1100Q848 1100 916 1085.50Q984 1071 1042 1047L1026 623Q1025 594 1023.50 563Q1022 532 1022 506Q1022 452 1040 425.50Q1058 399 1090 399Q1126 399 1151.50 434Q1177 469 1190.50 547Q1204 625 1204 754Q1205 918 1155 1044.50Q1105 1171 1007.50 1242.50Q910 1314 768 1313Q644 1313 552 1257.50Q460 1202 398.50 1105Q337 1008 306.50 881.50Q276 755 276 612Q276 431 328 294.50Q380 158 484.50 82Q589 6 748 6Q837 6 935 30Q1033 54 1118 94L1118-84Q1036-122 945-142Q854-162 750-162Q536-162 387-71Q238 20 160 191Q82 362 82 602Q82 803 131.50 965.50Q181 1128 272 1243Q363 1358 489 1419Q615 1480 768 1479Q961 1479 1102.50 1385.50Q1244 1292 1321.50 1127.50Q1399 963 1399 750M629 623Q629 508 653.50 453.50Q678 399 721 399Q768 399 792 470.50Q816 542 825 719L836 928Q822 933 809 934.50Q796 936 782 936Q735 936 700.50 899Q666 862 647.50 792Q629 722 629 623Z"  horiz-adv-x="1479" vert-adv-y="2048"  />

      
      <glyph glyph-name="uni41" unicode="&#x41;" d="M778 0L702 352L377 352L301 0L0 0L354 1462L717 1462L1077 0L778 0M659 596L580 983Q572 1031 564.50 1077Q557 1123 550.50 1165.50Q544 1208 539 1245Q536 1210 530 1168Q524 1126 516 1080Q508 1034 498 987L420 596L659 596Z"  horiz-adv-x="1077" vert-adv-y="2048"  />

      
      <glyph glyph-name="uni42" unicode="&#x42;" d="M131 1462L516 1462Q742 1462 854.50 1373.50Q967 1285 967 1102Q967 1016 943.50 948.50Q920 881 876 837Q832 793 770 776L770 766Q848 745 897.50 700Q947 655 970 586Q993 517 993 424Q993 294 941.50 199Q890 104 793 52Q696 0 561 0L131 0L131 1462M412 870L516 870Q601 870 642.50 919Q684 968 684 1063Q684 1146 641 1189.50Q598 1233 512 1233L412 1233L412 870M412 647L412 236L539 236Q623 236 665 288Q707 340 707 446Q707 511 686 555.50Q665 600 625.50 623.50Q586 647 528 647L412 647Z"  horiz-adv-x="1079" vert-adv-y="2048"  />

      
      <glyph glyph-name="uni43" unicode="&#x43;" d="M633 1241Q569 1241 521 1203Q473 1165 441.50 1095.50Q410 1026 394.50 932Q379 838 379 727Q379 564 410 451.50Q441 339 501 281Q561 223 647 223Q715 223 776 246Q837 269 897 301L897 51Q834 16 761.50-2Q689-20 606-20Q441-20 325.50 67.50Q210 155 149 322.50Q88 490 88 729Q88 893 122.50 1030.50Q157 1168 224 1269.50Q291 1371 388.50 1427Q486 1483 612 1483Q700 1483 782 1461Q864 1439 940 1393L860 1161Q806 1198 751 1219.50Q696 1241 633 1241Z"  horiz-adv-x="989" vert-adv-y="2048"  />

      
      <glyph glyph-name="uni44" unicode="&#x44;" d="M1057 758Q1057 513 989.50 344Q922 175 792.50 87.50Q663 0 475 0L131 0L131 1462L496 1462Q676 1462 801.50 1381Q927 1300 992 1143Q1057 986 1057 758M768 745Q768 909 737 1014Q706 1119 644.50 1169Q583 1219 492 1219L412 1219L412 246L473 246Q625 246 696.50 369Q768 492 768 745Z"  horiz-adv-x="1145" vert-adv-y="2048"  />

      
      <glyph glyph-name="uni45" unicode="&#x45;" d="M788 0L131 0L131 1462L788 1462L788 1223L412 1223L412 879L762 879L762 639L412 639L412 244L788 244L788 0Z"  horiz-adv-x="874" vert-adv-y="2048"  />

      
      <glyph glyph-name="uni46" unicode="&#x46;" d="M412 0L131 0L131 1462L784 1462L784 1223L412 1223L412 825L760 825L760 586L412 586L412 0Z"  horiz-adv-x="848" vert-adv-y="2048"  />

      
      <glyph glyph-name="uni47" unicode="&#x47;" d="M614 823L1071 823L1071 61Q967 20 857.50 0Q748-20 635-20Q454-20 332.50 72.50Q211 165 149.50 334Q88 503 88 735Q88 964 157.50 1131.50Q227 1299 361 1391Q495 1483 688 1483Q794 1483 886 1457.50Q978 1432 1051 1391L969 1159Q906 1199 838.50 1220Q771 1241 698 1241Q593 1241 522 1181.50Q451 1122 415 1007.50Q379 893 379 727Q379 574 408.50 460.50Q438 347 498.50 285Q559 223 653 223Q692 223 728.50 229Q765 235 797 246L797 586L614 586L614 823Z"  horiz-adv-x="1176" vert-adv-y="2048"  />

      
      <glyph glyph-name="uni48" unicode="&#x48;" d="M1055 0L774 0L774 639L412 639L412 0L131 0L131 1462L412 1462L412 883L774 883L774 1462L1055 1462L1055 0Z"  horiz-adv-x="1186" vert-adv-y="2048"  />

      
      <glyph glyph-name="uni49" unicode="&#x49;" d="M131 0L131 1462L412 1462L412 0L131 0Z"  horiz-adv-x="543" vert-adv-y="2048"  />

      
      <glyph glyph-name="uni4a" unicode="&#x4a;" d="M41-434Q0-434-40-429Q-80-424-115-412L-115-172Q-90-181-62-187Q-34-193-2-193Q48-193 77.50-169.50Q107-146 120-90Q133-34 133 63L133 1462L412 1462L412 68Q412-122 369-232Q326-342 243-388Q160-434 41-434Z"  horiz-adv-x="541" vert-adv-y="2048"  />

      
      <glyph glyph-name="uni4b" unicode="&#x4b;" d="M1061 0L750 0L502 596L412 514L412 0L131 0L131 1462L412 1462L412 788Q421 827 444.50 875.50Q468 924 500 985L756 1462L1057 1462L700 811L1061 0Z"  horiz-adv-x="1047" vert-adv-y="2048"  />

      
      <glyph glyph-name="uni4c" unicode="&#x4c;" d="M131 0L131 1462L412 1462L412 244L801 244L801 0L131 0Z"  horiz-adv-x="831" vert-adv-y="2048"  />

      
      <glyph glyph-name="uni4d" unicode="&#x4d;" d="M676 0L387 1079L379 1079Q384 1012 387 953Q390 894 391.50 844Q393 794 393 754L393 0L131 0L131 1462L518 1462L788 461L795 461L1065 1462L1450 1462L1450 0L1182 0L1182 756Q1182 801 1183.50 850.50Q1185 900 1187.50 956.50Q1190 1013 1194 1077L1186 1077L895 0L676 0Z"  horiz-adv-x="1581" vert-adv-y="2048"  />

      
      <glyph glyph-name="uni4e" unicode="&#x4e;" d="M1143 0L813 0L385 1020L377 1020Q383 949 386.50 886.50Q390 824 391.50 772Q393 720 393 678L393 0L131 0L131 1462L459 1462L885 465L893 465Q889 534 886 593.50Q883 653 881 704Q879 755 879 797L879 1462L1143 1462L1143 0Z"  horiz-adv-x="1274" vert-adv-y="2048"  />

      
      <glyph glyph-name="uni4f" unicode="&#x4f;" d="M1126 733Q1126 559 1094 419.50Q1062 280 998 182Q934 84 836.50 32Q739-20 608-20Q476-20 378 32.50Q280 85 216 184Q152 283 120 422Q88 561 88 735Q88 981 147 1148Q206 1315 322 1400Q438 1485 608 1485Q785 1485 899.50 1394Q1014 1303 1070 1134.50Q1126 966 1126 733M379 733Q379 565 405 452.50Q431 340 482 283.50Q533 227 608 227Q684 227 734.50 282Q785 337 810.50 449Q836 561 836 733Q836 990 779 1115.50Q722 1241 608 1241Q533 1241 482 1184Q431 1127 405 1014Q379 901 379 733Z"  horiz-adv-x="1214" vert-adv-y="2048"  />

      
      <glyph glyph-name="uni50" unicode="&#x50;" d="M502 1462Q725 1462 833.50 1346.50Q942 1231 942 1010Q942 899 914.50 808.50Q887 718 831 653Q775 588 690 553Q605 518 489 518L412 518L412 0L131 0L131 1462L502 1462M481 1223L412 1223L412 758L461 758Q528 758 573 783Q618 808 641 863Q664 918 664 1008Q664 1120 618.50 1171.50Q573 1223 481 1223Z"  horiz-adv-x="1004" vert-adv-y="2048"  />

      
      <glyph glyph-name="uni51" unicode="&#x51;" d="M1126 733Q1126 559 1096.50 424Q1067 289 1009 194.50Q951 100 866 47L1106-348L786-348L608-18Q604-18 597-18Q590-18 584-18Q458-18 364.50 38Q271 94 210 195Q149 296 118.50 434Q88 572 88 735Q88 981 147 1148Q206 1315 322 1400Q438 1485 608 1485Q777 1485 892.50 1400Q1008 1315 1067 1147.50Q1126 980 1126 733M379 733Q379 565 405 452.50Q431 340 482 283.50Q533 227 608 227Q684 227 734.50 282Q785 337 810.50 449Q836 561 836 733Q836 990 779 1115.50Q722 1241 608 1241Q533 1241 482 1184Q431 1127 405 1014Q379 901 379 733Z"  horiz-adv-x="1214" vert-adv-y="2048"  />

      
      <glyph glyph-name="uni52" unicode="&#x52;" d="M471 1462Q633 1462 740 1415Q847 1368 899.50 1274Q952 1180 952 1038Q952 948 930 874.50Q908 801 861.50 743.50Q815 686 743 643L1044 0L735 0L496 573L412 573L412 0L131 0L131 1462L471 1462M469 1225L412 1225L412 795L475 795Q569 795 617.50 852Q666 909 666 1024Q666 1127 617.50 1176Q569 1225 469 1225Z"  horiz-adv-x="1049" vert-adv-y="2048"  />

      
      <glyph glyph-name="uni53" unicode="&#x53;" d="M836 428Q836 296 783 195Q730 94 633.50 37Q537-20 406-20Q345-20 288-12.50Q231-5 176 12.50Q121 30 66 59L66 346Q146 294 232 267Q318 240 391 240Q445 240 480.50 261Q516 282 533.50 318Q551 354 551 399Q551 447 536 483.50Q521 520 478.50 556.50Q436 593 354 641Q290 679 238.50 719Q187 759 150.50 807.50Q114 856 95 920Q76 984 76 1071Q75 1195 124.50 1288Q174 1381 267.50 1432.50Q361 1484 492 1483Q581 1483 666.50 1459Q752 1435 831 1391L754 1143Q683 1186 620 1206.50Q557 1227 502 1227Q454 1227 421.50 1208.50Q389 1190 372.50 1158Q356 1126 356 1085Q356 1033 372 997Q388 961 432.50 926.50Q477 892 561 844Q652 791 713 731.50Q774 672 805 598.50Q836 525 836 428Z"  horiz-adv-x="897" vert-adv-y="2048"  />

      
      <glyph glyph-name="uni54" unicode="&#x54;" d="M578 0L301 0L301 1219L29 1219L29 1462L848 1462L848 1219L578 1219L578 0Z"  horiz-adv-x="879" vert-adv-y="2048"  />

      
      <glyph glyph-name="uni55" unicode="&#x55;" d="M1028 1462L1028 481Q1028 313 976 202Q924 91 823 35.50Q722-20 573-20Q356-20 239.50 102.50Q123 225 123 475L123 1462L403 1462L403 485Q403 346 447 286.50Q491 227 575 227Q634 227 672.50 252.50Q711 278 730.50 335Q750 392 750 487L750 1462L1028 1462Z"  horiz-adv-x="1151" vert-adv-y="2048"  />

      
      <glyph glyph-name="uni56" unicode="&#x56;" d="M1051 1462L686 0L362 0L0 1462L293 1462L469 637Q479 591 490 529.50Q501 468 510 407.50Q519 347 524 303Q530 347 539.50 407.50Q549 468 560.50 529Q572 590 582 637L760 1462L1051 1462Z"  horiz-adv-x="1051" vert-adv-y="2048"  />

      
      <glyph glyph-name="uni57" unicode="&#x57;" d="M1583 1462L1296 0L975 0L840 696Q834 732 827.50 773Q821 814 814.50 859Q808 904 803 952.50Q798 1001 793 1053Q789 1014 784 969.50Q779 925 773 878.50Q767 832 760 786Q753 740 745 698L610 0L291 0L2 1462L276 1462L410 723Q418 679 425.50 628.50Q433 578 440.50 525Q448 472 454.50 421Q461 370 465 326Q471 377 478.50 431Q486 485 494.50 537Q503 589 511 635.50Q519 682 526 719L676 1462L911 1462L1051 721Q1059 681 1067.50 633.50Q1076 586 1084 534Q1092 482 1099 429.50Q1106 377 1112 326Q1117 386 1126 454Q1135 522 1145.50 591.50Q1156 661 1167 723L1303 1462L1583 1462Z"  horiz-adv-x="1587" vert-adv-y="2048"  />

      
      <glyph glyph-name="uni58" unicode="&#x58;" d="M967 0L666 0L485 489L295 0L2 0L326 743L29 1462L319 1462L479 1001L637 1462L932 1462L639 745L967 0Z"  horiz-adv-x="969" vert-adv-y="2048"  />

      
      <glyph glyph-name="uni59" unicode="&#x59;" d="M487 868L682 1462L971 1462L625 563L625 0L346 0L346 555L0 1462L291 1462L487 868Z"  horiz-adv-x="971" vert-adv-y="2048"  />

      
      <glyph glyph-name="uni5a" unicode="&#x5a;" d="M834 0L47 0L47 201L520 1221L55 1221L55 1462L821 1462L821 1262L348 244L834 244L834 0Z"  horiz-adv-x="877" vert-adv-y="2048"  />

      
      <glyph glyph-name="uni5b" unicode="&#x5b;" d="M582-338L109-338L109 1491L582 1491L582 1282L358 1282L358-129L582-129L582-338Z"  horiz-adv-x="627" vert-adv-y="2048"  />

      
      <glyph glyph-name="uni5c" unicode="&#x5c;" d="M254 1477L811-14L573-14L16 1477L254 1477Z"  horiz-adv-x="827" vert-adv-y="2048"  />

      
      <glyph glyph-name="uni5d" unicode="&#x5d;" d="M47-129L270-129L270 1282L47 1282L47 1491L518 1491L518-338L47-338L47-129Z"  horiz-adv-x="627" vert-adv-y="2048"  />

      
      <glyph glyph-name="uni5e" unicode="&#x5e;" d="M18 567L442 1462L584 1462L1010 567L764 567L514 1106L264 567L18 567Z"  horiz-adv-x="1028" vert-adv-y="2048"  />

      
      <glyph glyph-name="uni5f" unicode="&#x5f;" d="M977-348L-4-348L-4-147L977-147L977-348Z"  horiz-adv-x="973" vert-adv-y="2048"  />

      
      <glyph glyph-name="uni60" unicode="&#x60;" d="M387 1569Q406 1526 437 1467.50Q468 1409 500.50 1354.50Q533 1300 555 1268L555 1241L365 1241Q338 1265 298.50 1305Q259 1345 216.50 1391Q174 1437 138 1479.50Q102 1522 82 1550L82 1569L387 1569Z"  horiz-adv-x="637" vert-adv-y="2048"  />

      
      <glyph glyph-name="uni61" unicode="&#x61;" d="M504 1141Q667 1141 752.50 1040.50Q838 940 838 741L838 0L643 0L600 150L594 150Q560 93 521.50 55Q483 17 434-1.50Q385-20 319-20Q226-20 168.50 30Q111 80 85 160Q59 240 59 330Q59 505 156 595Q253 685 432 692L571 698L571 743Q571 835 542.50 880.50Q514 926 449 926Q401 926 344 907Q287 888 219 848L145 1047Q221 1093 312 1117Q403 1141 504 1141M571 520L496 516Q411 512 369.50 468.50Q328 425 328 342Q328 267 353.50 230Q379 193 428 193Q491 193 531 254Q571 315 571 418L571 520Z"  horiz-adv-x="950" vert-adv-y="2048"  />

      
      <glyph glyph-name="uni62" unicode="&#x62;" d="M381 1556L381 1167Q381 1135 379.50 1087.50Q378 1040 373 975L383 975Q427 1061 488.50 1100Q550 1139 627 1139Q779 1139 864.50 988Q950 837 950 563Q950 381 911.50 250.50Q873 120 800 50Q727-20 623-20Q547-20 492 10.50Q437 41 383 121L369 121L330 0L115 0L115 1556L381 1556M537 909Q478 909 443.50 871.50Q409 834 395 763.50Q381 693 381 592L381 537Q381 365 419 285Q457 205 539 205Q608 205 644 293Q680 381 680 565Q680 738 645.50 823.50Q611 909 537 909Z"  horiz-adv-x="1024" vert-adv-y="2048"  />

      
      <glyph glyph-name="uni63" unicode="&#x63;" d="M494-20Q354-20 260.50 42.50Q167 105 120.50 232.50Q74 360 74 555Q74 725 119 857.50Q164 990 258 1065.50Q352 1141 498 1141Q581 1141 647.50 1122.50Q714 1104 772 1067L698 854Q652 882 607.50 895.50Q563 909 518 909Q463 909 424 868.50Q385 828 364.50 749.50Q344 671 344 555Q344 440 364.50 363Q385 286 424.50 247.50Q464 209 522 209Q579 209 637 230Q695 251 750 291L750 63Q696 20 629.50 0Q563-20 494-20Z"  horiz-adv-x="817" vert-adv-y="2048"  />

      
      <glyph glyph-name="uni64" unicode="&#x64;" d="M406-20Q244-20 159 134Q74 288 74 561Q74 835 159 988Q244 1141 397 1141Q449 1141 493.50 1123Q538 1105 575.50 1068.50Q613 1032 641 977L651 977Q648 1042 645.50 1088.50Q643 1135 643 1167L643 1556L909 1556L909 0L696 0L659 123L643 123Q611 73 576.50 41.50Q542 10 501-5Q460-20 406-20M485 203Q565 203 604 281Q643 359 643 526L643 590Q643 756 605.50 832.50Q568 909 485 909Q413 909 378.50 821.50Q344 734 344 563Q344 382 380 292.50Q416 203 485 203Z"  horiz-adv-x="1024" vert-adv-y="2048"  />

      
      <glyph glyph-name="uni65" unicode="&#x65;" d="M479 1139Q605 1139 692.50 1077Q780 1015 825 901.50Q870 788 870 633L870 483L336 483Q338 336 390 266.50Q442 197 549 197Q620 197 683.50 215.50Q747 234 819 279L819 57Q752 17 676-1.50Q600-20 512-20Q358-20 261 49.50Q164 119 119 247.50Q74 376 74 553Q74 742 119.50 872.50Q165 1003 255 1071Q345 1139 479 1139M485 930Q419 930 380 870.50Q341 811 338 676L623 676Q623 755 607 812Q591 869 560 899.50Q529 930 485 930Z"  horiz-adv-x="936" vert-adv-y="2048"  />

      
      <glyph glyph-name="uni66" unicode="&#x66;" d="M592 899L412 899L412 0L145 0L145 899L16 899L16 1042L145 1120L145 1155Q145 1297 174 1388Q203 1479 267.50 1523Q332 1567 436 1567Q495 1567 542.50 1556.50Q590 1546 653 1522L596 1321Q568 1330 543 1335.50Q518 1341 492 1341Q449 1341 430.50 1303.50Q412 1266 412 1174L412 1120L592 1120L592 899Z"  horiz-adv-x="610" vert-adv-y="2048"  />

      
      <glyph glyph-name="uni67" unicode="&#x67;" d="M402-492Q216-492 114-410Q12-328 12-178Q12-80 68.50-10Q125 60 218 86Q171 106 140 148.50Q109 191 109 247Q109 311 137.50 353Q166 395 215 439Q152 480 114 567Q76 654 76 758Q76 878 119.50 963Q163 1048 246.50 1092.50Q330 1137 450 1137Q487 1137 514.50 1133.50Q542 1130 562.50 1124.50Q583 1119 598 1113L922 1113L922 953L790 924Q809 887 817 846Q825 805 825 756Q825 576 728 477Q631 378 453 378Q398 378 372 387Q356 372 341.50 351Q327 330 327 298Q327 274 339.50 257.50Q352 241 378 233Q404 225 443 225L629 225Q763 225 835 150Q907 75 907-79Q907-278 778.50-385Q650-492 402-492M421-293Q502-293 554-273Q606-253 631-214.50Q656-176 656-121Q656-77 643-54.50Q630-32 598.50-23.50Q567-15 512-15L366-15Q335-15 311-30.50Q287-46 274-77Q261-108 261-157Q261-224 304-258.50Q347-293 421-293M452 563Q503 563 530 612Q557 661 557 756Q557 857 530 905.50Q503 954 451 954Q399 954 372 904.50Q345 855 345 757Q345 662 371 612.50Q397 563 452 563Z"  horiz-adv-x="938" vert-adv-y="2048"  />

      
      <glyph glyph-name="uni68" unicode="&#x68;" d="M381 1556L381 1210Q381 1150 376 1091.50Q371 1033 360 977L377 977Q399 1030 434 1066.50Q469 1103 515.50 1122Q562 1141 618 1141Q715 1141 780.50 1094.50Q846 1048 879.50 958Q913 868 913 739L913 0L647 0L647 664Q647 786 621 843.50Q595 901 539 901Q479 901 444.50 862.50Q410 824 395.50 744Q381 664 381 539L381 0L115 0L115 1556L381 1556Z"  horiz-adv-x="1026" vert-adv-y="2048"  />

      
      <glyph glyph-name="uni69" unicode="&#x69;" d="M383 1120L383 0L117 0L117 1120L383 1120M250 1561Q325 1561 360 1521.50Q395 1482 395 1407Q395 1334 358.50 1295.50Q322 1257 250 1257Q180 1257 142 1295.50Q104 1334 104 1407Q104 1484 139.50 1522.50Q175 1561 250 1561Z"  horiz-adv-x="500" vert-adv-y="2048"  />

      
      <glyph glyph-name="uni6a" unicode="&#x6a;" d="M86-492Q49-492 13-486.50Q-23-481-57-469L-57-240Q-36-249-14.50-253.50Q7-258 27-258Q73-258 95-220.50Q117-183 117-106L117 1120L383 1120L383-121Q383-248 348-329.50Q313-411 246.50-450.50Q180-490 86-492M104 1407Q104 1484 139.50 1522.50Q175 1561 250 1561Q325 1561 360 1521.50Q395 1482 395 1407Q395 1334 358.50 1295.50Q322 1257 250 1257Q180 1257 142 1295.50Q104 1334 104 1407Z"  horiz-adv-x="500" vert-adv-y="2048"  />

      
      <glyph glyph-name="uni6b" unicode="&#x6b;" d="M381 1556L381 879Q381 808 379 740Q377 672 369 606L377 606Q395 650 416.50 688.50Q438 727 455 758L672 1120L958 1120L668 662L973 0L682 0L485 463L381 360L381 0L115 0L115 1556L381 1556Z"  horiz-adv-x="969" vert-adv-y="2048"  />

      
      <glyph glyph-name="uni6c" unicode="&#x6c;" d="M381 0L115 0L115 1556L381 1556L381 0Z"  horiz-adv-x="496" vert-adv-y="2048"  />

      
      <glyph glyph-name="uni6d" unicode="&#x6d;" d="M1135 1141Q1278 1141 1348.50 1041.50Q1419 942 1419 737L1419 0L1153 0L1153 659Q1153 784 1125.50 843.50Q1098 903 1042 903Q963 903 932 820Q901 737 901 567L901 0L633 0L633 662Q633 745 621.50 798Q610 851 586.50 877Q563 903 526 903Q469 903 437.50 861Q406 819 393.50 737.50Q381 656 381 535L381 0L115 0L115 1120L326 1120L354 977L371 977Q393 1030 430 1066.50Q467 1103 518 1122Q569 1141 631 1141Q728 1141 785 1095.50Q842 1050 866 981L885 981Q923 1059 983.50 1100Q1044 1141 1135 1141Z"  horiz-adv-x="1530" vert-adv-y="2048"  />

      
      <glyph glyph-name="uni6e" unicode="&#x6e;" d="M618 1141Q760 1141 836.50 1038.50Q913 936 913 741L913 0L647 0L647 664Q647 782 623 842.50Q599 903 532 903Q448 903 414.50 821Q381 739 381 539L381 0L115 0L115 1120L326 1120L354 977L371 977Q396 1030 432 1066.50Q468 1103 515 1122Q562 1141 618 1141Z"  horiz-adv-x="1026" vert-adv-y="2048"  />

      
      <glyph glyph-name="uni6f" unicode="&#x6f;" d="M926 563Q926 446 902.50 341Q879 236 828.50 155Q778 74 696.50 27Q615-20 498-20Q389-20 309 26Q229 72 177 152.50Q125 233 99.50 338.50Q74 444 74 563Q74 732 118.50 862.50Q163 993 257.50 1067Q352 1141 502 1141Q631 1141 726.50 1074Q822 1007 874 878.50Q926 750 926 563M344 559Q344 443 360.50 364Q377 285 411.50 245Q446 205 500 205Q555 205 588.50 244.50Q622 284 637.50 364Q653 444 653 563Q653 681 637.50 759Q622 837 588.50 876Q555 915 500 915Q418 915 381 828Q344 741 344 559Z"  horiz-adv-x="999" vert-adv-y="2048"  />

      
      <glyph glyph-name="uni70" unicode="&#x70;" d="M621 1141Q779 1141 864.50 989Q950 837 950 557Q950 377 911.50 248Q873 119 801 49.50Q729-20 629-20Q578-20 532.50-2Q487 16 449.50 53Q412 90 383 147L373 147Q378 83 379.50 35.50Q381-12 381-43L381-492L115-492L115 1120L330 1120L369 973L383 973Q417 1039 452.50 1075.50Q488 1112 529.50 1126.50Q571 1141 621 1141M537 915Q483 915 448.50 881Q414 847 397.50 775Q381 703 381 588L381 532Q381 421 397.50 350Q414 279 449 245Q484 211 537 211Q585 211 617 249Q649 287 664.50 363.50Q680 440 680 555Q680 737 645.50 826Q611 915 537 915Z"  horiz-adv-x="1024" vert-adv-y="2048"  />

      
      <glyph glyph-name="uni71" unicode="&#x71;" d="M643-492L643-57Q643-25 646 26Q649 77 653 150L643 150Q599 61 537.50 20.50Q476-20 397-20Q246-20 160 130.50Q74 281 74 553Q74 740 113.50 871Q153 1002 227.50 1071.50Q302 1141 406 1141Q486 1141 541.50 1104.50Q597 1068 641 977L657 977L680 1120L909 1120L909-492L643-492M487 211Q540 211 574.50 243.50Q609 276 626 344Q643 412 643 516L643 571Q643 750 605.50 829.50Q568 909 483 909Q414 909 379 820Q344 731 344 549Q344 375 379.50 293Q415 211 487 211Z"  horiz-adv-x="1024" vert-adv-y="2048"  />

      
      <glyph glyph-name="uni72" unicode="&#x72;" d="M602 1141Q624 1141 645 1137.50Q666 1134 694 1126L670 842Q650 850 626.50 853Q603 856 575 856Q529 856 493 836Q457 816 432.50 778.50Q408 741 395.50 688.50Q383 636 383 571L383 0L117 0L117 1120L322 1120L360 936L373 936Q395 989 428 1036Q461 1083 505 1112Q549 1141 602 1141Z"  horiz-adv-x="711" vert-adv-y="2048"  />

      
      <glyph glyph-name="uni73" unicode="&#x73;" d="M711 328Q711 214 668.50 136.50Q626 59 545.50 19.50Q465-20 352-20Q271-20 197.50-4.50Q124 11 59 43L59 301Q113 264 184 237.50Q255 211 328 211Q384 211 414 237Q444 263 444 313Q444 341 432 365.50Q420 390 384 417.50Q348 445 276 481Q207 519 158 568Q109 617 83 680Q57 743 57 823Q57 971 149 1056Q241 1141 401 1141Q483 1141 555.50 1118.50Q628 1096 698 1053L625 848Q577 880 524 902Q471 924 416 924Q367 924 341 900.50Q315 877 315 836Q315 807 327 786Q339 765 374.50 739.50Q410 714 479 672Q548 632 600 585Q652 538 681.50 476Q711 414 711 328Z"  horiz-adv-x="766" vert-adv-y="2048"  />

      
      <glyph glyph-name="uni74" unicode="&#x74;" d="M489 213Q517 213 548.50 220.50Q580 228 614 244L614 31Q570 6 517.50-7Q465-20 406-20Q310-20 249.50 18.50Q189 57 161 135.50Q133 214 133 334L133 899L23 899L23 1042L154 1112L217 1356L399 1356L399 1120L600 1120L600 899L399 899L399 344Q399 278 419.50 245.50Q440 213 489 213Z"  horiz-adv-x="649" vert-adv-y="2048"  />

      
      <glyph glyph-name="uni75" unicode="&#x75;" d="M911 1120L911 0L702 0L672 143L657 143Q632 89 596 53Q560 17 513.50-1.50Q467-20 410-20Q311-20 245 29Q179 78 146 169.50Q113 261 113 389L113 1120L379 1120L379 469Q379 343 404 280Q429 217 485 217Q552 217 586 256Q620 295 632.50 370Q645 445 645 551L645 1120L911 1120Z"  horiz-adv-x="1026" vert-adv-y="2048"  />

      
      <glyph glyph-name="uni76" unicode="&#x76;" d="M309 0L6 1120L283 1120L410 528Q424 470 433 411Q442 352 449 287L457 287Q459 333 468.50 389.50Q478 446 492 512L627 1120L903 1120L598 0L309 0Z"  horiz-adv-x="909" vert-adv-y="2048"  />

      
      <glyph glyph-name="uni77" unicode="&#x77;" d="M842 0L741 563Q736 598 730.50 635.50Q725 673 720 711Q715 749 710.50 786Q706 823 702 856L696 856Q691 819 686 780.50Q681 742 676 704Q671 666 666 630.50Q661 595 655 565L551 0L248 0L12 1120L279 1120L358 690Q369 634 377.50 570.50Q386 507 393.50 441.50Q401 376 406 313L412 313Q416 352 420.50 393Q425 434 431 479Q437 524 445 572.50Q453 621 463 674L549 1120L854 1120L938 668Q947 609 956 547.50Q965 486 973 427Q981 368 987 313L995 313Q998 363 1003.50 417.50Q1009 472 1016.50 530Q1024 588 1034 645L1126 1120L1389 1120L1149 0L842 0Z"  horiz-adv-x="1403" vert-adv-y="2048"  />

      
      <glyph glyph-name="uni78" unicode="&#x78;" d="M276 573L27 1120L315 1120L446 784L575 1120L862 1120L614 569L874 0L586 0L440 360L299 0L16 0L276 573Z"  horiz-adv-x="891" vert-adv-y="2048"  />

      
      <glyph glyph-name="uni79" unicode="&#x79;" d="M6 1120L285 1120L416 578Q425 541 433 503.50Q441 466 446.50 431Q452 396 455 365L463 365Q468 406 478 457.50Q488 509 504 575L627 1120L903 1120L569-109Q532-247 481.50-331Q431-415 363-453.50Q295-492 203-492Q169-492 138-487Q107-482 76-475L76-240Q96-246 116.50-250Q137-254 156-254Q197-254 222.50-238Q248-222 268-179Q288-136 311-55L328 12L6 1120Z"  horiz-adv-x="909" vert-adv-y="2048"  />

      
      <glyph glyph-name="uni7a" unicode="&#x7a;" d="M700 0L41 0L41 166L389 895L61 895L61 1120L684 1120L684 940L350 223L700 223L700 0Z"  horiz-adv-x="739" vert-adv-y="2048"  />

      
      <glyph glyph-name="uni7b" unicode="&#x7b;" d="M690-338Q533-338 437.50-307.50Q342-277 299-204Q256-131 256-2L256 281Q256 340 235 380.50Q214 421 168.50 442Q123 463 49 463L49 674Q121 674 166.50 693.50Q212 713 234 753.50Q256 794 256 856L256 1143Q256 1261 294 1334Q332 1407 426.50 1441.50Q521 1476 690 1477L690 1264Q632 1262 591.50 1250Q551 1238 530.50 1208.50Q510 1179 510 1122L510 829Q510 714 467 653Q424 592 324 575L324 563Q425 545 467.50 484Q510 423 510 315L510 18Q510-32 527-62.50Q544-93 583.50-108Q623-123 690-125L690-338Z"  horiz-adv-x="748" vert-adv-y="2048"  />

      
      <glyph glyph-name="uni7c" unicode="&#x7c;" d="M305 1573L541 1573L541-475L305-475L305 1573Z"  horiz-adv-x="848" vert-adv-y="2048"  />

      
      <glyph glyph-name="uni7d" unicode="&#x7d;" d="M57-338L57-125Q123-123 162.50-109Q202-95 220-64.50Q238-34 238 18L238 315Q238 425 280 485Q322 545 422 563L422 575Q322 592 280 654Q238 716 238 829L238 1122Q238 1180 214.50 1209.50Q191 1239 150.50 1250.50Q110 1262 57 1264L57 1477Q215 1476 310 1445Q405 1414 447 1341.50Q489 1269 489 1143L489 856Q489 798 510 757Q531 716 577 695Q623 674 698 674L698 463Q626 463 579.50 442.50Q533 422 511 381.50Q489 341 489 281L489-2Q489-121 451.50-195Q414-269 320-303.50Q226-338 57-338Z"  horiz-adv-x="748" vert-adv-y="2048"  />

      
      <glyph glyph-name="uni7e" unicode="&#x7e;" d="M455 616Q401 644 351.50 658Q302 672 258 672Q212 672 161 641Q110 610 57 551L57 784Q102 837 157.50 864Q213 891 281 891Q342 891 398 873Q454 855 512 827Q569 800 616.50 786Q664 772 709 772Q755 772 809 805Q863 838 909 893L909 659Q865 607 809.50 581Q754 555 688 555Q625 555 571 571.50Q517 588 455 616Z"  horiz-adv-x="969" vert-adv-y="2048"  />

      
      <glyph glyph-name="unia1" unicode="&#xa1;" d="M152 637L375 637L418-375L106-375L152 637M424 969Q424 884 382 841.50Q340 799 264 799Q188 799 148.50 842.50Q109 886 109 969Q109 1047 149 1091Q189 1135 264 1135Q336 1135 380 1092Q424 1049 424 969Z"  horiz-adv-x="526" vert-adv-y="2048"  />

      
      <glyph glyph-name="unia2" unicode="&#xa2;" d="M606 1483L606 1323Q662 1319 719.50 1300.50Q777 1282 823 1253L752 1038Q707 1067 660.50 1081.50Q614 1096 575 1096Q516 1096 477 1059.50Q438 1023 418.50 945Q399 867 399 741Q399 619 417 542.50Q435 466 473 430.50Q511 395 571 395Q625 395 686 417Q747 439 801 477L801 250Q763 221 711.50 200.50Q660 180 606 172L606-20L457-20L457 174Q343 187 270 258.50Q197 330 162 453Q127 576 127 741Q127 903 163 1027Q199 1151 272 1226.50Q345 1302 457 1317L457 1483L606 1483Z"  horiz-adv-x="961" vert-adv-y="2048"  />

      
      <glyph glyph-name="unia3" unicode="&#xa3;" d="M580 1483Q658 1483 729.50 1462.50Q801 1442 870 1399L795 1180Q740 1211 692.50 1225Q645 1239 602 1239Q547 1239 521.50 1197.50Q496 1156 496 1065L496 848L754 848L754 643L496 643L496 489Q496 434 481.50 388.50Q467 343 438 307Q409 271 365 244L889 244L889 0L92 0L92 231Q137 259 166 292Q195 325 209 372Q223 419 223 487L223 643L88 643L88 848L223 848L223 1065Q223 1202 264.50 1295Q306 1388 386 1435.50Q466 1483 580 1483Z"  horiz-adv-x="961" vert-adv-y="2048"  />

      
      <glyph glyph-name="unia4" unicode="&#xa4;" d="M158 723Q158 779 174.50 831Q191 883 223 934L90 1067L215 1190L344 1059Q392 1091 445.50 1106.50Q499 1122 557 1122Q616 1122 668.50 1105.50Q721 1089 770 1057L901 1190L1026 1069L895 936Q926 888 941 835.50Q956 783 956 723Q956 663 941 609Q926 555 895 508L1024 379L901 256L770 387Q721 356 667.50 341Q614 326 557 326Q496 326 442 341Q388 356 342 387L215 258L92 381L223 510Q191 557 174.50 610Q158 663 158 723M334 723Q334 662 363.50 610.50Q393 559 444 528.50Q495 498 557 498Q622 498 673.50 528.50Q725 559 755.50 610.50Q786 662 786 723Q786 785 755 836.50Q724 888 672 919Q620 950 557 950Q496 950 445 919.50Q394 889 364 837.50Q334 786 334 723Z"  horiz-adv-x="1118" vert-adv-y="2048"  />

      
      <glyph glyph-name="unia5" unicode="&#xa5;" d="M481 889L641 1462L930 1462L659 725L860 725L860 549L616 549L616 408L860 408L860 233L616 233L616 0L344 0L344 233L100 233L100 408L344 408L344 549L100 549L100 725L295 725L29 1462L315 1462L481 889Z"  horiz-adv-x="961" vert-adv-y="2048"  />

      
      <glyph glyph-name="unia6" unicode="&#xa6;" d="M305 1554L541 1554L541 745L305 745L305 1554M305 332L541 332L541-477L305-477L305 332Z"  horiz-adv-x="848" vert-adv-y="2048"  />

      
      <glyph glyph-name="unia7" unicode="&#xa7;" d="M80 803Q80 878 118.50 938.50Q157 999 227 1040Q164 1090 132 1149Q100 1208 100 1278Q100 1409 195.50 1484Q291 1559 438 1559Q518 1559 590 1539Q662 1519 735 1481L664 1296Q604 1334 549.50 1353Q495 1372 449 1372Q392 1372 362 1347Q332 1322 332 1276Q332 1243 350 1218.50Q368 1194 402.50 1172Q437 1150 487 1124Q579 1079 638 1033.50Q697 988 725.50 932.50Q754 877 754 801Q754 718 722 656Q690 594 627 545Q686 497 712.50 439.50Q739 382 739 311Q739 169 641.50 84.50Q544 0 377 0Q292 0 219.50 20Q147 40 88 80L88 289Q126 261 176.50 238Q227 215 278 201.50Q329 188 369 188Q437 188 473.50 217.50Q510 247 510 299Q510 335 496.50 358.50Q483 382 447 406.50Q411 431 342 469Q246 520 188.50 567Q131 614 105.50 670Q80 726 80 803M293 836Q293 801 307.50 773Q322 745 351.50 720Q381 695 426 668L487 633Q513 656 527 687Q541 718 541 756Q541 798 525 830Q509 862 471 892Q433 922 365 956Q328 940 310.50 908.50Q293 877 293 836Z"  horiz-adv-x="840" vert-adv-y="2048"  />

      
      <glyph glyph-name="unia8" unicode="&#xa8;" d="M186 1395Q186 1463 220 1497.50Q254 1532 309 1532Q366 1532 400 1496Q434 1460 434 1395Q434 1332 400 1296Q366 1260 309 1260Q254 1260 220 1294.50Q186 1329 186 1395M557 1395Q557 1463 591 1497.50Q625 1532 682 1532Q739 1532 773 1496Q807 1460 807 1395Q807 1332 773 1296Q739 1260 682 1260Q625 1260 591 1295.50Q557 1331 557 1395Z"  horiz-adv-x="993" vert-adv-y="2048"  />

      
      <glyph glyph-name="unia9" unicode="&#xa9;" d="M838-20Q668-20 529.50 37Q391 94 292 195.50Q193 297 139.50 433.50Q86 570 86 729Q86 897 144.50 1035.50Q203 1174 307 1274Q411 1374 549.50 1428.50Q688 1483 848 1483Q1013 1483 1151.50 1426Q1290 1369 1392 1267Q1494 1165 1550 1027Q1606 889 1606 727Q1606 563 1548.50 426Q1491 289 1387 189Q1283 89 1143 34.50Q1003-20 838-20M879 266Q676 266 563.50 387.50Q451 509 451 729Q451 875 501.50 979Q552 1083 647.50 1138.50Q743 1194 877 1194Q954 1194 1027.50 1175.50Q1101 1157 1174 1122L1096 967Q1044 993 992.50 1005.50Q941 1018 895 1018Q786 1018 726 946Q666 874 666 723Q666 578 723 510Q780 442 897 442Q954 442 1015.50 457.50Q1077 473 1135 502L1135 326Q1075 297 1011.50 281.50Q948 266 879 266M852 115Q984 115 1093.50 159.50Q1203 204 1283 286Q1363 368 1406.50 480Q1450 592 1450 727Q1450 867 1404.50 981Q1359 1095 1277 1177Q1195 1259 1084.50 1303.50Q974 1348 844 1348Q708 1348 597 1300.50Q486 1253 406 1168.50Q326 1084 283 970.50Q240 857 240 725Q240 587 286.50 474.50Q333 362 416.50 281.50Q500 201 611 158Q722 115 852 115Z"  horiz-adv-x="1692" vert-adv-y="2048"  />

      
      <glyph glyph-name="uniaa" unicode="&#xaa;" d="M354 1479Q468 1479 529 1411Q590 1343 590 1212L590 762L457 762L424 872Q395 816 347.50 783Q300 750 227 750Q169 750 128.50 781Q88 812 66.50 863Q45 914 45 973Q45 1056 81 1102.50Q117 1149 180.50 1170Q244 1191 328 1198L401 1204L401 1229Q401 1278 382 1301.50Q363 1325 315 1325Q269 1325 228.50 1310Q188 1295 143 1270L88 1409Q150 1443 214 1461Q278 1479 354 1479M401 1087L344 1081Q289 1075 262.50 1051.50Q236 1028 236 981Q236 943 253.50 922Q271 901 305 901Q350 901 375.50 943.50Q401 986 401 1053L401 1087Z"  horiz-adv-x="678" vert-adv-y="2048"  />

      
      <glyph glyph-name="uniab" unicode="&#xab;" d="M55 575L365 1020L555 920L344 561L555 205L365 102L55 547L55 575M506 575L815 1020L1006 920L797 561L1006 205L815 102L506 547L506 575Z"  horiz-adv-x="1067" vert-adv-y="2048"  />

      
      <glyph glyph-name="uniac" unicode="&#xac;" d="M889 831L889 242L668 242L668 614L68 614L68 831L889 831Z"  horiz-adv-x="969" vert-adv-y="2048"  />

      
      <glyph glyph-name="uniad" unicode="&#xad;" d="M57 422L57 678L567 678L567 422L57 422Z"  horiz-adv-x="625" vert-adv-y="2048"  />

      
      <glyph glyph-name="uniae" unicode="&#xae;" d="M537 307L537 1184L815 1184Q987 1184 1075 1118Q1163 1052 1163 918Q1163 832 1129 771.50Q1095 711 1020 676L1217 307L987 307L834 639L748 639L748 307L537 307M748 788L803 788Q871 788 909.50 816.50Q948 845 948 909Q948 968 915 993Q882 1018 805 1018L748 1018L748 788M838-20Q668-20 529.50 37Q391 94 292 195.50Q193 297 139.50 433.50Q86 570 86 729Q86 897 144.50 1035.50Q203 1174 307 1274Q411 1374 549.50 1428.50Q688 1483 848 1483Q1013 1483 1151.50 1426Q1290 1369 1392 1267Q1494 1165 1550 1027Q1606 889 1606 727Q1606 563 1548.50 426Q1491 289 1387 189Q1283 89 1143 34.50Q1003-20 838-20M852 115Q984 115 1093.50 159.50Q1203 204 1283 286Q1363 368 1406.50 480Q1450 592 1450 727Q1450 867 1404.50 981Q1359 1095 1277 1177Q1195 1259 1084.50 1303.50Q974 1348 844 1348Q708 1348 597 1300.50Q486 1253 406 1168.50Q326 1084 283 970.50Q240 857 240 725Q240 587 286.50 474.50Q333 362 416.50 281.50Q500 201 611 158Q722 115 852 115Z"  horiz-adv-x="1692" vert-adv-y="2048"  />

      
      <glyph glyph-name="uniaf" unicode="&#xaf;" d="M973 1556L-4 1556L-4 1757L973 1757L973 1556Z"  horiz-adv-x="967" vert-adv-y="2048"  />

      
      <glyph glyph-name="unib0" unicode="&#xb0;" d="M369 883Q282 883 212.50 921Q143 959 102 1027Q61 1095 61 1184Q61 1273 102 1340.50Q143 1408 213 1445.50Q283 1483 369 1483Q458 1483 528 1445Q598 1407 638 1339.50Q678 1272 678 1184Q678 1094 637 1026Q596 958 526 920.50Q456 883 369 883M369 1042Q434 1042 471 1080Q508 1118 508 1184Q508 1247 471.50 1285Q435 1323 369 1323Q303 1323 267 1283.50Q231 1244 231 1184Q231 1118 268.50 1080Q306 1042 369 1042Z"  horiz-adv-x="741" vert-adv-y="2048"  />

      
      <glyph glyph-name="unib1" unicode="&#xb1;" d="M68 0L68 217L901 217L901 0L68 0M596 921L901 921L901 704L596 704L596 323L375 323L375 704L68 704L68 921L375 921L375 1307L596 1307L596 921Z"  horiz-adv-x="969" vert-adv-y="2048"  />

      
      <glyph glyph-name="unib2" unicode="&#xb2;" d="M606 850L59 850L59 1022L244 1239Q294 1301 324.50 1343.50Q355 1386 369 1420.50Q383 1455 383 1493Q383 1531 359.50 1555Q336 1579 293 1579Q253 1579 217 1557.50Q181 1536 145 1493L51 1622Q89 1675 161.50 1712Q234 1749 319 1749Q445 1749 514.50 1682Q584 1615 584 1513Q584 1439 559 1378Q534 1317 476 1247Q418 1177 319 1073L279 1022L606 1022L606 850Z"  horiz-adv-x="686" vert-adv-y="2048"  />

      
      <glyph glyph-name="unib3" unicode="&#xb3;" d="M317 1747Q436 1747 510 1689Q584 1631 584 1528Q584 1451 549.50 1397.50Q515 1344 449 1313L449 1305Q526 1282 566 1227.50Q606 1173 606 1087Q606 969 519 901.50Q432 834 297 834Q230 834 171.50 849.50Q113 865 63 897L63 1085Q111 1048 169.50 1030Q228 1012 295 1012Q355 1012 384.50 1037Q414 1062 414 1106Q414 1163 379.50 1191Q345 1219 272 1219L190 1219L190 1374L260 1374Q328 1374 361.50 1403Q395 1432 395 1483Q395 1527 372.50 1552Q350 1577 299 1577Q256 1577 218.50 1560Q181 1543 139 1505L53 1634Q112 1690 178.50 1718.50Q245 1747 317 1747Z"  horiz-adv-x="686" vert-adv-y="2048"  />

      
      <glyph glyph-name="unib4" unicode="&#xb4;" d="M555 1569L555 1550Q534 1521 501 1482Q468 1443 428.50 1400Q389 1357 348.50 1315.50Q308 1274 272 1241L82 1241L82 1268Q118 1322 148 1373.50Q178 1425 203.50 1474Q229 1523 250 1569L555 1569Z"  horiz-adv-x="637" vert-adv-y="2048"  />

      
      <glyph glyph-name="unib5" unicode="&#xb5;" d="M911 1120L911 0L702 0L672 143L659 143Q642 92 616.50 55.50Q591 19 560-0.50Q529-20 494-20Q451-20 424 2Q397 24 377 70L371 70Q374 37 375.50 0.50Q377-36 378-74.50Q379-113 379-152L379-492L113-492L113 1120L379 1120L379 463Q379 342 404 279.50Q429 217 485 217Q552 217 586 263.50Q620 310 632.50 392Q645 474 645 580L645 1120L911 1120Z"  horiz-adv-x="1026" vert-adv-y="2048"  />

      
      <glyph glyph-name="unib6" unicode="&#xb6;" d="M895-260L743-260L743 1413L618 1413L618-260L467-260L467 559Q448 550 426.50 545.50Q405 541 379 541Q280 541 215.50 596Q151 651 119.50 762.50Q88 874 88 1042Q88 1212 122 1326.50Q156 1441 227 1498.50Q298 1556 410 1556L895 1556L895-260Z"  horiz-adv-x="1024" vert-adv-y="2048"  />

      
      <glyph glyph-name="unib7" unicode="&#xb7;" d="M104 720Q104 802 145 845Q186 888 264 888Q338 888 379 845.50Q420 803 420 720Q420 639 378 595.50Q336 552 264 552Q191 552 147.50 595.50Q104 639 104 720Z"  horiz-adv-x="522" vert-adv-y="2048"  />

      
      <glyph glyph-name="unib8" unicode="&#xb8;" d="M369-266Q369-372 303.50-432Q238-492 115-492Q70-492 32-487Q-6-482-37-475L-37-319Q-9-327 17-330.50Q43-334 66-334Q113-334 137.50-314.50Q162-295 162-260Q162-219 124-195.50Q86-172 18-168L88 0L223 0L188-82Q246-92 286-116.50Q326-141 347.50-179Q369-217 369-266Z"  horiz-adv-x="340" vert-adv-y="2048"  />

      
      <glyph glyph-name="unib9" unicode="&#xb9;" d="M510 1726L510 850L311 850L311 1278Q311 1313 311.50 1347.50Q312 1382 313 1417Q314 1452 317 1489Q304 1473 291.50 1462.50Q279 1452 268 1444L166 1362L70 1493L348 1726L510 1726Z"  horiz-adv-x="686" vert-adv-y="2048"  />

      
      <glyph glyph-name="uniba" unicode="&#xba;" d="M627 1114Q627 944 552 847Q477 750 340 750Q204 750 127.50 849Q51 948 51 1114Q51 1286 129 1382.50Q207 1479 340 1479Q427 1479 491.50 1436.50Q556 1394 591.50 1312.50Q627 1231 627 1114M244 1114Q244 1010 267.50 959.50Q291 909 340 909Q391 909 413.50 959.50Q436 1010 436 1114Q436 1218 413 1269.50Q390 1321 340 1321Q292 1321 268 1269.50Q244 1218 244 1114Z"  horiz-adv-x="678" vert-adv-y="2048"  />

      
      <glyph glyph-name="unibb" unicode="&#xbb;" d="M1012 547L702 102L512 205L723 561L512 920L702 1020L1012 575L1012 547M563 547L254 102L63 205L272 561L63 920L254 1020L563 575L563 547Z"  horiz-adv-x="1067" vert-adv-y="2048"  />

      
      <glyph glyph-name="unibc" unicode="&#xbc;" d="M371 0L1094 1462L1309 1462L584 0L371 0M303 586L303 1014Q303 1048 303.50 1082Q304 1116 305 1151.50Q306 1187 309 1225Q296 1209 283.50 1197.50Q271 1186 260 1178L158 1098L61 1227L340 1462L502 1462L502 586L303 586M1305 0L1305 158L977 158L977 305L1286 879L1499 879L1499 319L1606 319L1606 158L1499 158L1499 0L1305 0M1141 319L1305 319L1305 520Q1305 561 1306.50 598Q1308 635 1311 664Q1297 627 1284.50 597.50Q1272 568 1260 545L1141 319Z"  horiz-adv-x="1634" vert-adv-y="2048"  />

      
      <glyph glyph-name="unibd" unicode="&#xbd;" d="M340 0L1063 1462L1278 1462L553 0L340 0M303 586L303 1014Q303 1039 303 1064.50Q303 1090 303.50 1116Q304 1142 305.50 1169.50Q307 1197 309 1225Q296 1209 283.50 1197.50Q271 1186 260 1178L158 1098L61 1227L340 1462L502 1462L502 586L303 586M1030 0L1030 172L1214 381Q1268 442 1299 484.50Q1330 527 1343 562.50Q1356 598 1356 637Q1356 677 1331.50 702Q1307 727 1264 727Q1224 727 1187.50 706Q1151 685 1116 641L1022 772Q1060 825 1132.50 862Q1205 899 1290 899Q1416 899 1485 832Q1554 765 1554 664Q1554 589 1532.50 532Q1511 475 1474 426Q1437 377 1391 326L1249 172L1577 172L1577 0L1030 0Z"  horiz-adv-x="1657" vert-adv-y="2048"  />

      
      <glyph glyph-name="unibe" unicode="&#xbe;" d="M375 0L1098 1462L1313 1462L588 0L375 0M297 569Q230 569 171.50 584.50Q113 600 63 631L63 819Q111 784 169.50 764.50Q228 745 295 745Q355 745 384.50 770Q414 795 414 840Q414 899 379.50 926.50Q345 954 272 954L190 954L190 1110L260 1110Q328 1110 361.50 1138.50Q395 1167 395 1219Q395 1262 372.50 1287.50Q350 1313 299 1313Q256 1313 218.50 1295Q181 1277 139 1239L53 1370Q112 1426 178.50 1454.50Q245 1483 317 1483Q436 1483 510 1425Q584 1367 584 1264Q584 1187 549.50 1132.50Q515 1078 449 1049L449 1040Q526 1016 566 962.50Q606 909 606 821Q606 705 519 637Q432 569 297 569M1315 0L1315 158L987 158L987 305L1296 879L1509 879L1509 319L1616 319L1616 158L1509 158L1509 0L1315 0M1151 319L1315 319L1315 520Q1315 561 1316.50 598Q1318 635 1321 664Q1308 627 1295 597.50Q1282 568 1270 545L1151 319Z"  horiz-adv-x="1645" vert-adv-y="2048"  />

      
      <glyph glyph-name="unibf" unicode="&#xbf;" d="M543 637L543 561Q543 494 530.50 441.50Q518 389 490 343Q462 297 416 248Q372 201 345.50 163.50Q319 126 307 89Q295 52 295 6Q295-61 328.50-96Q362-131 426-131Q482-131 537.50-107Q593-83 656-39L746-248Q661-309 576-340Q491-371 404-371Q223-371 128-277Q33-183 33-18Q33 70 53.50 135.50Q74 201 114.50 257.50Q155 314 215 375Q263 423 285.50 456Q308 489 315 519.50Q322 550 322 590L322 637L543 637M590 967Q590 885 549.50 842Q509 799 430 799Q357 799 316 841.50Q275 884 275 967Q275 1048 316.50 1091.50Q358 1135 430 1135Q504 1135 547 1091.50Q590 1048 590 967Z"  horiz-adv-x="756" vert-adv-y="2048"  />

      
      <glyph glyph-name="unic0" unicode="&#xc0;" d="M778 0L702 352L377 352L301 0L0 0L354 1462L717 1462L1077 0L778 0M659 596L580 983Q572 1031 564.50 1077Q557 1123 550.50 1165.50Q544 1208 539 1245Q536 1210 530 1168Q524 1126 516 1080Q508 1034 498 987L420 596L659 596M516 1901Q535 1858 566 1799.50Q597 1741 629.50 1686.50Q662 1632 684 1600L684 1573L494 1573Q467 1597 427.50 1637Q388 1677 345.50 1723Q303 1769 267 1811.50Q231 1854 211 1882L211 1901L516 1901Z"  horiz-adv-x="1077" vert-adv-y="2048"  />

      
      <glyph glyph-name="unic1" unicode="&#xc1;" d="M778 0L702 352L377 352L301 0L0 0L354 1462L717 1462L1077 0L778 0M659 596L580 983Q572 1031 564.50 1077Q557 1123 550.50 1165.50Q544 1208 539 1245Q536 1210 530 1168Q524 1126 516 1080Q508 1034 498 987L420 596L659 596M872 1901L872 1882Q851 1853 818 1814Q785 1775 745.50 1732Q706 1689 665.50 1647.50Q625 1606 589 1573L399 1573L399 1600Q435 1654 465 1705.50Q495 1757 520.50 1806Q546 1855 567 1901L872 1901Z"  horiz-adv-x="1077" vert-adv-y="2048"  />

      
      <glyph glyph-name="unic2" unicode="&#xc2;" d="M778 0L702 352L377 352L301 0L0 0L354 1462L717 1462L1077 0L778 0M659 596L580 983Q572 1031 564.50 1077Q557 1123 550.50 1165.50Q544 1208 539 1245Q536 1210 530 1168Q524 1126 516 1080Q508 1034 498 987L420 596L659 596M661 1901Q684 1856 714.50 1805.50Q745 1755 780.50 1702.50Q816 1650 854 1600L854 1573L694 1573Q659 1604 620.50 1645.50Q582 1687 538 1739Q494 1687 455 1643Q416 1599 385 1573L223 1573L223 1600Q255 1640 292.50 1695.50Q330 1751 364 1806.50Q398 1862 417 1901L661 1901Z"  horiz-adv-x="1077" vert-adv-y="2048"  />

      
      <glyph glyph-name="unic3" unicode="&#xc3;" d="M778 0L702 352L377 352L301 0L0 0L354 1462L717 1462L1077 0L778 0M659 596L580 983Q572 1031 564.50 1077Q557 1123 550.50 1165.50Q544 1208 539 1245Q536 1210 530 1168Q524 1126 516 1080Q508 1034 498 987L420 596L659 596M205 1571Q207 1619 214.50 1672Q222 1725 241 1771.50Q260 1818 294.50 1847Q329 1876 383 1876Q424 1876 461 1860.50Q498 1845 533 1824Q568 1803 601 1787.50Q634 1772 666 1772Q694 1772 708 1800Q722 1828 729 1878L875 1878Q872 1730 821 1651.50Q770 1573 696 1573Q657 1573 617.50 1589Q578 1605 541 1625.50Q504 1646 472 1662Q440 1678 416 1678Q394 1678 375.50 1652.50Q357 1627 350 1571L205 1571Z"  horiz-adv-x="1077" vert-adv-y="2048"  />

      
      <glyph glyph-name="unic4" unicode="&#xc4;" d="M778 0L702 352L377 352L301 0L0 0L354 1462L717 1462L1077 0L778 0M659 596L580 983Q572 1031 564.50 1077Q557 1123 550.50 1165.50Q544 1208 539 1245Q536 1210 530 1168Q524 1126 516 1080Q508 1034 498 987L420 596L659 596M229 1727Q229 1795 263 1829.50Q297 1864 352 1864Q409 1864 443 1828Q477 1792 477 1727Q477 1664 443 1628Q409 1592 352 1592Q297 1592 263 1626.50Q229 1661 229 1727M600 1727Q600 1795 634 1829.50Q668 1864 725 1864Q782 1864 816 1828Q850 1792 850 1727Q850 1664 816 1628Q782 1592 725 1592Q668 1592 634 1627.50Q600 1663 600 1727Z"  horiz-adv-x="1077" vert-adv-y="2048"  />

      
      <glyph glyph-name="unic5" unicode="&#xc5;" d="M778 0L702 352L377 352L301 0L0 0L354 1462L717 1462L1077 0L778 0M659 596L580 983Q572 1031 564.50 1077Q557 1123 550.50 1165.50Q544 1208 539 1245Q536 1210 530 1168Q524 1126 516 1080Q508 1034 498 987L420 596L659 596M536 1325Q429 1325 364 1390.50Q299 1456 299 1559Q299 1663 364 1728.50Q429 1794 536 1794Q643 1794 709.50 1728Q776 1662 776 1561Q776 1459 711 1392Q646 1325 536 1325M539 1468Q579 1468 606 1493.50Q633 1519 633 1561Q633 1601 606.50 1627Q580 1653 539 1653Q499 1653 471.50 1627Q444 1601 444 1561Q444 1519 468.50 1493.50Q493 1468 539 1468Z"  horiz-adv-x="1077" vert-adv-y="2048"  />

      
      <glyph glyph-name="unic6" unicode="&#xc6;" d="M1331 0L678 0L678 352L397 352L299 0L-6 0L440 1462L1331 1462L1331 1221L954 1221L954 879L1305 879L1305 639L954 639L954 244L1331 244L1331 0M463 596L678 596L678 1221L633 1221L463 596Z"  horiz-adv-x="1417" vert-adv-y="2048"  />

      
      <glyph glyph-name="unic7" unicode="&#xc7;" d="M633 1241Q569 1241 521 1203Q473 1165 441.50 1095.50Q410 1026 394.50 932Q379 838 379 727Q379 564 410 451.50Q441 339 501 281Q561 223 647 223Q715 223 776 246Q837 269 897 301L897 51Q834 16 761.50-2Q689-20 606-20Q441-20 325.50 67.50Q210 155 149 322.50Q88 490 88 729Q88 893 122.50 1030.50Q157 1168 224 1269.50Q291 1371 388.50 1427Q486 1483 612 1483Q700 1483 782 1461Q864 1439 940 1393L860 1161Q806 1198 751 1219.50Q696 1241 633 1241M768-266Q768-372 702.50-432Q637-492 514-492Q469-492 431-487Q393-482 362-475L362-319Q390-327 416-330.50Q442-334 465-334Q512-334 536.50-314.50Q561-295 561-260Q561-219 523-195.50Q485-172 417-168L487 0L622 0L587-82Q645-92 685-116.50Q725-141 746.50-179Q768-217 768-266Z"  horiz-adv-x="989" vert-adv-y="2048"  />

      
      <glyph glyph-name="unic8" unicode="&#xc8;" d="M788 0L131 0L131 1462L788 1462L788 1223L412 1223L412 879L762 879L762 639L412 639L412 244L788 244L788 0M442 1901Q461 1858 492 1799.50Q523 1741 555.50 1686.50Q588 1632 610 1600L610 1573L420 1573Q393 1597 353.50 1637Q314 1677 271.50 1723Q229 1769 193 1811.50Q157 1854 137 1882L137 1901L442 1901Z"  horiz-adv-x="874" vert-adv-y="2048"  />

      
      <glyph glyph-name="unic9" unicode="&#xc9;" d="M788 0L131 0L131 1462L788 1462L788 1223L412 1223L412 879L762 879L762 639L412 639L412 244L788 244L788 0M801 1901L801 1882Q780 1853 747 1814Q714 1775 674.50 1732Q635 1689 594.50 1647.50Q554 1606 518 1573L328 1573L328 1600Q364 1654 394 1705.50Q424 1757 449.50 1806Q475 1855 496 1901L801 1901Z"  horiz-adv-x="874" vert-adv-y="2048"  />

      
      <glyph glyph-name="unica" unicode="&#xca;" d="M788 0L131 0L131 1462L788 1462L788 1223L412 1223L412 879L762 879L762 639L412 639L412 244L788 244L788 0M579 1901Q602 1856 632.50 1805.50Q663 1755 698.50 1702.50Q734 1650 772 1600L772 1573L612 1573Q577 1604 538.50 1645.50Q500 1687 456 1739Q412 1687 373 1643Q334 1599 303 1573L141 1573L141 1600Q173 1640 210.50 1695.50Q248 1751 282 1806.50Q316 1862 335 1901L579 1901Z"  horiz-adv-x="874" vert-adv-y="2048"  />

      
      <glyph glyph-name="unicb" unicode="&#xcb;" d="M788 0L131 0L131 1462L788 1462L788 1223L412 1223L412 879L762 879L762 639L412 639L412 244L788 244L788 0M145 1727Q145 1795 179 1829.50Q213 1864 268 1864Q325 1864 359 1828Q393 1792 393 1727Q393 1664 359 1628Q325 1592 268 1592Q213 1592 179 1626.50Q145 1661 145 1727M516 1727Q516 1795 550 1829.50Q584 1864 641 1864Q698 1864 732 1828Q766 1792 766 1727Q766 1664 732 1628Q698 1592 641 1592Q584 1592 550 1627.50Q516 1663 516 1727Z"  horiz-adv-x="874" vert-adv-y="2048"  />

      
      <glyph glyph-name="unicc" unicode="&#xcc;" d="M131 0L131 1462L412 1462L412 0L131 0M236 1911Q255 1868 286 1809.50Q317 1751 349.50 1696.50Q382 1642 404 1610L404 1583L214 1583Q187 1607 147.50 1647Q108 1687 65.50 1733Q23 1779-13 1821.50Q-49 1864-69 1892L-69 1911L236 1911Z"  horiz-adv-x="543" vert-adv-y="2048"  />

      
      <glyph glyph-name="unicd" unicode="&#xcd;" d="M131 0L131 1462L412 1462L412 0L131 0M610 1911L610 1892Q589 1863 556 1824Q523 1785 483.50 1742Q444 1699 403.50 1657.50Q363 1616 327 1583L137 1583L137 1610Q173 1664 203 1715.50Q233 1767 258.50 1816Q284 1865 305 1911L610 1911Z"  horiz-adv-x="543" vert-adv-y="2048"  />

      
      <glyph glyph-name="unice" unicode="&#xce;" d="M131 0L131 1462L412 1462L412 0L131 0M393 1911Q416 1866 446.50 1815.50Q477 1765 512.50 1712.50Q548 1660 586 1610L586 1583L426 1583Q391 1614 352.50 1655.50Q314 1697 270 1749Q226 1697 187 1653Q148 1609 117 1583L-45 1583L-45 1610Q-13 1650 24.50 1705.50Q62 1761 96 1816.50Q130 1872 149 1911L393 1911Z"  horiz-adv-x="543" vert-adv-y="2048"  />

      
      <glyph glyph-name="unicf" unicode="&#xcf;" d="M131 0L131 1462L412 1462L412 0L131 0M-42 1737Q-42 1805-8 1839.50Q26 1874 81 1874Q138 1874 172 1838Q206 1802 206 1737Q206 1674 172 1638Q138 1602 81 1602Q26 1602-8 1636.50Q-42 1671-42 1737M329 1737Q329 1805 363 1839.50Q397 1874 454 1874Q511 1874 545 1838Q579 1802 579 1737Q579 1674 545 1638Q511 1602 454 1602Q397 1602 363 1637.50Q329 1673 329 1737Z"  horiz-adv-x="543" vert-adv-y="2048"  />

      
      <glyph glyph-name="unid0" unicode="&#xd0;" d="M496 1462Q676 1462 801.50 1381Q927 1300 992 1143Q1057 986 1057 758Q1057 513 989.50 344Q922 175 792.50 87.50Q663 0 475 0L131 0L131 649L16 649L16 860L131 860L131 1462L496 1462M492 1219L412 1219L412 860L573 860L573 649L412 649L412 246L473 246Q625 246 696.50 369Q768 492 768 745Q768 909 737 1014Q706 1119 644.50 1169Q583 1219 492 1219Z"  horiz-adv-x="1145" vert-adv-y="2048"  />

      
      <glyph glyph-name="unid1" unicode="&#xd1;" d="M1143 0L813 0L385 1020L377 1020Q383 949 386.50 886.50Q390 824 391.50 772Q393 720 393 678L393 0L131 0L131 1462L459 1462L885 465L893 465Q889 534 886 593.50Q883 653 881 704Q879 755 879 797L879 1462L1143 1462L1143 0M305 1571Q307 1619 314.50 1672Q322 1725 341 1771.50Q360 1818 394.50 1847Q429 1876 483 1876Q524 1876 561 1860.50Q598 1845 633 1824Q668 1803 701 1787.50Q734 1772 766 1772Q794 1772 808 1800Q822 1828 829 1878L975 1878Q972 1730 921 1651.50Q870 1573 796 1573Q757 1573 717.50 1589Q678 1605 641 1625.50Q604 1646 572 1662Q540 1678 516 1678Q494 1678 475.50 1652.50Q457 1627 450 1571L305 1571Z"  horiz-adv-x="1273" vert-adv-y="2048"  />

      
      <glyph glyph-name="unid2" unicode="&#xd2;" d="M1126 733Q1126 559 1094 419.50Q1062 280 998 182Q934 84 836.50 32Q739-20 608-20Q476-20 378 32.50Q280 85 216 184Q152 283 120 422Q88 561 88 735Q88 981 147 1148Q206 1315 322 1400Q438 1485 608 1485Q785 1485 899.50 1394Q1014 1303 1070 1134.50Q1126 966 1126 733M379 733Q379 565 405 452.50Q431 340 482 283.50Q533 227 608 227Q684 227 734.50 282Q785 337 810.50 449Q836 561 836 733Q836 990 779 1115.50Q722 1241 608 1241Q533 1241 482 1184Q431 1127 405 1014Q379 901 379 733M588 1901Q607 1858 638 1799.50Q669 1741 701.50 1686.50Q734 1632 756 1600L756 1573L566 1573Q539 1597 499.50 1637Q460 1677 417.50 1723Q375 1769 339 1811.50Q303 1854 283 1882L283 1901L588 1901Z"  horiz-adv-x="1214" vert-adv-y="2048"  />

      
      <glyph glyph-name="unid3" unicode="&#xd3;" d="M1126 733Q1126 559 1094 419.50Q1062 280 998 182Q934 84 836.50 32Q739-20 608-20Q476-20 378 32.50Q280 85 216 184Q152 283 120 422Q88 561 88 735Q88 981 147 1148Q206 1315 322 1400Q438 1485 608 1485Q785 1485 899.50 1394Q1014 1303 1070 1134.50Q1126 966 1126 733M379 733Q379 565 405 452.50Q431 340 482 283.50Q533 227 608 227Q684 227 734.50 282Q785 337 810.50 449Q836 561 836 733Q836 990 779 1115.50Q722 1241 608 1241Q533 1241 482 1184Q431 1127 405 1014Q379 901 379 733M961 1901L961 1882Q940 1853 907 1814Q874 1775 834.50 1732Q795 1689 754.50 1647.50Q714 1606 678 1573L488 1573L488 1600Q524 1654 554 1705.50Q584 1757 609.50 1806Q635 1855 656 1901L961 1901Z"  horiz-adv-x="1214" vert-adv-y="2048"  />

      
      <glyph glyph-name="unid4" unicode="&#xd4;" d="M1126 733Q1126 559 1094 419.50Q1062 280 998 182Q934 84 836.50 32Q739-20 608-20Q476-20 378 32.50Q280 85 216 184Q152 283 120 422Q88 561 88 735Q88 981 147 1148Q206 1315 322 1400Q438 1485 608 1485Q785 1485 899.50 1394Q1014 1303 1070 1134.50Q1126 966 1126 733M379 733Q379 565 405 452.50Q431 340 482 283.50Q533 227 608 227Q684 227 734.50 282Q785 337 810.50 449Q836 561 836 733Q836 990 779 1115.50Q722 1241 608 1241Q533 1241 482 1184Q431 1127 405 1014Q379 901 379 733M731 1901Q754 1856 784.50 1805.50Q815 1755 850.50 1702.50Q886 1650 924 1600L924 1573L764 1573Q729 1604 690.50 1645.50Q652 1687 608 1739Q564 1687 525 1643Q486 1599 455 1573L293 1573L293 1600Q325 1640 362.50 1695.50Q400 1751 434 1806.50Q468 1862 487 1901L731 1901Z"  horiz-adv-x="1214" vert-adv-y="2048"  />

      
      <glyph glyph-name="unid5" unicode="&#xd5;" d="M1126 733Q1126 559 1094 419.50Q1062 280 998 182Q934 84 836.50 32Q739-20 608-20Q476-20 378 32.50Q280 85 216 184Q152 283 120 422Q88 561 88 735Q88 981 147 1148Q206 1315 322 1400Q438 1485 608 1485Q785 1485 899.50 1394Q1014 1303 1070 1134.50Q1126 966 1126 733M379 733Q379 565 405 452.50Q431 340 482 283.50Q533 227 608 227Q684 227 734.50 282Q785 337 810.50 449Q836 561 836 733Q836 990 779 1115.50Q722 1241 608 1241Q533 1241 482 1184Q431 1127 405 1014Q379 901 379 733M277 1571Q279 1619 286.50 1672Q294 1725 313 1771.50Q332 1818 366.50 1847Q401 1876 455 1876Q496 1876 533 1860.50Q570 1845 605 1824Q640 1803 673 1787.50Q706 1772 738 1772Q766 1772 780 1800Q794 1828 801 1878L947 1878Q944 1730 893 1651.50Q842 1573 768 1573Q729 1573 689.50 1589Q650 1605 613 1625.50Q576 1646 544 1662Q512 1678 488 1678Q466 1678 447.50 1652.50Q429 1627 422 1571L277 1571Z"  horiz-adv-x="1214" vert-adv-y="2048"  />

      
      <glyph glyph-name="unid6" unicode="&#xd6;" d="M1126 733Q1126 559 1094 419.50Q1062 280 998 182Q934 84 836.50 32Q739-20 608-20Q476-20 378 32.50Q280 85 216 184Q152 283 120 422Q88 561 88 735Q88 981 147 1148Q206 1315 322 1400Q438 1485 608 1485Q785 1485 899.50 1394Q1014 1303 1070 1134.50Q1126 966 1126 733M379 733Q379 565 405 452.50Q431 340 482 283.50Q533 227 608 227Q684 227 734.50 282Q785 337 810.50 449Q836 561 836 733Q836 990 779 1115.50Q722 1241 608 1241Q533 1241 482 1184Q431 1127 405 1014Q379 901 379 733M301 1727Q301 1795 335 1829.50Q369 1864 424 1864Q481 1864 515 1828Q549 1792 549 1727Q549 1664 515 1628Q481 1592 424 1592Q369 1592 335 1626.50Q301 1661 301 1727M672 1727Q672 1795 706 1829.50Q740 1864 797 1864Q854 1864 888 1828Q922 1792 922 1727Q922 1664 888 1628Q854 1592 797 1592Q740 1592 706 1627.50Q672 1663 672 1727Z"  horiz-adv-x="1214" vert-adv-y="2048"  />

      
      <glyph glyph-name="unid7" unicode="&#xd7;" d="M745 1137L897 987L633 723L893 461L743 311L481 571L217 311L72 463L330 723L72 983L219 1135L481 877L745 1137Z"  horiz-adv-x="969" vert-adv-y="2048"  />

      
      <glyph glyph-name="unid8" unicode="&#xd8;" d="M1126 733Q1126 550 1092.50 409.50Q1059 269 993.50 173.50Q928 78 831.50 29Q735-20 608-20Q536-20 474.50-3.50Q413 13 360 47L289-104L147-39L242 150Q157 263 122.50 408Q88 553 88 735Q88 981 147 1148Q206 1315 322 1400Q438 1485 608 1485Q682 1485 746.50 1465.50Q811 1446 864 1409L932 1546L1071 1481L983 1303Q1055 1209 1090.50 1065.50Q1126 922 1126 733M844 733Q844 807 838 871Q832 935 821 987L471 281Q497 249 532 233Q567 217 608 217Q686 217 738.50 274.50Q791 332 817.50 446.50Q844 561 844 733M373 733Q373 649 379.50 579.50Q386 510 399 455L756 1169Q727 1210 691 1228.50Q655 1247 610 1247Q531 1247 478 1189.50Q425 1132 399 1017.50Q373 903 373 733Z"  horiz-adv-x="1214" vert-adv-y="2048"  />

      
      <glyph glyph-name="unid9" unicode="&#xd9;" d="M1028 1462L1028 481Q1028 313 976 202Q924 91 823 35.50Q722-20 573-20Q356-20 239.50 102.50Q123 225 123 475L123 1462L403 1462L403 485Q403 346 447 286.50Q491 227 575 227Q634 227 672.50 252.50Q711 278 730.50 335Q750 392 750 487L750 1462L1028 1462M561 1901Q580 1858 611 1799.50Q642 1741 674.50 1686.50Q707 1632 729 1600L729 1573L539 1573Q512 1597 472.50 1637Q433 1677 390.50 1723Q348 1769 312 1811.50Q276 1854 256 1882L256 1901L561 1901Z"  horiz-adv-x="1151" vert-adv-y="2048"  />

      
      <glyph glyph-name="unida" unicode="&#xda;" d="M1028 1462L1028 481Q1028 313 976 202Q924 91 823 35.50Q722-20 573-20Q356-20 239.50 102.50Q123 225 123 475L123 1462L403 1462L403 485Q403 346 447 286.50Q491 227 575 227Q634 227 672.50 252.50Q711 278 730.50 335Q750 392 750 487L750 1462L1028 1462M926 1901L926 1882Q905 1853 872 1814Q839 1775 799.50 1732Q760 1689 719.50 1647.50Q679 1606 643 1573L453 1573L453 1600Q489 1654 519 1705.50Q549 1757 574.50 1806Q600 1855 621 1901L926 1901Z"  horiz-adv-x="1151" vert-adv-y="2048"  />

      
      <glyph glyph-name="unidb" unicode="&#xdb;" d="M1028 1462L1028 481Q1028 313 976 202Q924 91 823 35.50Q722-20 573-20Q356-20 239.50 102.50Q123 225 123 475L123 1462L403 1462L403 485Q403 346 447 286.50Q491 227 575 227Q634 227 672.50 252.50Q711 278 730.50 335Q750 392 750 487L750 1462L1028 1462M698 1901Q721 1856 751.50 1805.50Q782 1755 817.50 1702.50Q853 1650 891 1600L891 1573L731 1573Q696 1604 657.50 1645.50Q619 1687 575 1739Q531 1687 492 1643Q453 1599 422 1573L260 1573L260 1600Q292 1640 329.50 1695.50Q367 1751 401 1806.50Q435 1862 454 1901L698 1901Z"  horiz-adv-x="1151" vert-adv-y="2048"  />

      
      <glyph glyph-name="unidc" unicode="&#xdc;" d="M1028 1462L1028 481Q1028 313 976 202Q924 91 823 35.50Q722-20 573-20Q356-20 239.50 102.50Q123 225 123 475L123 1462L403 1462L403 485Q403 346 447 286.50Q491 227 575 227Q634 227 672.50 252.50Q711 278 730.50 335Q750 392 750 487L750 1462L1028 1462M266 1727Q266 1795 300 1829.50Q334 1864 389 1864Q446 1864 480 1828Q514 1792 514 1727Q514 1664 480 1628Q446 1592 389 1592Q334 1592 300 1626.50Q266 1661 266 1727M637 1727Q637 1795 671 1829.50Q705 1864 762 1864Q819 1864 853 1828Q887 1792 887 1727Q887 1664 853 1628Q819 1592 762 1592Q705 1592 671 1627.50Q637 1663 637 1727Z"  horiz-adv-x="1151" vert-adv-y="2048"  />

      
      <glyph glyph-name="unidd" unicode="&#xdd;" d="M487 868L682 1462L971 1462L625 563L625 0L346 0L346 555L0 1462L291 1462L487 868M838 1901L838 1882Q817 1853 784 1814Q751 1775 711.50 1732Q672 1689 631.50 1647.50Q591 1606 555 1573L365 1573L365 1600Q401 1654 431 1705.50Q461 1757 486.50 1806Q512 1855 533 1901L838 1901Z"  horiz-adv-x="971" vert-adv-y="2048"  />

      
      <glyph glyph-name="unide" unicode="&#xde;" d="M928 784Q928 677 902.50 586.50Q877 496 824 429.50Q771 363 688.50 326Q606 289 492 289L412 289L412 0L131 0L131 1462L412 1462L412 1233L498 1233Q716 1233 822 1118.50Q928 1004 928 784M412 528L465 528Q529 528 570 554Q611 580 631 635.50Q651 691 651 780Q651 890 610 941.50Q569 993 483 993L412 993L412 528Z"  horiz-adv-x="973" vert-adv-y="2048"  />

      
      <glyph glyph-name="unidf" unicode="&#xdf;" d="M946 1223Q946 1150 926 1099Q906 1048 877 1010.50Q848 973 819 943.50Q790 914 770 885Q750 856 750 821Q750 799 761.50 775Q773 751 797 725Q821 699 858 668Q920 616 960.50 567Q1001 518 1021.50 462.50Q1042 407 1042 334Q1042 219 1002.50 140Q963 61 886.50 20.50Q810-20 700-20Q642-20 580.50-7Q519 6 463 37L463 289Q495 266 528.50 248Q562 230 596.50 220.50Q631 211 664 211Q719 211 745.50 238.50Q772 266 772 313Q772 346 760.50 373Q749 400 720.50 430Q692 460 641 502Q574 557 539.50 608.50Q505 660 493 708.50Q481 757 481 803Q481 861 501 903Q521 945 550.50 978.50Q580 1012 609 1044.50Q638 1077 658 1115.50Q678 1154 678 1206Q678 1265 644 1303Q610 1341 539 1341Q488 1341 452.50 1314Q417 1287 399 1234Q381 1181 381 1102L381 0L115 0L115 1128Q115 1264 166.50 1362Q218 1460 313.50 1513.50Q409 1567 541 1567Q662 1567 753 1526Q844 1485 895 1408.50Q946 1332 946 1223Z"  horiz-adv-x="1098" vert-adv-y="2048"  />

      
      <glyph glyph-name="unie0" unicode="&#xe0;" d="M504 1141Q667 1141 752.50 1040.50Q838 940 838 741L838 0L643 0L600 150L594 150Q560 93 521.50 55Q483 17 434-1.50Q385-20 319-20Q226-20 168.50 30Q111 80 85 160Q59 240 59 330Q59 505 156 595Q253 685 432 692L571 698L571 743Q571 835 542.50 880.50Q514 926 449 926Q401 926 344 907Q287 888 219 848L145 1047Q221 1093 312 1117Q403 1141 504 1141M571 520L496 516Q411 512 369.50 468.50Q328 425 328 342Q328 267 353.50 230Q379 193 428 193Q491 193 531 254Q571 315 571 418L571 520M493 1569Q512 1526 543 1467.50Q574 1409 606.50 1354.50Q639 1300 661 1268L661 1241L471 1241Q444 1265 404.50 1305Q365 1345 322.50 1391Q280 1437 244 1479.50Q208 1522 188 1550L188 1569L493 1569Z"  horiz-adv-x="950" vert-adv-y="2048"  />

      
      <glyph glyph-name="unie1" unicode="&#xe1;" d="M504 1141Q667 1141 752.50 1040.50Q838 940 838 741L838 0L643 0L600 150L594 150Q560 93 521.50 55Q483 17 434-1.50Q385-20 319-20Q226-20 168.50 30Q111 80 85 160Q59 240 59 330Q59 505 156 595Q253 685 432 692L571 698L571 743Q571 835 542.50 880.50Q514 926 449 926Q401 926 344 907Q287 888 219 848L145 1047Q221 1093 312 1117Q403 1141 504 1141M571 520L496 516Q411 512 369.50 468.50Q328 425 328 342Q328 267 353.50 230Q379 193 428 193Q491 193 531 254Q571 315 571 418L571 520M821 1569L821 1550Q800 1521 767 1482Q734 1443 694.50 1400Q655 1357 614.50 1315.50Q574 1274 538 1241L348 1241L348 1268Q384 1322 414 1373.50Q444 1425 469.50 1474Q495 1523 516 1569L821 1569Z"  horiz-adv-x="950" vert-adv-y="2048"  />

      
      <glyph glyph-name="unie2" unicode="&#xe2;" d="M504 1141Q667 1141 752.50 1040.50Q838 940 838 741L838 0L643 0L600 150L594 150Q560 93 521.50 55Q483 17 434-1.50Q385-20 319-20Q226-20 168.50 30Q111 80 85 160Q59 240 59 330Q59 505 156 595Q253 685 432 692L571 698L571 743Q571 835 542.50 880.50Q514 926 449 926Q401 926 344 907Q287 888 219 848L145 1047Q221 1093 312 1117Q403 1141 504 1141M571 520L496 516Q411 512 369.50 468.50Q328 425 328 342Q328 267 353.50 230Q379 193 428 193Q491 193 531 254Q571 315 571 418L571 520M614 1569Q637 1524 667.50 1473.50Q698 1423 733.50 1370.50Q769 1318 807 1268L807 1241L647 1241Q612 1272 573.50 1313.50Q535 1355 491 1407Q447 1355 408 1311Q369 1267 338 1241L176 1241L176 1268Q208 1308 245.50 1363.50Q283 1419 317 1474.50Q351 1530 370 1569L614 1569Z"  horiz-adv-x="950" vert-adv-y="2048"  />

      
      <glyph glyph-name="unie3" unicode="&#xe3;" d="M504 1141Q667 1141 752.50 1040.50Q838 940 838 741L838 0L643 0L600 150L594 150Q560 93 521.50 55Q483 17 434-1.50Q385-20 319-20Q226-20 168.50 30Q111 80 85 160Q59 240 59 330Q59 505 156 595Q253 685 432 692L571 698L571 743Q571 835 542.50 880.50Q514 926 449 926Q401 926 344 907Q287 888 219 848L145 1047Q221 1093 312 1117Q403 1141 504 1141M571 520L496 516Q411 512 369.50 468.50Q328 425 328 342Q328 267 353.50 230Q379 193 428 193Q491 193 531 254Q571 315 571 418L571 520M156 1239Q158 1287 165.50 1340Q173 1393 192 1439.50Q211 1486 245.50 1515Q280 1544 334 1544Q375 1544 412 1528.50Q449 1513 484 1492Q519 1471 552 1455.50Q585 1440 617 1440Q645 1440 659 1468Q673 1496 680 1546L826 1546Q823 1398 772 1319.50Q721 1241 647 1241Q608 1241 568.50 1257Q529 1273 492 1293.50Q455 1314 423 1330Q391 1346 367 1346Q345 1346 326.50 1320.50Q308 1295 301 1239L156 1239Z"  horiz-adv-x="950" vert-adv-y="2048"  />

      
      <glyph glyph-name="unie4" unicode="&#xe4;" d="M504 1141Q667 1141 752.50 1040.50Q838 940 838 741L838 0L643 0L600 150L594 150Q560 93 521.50 55Q483 17 434-1.50Q385-20 319-20Q226-20 168.50 30Q111 80 85 160Q59 240 59 330Q59 505 156 595Q253 685 432 692L571 698L571 743Q571 835 542.50 880.50Q514 926 449 926Q401 926 344 907Q287 888 219 848L145 1047Q221 1093 312 1117Q403 1141 504 1141M571 520L496 516Q411 512 369.50 468.50Q328 425 328 342Q328 267 353.50 230Q379 193 428 193Q491 193 531 254Q571 315 571 418L571 520M180 1395Q180 1463 214 1497.50Q248 1532 303 1532Q360 1532 394 1496Q428 1460 428 1395Q428 1332 394 1296Q360 1260 303 1260Q248 1260 214 1294.50Q180 1329 180 1395M551 1395Q551 1463 585 1497.50Q619 1532 676 1532Q733 1532 767 1496Q801 1460 801 1395Q801 1332 767 1296Q733 1260 676 1260Q619 1260 585 1295.50Q551 1331 551 1395Z"  horiz-adv-x="950" vert-adv-y="2048"  />

      
      <glyph glyph-name="unie5" unicode="&#xe5;" d="M504 1141Q667 1141 752.50 1040.50Q838 940 838 741L838 0L643 0L600 150L594 150Q560 93 521.50 55Q483 17 434-1.50Q385-20 319-20Q226-20 168.50 30Q111 80 85 160Q59 240 59 330Q59 505 156 595Q253 685 432 692L571 698L571 743Q571 835 542.50 880.50Q514 926 449 926Q401 926 344 907Q287 888 219 848L145 1047Q221 1093 312 1117Q403 1141 504 1141M571 520L496 516Q411 512 369.50 468.50Q328 425 328 342Q328 267 353.50 230Q379 193 428 193Q491 193 531 254Q571 315 571 418L571 520M489 1241Q382 1241 317 1306.50Q252 1372 252 1475Q252 1579 317 1644.50Q382 1710 489 1710Q596 1710 662.50 1644Q729 1578 729 1477Q729 1375 664 1308Q599 1241 489 1241M492 1384Q532 1384 559 1409.50Q586 1435 586 1477Q586 1517 559.50 1543Q533 1569 492 1569Q452 1569 424.50 1543Q397 1517 397 1477Q397 1435 421.50 1409.50Q446 1384 492 1384Z"  horiz-adv-x="950" vert-adv-y="2048"  />

      
      <glyph glyph-name="unie6" unicode="&#xe6;" d="M971 1139Q1098 1139 1183.50 1077Q1269 1015 1312.50 901.50Q1356 788 1356 633L1356 483L823 483Q825 336 876.50 265.50Q928 195 1034 195Q1105 195 1170 214.50Q1235 234 1305 279L1305 57Q1239 17 1166-1.50Q1093-20 1004-20Q930-20 863 1Q796 22 742.50 65.50Q689 109 655 174Q614 107 566.50 64.50Q519 22 463.50 1Q408-20 342-20Q243-20 180.50 30Q118 80 88.50 160Q59 240 59 330Q59 447 102.50 525.50Q146 604 229.50 645.50Q313 687 432 692L571 698L571 743Q571 834 541 880Q511 926 449 926Q401 926 344 907Q287 888 219 848L145 1047Q216 1091 300 1116Q384 1141 473 1141Q561 1141 620.50 1111.50Q680 1082 717 1022Q761 1081 823.50 1110Q886 1139 971 1139M571 520L496 516Q411 512 369.50 469.50Q328 427 328 342Q328 267 353.50 230Q379 193 428 193Q470 193 502.50 220.50Q535 248 553 299Q571 350 571 418L571 520M969 928Q906 928 866 869Q826 810 823 676L1108 676Q1108 756 1092 812.50Q1076 869 1045 898.50Q1014 928 969 928Z"  horiz-adv-x="1423" vert-adv-y="2048"  />

      
      <glyph glyph-name="unie7" unicode="&#xe7;" d="M494-20Q354-20 260.50 42.50Q167 105 120.50 232.50Q74 360 74 555Q74 725 119 857.50Q164 990 258 1065.50Q352 1141 498 1141Q581 1141 647.50 1122.50Q714 1104 772 1067L698 854Q652 882 607.50 895.50Q563 909 518 909Q463 909 424 868.50Q385 828 364.50 749.50Q344 671 344 555Q344 440 364.50 363Q385 286 424.50 247.50Q464 209 522 209Q579 209 637 230Q695 251 750 291L750 63Q696 20 629.50 0Q563-20 494-20M693-266Q693-372 627.50-432Q562-492 439-492Q394-492 356-487Q318-482 287-475L287-319Q315-327 341-330.50Q367-334 390-334Q437-334 461.50-314.50Q486-295 486-260Q486-219 448-195.50Q410-172 342-168L412 0L547 0L512-82Q570-92 610-116.50Q650-141 671.50-179Q693-217 693-266Z"  horiz-adv-x="817" vert-adv-y="2048"  />

      
      <glyph glyph-name="unie8" unicode="&#xe8;" d="M479 1139Q605 1139 692.50 1077Q780 1015 825 901.50Q870 788 870 633L870 483L336 483Q338 336 390 266.50Q442 197 549 197Q620 197 683.50 215.50Q747 234 819 279L819 57Q752 17 676-1.50Q600-20 512-20Q358-20 261 49.50Q164 119 119 247.50Q74 376 74 553Q74 742 119.50 872.50Q165 1003 255 1071Q345 1139 479 1139M485 930Q419 930 380 870.50Q341 811 338 676L623 676Q623 755 607 812Q591 869 560 899.50Q529 930 485 930M479 1569Q498 1526 529 1467.50Q560 1409 592.50 1354.50Q625 1300 647 1268L647 1241L457 1241Q430 1265 390.50 1305Q351 1345 308.50 1391Q266 1437 230 1479.50Q194 1522 174 1550L174 1569L479 1569Z"  horiz-adv-x="936" vert-adv-y="2048"  />

      
      <glyph glyph-name="unie9" unicode="&#xe9;" d="M479 1139Q605 1139 692.50 1077Q780 1015 825 901.50Q870 788 870 633L870 483L336 483Q338 336 390 266.50Q442 197 549 197Q620 197 683.50 215.50Q747 234 819 279L819 57Q752 17 676-1.50Q600-20 512-20Q358-20 261 49.50Q164 119 119 247.50Q74 376 74 553Q74 742 119.50 872.50Q165 1003 255 1071Q345 1139 479 1139M485 930Q419 930 380 870.50Q341 811 338 676L623 676Q623 755 607 812Q591 869 560 899.50Q529 930 485 930M807 1569L807 1550Q786 1521 753 1482Q720 1443 680.50 1400Q641 1357 600.50 1315.50Q560 1274 524 1241L334 1241L334 1268Q370 1322 400 1373.50Q430 1425 455.50 1474Q481 1523 502 1569L807 1569Z"  horiz-adv-x="936" vert-adv-y="2048"  />

      
      <glyph glyph-name="uniea" unicode="&#xea;" d="M479 1139Q605 1139 692.50 1077Q780 1015 825 901.50Q870 788 870 633L870 483L336 483Q338 336 390 266.50Q442 197 549 197Q620 197 683.50 215.50Q747 234 819 279L819 57Q752 17 676-1.50Q600-20 512-20Q358-20 261 49.50Q164 119 119 247.50Q74 376 74 553Q74 742 119.50 872.50Q165 1003 255 1071Q345 1139 479 1139M485 930Q419 930 380 870.50Q341 811 338 676L623 676Q623 755 607 812Q591 869 560 899.50Q529 930 485 930M600 1569Q623 1524 653.50 1473.50Q684 1423 719.50 1370.50Q755 1318 793 1268L793 1241L633 1241Q598 1272 559.50 1313.50Q521 1355 477 1407Q433 1355 394 1311Q355 1267 324 1241L162 1241L162 1268Q194 1308 231.50 1363.50Q269 1419 303 1474.50Q337 1530 356 1569L600 1569Z"  horiz-adv-x="936" vert-adv-y="2048"  />

      
      <glyph glyph-name="unieb" unicode="&#xeb;" d="M479 1139Q605 1139 692.50 1077Q780 1015 825 901.50Q870 788 870 633L870 483L336 483Q338 336 390 266.50Q442 197 549 197Q620 197 683.50 215.50Q747 234 819 279L819 57Q752 17 676-1.50Q600-20 512-20Q358-20 261 49.50Q164 119 119 247.50Q74 376 74 553Q74 742 119.50 872.50Q165 1003 255 1071Q345 1139 479 1139M485 930Q419 930 380 870.50Q341 811 338 676L623 676Q623 755 607 812Q591 869 560 899.50Q529 930 485 930M166 1395Q166 1463 200 1497.50Q234 1532 289 1532Q346 1532 380 1496Q414 1460 414 1395Q414 1332 380 1296Q346 1260 289 1260Q234 1260 200 1294.50Q166 1329 166 1395M537 1395Q537 1463 571 1497.50Q605 1532 662 1532Q719 1532 753 1496Q787 1460 787 1395Q787 1332 753 1296Q719 1260 662 1260Q605 1260 571 1295.50Q537 1331 537 1395Z"  horiz-adv-x="936" vert-adv-y="2048"  />

      
      <glyph glyph-name="uniec" unicode="&#xec;" d="M383 0L117 0L117 1120L383 1120L383 0M250 1569Q269 1526 300 1467.50Q331 1409 363.50 1354.50Q396 1300 418 1268L418 1241L228 1241Q201 1265 161.50 1305Q122 1345 79.50 1391Q37 1437 1 1479.50Q-35 1522-55 1550L-55 1569L250 1569Z"  horiz-adv-x="500" vert-adv-y="2048"  />

      
      <glyph glyph-name="unied" unicode="&#xed;" d="M383 0L117 0L117 1120L383 1120L383 0M578 1569L578 1550Q557 1521 524 1482Q491 1443 451.50 1400Q412 1357 371.50 1315.50Q331 1274 295 1241L105 1241L105 1268Q141 1322 171 1373.50Q201 1425 226.50 1474Q252 1523 273 1569L578 1569Z"  horiz-adv-x="500" vert-adv-y="2048"  />

      
      <glyph glyph-name="uniee" unicode="&#xee;" d="M383 0L117 0L117 1120L383 1120L383 0M370 1569Q393 1524 423.50 1473.50Q454 1423 489.50 1370.50Q525 1318 563 1268L563 1241L403 1241Q368 1272 329.50 1313.50Q291 1355 247 1407Q203 1355 164 1311Q125 1267 94 1241L-68 1241L-68 1268Q-36 1308 1.50 1363.50Q39 1419 73 1474.50Q107 1530 126 1569L370 1569Z"  horiz-adv-x="500" vert-adv-y="2048"  />

      
      <glyph glyph-name="unief" unicode="&#xef;" d="M383 0L117 0L117 1120L383 1120L383 0M-64 1395Q-64 1463-30 1497.50Q4 1532 59 1532Q116 1532 150 1496Q184 1460 184 1395Q184 1332 150 1296Q116 1260 59 1260Q4 1260-30 1294.50Q-64 1329-64 1395M307 1395Q307 1463 341 1497.50Q375 1532 432 1532Q489 1532 523 1496Q557 1460 557 1395Q557 1332 523 1296Q489 1260 432 1260Q375 1260 341 1295.50Q307 1331 307 1395Z"  horiz-adv-x="500" vert-adv-y="2048"  />

      
      <glyph glyph-name="unif0" unicode="&#xf0;" d="M387 1569Q425 1547 465.50 1520Q506 1493 549 1458L694 1569L797 1440L668 1343Q749 1249 807 1136Q865 1023 896.50 880Q928 737 928 553Q928 372 878 243.50Q828 115 732 47.50Q636-20 498-20Q366-20 271 45Q176 110 125 225.50Q74 341 74 492Q74 653 125.50 765.50Q177 878 264 937.50Q351 997 457 997Q487 997 513 991.50Q539 986 562 975.50Q585 965 604 948L610 952Q595 1017 563.50 1078.50Q532 1140 487 1198L354 1098L254 1225L385 1325Q357 1351 328 1374.50Q299 1398 270 1419L387 1569M502 770Q449 770 413.50 739Q378 708 361 645Q344 582 344 485Q344 400 360.50 337Q377 274 412 239.50Q447 205 502 205Q586 205 621.50 277Q657 349 657 494Q657 558 648 609Q639 660 620 696Q601 732 572 751Q543 770 502 770Z"  horiz-adv-x="1001" vert-adv-y="2048"  />

      
      <glyph glyph-name="unif1" unicode="&#xf1;" d="M618 1141Q760 1141 836.50 1038.50Q913 936 913 741L913 0L647 0L647 664Q647 782 623 842.50Q599 903 532 903Q448 903 414.50 821Q381 739 381 539L381 0L115 0L115 1120L326 1120L354 977L371 977Q396 1030 432 1066.50Q468 1103 515 1122Q562 1141 618 1141M197 1239Q199 1287 206.50 1340Q214 1393 233 1439.50Q252 1486 286.50 1515Q321 1544 375 1544Q416 1544 453 1528.50Q490 1513 525 1492Q560 1471 593 1455.50Q626 1440 658 1440Q686 1440 700 1468Q714 1496 721 1546L867 1546Q864 1398 813 1319.50Q762 1241 688 1241Q649 1241 609.50 1257Q570 1273 533 1293.50Q496 1314 464 1330Q432 1346 408 1346Q386 1346 367.50 1320.50Q349 1295 342 1239L197 1239Z"  horiz-adv-x="1026" vert-adv-y="2048"  />

      
      <glyph glyph-name="unif2" unicode="&#xf2;" d="M926 563Q926 446 902.50 341Q879 236 828.50 155Q778 74 696.50 27Q615-20 498-20Q389-20 309 26Q229 72 177 152.50Q125 233 99.50 338.50Q74 444 74 563Q74 732 118.50 862.50Q163 993 257.50 1067Q352 1141 502 1141Q631 1141 726.50 1074Q822 1007 874 878.50Q926 750 926 563M344 559Q344 443 360.50 364Q377 285 411.50 245Q446 205 500 205Q555 205 588.50 244.50Q622 284 637.50 364Q653 444 653 563Q653 681 637.50 759Q622 837 588.50 876Q555 915 500 915Q418 915 381 828Q344 741 344 559M502 1569Q521 1526 552 1467.50Q583 1409 615.50 1354.50Q648 1300 670 1268L670 1241L480 1241Q453 1265 413.50 1305Q374 1345 331.50 1391Q289 1437 253 1479.50Q217 1522 197 1550L197 1569L502 1569Z"  horiz-adv-x="999" vert-adv-y="2048"  />

      
      <glyph glyph-name="unif3" unicode="&#xf3;" d="M926 563Q926 446 902.50 341Q879 236 828.50 155Q778 74 696.50 27Q615-20 498-20Q389-20 309 26Q229 72 177 152.50Q125 233 99.50 338.50Q74 444 74 563Q74 732 118.50 862.50Q163 993 257.50 1067Q352 1141 502 1141Q631 1141 726.50 1074Q822 1007 874 878.50Q926 750 926 563M344 559Q344 443 360.50 364Q377 285 411.50 245Q446 205 500 205Q555 205 588.50 244.50Q622 284 637.50 364Q653 444 653 563Q653 681 637.50 759Q622 837 588.50 876Q555 915 500 915Q418 915 381 828Q344 741 344 559M829 1569L829 1550Q808 1521 775 1482Q742 1443 702.50 1400Q663 1357 622.50 1315.50Q582 1274 546 1241L356 1241L356 1268Q392 1322 422 1373.50Q452 1425 477.50 1474Q503 1523 524 1569L829 1569Z"  horiz-adv-x="999" vert-adv-y="2048"  />

      
      <glyph glyph-name="unif4" unicode="&#xf4;" d="M926 563Q926 446 902.50 341Q879 236 828.50 155Q778 74 696.50 27Q615-20 498-20Q389-20 309 26Q229 72 177 152.50Q125 233 99.50 338.50Q74 444 74 563Q74 732 118.50 862.50Q163 993 257.50 1067Q352 1141 502 1141Q631 1141 726.50 1074Q822 1007 874 878.50Q926 750 926 563M344 559Q344 443 360.50 364Q377 285 411.50 245Q446 205 500 205Q555 205 588.50 244.50Q622 284 637.50 364Q653 444 653 563Q653 681 637.50 759Q622 837 588.50 876Q555 915 500 915Q418 915 381 828Q344 741 344 559M622 1569Q645 1524 675.50 1473.50Q706 1423 741.50 1370.50Q777 1318 815 1268L815 1241L655 1241Q620 1272 581.50 1313.50Q543 1355 499 1407Q455 1355 416 1311Q377 1267 346 1241L184 1241L184 1268Q216 1308 253.50 1363.50Q291 1419 325 1474.50Q359 1530 378 1569L622 1569Z"  horiz-adv-x="999" vert-adv-y="2048"  />

      
      <glyph glyph-name="unif5" unicode="&#xf5;" d="M926 563Q926 446 902.50 341Q879 236 828.50 155Q778 74 696.50 27Q615-20 498-20Q389-20 309 26Q229 72 177 152.50Q125 233 99.50 338.50Q74 444 74 563Q74 732 118.50 862.50Q163 993 257.50 1067Q352 1141 502 1141Q631 1141 726.50 1074Q822 1007 874 878.50Q926 750 926 563M344 559Q344 443 360.50 364Q377 285 411.50 245Q446 205 500 205Q555 205 588.50 244.50Q622 284 637.50 364Q653 444 653 563Q653 681 637.50 759Q622 837 588.50 876Q555 915 500 915Q418 915 381 828Q344 741 344 559M164 1239Q166 1287 173.50 1340Q181 1393 200 1439.50Q219 1486 253.50 1515Q288 1544 342 1544Q383 1544 420 1528.50Q457 1513 492 1492Q527 1471 560 1455.50Q593 1440 625 1440Q653 1440 667 1468Q681 1496 688 1546L834 1546Q831 1398 780 1319.50Q729 1241 655 1241Q616 1241 576.50 1257Q537 1273 500 1293.50Q463 1314 431 1330Q399 1346 375 1346Q353 1346 334.50 1320.50Q316 1295 309 1239L164 1239Z"  horiz-adv-x="999" vert-adv-y="2048"  />

      
      <glyph glyph-name="unif6" unicode="&#xf6;" d="M926 563Q926 446 902.50 341Q879 236 828.50 155Q778 74 696.50 27Q615-20 498-20Q389-20 309 26Q229 72 177 152.50Q125 233 99.50 338.50Q74 444 74 563Q74 732 118.50 862.50Q163 993 257.50 1067Q352 1141 502 1141Q631 1141 726.50 1074Q822 1007 874 878.50Q926 750 926 563M344 559Q344 443 360.50 364Q377 285 411.50 245Q446 205 500 205Q555 205 588.50 244.50Q622 284 637.50 364Q653 444 653 563Q653 681 637.50 759Q622 837 588.50 876Q555 915 500 915Q418 915 381 828Q344 741 344 559M188 1395Q188 1463 222 1497.50Q256 1532 311 1532Q368 1532 402 1496Q436 1460 436 1395Q436 1332 402 1296Q368 1260 311 1260Q256 1260 222 1294.50Q188 1329 188 1395M559 1395Q559 1463 593 1497.50Q627 1532 684 1532Q741 1532 775 1496Q809 1460 809 1395Q809 1332 775 1296Q741 1260 684 1260Q627 1260 593 1295.50Q559 1331 559 1395Z"  horiz-adv-x="999" vert-adv-y="2048"  />

      
      <glyph glyph-name="unif7" unicode="&#xf7;" d="M68 614L68 831L901 831L901 614L68 614M485 176Q419 176 381.50 216.50Q344 257 344 334Q344 409 380 449Q416 489 485 489Q551 489 586 449Q621 409 621 334Q621 257 584.50 216.50Q548 176 485 176M485 954Q419 954 381.50 994.50Q344 1035 344 1110Q344 1187 380 1227.50Q416 1268 485 1268Q551 1268 586 1227.50Q621 1187 621 1110Q621 1035 584.50 994.50Q548 954 485 954Z"  horiz-adv-x="969" vert-adv-y="2048"  />

      
      <glyph glyph-name="unif8" unicode="&#xf8;" d="M926 563Q926 380 876 249.50Q826 119 730.50 49.50Q635-20 498-20Q447-20 402.50-9Q358 2 317 25L246-125L111-61L201 119Q134 210 104 318.50Q74 427 74 563Q74 840 185.50 990.50Q297 1141 502 1141Q554 1141 599 1128.50Q644 1116 684 1090L748 1214L881 1151L805 993Q864 918 895 808Q926 698 926 563M332 559Q332 507 335.50 464Q339 421 346 387L596 887Q577 908 553 918Q529 928 500 928Q411 928 371.50 836.50Q332 745 332 559M668 563Q668 611 665 651Q662 691 657 723L410 227Q427 209 449.50 199.50Q472 190 498 190Q560 190 597 232Q634 274 651 357Q668 440 668 563Z"  horiz-adv-x="999" vert-adv-y="2048"  />

      
      <glyph glyph-name="unif9" unicode="&#xf9;" d="M911 1120L911 0L702 0L672 143L657 143Q632 89 596 53Q560 17 513.50-1.50Q467-20 410-20Q311-20 245 29Q179 78 146 169.50Q113 261 113 389L113 1120L379 1120L379 469Q379 343 404 280Q429 217 485 217Q552 217 586 256Q620 295 632.50 370Q645 445 645 551L645 1120L911 1120M516 1569Q535 1526 566 1467.50Q597 1409 629.50 1354.50Q662 1300 684 1268L684 1241L494 1241Q467 1265 427.50 1305Q388 1345 345.50 1391Q303 1437 267 1479.50Q231 1522 211 1550L211 1569L516 1569Z"  horiz-adv-x="1026" vert-adv-y="2048"  />

      
      <glyph glyph-name="unifa" unicode="&#xfa;" d="M911 1120L911 0L702 0L672 143L657 143Q632 89 596 53Q560 17 513.50-1.50Q467-20 410-20Q311-20 245 29Q179 78 146 169.50Q113 261 113 389L113 1120L379 1120L379 469Q379 343 404 280Q429 217 485 217Q552 217 586 256Q620 295 632.50 370Q645 445 645 551L645 1120L911 1120M844 1569L844 1550Q823 1521 790 1482Q757 1443 717.50 1400Q678 1357 637.50 1315.50Q597 1274 561 1241L371 1241L371 1268Q407 1322 437 1373.50Q467 1425 492.50 1474Q518 1523 539 1569L844 1569Z"  horiz-adv-x="1026" vert-adv-y="2048"  />

      
      <glyph glyph-name="unifb" unicode="&#xfb;" d="M911 1120L911 0L702 0L672 143L657 143Q632 89 596 53Q560 17 513.50-1.50Q467-20 410-20Q311-20 245 29Q179 78 146 169.50Q113 261 113 389L113 1120L379 1120L379 469Q379 343 404 280Q429 217 485 217Q552 217 586 256Q620 295 632.50 370Q645 445 645 551L645 1120L911 1120M637 1569Q660 1524 690.50 1473.50Q721 1423 756.50 1370.50Q792 1318 830 1268L830 1241L670 1241Q635 1272 596.50 1313.50Q558 1355 514 1407Q470 1355 431 1311Q392 1267 361 1241L199 1241L199 1268Q231 1308 268.50 1363.50Q306 1419 340 1474.50Q374 1530 393 1569L637 1569Z"  horiz-adv-x="1026" vert-adv-y="2048"  />

      
      <glyph glyph-name="unifc" unicode="&#xfc;" d="M911 1120L911 0L702 0L672 143L657 143Q632 89 596 53Q560 17 513.50-1.50Q467-20 410-20Q311-20 245 29Q179 78 146 169.50Q113 261 113 389L113 1120L379 1120L379 469Q379 343 404 280Q429 217 485 217Q552 217 586 256Q620 295 632.50 370Q645 445 645 551L645 1120L911 1120M202 1395Q202 1463 236 1497.50Q270 1532 325 1532Q382 1532 416 1496Q450 1460 450 1395Q450 1332 416 1296Q382 1260 325 1260Q270 1260 236 1294.50Q202 1329 202 1395M573 1395Q573 1463 607 1497.50Q641 1532 698 1532Q755 1532 789 1496Q823 1460 823 1395Q823 1332 789 1296Q755 1260 698 1260Q641 1260 607 1295.50Q573 1331 573 1395Z"  horiz-adv-x="1026" vert-adv-y="2048"  />

      
      <glyph glyph-name="unifd" unicode="&#xfd;" d="M6 1120L285 1120L416 578Q425 541 433 503.50Q441 466 446.50 431Q452 396 455 365L463 365Q468 406 478 457.50Q488 509 504 575L627 1120L903 1120L569-109Q532-247 481.50-331Q431-415 363-453.50Q295-492 203-492Q169-492 138-487Q107-482 76-475L76-240Q96-246 116.50-250Q137-254 156-254Q197-254 222.50-238Q248-222 268-179Q288-136 311-55L328 12L6 1120M784 1569L784 1550Q763 1521 730 1482Q697 1443 657.50 1400Q618 1357 577.50 1315.50Q537 1274 501 1241L311 1241L311 1268Q347 1322 377 1373.50Q407 1425 432.50 1474Q458 1523 479 1569L784 1569Z"  horiz-adv-x="909" vert-adv-y="2048"  />

      
      <glyph glyph-name="unife" unicode="&#xfe;" d="M950 557Q950 377 911.50 248Q873 119 801 49.50Q729-20 629-20Q577-20 531-1.50Q485 17 447.50 54Q410 91 381 147L373 147Q376 104 378 68.50Q380 33 381.50 5.50Q383-22 383-43L383-492L115-492L115 1556L381 1556L381 1178Q381 1126 379.50 1074.50Q378 1023 373 973L381 973Q416 1039 452 1075.50Q488 1112 529.50 1126.50Q571 1141 621 1141Q779 1141 864.50 988Q950 835 950 557M680 555Q680 740 644.50 827.50Q609 915 537 915Q455 915 418 837.50Q381 760 381 588L381 532Q381 365 419 288Q457 211 537 211Q590 211 621.50 253.50Q653 296 666.50 373.50Q680 451 680 555Z"  horiz-adv-x="1024" vert-adv-y="2048"  />

      
      <glyph glyph-name="uniff" unicode="&#xff;" d="M6 1120L285 1120L416 578Q425 541 433 503.50Q441 466 446.50 431Q452 396 455 365L463 365Q468 406 478 457.50Q488 509 504 575L627 1120L903 1120L569-109Q532-247 481.50-331Q431-415 363-453.50Q295-492 203-492Q169-492 138-487Q107-482 76-475L76-240Q96-246 116.50-250Q137-254 156-254Q197-254 222.50-238Q248-222 268-179Q288-136 311-55L328 12L6 1120M143 1395Q143 1463 177 1497.50Q211 1532 266 1532Q323 1532 357 1496Q391 1460 391 1395Q391 1332 357 1296Q323 1260 266 1260Q211 1260 177 1294.50Q143 1329 143 1395M514 1395Q514 1463 548 1497.50Q582 1532 639 1532Q696 1532 730 1496Q764 1460 764 1395Q764 1332 730 1296Q696 1260 639 1260Q582 1260 548 1295.50Q514 1331 514 1395Z"  horiz-adv-x="909" vert-adv-y="2048"  />

      
      <glyph glyph-name="uni0100" unicode="&#x0100;" d="M778 0L702 352L377 352L301 0L0 0L354 1462L717 1462L1077 0L778 0M659 596L580 983Q572 1031 564.50 1077Q557 1123 550.50 1165.50Q544 1208 539 1245Q536 1210 530 1168Q524 1126 516 1080Q508 1034 498 987L420 596L659 596M821 1802L821 1608L256 1608L256 1802L821 1802Z"  horiz-adv-x="1077" vert-adv-y="2048"  />

      
      <glyph glyph-name="uni0101" unicode="&#x0101;" d="M504 1141Q667 1141 752.50 1040.50Q838 940 838 741L838 0L643 0L600 150L594 150Q560 93 521.50 55Q483 17 434-1.50Q385-20 319-20Q226-20 168.50 30Q111 80 85 160Q59 240 59 330Q59 505 156 595Q253 685 432 692L571 698L571 743Q571 835 542.50 880.50Q514 926 449 926Q401 926 344 907Q287 888 219 848L145 1047Q221 1093 312 1117Q403 1141 504 1141M571 520L496 516Q411 512 369.50 468.50Q328 425 328 342Q328 267 353.50 230Q379 193 428 193Q491 193 531 254Q571 315 571 418L571 520M774 1460L774 1266L209 1266L209 1460L774 1460Z"  horiz-adv-x="950" vert-adv-y="2048"  />

      
      <glyph glyph-name="uni0102" unicode="&#x0102;" d="M778 0L702 352L377 352L301 0L0 0L354 1462L717 1462L1077 0L778 0M659 596L580 983Q572 1031 564.50 1077Q557 1123 550.50 1165.50Q544 1208 539 1245Q536 1210 530 1168Q524 1126 516 1080Q508 1034 498 987L420 596L659 596M834 1917Q834 1815 794.50 1740.50Q755 1666 687.50 1625.50Q620 1585 535 1585Q405 1585 324.50 1669Q244 1753 242 1917L404 1917Q407 1868 422.50 1836.50Q438 1805 466.50 1789.50Q495 1774 537 1774Q578 1774 607.50 1788.50Q637 1803 654 1834.50Q671 1866 674 1917L834 1917Z"  horiz-adv-x="1077" vert-adv-y="2048"  />

      
      <glyph glyph-name="uni0103" unicode="&#x0103;" d="M504 1141Q667 1141 752.50 1040.50Q838 940 838 741L838 0L643 0L600 150L594 150Q560 93 521.50 55Q483 17 434-1.50Q385-20 319-20Q226-20 168.50 30Q111 80 85 160Q59 240 59 330Q59 505 156 595Q253 685 432 692L571 698L571 743Q571 835 542.50 880.50Q514 926 449 926Q401 926 344 907Q287 888 219 848L145 1047Q221 1093 312 1117Q403 1141 504 1141M571 520L496 516Q411 512 369.50 468.50Q328 425 328 342Q328 267 353.50 230Q379 193 428 193Q491 193 531 254Q571 315 571 418L571 520M787 1575Q787 1473 747.50 1398.50Q708 1324 640.50 1283.50Q573 1243 488 1243Q358 1243 277.50 1327Q197 1411 195 1575L357 1575Q360 1526 375.50 1494.50Q391 1463 419.50 1447.50Q448 1432 490 1432Q531 1432 560.50 1446.50Q590 1461 607 1492.50Q624 1524 627 1575L787 1575Z"  horiz-adv-x="950" vert-adv-y="2048"  />

      
      <glyph glyph-name="uni0104" unicode="&#x0104;" d="M778 0L702 352L377 352L301 0L0 0L354 1462L717 1462L1077 0L778 0M659 596L580 983Q572 1031 564.50 1077Q557 1123 550.50 1165.50Q544 1208 539 1245Q536 1210 530 1168Q524 1126 516 1080Q508 1034 498 987L420 596L659 596M850-209Q850-249 872-274Q894-299 936-299Q962-299 979-293.50Q996-288 1010-281L1010-453Q988-463 955-471Q922-479 878-479Q760-479 701.50-422.50Q643-366 643-266Q643-218 661-167Q679-116 718-65.50Q757-15 819 31L960 0Q894-69 872-114Q850-159 850-209Z"  horiz-adv-x="1077" vert-adv-y="2048"  />

      
      <glyph glyph-name="uni0105" unicode="&#x0105;" d="M504 1141Q667 1141 752.50 1040.50Q838 940 838 741L838 0L643 0L600 150L594 150Q560 93 521.50 55Q483 17 434-1.50Q385-20 319-20Q226-20 168.50 30Q111 80 85 160Q59 240 59 330Q59 505 156 595Q253 685 432 692L571 698L571 743Q571 835 542.50 880.50Q514 926 449 926Q401 926 344 907Q287 888 219 848L145 1047Q221 1093 312 1117Q403 1141 504 1141M571 520L496 516Q411 512 369.50 468.50Q328 425 328 342Q328 267 353.50 230Q379 193 428 193Q491 193 531 254Q571 315 571 418L571 520M701-209Q701-249 723-274Q745-299 787-299Q813-299 830-293.50Q847-288 861-281L861-453Q839-463 806-471Q773-479 729-479Q611-479 552.50-422.50Q494-366 494-266Q494-218 512-167Q530-116 569-65.50Q608-15 670 31L811 0Q745-69 723-114Q701-159 701-209Z"  horiz-adv-x="950" vert-adv-y="2048"  />

      
      <glyph glyph-name="uni0106" unicode="&#x0106;" d="M633 1241Q569 1241 521 1203Q473 1165 441.50 1095.50Q410 1026 394.50 932Q379 838 379 727Q379 564 410 451.50Q441 339 501 281Q561 223 647 223Q715 223 776 246Q837 269 897 301L897 51Q834 16 761.50-2Q689-20 606-20Q441-20 325.50 67.50Q210 155 149 322.50Q88 490 88 729Q88 893 122.50 1030.50Q157 1168 224 1269.50Q291 1371 388.50 1427Q486 1483 612 1483Q700 1483 782 1461Q864 1439 940 1393L860 1161Q806 1198 751 1219.50Q696 1241 633 1241M917 1911L917 1892Q896 1863 863 1824Q830 1785 790.50 1742Q751 1699 710.50 1657.50Q670 1616 634 1583L444 1583L444 1610Q480 1664 510 1715.50Q540 1767 565.50 1816Q591 1865 612 1911L917 1911Z"  horiz-adv-x="989" vert-adv-y="2048"  />

      
      <glyph glyph-name="uni0107" unicode="&#x0107;" d="M494-20Q354-20 260.50 42.50Q167 105 120.50 232.50Q74 360 74 555Q74 725 119 857.50Q164 990 258 1065.50Q352 1141 498 1141Q581 1141 647.50 1122.50Q714 1104 772 1067L698 854Q652 882 607.50 895.50Q563 909 518 909Q463 909 424 868.50Q385 828 364.50 749.50Q344 671 344 555Q344 440 364.50 363Q385 286 424.50 247.50Q464 209 522 209Q579 209 637 230Q695 251 750 291L750 63Q696 20 629.50 0Q563-20 494-20M805 1569L805 1550Q784 1521 751 1482Q718 1443 678.50 1400Q639 1357 598.50 1315.50Q558 1274 522 1241L332 1241L332 1268Q368 1322 398 1373.50Q428 1425 453.50 1474Q479 1523 500 1569L805 1569Z"  horiz-adv-x="817" vert-adv-y="2048"  />

      
      <glyph glyph-name="uni0108" unicode="&#x0108;" d="M633 1241Q569 1241 521 1203Q473 1165 441.50 1095.50Q410 1026 394.50 932Q379 838 379 727Q379 564 410 451.50Q441 339 501 281Q561 223 647 223Q715 223 776 246Q837 269 897 301L897 51Q834 16 761.50-2Q689-20 606-20Q441-20 325.50 67.50Q210 155 149 322.50Q88 490 88 729Q88 893 122.50 1030.50Q157 1168 224 1269.50Q291 1371 388.50 1427Q486 1483 612 1483Q700 1483 782 1461Q864 1439 940 1393L860 1161Q806 1198 751 1219.50Q696 1241 633 1241M710 1911Q733 1866 763.50 1815.50Q794 1765 829.50 1712.50Q865 1660 903 1610L903 1583L743 1583Q708 1614 669.50 1655.50Q631 1697 587 1749Q543 1697 504 1653Q465 1609 434 1583L272 1583L272 1610Q304 1650 341.50 1705.50Q379 1761 413 1816.50Q447 1872 466 1911L710 1911Z"  horiz-adv-x="989" vert-adv-y="2048"  />

      
      </font>
</defs>
</svg>
