<?xml version="1.0" standalone="no"?>
  <!DOCTYPE svg PUBLIC "-//W3C//DTD SVG 1.1//EN" "http://www.w3.org/Graphics/SVG/1.1/DTD/svg11.dtd" >
  <svg>
  <metadata>
  Created by font-carrier
  </metadata>
  <defs>
  <font id="OpenSansCondensed-ExtraBoldItalic" horiz-adv-x="2320" vert-adv-y="2320" >
    <font-face
      
      font-family="Open Sans Condensed ExtraBold"
      
      font-weight="400"
      
      font-stretch="normal"
      
      units-per-em="2048"
      
      ascent="2189"
      
      descent="-600"
      
    />
      <missing-glyph />

      

      
      <glyph glyph-name="uni21" unicode="&#x21;" d="M113 516L268 1462L643 1462L397 516L113 516M147-25Q69-25 28.50 10.50Q-12 46-12 115Q-12 210 48 284Q108 358 223 358Q291 358 330 322Q369 286 369 221Q369 109 302 42Q235-25 147-25Z"  horiz-adv-x="530" vert-adv-y="2048"  />

      
      <glyph glyph-name="uni22" unicode="&#x22;" d="M616 934L692 1462L1040 1462L891 934L616 934M188 934L264 1462L610 1462L463 934L188 934Z"  horiz-adv-x="922" vert-adv-y="2048"  />

      
      <glyph glyph-name="uni23" unicode="&#x23;" d="M43 0L166 391L8 391L51 625L238 625L307 834L137 834L180 1073L379 1073L502 1462L743 1462L618 1073L745 1073L868 1462L1112 1462L987 1073L1149 1073L1104 834L915 834L848 625L1020 625L977 391L776 391L651 0L412 0L535 391L406 391L283 0L43 0M479 625L606 625L674 834L547 834L479 625Z"  horiz-adv-x="1081" vert-adv-y="2048"  />

      
      <glyph glyph-name="uni24" unicode="&#x24;" d="M291-121L332 72Q221 77 150.50 104.50Q80 132 27 170L96 504Q161 446 238.50 402.50Q316 359 391 350L446 618Q391 649 333 693.50Q275 738 235 804Q195 870 195 965Q195 1122 257.50 1218.50Q320 1315 417 1362Q514 1409 616 1415L645 1554L750 1554L721 1415Q828 1408 893 1381Q958 1354 1010 1319L864 1036Q812 1080 762 1105.50Q712 1131 662 1139L608 889Q664 856 721.50 813.50Q779 771 818.50 706Q858 641 858 541Q858 390 797 289.50Q736 189 639.50 135.50Q543 82 436 72L395-119L291-121M498 360Q521 370 538 385.50Q555 401 565 423Q575 445 575 473Q575 491 570.50 505.50Q566 520 558 533Q550 546 539 557L498 360M518 950L557 1137Q529 1129 510.50 1112Q492 1095 483.50 1073Q475 1051 475 1024Q475 1010 480.50 997Q486 984 495.50 972.50Q505 961 518 950Z"  horiz-adv-x="971" vert-adv-y="2048"  />

      
      <glyph glyph-name="uni25" unicode="&#x25;" d="M305 0L1128 1462L1382 1462L559 0L305 0M360 565Q239 565 176 640Q113 715 113 868Q113 936 128 1018Q143 1100 174 1182Q205 1264 253 1332Q301 1400 367.50 1441.50Q434 1483 520 1483Q633 1483 700.50 1410Q768 1337 768 1174Q768 1112 754 1032Q740 952 709.50 870.50Q679 789 631 719.50Q583 650 516 607.50Q449 565 360 565M391 791Q414 791 434 820Q454 849 470.50 895.50Q487 942 499 995Q511 1048 517.50 1098Q524 1148 524 1182Q524 1219 516 1236Q508 1253 489 1253Q467 1253 446.50 1224Q426 1195 409 1149Q392 1103 380 1050Q368 997 361 948Q354 899 354 864Q354 826 364.50 808.50Q375 791 391 791M1174-16Q1051-16 988.50 58.50Q926 133 926 287Q926 376 944 464.50Q962 553 996 631.50Q1030 710 1079.50 770.50Q1129 831 1192 866Q1255 901 1331 901Q1444 901 1511.50 828.50Q1579 756 1579 592Q1579 527 1564.50 446.50Q1550 366 1519.50 284.50Q1489 203 1441 135Q1393 67 1326.50 25.50Q1260-16 1174-16M1204 211Q1227 211 1247 239Q1267 267 1283.50 312.50Q1300 358 1312 410.50Q1324 463 1330.50 513Q1337 563 1337 600Q1337 637 1328 654.50Q1319 672 1300 672Q1274 672 1252.50 639.50Q1231 607 1215 556.50Q1199 506 1188.50 451Q1178 396 1172.50 350.50Q1167 305 1167 283Q1167 246 1176.50 228.50Q1186 211 1204 211Z"  horiz-adv-x="1620" vert-adv-y="2048"  />

      
      <glyph glyph-name="uni26" unicode="&#x26;" d="M340-20Q186-20 95 67Q4 154 4 311Q4 413 44 505Q84 597 156.50 674Q229 751 328 807Q302 860 287 919Q272 978 272 1057Q272 1174 327 1270Q382 1366 479.50 1423.50Q577 1481 705 1481Q785 1481 857.50 1452.50Q930 1424 976 1364Q1022 1304 1022 1208Q1022 1124 985.50 1047.50Q949 971 883 901.50Q817 832 729 768L807 616Q827 655 849 706Q871 757 893 821L1235 821Q1203 734 1158 641Q1113 548 1061.50 462Q1010 376 958 309L1116 0L705 0L672 76Q583 24 510.50 2Q438-20 340-20M430 272Q452 272 472 277.50Q492 283 513 294.50Q534 306 557 322L434 588Q409 564 390.50 530Q372 496 362 455Q352 414 352 369Q352 338 361.50 316.50Q371 295 388.50 283.50Q406 272 430 272M614 981Q634 998 652 1019.50Q670 1041 683.50 1065Q697 1089 705 1114Q713 1139 713 1163Q713 1188 704.50 1213.50Q696 1239 662 1239Q636 1239 620 1216.50Q604 1194 597 1164Q590 1134 590 1110Q590 1072 596 1041Q602 1010 614 981Z"  horiz-adv-x="1225" vert-adv-y="2048"  />

      
      <glyph glyph-name="uni27" unicode="&#x27;" d="M188 934L264 1462L610 1462L463 934L188 934Z"  horiz-adv-x="494" vert-adv-y="2048"  />

      
      <glyph glyph-name="uni28" unicode="&#x28;" d="M86-324Q64-271 50-191Q36-111 29.50-23Q23 65 23 139Q23 302 56 492Q89 682 150 872Q211 1062 294 1227Q377 1392 477 1503L754 1503Q669 1384 591 1224.50Q513 1065 451.50 883Q390 701 354.50 513.50Q319 326 319 152Q319 64 323-16.50Q327-97 337-173Q347-249 365-324L86-324Z"  horiz-adv-x="578" vert-adv-y="2048"  />

      
      <glyph glyph-name="uni29" unicode="&#x29;" d="M-166-324Q-82-205-4.50-45.50Q73 114 134 295.50Q195 477 230.50 664.50Q266 852 266 1026Q266 1109 263 1193Q260 1277 250.50 1356Q241 1435 221 1503L502 1503Q529 1432 542 1357.50Q555 1283 559 1203.50Q563 1124 563 1038Q563 862 528.50 669Q494 476 433 289Q372 102 289.50-57Q207-216 111-324L-166-324Z"  horiz-adv-x="578" vert-adv-y="2048"  />

      
      <glyph glyph-name="uni2a" unicode="&#x2a;" d="M639 618L543 891L387 647L174 864L397 1063L137 1135L238 1415L471 1276L471 1577L770 1542L700 1249L961 1331L991 1034L723 1026L897 780L639 618Z"  horiz-adv-x="905" vert-adv-y="2048"  />

      
      <glyph glyph-name="uni2b" unicode="&#x2b;" d="M670 856L975 856L975 588L670 588L670 227L395 227L395 588L90 588L90 856L395 856L395 1223L670 1223L670 856Z"  horiz-adv-x="1024" vert-adv-y="2048"  />

      
      <glyph glyph-name="uni2c" unicode="&#x2c;" d="M-121-285Q-89-195-53.50-93.50Q-18 8 14.50 109.50Q47 211 70 299L389 299L393 279Q356 168 316.50 68.50Q277-31 236-119.50Q195-208 152-285L-121-285Z"  horiz-adv-x="532" vert-adv-y="2048"  />

      
      <glyph glyph-name="uni2d" unicode="&#x2d;" d="M18 393L84 705L606 705L539 393L18 393Z"  horiz-adv-x="629" vert-adv-y="2048"  />

      
      <glyph glyph-name="uni2e" unicode="&#x2e;" d="M152-25Q73-25 32.50 10.50Q-8 46-8 115Q-8 210 52 284Q112 358 225 358Q294 358 333.50 322Q373 286 373 221Q373 109 305.50 42Q238-25 152-25Z"  horiz-adv-x="532" vert-adv-y="2048"  />

      
      <glyph glyph-name="uni2f" unicode="&#x2f;" d="M-117-20L700 1483L1004 1483L186-20L-117-20Z"  horiz-adv-x="813" vert-adv-y="2048"  />

      
      <glyph glyph-name="uni30" unicode="&#x30;" d="M385-20Q221-20 143.50 80Q66 180 66 393Q66 475 79 586Q92 697 120.50 820Q149 943 194.50 1060.50Q240 1178 304.50 1273.50Q369 1369 455.50 1426Q542 1483 651 1483Q734 1483 795 1458Q856 1433 896 1381Q936 1329 955.50 1248Q975 1167 975 1055Q975 953 959 834Q943 715 911 594.50Q879 474 830.50 364Q782 254 716.50 167.50Q651 81 568 30.50Q485-20 385-20M426 281Q453 281 480 326Q507 371 533.50 445Q560 519 582.50 608.50Q605 698 622 788Q639 878 649 955Q659 1032 659 1079Q659 1132 650 1157Q641 1182 616 1182Q588 1182 560 1134Q532 1086 505.50 1008Q479 930 456.50 837.50Q434 745 417 654Q400 563 390.50 490Q381 417 381 379Q381 330 391 305.50Q401 281 426 281Z"  horiz-adv-x="971" vert-adv-y="2048"  />

      
      <glyph glyph-name="uni31" unicode="&#x31;" d="M326 0L487 770Q498 817 506 854Q514 891 523 925Q532 959 543 997Q526 976 507.50 955Q489 934 469 915L334 786L180 997L672 1462L973 1462L662 0L326 0Z"  horiz-adv-x="971" vert-adv-y="2048"  />

      
      <glyph glyph-name="uni32" unicode="&#x32;" d="M-57 0L-6 238L354 645Q402 701 448 758.50Q494 816 531 874.50Q568 933 590 990Q612 1047 612 1100Q612 1138 598.50 1161Q585 1184 553 1184Q515 1184 471.50 1155.50Q428 1127 385 1087Q342 1047 307 1012L199 1247Q302 1372 409.50 1427.50Q517 1483 637 1483Q732 1483 805.50 1443.50Q879 1404 921 1334Q963 1264 963 1171Q963 1055 921 950.50Q879 846 805.50 749Q732 652 639 555L397 305L397 299L803 299L739 0L-57 0Z"  horiz-adv-x="971" vert-adv-y="2048"  />

      
      <glyph glyph-name="uni33" unicode="&#x33;" d="M295-20Q201-20 138-3.50Q75 13-6 57L-6 377Q65 319 153.50 296.50Q242 274 299 274Q346 274 383.50 286.50Q421 299 448 324Q475 349 489.50 386.50Q504 424 504 473Q504 514 485.50 544Q467 574 426 590Q385 606 317 606L238 606L297 891L379 891Q435 891 481 903.50Q527 916 560.50 942Q594 968 612.50 1008.50Q631 1049 631 1104Q631 1147 610 1167.50Q589 1188 545 1188Q502 1188 438.50 1166Q375 1144 301 1092L240 1352Q344 1429 436.50 1456Q529 1483 633 1483Q723 1483 803 1455.50Q883 1428 933 1365Q983 1302 983 1194Q983 1095 941.50 1012Q900 929 826.50 867.50Q753 806 655 770L655 764Q757 738 808.50 669Q860 600 860 489Q860 379 819 286Q778 193 702 124.50Q626 56 523 18Q420-20 295-20Z"  horiz-adv-x="971" vert-adv-y="2048"  />

      
      <glyph glyph-name="uni34" unicode="&#x34;" d="M352 0L412 283L-16 283L41 553L674 1462L993 1462L803 563L934 563L874 283L743 283L684 0L352 0M297 563L471 563L537 866Q540 881 546 901.50Q552 922 558.50 943.50Q565 965 569 981L563 981Q538 934 529 916.50Q520 899 514 891L297 563Z"  horiz-adv-x="971" vert-adv-y="2048"  />

      
      <glyph glyph-name="uni35" unicode="&#x35;" d="M330-20Q266-20 213-13Q160-6 117 7.50Q74 21 39 39L39 381Q96 332 173 303Q250 274 330 274Q376 274 412 297Q448 320 473 358Q498 396 511 442.50Q524 489 524 537Q524 602 493 636Q462 670 399 670Q362 670 325 659Q288 648 248 631L156 709L352 1462L1001 1462L938 1161L578 1161L520 946Q552 954 577 956Q602 958 621 958Q699 958 757.50 916.50Q816 875 848.50 796Q881 717 881 604Q881 504 854 395Q827 286 764.50 191.50Q702 97 595.50 38.50Q489-20 330-20Z"  horiz-adv-x="971" vert-adv-y="2048"  />

      
      <glyph glyph-name="uni36" unicode="&#x36;" d="M428-20Q297-20 217.50 34.50Q138 89 102 189Q66 289 66 426Q66 532 86.50 650.50Q107 769 147.50 887.50Q188 1006 249 1112.50Q310 1219 391 1300Q447 1356 511.50 1397Q576 1438 650 1460.50Q724 1483 807 1483Q881 1483 935 1478.50Q989 1474 1038 1464L977 1171Q933 1184 891 1190Q849 1196 809 1196Q725 1196 659 1155Q593 1114 544.50 1037Q496 960 463 850L467 850Q495 889 529.50 917Q564 945 604 960Q644 975 688 975Q816 975 868 876Q920 777 920 627Q920 527 891.50 414.50Q863 302 803.50 203.50Q744 105 651 42.50Q558-20 428-20M442 274Q480 274 505.50 311.50Q531 349 546.50 403.50Q562 458 568.50 512Q575 566 575 598Q575 642 564 665Q553 688 530 688Q519 688 508 683.50Q497 679 487 671Q477 663 469 651Q446 624 429.50 576.50Q413 529 405 478Q397 427 397 389Q397 361 400 339Q403 317 409 303Q415 289 423.50 281.50Q432 274 442 274Z"  horiz-adv-x="971" vert-adv-y="2048"  />

      
      <glyph glyph-name="uni37" unicode="&#x37;" d="M55 0L676 1159L209 1159L272 1460L1081 1460L1032 1235L406 0L55 0Z"  horiz-adv-x="971" vert-adv-y="2048"  />

      
      <glyph glyph-name="uni38" unicode="&#x38;" d="M406-20Q284-20 197 19Q110 58 64 132Q18 206 18 311Q18 405 52.50 484.50Q87 564 153.50 633.50Q220 703 317 764Q281 804 257.50 850Q234 896 222.50 944Q211 992 211 1038Q211 1165 265 1265.50Q319 1366 420.50 1424.50Q522 1483 662 1483Q763 1483 838.50 1449.50Q914 1416 955.50 1349.50Q997 1283 997 1184Q997 1098 964.50 1023Q932 948 871 884.50Q810 821 725 770Q780 721 812 670.50Q844 620 858 565.50Q872 511 872 451Q872 329 812 221.50Q752 114 646.50 47Q541-20 406-20M416 250Q461 250 491.50 277Q522 304 537.50 345.50Q553 387 553 432Q553 460 545.50 488Q538 516 523 544Q508 572 485 598Q448 570 415.50 529.50Q383 489 363.50 440.50Q344 392 344 338Q344 297 363 273.50Q382 250 416 250M565 938Q603 967 627 998.50Q651 1030 662.50 1065Q674 1100 674 1137Q674 1178 658 1195Q642 1212 614 1212Q587 1212 566.50 1192Q546 1172 535 1137.50Q524 1103 524 1059Q524 1027 536.50 994Q549 961 565 938Z"  horiz-adv-x="971" vert-adv-y="2048"  />

      
      <glyph glyph-name="uni39" unicode="&#x39;" d="M250-20Q180-20 127-13Q74-6 25 4L25 297Q69 281 124.50 273.50Q180 266 233 266Q296 266 348.50 289Q401 312 444 356.50Q487 401 521 465.50Q555 530 580 612L575 612Q546 575 511 546.50Q476 518 436.50 502.50Q397 487 354 487Q269 487 218.50 530Q168 573 145.50 646.50Q123 720 123 811Q123 890 141 981.50Q159 1073 196.50 1161.50Q234 1250 294 1323Q354 1396 437 1439.50Q520 1483 629 1483Q744 1483 821 1430Q898 1377 937.50 1277.50Q977 1178 977 1036Q977 996 971.50 939.50Q966 883 954.50 816.50Q943 750 924.50 677Q906 604 879 530Q840 426 784 327.50Q728 229 651 150.50Q574 72 474.50 26Q375-20 250-20M512 774Q529 774 543 782.50Q557 791 569.50 806Q582 821 592 840Q618 889 631.50 956.50Q645 1024 645 1073Q645 1112 640 1137.50Q635 1163 625 1175.50Q615 1188 600 1188Q566 1188 540.50 1150Q515 1112 499 1057.50Q483 1003 475 949.50Q467 896 467 864Q467 820 478 797Q489 774 512 774Z"  horiz-adv-x="971" vert-adv-y="2048"  />

      
      <glyph glyph-name="uni3a" unicode="&#x3a;" d="M328 766Q249 766 208.50 800.50Q168 835 168 905Q168 968 194.50 1023.50Q221 1079 273 1114Q325 1149 401 1149Q469 1149 508 1113Q547 1077 547 1012Q547 900 480.50 833Q414 766 328 766M158-25Q79-25 38.50 10.50Q-2 46-2 115Q-2 210 58 284Q118 358 231 358Q301 358 340 322Q379 286 379 221Q379 109 311.50 42Q244-25 158-25Z"  horiz-adv-x="547" vert-adv-y="2048"  />

      
      <glyph glyph-name="uni3b" unicode="&#x3b;" d="M-121-285Q-86-191-53.50-96Q-21-1 9.50 97.50Q40 196 68 299L387 299L393 279Q355 168 316 68.50Q277-31 235.50-119.50Q194-208 150-285L-121-285M328 766Q249 766 208.50 800.50Q168 835 168 905Q168 968 194.50 1023.50Q221 1079 273 1114Q325 1149 401 1149Q469 1149 508 1113Q547 1077 547 1012Q547 900 480.50 833Q414 766 328 766Z"  horiz-adv-x="547" vert-adv-y="2048"  />

      
      <glyph glyph-name="uni3c" unicode="&#x3c;" d="M975 229L80 653L80 825L975 1247L975 950L471 739L975 524L975 229Z"  horiz-adv-x="1024" vert-adv-y="2048"  />

      
      <glyph glyph-name="uni3d" unicode="&#x3d;" d="M90 815L90 1083L975 1083L975 815L90 815M90 358L90 629L975 629L975 358L90 358Z"  horiz-adv-x="1024" vert-adv-y="2048"  />

      
      <glyph glyph-name="uni3e" unicode="&#x3e;" d="M90 524L594 739L90 950L90 1247L985 825L985 653L90 229L90 524Z"  horiz-adv-x="1024" vert-adv-y="2048"  />

      
      <glyph glyph-name="uni3f" unicode="&#x3f;" d="M186 516Q201 607 221.50 667Q242 727 274.50 772Q307 817 356 862Q434 934 474 974Q514 1014 527.50 1042.50Q541 1071 541 1108Q541 1143 518.50 1165.50Q496 1188 459 1188Q395 1188 330.50 1155Q266 1122 207 1081L168 1337Q265 1411 362 1447Q459 1483 551 1483Q706 1483 786 1407.50Q866 1332 866 1200Q866 1100 829 1017Q792 934 733 866Q674 798 608 741Q564 704 539 676.50Q514 649 499.50 613.50Q485 578 471 516L186 516M223-25Q144-25 102.50 10.50Q61 46 61 115Q61 210 121.50 284Q182 358 297 358Q365 358 403.50 322Q442 286 442 221Q442 109 375.50 42Q309-25 223-25Z"  horiz-adv-x="770" vert-adv-y="2048"  />

      
      <glyph glyph-name="uni40" unicode="&#x40;" d="M616-154Q478-154 371.50-118Q265-82 192.50-14Q120 54 82.50 151.50Q45 249 45 373Q45 548 87 711.50Q129 875 207.50 1014.50Q286 1154 396 1259Q506 1364 643 1422.50Q780 1481 938 1481Q1088 1481 1203.50 1417.50Q1319 1354 1384.50 1236.50Q1450 1119 1450 958Q1450 862 1430.50 760Q1411 658 1374 564Q1337 470 1284.50 395.50Q1232 321 1165.50 277Q1099 233 1020 233Q923 233 882.50 265.50Q842 298 825 356L819 356Q772 296 720.50 264.50Q669 233 623 233Q503 233 447 298.50Q391 364 391 489Q391 560 409 644Q427 728 463 811Q499 894 554 962.50Q609 1031 683 1072.50Q757 1114 850 1114Q945 1114 1018 1097Q1091 1080 1145 1051L1016 512Q1013 502 1011.50 489.50Q1010 477 1010 469Q1010 446 1016 436Q1022 426 1032 426Q1076 426 1109.50 464.50Q1143 503 1166.50 564.50Q1190 626 1204.50 696Q1219 766 1226 830.50Q1233 895 1233 938Q1233 1054 1195 1131Q1157 1208 1087 1247Q1017 1286 920 1286Q801 1286 700 1236.50Q599 1187 518.50 1100Q438 1013 381 899.50Q324 786 294 656.50Q264 527 264 393Q264 288 301 209Q338 130 415 86.50Q492 43 610 43Q710 43 809.50 65Q909 87 1026 139L1026-55Q928-101 817.50-127.50Q707-154 616-154M678 426Q719 426 754 483Q789 540 817 649L883 911Q870 916 859 918Q848 920 829 920Q784 920 747 879Q710 838 684 774Q658 710 643.50 640Q629 570 629 512Q629 468 642 447Q655 426 678 426Z"  horiz-adv-x="1446" vert-adv-y="2048"  />

      
      <glyph glyph-name="uni41" unicode="&#x41;" d="M-119 0L512 1468L948 1468L971 0L606 0L614 285L365 285L256 0L-119 0M477 582L633 582L649 961Q651 1010 653 1058Q655 1106 662 1163L655 1163Q646 1110 633.50 1063.50Q621 1017 604 967L477 582Z"  horiz-adv-x="1090" vert-adv-y="2048"  />

      
      <glyph glyph-name="uni42" unicode="&#x42;" d="M-10 0L299 1462L696 1462Q796 1462 884.50 1433Q973 1404 1029 1335.50Q1085 1267 1085 1147Q1085 1062 1056.50 986.50Q1028 911 970 854Q912 797 823 766L823 758Q889 729 929 659.50Q969 590 969 492Q969 367 911.50 254.50Q854 142 740 71Q626 0 457 0L-10 0M393 289L455 289Q509 289 545 320.50Q581 352 598.50 403Q616 454 616 512Q616 566 593.50 593.50Q571 621 526 621L463 621L393 289M520 893L575 893Q621 893 654 922Q687 951 705 996.50Q723 1042 723 1090Q723 1134 700 1157Q677 1180 631 1180L582 1180L520 893Z"  horiz-adv-x="1059" vert-adv-y="2048"  />

      
      <glyph glyph-name="uni43" unicode="&#x43;" d="M446-20Q323-20 239 38Q155 96 112.50 201.50Q70 307 70 449Q70 594 99.50 741Q129 888 185.50 1021Q242 1154 323.50 1258.50Q405 1363 509.50 1423Q614 1483 739 1483Q831 1483 923 1460Q1015 1437 1092 1378L932 1108Q883 1146 840 1165Q797 1184 754 1184Q687 1184 634.50 1128Q582 1072 544 983.50Q506 895 481 795.50Q456 696 444 607.50Q432 519 432 465Q432 365 460.50 323Q489 281 541 281Q609 281 674.50 303.50Q740 326 803 358L803 55Q724 15 628-2.50Q532-20 446-20Z"  horiz-adv-x="965" vert-adv-y="2048"  />

      
      <glyph glyph-name="uni44" unicode="&#x44;" d="M-10 0L299 1462L635 1462Q870 1462 992 1338Q1114 1214 1114 997Q1114 860 1086.50 719Q1059 578 1001.50 449.50Q944 321 855 219.50Q766 118 644 59Q522 0 365 0L-10 0M395 303L416 303Q490 303 546.50 351Q603 399 642.50 476Q682 553 706.50 642Q731 731 742.50 815.50Q754 900 754 961Q754 1064 717 1112.50Q680 1161 606 1161L578 1161L395 303Z"  horiz-adv-x="1112" vert-adv-y="2048"  />

      
      <glyph glyph-name="uni45" unicode="&#x45;" d="M-10 0L299 1462L963 1462L901 1167L580 1167L522 903L821 903L758 608L461 608L393 299L717 299L653 0L-10 0Z"  horiz-adv-x="858" vert-adv-y="2048"  />

      
      <glyph glyph-name="uni46" unicode="&#x46;" d="M-10 0L299 1462L961 1462L899 1167L580 1167L512 854L807 854L743 559L449 559L332 0L-10 0Z"  horiz-adv-x="834" vert-adv-y="2048"  />

      
      <glyph glyph-name="uni47" unicode="&#x47;" d="M524-20Q292-20 183 105.50Q74 231 74 457Q74 595 102.50 739.50Q131 884 189.50 1017Q248 1150 338 1255Q428 1360 551 1421.50Q674 1483 831 1483Q938 1483 1033 1456.50Q1128 1430 1186 1389L1040 1100Q985 1140 923.50 1162Q862 1184 797 1184Q714 1184 646.50 1117.50Q579 1051 531 945.50Q483 840 457.50 719.50Q432 599 432 492Q432 422 445.50 375Q459 328 486 304.50Q513 281 553 281Q573 281 595.50 284Q618 287 641 293L698 565L557 565L616 856L1096 856L930 72Q813 26 705 3Q597-20 524-20Z"  horiz-adv-x="1122" vert-adv-y="2048"  />

      
      <glyph glyph-name="uni48" unicode="&#x48;" d="M-10 0L299 1462L641 1462L524 909L776 909L895 1462L1237 1462L926 0L584 0L713 610L461 610L332 0L-10 0Z"  horiz-adv-x="1153" vert-adv-y="2048"  />

      
      <glyph glyph-name="uni49" unicode="&#x49;" d="M-12 0L299 1462L641 1462L330 0L-12 0Z"  horiz-adv-x="557" vert-adv-y="2048"  />

      
      <glyph glyph-name="uni4a" unicode="&#x4a;" d="M-131-459Q-195-459-240-453Q-285-447-324-434L-260-135Q-231-149-204-156.50Q-177-164-152-164Q-96-164-63.50-120Q-31-76-13.50-15Q4 46 14 96L305 1462L647 1462L348 47Q309-135 240.50-246.50Q172-358 78.50-408.50Q-15-459-131-459Z"  horiz-adv-x="563" vert-adv-y="2048"  />

      
      <glyph glyph-name="uni4b" unicode="&#x4b;" d="M-10 0L299 1462L641 1462L518 874L590 1014L883 1462L1260 1462L797 772L946 0L569 0L496 532L436 496L332 0L-10 0Z"  horiz-adv-x="1049" vert-adv-y="2048"  />

      
      <glyph glyph-name="uni4c" unicode="&#x4c;" d="M-10 0L299 1462L641 1462L393 299L737 299L676 0L-10 0Z"  horiz-adv-x="819" vert-adv-y="2048"  />

      
      <glyph glyph-name="uni4d" unicode="&#x4d;" d="M-10 0L299 1462L743 1462L764 618L770 618L1128 1462L1602 1462L1290 0L958 0L1100 662Q1105 689 1111.50 715Q1118 741 1126 767Q1134 793 1141 819L1135 819L774 0L496 0L479 807L473 807Q467 766 461.50 727.50Q456 689 450 654Q444 619 436 586L311 0L-10 0Z"  horiz-adv-x="1520" vert-adv-y="2048"  />

      
      <glyph glyph-name="uni4e" unicode="&#x4e;" d="M-10 0L299 1462L678 1462L829 627L836 627Q844 681 852.50 733.50Q861 786 869.50 833Q878 880 885 915L1001 1462L1323 1462L1014 0L633 0L481 862L477 862Q470 814 463.50 770Q457 726 451 687Q445 648 439 614.50Q433 581 428 555L309 0L-10 0Z"  horiz-adv-x="1239" vert-adv-y="2048"  />

      
      <glyph glyph-name="uni4f" unicode="&#x4f;" d="M498-20Q353-20 258.50 32.50Q164 85 118 194.50Q72 304 72 475Q72 590 92 709Q112 828 151.50 941.50Q191 1055 249 1153Q307 1251 383 1326Q459 1401 552.50 1443Q646 1485 756 1485Q977 1485 1076.50 1359.50Q1176 1234 1176 991Q1176 893 1159.50 780.50Q1143 668 1108 554.50Q1073 441 1019 338Q965 235 889.50 154.50Q814 74 716.50 27Q619-20 498-20M522 285Q569 285 609.50 321Q650 357 683 417.50Q716 478 741.50 554Q767 630 784 710.50Q801 791 810 866.50Q819 942 819 1001Q819 1095 795 1140.50Q771 1186 727 1186Q680 1186 640 1150.50Q600 1115 566.50 1054.50Q533 994 508 919Q483 844 465.50 763.50Q448 683 439 608Q430 533 430 473Q430 396 440.50 355.50Q451 315 472 300Q493 285 522 285Z"  horiz-adv-x="1176" vert-adv-y="2048"  />

      
      <glyph glyph-name="uni50" unicode="&#x50;" d="M-10 0L299 1462L657 1462Q797 1462 883 1418Q969 1374 1009 1295.50Q1049 1217 1049 1112Q1049 1007 1019 896.50Q989 786 924.50 693Q860 600 758.50 542.50Q657 485 514 485L434 485L332 0L-10 0M496 780L520 780Q575 780 614 817Q653 854 674.50 918.50Q696 983 696 1067Q696 1127 672 1147Q648 1167 598 1167L580 1167L496 780Z"  horiz-adv-x="987" vert-adv-y="2048"  />

      
      <glyph glyph-name="uni51" unicode="&#x51;" d="M512-348L424-16Q417-16 409-14.50Q401-13 393-12Q284 6 212.50 64Q141 122 106.50 224Q72 326 72 475Q72 590 92 709Q112 828 151.50 941.50Q191 1055 249 1153Q307 1251 383 1326Q459 1401 552.50 1443Q646 1485 756 1485Q977 1485 1076.50 1359.50Q1176 1234 1176 991Q1176 898 1161 791.50Q1146 685 1115 577Q1084 469 1035.50 369.50Q987 270 920 188Q853 106 766 53L905-348L512-348M522 285Q569 285 609.50 321Q650 357 683 417.50Q716 478 741.50 554Q767 630 784 710.50Q801 791 810 866.50Q819 942 819 1001Q819 1095 795 1140.50Q771 1186 727 1186Q680 1186 640 1150.50Q600 1115 566.50 1054.50Q533 994 508 919Q483 844 465.50 763.50Q448 683 439 608Q430 533 430 473Q430 396 440.50 355.50Q451 315 472 300Q493 285 522 285Z"  horiz-adv-x="1176" vert-adv-y="2048"  />

      
      <glyph glyph-name="uni52" unicode="&#x52;" d="M-10 0L299 1462L629 1462Q855 1462 959 1372.50Q1063 1283 1063 1116Q1063 991 1029.50 892Q996 793 934 722.50Q872 652 788 614L944 0L565 0L467 543L444 543L332 0L-10 0M506 819L535 819Q578 819 609 841.50Q640 864 660 901Q680 938 690 982Q700 1026 700 1069Q700 1122 676 1149Q652 1176 602 1176L580 1176L506 819Z"  horiz-adv-x="1034" vert-adv-y="2048"  />

      
      <glyph glyph-name="uni53" unicode="&#x53;" d="M311-20Q202-20 118 0.50Q34 21-37 76L37 424Q89 378 166 339.50Q243 301 313 301Q336 301 361.50 306.50Q387 312 409 326Q431 340 445 366.50Q459 393 459 436Q459 467 450 494.50Q441 522 415.50 553Q390 584 342 625Q279 678 239 733Q199 788 180.50 854Q162 920 162 1006Q162 1104 192.50 1190.50Q223 1277 284.50 1343Q346 1409 440.50 1446Q535 1483 662 1483Q745 1483 836 1456Q927 1429 1004 1372L852 1065Q791 1114 737 1140.50Q683 1167 643 1167Q620 1167 598.50 1159.50Q577 1152 559.50 1137Q542 1122 532 1097.50Q522 1073 522 1038Q522 1013 531 986.50Q540 960 567 928Q594 896 649 854Q713 805 750.50 749.50Q788 694 804.50 627Q821 560 821 477Q821 383 790 294Q759 205 696.50 134Q634 63 538 21.50Q442-20 311-20Z"  horiz-adv-x="891" vert-adv-y="2048"  />

      
      <glyph glyph-name="uni54" unicode="&#x54;" d="M150 0L395 1161L160 1161L223 1462L1038 1462L975 1161L737 1161L492 0L150 0Z"  horiz-adv-x="879" vert-adv-y="2048"  />

      
      <glyph glyph-name="uni55" unicode="&#x55;" d="M451-20Q333-20 248 22.50Q163 65 117.50 145Q72 225 72 336Q72 371 77.50 417.50Q83 464 92 510L295 1462L637 1462L434 504Q427 473 423.50 445Q420 417 420 395Q420 337 439.50 311Q459 285 498 285Q538 285 567.50 306Q597 327 618.50 375.50Q640 424 657 506L862 1462L1204 1462L989 453Q957 298 890 192.50Q823 87 715.50 33.50Q608-20 451-20Z"  horiz-adv-x="1114" vert-adv-y="2048"  />

      
      <glyph glyph-name="uni56" unicode="&#x56;" d="M219 0L190 1462L543 1462L524 721Q523 679 520.50 640.50Q518 602 514 560.50Q510 519 504 467L508 467Q518 509 530 550Q542 591 556.50 632.50Q571 674 588 717L885 1462L1251 1462L612 0L219 0Z"  horiz-adv-x="1063" vert-adv-y="2048"  />

      
      <glyph glyph-name="uni57" unicode="&#x57;" d="M135 0L190 1462L520 1462L487 856Q483 775 477 712Q471 649 465 602L467 602Q490 664 513.50 725Q537 786 563 852L811 1462L1090 1462L1067 852Q1064 776 1061 723Q1058 670 1053 604L1057 604Q1067 639 1080 676.50Q1093 714 1109.50 757.50Q1126 801 1145 854L1370 1462L1714 1462L1157 0L768 0L778 516Q778 545 780 578Q782 611 785.50 647Q789 683 793 719L788 719Q773 673 757.50 627Q742 581 723 537L518 0L135 0Z"  horiz-adv-x="1524" vert-adv-y="2048"  />

      
      <glyph glyph-name="uni58" unicode="&#x58;" d="M-121 0L350 731L207 1462L565 1462L612 1098L807 1462L1176 1462L735 743L909 0L539 0L479 385L246 0L-121 0Z"  horiz-adv-x="1024" vert-adv-y="2048"  />

      
      <glyph glyph-name="uni59" unicode="&#x59;" d="M211 0L326 549L190 1462L547 1462L586 993L823 1462L1190 1462L672 561L553 0L211 0Z"  horiz-adv-x="1001" vert-adv-y="2048"  />

      
      <glyph glyph-name="uni5a" unicode="&#x5a;" d="M-80 0L-31 240L588 1167L178 1167L240 1462L1040 1462L991 1223L371 299L805 299L741 0L-80 0Z"  horiz-adv-x="897" vert-adv-y="2048"  />

      
      <glyph glyph-name="uni5b" unicode="&#x5b;" d="M-102-344L291 1503L756 1503L702 1249L530 1249L246-90L418-90L362-344L-102-344Z"  horiz-adv-x="588" vert-adv-y="2048"  />

      
      <glyph glyph-name="uni5c" unicode="&#x5c;" d="M397-20L201 1483L487 1483L684-20L397-20Z"  horiz-adv-x="813" vert-adv-y="2048"  />

      
      <glyph glyph-name="uni5d" unicode="&#x5d;" d="M-160-344L-106-90L63-90L350 1249L178 1249L231 1503L698 1503L305-344L-160-344Z"  horiz-adv-x="588" vert-adv-y="2048"  />

      
      <glyph glyph-name="uni5e" unicode="&#x5e;" d="M-41 496L575 1462L756 1462L963 496L672 496L571 981L262 496L-41 496Z"  horiz-adv-x="952" vert-adv-y="2048"  />

      
      <glyph glyph-name="uni5f" unicode="&#x5f;" d="M-203-379L-152-133L645-133L592-379L-203-379Z"  horiz-adv-x="788" vert-adv-y="2048"  />

      
      <glyph glyph-name="uni60" unicode="&#x60;" d="M487 1241Q463 1275 424.50 1334Q386 1393 350 1453Q314 1513 295 1550L295 1569L659 1569Q668 1530 679 1484Q690 1438 705 1384.50Q720 1331 739 1268L737 1241L487 1241Z"  horiz-adv-x="676" vert-adv-y="2048"  />

      
      <glyph glyph-name="uni61" unicode="&#x61;" d="M264-20Q192-20 139 21.50Q86 63 57.50 139Q29 215 29 319Q29 406 46 516Q63 626 97.50 737.50Q132 849 185 943.50Q238 1038 311 1095.50Q384 1153 477 1153Q520 1153 558.50 1138Q597 1123 628.50 1089Q660 1055 680 997L686 997L739 1133L1026 1133L784 0L518 0L510 135L502 135Q467 91 432.50 56Q398 21 357.50 0.50Q317-20 264-20M412 256Q456 256 487.50 303.50Q519 351 540 418Q561 485 573 543Q595 638 600.50 683.50Q606 729 606 758Q606 815 591 841.50Q576 868 545 868Q514 868 486.50 831Q459 794 437 735Q415 676 399.50 608.50Q384 541 375.50 478Q367 415 367 371Q367 314 378.50 285Q390 256 412 256Z"  horiz-adv-x="997" vert-adv-y="2048"  />

      
      <glyph glyph-name="uni62" unicode="&#x62;" d="M510-20Q463-20 424.50-4Q386 12 356.50 42.50Q327 73 305 117L299 117L240 0L-27 0L305 1556L633 1556L561 1221Q558 1204 551 1175Q544 1146 534 1110Q524 1074 512 1036L516 1036Q551 1081 586 1106.50Q621 1132 659.50 1142.50Q698 1153 743 1153Q812 1153 863.50 1112Q915 1071 944 996Q973 921 973 817Q973 721 954.50 608.50Q936 496 899 385Q862 274 806.50 182.50Q751 91 677 35.50Q603-20 510-20M455 256Q481 256 507 292.50Q533 329 555.50 387.50Q578 446 595.50 514Q613 582 623 646Q633 710 633 756Q633 812 620.50 840Q608 868 584 868Q554 868 528 842.50Q502 817 480.50 774Q459 731 443 677.50Q427 624 415.50 567.50Q404 511 398.50 459Q393 407 393 367Q393 310 408.50 283Q424 256 455 256Z"  horiz-adv-x="997" vert-adv-y="2048"  />

      
      <glyph glyph-name="uni63" unicode="&#x63;" d="M362-20Q258-20 185.50 25Q113 70 75 153Q37 236 37 348Q37 450 55.50 561.50Q74 673 114 778Q154 883 219 968Q284 1053 376 1103Q468 1153 590 1153Q674 1153 744 1131Q814 1109 877 1065L743 807Q712 835 671.50 852.50Q631 870 594 870Q532 870 489.50 816.50Q447 763 422 684Q397 605 386 526.50Q375 448 375 399Q375 354 383 323.50Q391 293 408 277.50Q425 262 451 262Q497 262 553.50 286.50Q610 311 676 360L676 82Q621 41 535.50 10.50Q450-20 362-20Z"  horiz-adv-x="815" vert-adv-y="2048"  />

      
      <glyph glyph-name="uni64" unicode="&#x64;" d="M264-20Q192-20 139 21.50Q86 63 57.50 139Q29 215 29 319Q29 402 46 511Q63 620 96.50 732Q130 844 181.50 939.50Q233 1035 301.50 1094Q370 1153 457 1153Q504 1153 547 1140.50Q590 1128 624.50 1099.50Q659 1071 680 1024L686 1024Q690 1063 695 1097.50Q700 1132 704.50 1159.50Q709 1187 713 1204L788 1556L1116 1556L784 0L518 0L510 117L502 117Q462 73 427.50 42.50Q393 12 355-4Q317-20 264-20M412 256Q442 256 468 282Q494 308 515.50 351.50Q537 395 554 449Q571 503 582.50 559.50Q594 616 600 668Q606 720 606 758Q606 815 591 841.50Q576 868 545 868Q510 868 481.50 827Q453 786 431.50 722Q410 658 396 588Q382 518 374.50 459Q367 400 367 371Q367 314 378.50 285Q390 256 412 256Z"  horiz-adv-x="997" vert-adv-y="2048"  />

      
      <glyph glyph-name="uni65" unicode="&#x65;" d="M408-20Q292-20 208.50 25.50Q125 71 80 156.50Q35 242 35 360Q35 493 67 632Q99 771 168 888.50Q237 1006 346 1078.50Q455 1151 608 1151Q751 1151 841.50 1071.50Q932 992 932 858Q932 755 892 680Q852 605 779 556.50Q706 508 605.50 484.50Q505 461 383 461L362 461Q359 444 357.50 426.50Q356 409 356 395Q356 311 388 277.50Q420 244 483 244Q557 244 617 261Q677 278 762 326L762 82Q671 22 584 1Q497-20 408-20M412 694L416 694Q503 694 550 711Q597 728 615 758Q633 788 633 825Q633 856 612.50 875.50Q592 895 561 895Q533 895 506 874.50Q479 854 455.50 809.50Q432 765 412 694Z"  horiz-adv-x="944" vert-adv-y="2048"  />

      
      <glyph glyph-name="uni66" unicode="&#x66;" d="M-74-492Q-111-492-147.50-488Q-184-484-225-469L-225-184Q-207-194-174-199.50Q-141-205-123-205Q-57-205-36.50-162Q-16-119-6-66L188 860L78 860L113 1030L244 1122L260 1192Q272 1247 293 1311.50Q314 1376 353.50 1434.50Q393 1493 457.50 1530Q522 1567 621 1567Q680 1567 741.50 1554Q803 1541 866 1509L756 1264Q734 1276 710.50 1283Q687 1290 670 1290Q633 1290 615.50 1263Q598 1236 590 1202L573 1133L739 1133L684 860L518 860L313-92Q287-220 243.50-309.50Q200-399 124.50-445.50Q49-492-74-492Z"  horiz-adv-x="633" vert-adv-y="2048"  />

      
      <glyph glyph-name="uni67" unicode="&#x67;" d="M254-492Q49-492-48-421Q-145-350-145-223Q-145-107-71-25.50Q3 56 129 92Q97 106 71 144.50Q45 183 45 237Q45 306 89 357Q133 408 199 457Q162 484 139 548Q116 612 116 686Q116 810 174.50 921Q233 1032 346 1093Q393 1119 453.50 1133.50Q514 1148 575 1148Q640 1148 685 1137.50Q730 1127 757 1119L1124 1119L1084 929L943 880Q947 864 949 847.50Q951 831 951 813Q951 731 914 638.50Q877 546 818 487Q757 427 672 397.50Q587 368 480 367Q432 367 414 365.50Q396 364 390 362Q358 351 338.50 326Q319 301 319 276Q319 261 340 257Q351 255 370 254.50Q389 254 416 254L618 254Q695 254 749.50 227.50Q804 201 833 149Q862 97 862 20Q862-137 790-247.50Q718-358 596-420Q524-455 437.50-473.50Q351-492 254-492M267-250Q317-250 362.50-241Q408-232 445-213Q489-191 515.50-156Q542-121 542-73Q542-65 538-59Q534-53 524-49Q512-44 490-42Q468-40 432-40L278-40Q246-40 220-69Q194-98 178.50-134.50Q163-171 163-196Q163-227 189-238.50Q215-250 267-250M477 592Q510 592 537 613.50Q564 635 584.50 678.50Q605 722 620 786Q627 816 630.50 839Q634 862 634 878Q634 906 624 916Q614 926 593 926Q561 926 537 908Q513 890 496.50 861Q480 832 468.50 797.50Q457 763 449 730Q442 701 438.50 679Q435 657 435 640Q435 592 477 592Z"  horiz-adv-x="1020" vert-adv-y="2048"  />

      
      <glyph glyph-name="uni68" unicode="&#x68;" d="M-27 0L305 1556L633 1556L571 1272Q563 1233 551.50 1191Q540 1149 526 1106.50Q512 1064 498 1024L504 1024Q534 1066 568 1095Q602 1124 643 1138.50Q684 1153 735 1153Q809 1153 861.50 1119.50Q914 1086 941.50 1025.50Q969 965 969 883Q969 848 963.50 805.50Q958 763 950 723L797 0L469 0L602 631Q611 672 617 710.50Q623 749 623 786Q623 814 610 836Q597 858 563 858Q544 858 522 840Q500 822 478 773.50Q456 725 436 635L303 0L-27 0Z"  horiz-adv-x="1006" vert-adv-y="2048"  />

      
      <glyph glyph-name="uni69" unicode="&#x69;" d="M-25 0L217 1133L543 1133L303 0L-25 0M412 1243Q336 1243 298 1274Q260 1305 260 1368Q260 1418 281.50 1469Q303 1520 349.50 1554.50Q396 1589 469 1589Q541 1589 581 1558Q621 1527 621 1464Q621 1370 563.50 1306.50Q506 1243 412 1243Z"  horiz-adv-x="516" vert-adv-y="2048"  />

      
      <glyph glyph-name="uni6a" unicode="&#x6a;" d="M-104-492Q-141-492-178-488Q-215-484-256-469L-256-184Q-237-194-204.50-199.50Q-172-205-154-205Q-118-205-96-190Q-74-175-60.50-144.50Q-47-114-37-66L217 1133L543 1133L283-92Q256-220 212.50-309.50Q169-399 94-445.50Q19-492-104-492M412 1243Q336 1243 298 1274Q260 1305 260 1368Q260 1418 281.50 1469Q303 1520 349.50 1554.50Q396 1589 469 1589Q541 1589 581 1558Q621 1527 621 1464Q621 1370 563.50 1306.50Q506 1243 412 1243Z"  horiz-adv-x="516" vert-adv-y="2048"  />

      
      <glyph glyph-name="uni6b" unicode="&#x6b;" d="M-27 0L305 1556L633 1556L504 954Q496 917 486 879.50Q476 842 465.50 803.50Q455 765 442 725L446 725L750 1133L1106 1133L727 643L887 0L530 0L442 379L362 311L303 0L-27 0Z"  horiz-adv-x="991" vert-adv-y="2048"  />

      
      <glyph glyph-name="uni6c" unicode="&#x6c;" d="M-27 0L305 1556L633 1556L303 0L-27 0Z"  horiz-adv-x="512" vert-adv-y="2048"  />

      
      <glyph glyph-name="uni6d" unicode="&#x6d;" d="M-27 0L215 1133L477 1133L471 1004L479 1004Q510 1049 549.50 1082.50Q589 1116 635 1134.50Q681 1153 731 1153Q820 1153 874.50 1119Q929 1085 956 1014L963 1014Q997 1056 1039 1087Q1081 1118 1128.50 1135.50Q1176 1153 1225 1153Q1335 1153 1393.50 1087.50Q1452 1022 1452 903Q1452 866 1446.50 820Q1441 774 1430 723L1276 0L948 0L1081 629Q1091 673 1096.50 713.50Q1102 754 1102 782Q1102 821 1090.50 839.50Q1079 858 1055 858Q1026 858 1003.50 833Q981 808 964.50 769Q948 730 936 685Q924 640 915 600L788 0L461 0L594 629Q603 673 609.50 716Q616 759 616 786Q616 824 605 841Q594 858 571 858Q544 858 521.50 833Q499 808 481 769Q463 730 450.50 685Q438 640 430 600L303 0L-27 0Z"  horiz-adv-x="1485" vert-adv-y="2048"  />

      
      <glyph glyph-name="uni6e" unicode="&#x6e;" d="M-27 0L215 1133L477 1133L473 1001L479 1001Q512 1049 550.50 1083Q589 1117 632 1135Q675 1153 723 1153Q784 1153 840 1129Q896 1105 932.50 1047.50Q969 990 969 887Q969 856 965 816.50Q961 777 950 723L797 0L469 0L602 631Q611 675 618 717Q625 759 625 786Q625 820 613 839Q601 858 573 858Q538 858 511 821Q484 784 463.50 722Q443 660 426 584L303 0L-27 0Z"  horiz-adv-x="1006" vert-adv-y="2048"  />

      
      <glyph glyph-name="uni6f" unicode="&#x6f;" d="M395-20Q283-20 202.50 27Q122 74 79.50 161.50Q37 249 37 371Q37 460 55.50 565.50Q74 671 114.50 774.50Q155 878 220 963.50Q285 1049 377.50 1101Q470 1153 594 1153Q705 1153 783.50 1104.50Q862 1056 904 968.50Q946 881 946 762Q946 666 926.50 558.50Q907 451 866 348.50Q825 246 760 162.50Q695 79 604.50 29.50Q514-20 395-20M434 256Q466 256 494 292Q522 328 544.50 386.50Q567 445 583 513.50Q599 582 607.50 647.50Q616 713 616 762Q616 800 609.50 825.50Q603 851 589 864Q575 877 551 877Q517 877 488.50 841Q460 805 437.50 746.50Q415 688 399 619.50Q383 551 375 485Q367 419 367 369Q367 315 383 285.50Q399 256 434 256Z"  horiz-adv-x="981" vert-adv-y="2048"  />

      
      <glyph glyph-name="uni70" unicode="&#x70;" d="M-129-492L215 1133L481 1133L477 989L485 989Q524 1050 563.50 1085.50Q603 1121 645.50 1137Q688 1153 735 1153Q807 1153 860 1116Q913 1079 942 1003.50Q971 928 971 811Q971 713 952.50 600.50Q934 488 897.50 378Q861 268 807 178Q753 88 681 34Q609-20 520-20Q475-20 436.50-3.50Q398 13 369 44Q340 75 322 119L315 119Q309 62 301.50 13.50Q294-35 289-61L197-492L-129-492M455 264Q486 264 513 300Q540 336 562 393.50Q584 451 600 518.50Q616 586 624.50 650.50Q633 715 633 762Q633 821 621 849Q609 877 588 877Q559 877 533 849.50Q507 822 485.50 777Q464 732 447 676.50Q430 621 418 564.50Q406 508 399.50 458.50Q393 409 393 375Q393 318 408.50 291Q424 264 455 264Z"  horiz-adv-x="997" vert-adv-y="2048"  />

      
      <glyph glyph-name="uni71" unicode="&#x71;" d="M352-492L438-86Q442-68 449.50-39.50Q457-11 466.50 24.50Q476 60 487 96L481 96Q447 51 412 26Q377 1 339-9.50Q301-20 256-20Q188-20 136 18Q84 56 55.50 128.50Q27 201 27 303Q27 392 45 503.50Q63 615 99 729Q135 843 190 939Q245 1035 320 1094Q395 1153 489 1153Q546 1153 584 1137Q622 1121 647 1087Q672 1053 688 997L692 997L739 1133L1026 1133L680-492L352-492M416 264Q446 264 472 289.50Q498 315 519 358Q540 401 556.50 455Q573 509 584 567Q595 625 600.50 680.50Q606 736 606 780Q606 822 590 845Q574 868 543 868Q513 868 486.50 833Q460 798 438 741Q416 684 400 618Q384 552 375.50 488Q367 424 367 377Q367 320 379 292Q391 264 416 264Z"  horiz-adv-x="997" vert-adv-y="2048"  />

      
      <glyph glyph-name="uni72" unicode="&#x72;" d="M-25 0L215 1133L473 1133L469 969L477 969Q514 1035 551 1075.50Q588 1116 632.50 1134.50Q677 1153 735 1153Q755 1153 775.50 1150.50Q796 1148 827 1139L725 778Q702 788 677.50 792.50Q653 797 625 797Q583 797 549 779Q515 761 490 729Q465 697 448 656Q431 615 422 569L303 0L-25 0Z"  horiz-adv-x="721" vert-adv-y="2048"  />

      
      <glyph glyph-name="uni73" unicode="&#x73;" d="M295-20Q186-20 122-4Q58 12-4 47L-4 350Q58 309 128 286.50Q198 264 252 264Q280 264 303 272.50Q326 281 340 298Q354 315 354 340Q354 358 347.50 379Q341 400 319 427.50Q297 455 252 492Q191 542 160.50 589.50Q130 637 120.50 683Q111 729 111 776Q111 881 153 966.50Q195 1052 279.50 1102.50Q364 1153 489 1153Q586 1153 675.50 1125.50Q765 1098 825 1055L700 807Q650 851 594.50 870Q539 889 510 889Q481 889 465 872.50Q449 856 449 825Q449 806 454.50 789Q460 772 481 749.50Q502 727 549 690Q598 650 632 608.50Q666 567 684 511.50Q702 456 702 375Q702 270 654 180Q606 90 515 35Q424-20 295-20Z"  horiz-adv-x="793" vert-adv-y="2048"  />

      
      <glyph glyph-name="uni74" unicode="&#x74;" d="M319-20Q186-20 133 55Q80 130 80 244Q80 281 85 323.50Q90 366 102 424L195 860L92 860L127 1030L283 1122L397 1360L629 1360L580 1133L772 1133L715 860L522 860L420 377Q417 363 414.50 349Q412 335 412 324Q412 293 424 279.50Q436 266 467 266Q482 266 518 273Q554 280 592 297L592 35Q535 4 455.50-8Q376-20 319-20Z"  horiz-adv-x="700" vert-adv-y="2048"  />

      
      <glyph glyph-name="uni75" unicode="&#x75;" d="M285-20Q205-20 150 12.50Q95 45 67 104.50Q39 164 39 246Q39 281 44.50 324Q50 367 57 412L211 1133L539 1133L406 504Q396 458 390.50 416Q385 374 385 346Q385 312 396 293Q407 274 436 274Q471 274 497.50 311Q524 348 545 411Q566 474 582 551L707 1133L1034 1133L795 0L532 0L537 131L530 131Q498 85 459.50 51Q421 17 377.50-1.50Q334-20 285-20Z"  horiz-adv-x="1006" vert-adv-y="2048"  />

      
      <glyph glyph-name="uni76" unicode="&#x76;" d="M174 0L127 1133L455 1133L449 688Q449 655 448.50 621Q448 587 446 552.50Q444 518 438 483L446 483Q451 501 457.50 521Q464 541 472 561.50Q480 582 487 600L705 1133L1051 1133L522 0L174 0Z"  horiz-adv-x="936" vert-adv-y="2048"  />

      
      <glyph glyph-name="uni77" unicode="&#x77;" d="M102 0L131 1133L453 1133L430 778Q426 714 419 651.50Q412 589 406 532L412 532Q421 563 432.50 600Q444 637 457.50 677Q471 717 485 756L625 1133L997 1133L973 750Q969 684 963 623.50Q957 563 952 510L958 510Q971 552 985 598Q999 644 1014 690Q1029 736 1044 778L1174 1133L1501 1133L1044 0L668 0L702 510Q705 541 707.50 571.50Q710 602 712.50 633Q715 664 717 694L711 694Q702 666 693 639.50Q684 613 675.50 587.50Q667 562 657 535L463 0L102 0Z"  horiz-adv-x="1389" vert-adv-y="2048"  />

      
      <glyph glyph-name="uni78" unicode="&#x78;" d="M-109 0L268 578L137 1133L492 1133L528 862L676 1133L1042 1133L682 578L815 0L461 0L416 297L252 0L-109 0Z"  horiz-adv-x="942" vert-adv-y="2048"  />

      
      <glyph glyph-name="uni79" unicode="&#x79;" d="M33-492Q-18-492-55-486.50Q-92-481-123-471L-63-178Q-37-187-15.50-192Q6-197 23-197Q66-197 89.50-174Q113-151 135-106L197 20L127 1133L459 1133L461 688Q461 658 460.50 626.50Q460 595 459 564Q458 533 457 502L463 502Q471 536 482 573Q493 610 504 642.50Q515 675 522 694L707 1133L1051 1133L461-127Q412-230 356-313Q300-396 223.50-444Q147-492 33-492Z"  horiz-adv-x="936" vert-adv-y="2048"  />

      
      <glyph glyph-name="uni7a" unicode="&#x7a;" d="M-86 0L-45 195L434 856L115 856L174 1133L868 1133L823 920L362 276L700 276L643 0L-86 0Z"  horiz-adv-x="801" vert-adv-y="2048"  />

      
      <glyph glyph-name="uni7b" unicode="&#x7b;" d="M504-324Q284-324 190-249Q96-174 96-35Q96-4 100 28.50Q104 61 111 92L145 254Q147 266 150.50 282.50Q154 299 154 317Q154 377 127 405.50Q100 434 8 434L68 721Q157 723 209.50 763.50Q262 804 281 893L332 1139Q364 1286 431 1354.50Q498 1423 604 1442.50Q710 1462 858 1462L862 1462L801 1182Q727 1182 693 1156.50Q659 1131 645 1053L596 815Q576 720 506.50 654.50Q437 589 303 573L301 565Q396 534 438.50 479Q481 424 481 356Q481 331 477 300.50Q473 270 467 238L438 94Q435 81 433.50 67.50Q432 54 432 45Q432 1 450-21Q468-43 524-43L524-324L504-324Z"  horiz-adv-x="707" vert-adv-y="2048"  />

      
      <glyph glyph-name="uni7c" unicode="&#x7c;" d="M256-469L256 1579L543 1579L543-469L256-469Z"  horiz-adv-x="803" vert-adv-y="2048"  />

      
      <glyph glyph-name="uni7d" unicode="&#x7d;" d="M-119-324L-119-43Q-68-43-32-31.50Q4-20 26.50 8Q49 36 59 86L109 324Q129 419 198.50 484.50Q268 550 401 565L403 573Q308 604 265.50 658.50Q223 713 223 782Q223 808 226.50 838.50Q230 869 238 901L266 1044Q269 1058 270.50 1070.50Q272 1083 272 1094Q272 1137 244.50 1159.50Q217 1182 160 1182L219 1462L231 1462Q372 1462 454 1433.50Q536 1405 571 1345.50Q606 1286 606 1194Q606 1163 603 1119.50Q600 1076 594 1044L559 885Q556 871 553.50 855.50Q551 840 551 821Q551 761 577.50 733Q604 705 696 705L637 418Q579 417 535 396Q491 375 463 337Q435 299 424 246L373 0Q342-141 284.50-210.50Q227-280 130.50-302Q34-324-115-324L-119-324Z"  horiz-adv-x="707" vert-adv-y="2048"  />

      
      <glyph glyph-name="uni7e" unicode="&#x7e;" d="M498 592Q440 620 387 633.50Q334 647 287 647Q238 647 186 616.50Q134 586 78 526L78 807Q125 861 184 888Q243 915 315 915Q381 915 443.50 897.50Q506 880 567 852Q626 824 678.50 810.50Q731 797 780 797Q825 797 881 829Q937 861 987 918L987 637Q940 582 880.50 555Q821 528 750 528Q687 528 625.50 545.50Q564 563 498 592Z"  horiz-adv-x="1024" vert-adv-y="2048"  />

      
      <glyph glyph-name="unia1" unicode="&#xa1;" d="M-119-369L133 612L420 612L256-369L-119-369M309 770Q242 770 203 805.50Q164 841 164 907Q164 1020 230.50 1086.50Q297 1153 383 1153Q461 1153 502 1118Q543 1083 543 1014Q543 951 516.50 895Q490 839 438 804.50Q386 770 309 770Z"  horiz-adv-x="530" vert-adv-y="2048"  />

      
      <glyph glyph-name="unia2" unicode="&#xa2;" d="M307-20L350 168Q229 193 176 287.50Q123 382 123 557Q123 642 140.50 740Q158 838 194.50 934.50Q231 1031 287 1113.50Q343 1196 420 1252Q497 1308 596 1323L629 1483L815 1483L782 1323Q835 1314 881 1291.50Q927 1269 963 1243L827 981Q800 1009 759 1029Q718 1049 692 1049Q638 1049 595.50 1002Q553 955 523 881.50Q493 808 477 727Q461 646 461 578Q461 508 479.50 474Q498 440 537 440Q577 440 623 457.50Q669 475 723 510L811 285Q748 228 668.50 202.50Q589 177 537 168L496-20L307-20Z"  horiz-adv-x="971" vert-adv-y="2048"  />

      
      <glyph glyph-name="unia3" unicode="&#xa3;" d="M-25 0L37 283Q85 314 118 347.50Q151 381 172 423.50Q193 466 205 524L225 629L109 629L162 879L279 879L322 1085Q349 1205 401.50 1294.50Q454 1384 539.50 1433.50Q625 1483 750 1483Q827 1483 907.50 1461Q988 1439 1044 1399L913 1124Q876 1152 835 1167Q794 1182 762 1182Q711 1182 685 1147Q659 1112 645 1044L608 879L846 879L793 629L557 629L537 526Q523 456 475.50 398Q428 340 358 299L840 299L776 0L-25 0Z"  horiz-adv-x="971" vert-adv-y="2048"  />

      
      <glyph glyph-name="unia4" unicode="&#xa4;" d="M862 248L731 375Q687 350 636 337Q585 324 532 324Q476 324 424.50 337Q373 350 332 375L205 250L57 397L186 524Q159 569 146 618.50Q133 668 133 723Q133 774 146 823.50Q159 873 186 922L55 1051L205 1200L334 1071Q378 1099 429 1111.50Q480 1124 532 1124Q586 1124 636.50 1110.50Q687 1097 731 1069L862 1200L1012 1055L881 924Q907 878 920.50 828.50Q934 779 934 723Q934 666 921.50 615.50Q909 565 883 520L1008 395L862 248M532 532Q587 532 631.50 558Q676 584 702.50 627.50Q729 671 729 723Q729 775 702.50 818.50Q676 862 631.50 888.50Q587 915 532 915Q480 915 437 889Q394 863 368 819.50Q342 776 342 723Q342 671 368 627.50Q394 584 437 558Q480 532 532 532Z"  horiz-adv-x="971" vert-adv-y="2048"  />

      
      <glyph glyph-name="unia5" unicode="&#xa5;" d="M201 0L246 211L18 211L63 422L291 422L315 541L88 541L133 752L309 752L205 1462L553 1462L575 1014L788 1462L1145 1462L735 752L918 752L872 541L647 541L621 422L848 422L803 211L575 211L532 0L201 0Z"  horiz-adv-x="971" vert-adv-y="2048"  />

      
      <glyph glyph-name="unia6" unicode="&#xa6;" d="M256 799L256 1579L543 1579L543 799L256 799M256-469L256 311L543 311L543-469L256-469Z"  horiz-adv-x="803" vert-adv-y="2048"  />

      
      <glyph glyph-name="unia7" unicode="&#xa7;" d="M350-37Q265-37 190-17Q115 3 59 43L59 301Q136 237 207.50 213.50Q279 190 324 190Q377 190 407.50 222Q438 254 438 307Q438 338 418 361Q398 384 370 402.50Q342 421 317 438Q260 476 221.50 517Q183 558 163 607.50Q143 657 143 719Q143 794 168.50 851Q194 908 239.50 951Q285 994 344 1026Q306 1066 286 1113.50Q266 1161 266 1237Q266 1309 307.50 1382Q349 1455 430 1505.50Q511 1556 631 1559Q728 1559 812 1537Q896 1515 969 1470L854 1253Q807 1294 752 1313.50Q697 1333 643 1333Q618 1333 598 1321Q578 1309 566.50 1288.50Q555 1268 555 1241Q555 1213 580 1187.50Q605 1162 657 1126Q731 1075 774.50 1031Q818 987 837 943.50Q856 900 856 850Q856 776 832 720.50Q808 665 765.50 618.50Q723 572 666 526Q690 497 709.50 450.50Q729 404 729 330Q729 231 682.50 147.50Q636 64 551 13.50Q466-37 350-37M528 635Q547 657 561 696Q575 735 575 776Q575 804 567.50 827.50Q560 851 539 874.50Q518 898 477 926Q458 913 445.50 891Q433 869 427.50 843.50Q422 818 422 793Q422 762 433.50 735.50Q445 709 468.50 684.50Q492 660 528 635Z"  horiz-adv-x="905" vert-adv-y="2048"  />

      
      <glyph glyph-name="unia8" unicode="&#xa8;" d="M788 1257Q726 1257 692.50 1286Q659 1315 659 1372Q659 1449 707.50 1510Q756 1571 848 1571Q904 1571 935.50 1541.50Q967 1512 967 1458Q967 1367 912.50 1312Q858 1257 788 1257M399 1257Q336 1257 304 1286Q272 1315 272 1372Q272 1449 320.50 1510Q369 1571 461 1571Q497 1571 523 1558Q549 1545 563.50 1519.50Q578 1494 578 1458Q578 1367 524 1312Q470 1257 399 1257Z"  horiz-adv-x="879" vert-adv-y="2048"  />

      
      <glyph glyph-name="unia9" unicode="&#xa9;" d="M846-20Q672-20 532.50 39Q393 98 294.50 201.50Q196 305 144 442Q92 579 92 735Q92 900 148 1037Q204 1174 305.50 1274Q407 1374 544 1428.50Q681 1483 842 1483Q1006 1483 1143.50 1427Q1281 1371 1382 1269.50Q1483 1168 1539 1029.50Q1595 891 1595 725Q1595 562 1541 426Q1487 290 1387.50 190Q1288 90 1150.50 35Q1013-20 846-20M850 262Q639 262 522.50 385.50Q406 509 406 733Q406 880 456.50 984Q507 1088 604 1143Q701 1198 840 1198Q923 1198 1003 1178Q1083 1158 1161 1120L1069 936Q1015 964 963 977.50Q911 991 864 991Q767 991 714.50 926.50Q662 862 662 721Q662 591 712 530Q762 469 872 469Q932 469 997 486Q1062 503 1122 537L1122 326Q1059 294 991.50 278Q924 262 850 262M848 131Q978 131 1083.50 177Q1189 223 1265 304.50Q1341 386 1382 496Q1423 606 1423 733Q1423 867 1379 977Q1335 1087 1255.50 1166Q1176 1245 1070 1288Q964 1331 840 1331Q710 1331 604 1285Q498 1239 422 1157Q346 1075 305 965Q264 855 264 727Q264 592 308.50 482.50Q353 373 432.50 294Q512 215 618 173Q724 131 848 131Z"  horiz-adv-x="1688" vert-adv-y="2048"  />

      
      <glyph glyph-name="uniaa" unicode="&#xaa;" d="M348 729Q304 729 255.50 753.50Q207 778 173 837Q139 896 139 1001Q139 1081 161.50 1164Q184 1247 228.50 1317.50Q273 1388 338 1431.50Q403 1475 487 1475Q543 1475 578.50 1448Q614 1421 631 1376L639 1376L676 1462L834 1462L680 741L510 741L518 827L510 827Q485 786 446.50 757.50Q408 729 348 729M403 915Q426 915 445 932Q464 949 479 977Q494 1005 504.50 1039.50Q515 1074 520.50 1110Q526 1146 526 1178Q526 1237 515.50 1264.50Q505 1292 483 1292Q457 1292 435.50 1268Q414 1244 398 1203.50Q382 1163 373.50 1113Q365 1063 365 1012Q365 960 374.50 937.50Q384 915 403 915Z"  horiz-adv-x="674" vert-adv-y="2048"  />

      
      <glyph glyph-name="uniab" unicode="&#xab;" d="M258 61L31 555L33 578L395 1071L633 928L362 559L526 180L258 61M737 61L510 555L514 578L877 1071L1114 928L842 559L1008 180L737 61Z"  horiz-adv-x="1102" vert-adv-y="2048"  />

      
      <glyph glyph-name="uniac" unicode="&#xac;" d="M965 856L965 238L690 238L690 588L90 588L90 856L965 856Z"  horiz-adv-x="1024" vert-adv-y="2048"  />

      
      <glyph glyph-name="uniad" unicode="&#xad;" d="M18 393L84 705L606 705L539 393L18 393Z"  horiz-adv-x="629" vert-adv-y="2048"  />

      
      <glyph glyph-name="uniae" unicode="&#xae;" d="M510 313L510 1188L813 1188Q998 1188 1089 1120.50Q1180 1053 1180 918Q1180 832 1147 772.50Q1114 713 1038 676L1212 313L942 313L815 633L762 633L762 313L510 313M762 809L797 809Q855 809 888.50 830.50Q922 852 922 907Q922 955 895 974Q868 993 799 993L762 993L762 809M846-20Q672-20 532.50 39Q393 98 294.50 201.50Q196 305 144 442Q92 579 92 735Q92 900 148 1037Q204 1174 305.50 1274Q407 1374 544 1428.50Q681 1483 842 1483Q1006 1483 1143.50 1427Q1281 1371 1382 1269.50Q1483 1168 1539 1029.50Q1595 891 1595 725Q1595 562 1541 426Q1487 290 1387.50 190Q1288 90 1150.50 35Q1013-20 846-20M848 131Q978 131 1083.50 177Q1189 223 1265 304.50Q1341 386 1382 496Q1423 606 1423 733Q1423 867 1379 977Q1335 1087 1255.50 1166Q1176 1245 1070 1288Q964 1331 840 1331Q710 1331 604 1285Q498 1239 422 1157Q346 1075 305 965Q264 855 264 727Q264 592 308.50 482.50Q353 373 432.50 294Q512 215 618 173Q724 131 848 131Z"  horiz-adv-x="1688" vert-adv-y="2048"  />

      
      <glyph glyph-name="uniaf" unicode="&#xaf;" d="M207 1556L260 1802L1210 1802L1159 1556L207 1556Z"  horiz-adv-x="942" vert-adv-y="2048"  />

      
      <glyph glyph-name="unib0" unicode="&#xb0;" d="M367 852Q275 852 201 892Q127 932 84 1003Q41 1074 41 1167Q41 1261 84 1332Q127 1403 201 1443Q275 1483 367 1483Q460 1483 534 1443Q608 1403 651 1332Q694 1261 694 1167Q694 1074 651 1003Q608 932 534 892Q460 852 367 852M367 1044Q425 1044 457 1076.50Q489 1109 489 1167Q489 1224 457 1257Q425 1290 367 1290Q309 1290 277.50 1257Q246 1224 246 1167Q246 1109 277.50 1076.50Q309 1044 367 1044Z"  horiz-adv-x="735" vert-adv-y="2048"  />

      
      <glyph glyph-name="unib1" unicode="&#xb1;" d="M90 0L90 268L975 268L975 0L90 0M670 979L975 979L975 711L670 711L670 350L395 350L395 711L90 711L90 979L395 979L395 1346L670 1346L670 979Z"  horiz-adv-x="1024" vert-adv-y="2048"  />

      
      <glyph glyph-name="unib2" unicode="&#xb2;" d="M129 852L172 1055L377 1272Q426 1324 460.50 1362.50Q495 1401 513.50 1433.50Q532 1466 532 1499Q532 1521 522 1534.50Q512 1548 489 1548Q455 1548 415.50 1515.50Q376 1483 348 1454L272 1614Q328 1680 408.50 1715.50Q489 1751 567 1751Q680 1751 736.50 1695.50Q793 1640 793 1548Q793 1479 760.50 1417.50Q728 1356 677.50 1302Q627 1248 573 1200L428 1067L705 1067L659 852L129 852Z"  horiz-adv-x="670" vert-adv-y="2048"  />

      
      <glyph glyph-name="unib3" unicode="&#xb3;" d="M375 836Q306 836 252 854.50Q198 873 160 907L160 1135Q197 1093 256 1070Q315 1047 381 1047Q427 1047 456 1070Q485 1093 485 1141Q485 1167 466 1184.50Q447 1202 410 1202L313 1202L352 1384L430 1384Q467 1384 492.50 1397Q518 1410 531.50 1434Q545 1458 545 1491Q545 1520 528.50 1533Q512 1546 489 1546Q457 1546 424.50 1530Q392 1514 348 1479L264 1638Q332 1701 408.50 1724Q485 1747 549 1747Q636 1747 689.50 1721Q743 1695 767 1649.50Q791 1604 791 1544Q791 1469 749 1409.50Q707 1350 610 1313L608 1305Q656 1286 687.50 1245Q719 1204 719 1130Q719 1032 675.50 966.50Q632 901 555 868.50Q478 836 375 836Z"  horiz-adv-x="670" vert-adv-y="2048"  />

      
      <glyph glyph-name="unib4" unicode="&#xb4;" d="M225 1241L231 1264Q268 1314 303.50 1364Q339 1414 373.50 1465Q408 1516 440 1569L803 1569L801 1552Q778 1528 731.50 1484.50Q685 1441 632 1391.50Q579 1342 534.50 1300.50Q490 1259 469 1241L225 1241Z"  horiz-adv-x="674" vert-adv-y="2048"  />

      
      <glyph glyph-name="uni03BC" unicode="&#x03BC;" d="M-132-492L212 1133L540 1133L407 504Q397 458 391.50 422Q386 386 386 358Q386 317 396.50 295.50Q407 274 435 274Q460 274 483.50 291.50Q507 309 531 363Q555 417 579 524L708 1133L1035 1133L796 0L538 0L536 113L529 113Q503 59 475.50 30.50Q448 2 421.50-9Q395-20 368-20Q343-20 323-8Q303 4 288 27L282 27Q282-3 280-35.50Q278-68 274-103Q270-138 263-174L196-492L-132-492Z"  horiz-adv-x="1006" vert-adv-y="2048"  />

      
      <glyph glyph-name="unib6" unicode="&#xb6;" d="M547-260L545 551Q528 545 512 543Q496 541 473 541Q374 541 311.50 591.50Q249 642 215.50 722Q182 802 169 894Q156 986 156 1069Q156 1153 172 1239Q188 1325 226.50 1397Q265 1469 330 1512.50Q395 1556 494 1556L1022 1556L1022-260L840-260L840 1397L729 1397L729-260L547-260Z"  horiz-adv-x="1106" vert-adv-y="2048"  />

      
      <glyph glyph-name="unib7" unicode="&#xb7;" d="M271 532Q192 532 151.50 567.50Q111 603 111 672Q111 767 171 841Q231 915 344 915Q413 915 452.50 879Q492 843 492 778Q492 666 424.50 599Q357 532 271 532Z"  horiz-adv-x="532" vert-adv-y="2048"  />

      
      <glyph glyph-name="unib8" unicode="&#xb8;" d="M-96-492Q-139-492-181-487Q-223-482-264-469L-264-289Q-239-295-208.50-300Q-178-305-150-305Q-123-305-104.50-297.50Q-86-290-77-274.50Q-68-259-68-236Q-68-207-94.50-188.50Q-121-170-172-170L-72 0L84 0L43-70Q105-79 146.50-120.50Q188-162 188-236Q188-332 149.50-388Q111-444 46.50-468Q-18-492-96-492Z"  horiz-adv-x="293" vert-adv-y="2048"  />

      
      <glyph glyph-name="unib9" unicode="&#xb9;" d="M340 852L438 1311Q446 1346 454 1373Q462 1400 471 1427Q464 1418 454.50 1409Q445 1400 440 1395L334 1315L233 1456L573 1729L770 1729L584 852L340 852Z"  horiz-adv-x="670" vert-adv-y="2048"  />

      
      <glyph glyph-name="uniba" unicode="&#xba;" d="M383 727Q265 727 202 802.50Q139 878 139 1004Q139 1093 163 1177.50Q187 1262 234.50 1330Q282 1398 351 1438.50Q420 1479 510 1479Q611 1479 681.50 1412Q752 1345 752 1202Q752 1112 726 1027.50Q700 943 651 875Q602 807 534.50 767Q467 727 383 727M414 922Q438 922 458.50 943Q479 964 494 1000.50Q509 1037 517.50 1083.50Q526 1130 526 1182Q526 1235 514.50 1259.50Q503 1284 477 1284Q452 1284 431.50 1262Q411 1240 396 1202Q381 1164 373 1116Q365 1068 365 1016Q365 964 377 943Q389 922 414 922Z"  horiz-adv-x="659" vert-adv-y="2048"  />

      
      <glyph glyph-name="unibb" unicode="&#xbb;" d="M700 61L463 205L735 573L569 952L838 1071L1067 578L1063 555L700 61M221 61L-16 205L254 573L90 952L358 1071L586 578L584 555L221 61Z"  horiz-adv-x="1102" vert-adv-y="2048"  />

      
      <glyph glyph-name="unibc" unicode="&#xbc;" d="M242 0L1198 1462L1448 1462L492 0L242 0M285 586L383 1045Q391 1080 399 1107Q407 1134 416 1161Q409 1152 399.50 1143Q390 1134 385 1129L279 1049L178 1190L518 1463L715 1463L529 586L285 586M1166 0L1196 139L901 139L938 313L1330 883L1594 883L1475 330L1575 330L1534 139L1436 139L1405 0L1166 0M1137 330L1237 330L1274 506Q1279 526 1283 546Q1287 566 1297 598Q1286 575 1277 552.50Q1268 530 1254 508L1137 330Z"  horiz-adv-x="1645" vert-adv-y="2048"  />

      
      <glyph glyph-name="unibd" unicode="&#xbd;" d="M221 0L1177 1462L1427 1462L471 0L221 0M285 586L383 1045Q391 1080 399 1107Q407 1134 416 1161Q409 1152 399.50 1143Q390 1134 385 1129L279 1049L178 1190L518 1463L715 1463L529 586L285 586M924 0L967 203L1172 420Q1221 472 1255.50 510.50Q1290 549 1308.50 581.50Q1327 614 1327 647Q1327 669 1317 682.50Q1307 696 1284 696Q1250 696 1210.50 663.50Q1171 631 1143 602L1067 762Q1123 828 1203.50 863.50Q1284 899 1362 899Q1475 899 1531.50 843.50Q1588 788 1588 696Q1588 627 1555.50 565.50Q1523 504 1472.50 450Q1422 396 1368 348L1223 215L1500 215L1454 0L924 0Z"  horiz-adv-x="1645" vert-adv-y="2048"  />

      
      <glyph glyph-name="unibe" unicode="&#xbe;" d="M320 570Q251 570 197 588.50Q143 607 105 641L105 869Q142 827 201 804Q260 781 326 781Q372 781 401 804Q430 827 430 875Q430 901 411 918.50Q392 936 355 936L258 936L297 1118L375 1118Q412 1118 437.50 1131Q463 1144 476.50 1168Q490 1192 490 1225Q490 1254 473.50 1267Q457 1280 434 1280Q402 1280 369.50 1264Q337 1248 293 1213L209 1372Q277 1435 353.50 1458Q430 1481 494 1481Q581 1481 634.50 1455Q688 1429 712 1383.50Q736 1338 736 1278Q736 1203 694 1143.50Q652 1084 555 1047L553 1039Q601 1020 632.50 979Q664 938 664 864Q664 766 620.50 700.50Q577 635 500 602.50Q423 570 320 570M260 0L1216 1462L1466 1462L510 0L260 0M1166 0L1196 139L901 139L938 313L1330 883L1594 883L1475 330L1575 330L1534 139L1436 139L1405 0L1166 0M1137 330L1237 330L1274 506Q1279 526 1283 546Q1287 566 1297 598Q1286 575 1277 552.50Q1268 530 1254 508L1137 330Z"  horiz-adv-x="1645" vert-adv-y="2048"  />

      
      <glyph glyph-name="unibf" unicode="&#xbf;" d="M584 612Q570 521 549 461Q528 401 495.50 356Q463 311 414 266Q336 194 296.50 154Q257 114 243 85.50Q229 57 229 20Q229-15 251.50-37.50Q274-60 311-60Q376-60 440.50-26.50Q505 7 563 47L602-209Q505-283 408-319Q311-355 219-355Q64-355-16-279.50Q-96-204-96-72Q-96 29-59 111.50Q-22 194 37.50 262.50Q97 331 162 387Q206 425 231 452.50Q256 480 271 515.50Q286 551 299 612L584 612M547 1153Q627 1153 668 1117.50Q709 1082 709 1013Q709 918 649 844Q589 770 473 770Q406 770 367 806.50Q328 843 328 907Q328 1019 394.50 1086Q461 1153 547 1153Z"  horiz-adv-x="770" vert-adv-y="2048"  />

      
      <glyph glyph-name="unic0" unicode="&#xc0;" d="M-119 0L512 1468L948 1468L971 0L606 0L614 285L365 285L256 0L-119 0M477 582L633 582L649 961Q651 1010 653 1058Q655 1106 662 1163L655 1163Q646 1110 633.50 1063.50Q621 1017 604 967L477 582M645 1624Q621 1658 582.50 1717Q544 1776 508 1836Q472 1896 453 1933L453 1952L817 1952Q826 1913 837 1867Q848 1821 863 1767.50Q878 1714 897 1651L895 1624L645 1624Z"  horiz-adv-x="1090" vert-adv-y="2048"  />

      
      <glyph glyph-name="unic1" unicode="&#xc1;" d="M-119 0L512 1468L948 1468L971 0L606 0L614 285L365 285L256 0L-119 0M477 582L633 582L649 961Q651 1010 653 1058Q655 1106 662 1163L655 1163Q646 1110 633.50 1063.50Q621 1017 604 967L477 582M559 1624L565 1647Q602 1697 637.50 1747Q673 1797 707.50 1848Q742 1899 774 1952L1137 1952L1135 1935Q1112 1911 1065.50 1867.50Q1019 1824 966 1774.50Q913 1725 868.50 1683.50Q824 1642 803 1624L559 1624Z"  horiz-adv-x="1090" vert-adv-y="2048"  />

      
      <glyph glyph-name="unic2" unicode="&#xc2;" d="M-119 0L512 1468L948 1468L971 0L606 0L614 285L365 285L256 0L-119 0M477 582L633 582L649 961Q651 1010 653 1058Q655 1106 662 1163L655 1163Q646 1110 633.50 1063.50Q621 1017 604 967L477 582M436 1624L440 1649Q484 1694 525.50 1743Q567 1792 607 1844.50Q647 1897 686 1952L983 1952Q993 1912 1011 1858.50Q1029 1805 1051.50 1750.50Q1074 1696 1094 1653L1088 1624L885 1624Q871 1641 855.50 1661.50Q840 1682 824.50 1706.50Q809 1731 793 1759Q748 1713 712.50 1679.50Q677 1646 649 1624L436 1624Z"  horiz-adv-x="1090" vert-adv-y="2048"  />

      
      <glyph glyph-name="unic3" unicode="&#xc3;" d="M-119 0L512 1468L948 1468L971 0L606 0L614 285L365 285L256 0L-119 0M477 582L633 582L649 961Q651 1010 653 1058Q655 1106 662 1163L655 1163Q646 1110 633.50 1063.50Q621 1017 604 967L477 582M424 1620Q442 1712 470 1790Q498 1868 547 1915Q596 1962 676 1962Q727 1962 762 1947.50Q797 1933 823 1914Q849 1895 871 1880.50Q893 1866 916 1866Q941 1866 958 1888Q975 1910 987 1964L1170 1964Q1150 1835 1108.50 1760.50Q1067 1686 1016 1654Q965 1622 914 1622Q865 1622 830.50 1636.50Q796 1651 770 1670Q744 1689 722 1703.50Q700 1718 676 1718Q658 1718 638 1697Q618 1676 607 1620L424 1620Z"  horiz-adv-x="1090" vert-adv-y="2048"  />

      
      <glyph glyph-name="unic4" unicode="&#xc4;" d="M-119 0L512 1468L948 1468L971 0L606 0L614 285L365 285L256 0L-119 0M477 582L633 582L649 961Q651 1010 653 1058Q655 1106 662 1163L655 1163Q646 1110 633.50 1063.50Q621 1017 604 967L477 582M966 1640Q904 1640 870.50 1669Q837 1698 837 1755Q837 1832 885.50 1893Q934 1954 1026 1954Q1082 1954 1113.50 1924.50Q1145 1895 1145 1841Q1145 1750 1090.50 1695Q1036 1640 966 1640M577 1640Q514 1640 482 1669Q450 1698 450 1755Q450 1832 498.50 1893Q547 1954 639 1954Q675 1954 701 1941Q727 1928 741.50 1902.50Q756 1877 756 1841Q756 1750 702 1695Q648 1640 577 1640Z"  horiz-adv-x="1090" vert-adv-y="2048"  />

      
      <glyph glyph-name="unic5" unicode="&#xc5;" d="M-119 0L512 1468L948 1468L971 0L606 0L614 285L365 285L256 0L-119 0M477 582L633 582L649 961Q651 1010 653 1058Q655 1106 662 1163L655 1163Q646 1110 633.50 1063.50Q621 1017 604 967L477 582M774 1538Q653 1538 585.50 1606.50Q518 1675 518 1790Q518 1902 587.50 1970Q657 2038 774 2038Q880 2038 954 1971Q1028 1904 1028 1794Q1028 1682 960 1610Q892 1538 774 1538M774 1698Q814 1698 839 1722.50Q864 1747 864 1788Q864 1828 839.50 1854Q815 1880 774 1880Q731 1880 706.50 1854Q682 1828 682 1788Q682 1747 704 1722.50Q726 1698 774 1698Z"  horiz-adv-x="1090" vert-adv-y="2048"  />

      
      <glyph glyph-name="unic6" unicode="&#xc6;" d="M-127 0L592 1462L1513 1462L1452 1167L1130 1167L1075 903L1372 903L1309 608L1012 608L946 299L1268 299L1204 0L545 0L606 285L375 285L242 0L-127 0M510 584L670 584L793 1167L774 1167L510 584Z"  horiz-adv-x="1409" vert-adv-y="2048"  />

      
      <glyph glyph-name="unic7" unicode="&#xc7;" d="M446-20Q323-20 239 38Q155 96 112.50 201.50Q70 307 70 449Q70 594 99.50 741Q129 888 185.50 1021Q242 1154 323.50 1258.50Q405 1363 509.50 1423Q614 1483 739 1483Q831 1483 923 1460Q1015 1437 1092 1378L932 1108Q883 1146 840 1165Q797 1184 754 1184Q687 1184 634.50 1128Q582 1072 544 983.50Q506 895 481 795.50Q456 696 444 607.50Q432 519 432 465Q432 365 460.50 323Q489 281 541 281Q609 281 674.50 303.50Q740 326 803 358L803 55Q724 15 628-2.50Q532-20 446-20M361-492Q318-492 276-487Q234-482 193-469L193-289Q218-295 248.50-300Q279-305 307-305Q334-305 352.50-297.50Q371-290 380-274.50Q389-259 389-236Q389-207 362.50-188.50Q336-170 285-170L385 0L541 0L500-70Q562-79 603.50-120.50Q645-162 645-236Q645-332 606.50-388Q568-444 503.50-468Q439-492 361-492Z"  horiz-adv-x="965" vert-adv-y="2048"  />

      
      <glyph glyph-name="unic8" unicode="&#xc8;" d="M-10 0L299 1462L963 1462L901 1167L580 1167L522 903L821 903L758 608L461 608L393 299L717 299L653 0L-10 0M542 1579Q518 1613 479.50 1672Q441 1731 405 1791Q369 1851 350 1888L350 1907L714 1907Q723 1868 734 1822Q745 1776 760 1722.50Q775 1669 794 1606L792 1579L542 1579Z"  horiz-adv-x="858" vert-adv-y="2048"  />

      
      <glyph glyph-name="unic9" unicode="&#xc9;" d="M-10 0L299 1462L963 1462L901 1167L580 1167L522 903L821 903L758 608L461 608L393 299L717 299L653 0L-10 0M467 1579L473 1602Q510 1652 545.50 1702Q581 1752 615.50 1803Q650 1854 682 1907L1045 1907L1043 1890Q1020 1866 973.50 1822.50Q927 1779 874 1729.50Q821 1680 776.50 1638.50Q732 1597 711 1579L467 1579Z"  horiz-adv-x="858" vert-adv-y="2048"  />

      
      <glyph glyph-name="unica" unicode="&#xca;" d="M-10 0L299 1462L963 1462L901 1167L580 1167L522 903L821 903L758 608L461 608L393 299L717 299L653 0L-10 0M329 1579L333 1604Q377 1649 418.50 1698Q460 1747 500 1799.50Q540 1852 579 1907L876 1907Q886 1867 904 1813.50Q922 1760 944.50 1705.50Q967 1651 987 1608L981 1579L778 1579Q764 1596 748.50 1616.50Q733 1637 717.50 1661.50Q702 1686 686 1714Q641 1668 605.50 1634.50Q570 1601 542 1579L329 1579Z"  horiz-adv-x="858" vert-adv-y="2048"  />

      
      <glyph glyph-name="unicb" unicode="&#xcb;" d="M-10 0L299 1462L963 1462L901 1167L580 1167L522 903L821 903L758 608L461 608L393 299L717 299L653 0L-10 0M841 1595Q779 1595 745.50 1624Q712 1653 712 1710Q712 1787 760.50 1848Q809 1909 901 1909Q957 1909 988.50 1879.50Q1020 1850 1020 1796Q1020 1705 965.50 1650Q911 1595 841 1595M452 1595Q389 1595 357 1624Q325 1653 325 1710Q325 1787 373.50 1848Q422 1909 514 1909Q550 1909 576 1896Q602 1883 616.50 1857.50Q631 1832 631 1796Q631 1705 577 1650Q523 1595 452 1595Z"  horiz-adv-x="858" vert-adv-y="2048"  />

      
      <glyph glyph-name="unicc" unicode="&#xcc;" d="M-12 0L299 1462L641 1462L330 0L-12 0M426 1618Q402 1652 363.50 1711Q325 1770 289 1830Q253 1890 234 1927L234 1946L598 1946Q607 1907 618 1861Q629 1815 644 1761.50Q659 1708 678 1645L676 1618L426 1618Z"  horiz-adv-x="557" vert-adv-y="2048"  />

      
      <glyph glyph-name="unicd" unicode="&#xcd;" d="M-12 0L299 1462L641 1462L330 0L-12 0M325 1618L331 1641Q368 1691 403.50 1741Q439 1791 473.50 1842Q508 1893 540 1946L903 1946L901 1929Q878 1905 831.50 1861.50Q785 1818 732 1768.50Q679 1719 634.50 1677.50Q590 1636 569 1618L325 1618Z"  horiz-adv-x="557" vert-adv-y="2048"  />

      
      <glyph glyph-name="unice" unicode="&#xce;" d="M-12 0L299 1462L641 1462L330 0L-12 0M163 1618L167 1643Q211 1688 252.50 1737Q294 1786 334 1838.50Q374 1891 413 1946L710 1946Q720 1906 738 1852.50Q756 1799 778.50 1744.50Q801 1690 821 1647L815 1618L612 1618Q598 1635 582.50 1655.50Q567 1676 551.50 1700.50Q536 1725 520 1753Q475 1707 439.50 1673.50Q404 1640 376 1618L163 1618Z"  horiz-adv-x="557" vert-adv-y="2048"  />

      
      <glyph glyph-name="unicf" unicode="&#xcf;" d="M-12 0L299 1462L641 1462L330 0L-12 0M704 1634Q642 1634 608.50 1663Q575 1692 575 1749Q575 1826 623.50 1887Q672 1948 764 1948Q820 1948 851.50 1918.50Q883 1889 883 1835Q883 1744 828.50 1689Q774 1634 704 1634M315 1634Q252 1634 220 1663Q188 1692 188 1749Q188 1826 236.50 1887Q285 1948 377 1948Q413 1948 439 1935Q465 1922 479.50 1896.50Q494 1871 494 1835Q494 1744 440 1689Q386 1634 315 1634Z"  horiz-adv-x="557" vert-adv-y="2048"  />

      
      <glyph glyph-name="unid0" unicode="&#xd0;" d="M-10 0L123 631L14 631L70 887L178 887L299 1462L635 1462Q870 1462 992 1338Q1114 1214 1114 997Q1114 855 1084.50 712.50Q1055 570 996 442Q937 314 847.50 214.50Q758 115 637.50 57.50Q517 0 365 0L-10 0M395 303L416 303Q492 303 548.50 352Q605 401 644.50 479.50Q684 558 708 647.50Q732 737 743 820.50Q754 904 754 961Q754 1064 717 1112.50Q680 1161 606 1161L578 1161L518 887L647 887L594 631L463 631L395 303Z"  horiz-adv-x="1112" vert-adv-y="2048"  />

      
      <glyph glyph-name="unid1" unicode="&#xd1;" d="M-10 0L299 1462L678 1462L829 627L836 627Q844 681 852.50 733.50Q861 786 869.50 833Q878 880 885 915L1001 1462L1323 1462L1014 0L633 0L481 862L477 862Q470 814 463.50 770Q457 726 451 687Q445 648 439 614.50Q433 581 428 555L309 0L-10 0M479 1575Q497 1667 525 1745Q553 1823 602 1870Q651 1917 731 1917Q782 1917 817 1902.50Q852 1888 878 1869Q904 1850 926 1835.50Q948 1821 971 1821Q996 1821 1013 1843Q1030 1865 1042 1919L1225 1919Q1205 1790 1163.50 1715.50Q1122 1641 1071 1609Q1020 1577 969 1577Q920 1577 885.50 1591.50Q851 1606 825 1625Q799 1644 777 1658.50Q755 1673 731 1673Q713 1673 693 1652Q673 1631 662 1575L479 1575Z"  horiz-adv-x="1239" vert-adv-y="2048"  />

      
      <glyph glyph-name="unid2" unicode="&#xd2;" d="M498-20Q353-20 258.50 32.50Q164 85 118 194.50Q72 304 72 475Q72 590 92 709Q112 828 151.50 941.50Q191 1055 249 1153Q307 1251 383 1326Q459 1401 552.50 1443Q646 1485 756 1485Q977 1485 1076.50 1359.50Q1176 1234 1176 991Q1176 893 1159.50 780.50Q1143 668 1108 554.50Q1073 441 1019 338Q965 235 889.50 154.50Q814 74 716.50 27Q619-20 498-20M522 285Q569 285 609.50 321Q650 357 683 417.50Q716 478 741.50 554Q767 630 784 710.50Q801 791 810 866.50Q819 942 819 1001Q819 1095 795 1140.50Q771 1186 727 1186Q680 1186 640 1150.50Q600 1115 566.50 1054.50Q533 994 508 919Q483 844 465.50 763.50Q448 683 439 608Q430 533 430 473Q430 396 440.50 355.50Q451 315 472 300Q493 285 522 285M677 1579Q653 1613 614.50 1672Q576 1731 540 1791Q504 1851 485 1888L485 1907L849 1907Q858 1868 869 1822Q880 1776 895 1722.50Q910 1669 929 1606L927 1579L677 1579Z"  horiz-adv-x="1176" vert-adv-y="2048"  />

      
      <glyph glyph-name="unid3" unicode="&#xd3;" d="M498-20Q353-20 258.50 32.50Q164 85 118 194.50Q72 304 72 475Q72 590 92 709Q112 828 151.50 941.50Q191 1055 249 1153Q307 1251 383 1326Q459 1401 552.50 1443Q646 1485 756 1485Q977 1485 1076.50 1359.50Q1176 1234 1176 991Q1176 893 1159.50 780.50Q1143 668 1108 554.50Q1073 441 1019 338Q965 235 889.50 154.50Q814 74 716.50 27Q619-20 498-20M522 285Q569 285 609.50 321Q650 357 683 417.50Q716 478 741.50 554Q767 630 784 710.50Q801 791 810 866.50Q819 942 819 1001Q819 1095 795 1140.50Q771 1186 727 1186Q680 1186 640 1150.50Q600 1115 566.50 1054.50Q533 994 508 919Q483 844 465.50 763.50Q448 683 439 608Q430 533 430 473Q430 396 440.50 355.50Q451 315 472 300Q493 285 522 285M604 1579L610 1602Q647 1652 682.50 1702Q718 1752 752.50 1803Q787 1854 819 1907L1182 1907L1180 1890Q1157 1866 1110.50 1822.50Q1064 1779 1011 1729.50Q958 1680 913.50 1638.50Q869 1597 848 1579L604 1579Z"  horiz-adv-x="1176" vert-adv-y="2048"  />

      
      <glyph glyph-name="unid4" unicode="&#xd4;" d="M498-20Q353-20 258.50 32.50Q164 85 118 194.50Q72 304 72 475Q72 590 92 709Q112 828 151.50 941.50Q191 1055 249 1153Q307 1251 383 1326Q459 1401 552.50 1443Q646 1485 756 1485Q977 1485 1076.50 1359.50Q1176 1234 1176 991Q1176 893 1159.50 780.50Q1143 668 1108 554.50Q1073 441 1019 338Q965 235 889.50 154.50Q814 74 716.50 27Q619-20 498-20M522 285Q569 285 609.50 321Q650 357 683 417.50Q716 478 741.50 554Q767 630 784 710.50Q801 791 810 866.50Q819 942 819 1001Q819 1095 795 1140.50Q771 1186 727 1186Q680 1186 640 1150.50Q600 1115 566.50 1054.50Q533 994 508 919Q483 844 465.50 763.50Q448 683 439 608Q430 533 430 473Q430 396 440.50 355.50Q451 315 472 300Q493 285 522 285M440 1579L444 1604Q488 1649 529.50 1698Q571 1747 611 1799.50Q651 1852 690 1907L987 1907Q997 1867 1015 1813.50Q1033 1760 1055.50 1705.50Q1078 1651 1098 1608L1092 1579L889 1579Q875 1596 859.50 1616.50Q844 1637 828.50 1661.50Q813 1686 797 1714Q752 1668 716.50 1634.50Q681 1601 653 1579L440 1579Z"  horiz-adv-x="1176" vert-adv-y="2048"  />

      
      <glyph glyph-name="unid5" unicode="&#xd5;" d="M498-20Q353-20 258.50 32.50Q164 85 118 194.50Q72 304 72 475Q72 590 92 709Q112 828 151.50 941.50Q191 1055 249 1153Q307 1251 383 1326Q459 1401 552.50 1443Q646 1485 756 1485Q977 1485 1076.50 1359.50Q1176 1234 1176 991Q1176 893 1159.50 780.50Q1143 668 1108 554.50Q1073 441 1019 338Q965 235 889.50 154.50Q814 74 716.50 27Q619-20 498-20M522 285Q569 285 609.50 321Q650 357 683 417.50Q716 478 741.50 554Q767 630 784 710.50Q801 791 810 866.50Q819 942 819 1001Q819 1095 795 1140.50Q771 1186 727 1186Q680 1186 640 1150.50Q600 1115 566.50 1054.50Q533 994 508 919Q483 844 465.50 763.50Q448 683 439 608Q430 533 430 473Q430 396 440.50 355.50Q451 315 472 300Q493 285 522 285M456 1575Q474 1667 502 1745Q530 1823 579 1870Q628 1917 708 1917Q759 1917 794 1902.50Q829 1888 855 1869Q881 1850 903 1835.50Q925 1821 948 1821Q973 1821 990 1843Q1007 1865 1019 1919L1202 1919Q1182 1790 1140.50 1715.50Q1099 1641 1048 1609Q997 1577 946 1577Q897 1577 862.50 1591.50Q828 1606 802 1625Q776 1644 754 1658.50Q732 1673 708 1673Q690 1673 670 1652Q650 1631 639 1575L456 1575Z"  horiz-adv-x="1176" vert-adv-y="2048"  />

      
      <glyph glyph-name="unid6" unicode="&#xd6;" d="M498-20Q353-20 258.50 32.50Q164 85 118 194.50Q72 304 72 475Q72 590 92 709Q112 828 151.50 941.50Q191 1055 249 1153Q307 1251 383 1326Q459 1401 552.50 1443Q646 1485 756 1485Q977 1485 1076.50 1359.50Q1176 1234 1176 991Q1176 893 1159.50 780.50Q1143 668 1108 554.50Q1073 441 1019 338Q965 235 889.50 154.50Q814 74 716.50 27Q619-20 498-20M522 285Q569 285 609.50 321Q650 357 683 417.50Q716 478 741.50 554Q767 630 784 710.50Q801 791 810 866.50Q819 942 819 1001Q819 1095 795 1140.50Q771 1186 727 1186Q680 1186 640 1150.50Q600 1115 566.50 1054.50Q533 994 508 919Q483 844 465.50 763.50Q448 683 439 608Q430 533 430 473Q430 396 440.50 355.50Q451 315 472 300Q493 285 522 285M976 1595Q914 1595 880.50 1624Q847 1653 847 1710Q847 1787 895.50 1848Q944 1909 1036 1909Q1092 1909 1123.50 1879.50Q1155 1850 1155 1796Q1155 1705 1100.50 1650Q1046 1595 976 1595M587 1595Q524 1595 492 1624Q460 1653 460 1710Q460 1787 508.50 1848Q557 1909 649 1909Q685 1909 711 1896Q737 1883 751.50 1857.50Q766 1832 766 1796Q766 1705 712 1650Q658 1595 587 1595Z"  horiz-adv-x="1176" vert-adv-y="2048"  />

      
      <glyph glyph-name="unid7" unicode="&#xd7;" d="M782 1159L971 977L717 723L967 471L782 287L528 537L276 289L98 475L342 723L96 971L276 1159L528 913L782 1159Z"  horiz-adv-x="1024" vert-adv-y="2048"  />

      
      <glyph glyph-name="unid8" unicode="&#xd8;" d="M176-117L29-31L143 145Q106 204 89 286.50Q72 369 72 475Q72 590 92 709Q112 828 151.50 941.50Q191 1055 249 1153Q307 1251 383 1326Q459 1401 552.50 1443Q646 1485 756 1485Q827 1485 885 1471.50Q943 1458 989 1434L1069 1556L1217 1470L1110 1309Q1144 1249 1160 1169Q1176 1089 1176 991Q1176 893 1159.50 780.50Q1143 668 1108 554.50Q1073 441 1019 338Q965 235 889.50 154.50Q814 74 716.50 27Q619-20 498-20Q429-20 372-9Q315 2 268 27L176-117M522 285Q559 285 592 307.50Q625 330 653 369Q681 408 705 460Q729 512 747.50 571.50Q766 631 780 694Q794 757 803 817Q806 833 808 847Q810 861 811 874L453 324Q465 302 482.50 293.50Q500 285 522 285M434 567L801 1128Q788 1157 770 1171.50Q752 1186 727 1186Q690 1186 657.50 1163.50Q625 1141 596.50 1101Q568 1061 543.50 1008.50Q519 956 500 895.50Q481 835 467 772.50Q453 710 444 649Q441 628 438.50 607.50Q436 587 434 567Z"  horiz-adv-x="1176" vert-adv-y="2048"  />

      
      <glyph glyph-name="unid9" unicode="&#xd9;" d="M451-20Q333-20 248 22.50Q163 65 117.50 145Q72 225 72 336Q72 371 77.50 417.50Q83 464 92 510L295 1462L637 1462L434 504Q427 473 423.50 445Q420 417 420 395Q420 337 439.50 311Q459 285 498 285Q538 285 567.50 306Q597 327 618.50 375.50Q640 424 657 506L862 1462L1204 1462L989 453Q957 298 890 192.50Q823 87 715.50 33.50Q608-20 451-20M659 1579Q635 1613 596.50 1672Q558 1731 522 1791Q486 1851 467 1888L467 1907L831 1907Q840 1868 851 1822Q862 1776 877 1722.50Q892 1669 911 1606L909 1579L659 1579Z"  horiz-adv-x="1114" vert-adv-y="2048"  />

      
      <glyph glyph-name="unida" unicode="&#xda;" d="M451-20Q333-20 248 22.50Q163 65 117.50 145Q72 225 72 336Q72 371 77.50 417.50Q83 464 92 510L295 1462L637 1462L434 504Q427 473 423.50 445Q420 417 420 395Q420 337 439.50 311Q459 285 498 285Q538 285 567.50 306Q597 327 618.50 375.50Q640 424 657 506L862 1462L1204 1462L989 453Q957 298 890 192.50Q823 87 715.50 33.50Q608-20 451-20M606 1579L612 1602Q649 1652 684.50 1702Q720 1752 754.50 1803Q789 1854 821 1907L1184 1907L1182 1890Q1159 1866 1112.50 1822.50Q1066 1779 1013 1729.50Q960 1680 915.50 1638.50Q871 1597 850 1579L606 1579Z"  horiz-adv-x="1114" vert-adv-y="2048"  />

      
      <glyph glyph-name="unidb" unicode="&#xdb;" d="M451-20Q333-20 248 22.50Q163 65 117.50 145Q72 225 72 336Q72 371 77.50 417.50Q83 464 92 510L295 1462L637 1462L434 504Q427 473 423.50 445Q420 417 420 395Q420 337 439.50 311Q459 285 498 285Q538 285 567.50 306Q597 327 618.50 375.50Q640 424 657 506L862 1462L1204 1462L989 453Q957 298 890 192.50Q823 87 715.50 33.50Q608-20 451-20M438 1579L442 1604Q486 1649 527.50 1698Q569 1747 609 1799.50Q649 1852 688 1907L985 1907Q995 1867 1013 1813.50Q1031 1760 1053.50 1705.50Q1076 1651 1096 1608L1090 1579L887 1579Q873 1596 857.50 1616.50Q842 1637 826.50 1661.50Q811 1686 795 1714Q750 1668 714.50 1634.50Q679 1601 651 1579L438 1579Z"  horiz-adv-x="1114" vert-adv-y="2048"  />

      
      <glyph glyph-name="unidc" unicode="&#xdc;" d="M451-20Q333-20 248 22.50Q163 65 117.50 145Q72 225 72 336Q72 371 77.50 417.50Q83 464 92 510L295 1462L637 1462L434 504Q427 473 423.50 445Q420 417 420 395Q420 337 439.50 311Q459 285 498 285Q538 285 567.50 306Q597 327 618.50 375.50Q640 424 657 506L862 1462L1204 1462L989 453Q957 298 890 192.50Q823 87 715.50 33.50Q608-20 451-20M964 1595Q902 1595 868.50 1624Q835 1653 835 1710Q835 1787 883.50 1848Q932 1909 1024 1909Q1080 1909 1111.50 1879.50Q1143 1850 1143 1796Q1143 1705 1088.50 1650Q1034 1595 964 1595M575 1595Q512 1595 480 1624Q448 1653 448 1710Q448 1787 496.50 1848Q545 1909 637 1909Q673 1909 699 1896Q725 1883 739.50 1857.50Q754 1832 754 1796Q754 1705 700 1650Q646 1595 575 1595Z"  horiz-adv-x="1114" vert-adv-y="2048"  />

      
      <glyph glyph-name="unidd" unicode="&#xdd;" d="M211 0L326 549L190 1462L547 1462L586 993L823 1462L1190 1462L672 561L553 0L211 0M549 1579L555 1602Q592 1652 627.50 1702Q663 1752 697.50 1803Q732 1854 764 1907L1127 1907L1125 1890Q1102 1866 1055.50 1822.50Q1009 1779 956 1729.50Q903 1680 858.50 1638.50Q814 1597 793 1579L549 1579Z"  horiz-adv-x="1001" vert-adv-y="2048"  />

      
      <glyph glyph-name="unide" unicode="&#xde;" d="M-10 0L299 1462L641 1462L596 1249L612 1249Q751 1249 837 1205.50Q923 1162 963.50 1083.50Q1004 1005 1004 899Q1004 794 974 683.50Q944 573 879.50 480Q815 387 713.50 329.50Q612 272 469 272L389 272L332 0L-10 0M451 567L477 567Q531 567 570 604Q609 641 630 706Q651 771 651 854Q651 914 626.50 934Q602 954 553 954L535 954L451 567Z"  horiz-adv-x="987" vert-adv-y="2048"  />

      
      <glyph glyph-name="unidf" unicode="&#xdf;" d="M-106-492Q-143-492-180-488Q-217-484-258-469L-258-184Q-239-194-206.50-199.50Q-174-205-156-205Q-109-205-82-176Q-55-147-39-66L207 1100Q237 1240 303 1345Q369 1450 472.50 1508.50Q576 1567 717 1567Q915 1567 1018.50 1482Q1122 1397 1122 1262Q1122 1198 1108 1146.50Q1094 1095 1065 1050.50Q1036 1006 991 963Q936 915 892 874Q848 833 848 762Q848 747 855 728.50Q862 710 876.50 689.50Q891 669 913 645Q966 591 999 534Q1032 477 1032 377Q1032 256 976.50 167Q921 78 825 29Q729-20 606-20Q539-20 475.50-7Q412 6 356 41L420 346Q469 299 519.50 281.50Q570 264 610 264Q651 264 669.50 287.50Q688 311 688 342Q688 364 679 382Q670 400 648 428.50Q626 457 586 508Q538 567 520 610.50Q502 654 502 711Q502 763 521.50 812.50Q541 862 576 908.50Q611 955 659 999Q697 1033 724.50 1063Q752 1093 767 1126.50Q782 1160 782 1204Q782 1239 763 1264.50Q744 1290 702 1290Q658 1290 625 1264Q592 1238 568 1187Q544 1136 526 1059L281-92Q254-220 210.50-309.50Q167-399 92-445.50Q17-492-106-492Z"  horiz-adv-x="1122" vert-adv-y="2048"  />

      
      <glyph glyph-name="unie0" unicode="&#xe0;" d="M264-20Q192-20 139 21.50Q86 63 57.50 139Q29 215 29 319Q29 406 46 516Q63 626 97.50 737.50Q132 849 185 943.50Q238 1038 311 1095.50Q384 1153 477 1153Q520 1153 558.50 1138Q597 1123 628.50 1089Q660 1055 680 997L686 997L739 1133L1026 1133L784 0L518 0L510 135L502 135Q467 91 432.50 56Q398 21 357.50 0.50Q317-20 264-20M412 256Q456 256 487.50 303.50Q519 351 540 418Q561 485 573 543Q595 638 600.50 683.50Q606 729 606 758Q606 815 591 841.50Q576 868 545 868Q514 868 486.50 831Q459 794 437 735Q415 676 399.50 608.50Q384 541 375.50 478Q367 415 367 371Q367 314 378.50 285Q390 256 412 256M534 1253Q510 1287 471.50 1346Q433 1405 397 1465Q361 1525 342 1562L342 1581L706 1581Q715 1542 726 1496Q737 1450 752 1396.50Q767 1343 786 1280L784 1253L534 1253Z"  horiz-adv-x="997" vert-adv-y="2048"  />

      
      <glyph glyph-name="unie1" unicode="&#xe1;" d="M264-20Q192-20 139 21.50Q86 63 57.50 139Q29 215 29 319Q29 406 46 516Q63 626 97.50 737.50Q132 849 185 943.50Q238 1038 311 1095.50Q384 1153 477 1153Q520 1153 558.50 1138Q597 1123 628.50 1089Q660 1055 680 997L686 997L739 1133L1026 1133L784 0L518 0L510 135L502 135Q467 91 432.50 56Q398 21 357.50 0.50Q317-20 264-20M412 256Q456 256 487.50 303.50Q519 351 540 418Q561 485 573 543Q595 638 600.50 683.50Q606 729 606 758Q606 815 591 841.50Q576 868 545 868Q514 868 486.50 831Q459 794 437 735Q415 676 399.50 608.50Q384 541 375.50 478Q367 415 367 371Q367 314 378.50 285Q390 256 412 256M448 1253L454 1276Q491 1326 526.50 1376Q562 1426 596.50 1477Q631 1528 663 1581L1026 1581L1024 1564Q1001 1540 954.50 1496.50Q908 1453 855 1403.50Q802 1354 757.50 1312.50Q713 1271 692 1253L448 1253Z"  horiz-adv-x="997" vert-adv-y="2048"  />

      
      <glyph glyph-name="unie2" unicode="&#xe2;" d="M264-20Q192-20 139 21.50Q86 63 57.50 139Q29 215 29 319Q29 406 46 516Q63 626 97.50 737.50Q132 849 185 943.50Q238 1038 311 1095.50Q384 1153 477 1153Q520 1153 558.50 1138Q597 1123 628.50 1089Q660 1055 680 997L686 997L739 1133L1026 1133L784 0L518 0L510 135L502 135Q467 91 432.50 56Q398 21 357.50 0.50Q317-20 264-20M412 256Q456 256 487.50 303.50Q519 351 540 418Q561 485 573 543Q595 638 600.50 683.50Q606 729 606 758Q606 815 591 841.50Q576 868 545 868Q514 868 486.50 831Q459 794 437 735Q415 676 399.50 608.50Q384 541 375.50 478Q367 415 367 371Q367 314 378.50 285Q390 256 412 256M325 1253L329 1278Q373 1323 414.50 1372Q456 1421 496 1473.50Q536 1526 575 1581L872 1581Q882 1541 900 1487.50Q918 1434 940.50 1379.50Q963 1325 983 1282L977 1253L774 1253Q760 1270 744.50 1290.50Q729 1311 713.50 1335.50Q698 1360 682 1388Q637 1342 601.50 1308.50Q566 1275 538 1253L325 1253Z"  horiz-adv-x="997" vert-adv-y="2048"  />

      
      <glyph glyph-name="unie3" unicode="&#xe3;" d="M264-20Q192-20 139 21.50Q86 63 57.50 139Q29 215 29 319Q29 406 46 516Q63 626 97.50 737.50Q132 849 185 943.50Q238 1038 311 1095.50Q384 1153 477 1153Q520 1153 558.50 1138Q597 1123 628.50 1089Q660 1055 680 997L686 997L739 1133L1026 1133L784 0L518 0L510 135L502 135Q467 91 432.50 56Q398 21 357.50 0.50Q317-20 264-20M412 256Q456 256 487.50 303.50Q519 351 540 418Q561 485 573 543Q595 638 600.50 683.50Q606 729 606 758Q606 815 591 841.50Q576 868 545 868Q514 868 486.50 831Q459 794 437 735Q415 676 399.50 608.50Q384 541 375.50 478Q367 415 367 371Q367 314 378.50 285Q390 256 412 256M313 1249Q331 1341 359 1419Q387 1497 436 1544Q485 1591 565 1591Q616 1591 651 1576.50Q686 1562 712 1543Q738 1524 760 1509.50Q782 1495 805 1495Q830 1495 847 1517Q864 1539 876 1593L1059 1593Q1039 1464 997.50 1389.50Q956 1315 905 1283Q854 1251 803 1251Q754 1251 719.50 1265.50Q685 1280 659 1299Q633 1318 611 1332.50Q589 1347 565 1347Q547 1347 527 1326Q507 1305 496 1249L313 1249Z"  horiz-adv-x="997" vert-adv-y="2048"  />

      
      <glyph glyph-name="unie4" unicode="&#xe4;" d="M264-20Q192-20 139 21.50Q86 63 57.50 139Q29 215 29 319Q29 406 46 516Q63 626 97.50 737.50Q132 849 185 943.50Q238 1038 311 1095.50Q384 1153 477 1153Q520 1153 558.50 1138Q597 1123 628.50 1089Q660 1055 680 997L686 997L739 1133L1026 1133L784 0L518 0L510 135L502 135Q467 91 432.50 56Q398 21 357.50 0.50Q317-20 264-20M412 256Q456 256 487.50 303.50Q519 351 540 418Q561 485 573 543Q595 638 600.50 683.50Q606 729 606 758Q606 815 591 841.50Q576 868 545 868Q514 868 486.50 831Q459 794 437 735Q415 676 399.50 608.50Q384 541 375.50 478Q367 415 367 371Q367 314 378.50 285Q390 256 412 256M856 1269Q794 1269 760.50 1298Q727 1327 727 1384Q727 1461 775.50 1522Q824 1583 916 1583Q972 1583 1003.50 1553.50Q1035 1524 1035 1470Q1035 1379 980.50 1324Q926 1269 856 1269M467 1269Q404 1269 372 1298Q340 1327 340 1384Q340 1461 388.50 1522Q437 1583 529 1583Q565 1583 591 1570Q617 1557 631.50 1531.50Q646 1506 646 1470Q646 1379 592 1324Q538 1269 467 1269Z"  horiz-adv-x="997" vert-adv-y="2048"  />

      
      <glyph glyph-name="unie5" unicode="&#xe5;" d="M264-20Q192-20 139 21.50Q86 63 57.50 139Q29 215 29 319Q29 406 46 516Q63 626 97.50 737.50Q132 849 185 943.50Q238 1038 311 1095.50Q384 1153 477 1153Q520 1153 558.50 1138Q597 1123 628.50 1089Q660 1055 680 997L686 997L739 1133L1026 1133L784 0L518 0L510 135L502 135Q467 91 432.50 56Q398 21 357.50 0.50Q317-20 264-20M412 256Q456 256 487.50 303.50Q519 351 540 418Q561 485 573 543Q595 638 600.50 683.50Q606 729 606 758Q606 815 591 841.50Q576 868 545 868Q514 868 486.50 831Q459 794 437 735Q415 676 399.50 608.50Q384 541 375.50 478Q367 415 367 371Q367 314 378.50 285Q390 256 412 256M678 1239Q557 1239 489.50 1307.50Q422 1376 422 1491Q422 1603 491.50 1671Q561 1739 678 1739Q784 1739 858 1672Q932 1605 932 1495Q932 1383 864 1311Q796 1239 678 1239M678 1399Q718 1399 743 1423.50Q768 1448 768 1489Q768 1529 743.50 1555Q719 1581 678 1581Q635 1581 610.50 1555Q586 1529 586 1489Q586 1448 608 1423.50Q630 1399 678 1399Z"  horiz-adv-x="997" vert-adv-y="2048"  />

      
      <glyph glyph-name="unie6" unicode="&#xe6;" d="M246-20Q183-20 134 21.50Q85 63 57 139Q29 215 29 319Q29 425 47.50 540.50Q66 656 103 765Q140 874 194 961.50Q248 1049 319 1101Q390 1153 477 1153Q515 1153 554 1141.50Q593 1130 627 1104Q661 1078 682 1036L684 1036L709 1133L936 1133L930 1077Q970 1108 1020 1129.50Q1070 1151 1147 1151Q1281 1151 1359.50 1068.50Q1438 986 1438 858Q1438 755 1398 680Q1358 605 1284.50 556.50Q1211 508 1110.50 484.50Q1010 461 889 461L868 461Q865 444 863.50 426.50Q862 409 862 395Q862 311 894.50 277.50Q927 244 991 244Q1063 244 1135.50 267Q1208 290 1305 344L1245 68Q1159 17 1086-1.50Q1013-20 924-20Q850-20 805.50-2Q761 16 739 41L729 0L502 0L520 125L514 125Q478 82 436 49.50Q394 17 346.50-1.50Q299-20 246-20M412 256Q449 256 476 286.50Q503 317 522 363Q541 409 553.50 458Q566 507 573 543Q595 638 600.50 683.50Q606 729 606 758Q606 815 591 841.50Q576 868 545 868Q517 868 491 835Q465 802 442.50 748Q420 694 403 628Q386 562 376.50 495Q367 428 367 371Q367 314 378.50 285Q390 256 412 256M918 694L922 694Q1011 694 1058 711.50Q1105 729 1122 759Q1139 789 1139 825Q1139 856 1118.50 875.50Q1098 895 1067 895Q1024 895 994.50 860Q965 825 946.50 777.50Q928 730 918 694Z"  horiz-adv-x="1450" vert-adv-y="2048"  />

      
      <glyph glyph-name="unie7" unicode="&#xe7;" d="M362-20Q258-20 185.50 25Q113 70 75 153Q37 236 37 348Q37 450 55.50 561.50Q74 673 114 778Q154 883 219 968Q284 1053 376 1103Q468 1153 590 1153Q674 1153 744 1131Q814 1109 877 1065L743 807Q712 835 671.50 852.50Q631 870 594 870Q532 870 489.50 816.50Q447 763 422 684Q397 605 386 526.50Q375 448 375 399Q375 354 383 323.50Q391 293 408 277.50Q425 262 451 262Q497 262 553.50 286.50Q610 311 676 360L676 82Q621 41 535.50 10.50Q450-20 362-20M252-492Q209-492 167-487Q125-482 84-469L84-289Q109-295 139.50-300Q170-305 198-305Q225-305 243.50-297.50Q262-290 271-274.50Q280-259 280-236Q280-207 253.50-188.50Q227-170 176-170L276 0L432 0L391-70Q453-79 494.50-120.50Q536-162 536-236Q536-332 497.50-388Q459-444 394.50-468Q330-492 252-492Z"  horiz-adv-x="815" vert-adv-y="2048"  />

      
      <glyph glyph-name="unie8" unicode="&#xe8;" d="M408-20Q292-20 208.50 25.50Q125 71 80 156.50Q35 242 35 360Q35 493 67 632Q99 771 168 888.50Q237 1006 346 1078.50Q455 1151 608 1151Q751 1151 841.50 1071.50Q932 992 932 858Q932 755 892 680Q852 605 779 556.50Q706 508 605.50 484.50Q505 461 383 461L362 461Q359 444 357.50 426.50Q356 409 356 395Q356 311 388 277.50Q420 244 483 244Q557 244 617 261Q677 278 762 326L762 82Q671 22 584 1Q497-20 408-20M412 694L416 694Q503 694 550 711Q597 728 615 758Q633 788 633 825Q633 856 612.50 875.50Q592 895 561 895Q533 895 506 874.50Q479 854 455.50 809.50Q432 765 412 694M542 1241Q518 1275 479.50 1334Q441 1393 405 1453Q369 1513 350 1550L350 1569L714 1569Q723 1530 734 1484Q745 1438 760 1384.50Q775 1331 794 1268L792 1241L542 1241Z"  horiz-adv-x="944" vert-adv-y="2048"  />

      
      <glyph glyph-name="unie9" unicode="&#xe9;" d="M408-20Q292-20 208.50 25.50Q125 71 80 156.50Q35 242 35 360Q35 493 67 632Q99 771 168 888.50Q237 1006 346 1078.50Q455 1151 608 1151Q751 1151 841.50 1071.50Q932 992 932 858Q932 755 892 680Q852 605 779 556.50Q706 508 605.50 484.50Q505 461 383 461L362 461Q359 444 357.50 426.50Q356 409 356 395Q356 311 388 277.50Q420 244 483 244Q557 244 617 261Q677 278 762 326L762 82Q671 22 584 1Q497-20 408-20M412 694L416 694Q503 694 550 711Q597 728 615 758Q633 788 633 825Q633 856 612.50 875.50Q592 895 561 895Q533 895 506 874.50Q479 854 455.50 809.50Q432 765 412 694M420 1241L426 1264Q463 1314 498.50 1364Q534 1414 568.50 1465Q603 1516 635 1569L998 1569L996 1552Q973 1528 926.50 1484.50Q880 1441 827 1391.50Q774 1342 729.50 1300.50Q685 1259 664 1241L420 1241Z"  horiz-adv-x="944" vert-adv-y="2048"  />

      
      <glyph glyph-name="uniea" unicode="&#xea;" d="M408-20Q292-20 208.50 25.50Q125 71 80 156.50Q35 242 35 360Q35 493 67 632Q99 771 168 888.50Q237 1006 346 1078.50Q455 1151 608 1151Q751 1151 841.50 1071.50Q932 992 932 858Q932 755 892 680Q852 605 779 556.50Q706 508 605.50 484.50Q505 461 383 461L362 461Q359 444 357.50 426.50Q356 409 356 395Q356 311 388 277.50Q420 244 483 244Q557 244 617 261Q677 278 762 326L762 82Q671 22 584 1Q497-20 408-20M412 694L416 694Q503 694 550 711Q597 728 615 758Q633 788 633 825Q633 856 612.50 875.50Q592 895 561 895Q533 895 506 874.50Q479 854 455.50 809.50Q432 765 412 694M295 1241L299 1266Q343 1311 384.50 1360Q426 1409 466 1461.50Q506 1514 545 1569L842 1569Q852 1529 870 1475.50Q888 1422 910.50 1367.50Q933 1313 953 1270L947 1241L744 1241Q730 1258 714.50 1278.50Q699 1299 683.50 1323.50Q668 1348 652 1376Q607 1330 571.50 1296.50Q536 1263 508 1241L295 1241Z"  horiz-adv-x="944" vert-adv-y="2048"  />

      
      <glyph glyph-name="unieb" unicode="&#xeb;" d="M408-20Q292-20 208.50 25.50Q125 71 80 156.50Q35 242 35 360Q35 493 67 632Q99 771 168 888.50Q237 1006 346 1078.50Q455 1151 608 1151Q751 1151 841.50 1071.50Q932 992 932 858Q932 755 892 680Q852 605 779 556.50Q706 508 605.50 484.50Q505 461 383 461L362 461Q359 444 357.50 426.50Q356 409 356 395Q356 311 388 277.50Q420 244 483 244Q557 244 617 261Q677 278 762 326L762 82Q671 22 584 1Q497-20 408-20M412 694L416 694Q503 694 550 711Q597 728 615 758Q633 788 633 825Q633 856 612.50 875.50Q592 895 561 895Q533 895 506 874.50Q479 854 455.50 809.50Q432 765 412 694M825 1257Q763 1257 729.50 1286Q696 1315 696 1372Q696 1449 744.50 1510Q793 1571 885 1571Q941 1571 972.50 1541.50Q1004 1512 1004 1458Q1004 1367 949.50 1312Q895 1257 825 1257M436 1257Q373 1257 341 1286Q309 1315 309 1372Q309 1449 357.50 1510Q406 1571 498 1571Q534 1571 560 1558Q586 1545 600.50 1519.50Q615 1494 615 1458Q615 1367 561 1312Q507 1257 436 1257Z"  horiz-adv-x="944" vert-adv-y="2048"  />

      
      <glyph glyph-name="uniec" unicode="&#xec;" d="M-25 0L217 1133L543 1133L303 0L-25 0M294 1241Q270 1275 231.50 1334Q193 1393 157 1453Q121 1513 102 1550L102 1569L466 1569Q475 1530 486 1484Q497 1438 512 1384.50Q527 1331 546 1268L544 1241L294 1241Z"  horiz-adv-x="516" vert-adv-y="2048"  />

      
      <glyph glyph-name="unied" unicode="&#xed;" d="M-25 0L217 1133L543 1133L303 0L-25 0M219 1241L225 1264Q262 1314 297.50 1364Q333 1414 367.50 1465Q402 1516 434 1569L797 1569L795 1552Q772 1528 725.50 1484.50Q679 1441 626 1391.50Q573 1342 528.50 1300.50Q484 1259 463 1241L219 1241Z"  horiz-adv-x="516" vert-adv-y="2048"  />

      
      <glyph glyph-name="uniee" unicode="&#xee;" d="M-25 0L217 1133L543 1133L303 0L-25 0M65 1241L69 1266Q113 1311 154.50 1360Q196 1409 236 1461.50Q276 1514 315 1569L612 1569Q622 1529 640 1475.50Q658 1422 680.50 1367.50Q703 1313 723 1270L717 1241L514 1241Q500 1258 484.50 1278.50Q469 1299 453.50 1323.50Q438 1348 422 1376Q377 1330 341.50 1296.50Q306 1263 278 1241L65 1241Z"  horiz-adv-x="516" vert-adv-y="2048"  />

      
      <glyph glyph-name="unief" unicode="&#xef;" d="M-25 0L217 1133L543 1133L303 0L-25 0M595 1257Q533 1257 499.50 1286Q466 1315 466 1372Q466 1449 514.50 1510Q563 1571 655 1571Q711 1571 742.50 1541.50Q774 1512 774 1458Q774 1367 719.50 1312Q665 1257 595 1257M206 1257Q143 1257 111 1286Q79 1315 79 1372Q79 1449 127.50 1510Q176 1571 268 1571Q304 1571 330 1558Q356 1545 370.50 1519.50Q385 1494 385 1458Q385 1367 331 1312Q277 1257 206 1257Z"  horiz-adv-x="516" vert-adv-y="2048"  />

      
      <glyph glyph-name="unif0" unicode="&#xf0;" d="M389-20Q272-20 191 24Q110 68 68.50 152Q27 236 27 356Q27 454 56 568Q85 682 145 783.50Q205 885 297 949.50Q389 1014 514 1014Q545 1014 575 1003.50Q605 993 631 975L635 975Q635 1022 627.50 1058Q620 1094 604 1137L483 1042L377 1186L520 1298Q501 1321 479 1344.50Q457 1368 434 1391L600 1571Q637 1546 670.50 1519.50Q704 1493 735 1462L868 1575L981 1430L842 1317Q880 1254 904.50 1184.50Q929 1115 940.50 1041Q952 967 952 889Q952 777 935.50 652Q919 527 880.50 407.50Q842 288 777.50 191.50Q713 95 617 37.50Q521-20 389-20M426 256Q452 256 476.50 280.50Q501 305 522.50 346Q544 387 560 436.50Q576 486 585 536.50Q594 587 594 631Q594 658 590 677.50Q586 697 577.50 709.50Q569 722 556.50 728.50Q544 735 526 735Q491 735 460.50 697.50Q430 660 407.50 602Q385 544 372.50 481.50Q360 419 360 369Q360 314 377 285Q394 256 426 256Z"  horiz-adv-x="981" vert-adv-y="2048"  />

      
      <glyph glyph-name="unif1" unicode="&#xf1;" d="M-27 0L215 1133L477 1133L473 1001L479 1001Q512 1049 550.50 1083Q589 1117 632 1135Q675 1153 723 1153Q784 1153 840 1129Q896 1105 932.50 1047.50Q969 990 969 887Q969 856 965 816.50Q961 777 950 723L797 0L469 0L602 631Q611 675 618 717Q625 759 625 786Q625 820 613 839Q601 858 573 858Q538 858 511 821Q484 784 463.50 722Q443 660 426 584L303 0L-27 0M329 1249Q347 1341 375 1419Q403 1497 452 1544Q501 1591 581 1591Q632 1591 667 1576.50Q702 1562 728 1543Q754 1524 776 1509.50Q798 1495 821 1495Q846 1495 863 1517Q880 1539 892 1593L1075 1593Q1055 1464 1013.50 1389.50Q972 1315 921 1283Q870 1251 819 1251Q770 1251 735.50 1265.50Q701 1280 675 1299Q649 1318 627 1332.50Q605 1347 581 1347Q563 1347 543 1326Q523 1305 512 1249L329 1249Z"  horiz-adv-x="1006" vert-adv-y="2048"  />

      
      <glyph glyph-name="unif2" unicode="&#xf2;" d="M395-20Q283-20 202.50 27Q122 74 79.50 161.50Q37 249 37 371Q37 460 55.50 565.50Q74 671 114.50 774.50Q155 878 220 963.50Q285 1049 377.50 1101Q470 1153 594 1153Q705 1153 783.50 1104.50Q862 1056 904 968.50Q946 881 946 762Q946 666 926.50 558.50Q907 451 866 348.50Q825 246 760 162.50Q695 79 604.50 29.50Q514-20 395-20M434 256Q466 256 494 292Q522 328 544.50 386.50Q567 445 583 513.50Q599 582 607.50 647.50Q616 713 616 762Q616 800 609.50 825.50Q603 851 589 864Q575 877 551 877Q517 877 488.50 841Q460 805 437.50 746.50Q415 688 399 619.50Q383 551 375 485Q367 419 367 369Q367 315 383 285.50Q399 256 434 256M507 1241Q483 1275 444.50 1334Q406 1393 370 1453Q334 1513 315 1550L315 1569L679 1569Q688 1530 699 1484Q710 1438 725 1384.50Q740 1331 759 1268L757 1241L507 1241Z"  horiz-adv-x="981" vert-adv-y="2048"  />

      
      <glyph glyph-name="unif3" unicode="&#xf3;" d="M395-20Q283-20 202.50 27Q122 74 79.50 161.50Q37 249 37 371Q37 460 55.50 565.50Q74 671 114.50 774.50Q155 878 220 963.50Q285 1049 377.50 1101Q470 1153 594 1153Q705 1153 783.50 1104.50Q862 1056 904 968.50Q946 881 946 762Q946 666 926.50 558.50Q907 451 866 348.50Q825 246 760 162.50Q695 79 604.50 29.50Q514-20 395-20M434 256Q466 256 494 292Q522 328 544.50 386.50Q567 445 583 513.50Q599 582 607.50 647.50Q616 713 616 762Q616 800 609.50 825.50Q603 851 589 864Q575 877 551 877Q517 877 488.50 841Q460 805 437.50 746.50Q415 688 399 619.50Q383 551 375 485Q367 419 367 369Q367 315 383 285.50Q399 256 434 256M456 1241L462 1264Q499 1314 534.50 1364Q570 1414 604.50 1465Q639 1516 671 1569L1034 1569L1032 1552Q1009 1528 962.50 1484.50Q916 1441 863 1391.50Q810 1342 765.50 1300.50Q721 1259 700 1241L456 1241Z"  horiz-adv-x="981" vert-adv-y="2048"  />

      
      <glyph glyph-name="unif4" unicode="&#xf4;" d="M395-20Q283-20 202.50 27Q122 74 79.50 161.50Q37 249 37 371Q37 460 55.50 565.50Q74 671 114.50 774.50Q155 878 220 963.50Q285 1049 377.50 1101Q470 1153 594 1153Q705 1153 783.50 1104.50Q862 1056 904 968.50Q946 881 946 762Q946 666 926.50 558.50Q907 451 866 348.50Q825 246 760 162.50Q695 79 604.50 29.50Q514-20 395-20M434 256Q466 256 494 292Q522 328 544.50 386.50Q567 445 583 513.50Q599 582 607.50 647.50Q616 713 616 762Q616 800 609.50 825.50Q603 851 589 864Q575 877 551 877Q517 877 488.50 841Q460 805 437.50 746.50Q415 688 399 619.50Q383 551 375 485Q367 419 367 369Q367 315 383 285.50Q399 256 434 256M284 1241L288 1266Q332 1311 373.50 1360Q415 1409 455 1461.50Q495 1514 534 1569L831 1569Q841 1529 859 1475.50Q877 1422 899.50 1367.50Q922 1313 942 1270L936 1241L733 1241Q719 1258 703.50 1278.50Q688 1299 672.50 1323.50Q657 1348 641 1376Q596 1330 560.50 1296.50Q525 1263 497 1241L284 1241Z"  horiz-adv-x="981" vert-adv-y="2048"  />

      
      <glyph glyph-name="unif5" unicode="&#xf5;" d="M395-20Q283-20 202.50 27Q122 74 79.50 161.50Q37 249 37 371Q37 460 55.50 565.50Q74 671 114.50 774.50Q155 878 220 963.50Q285 1049 377.50 1101Q470 1153 594 1153Q705 1153 783.50 1104.50Q862 1056 904 968.50Q946 881 946 762Q946 666 926.50 558.50Q907 451 866 348.50Q825 246 760 162.50Q695 79 604.50 29.50Q514-20 395-20M434 256Q466 256 494 292Q522 328 544.50 386.50Q567 445 583 513.50Q599 582 607.50 647.50Q616 713 616 762Q616 800 609.50 825.50Q603 851 589 864Q575 877 551 877Q517 877 488.50 841Q460 805 437.50 746.50Q415 688 399 619.50Q383 551 375 485Q367 419 367 369Q367 315 383 285.50Q399 256 434 256M286 1237Q304 1329 332 1407Q360 1485 409 1532Q458 1579 538 1579Q589 1579 624 1564.50Q659 1550 685 1531Q711 1512 733 1497.50Q755 1483 778 1483Q803 1483 820 1505Q837 1527 849 1581L1032 1581Q1012 1452 970.50 1377.50Q929 1303 878 1271Q827 1239 776 1239Q727 1239 692.50 1253.50Q658 1268 632 1287Q606 1306 584 1320.50Q562 1335 538 1335Q520 1335 500 1314Q480 1293 469 1237L286 1237Z"  horiz-adv-x="981" vert-adv-y="2048"  />

      
      <glyph glyph-name="unif6" unicode="&#xf6;" d="M395-20Q283-20 202.50 27Q122 74 79.50 161.50Q37 249 37 371Q37 460 55.50 565.50Q74 671 114.50 774.50Q155 878 220 963.50Q285 1049 377.50 1101Q470 1153 594 1153Q705 1153 783.50 1104.50Q862 1056 904 968.50Q946 881 946 762Q946 666 926.50 558.50Q907 451 866 348.50Q825 246 760 162.50Q695 79 604.50 29.50Q514-20 395-20M434 256Q466 256 494 292Q522 328 544.50 386.50Q567 445 583 513.50Q599 582 607.50 647.50Q616 713 616 762Q616 800 609.50 825.50Q603 851 589 864Q575 877 551 877Q517 877 488.50 841Q460 805 437.50 746.50Q415 688 399 619.50Q383 551 375 485Q367 419 367 369Q367 315 383 285.50Q399 256 434 256M800 1257Q738 1257 704.50 1286Q671 1315 671 1372Q671 1449 719.50 1510Q768 1571 860 1571Q916 1571 947.50 1541.50Q979 1512 979 1458Q979 1367 924.50 1312Q870 1257 800 1257M411 1257Q348 1257 316 1286Q284 1315 284 1372Q284 1449 332.50 1510Q381 1571 473 1571Q509 1571 535 1558Q561 1545 575.50 1519.50Q590 1494 590 1458Q590 1367 536 1312Q482 1257 411 1257Z"  horiz-adv-x="981" vert-adv-y="2048"  />

      
      <glyph glyph-name="unif7" unicode="&#xf7;" d="M90 588L90 856L975 856L975 588L90 588M535 141Q459 141 415 187Q371 233 371 317Q371 402 413 448Q455 494 535 494Q613 494 653.50 448Q694 402 694 317Q694 235 652 188Q610 141 535 141M535 950Q459 950 415 996Q371 1042 371 1126Q371 1211 413 1257Q455 1303 535 1303Q613 1303 653.50 1257Q694 1211 694 1126Q694 1044 652 997Q610 950 535 950Z"  horiz-adv-x="1024" vert-adv-y="2048"  />

      
      <glyph glyph-name="unif8" unicode="&#xf8;" d="M131-131L-10-43L100 125Q69 172 53 233.50Q37 295 37 371Q37 460 55.50 565.50Q74 671 114.50 774.50Q155 878 220 963.50Q285 1049 377.50 1101Q470 1153 594 1153Q641 1153 683 1144Q725 1135 760 1118L836 1233L977 1145L885 1006Q914 957 930 895.50Q946 834 946 762Q946 666 926.50 558.50Q907 451 866 348.50Q825 246 760 162.50Q695 79 604.50 29.50Q514-20 395-20Q348-20 305-11Q262-2 227 14L131-131M430 242Q459 242 484.50 264Q510 286 531.50 324.50Q553 363 571 411Q589 459 602 512Q615 565 623 616Q625 627 626.50 637.50Q628 648 629 657L375 272Q386 259 400.50 250.50Q415 242 430 242M354 467L612 858Q602 874 588 882.50Q574 891 555 891Q530 891 506 869.50Q482 848 460.50 810.50Q439 773 420 725.50Q401 678 386.50 625.50Q372 573 362 522Q361 509 358.50 495Q356 481 354 467Z"  horiz-adv-x="981" vert-adv-y="2048"  />

      
      <glyph glyph-name="unif9" unicode="&#xf9;" d="M285-20Q205-20 150 12.50Q95 45 67 104.50Q39 164 39 246Q39 281 44.50 324Q50 367 57 412L211 1133L539 1133L406 504Q396 458 390.50 416Q385 374 385 346Q385 312 396 293Q407 274 436 274Q471 274 497.50 311Q524 348 545 411Q566 474 582 551L707 1133L1034 1133L795 0L532 0L537 131L530 131Q498 85 459.50 51Q421 17 377.50-1.50Q334-20 285-20M507 1241Q483 1275 444.50 1334Q406 1393 370 1453Q334 1513 315 1550L315 1569L679 1569Q688 1530 699 1484Q710 1438 725 1384.50Q740 1331 759 1268L757 1241L507 1241Z"  horiz-adv-x="1006" vert-adv-y="2048"  />

      
      <glyph glyph-name="unifa" unicode="&#xfa;" d="M285-20Q205-20 150 12.50Q95 45 67 104.50Q39 164 39 246Q39 281 44.50 324Q50 367 57 412L211 1133L539 1133L406 504Q396 458 390.50 416Q385 374 385 346Q385 312 396 293Q407 274 436 274Q471 274 497.50 311Q524 348 545 411Q566 474 582 551L707 1133L1034 1133L795 0L532 0L537 131L530 131Q498 85 459.50 51Q421 17 377.50-1.50Q334-20 285-20M497 1241L503 1264Q540 1314 575.50 1364Q611 1414 645.50 1465Q680 1516 712 1569L1075 1569L1073 1552Q1050 1528 1003.50 1484.50Q957 1441 904 1391.50Q851 1342 806.50 1300.50Q762 1259 741 1241L497 1241Z"  horiz-adv-x="1006" vert-adv-y="2048"  />

      
      </font>
</defs>
</svg>
