<?xml version="1.0" standalone="no"?>
  <!DOCTYPE svg PUBLIC "-//W3C//DTD SVG 1.1//EN" "http://www.w3.org/Graphics/SVG/1.1/DTD/svg11.dtd" >
  <svg>
  <metadata>
  Created by font-carrier
  </metadata>
  <defs>
  <font id="OpenSans-ExtraBold" horiz-adv-x="2882" vert-adv-y="2882" >
    <font-face
      
      font-family="Open Sans ExtraBold"
      
      font-weight="400"
      
      font-stretch="normal"
      
      units-per-em="2048"
      
      ascent="2189"
      
      descent="-600"
      
    />
      <missing-glyph />

      

      
      <glyph glyph-name="uni21" unicode="&#x21;" d="M463 516L133 516L82 1462L514 1462L463 516M86 166Q86 272 148.50 315Q211 358 297 358Q382 358 443 315Q504 272 504 166Q504 65 443 20Q382-25 297-25Q211-25 148.50 20Q86 65 86 166Z"  horiz-adv-x="594" vert-adv-y="2048"  />

      
      <glyph glyph-name="uni22" unicode="&#x22;" d="M477 1462L436 934L162 934L121 1462L477 1462M952 1462L911 934L637 934L596 1462L952 1462Z"  horiz-adv-x="1073" vert-adv-y="2048"  />

      
      <glyph glyph-name="uni23" unicode="&#x23;" d="M1042 813L1012 645L1255 645L1255 391L965 391L891 0L623 0L696 391L528 391L457 0L190 0L262 391L37 391L37 645L311 645L342 813L104 813L104 1073L391 1073L463 1462L731 1462L657 1073L823 1073L895 1462L1163 1462L1090 1073L1319 1073L1319 813L1042 813M578 645L743 645L774 813L608 813L578 645Z"  horiz-adv-x="1356" vert-adv-y="2048"  />

      
      <glyph glyph-name="uni24" unicode="&#x24;" d="M496-119L496 45Q363 48 267.50 70Q172 92 86 129L86 442Q183 399 292.50 373.50Q402 348 496 340L496 592Q369 629 269 680.50Q169 732 111 814.50Q53 897 53 1028Q53 1152 108 1234.50Q163 1317 263 1361.50Q363 1406 496 1415L496 1556L684 1556L684 1417Q809 1411 911 1384Q1013 1357 1096 1323L1008 1049Q932 1081 849 1101Q766 1121 684 1128L684 881Q827 838 927.50 789.50Q1028 741 1081.50 666.50Q1135 592 1135 471Q1135 305 1026 189.50Q917 74 684 49L684-119L496-119M684 344Q744 353 772.50 376.50Q801 400 801 438Q801 464 790.50 482.50Q780 501 754.50 516Q729 531 684 545L684 344M496 936L496 1126Q459 1123 434 1112.50Q409 1102 396 1084Q383 1066 383 1042Q383 1017 394 998Q405 979 430 964.50Q455 950 496 936Z"  horiz-adv-x="1182" vert-adv-y="2048"  />

      
      <glyph glyph-name="uni25" unicode="&#x25;" d="M410 1483Q582 1483 686.50 1363Q791 1243 791 1026Q791 809 693 687Q595 565 410 565Q242 565 139.50 687Q37 809 37 1026Q37 1243 133.50 1363Q230 1483 410 1483M414 1239Q371 1239 354.50 1180.50Q338 1122 338 1022Q338 924 354.50 864.50Q371 805 414 805Q457 805 473 863.50Q489 922 489 1022Q489 1122 473 1180.50Q457 1239 414 1239M1520 1462L709 0L412 0L1223 1462L1520 1462M1522 901Q1694 901 1798.50 781Q1903 661 1903 444Q1903 228 1805 106Q1707-16 1522-16Q1354-16 1251.50 106Q1149 228 1149 444Q1149 661 1245.50 781Q1342 901 1522 901M1526 657Q1483 657 1466.50 598.50Q1450 540 1450 440Q1450 342 1466.50 282.50Q1483 223 1526 223Q1569 223 1585.50 281.50Q1602 340 1602 440Q1602 544 1585.50 600.50Q1569 657 1526 657Z"  horiz-adv-x="1942" vert-adv-y="2048"  />

      
      <glyph glyph-name="uni26" unicode="&#x26;" d="M676 1481Q814 1481 914 1439.50Q1014 1398 1068 1320.50Q1122 1243 1122 1133Q1122 1006 1048.50 913.50Q975 821 858 750L1057 561Q1092 615 1119 681.50Q1146 748 1161 821L1567 821Q1535 673 1468.50 535.50Q1402 398 1327 307L1647 0L1141 0L1042 102Q987 68 932.50 40Q878 12 801-4Q724-20 602-20Q431-20 312.50 37.50Q194 95 133 191.50Q72 288 72 406Q72 493 103.50 567.50Q135 642 195.50 702Q256 762 344 807Q303 854 273.50 904Q244 954 228.50 1010.50Q213 1067 213 1133Q213 1234 265.50 1312.50Q318 1391 421.50 1436Q525 1481 676 1481M557 592Q529 571 510.50 546Q492 521 483.50 493Q475 465 475 434Q475 371 520.50 331Q566 291 639 291Q696 291 739 306Q782 321 805 340L557 592M670 1225Q628 1225 596.50 1200.50Q565 1176 565 1120Q565 1076 591.50 1036.50Q618 997 653 965Q710 997 740 1042Q770 1087 770 1133Q770 1182 741.50 1203.50Q713 1225 670 1225Z"  horiz-adv-x="1636" vert-adv-y="2048"  />

      
      <glyph glyph-name="uni27" unicode="&#x27;" d="M477 1462L436 934L162 934L121 1462L477 1462Z"  horiz-adv-x="598" vert-adv-y="2048"  />

      
      <glyph glyph-name="uni28" unicode="&#x28;" d="M74 582Q74 749 101 913.50Q128 1078 189.50 1228.50Q251 1379 354 1503L680 1503Q542 1311 480 1068.50Q418 826 418 584Q418 425 445 263.50Q472 102 529.50-48.50Q587-199 678-324L354-324Q251-204 189.50-56Q128 92 101 254.50Q74 417 74 582Z"  horiz-adv-x="735" vert-adv-y="2048"  />

      
      <glyph glyph-name="uni29" unicode="&#x29;" d="M662 582Q662 417 635 254.50Q608 92 546.50-56Q485-204 381-324L57-324Q149-199 206-48.50Q263 102 290 263.50Q317 425 317 584Q317 746 290 908.50Q263 1071 205.50 1223Q148 1375 55 1503L381 1503Q485 1379 546.50 1228.50Q608 1078 635 913.50Q662 749 662 582Z"  horiz-adv-x="735" vert-adv-y="2048"  />

      
      <glyph glyph-name="uni2a" unicode="&#x2a;" d="M702 1556L664 1204L1020 1305L1057 1010L743 989L950 711L690 573L547 856L424 575L152 711L358 989L45 1014L90 1305L438 1204L399 1556L702 1556Z"  horiz-adv-x="1100" vert-adv-y="2048"  />

      
      <glyph glyph-name="uni2b" unicode="&#x2b;" d="M733 856L1106 856L1106 588L733 588L733 227L465 227L465 588L92 588L92 856L465 856L465 1223L733 1223L733 856Z"  horiz-adv-x="1200" vert-adv-y="2048"  />

      
      <glyph glyph-name="uni2c" unicode="&#x2c;" d="M498 299L512 276Q494 203 465.50 100.50Q437-2 403.50-105.50Q370-209 336-285L57-285Q77-191 96-87Q115 17 131 117Q147 217 156 299L498 299Z"  horiz-adv-x="633" vert-adv-y="2048"  />

      
      <glyph glyph-name="uni2d" unicode="&#x2d;" d="M43 393L43 705L608 705L608 393L43 393Z"  horiz-adv-x="651" vert-adv-y="2048"  />

      
      <glyph glyph-name="uni2e" unicode="&#x2e;" d="M86 166Q86 272 148.50 315Q211 358 299 358Q382 358 443 315Q504 272 504 166Q504 65 443 20Q382-25 299-25Q211-25 148.50 20Q86 65 86 166Z"  horiz-adv-x="592" vert-adv-y="2048"  />

      
      <glyph glyph-name="uni2f" unicode="&#x2f;" d="M901 1483L356-20L10-20L555 1483L901 1483Z"  horiz-adv-x="905" vert-adv-y="2048"  />

      
      <glyph glyph-name="uni30" unicode="&#x30;" d="M1128 729Q1128 553 1100 414.50Q1072 276 1010.50 179Q949 82 848 31Q747-20 600-20Q417-20 300 69.50Q183 159 127.50 326.50Q72 494 72 729Q72 966 122.50 1134.50Q173 1303 289 1393Q405 1483 600 1483Q783 1483 899.50 1393.50Q1016 1304 1072 1135.50Q1128 967 1128 729M465 729Q465 586 475.50 489Q486 392 515.50 343.50Q545 295 600 295Q655 295 684 343.50Q713 392 724 488.50Q735 585 735 729Q735 874 724 971Q713 1068 684 1117.50Q655 1167 600 1167Q545 1167 515.50 1117.50Q486 1068 475.50 971Q465 874 465 729Z"  horiz-adv-x="1200" vert-adv-y="2048"  />

      
      <glyph glyph-name="uni31" unicode="&#x31;" d="M942 0L541 0L541 723Q541 743 541 796.50Q541 850 542.50 915Q544 980 547 1032Q521 1001 498.50 979Q476 957 455 938L289 801L84 1053L586 1462L942 1462L942 0Z"  horiz-adv-x="1200" vert-adv-y="2048"  />

      
      <glyph glyph-name="uni32" unicode="&#x32;" d="M1122 0L61 0L61 260L418 621Q529 737 590.50 807Q652 877 677 926Q702 975 702 1028Q702 1093 660 1122Q618 1151 561 1151Q492 1151 421.50 1111.50Q351 1072 262 995L45 1249Q111 1308 185 1361.50Q259 1415 360 1449Q461 1483 606 1483Q755 1483 864.50 1431Q974 1379 1034 1288.50Q1094 1198 1094 1083Q1094 956 1047.50 856.50Q1001 757 908 657.50Q815 558 676 432L569 336L569 326L1122 326L1122 0Z"  horiz-adv-x="1200" vert-adv-y="2048"  />

      
      <glyph glyph-name="uni33" unicode="&#x33;" d="M1073 1145Q1073 1041 1028.50 965.50Q984 890 910.50 842Q837 794 750 770L750 764Q925 742 1020.50 657.50Q1116 573 1116 418Q1116 298 1052 198.50Q988 99 853 39.50Q718-20 506-20Q364-20 264 1Q164 22 70 59L70 387Q165 338 265.50 314.50Q366 291 449 291Q593 291 645.50 332Q698 373 698 442Q698 492 673 527Q648 562 580.50 581Q513 600 387 600L297 600L297 897L389 897Q501 897 566.50 917Q632 937 661 971.50Q690 1006 690 1051Q690 1109 645 1137Q600 1165 526 1165Q460 1165 402 1147Q344 1129 301 1107Q258 1085 236 1071L72 1335Q163 1397 280.50 1440Q398 1483 588 1483Q814 1483 943.50 1393Q1073 1303 1073 1145Z"  horiz-adv-x="1200" vert-adv-y="2048"  />

      
      <glyph glyph-name="uni34" unicode="&#x34;" d="M1169 283L1008 283L1008 0L618 0L618 283L35 283L35 573L643 1462L1008 1462L1008 578L1169 578L1169 283M618 578L618 748Q618 771 619 806Q620 841 621.50 876.50Q623 912 624.50 936.50Q626 961 627 963L616 963Q597 918 581 888.50Q565 859 539 819L377 578L618 578Z"  horiz-adv-x="1200" vert-adv-y="2048"  />

      
      <glyph glyph-name="uni35" unicode="&#x35;" d="M664 958Q786 958 886 903Q986 848 1046 743Q1106 638 1106 487Q1106 324 1040.50 210.50Q975 97 843.50 38.50Q712-20 512-20Q385-20 280.50-0.50Q176 19 94 59L94 383Q171 348 279.50 319.50Q388 291 479 291Q552 291 603 312Q654 333 680.50 374Q707 415 707 475Q707 558 647 605.50Q587 653 465 653Q410 653 357 642Q304 631 264 618L119 690L174 1462L1008 1462L1008 1133L510 1133L492 940Q524 946 557.50 952Q591 958 664 958Z"  horiz-adv-x="1200" vert-adv-y="2048"  />

      
      <glyph glyph-name="uni36" unicode="&#x36;" d="M70 618Q70 744 88 868.50Q106 993 153 1103.50Q200 1214 286 1299.50Q372 1385 507 1434Q642 1483 836 1483Q879 1483 941 1478Q1003 1473 1044 1466L1044 1157Q1003 1165 952 1170.50Q901 1176 827 1176Q679 1176 593.50 1131.50Q508 1087 470 1004Q432 921 426 805L438 805Q464 853 501.50 891.50Q539 930 594 952.50Q649 975 727 975Q855 975 947 919.50Q1039 864 1088 758Q1137 652 1137 500Q1137 336 1074.50 219.50Q1012 103 896.50 41.50Q781-20 621-20Q503-20 402.50 18Q302 56 227.50 134.50Q153 213 111.50 333.50Q70 454 70 618M612 293Q675 293 714.50 341Q754 389 754 492Q754 575 721.50 622.50Q689 670 616 670Q567 670 533 646.50Q499 623 481 587Q463 551 463 512Q463 473 471.50 434Q480 395 498.50 363.50Q517 332 545 312.50Q573 293 612 293Z"  horiz-adv-x="1200" vert-adv-y="2048"  />

      
      <glyph glyph-name="uni37" unicode="&#x37;" d="M209 0L711 1135L78 1135L78 1462L1133 1462L1133 1229L618 0L209 0Z"  horiz-adv-x="1200" vert-adv-y="2048"  />

      
      <glyph glyph-name="uni38" unicode="&#x38;" d="M604 1483Q749 1483 858.50 1444Q968 1405 1030 1325.50Q1092 1246 1092 1126Q1092 1038 1059.50 971.50Q1027 905 970.50 855.50Q914 806 840 770Q909 731 977 679Q1045 627 1090 556.50Q1135 486 1135 389Q1135 272 1078 179.50Q1021 87 903 33.50Q785-20 600-20Q415-20 297 31Q179 82 123.50 173.50Q68 265 68 385Q68 487 102.50 557Q137 627 197 676Q257 725 334 764Q273 805 222 857Q171 909 141 976Q111 1043 111 1128Q111 1246 174 1325Q237 1404 348.50 1443.50Q460 1483 604 1483M430 401Q430 340 474 302Q518 264 596 264Q687 264 729.50 298.50Q772 333 772 393Q772 438 745.50 474.50Q719 511 684 538Q649 565 623 580L596 596Q551 573 513.50 544.50Q476 516 453 480.50Q430 445 430 401M602 1198Q553 1198 517 1169.50Q481 1141 481 1092Q481 1060 496.50 1032.50Q512 1005 538.50 982Q565 959 598 940Q627 957 655 977Q683 997 702 1025Q721 1053 721 1092Q721 1141 685.50 1169.50Q650 1198 602 1198Z"  horiz-adv-x="1200" vert-adv-y="2048"  />

      
      <glyph glyph-name="uni39" unicode="&#x39;" d="M1130 821Q1130 664 1102.50 533Q1075 402 1017.50 299.50Q960 197 870 125.50Q780 54 655 17Q530-20 367-20Q322-20 262.50-18Q203-16 162-10L162 303Q205 296 248 291.50Q291 287 348 287Q513 287 603.50 334Q694 381 731 464.50Q768 548 774 657L762 657Q736 608 699 569.50Q662 531 606 509Q550 487 467 487Q344 487 253.50 543Q163 599 113 705.50Q63 812 63 965Q63 1128 125.50 1243.50Q188 1359 304.50 1421Q421 1483 582 1483Q696 1483 795.50 1444Q895 1405 970 1324.50Q1045 1244 1087.50 1119Q1130 994 1130 821M592 1167Q523 1167 484.50 1120Q446 1073 446 969Q446 887 482 839Q518 791 588 791Q632 791 665.50 814.50Q699 838 718 874.50Q737 911 737 950Q737 989 728.50 1027.50Q720 1066 702.50 1097.50Q685 1129 657.50 1148Q630 1167 592 1167Z"  horiz-adv-x="1200" vert-adv-y="2048"  />

      
      <glyph glyph-name="uni3a" unicode="&#x3a;" d="M86 166Q86 272 148.50 315Q211 358 299 358Q382 358 443 315Q504 272 504 166Q504 65 443 20Q382-25 299-25Q211-25 148.50 20Q86 65 86 166M86 956Q86 1061 148.50 1104Q211 1147 299 1147Q382 1147 443 1104Q504 1061 504 956Q504 853 443 808.50Q382 764 299 764Q211 764 148.50 808.50Q86 853 86 956Z"  horiz-adv-x="592" vert-adv-y="2048"  />

      
      <glyph glyph-name="uni3b" unicode="&#x3b;" d="M498 299L512 276Q494 203 465.50 100.50Q437-2 403.50-105.50Q370-209 336-285L57-285Q77-191 96-87Q115 17 131 117Q147 217 156 299L498 299M92 956Q92 1061 153.50 1104Q215 1147 303 1147Q386 1147 448 1104Q510 1061 510 956Q510 853 448 808.50Q386 764 303 764Q215 764 153.50 808.50Q92 853 92 956Z"  horiz-adv-x="608" vert-adv-y="2048"  />

      
      <glyph glyph-name="uni3c" unicode="&#x3c;" d="M1104 178L92 627L92 799L1104 1305L1104 1008L483 725L1104 473L1104 178Z"  horiz-adv-x="1200" vert-adv-y="2048"  />

      
      <glyph glyph-name="uni3d" unicode="&#x3d;" d="M92 815L92 1083L1108 1083L1108 815L92 815M92 358L92 629L1108 629L1108 358L92 358Z"  horiz-adv-x="1200" vert-adv-y="2048"  />

      
      <glyph glyph-name="uni3e" unicode="&#x3e;" d="M92 473L713 725L92 1008L92 1305L1104 799L1104 627L92 178L92 473Z"  horiz-adv-x="1200" vert-adv-y="2048"  />

      
      <glyph glyph-name="uni3f" unicode="&#x3f;" d="M295 516L295 602Q295 664 310.50 714Q326 764 366 809Q406 854 477 899Q545 942 577 973.50Q609 1005 619 1031.50Q629 1058 629 1085Q629 1127 591 1151.50Q553 1176 492 1176Q416 1176 327.50 1149Q239 1122 139 1069L0 1341Q113 1406 241 1444.50Q369 1483 520 1483Q747 1483 872 1382.50Q997 1282 997 1118Q997 1040 973 975Q949 910 897 853Q845 796 760 741Q700 703 665.50 676Q631 649 616.50 624Q602 599 602 567L602 516L295 516M252 166Q252 272 313.50 315Q375 358 463 358Q547 358 608.50 315Q670 272 670 166Q670 65 608.50 20Q547-25 463-25Q375-25 313.50 20Q252 65 252 166Z"  horiz-adv-x="1034" vert-adv-y="2048"  />

      
      <glyph glyph-name="uni40" unicode="&#x40;" d="M1755 756Q1755 660 1730.50 567Q1706 474 1658 398.50Q1610 323 1539 278Q1468 233 1376 233Q1303 233 1237 263.50Q1171 294 1133 352L1118 352Q1072 302 1007.50 267.50Q943 233 858 233Q668 233 573.50 344.50Q479 456 479 639Q479 774 537.50 881.50Q596 989 710 1051.50Q824 1114 991 1114Q1091 1114 1187.50 1095Q1284 1076 1348 1053L1327 631Q1327 620 1326 592Q1325 564 1325 537Q1325 489 1339 470Q1353 451 1374 451Q1411 451 1437 493Q1463 535 1477 605Q1491 675 1491 758Q1491 911 1433 1023Q1375 1135 1260 1196Q1145 1257 973 1257Q821 1257 705 1209Q589 1161 511 1073.50Q433 986 393.50 867Q354 748 354 606Q354 445 415 325Q476 205 597 139.50Q718 74 899 74Q1013 74 1151.50 100Q1290 126 1413 170L1413-59Q1307-104 1178.50-129Q1050-154 913-154Q651-154 465-61.50Q279 31 180.50 202.50Q82 374 82 610Q82 795 144 953Q206 1111 322.50 1230Q439 1349 602.50 1415Q766 1481 969 1481Q1206 1481 1382.50 1393Q1559 1305 1657 1142.50Q1755 980 1755 756M760 641Q760 541 796.50 496Q833 451 893 451Q974 451 1008.50 516.50Q1043 582 1053 733L1063 889Q1043 892 1028.50 893.50Q1014 895 995 895Q913 895 861 860Q809 825 784.50 767.50Q760 710 760 641Z"  horiz-adv-x="1837" vert-adv-y="2048"  />

      
      <glyph glyph-name="uni41" unicode="&#x41;" d="M1055 0L983 274L508 274L434 0L0 0L477 1468L1004 1468L1487 0L1055 0M901 598L838 838Q828 877 809 949.50Q790 1022 771.50 1099.50Q753 1177 743 1227Q734 1177 717.50 1103.50Q701 1030 683.50 958Q666 886 653 838L590 598L901 598Z"  horiz-adv-x="1487" vert-adv-y="2048"  />

      
      <glyph glyph-name="uni42" unicode="&#x42;" d="M158 1462L668 1462Q985 1462 1120 1368Q1255 1274 1255 1098Q1255 1002 1220.50 935Q1186 868 1133.50 829Q1081 790 1026 776L1026 766Q1086 751 1145.50 716.50Q1205 682 1244.50 613.50Q1284 545 1284 428Q1284 295 1216.50 199Q1149 103 1024 51.50Q899 0 727 0L158 0L158 1462M553 901L672 901Q770 901 810 941.50Q850 982 850 1040Q850 1100 804.50 1131.50Q759 1163 664 1163L553 1163L553 901M553 612L553 305L692 305Q795 305 836 349.50Q877 394 877 461Q877 500 859.50 534.50Q842 569 800 590.50Q758 612 684 612L553 612Z"  horiz-adv-x="1380" vert-adv-y="2048"  />

      
      <glyph glyph-name="uni43" unicode="&#x43;" d="M809 1159Q739 1159 684 1129.50Q629 1100 590 1044Q551 988 530.50 907.50Q510 827 510 725Q510 587 545 493Q580 399 651.50 351Q723 303 831 303Q929 303 1019.50 330Q1110 357 1202 395L1202 61Q1105 18 1003.50-1Q902-20 788-20Q550-20 398.50 74.50Q247 169 175.50 337Q104 505 104 727Q104 893 150.50 1031Q197 1169 287 1270.50Q377 1372 509.50 1427.50Q642 1483 813 1483Q919 1483 1036.50 1458.50Q1154 1434 1266 1380L1145 1069Q1065 1107 983 1133Q901 1159 809 1159Z"  horiz-adv-x="1329" vert-adv-y="2048"  />

      
      <glyph glyph-name="uni44" unicode="&#x44;" d="M1399 762Q1399 507 1304 338Q1209 169 1036.50 84.50Q864 0 631 0L158 0L158 1462L664 1462Q900 1462 1064 1381Q1228 1300 1313.50 1144Q1399 988 1399 762M989 748Q989 881 953.50 968.50Q918 1056 847 1099.50Q776 1143 668 1143L553 1143L553 324L641 324Q821 324 905 428.50Q989 533 989 748Z"  horiz-adv-x="1503" vert-adv-y="2048"  />

      
      <glyph glyph-name="uni45" unicode="&#x45;" d="M1026 0L158 0L158 1462L1026 1462L1026 1145L553 1145L553 915L991 915L991 598L553 598L553 322L1026 322L1026 0Z"  horiz-adv-x="1124" vert-adv-y="2048"  />

      
      <glyph glyph-name="uni46" unicode="&#x46;" d="M547 0L158 0L158 1462L1022 1462L1022 1145L547 1145L547 866L985 866L985 549L547 549L547 0Z"  horiz-adv-x="1104" vert-adv-y="2048"  />

      
      <glyph glyph-name="uni47" unicode="&#x47;" d="M745 856L1376 856L1376 68Q1263 29 1117 4.50Q971-20 811-20Q600-20 441 62Q282 144 193 311.50Q104 479 104 735Q104 965 192 1132.50Q280 1300 451.50 1391.50Q623 1483 872 1483Q1009 1483 1132 1457Q1255 1431 1346 1391L1221 1081Q1142 1120 1057 1139.50Q972 1159 874 1159Q743 1159 663.50 1100Q584 1041 548 942.50Q512 844 512 725Q512 589 550.50 495.50Q589 402 663.50 353.50Q738 305 844 305Q879 305 929.50 310Q980 315 1006 322L1006 551L745 551L745 856Z"  horiz-adv-x="1516" vert-adv-y="2048"  />

      
      <glyph glyph-name="uni48" unicode="&#x48;" d="M1411 0L1014 0L1014 596L555 596L555 0L158 0L158 1462L555 1462L555 920L1014 920L1014 1462L1411 1462L1411 0Z"  horiz-adv-x="1569" vert-adv-y="2048"  />

      
      <glyph glyph-name="uni49" unicode="&#x49;" d="M158 0L158 1462L555 1462L555 0L158 0Z"  horiz-adv-x="713" vert-adv-y="2048"  />

      
      <glyph glyph-name="uni4a" unicode="&#x4a;" d="M43-459Q-24-459-74.50-452.50Q-125-446-162-438L-162-131Q-130-137-94-144.50Q-58-152-16-152Q55-152 94.50-123Q134-94 150-36Q166 22 166 109L166 1462L563 1462L563 143Q563-77 497-209Q431-341 314-400Q197-459 43-459Z"  horiz-adv-x="721" vert-adv-y="2048"  />

      
      <glyph glyph-name="uni4b" unicode="&#x4b;" d="M1407 0L961 0L672 559L555 489L555 0L158 0L158 1462L555 1462L555 827Q580 875 612.50 923Q645 971 676 1014L983 1462L1415 1462L954 807L1407 0Z"  horiz-adv-x="1407" vert-adv-y="2048"  />

      
      <glyph glyph-name="uni4c" unicode="&#x4c;" d="M158 0L158 1462L553 1462L553 319L1116 319L1116 0L158 0Z"  horiz-adv-x="1192" vert-adv-y="2048"  />

      
      <glyph glyph-name="uni4d" unicode="&#x4d;" d="M795 0L496 1053L487 1053Q491 1012 495.50 942Q500 872 504 791Q508 710 508 635L508 0L158 0L158 1462L684 1462L989 424L997 424L1296 1462L1823 1462L1823 0L1460 0L1460 641Q1460 710 1462.50 789.50Q1465 869 1468.50 939.50Q1472 1010 1475 1051L1466 1051L1171 0L795 0Z"  horiz-adv-x="1980" vert-adv-y="2048"  />

      
      <glyph glyph-name="uni4e" unicode="&#x4e;" d="M1550 0L1032 0L498 1030L489 1030Q494 983 498 917Q502 851 505 782.50Q508 714 508 659L508 0L158 0L158 1462L674 1462L1206 446L1212 446Q1209 494 1206 557.50Q1203 621 1200.50 686Q1198 751 1198 801L1198 1462L1550 1462L1550 0Z"  horiz-adv-x="1708" vert-adv-y="2048"  />

      
      <glyph glyph-name="uni4f" unicode="&#x4f;" d="M1526 733Q1526 564 1485.50 425.50Q1445 287 1359 187Q1273 87 1138 33.50Q1003-20 815-20Q631-20 496.50 33.50Q362 87 275 186.50Q188 286 146 425Q104 564 104 735Q104 963 179.50 1131.50Q255 1300 413 1392.50Q571 1485 817 1485Q1067 1485 1223.50 1392Q1380 1299 1453 1130Q1526 961 1526 733M520 733Q520 601 550 506Q580 411 645 360Q710 309 815 309Q924 309 988.50 360Q1053 411 1081.50 506Q1110 601 1110 733Q1110 931 1044 1046Q978 1161 817 1161Q710 1161 644.50 1109Q579 1057 549.50 961Q520 865 520 733Z"  horiz-adv-x="1632" vert-adv-y="2048"  />

      
      <glyph glyph-name="uni50" unicode="&#x50;" d="M664 1462Q942 1462 1080.50 1341Q1219 1220 1219 997Q1219 897 1190.50 805Q1162 713 1097.50 641Q1033 569 926.50 527Q820 485 664 485L553 485L553 0L158 0L158 1462L664 1462M655 1143L553 1143L553 807L631 807Q682 807 726 824.50Q770 842 796.50 881.50Q823 921 823 987Q823 1056 782 1099.50Q741 1143 655 1143Z"  horiz-adv-x="1294" vert-adv-y="2048"  />

      
      <glyph glyph-name="uni51" unicode="&#x51;" d="M1526 733Q1526 581 1493.50 451.50Q1461 322 1391.50 223.50Q1322 125 1210 63L1567-348L1075-348L829-20Q828-20 822.50-20Q817-20 815-20Q631-20 496.50 33.50Q362 87 275 186.50Q188 286 146 425Q104 564 104 735Q104 963 179.50 1131.50Q255 1300 413 1392.50Q571 1485 817 1485Q1067 1485 1223.50 1392Q1380 1299 1453 1130Q1526 961 1526 733M520 733Q520 601 550 506Q580 411 645 360Q710 309 815 309Q924 309 988.50 360Q1053 411 1081.50 506Q1110 601 1110 733Q1110 931 1044 1046Q978 1161 817 1161Q710 1161 644.50 1109Q579 1057 549.50 961Q520 865 520 733Z"  horiz-adv-x="1632" vert-adv-y="2048"  />

      
      <glyph glyph-name="uni52" unicode="&#x52;" d="M637 1462Q836 1462 968 1413.50Q1100 1365 1166.50 1269Q1233 1173 1233 1030Q1233 941 1203 868Q1173 795 1117.50 737.50Q1062 680 985 637L1411 0L963 0L653 532L553 532L553 0L158 0L158 1462L637 1462M631 1163L553 1163L553 829L627 829Q718 829 776 869Q834 909 834 1012Q834 1083 786 1123Q738 1163 631 1163Z"  horiz-adv-x="1386" vert-adv-y="2048"  />

      
      <glyph glyph-name="uni53" unicode="&#x53;" d="M1114 444Q1114 325 1054 218.50Q994 112 867.50 46Q741-20 541-20Q441-20 365.50-11Q290-2 225 18.50Q160 39 90 72L90 424Q209 364 330 332.50Q451 301 549 301Q608 301 645.50 315Q683 329 701 353.50Q719 378 719 410Q719 448 692.50 474.50Q666 501 608 530Q550 559 455 602Q374 640 308.50 680Q243 720 196.50 771.50Q150 823 125 892Q100 961 100 1055Q100 1196 169.50 1291.50Q239 1387 363.50 1435Q488 1483 651 1483Q794 1483 908.50 1451Q1023 1419 1114 1378L993 1073Q899 1116 808 1141.50Q717 1167 639 1167Q588 1167 555.50 1154.50Q523 1142 507.50 1121Q492 1100 492 1073Q492 1039 518.50 1012Q545 985 607.50 953.50Q670 922 778 872Q885 824 960 768.50Q1035 713 1074.50 635.50Q1114 558 1114 444Z"  horiz-adv-x="1182" vert-adv-y="2048"  />

      
      <glyph glyph-name="uni54" unicode="&#x54;" d="M803 0L408 0L408 1139L51 1139L51 1462L1159 1462L1159 1139L803 1139L803 0Z"  horiz-adv-x="1210" vert-adv-y="2048"  />

      
      <glyph glyph-name="uni55" unicode="&#x55;" d="M1401 1462L1401 582Q1401 398 1331 262.50Q1261 127 1121 53.50Q981-20 770-20Q468-20 309 135Q150 290 150 573L150 1462L547 1462L547 604Q547 449 605 379Q663 309 776 309Q857 309 908 339.50Q959 370 982.50 436Q1006 502 1006 606L1006 1462L1401 1462Z"  horiz-adv-x="1550" vert-adv-y="2048"  />

      
      <glyph glyph-name="uni56" unicode="&#x56;" d="M1421 1462L942 0L477 0L0 1462L444 1462L643 721Q654 679 668.50 613.50Q683 548 695.50 483Q708 418 711 377Q715 418 726 482Q737 546 750.50 610.50Q764 675 776 717L979 1462L1421 1462Z"  horiz-adv-x="1421" vert-adv-y="2048"  />

      
      <glyph glyph-name="uni57" unicode="&#x57;" d="M2097 1462L1737 0L1270 0L1130 637Q1126 655 1117.50 698Q1109 741 1098.50 796Q1088 851 1079.50 904.50Q1071 958 1067 995Q1063 958 1054 904.50Q1045 851 1034.50 796Q1024 741 1014.50 698Q1005 655 1001 637L860 0L393 0L31 1462L412 1462L571 729Q577 702 587.50 652.50Q598 603 609.50 544.50Q621 486 631 432Q641 378 645 342Q653 404 666.50 483Q680 562 696.50 643.50Q713 725 728 795Q743 865 754 909L883 1462L1249 1462L1374 909Q1384 866 1399.50 795.50Q1415 725 1431.50 643Q1448 561 1462 481.50Q1476 402 1483 342Q1489 392 1503 468.50Q1517 545 1531.50 617.50Q1546 690 1554 727L1716 1462L2097 1462Z"  horiz-adv-x="2128" vert-adv-y="2048"  />

      
      <glyph glyph-name="uni58" unicode="&#x58;" d="M1475 0L1018 0L733 457L451 0L4 0L489 748L33 1462L471 1462L735 1010L989 1462L1440 1462L977 717L1475 0Z"  horiz-adv-x="1481" vert-adv-y="2048"  />

      
      <glyph glyph-name="uni59" unicode="&#x59;" d="M680 920L932 1462L1360 1462L879 571L879 0L481 0L481 559L0 1462L430 1462L680 920Z"  horiz-adv-x="1360" vert-adv-y="2048"  />

      
      <glyph glyph-name="uni5a" unicode="&#x5a;" d="M1200 0L61 0L61 244L694 1143L76 1143L76 1462L1184 1462L1184 1219L551 319L1200 319L1200 0Z"  horiz-adv-x="1251" vert-adv-y="2048"  />

      
      <glyph glyph-name="uni5b" unicode="&#x5b;" d="M616-344L117-344L117 1503L616 1503L616 1249L434 1249L434-90L616-90L616-344Z"  horiz-adv-x="664" vert-adv-y="2048"  />

      
      <glyph glyph-name="uni5c" unicode="&#x5c;" d="M352 1483L897-20L551-20L6 1483L352 1483Z"  horiz-adv-x="905" vert-adv-y="2048"  />

      
      <glyph glyph-name="uni5d" unicode="&#x5d;" d="M47-90L229-90L229 1249L47 1249L47 1503L547 1503L547-344L47-344L47-90Z"  horiz-adv-x="664" vert-adv-y="2048"  />

      
      <glyph glyph-name="uni5e" unicode="&#x5e;" d="M-16 502L424 1468L594 1468L1102 502L807 502L518 1079L270 502L-16 502Z"  horiz-adv-x="1075" vert-adv-y="2048"  />

      
      <glyph glyph-name="uni5f" unicode="&#x5f;" d="M1028-379L-4-379L-4-133L1028-133L1028-379Z"  horiz-adv-x="1024" vert-adv-y="2048"  />

      
      <glyph glyph-name="uni60" unicode="&#x60;" d="M512 1569Q547 1523 595.50 1468Q644 1413 692.50 1360.50Q741 1308 774 1270L774 1241L514 1241Q472 1267 414 1307Q356 1347 293 1391.50Q230 1436 174.50 1477.50Q119 1519 82 1548L82 1569L512 1569Z"  horiz-adv-x="856" vert-adv-y="2048"  />

      
      <glyph glyph-name="uni61" unicode="&#x61;" d="M688 1153Q903 1153 1024 1046.50Q1145 940 1145 743L1145 0L874 0L799 150L791 150Q743 90 692.50 52.50Q642 15 577-2.50Q512-20 418-20Q320-20 242 20Q164 60 119 141Q74 222 74 346Q74 528 200 616Q326 704 565 715L754 721L754 737Q754 813 716.50 845Q679 877 616 877Q549 877 466.50 853.50Q384 830 301 793L188 1051Q286 1101 410 1127Q534 1153 688 1153M756 506L666 502Q558 498 514.50 464.50Q471 431 471 369Q471 311 502 283.50Q533 256 584 256Q655 256 705.50 301Q756 346 756 418L756 506Z"  horiz-adv-x="1276" vert-adv-y="2048"  />

      
      <glyph glyph-name="uni62" unicode="&#x62;" d="M526 1556L526 1204Q526 1144 522 1089.50Q518 1035 512 987L526 987Q570 1056 641 1104.50Q712 1153 827 1153Q1004 1153 1116.50 1003Q1229 853 1229 569Q1229 376 1177 244.50Q1125 113 1031.50 46.50Q938-20 815-20Q695-20 632.50 21.50Q570 63 526 111L502 111L440 0L135 0L135 1556L526 1556M684 846Q630 846 595 821Q560 796 543 743.50Q526 691 526 610L526 555Q526 423 561.50 359Q597 295 688 295Q757 295 794 366Q831 437 831 573Q831 709 795 777.50Q759 846 684 846Z"  horiz-adv-x="1317" vert-adv-y="2048"  />

      
      <glyph glyph-name="uni63" unicode="&#x63;" d="M651-20Q479-20 352 41.50Q225 103 155.50 231.50Q86 360 86 561Q86 767 163.50 898Q241 1029 376 1091Q511 1153 682 1153Q786 1153 879.50 1130Q973 1107 1053 1067L938 778Q868 809 807.50 827.50Q747 846 682 846Q623 846 578 815Q533 784 508 721.50Q483 659 483 563Q483 465 508.50 405Q534 345 579.50 318Q625 291 684 291Q769 291 853.50 317.50Q938 344 1014 391L1014 80Q944 34 856 7Q768-20 651-20Z"  horiz-adv-x="1104" vert-adv-y="2048"  />

      
      <glyph glyph-name="uni64" unicode="&#x64;" d="M487-20Q312-20 199 129Q86 278 86 565Q86 855 202 1004Q318 1153 502 1153Q578 1153 633 1131Q688 1109 728.50 1071.50Q769 1034 799 987L807 987Q800 1030 794 1105.50Q788 1181 788 1253L788 1556L1182 1556L1182 0L887 0L803 143L788 143Q761 98 720.50 61Q680 24 622.50 2Q565-20 487-20M647 289Q741 289 779.50 348.50Q818 408 821 530L821 561Q821 695 783.50 766.50Q746 838 643 838Q573 838 527 770Q481 702 481 559Q481 418 527.50 353.50Q574 289 647 289Z"  horiz-adv-x="1317" vert-adv-y="2048"  />

      
      <glyph glyph-name="uni65" unicode="&#x65;" d="M645 1153Q810 1153 930 1095.50Q1050 1038 1115 923Q1180 808 1180 635L1180 461L481 461Q486 372 547.50 315Q609 258 729 258Q835 258 923.50 279Q1012 300 1106 344L1106 63Q1024 20 927 0Q830-20 682-20Q511-20 376 41Q241 102 163.50 230Q86 358 86 559Q86 763 156 894.50Q226 1026 352 1089.50Q478 1153 645 1153M659 887Q590 887 543.50 843.50Q497 800 489 707L825 707Q824 757 805 798Q786 839 749.50 863Q713 887 659 887Z"  horiz-adv-x="1266" vert-adv-y="2048"  />

      
      <glyph glyph-name="uni66" unicode="&#x66;" d="M827 840L586 840L586 0L195 0L195 840L45 840L45 1032L203 1128L203 1147Q203 1294 242 1386.50Q281 1479 366 1523Q451 1567 588 1567Q676 1567 747.50 1553Q819 1539 897 1513L813 1260Q784 1268 748.50 1274Q713 1280 672 1280Q627 1280 606.50 1252.50Q586 1225 586 1163L586 1133L827 1133L827 840Z"  horiz-adv-x="846" vert-adv-y="2048"  />

      
      <glyph glyph-name="uni67" unicode="&#x67;" d="M522-492Q281-492 150.50-411.50Q20-331 20-180Q20-79 83-13Q146 53 272 82Q220 104 181.50 153Q143 202 143 250Q143 303 172 343.50Q201 384 293 440Q205 479 154.50 562Q104 645 104 764Q104 887 160.50 974Q217 1061 325.50 1107Q434 1153 590 1153Q611 1153 654 1149.50Q697 1146 741 1141.50Q785 1137 809 1133L1204 1133L1204 944L1049 887Q1065 858 1073 824Q1081 790 1081 752Q1081 569 952.50 468Q824 367 569 367Q506 367 469 375Q462 362 458.50 349.50Q455 337 455 326Q455 303 482.50 289.50Q510 276 549.50 271Q589 266 625 266L813 266Q1004 266 1099 186Q1194 106 1194-55Q1194-262 1017.50-377Q841-492 522-492M541-248Q612-248 684-235.50Q756-223 805-195Q854-167 854-121Q854-86 825-68.50Q796-51 750-45Q704-39 653-39L501-39Q459-39 424.50-52.50Q390-66 370-89Q350-112 350-141Q350-189 402-218.50Q454-248 541-248M594 588Q650 588 680.50 631Q711 674 711 760Q711 848 682 892Q653 936 594 936Q533 936 503 892.50Q473 849 473 762Q473 675 503 631.50Q533 588 594 588Z"  horiz-adv-x="1241" vert-adv-y="2048"  />

      
      <glyph glyph-name="uni68" unicode="&#x68;" d="M526 1556L526 1335Q526 1209 520.50 1123.50Q515 1038 510 993L528 993Q565 1052 612 1087Q659 1122 716 1137.50Q773 1153 840 1153Q952 1153 1042.50 1110Q1133 1067 1187 975.50Q1241 884 1241 737L1241 0L848 0L848 618Q848 731 815 788.50Q782 846 713 846Q642 846 601 805.50Q560 765 543 687.50Q526 610 526 498L526 0L135 0L135 1556L526 1556Z"  horiz-adv-x="1372" vert-adv-y="2048"  />

      
      <glyph glyph-name="uni69" unicode="&#x69;" d="M528 1133L528 0L137 0L137 1133L528 1133M334 1589Q418 1589 480.50 1554Q543 1519 543 1415Q543 1314 480.50 1278.50Q418 1243 334 1243Q248 1243 187.50 1278.50Q127 1314 127 1415Q127 1519 187.50 1554Q248 1589 334 1589Z"  horiz-adv-x="666" vert-adv-y="2048"  />

      
      <glyph glyph-name="uni6a" unicode="&#x6a;" d="M106-492Q59-492-2.50-484.50Q-64-477-104-467L-104-162Q-72-171-45-175.50Q-18-180 16-180Q64-180 99.50-146.50Q135-113 135-10L135 1133L526 1133L526-92Q526-194 486-285.50Q446-377 354-434.50Q262-492 106-492M125 1415Q125 1519 185.50 1554Q246 1589 332 1589Q416 1589 478.50 1554Q541 1519 541 1415Q541 1314 478.50 1278.50Q416 1243 332 1243Q246 1243 185.50 1278.50Q125 1314 125 1415Z"  horiz-adv-x="664" vert-adv-y="2048"  />

      
      <glyph glyph-name="uni6b" unicode="&#x6b;" d="M528 1556L528 944Q528 875 522.50 790.50Q517 706 506 637L514 637Q537 672 572 725Q607 778 635 813L889 1133L1325 1133L932 651L1350 0L903 0L655 406L528 309L528 0L135 0L135 1556L528 1556Z"  horiz-adv-x="1350" vert-adv-y="2048"  />

      
      <glyph glyph-name="uni6c" unicode="&#x6c;" d="M526 0L135 0L135 1556L526 1556L526 0Z"  horiz-adv-x="662" vert-adv-y="2048"  />

      
      <glyph glyph-name="uni6d" unicode="&#x6d;" d="M1518 1153Q1712 1153 1814.50 1054Q1917 955 1917 737L1917 0L1526 0L1526 616Q1526 745 1491.50 795.50Q1457 846 1389 846Q1294 846 1257.50 763Q1221 680 1221 528L1221 0L829 0L829 616Q829 698 814.50 748.50Q800 799 771 822.50Q742 846 698 846Q631 846 593.50 805.50Q556 765 541 687Q526 609 526 496L526 0L135 0L135 1133L430 1133L487 993L498 993Q528 1039 575.50 1075Q623 1111 688.50 1132Q754 1153 838 1153Q963 1153 1044 1111Q1125 1069 1176 995L1188 995Q1242 1071 1327 1112Q1412 1153 1518 1153Z"  horiz-adv-x="2048" vert-adv-y="2048"  />

      
      <glyph glyph-name="uni6e" unicode="&#x6e;" d="M844 1153Q1019 1153 1130 1054Q1241 955 1241 737L1241 0L850 0L850 618Q850 731 817.50 788.50Q785 846 713 846Q602 846 564 755.50Q526 665 526 496L526 0L135 0L135 1133L430 1133L483 983L498 983Q534 1037 584 1075Q634 1113 699 1133Q764 1153 844 1153Z"  horiz-adv-x="1372" vert-adv-y="2048"  />

      
      <glyph glyph-name="uni6f" unicode="&#x6f;" d="M1217 569Q1217 427 1178 317Q1139 207 1065 132Q991 57 886 18.50Q781-20 649-20Q526-20 423.50 18.50Q321 57 245 132Q169 207 127.50 317Q86 427 86 569Q86 757 154.50 887Q223 1017 350.50 1085Q478 1153 655 1153Q818 1153 945 1085Q1072 1017 1144.50 887Q1217 757 1217 569M483 569Q483 472 500 405.50Q517 339 554.50 304.50Q592 270 653 270Q714 270 750 304.50Q786 339 802.50 405.50Q819 472 819 569Q819 666 802.50 731Q786 796 749.50 829Q713 862 651 862Q562 862 522.50 788Q483 714 483 569Z"  horiz-adv-x="1305" vert-adv-y="2048"  />

      
      <glyph glyph-name="uni70" unicode="&#x70;" d="M827 1153Q1015 1153 1122 1002.50Q1229 852 1229 569Q1229 376 1175 244.50Q1121 113 1027.50 46.50Q934-20 815-20Q735-20 679.50 0Q624 20 587.50 50Q551 80 526 111L514 111Q519 72 522.50 27Q526-18 526-78L526-492L135-492L135 1133L453 1133L508 989L526 989Q554 1033 594 1070.50Q634 1108 691.50 1130.50Q749 1153 827 1153M680 846Q623 846 590 819Q557 792 542.50 737.50Q528 683 526 602L526 571Q526 481 540 419.50Q554 358 588 326.50Q622 295 682 295Q731 295 764 323Q797 351 814 412Q831 473 831 573Q831 722 792.50 784Q754 846 680 846Z"  horiz-adv-x="1317" vert-adv-y="2048"  />

      
      <glyph glyph-name="uni71" unicode="&#x71;" d="M791-492L791-23Q791 19 794 60.50Q797 102 803 143L791 143Q751 76 679.50 28Q608-20 492-20Q311-20 198.50 129Q86 278 86 565Q86 757 138 888Q190 1019 283 1086Q376 1153 498 1153Q616 1153 689.50 1107Q763 1061 807 993L815 993L844 1133L1182 1133L1182-492L791-492M651 283Q715 283 752 309.50Q789 336 805 389.50Q821 443 821 524L821 571Q821 704 785 777Q749 850 645 850Q564 850 523.50 776Q483 702 483 559Q483 411 524.50 347Q566 283 651 283Z"  horiz-adv-x="1317" vert-adv-y="2048"  />

      
      <glyph glyph-name="uni72" unicode="&#x72;" d="M819 1153Q851 1153 886 1148.50Q921 1144 938 1141L903 772Q884 777 854 780.50Q824 784 770 784Q733 784 691 777Q649 770 611.50 747.50Q574 725 550 679.50Q526 634 526 557L526 0L135 0L135 1133L426 1133L487 952L506 952Q537 1008 585.50 1053.50Q634 1099 694.50 1126Q755 1153 819 1153Z"  horiz-adv-x="961" vert-adv-y="2048"  />

      
      <glyph glyph-name="uni73" unicode="&#x73;" d="M977 348Q977 240 929 157Q881 74 775.50 27Q670-20 498-20Q377-20 281.50-7Q186 6 88 43L88 356Q195 307 306 285.50Q417 264 481 264Q547 264 577.50 278.50Q608 293 608 322Q608 347 587.50 364.50Q567 382 514.50 405Q462 428 367 467Q273 506 210.50 552Q148 598 117 662Q86 726 86 819Q86 985 214 1069Q342 1153 553 1153Q665 1153 764 1128.50Q863 1104 969 1057L862 805Q778 843 692 866Q606 889 555 889Q509 889 484 877Q459 865 459 842Q459 821 476.50 805Q494 789 543 768Q592 747 686 709Q785 669 849.50 623.50Q914 578 945.50 513Q977 448 977 348Z"  horiz-adv-x="1059" vert-adv-y="2048"  />

      
      <glyph glyph-name="uni74" unicode="&#x74;" d="M690 289Q743 289 787 300Q831 311 879 328L879 43Q815 15 743.50-2.50Q672-20 561-20Q451-20 367 14.50Q283 49 236.50 134.50Q190 220 190 373L190 840L53 840L53 999L227 1122L328 1360L584 1360L584 1133L862 1133L862 840L584 840L584 399Q584 344 612 316.50Q640 289 690 289Z"  horiz-adv-x="942" vert-adv-y="2048"  />

      
      <glyph glyph-name="uni75" unicode="&#x75;" d="M1237 1133L1237 0L942 0L893 141L870 141Q835 84 781.50 48.50Q728 13 663-3.50Q598-20 528-20Q417-20 327.50 23Q238 66 185.50 158Q133 250 133 395L133 1133L524 1133L524 514Q524 404 555.50 346.50Q587 289 659 289Q733 289 773.50 329Q814 369 830 447Q846 525 846 637L846 1133L1237 1133Z"  horiz-adv-x="1372" vert-adv-y="2048"  />

      
      <glyph glyph-name="uni76" unicode="&#x76;" d="M432 0L0 1133L408 1133L600 463Q603 454 610.50 417Q618 380 618 348L625 348Q625 382 632 413Q639 444 643 461L844 1133L1251 1133L819 0L432 0Z"  horiz-adv-x="1251" vert-adv-y="2048"  />

      
      <glyph glyph-name="uni77" unicode="&#x77;" d="M1110 0L991 496Q982 534 973 582.50Q964 631 955.50 680Q947 729 941 770Q935 811 932 834L926 834Q923 811 916 769.50Q909 728 900 678Q891 628 880.50 576.50Q870 525 860 481L745 0L334 0L25 1133L410 1133L502 698Q512 650 522.50 583.50Q533 517 541.50 448.50Q550 380 553 326L559 326Q561 367 568.50 420.50Q576 474 585.50 527Q595 580 603 620.50Q611 661 614 676L719 1133L1151 1133L1247 670Q1256 631 1267.50 570.50Q1279 510 1289.50 444.50Q1300 379 1305 326L1311 326Q1315 381 1323 451Q1331 521 1341.50 587.50Q1352 654 1362 698L1462 1133L1839 1133L1528 0L1110 0Z"  horiz-adv-x="1864" vert-adv-y="2048"  />

      
      <glyph glyph-name="uni78" unicode="&#x78;" d="M375 578L29 1133L473 1133L645 815L821 1133L1266 1133L911 578L1280 0L836 0L645 344L455 0L10 0L375 578Z"  horiz-adv-x="1290" vert-adv-y="2048"  />

      
      <glyph glyph-name="uni79" unicode="&#x79;" d="M-2 1133L410 1133L602 483Q606 469 610 448.50Q614 428 617 405Q620 382 621 360L629 360Q634 401 640.50 431.50Q647 462 653 481L850 1133L1249 1133L801-72Q749-210 680.50-303.50Q612-397 511.50-444.50Q411-492 262-492Q208-492 169.50-486.50Q131-481 102-475L102-168Q124-172 156-176Q188-180 223-180Q288-180 328.50-154Q369-128 395-85.50Q421-43 440 6L444 16L-2 1133Z"  horiz-adv-x="1249" vert-adv-y="2048"  />

      
      <glyph glyph-name="uni7a" unicode="&#x7a;" d="M987 0L49 0L49 223L518 834L76 834L76 1133L965 1133L965 891L516 299L987 299L987 0Z"  horiz-adv-x="1038" vert-adv-y="2048"  />

      
      <glyph glyph-name="uni7b" unicode="&#x7b;" d="M821-344Q611-344 500-308Q389-272 348-196Q307-120 307 0L307 248Q307 310 271 347Q235 384 179 401Q123 418 61 418L61 719Q125 719 181 735.50Q237 752 272 789.50Q307 827 307 889L307 1143Q307 1260 347 1335Q387 1410 497.50 1446.50Q608 1483 821 1483L821 1204Q780 1203 736 1198Q692 1193 661.50 1171Q631 1149 631 1098L631 827Q631 703 568 647Q505 591 391 575L391 563Q508 545 569.50 489.50Q631 434 631 317L631 41Q631-9 662-31Q693-53 737-58.50Q781-64 821-66L821-344Z"  horiz-adv-x="887" vert-adv-y="2048"  />

      
      <glyph glyph-name="uni7c" unicode="&#x7c;" d="M387 1556L655 1556L655-446L387-446L387 1556Z"  horiz-adv-x="1042" vert-adv-y="2048"  />

      
      <glyph glyph-name="uni7d" unicode="&#x7d;" d="M66-344L66-66Q106-64 150-58.50Q194-53 225-31Q256-9 256 41L256 317Q256 434 317.50 489.50Q379 545 496 563L496 575Q382 591 319 647Q256 703 256 827L256 1098Q256 1149 225.50 1171Q195 1193 151 1198Q107 1203 66 1204L66 1483Q279 1483 390 1446.50Q501 1410 540.50 1335Q580 1260 580 1143L580 889Q580 827 615 789.50Q650 752 706 735.50Q762 719 825 719L825 418Q764 418 707.50 401Q651 384 615.50 347Q580 310 580 248L580 0Q580-120 539-196Q498-272 387-308Q276-344 66-344Z"  horiz-adv-x="887" vert-adv-y="2048"  />

      
      <glyph glyph-name="uni7e" unicode="&#x7e;" d="M561 592Q486 624 429.50 635.50Q373 647 326 647Q266 647 205.50 612Q145 577 92 526L92 807Q145 861 209.50 888Q274 915 356 915Q416 915 476.50 903.50Q537 892 637 852Q712 820 770 808.50Q828 797 874 797Q931 797 992.50 832Q1054 867 1106 918L1106 637Q1054 583 988.50 555.50Q923 528 842 528Q782 528 721.50 540Q661 552 561 592Z"  horiz-adv-x="1200" vert-adv-y="2048"  />

      
      <glyph glyph-name="unia1" unicode="&#xa1;" d="M133 612L463 612L514-334L82-334L133 612M510 963Q510 857 447.50 813.50Q385 770 299 770Q214 770 153 813.50Q92 857 92 963Q92 1064 153 1108.50Q214 1153 299 1153Q385 1153 447.50 1108.50Q510 1064 510 963Z"  horiz-adv-x="594" vert-adv-y="2048"  />

      
      <glyph glyph-name="unia2" unicode="&#xa2;" d="M772 1483L772 1329Q861 1325 943 1302.50Q1025 1280 1096 1245L981 956Q911 987 850.50 1005.50Q790 1024 725 1024Q666 1024 621 993Q576 962 551 899.50Q526 837 526 741Q526 643 551.50 583Q577 523 622.50 496Q668 469 727 469Q812 469 896.50 495.50Q981 522 1057 569L1057 258Q999 220 929.50 194.50Q860 169 772 160L772-20L565-20L565 166Q430 187 332 255.50Q234 324 181.50 444Q129 564 129 739Q129 911 184.50 1030.50Q240 1150 338 1221Q436 1292 565 1317L565 1483L772 1483Z"  horiz-adv-x="1200" vert-adv-y="2048"  />

      
      <glyph glyph-name="unia3" unicode="&#xa3;" d="M723 1485Q832 1485 936.50 1462.50Q1041 1440 1128 1403L1018 1114Q941 1143 876.50 1156Q812 1169 766 1169Q718 1169 685.50 1141.50Q653 1114 653 1032L653 926L997 926L997 649L653 649L653 553Q653 488 628 443.50Q603 399 566.50 371Q530 343 494 326L1165 326L1165 0L104 0L104 313Q159 345 195 373.50Q231 402 249.50 442.50Q268 483 268 551L268 649L102 649L102 926L268 926L268 1044Q268 1199 325.50 1296.50Q383 1394 485.50 1439.50Q588 1485 723 1485Z"  horiz-adv-x="1200" vert-adv-y="2048"  />

      
      <glyph glyph-name="unia4" unicode="&#xa4;" d="M180 723Q180 770 191.50 815.50Q203 861 221 899L96 1018L276 1200L399 1077Q438 1096 484.50 1107Q531 1118 571 1118Q619 1118 662 1107Q705 1096 748 1073L868 1200L1053 1026L926 901Q946 864 956.50 817Q967 770 967 723Q967 674 957 631Q947 588 926 547L1047 428L868 250L748 369Q709 352 664 341Q619 330 571 330Q524 330 480 338.50Q436 347 395 367L276 252L98 430L221 549Q200 590 190 632.50Q180 675 180 723M436 723Q436 685 454.50 654.50Q473 624 504 606Q535 588 571 588Q610 588 642.50 606Q675 624 694 654.50Q713 685 713 723Q713 762 694 793Q675 824 642.50 842Q610 860 571 860Q535 860 504 842Q473 824 454.50 793Q436 762 436 723Z"  horiz-adv-x="1159" vert-adv-y="2048"  />

      
      <glyph glyph-name="unia5" unicode="&#xa5;" d="M600 958L793 1462L1192 1462L829 750L1024 750L1024 539L782 539L782 422L1024 422L1024 213L782 213L782 0L418 0L418 213L172 213L172 422L418 422L418 539L172 539L172 750L362 750L8 1462L408 1462L600 958Z"  horiz-adv-x="1200" vert-adv-y="2048"  />

      
      <glyph glyph-name="unia6" unicode="&#xa6;" d="M387 1556L655 1556L655 717L387 717L387 1556M387 393L655 393L655-446L387-446L387 393Z"  horiz-adv-x="1042" vert-adv-y="2048"  />

      
      <glyph glyph-name="unia7" unicode="&#xa7;" d="M106 803Q106 881 158 940Q210 999 270 1036Q201 1086 165 1146Q129 1206 129 1282Q129 1411 234 1494Q339 1577 535 1577Q638 1577 733.50 1552.50Q829 1528 905 1491L807 1270Q741 1305 668 1330.50Q595 1356 532 1356Q480 1356 452 1337.50Q424 1319 424 1282Q424 1260 438.50 1236.50Q453 1213 491 1187.50Q529 1162 598 1133Q715 1086 787.50 1034Q860 982 894 925Q928 868 928 803Q928 700 882 642.50Q836 585 780 545Q836 503 870.50 442Q905 381 905 301Q905 163 795.50 69Q686-25 469-25Q366-25 278.50-3.50Q191 18 117 61L117 305Q175 274 239.50 249.50Q304 225 364.50 211Q425 197 471 197Q549 197 579.50 223.50Q610 250 610 293Q610 321 597.50 343Q585 365 548.50 389Q512 413 440 444Q342 488 266.50 534.50Q191 581 148.50 645Q106 709 106 803M397 834Q397 800 415 772.50Q433 745 471 718Q509 691 569 659L596 645Q610 661 623.50 686.50Q637 712 637 752Q637 788 620.50 818.50Q604 849 564.50 878Q525 907 455 936Q433 924 415 899Q397 874 397 834Z"  horiz-adv-x="1024" vert-adv-y="2048"  />

      
      <glyph glyph-name="unia8" unicode="&#xa8;" d="M223 1413Q223 1495 272 1533Q321 1571 393 1571Q462 1571 513.50 1533Q565 1495 565 1413Q565 1334 513.50 1295.50Q462 1257 393 1257Q321 1257 272 1295.50Q223 1334 223 1413M702 1413Q702 1495 751.50 1533Q801 1571 874 1571Q944 1571 995.50 1533Q1047 1495 1047 1413Q1047 1334 995.50 1295.50Q944 1257 874 1257Q801 1257 751.50 1295.50Q702 1334 702 1413Z"  horiz-adv-x="1233" vert-adv-y="2048"  />

      
      <glyph glyph-name="unia9" unicode="&#xa9;" d="M844-20Q681-20 543.50 35.50Q406 91 304.50 192Q203 293 147.50 430.50Q92 568 92 731Q92 895 147.50 1032Q203 1169 304.50 1270.50Q406 1372 543.50 1427.50Q681 1483 844 1483Q1008 1483 1145 1427.50Q1282 1372 1383 1270.50Q1484 1169 1539.50 1032Q1595 895 1595 731Q1595 568 1539.50 430.50Q1484 293 1383 192Q1282 91 1145 35.50Q1008-20 844-20M846 262Q625 262 513 391.50Q401 521 401 735Q401 875 449.50 979Q498 1083 595 1140.50Q692 1198 836 1198Q928 1198 1006 1177.50Q1084 1157 1157 1120L1065 915Q1013 943 963 957Q913 971 854 971Q775 971 728.50 909.50Q682 848 682 731Q682 604 725.50 546.50Q769 489 860 489Q925 489 991 505.50Q1057 522 1118 557L1118 326Q1055 294 990.50 278Q926 262 846 262M844 143Q969 143 1073 186Q1177 229 1252.50 307.50Q1328 386 1369.50 493.50Q1411 601 1411 731Q1411 861 1369.50 968.50Q1328 1076 1252.50 1154.50Q1177 1233 1073 1276Q969 1319 844 1319Q717 1319 612 1276Q507 1233 431 1154.50Q355 1076 313.50 968.50Q272 861 272 731Q272 601 313.50 493.50Q355 386 431 307.50Q507 229 612 186Q717 143 844 143Z"  horiz-adv-x="1688" vert-adv-y="2048"  />

      
      <glyph glyph-name="uniaa" unicode="&#xaa;" d="M436 1479Q568 1479 650.50 1406.50Q733 1334 733 1190L733 741L571 741L526 868Q482 799 427.50 764Q373 729 283 729Q218 729 164.50 755Q111 781 80 833.50Q49 886 49 967Q49 1054 89 1103.50Q129 1153 206 1175Q283 1197 393 1202L481 1206L481 1212Q481 1253 455 1270.50Q429 1288 379 1288Q325 1288 279 1275Q233 1262 168 1233L92 1399Q168 1436 241.50 1457.50Q315 1479 436 1479M481 1069L397 1063Q336 1059 318.50 1033.50Q301 1008 301 979Q301 947 319 929Q337 911 371 911Q426 911 453.50 953Q481 995 481 1047L481 1069Z"  horiz-adv-x="813" vert-adv-y="2048"  />

      
      <glyph glyph-name="uniab" unicode="&#xab;" d="M74 588L463 1071L743 922L471 575L743 227L463 80L74 561L74 588M649 588L1036 1071L1319 922L1044 575L1319 227L1036 80L649 561L649 588Z"  horiz-adv-x="1395" vert-adv-y="2048"  />

      
      <glyph glyph-name="uniac" unicode="&#xac;" d="M1106 856L1106 238L836 238L836 588L92 588L92 856L1106 856Z"  horiz-adv-x="1200" vert-adv-y="2048"  />

      
      <glyph glyph-name="uniad" unicode="&#xad;" d="M43 393L43 705L608 705L608 393L43 393Z"  horiz-adv-x="651" vert-adv-y="2048"  />

      
      <glyph glyph-name="uniae" unicode="&#xae;" d="M518 313L518 1188L797 1188Q1010 1188 1101 1117.50Q1192 1047 1192 918Q1192 813 1151 758.50Q1110 704 1051 676L1245 313L967 313L821 633L786 633L786 313L518 313M786 809L797 809Q855 809 888.50 830.50Q922 852 922 907Q922 961 888.50 977Q855 993 799 993L786 993L786 809M844-20Q681-20 543.50 35.50Q406 91 304.50 192Q203 293 147.50 430.50Q92 568 92 731Q92 895 147.50 1032Q203 1169 304.50 1270.50Q406 1372 543.50 1427.50Q681 1483 844 1483Q1008 1483 1145 1427.50Q1282 1372 1383 1270.50Q1484 1169 1539.50 1032Q1595 895 1595 731Q1595 568 1539.50 430.50Q1484 293 1383 192Q1282 91 1145 35.50Q1008-20 844-20M844 143Q969 143 1073 186Q1177 229 1252.50 307.50Q1328 386 1369.50 493.50Q1411 601 1411 731Q1411 861 1369.50 968.50Q1328 1076 1252.50 1154.50Q1177 1233 1073 1276Q969 1319 844 1319Q717 1319 612 1276Q507 1233 431 1154.50Q355 1076 313.50 968.50Q272 861 272 731Q272 601 313.50 493.50Q355 386 431 307.50Q507 229 612 186Q717 143 844 143Z"  horiz-adv-x="1688" vert-adv-y="2048"  />

      
      <glyph glyph-name="uniaf" unicode="&#xaf;" d="M1030 1556L-6 1556L-6 1802L1030 1802L1030 1556Z"  horiz-adv-x="1024" vert-adv-y="2048"  />

      
      <glyph glyph-name="unib0" unicode="&#xb0;" d="M432 750Q325 750 241.50 796Q158 842 110.50 924Q63 1006 63 1114Q63 1221 110.50 1304Q158 1387 241.50 1435Q325 1483 432 1483Q540 1483 623 1435Q706 1387 753.50 1304Q801 1221 801 1114Q801 1006 753.50 924Q706 842 623 796Q540 750 432 750M432 987Q492 987 527.50 1022Q563 1057 563 1114Q563 1174 527.50 1210.50Q492 1247 432 1247Q372 1247 336.50 1210.50Q301 1174 301 1114Q301 1057 336.50 1022Q372 987 432 987Z"  horiz-adv-x="864" vert-adv-y="2048"  />

      
      <glyph glyph-name="unib1" unicode="&#xb1;" d="M92 0L92 268L1106 268L1106 0L92 0M733 944L1106 944L1106 676L733 676L733 315L465 315L465 676L92 676L92 944L465 944L465 1311L733 1311L733 944Z"  horiz-adv-x="1200" vert-adv-y="2048"  />

      
      <glyph glyph-name="unib2" unicode="&#xb2;" d="M750 852L76 852L76 1059L291 1272Q349 1329 381 1367.50Q413 1406 426.50 1433Q440 1460 440 1481Q440 1509 423 1523.50Q406 1538 375 1538Q341 1538 300.50 1521Q260 1504 203 1450L61 1616Q129 1678 214 1714.50Q299 1751 432 1751Q580 1751 654.50 1685.50Q729 1620 729 1513Q729 1434 692 1369Q655 1304 596 1247Q537 1190 469 1133L403 1077L750 1077L750 852Z"  horiz-adv-x="817" vert-adv-y="2048"  />

      
      <glyph glyph-name="unib3" unicode="&#xb3;" d="M406 1747Q558 1747 641.50 1688Q725 1629 725 1532Q725 1456 688 1400.50Q651 1345 563 1313L563 1305Q660 1280 707 1228Q754 1176 754 1090Q754 967 654 901.50Q554 836 379 836Q290 836 211 853Q132 870 70 905L70 1139Q135 1094 211 1075.50Q287 1057 367 1057Q419 1057 451 1072Q483 1087 483 1124Q483 1152 461 1174Q439 1196 348 1196L244 1196L244 1391L324 1391Q408 1391 435.50 1413.50Q463 1436 463 1468Q463 1493 442 1514.50Q421 1536 371 1536Q322 1536 277.50 1519.50Q233 1503 180 1462L63 1632Q125 1680 211 1713.50Q297 1747 406 1747Z"  horiz-adv-x="817" vert-adv-y="2048"  />

      
      <glyph glyph-name="unib4" unicode="&#xb4;" d="M774 1569L774 1548Q738 1519 682 1477.50Q626 1436 563.50 1391.50Q501 1347 442.50 1307Q384 1267 342 1241L82 1241L82 1270Q117 1308 166 1360.50Q215 1413 264 1468Q313 1523 346 1569L774 1569Z"  horiz-adv-x="856" vert-adv-y="2048"  />

      
      <glyph glyph-name="unib5" unicode="&#xb5;" d="M1241 1133L1241 0L948 0L895 152L879 152Q857 94 823.50 55.50Q790 17 750-1.50Q710-20 666-20Q611-20 578.50 0Q546 20 518 63L514 63Q517 35 520-6Q523-47 524.50-90.50Q526-134 526-172L526-492L135-492L135 1133L526 1133L526 518Q526 403 559.50 346Q593 289 672 289Q739 289 777 329Q815 369 831.50 447Q848 525 848 637L848 1133L1241 1133Z"  horiz-adv-x="1376" vert-adv-y="2048"  />

      
      <glyph glyph-name="unib6" unicode="&#xb6;" d="M1186-260L995-260L995 1327L838 1327L838-260L647-260L647 559Q616 550 591 545.50Q566 541 522 541Q395 541 300.50 588.50Q206 636 154 745.50Q102 855 102 1042Q102 1238 159 1350Q216 1462 317.50 1509Q419 1556 553 1556L1186 1556L1186-260Z"  horiz-adv-x="1317" vert-adv-y="2048"  />

      
      <glyph glyph-name="unib7" unicode="&#xb7;" d="M86 723Q86 829 148.50 872Q211 915 299 915Q382 915 443 872Q504 829 504 723Q504 622 443 577Q382 532 299 532Q211 532 148.50 577Q86 622 86 723Z"  horiz-adv-x="592" vert-adv-y="2048"  />

      
      <glyph glyph-name="unib8" unicode="&#xb8;" d="M541-252Q541-361 466-426.50Q391-492 266-492Q196-492 139-481Q82-470 45-457L45-264Q79-275 111.50-281Q144-287 178-287Q216-287 238-271Q260-255 260-229Q260-194 226.50-173.50Q193-153 115-139L176 0L371 0L352-61Q393-70 437-90Q481-110 511-148Q541-186 541-252Z"  horiz-adv-x="590" vert-adv-y="2048"  />

      
      <glyph glyph-name="unib9" unicode="&#xb9;" d="M616 1729L616 852L334 852L334 1208Q334 1230 335.50 1276.50Q337 1323 339.50 1367Q342 1411 344 1425Q335 1407 316.50 1387.50Q298 1368 283 1354L203 1284L57 1454L397 1729L616 1729Z"  horiz-adv-x="817" vert-adv-y="2048"  />

      
      <glyph glyph-name="uniba" unicode="&#xba;" d="M756 1104Q756 926 659 827.50Q562 729 399 729Q246 729 147.50 829Q49 929 49 1104Q49 1283 144 1381Q239 1479 403 1479Q503 1479 582.50 1434Q662 1389 709 1305.50Q756 1222 756 1104M301 1104Q301 1018 325 975Q349 932 401 932Q452 932 476 975Q500 1018 500 1104Q500 1190 476 1234Q452 1278 401 1278Q349 1278 325 1234Q301 1190 301 1104Z"  horiz-adv-x="803" vert-adv-y="2048"  />

      
      <glyph glyph-name="unibb" unicode="&#xbb;" d="M1321 561L934 80L649 227L924 575L649 922L934 1071L1321 588L1321 561M745 561L358 80L76 227L348 575L76 922L358 1071L745 588L745 561Z"  horiz-adv-x="1395" vert-adv-y="2048"  />

      
      <glyph glyph-name="unibc" unicode="&#xbc;" d="M356 0L1110 1462L1411 1462L657 0L356 0M264 586L264 942Q264 962 265 999Q266 1036 268 1079Q270 1122 274 1159Q270 1150 253.50 1131Q237 1112 217 1092L133 1018L-12 1188L328 1462L547 1462L547 586L264 586M1399 0L1399 139L1028 139L1028 328L1378 883L1673 883L1673 340L1798 340L1798 139L1673 139L1673 0L1399 0M1241 340L1399 340L1399 506Q1399 541 1400.50 575Q1402 609 1405 641Q1385 590 1369.50 557.50Q1354 525 1343 508L1241 340Z"  horiz-adv-x="1817" vert-adv-y="2048"  />

      
      <glyph glyph-name="unibd" unicode="&#xbd;" d="M381 0L1135 1462L1436 1462L682 0L381 0M264 586L264 942Q264 951 265 983.50Q266 1016 268 1055.50Q270 1095 271.50 1125Q273 1155 274 1159Q270 1150 250.50 1128Q231 1106 211 1087L133 1018L-12 1188L328 1462L547 1462L547 586L264 586M1155 0L1155 207L1370 420Q1427 476 1459.50 514Q1492 552 1506 579Q1520 606 1520 629Q1520 658 1503 672Q1486 686 1454 686Q1414 686 1371 664Q1328 642 1282 598L1141 764Q1221 838 1308 868.50Q1395 899 1511 899Q1653 899 1730.50 836.50Q1808 774 1808 662Q1808 608 1790.50 561Q1773 514 1743.50 474Q1714 434 1679 399L1483 225L1829 225L1829 0L1155 0Z"  horiz-adv-x="1896" vert-adv-y="2048"  />

      
      <glyph glyph-name="unibe" unicode="&#xbe;" d="M465 0L1219 1462L1520 1462L766 0L465 0M399 569Q307 569 230 586.50Q153 604 90 639L90 872Q149 831 222.50 811Q296 791 387 791Q446 791 475 807.50Q504 824 504 858Q504 899 471 914.50Q438 930 369 930L264 930L264 1124L344 1124Q416 1124 449.50 1142.50Q483 1161 483 1202Q483 1227 462.50 1248.50Q442 1270 391 1270Q342 1270 298 1253.50Q254 1237 201 1196L84 1366Q159 1423 244 1452Q329 1481 426 1481Q574 1481 659.50 1423.50Q745 1366 745 1266Q745 1187 708 1133Q671 1079 584 1047L584 1038Q681 1014 727.50 961.50Q774 909 774 823Q774 702 676 635.50Q578 569 399 569M1470 0L1470 139L1100 139L1100 328L1450 883L1745 883L1745 340L1870 340L1870 139L1745 139L1745 0L1470 0M1313 340L1470 340L1470 506Q1470 541 1472 575Q1474 609 1477 641Q1457 590 1441.50 557.50Q1426 525 1415 508L1313 340Z"  horiz-adv-x="1888" vert-adv-y="2048"  />

      
      <glyph glyph-name="unibf" unicode="&#xbf;" d="M739 612L739 526Q739 465 723.50 414.50Q708 364 668.50 319Q629 274 557 229Q490 186 457.50 154.50Q425 123 415 97Q405 71 405 43Q405 1 443-23.50Q481-48 542-48Q618-48 706.50-20.50Q795 7 895 59L1034-213Q922-277 793.50-316Q665-355 514-355Q287-355 162-254.50Q37-154 37 10Q37 89 61 154Q85 219 137 276Q189 333 274 387Q335 426 369 452.50Q403 479 417.50 504Q432 529 432 561L432 612L739 612M782 962Q782 856 720.50 813Q659 770 571 770Q487 770 425.50 813Q364 856 364 962Q364 1063 425.50 1108Q487 1153 571 1153Q659 1153 720.50 1108Q782 1063 782 962Z"  horiz-adv-x="1034" vert-adv-y="2048"  />

      
      <glyph glyph-name="unic0" unicode="&#xc0;" d="M1055 0L983 274L508 274L434 0L0 0L477 1468L1004 1468L1487 0L1055 0M901 598L838 838Q828 877 809 949.50Q790 1022 771.50 1099.50Q753 1177 743 1227Q734 1177 717.50 1103.50Q701 1030 683.50 958Q666 886 653 838L590 598L901 598M741 1899Q776 1853 824.50 1798Q873 1743 921.50 1690.50Q970 1638 1003 1600L1003 1571L743 1571Q701 1597 643 1637Q585 1677 522 1721.50Q459 1766 403.50 1807.50Q348 1849 311 1878L311 1899L741 1899Z"  horiz-adv-x="1487" vert-adv-y="2048"  />

      
      <glyph glyph-name="unic1" unicode="&#xc1;" d="M1055 0L983 274L508 274L434 0L0 0L477 1468L1004 1468L1487 0L1055 0M901 598L838 838Q828 877 809 949.50Q790 1022 771.50 1099.50Q753 1177 743 1227Q734 1177 717.50 1103.50Q701 1030 683.50 958Q666 886 653 838L590 598L901 598M1231 1899L1231 1878Q1195 1849 1139 1807.50Q1083 1766 1020.50 1721.50Q958 1677 899.50 1637Q841 1597 799 1571L539 1571L539 1600Q574 1638 623 1690.50Q672 1743 721 1798Q770 1853 803 1899L1231 1899Z"  horiz-adv-x="1487" vert-adv-y="2048"  />

      
      <glyph glyph-name="unic2" unicode="&#xc2;" d="M1055 0L983 274L508 274L434 0L0 0L477 1468L1004 1468L1487 0L1055 0M901 598L838 838Q828 877 809 949.50Q790 1022 771.50 1099.50Q753 1177 743 1227Q734 1177 717.50 1103.50Q701 1030 683.50 958Q666 886 653 838L590 598L901 598M944 1899Q976 1852 1023 1795.50Q1070 1739 1118 1687Q1166 1635 1200 1600L1200 1571L946 1571Q893 1602 846 1638.50Q799 1675 746 1721Q692 1675 648.50 1640Q605 1605 551 1571L293 1571L293 1600Q332 1637 380.50 1689Q429 1741 475 1796.50Q521 1852 551 1899L944 1899Z"  horiz-adv-x="1487" vert-adv-y="2048"  />

      
      <glyph glyph-name="unic3" unicode="&#xc3;" d="M1055 0L983 274L508 274L434 0L0 0L477 1468L1004 1468L1487 0L1055 0M901 598L838 838Q828 877 809 949.50Q790 1022 771.50 1099.50Q753 1177 743 1227Q734 1177 717.50 1103.50Q701 1030 683.50 958Q666 886 653 838L590 598L901 598M320 1567Q326 1661 345.50 1726Q365 1791 396.50 1831.50Q428 1872 472.50 1890.50Q517 1909 572 1909Q610 1909 653 1894.50Q696 1880 740 1861Q784 1842 826.50 1827.50Q869 1813 908 1813Q926 1813 947.50 1830Q969 1847 979 1911L1162 1911Q1149 1727 1081.50 1648Q1014 1569 916 1569Q871 1569 825.50 1583.50Q780 1598 736 1617Q692 1636 651 1650.50Q610 1665 572 1665Q553 1665 533 1649Q513 1633 500 1567L320 1567Z"  horiz-adv-x="1487" vert-adv-y="2048"  />

      
      <glyph glyph-name="unic4" unicode="&#xc4;" d="M1055 0L983 274L508 274L434 0L0 0L477 1468L1004 1468L1487 0L1055 0M901 598L838 838Q828 877 809 949.50Q790 1022 771.50 1099.50Q753 1177 743 1227Q734 1177 717.50 1103.50Q701 1030 683.50 958Q666 886 653 838L590 598L901 598M332 1743Q332 1825 381 1863Q430 1901 502 1901Q571 1901 622.50 1863Q674 1825 674 1743Q674 1664 622.50 1625.50Q571 1587 502 1587Q430 1587 381 1625.50Q332 1664 332 1743M811 1743Q811 1825 860.50 1863Q910 1901 983 1901Q1053 1901 1104.50 1863Q1156 1825 1156 1743Q1156 1664 1104.50 1625.50Q1053 1587 983 1587Q910 1587 860.50 1625.50Q811 1664 811 1743Z"  horiz-adv-x="1487" vert-adv-y="2048"  />

      
      <glyph glyph-name="unic5" unicode="&#xc5;" d="M1055 0L983 274L508 274L434 0L0 0L477 1468L1004 1468L1487 0L1055 0M901 598L838 838Q828 877 809 949.50Q790 1022 771.50 1099.50Q753 1177 743 1227Q734 1177 717.50 1103.50Q701 1030 683.50 958Q666 886 653 838L590 598L901 598M737 1303Q619 1303 546 1370.50Q473 1438 473 1555Q473 1674 546 1741.50Q619 1809 737 1809Q850 1809 929.50 1741.50Q1009 1674 1009 1557Q1009 1439 930 1371Q851 1303 737 1303M737 1471Q772 1471 796.50 1494.50Q821 1518 821 1555Q821 1593 796.50 1616Q772 1639 737 1639Q702 1639 677.50 1616Q653 1593 653 1555Q653 1518 674.50 1494.50Q696 1471 737 1471Z"  horiz-adv-x="1487" vert-adv-y="2048"  />

      
      <glyph glyph-name="unic6" unicode="&#xc6;" d="M1839 0L969 0L969 274L532 274L432 0L-10 0L618 1462L1839 1462L1839 1145L1366 1145L1366 915L1804 915L1804 598L1366 598L1366 322L1839 322L1839 0M653 602L969 602L969 1128L858 1128L653 602Z"  horiz-adv-x="1937" vert-adv-y="2048"  />

      
      <glyph glyph-name="unic7" unicode="&#xc7;" d="M809 1159Q739 1159 684 1129.50Q629 1100 590 1044Q551 988 530.50 907.50Q510 827 510 725Q510 587 545 493Q580 399 651.50 351Q723 303 831 303Q929 303 1019.50 330Q1110 357 1202 395L1202 61Q1105 18 1003.50-1Q902-20 788-20Q550-20 398.50 74.50Q247 169 175.50 337Q104 505 104 727Q104 893 150.50 1031Q197 1169 287 1270.50Q377 1372 509.50 1427.50Q642 1483 813 1483Q919 1483 1036.50 1458.50Q1154 1434 1266 1380L1145 1069Q1065 1107 983 1133Q901 1159 809 1159M1012-252Q1012-361 937-426.50Q862-492 737-492Q667-492 610-481Q553-470 516-457L516-264Q550-275 582.50-281Q615-287 649-287Q687-287 709-271Q731-255 731-229Q731-194 697.50-173.50Q664-153 586-139L647 0L842 0L823-61Q864-70 908-90Q952-110 982-148Q1012-186 1012-252Z"  horiz-adv-x="1329" vert-adv-y="2048"  />

      
      <glyph glyph-name="unic8" unicode="&#xc8;" d="M1026 0L158 0L158 1462L1026 1462L1026 1145L553 1145L553 915L991 915L991 598L553 598L553 322L1026 322L1026 0M590 1899Q625 1853 673.50 1798Q722 1743 770.50 1690.50Q819 1638 852 1600L852 1571L592 1571Q550 1597 492 1637Q434 1677 371 1721.50Q308 1766 252.50 1807.50Q197 1849 160 1878L160 1899L590 1899Z"  horiz-adv-x="1124" vert-adv-y="2048"  />

      
      <glyph glyph-name="unic9" unicode="&#xc9;" d="M1026 0L158 0L158 1462L1026 1462L1026 1145L553 1145L553 915L991 915L991 598L553 598L553 322L1026 322L1026 0M1079 1899L1079 1878Q1043 1849 987 1807.50Q931 1766 868.50 1721.50Q806 1677 747.50 1637Q689 1597 647 1571L387 1571L387 1600Q422 1638 471 1690.50Q520 1743 569 1798Q618 1853 651 1899L1079 1899Z"  horiz-adv-x="1124" vert-adv-y="2048"  />

      
      <glyph glyph-name="unica" unicode="&#xca;" d="M1026 0L158 0L158 1462L1026 1462L1026 1145L553 1145L553 915L991 915L991 598L553 598L553 322L1026 322L1026 0M792 1899Q824 1852 871 1795.50Q918 1739 966 1687Q1014 1635 1048 1600L1048 1571L794 1571Q741 1602 694 1638.50Q647 1675 594 1721Q540 1675 496.50 1640Q453 1605 399 1571L141 1571L141 1600Q180 1637 228.50 1689Q277 1741 323 1796.50Q369 1852 399 1899L792 1899Z"  horiz-adv-x="1124" vert-adv-y="2048"  />

      
      <glyph glyph-name="unicb" unicode="&#xcb;" d="M1026 0L158 0L158 1462L1026 1462L1026 1145L553 1145L553 915L991 915L991 598L553 598L553 322L1026 322L1026 0M180 1743Q180 1825 229 1863Q278 1901 350 1901Q419 1901 470.50 1863Q522 1825 522 1743Q522 1664 470.50 1625.50Q419 1587 350 1587Q278 1587 229 1625.50Q180 1664 180 1743M659 1743Q659 1825 708.50 1863Q758 1901 831 1901Q901 1901 952.50 1863Q1004 1825 1004 1743Q1004 1664 952.50 1625.50Q901 1587 831 1587Q758 1587 708.50 1625.50Q659 1664 659 1743Z"  horiz-adv-x="1124" vert-adv-y="2048"  />

      
      <glyph glyph-name="unicc" unicode="&#xcc;" d="M158 0L158 1462L555 1462L555 0L158 0M317 1899Q352 1853 400.50 1798Q449 1743 497.50 1690.50Q546 1638 579 1600L579 1571L319 1571Q277 1597 219 1637Q161 1677 98 1721.50Q35 1766-20.50 1807.50Q-76 1849-113 1878L-113 1899L317 1899Z"  horiz-adv-x="713" vert-adv-y="2048"  />

      
      <glyph glyph-name="unicd" unicode="&#xcd;" d="M158 0L158 1462L555 1462L555 0L158 0M845 1899L845 1878Q809 1849 753 1807.50Q697 1766 634.50 1721.50Q572 1677 513.50 1637Q455 1597 413 1571L153 1571L153 1600Q188 1638 237 1690.50Q286 1743 335 1798Q384 1853 417 1899L845 1899Z"  horiz-adv-x="713" vert-adv-y="2048"  />

      
      <glyph glyph-name="unice" unicode="&#xce;" d="M158 0L158 1462L555 1462L555 0L158 0M555 1899Q587 1852 634 1795.50Q681 1739 729 1687Q777 1635 811 1600L811 1571L557 1571Q504 1602 457 1638.50Q410 1675 357 1721Q303 1675 259.50 1640Q216 1605 162 1571L-96 1571L-96 1600Q-57 1637-8.50 1689Q40 1741 86 1796.50Q132 1852 162 1899L555 1899Z"  horiz-adv-x="713" vert-adv-y="2048"  />

      
      <glyph glyph-name="unicf" unicode="&#xcf;" d="M158 0L158 1462L555 1462L555 0L158 0M-56 1743Q-56 1825-7 1863Q42 1901 114 1901Q183 1901 234.50 1863Q286 1825 286 1743Q286 1664 234.50 1625.50Q183 1587 114 1587Q42 1587-7 1625.50Q-56 1664-56 1743M423 1743Q423 1825 472.50 1863Q522 1901 595 1901Q665 1901 716.50 1863Q768 1825 768 1743Q768 1664 716.50 1625.50Q665 1587 595 1587Q522 1587 472.50 1625.50Q423 1664 423 1743Z"  horiz-adv-x="713" vert-adv-y="2048"  />

      
      <glyph glyph-name="unid0" unicode="&#xd0;" d="M664 1462Q900 1462 1064 1381Q1228 1300 1313.50 1144Q1399 988 1399 762Q1399 507 1304 338Q1209 169 1036.50 84.50Q864 0 631 0L158 0L158 563L31 563L31 883L158 883L158 1462L664 1462M668 1143L553 1143L553 883L764 883L764 563L553 563L553 324L641 324Q821 324 905 428.50Q989 533 989 748Q989 881 953.50 968.50Q918 1056 847 1099.50Q776 1143 668 1143Z"  horiz-adv-x="1503" vert-adv-y="2048"  />

      
      <glyph glyph-name="unid1" unicode="&#xd1;" d="M1550 0L1032 0L498 1030L489 1030Q494 983 498 917Q502 851 505 782.50Q508 714 508 659L508 0L158 0L158 1462L674 1462L1206 446L1212 446Q1209 494 1206 557.50Q1203 621 1200.50 686Q1198 751 1198 801L1198 1462L1550 1462L1550 0M430 1567Q436 1661 455.50 1726Q475 1791 506.50 1831.50Q538 1872 582.50 1890.50Q627 1909 682 1909Q720 1909 763 1894.50Q806 1880 850 1861Q894 1842 936.50 1827.50Q979 1813 1018 1813Q1036 1813 1057.50 1830Q1079 1847 1089 1911L1272 1911Q1259 1727 1191.50 1648Q1124 1569 1026 1569Q981 1569 935.50 1583.50Q890 1598 846 1617Q802 1636 761 1650.50Q720 1665 682 1665Q663 1665 643 1649Q623 1633 610 1567L430 1567Z"  horiz-adv-x="1708" vert-adv-y="2048"  />

      
      <glyph glyph-name="unid2" unicode="&#xd2;" d="M1526 733Q1526 564 1485.50 425.50Q1445 287 1359 187Q1273 87 1138 33.50Q1003-20 815-20Q631-20 496.50 33.50Q362 87 275 186.50Q188 286 146 425Q104 564 104 735Q104 963 179.50 1131.50Q255 1300 413 1392.50Q571 1485 817 1485Q1067 1485 1223.50 1392Q1380 1299 1453 1130Q1526 961 1526 733M520 733Q520 601 550 506Q580 411 645 360Q710 309 815 309Q924 309 988.50 360Q1053 411 1081.50 506Q1110 601 1110 733Q1110 931 1044 1046Q978 1161 817 1161Q710 1161 644.50 1109Q579 1057 549.50 961Q520 865 520 733M815 1899Q850 1853 898.50 1798Q947 1743 995.50 1690.50Q1044 1638 1077 1600L1077 1571L817 1571Q775 1597 717 1637Q659 1677 596 1721.50Q533 1766 477.50 1807.50Q422 1849 385 1878L385 1899L815 1899Z"  horiz-adv-x="1632" vert-adv-y="2048"  />

      
      <glyph glyph-name="unid3" unicode="&#xd3;" d="M1526 733Q1526 564 1485.50 425.50Q1445 287 1359 187Q1273 87 1138 33.50Q1003-20 815-20Q631-20 496.50 33.50Q362 87 275 186.50Q188 286 146 425Q104 564 104 735Q104 963 179.50 1131.50Q255 1300 413 1392.50Q571 1485 817 1485Q1067 1485 1223.50 1392Q1380 1299 1453 1130Q1526 961 1526 733M520 733Q520 601 550 506Q580 411 645 360Q710 309 815 309Q924 309 988.50 360Q1053 411 1081.50 506Q1110 601 1110 733Q1110 931 1044 1046Q978 1161 817 1161Q710 1161 644.50 1109Q579 1057 549.50 961Q520 865 520 733M1304 1899L1304 1878Q1268 1849 1212 1807.50Q1156 1766 1093.50 1721.50Q1031 1677 972.50 1637Q914 1597 872 1571L612 1571L612 1600Q647 1638 696 1690.50Q745 1743 794 1798Q843 1853 876 1899L1304 1899Z"  horiz-adv-x="1632" vert-adv-y="2048"  />

      
      <glyph glyph-name="unid4" unicode="&#xd4;" d="M1526 733Q1526 564 1485.50 425.50Q1445 287 1359 187Q1273 87 1138 33.50Q1003-20 815-20Q631-20 496.50 33.50Q362 87 275 186.50Q188 286 146 425Q104 564 104 735Q104 963 179.50 1131.50Q255 1300 413 1392.50Q571 1485 817 1485Q1067 1485 1223.50 1392Q1380 1299 1453 1130Q1526 961 1526 733M520 733Q520 601 550 506Q580 411 645 360Q710 309 815 309Q924 309 988.50 360Q1053 411 1081.50 506Q1110 601 1110 733Q1110 931 1044 1046Q978 1161 817 1161Q710 1161 644.50 1109Q579 1057 549.50 961Q520 865 520 733M1018 1899Q1050 1852 1097 1795.50Q1144 1739 1192 1687Q1240 1635 1274 1600L1274 1571L1020 1571Q967 1602 920 1638.50Q873 1675 820 1721Q766 1675 722.50 1640Q679 1605 625 1571L367 1571L367 1600Q406 1637 454.50 1689Q503 1741 549 1796.50Q595 1852 625 1899L1018 1899Z"  horiz-adv-x="1632" vert-adv-y="2048"  />

      
      <glyph glyph-name="unid5" unicode="&#xd5;" d="M1526 733Q1526 564 1485.50 425.50Q1445 287 1359 187Q1273 87 1138 33.50Q1003-20 815-20Q631-20 496.50 33.50Q362 87 275 186.50Q188 286 146 425Q104 564 104 735Q104 963 179.50 1131.50Q255 1300 413 1392.50Q571 1485 817 1485Q1067 1485 1223.50 1392Q1380 1299 1453 1130Q1526 961 1526 733M520 733Q520 601 550 506Q580 411 645 360Q710 309 815 309Q924 309 988.50 360Q1053 411 1081.50 506Q1110 601 1110 733Q1110 931 1044 1046Q978 1161 817 1161Q710 1161 644.50 1109Q579 1057 549.50 961Q520 865 520 733M393 1567Q399 1661 418.50 1726Q438 1791 469.50 1831.50Q501 1872 545.50 1890.50Q590 1909 645 1909Q683 1909 726 1894.50Q769 1880 813 1861Q857 1842 899.50 1827.50Q942 1813 981 1813Q999 1813 1020.50 1830Q1042 1847 1052 1911L1235 1911Q1222 1727 1154.50 1648Q1087 1569 989 1569Q944 1569 898.50 1583.50Q853 1598 809 1617Q765 1636 724 1650.50Q683 1665 645 1665Q626 1665 606 1649Q586 1633 573 1567L393 1567Z"  horiz-adv-x="1632" vert-adv-y="2048"  />

      
      <glyph glyph-name="unid6" unicode="&#xd6;" d="M1526 733Q1526 564 1485.50 425.50Q1445 287 1359 187Q1273 87 1138 33.50Q1003-20 815-20Q631-20 496.50 33.50Q362 87 275 186.50Q188 286 146 425Q104 564 104 735Q104 963 179.50 1131.50Q255 1300 413 1392.50Q571 1485 817 1485Q1067 1485 1223.50 1392Q1380 1299 1453 1130Q1526 961 1526 733M520 733Q520 601 550 506Q580 411 645 360Q710 309 815 309Q924 309 988.50 360Q1053 411 1081.50 506Q1110 601 1110 733Q1110 931 1044 1046Q978 1161 817 1161Q710 1161 644.50 1109Q579 1057 549.50 961Q520 865 520 733M405 1743Q405 1825 454 1863Q503 1901 575 1901Q644 1901 695.50 1863Q747 1825 747 1743Q747 1664 695.50 1625.50Q644 1587 575 1587Q503 1587 454 1625.50Q405 1664 405 1743M884 1743Q884 1825 933.50 1863Q983 1901 1056 1901Q1126 1901 1177.50 1863Q1229 1825 1229 1743Q1229 1664 1177.50 1625.50Q1126 1587 1056 1587Q983 1587 933.50 1625.50Q884 1664 884 1743Z"  horiz-adv-x="1632" vert-adv-y="2048"  />

      
      <glyph glyph-name="unid7" unicode="&#xd7;" d="M868 1180L1057 997L782 723L1053 451L868 266L594 537L324 268L143 455L408 723L141 991L324 1180L594 913L868 1180Z"  horiz-adv-x="1200" vert-adv-y="2048"  />

      
      <glyph glyph-name="unid8" unicode="&#xd8;" d="M1526 733Q1526 564 1485.50 425.50Q1445 287 1359 187Q1273 87 1138 33.50Q1003-20 815-20Q727-20 650.50-9.50Q574 1 508 23L424-109L231 16L315 141Q206 241 155 392Q104 543 104 735Q104 963 179.50 1131.50Q255 1300 413 1392.50Q571 1485 817 1485Q914 1485 997 1471Q1080 1457 1147 1430L1223 1548L1413 1434L1331 1309Q1432 1211 1479 1063.50Q1526 916 1526 733M1110 733Q1110 795 1105.50 848Q1101 901 1092 944L698 324Q723 317 753 313Q783 309 815 309Q924 309 988.50 360Q1053 411 1081.50 506Q1110 601 1110 733M520 733Q520 664 526 603.50Q532 543 549 494L952 1133Q923 1145 888.50 1153Q854 1161 817 1161Q710 1161 644.50 1109Q579 1057 549.50 961Q520 865 520 733Z"  horiz-adv-x="1632" vert-adv-y="2048"  />

      
      <glyph glyph-name="unid9" unicode="&#xd9;" d="M1401 1462L1401 582Q1401 398 1331 262.50Q1261 127 1121 53.50Q981-20 770-20Q468-20 309 135Q150 290 150 573L150 1462L547 1462L547 604Q547 449 605 379Q663 309 776 309Q857 309 908 339.50Q959 370 982.50 436Q1006 502 1006 606L1006 1462L1401 1462M774 1899Q809 1853 857.50 1798Q906 1743 954.50 1690.50Q1003 1638 1036 1600L1036 1571L776 1571Q734 1597 676 1637Q618 1677 555 1721.50Q492 1766 436.50 1807.50Q381 1849 344 1878L344 1899L774 1899Z"  horiz-adv-x="1550" vert-adv-y="2048"  />

      
      <glyph glyph-name="unida" unicode="&#xda;" d="M1401 1462L1401 582Q1401 398 1331 262.50Q1261 127 1121 53.50Q981-20 770-20Q468-20 309 135Q150 290 150 573L150 1462L547 1462L547 604Q547 449 605 379Q663 309 776 309Q857 309 908 339.50Q959 370 982.50 436Q1006 502 1006 606L1006 1462L1401 1462M1263 1899L1263 1878Q1227 1849 1171 1807.50Q1115 1766 1052.50 1721.50Q990 1677 931.50 1637Q873 1597 831 1571L571 1571L571 1600Q606 1638 655 1690.50Q704 1743 753 1798Q802 1853 835 1899L1263 1899Z"  horiz-adv-x="1550" vert-adv-y="2048"  />

      
      <glyph glyph-name="unidb" unicode="&#xdb;" d="M1401 1462L1401 582Q1401 398 1331 262.50Q1261 127 1121 53.50Q981-20 770-20Q468-20 309 135Q150 290 150 573L150 1462L547 1462L547 604Q547 449 605 379Q663 309 776 309Q857 309 908 339.50Q959 370 982.50 436Q1006 502 1006 606L1006 1462L1401 1462M977 1899Q1009 1852 1056 1795.50Q1103 1739 1151 1687Q1199 1635 1233 1600L1233 1571L979 1571Q926 1602 879 1638.50Q832 1675 779 1721Q725 1675 681.50 1640Q638 1605 584 1571L326 1571L326 1600Q365 1637 413.50 1689Q462 1741 508 1796.50Q554 1852 584 1899L977 1899Z"  horiz-adv-x="1550" vert-adv-y="2048"  />

      
      <glyph glyph-name="unidc" unicode="&#xdc;" d="M1401 1462L1401 582Q1401 398 1331 262.50Q1261 127 1121 53.50Q981-20 770-20Q468-20 309 135Q150 290 150 573L150 1462L547 1462L547 604Q547 449 605 379Q663 309 776 309Q857 309 908 339.50Q959 370 982.50 436Q1006 502 1006 606L1006 1462L1401 1462M364 1743Q364 1825 413 1863Q462 1901 534 1901Q603 1901 654.50 1863Q706 1825 706 1743Q706 1664 654.50 1625.50Q603 1587 534 1587Q462 1587 413 1625.50Q364 1664 364 1743M843 1743Q843 1825 892.50 1863Q942 1901 1015 1901Q1085 1901 1136.50 1863Q1188 1825 1188 1743Q1188 1664 1136.50 1625.50Q1085 1587 1015 1587Q942 1587 892.50 1625.50Q843 1664 843 1743Z"  horiz-adv-x="1550" vert-adv-y="2048"  />

      
      <glyph glyph-name="unidd" unicode="&#xdd;" d="M680 920L932 1462L1360 1462L879 571L879 0L481 0L481 559L0 1462L430 1462L680 920M1167 1899L1167 1878Q1131 1849 1075 1807.50Q1019 1766 956.50 1721.50Q894 1677 835.50 1637Q777 1597 735 1571L475 1571L475 1600Q510 1638 559 1690.50Q608 1743 657 1798Q706 1853 739 1899L1167 1899Z"  horiz-adv-x="1360" vert-adv-y="2048"  />

      
      <glyph glyph-name="unide" unicode="&#xde;" d="M1219 784Q1219 684 1190.50 592Q1162 500 1097.50 428Q1033 356 926.50 314Q820 272 664 272L553 272L553 0L158 0L158 1462L553 1462L553 1249L664 1249Q942 1249 1080.50 1128Q1219 1007 1219 784M553 594L625 594Q676 594 720.50 613.50Q765 633 792 674.50Q819 716 819 782Q819 851 780 890.50Q741 930 655 930L553 930L553 594Z"  horiz-adv-x="1284" vert-adv-y="2048"  />

      
      <glyph glyph-name="unidf" unicode="&#xdf;" d="M1339 1190Q1339 1121 1312 1068Q1285 1015 1245 974Q1205 933 1165 903Q1125 873 1098 850.50Q1071 828 1071 811Q1071 786 1094.50 767Q1118 748 1164.50 723Q1211 698 1278 655Q1346 612 1390 568.50Q1434 525 1455.50 469Q1477 413 1477 334Q1477 219 1425 140Q1373 61 1272.50 20.50Q1172-20 1024-20Q886-20 802-7.50Q718 5 653 39L653 330Q687 310 737 291.50Q787 273 839 261.50Q891 250 932 250Q989 250 1029 272.50Q1069 295 1069 336Q1069 359 1057.50 378Q1046 397 1006.50 423.50Q967 450 883 494Q800 538 751 577.50Q702 617 680.50 660Q659 703 659 756Q659 820 687 864Q715 908 757 941.50Q799 975 840.50 1004.50Q882 1034 910 1068Q938 1102 938 1149Q938 1200 888 1234Q838 1268 748 1268Q672 1268 623 1243.50Q574 1219 550 1172.50Q526 1126 526 1059L526 0L135 0L135 1100Q135 1251 214.50 1355Q294 1459 433 1513Q572 1567 748 1567Q920 1567 1053.50 1525.50Q1187 1484 1263 1400Q1339 1316 1339 1190Z"  horiz-adv-x="1536" vert-adv-y="2048"  />

      
      <glyph glyph-name="unie0" unicode="&#xe0;" d="M688 1153Q903 1153 1024 1046.50Q1145 940 1145 743L1145 0L874 0L799 150L791 150Q743 90 692.50 52.50Q642 15 577-2.50Q512-20 418-20Q320-20 242 20Q164 60 119 141Q74 222 74 346Q74 528 200 616Q326 704 565 715L754 721L754 737Q754 813 716.50 845Q679 877 616 877Q549 877 466.50 853.50Q384 830 301 793L188 1051Q286 1101 410 1127Q534 1153 688 1153M756 506L666 502Q558 498 514.50 464.50Q471 431 471 369Q471 311 502 283.50Q533 256 584 256Q655 256 705.50 301Q756 346 756 418L756 506M637 1569Q672 1523 720.50 1468Q769 1413 817.50 1360.50Q866 1308 899 1270L899 1241L639 1241Q597 1267 539 1307Q481 1347 418 1391.50Q355 1436 299.50 1477.50Q244 1519 207 1548L207 1569L637 1569Z"  horiz-adv-x="1276" vert-adv-y="2048"  />

      
      <glyph glyph-name="unie1" unicode="&#xe1;" d="M688 1153Q903 1153 1024 1046.50Q1145 940 1145 743L1145 0L874 0L799 150L791 150Q743 90 692.50 52.50Q642 15 577-2.50Q512-20 418-20Q320-20 242 20Q164 60 119 141Q74 222 74 346Q74 528 200 616Q326 704 565 715L754 721L754 737Q754 813 716.50 845Q679 877 616 877Q549 877 466.50 853.50Q384 830 301 793L188 1051Q286 1101 410 1127Q534 1153 688 1153M756 506L666 502Q558 498 514.50 464.50Q471 431 471 369Q471 311 502 283.50Q533 256 584 256Q655 256 705.50 301Q756 346 756 418L756 506M1126 1569L1126 1548Q1090 1519 1034 1477.50Q978 1436 915.50 1391.50Q853 1347 794.50 1307Q736 1267 694 1241L434 1241L434 1270Q469 1308 518 1360.50Q567 1413 616 1468Q665 1523 698 1569L1126 1569Z"  horiz-adv-x="1276" vert-adv-y="2048"  />

      
      <glyph glyph-name="unie2" unicode="&#xe2;" d="M688 1153Q903 1153 1024 1046.50Q1145 940 1145 743L1145 0L874 0L799 150L791 150Q743 90 692.50 52.50Q642 15 577-2.50Q512-20 418-20Q320-20 242 20Q164 60 119 141Q74 222 74 346Q74 528 200 616Q326 704 565 715L754 721L754 737Q754 813 716.50 845Q679 877 616 877Q549 877 466.50 853.50Q384 830 301 793L188 1051Q286 1101 410 1127Q534 1153 688 1153M756 506L666 502Q558 498 514.50 464.50Q471 431 471 369Q471 311 502 283.50Q533 256 584 256Q655 256 705.50 301Q756 346 756 418L756 506M839 1569Q871 1522 918 1465.50Q965 1409 1013 1357Q1061 1305 1095 1270L1095 1241L841 1241Q788 1272 741 1308.50Q694 1345 641 1391Q587 1345 543.50 1310Q500 1275 446 1241L188 1241L188 1270Q227 1307 275.50 1359Q324 1411 370 1466.50Q416 1522 446 1569L839 1569Z"  horiz-adv-x="1276" vert-adv-y="2048"  />

      
      <glyph glyph-name="unie3" unicode="&#xe3;" d="M688 1153Q903 1153 1024 1046.50Q1145 940 1145 743L1145 0L874 0L799 150L791 150Q743 90 692.50 52.50Q642 15 577-2.50Q512-20 418-20Q320-20 242 20Q164 60 119 141Q74 222 74 346Q74 528 200 616Q326 704 565 715L754 721L754 737Q754 813 716.50 845Q679 877 616 877Q549 877 466.50 853.50Q384 830 301 793L188 1051Q286 1101 410 1127Q534 1153 688 1153M756 506L666 502Q558 498 514.50 464.50Q471 431 471 369Q471 311 502 283.50Q533 256 584 256Q655 256 705.50 301Q756 346 756 418L756 506M215 1237Q221 1331 240.50 1396Q260 1461 291.50 1501.50Q323 1542 367.50 1560.50Q412 1579 467 1579Q505 1579 548 1564.50Q591 1550 635 1531Q679 1512 721.50 1497.50Q764 1483 803 1483Q821 1483 842.50 1500Q864 1517 874 1581L1057 1581Q1044 1397 976.50 1318Q909 1239 811 1239Q766 1239 720.50 1253.50Q675 1268 631 1287Q587 1306 546 1320.50Q505 1335 467 1335Q448 1335 428 1319Q408 1303 395 1237L215 1237Z"  horiz-adv-x="1276" vert-adv-y="2048"  />

      
      <glyph glyph-name="unie4" unicode="&#xe4;" d="M688 1153Q903 1153 1024 1046.50Q1145 940 1145 743L1145 0L874 0L799 150L791 150Q743 90 692.50 52.50Q642 15 577-2.50Q512-20 418-20Q320-20 242 20Q164 60 119 141Q74 222 74 346Q74 528 200 616Q326 704 565 715L754 721L754 737Q754 813 716.50 845Q679 877 616 877Q549 877 466.50 853.50Q384 830 301 793L188 1051Q286 1101 410 1127Q534 1153 688 1153M756 506L666 502Q558 498 514.50 464.50Q471 431 471 369Q471 311 502 283.50Q533 256 584 256Q655 256 705.50 301Q756 346 756 418L756 506M227 1413Q227 1495 276 1533Q325 1571 397 1571Q466 1571 517.50 1533Q569 1495 569 1413Q569 1334 517.50 1295.50Q466 1257 397 1257Q325 1257 276 1295.50Q227 1334 227 1413M706 1413Q706 1495 755.50 1533Q805 1571 878 1571Q948 1571 999.50 1533Q1051 1495 1051 1413Q1051 1334 999.50 1295.50Q948 1257 878 1257Q805 1257 755.50 1295.50Q706 1334 706 1413Z"  horiz-adv-x="1276" vert-adv-y="2048"  />

      
      <glyph glyph-name="unie5" unicode="&#xe5;" d="M688 1153Q903 1153 1024 1046.50Q1145 940 1145 743L1145 0L874 0L799 150L791 150Q743 90 692.50 52.50Q642 15 577-2.50Q512-20 418-20Q320-20 242 20Q164 60 119 141Q74 222 74 346Q74 528 200 616Q326 704 565 715L754 721L754 737Q754 813 716.50 845Q679 877 616 877Q549 877 466.50 853.50Q384 830 301 793L188 1051Q286 1101 410 1127Q534 1153 688 1153M756 506L666 502Q558 498 514.50 464.50Q471 431 471 369Q471 311 502 283.50Q533 256 584 256Q655 256 705.50 301Q756 346 756 418L756 506M639 1237Q521 1237 448 1304.50Q375 1372 375 1489Q375 1608 448 1675.50Q521 1743 639 1743Q752 1743 831.50 1675.50Q911 1608 911 1491Q911 1373 832 1305Q753 1237 639 1237M639 1405Q674 1405 698.50 1428.50Q723 1452 723 1489Q723 1527 698.50 1550Q674 1573 639 1573Q604 1573 579.50 1550Q555 1527 555 1489Q555 1452 576.50 1428.50Q598 1405 639 1405Z"  horiz-adv-x="1276" vert-adv-y="2048"  />

      
      <glyph glyph-name="unie6" unicode="&#xe6;" d="M1337 1153Q1481 1153 1592 1095.50Q1703 1038 1766 922.50Q1829 807 1829 633L1829 461L1133 461Q1138 378 1202.50 318Q1267 258 1393 258Q1471 258 1565.50 276.50Q1660 295 1757 344L1757 63Q1675 20 1581 0Q1487-20 1341-20Q1255-20 1176 0Q1097 20 1030 62.50Q963 105 911 170Q842 98 779.50 56.50Q717 15 637-2.50Q557-20 434-20Q340-20 258 20Q176 60 125 142.50Q74 225 74 352Q74 478 136 556Q198 634 310 672Q422 710 571 715L754 721L754 739Q754 821 713 849Q672 877 618 877Q551 877 468 855.50Q385 834 305 797L195 1053Q292 1103 408.50 1128Q525 1153 649 1153Q746 1153 831 1129.50Q916 1106 985 1059Q1056 1108 1138.50 1130.50Q1221 1153 1337 1153M756 506L672 502Q557 499 515 460Q473 421 473 356Q473 301 504 278.50Q535 256 586 256Q632 256 670.50 276.50Q709 297 732.50 333.50Q756 370 756 418L756 506M1315 887Q1243 887 1195 847Q1147 807 1139 707L1479 707Q1478 756 1459 797Q1440 838 1403.50 862.50Q1367 887 1315 887Z"  horiz-adv-x="1915" vert-adv-y="2048"  />

      
      <glyph glyph-name="unie7" unicode="&#xe7;" d="M651-20Q479-20 352 41.50Q225 103 155.50 231.50Q86 360 86 561Q86 767 163.50 898Q241 1029 376 1091Q511 1153 682 1153Q786 1153 879.50 1130Q973 1107 1053 1067L938 778Q868 809 807.50 827.50Q747 846 682 846Q623 846 578 815Q533 784 508 721.50Q483 659 483 563Q483 465 508.50 405Q534 345 579.50 318Q625 291 684 291Q769 291 853.50 317.50Q938 344 1014 391L1014 80Q944 34 856 7Q768-20 651-20M881-252Q881-361 806-426.50Q731-492 606-492Q536-492 479-481Q422-470 385-457L385-264Q419-275 451.50-281Q484-287 518-287Q556-287 578-271Q600-255 600-229Q600-194 566.50-173.50Q533-153 455-139L516 0L711 0L692-61Q733-70 777-90Q821-110 851-148Q881-186 881-252Z"  horiz-adv-x="1104" vert-adv-y="2048"  />

      
      <glyph glyph-name="unie8" unicode="&#xe8;" d="M645 1153Q810 1153 930 1095.50Q1050 1038 1115 923Q1180 808 1180 635L1180 461L481 461Q486 372 547.50 315Q609 258 729 258Q835 258 923.50 279Q1012 300 1106 344L1106 63Q1024 20 927 0Q830-20 682-20Q511-20 376 41Q241 102 163.50 230Q86 358 86 559Q86 763 156 894.50Q226 1026 352 1089.50Q478 1153 645 1153M659 887Q590 887 543.50 843.50Q497 800 489 707L825 707Q824 757 805 798Q786 839 749.50 863Q713 887 659 887M631 1569Q666 1523 714.50 1468Q763 1413 811.50 1360.50Q860 1308 893 1270L893 1241L633 1241Q591 1267 533 1307Q475 1347 412 1391.50Q349 1436 293.50 1477.50Q238 1519 201 1548L201 1569L631 1569Z"  horiz-adv-x="1266" vert-adv-y="2048"  />

      
      <glyph glyph-name="unie9" unicode="&#xe9;" d="M645 1153Q810 1153 930 1095.50Q1050 1038 1115 923Q1180 808 1180 635L1180 461L481 461Q486 372 547.50 315Q609 258 729 258Q835 258 923.50 279Q1012 300 1106 344L1106 63Q1024 20 927 0Q830-20 682-20Q511-20 376 41Q241 102 163.50 230Q86 358 86 559Q86 763 156 894.50Q226 1026 352 1089.50Q478 1153 645 1153M659 887Q590 887 543.50 843.50Q497 800 489 707L825 707Q824 757 805 798Q786 839 749.50 863Q713 887 659 887M1120 1569L1120 1548Q1084 1519 1028 1477.50Q972 1436 909.50 1391.50Q847 1347 788.50 1307Q730 1267 688 1241L428 1241L428 1270Q463 1308 512 1360.50Q561 1413 610 1468Q659 1523 692 1569L1120 1569Z"  horiz-adv-x="1266" vert-adv-y="2048"  />

      
      <glyph glyph-name="uniea" unicode="&#xea;" d="M645 1153Q810 1153 930 1095.50Q1050 1038 1115 923Q1180 808 1180 635L1180 461L481 461Q486 372 547.50 315Q609 258 729 258Q835 258 923.50 279Q1012 300 1106 344L1106 63Q1024 20 927 0Q830-20 682-20Q511-20 376 41Q241 102 163.50 230Q86 358 86 559Q86 763 156 894.50Q226 1026 352 1089.50Q478 1153 645 1153M659 887Q590 887 543.50 843.50Q497 800 489 707L825 707Q824 757 805 798Q786 839 749.50 863Q713 887 659 887M833 1569Q865 1522 912 1465.50Q959 1409 1007 1357Q1055 1305 1089 1270L1089 1241L835 1241Q782 1272 735 1308.50Q688 1345 635 1391Q581 1345 537.50 1310Q494 1275 440 1241L182 1241L182 1270Q221 1307 269.50 1359Q318 1411 364 1466.50Q410 1522 440 1569L833 1569Z"  horiz-adv-x="1266" vert-adv-y="2048"  />

      
      <glyph glyph-name="unieb" unicode="&#xeb;" d="M645 1153Q810 1153 930 1095.50Q1050 1038 1115 923Q1180 808 1180 635L1180 461L481 461Q486 372 547.50 315Q609 258 729 258Q835 258 923.50 279Q1012 300 1106 344L1106 63Q1024 20 927 0Q830-20 682-20Q511-20 376 41Q241 102 163.50 230Q86 358 86 559Q86 763 156 894.50Q226 1026 352 1089.50Q478 1153 645 1153M659 887Q590 887 543.50 843.50Q497 800 489 707L825 707Q824 757 805 798Q786 839 749.50 863Q713 887 659 887M221 1413Q221 1495 270 1533Q319 1571 391 1571Q460 1571 511.50 1533Q563 1495 563 1413Q563 1334 511.50 1295.50Q460 1257 391 1257Q319 1257 270 1295.50Q221 1334 221 1413M700 1413Q700 1495 749.50 1533Q799 1571 872 1571Q942 1571 993.50 1533Q1045 1495 1045 1413Q1045 1334 993.50 1295.50Q942 1257 872 1257Q799 1257 749.50 1295.50Q700 1334 700 1413Z"  horiz-adv-x="1266" vert-adv-y="2048"  />

      
      <glyph glyph-name="uniec" unicode="&#xec;" d="M528 0L137 0L137 1133L528 1133L528 0M332 1569Q367 1523 415.50 1468Q464 1413 512.50 1360.50Q561 1308 594 1270L594 1241L334 1241Q292 1267 234 1307Q176 1347 113 1391.50Q50 1436-5.50 1477.50Q-61 1519-98 1548L-98 1569L332 1569Z"  horiz-adv-x="666" vert-adv-y="2048"  />

      
      <glyph glyph-name="unied" unicode="&#xed;" d="M528 0L137 0L137 1133L528 1133L528 0M821 1569L821 1548Q785 1519 729 1477.50Q673 1436 610.50 1391.50Q548 1347 489.50 1307Q431 1267 389 1241L129 1241L129 1270Q164 1308 213 1360.50Q262 1413 311 1468Q360 1523 393 1569L821 1569Z"  horiz-adv-x="666" vert-adv-y="2048"  />

      
      <glyph glyph-name="uniee" unicode="&#xee;" d="M528 0L137 0L137 1133L528 1133L528 0M534 1569Q566 1522 613 1465.50Q660 1409 708 1357Q756 1305 790 1270L790 1241L536 1241Q483 1272 436 1308.50Q389 1345 336 1391Q282 1345 238.50 1310Q195 1275 141 1241L-117 1241L-117 1270Q-78 1307-29.50 1359Q19 1411 65 1466.50Q111 1522 141 1569L534 1569Z"  horiz-adv-x="666" vert-adv-y="2048"  />

      
      <glyph glyph-name="unief" unicode="&#xef;" d="M528 0L137 0L137 1133L528 1133L528 0M-78 1413Q-78 1495-29 1533Q20 1571 92 1571Q161 1571 212.50 1533Q264 1495 264 1413Q264 1334 212.50 1295.50Q161 1257 92 1257Q20 1257-29 1295.50Q-78 1334-78 1413M401 1413Q401 1495 450.50 1533Q500 1571 573 1571Q643 1571 694.50 1533Q746 1495 746 1413Q746 1334 694.50 1295.50Q643 1257 573 1257Q500 1257 450.50 1295.50Q401 1334 401 1413Z"  horiz-adv-x="666" vert-adv-y="2048"  />

      
      <glyph glyph-name="unif0" unicode="&#xf0;" d="M479 1573Q559 1539 624.50 1507Q690 1475 745 1438L954 1575L1069 1393L924 1296Q1020 1202 1085.50 1097.50Q1151 993 1184 866.50Q1217 740 1217 580Q1217 395 1147 260Q1077 125 949.50 52.50Q822-20 649-20Q486-20 359.50 39Q233 98 160.50 213.50Q88 329 88 498Q88 667 151 782Q214 897 322.50 955.50Q431 1014 567 1014Q634 1014 682 1004.50Q730 995 762 976.50Q794 958 811 930L819 934Q790 990 757.50 1041Q725 1092 676 1141L494 1022L377 1206L520 1298Q489 1318 449 1343Q409 1368 371 1391L479 1573M653 733Q592 733 556 708.50Q520 684 504.50 632.50Q489 581 489 500Q489 427 505 372.50Q521 318 557 288Q593 258 653 258Q744 258 780.50 329Q817 400 817 545Q817 580 807 613.50Q797 647 777 674Q757 701 726 717Q695 733 653 733Z"  horiz-adv-x="1313" vert-adv-y="2048"  />

      
      <glyph glyph-name="unif1" unicode="&#xf1;" d="M844 1153Q1019 1153 1130 1054Q1241 955 1241 737L1241 0L850 0L850 618Q850 731 817.50 788.50Q785 846 713 846Q602 846 564 755.50Q526 665 526 496L526 0L135 0L135 1133L430 1133L483 983L498 983Q534 1037 584 1075Q634 1113 699 1133Q764 1153 844 1153M262 1237Q268 1331 287.50 1396Q307 1461 338.50 1501.50Q370 1542 414.50 1560.50Q459 1579 514 1579Q552 1579 595 1564.50Q638 1550 682 1531Q726 1512 768.50 1497.50Q811 1483 850 1483Q868 1483 889.50 1500Q911 1517 921 1581L1104 1581Q1091 1397 1023.50 1318Q956 1239 858 1239Q813 1239 767.50 1253.50Q722 1268 678 1287Q634 1306 593 1320.50Q552 1335 514 1335Q495 1335 475 1319Q455 1303 442 1237L262 1237Z"  horiz-adv-x="1372" vert-adv-y="2048"  />

      
      <glyph glyph-name="unif2" unicode="&#xf2;" d="M1217 569Q1217 427 1178 317Q1139 207 1065 132Q991 57 886 18.50Q781-20 649-20Q526-20 423.50 18.50Q321 57 245 132Q169 207 127.50 317Q86 427 86 569Q86 757 154.50 887Q223 1017 350.50 1085Q478 1153 655 1153Q818 1153 945 1085Q1072 1017 1144.50 887Q1217 757 1217 569M483 569Q483 472 500 405.50Q517 339 554.50 304.50Q592 270 653 270Q714 270 750 304.50Q786 339 802.50 405.50Q819 472 819 569Q819 666 802.50 731Q786 796 749.50 829Q713 862 651 862Q562 862 522.50 788Q483 714 483 569M651 1569Q686 1523 734.50 1468Q783 1413 831.50 1360.50Q880 1308 913 1270L913 1241L653 1241Q611 1267 553 1307Q495 1347 432 1391.50Q369 1436 313.50 1477.50Q258 1519 221 1548L221 1569L651 1569Z"  horiz-adv-x="1305" vert-adv-y="2048"  />

      
      <glyph glyph-name="unif3" unicode="&#xf3;" d="M1217 569Q1217 427 1178 317Q1139 207 1065 132Q991 57 886 18.50Q781-20 649-20Q526-20 423.50 18.50Q321 57 245 132Q169 207 127.50 317Q86 427 86 569Q86 757 154.50 887Q223 1017 350.50 1085Q478 1153 655 1153Q818 1153 945 1085Q1072 1017 1144.50 887Q1217 757 1217 569M483 569Q483 472 500 405.50Q517 339 554.50 304.50Q592 270 653 270Q714 270 750 304.50Q786 339 802.50 405.50Q819 472 819 569Q819 666 802.50 731Q786 796 749.50 829Q713 862 651 862Q562 862 522.50 788Q483 714 483 569M1141 1569L1141 1548Q1105 1519 1049 1477.50Q993 1436 930.50 1391.50Q868 1347 809.50 1307Q751 1267 709 1241L449 1241L449 1270Q484 1308 533 1360.50Q582 1413 631 1468Q680 1523 713 1569L1141 1569Z"  horiz-adv-x="1305" vert-adv-y="2048"  />

      
      <glyph glyph-name="unif4" unicode="&#xf4;" d="M1217 569Q1217 427 1178 317Q1139 207 1065 132Q991 57 886 18.50Q781-20 649-20Q526-20 423.50 18.50Q321 57 245 132Q169 207 127.50 317Q86 427 86 569Q86 757 154.50 887Q223 1017 350.50 1085Q478 1153 655 1153Q818 1153 945 1085Q1072 1017 1144.50 887Q1217 757 1217 569M483 569Q483 472 500 405.50Q517 339 554.50 304.50Q592 270 653 270Q714 270 750 304.50Q786 339 802.50 405.50Q819 472 819 569Q819 666 802.50 731Q786 796 749.50 829Q713 862 651 862Q562 862 522.50 788Q483 714 483 569M854 1569Q886 1522 933 1465.50Q980 1409 1028 1357Q1076 1305 1110 1270L1110 1241L856 1241Q803 1272 756 1308.50Q709 1345 656 1391Q602 1345 558.50 1310Q515 1275 461 1241L203 1241L203 1270Q242 1307 290.50 1359Q339 1411 385 1466.50Q431 1522 461 1569L854 1569Z"  horiz-adv-x="1305" vert-adv-y="2048"  />

      
      <glyph glyph-name="unif5" unicode="&#xf5;" d="M1217 569Q1217 427 1178 317Q1139 207 1065 132Q991 57 886 18.50Q781-20 649-20Q526-20 423.50 18.50Q321 57 245 132Q169 207 127.50 317Q86 427 86 569Q86 757 154.50 887Q223 1017 350.50 1085Q478 1153 655 1153Q818 1153 945 1085Q1072 1017 1144.50 887Q1217 757 1217 569M483 569Q483 472 500 405.50Q517 339 554.50 304.50Q592 270 653 270Q714 270 750 304.50Q786 339 802.50 405.50Q819 472 819 569Q819 666 802.50 731Q786 796 749.50 829Q713 862 651 862Q562 862 522.50 788Q483 714 483 569M229 1237Q235 1331 254.50 1396Q274 1461 305.50 1501.50Q337 1542 381.50 1560.50Q426 1579 481 1579Q519 1579 562 1564.50Q605 1550 649 1531Q693 1512 735.50 1497.50Q778 1483 817 1483Q835 1483 856.50 1500Q878 1517 888 1581L1071 1581Q1058 1397 990.50 1318Q923 1239 825 1239Q780 1239 734.50 1253.50Q689 1268 645 1287Q601 1306 560 1320.50Q519 1335 481 1335Q462 1335 442 1319Q422 1303 409 1237L229 1237Z"  horiz-adv-x="1305" vert-adv-y="2048"  />

      
      <glyph glyph-name="unif6" unicode="&#xf6;" d="M1217 569Q1217 427 1178 317Q1139 207 1065 132Q991 57 886 18.50Q781-20 649-20Q526-20 423.50 18.50Q321 57 245 132Q169 207 127.50 317Q86 427 86 569Q86 757 154.50 887Q223 1017 350.50 1085Q478 1153 655 1153Q818 1153 945 1085Q1072 1017 1144.50 887Q1217 757 1217 569M483 569Q483 472 500 405.50Q517 339 554.50 304.50Q592 270 653 270Q714 270 750 304.50Q786 339 802.50 405.50Q819 472 819 569Q819 666 802.50 731Q786 796 749.50 829Q713 862 651 862Q562 862 522.50 788Q483 714 483 569M241 1413Q241 1495 290 1533Q339 1571 411 1571Q480 1571 531.50 1533Q583 1495 583 1413Q583 1334 531.50 1295.50Q480 1257 411 1257Q339 1257 290 1295.50Q241 1334 241 1413M720 1413Q720 1495 769.50 1533Q819 1571 892 1571Q962 1571 1013.50 1533Q1065 1495 1065 1413Q1065 1334 1013.50 1295.50Q962 1257 892 1257Q819 1257 769.50 1295.50Q720 1334 720 1413Z"  horiz-adv-x="1305" vert-adv-y="2048"  />

      
      <glyph glyph-name="unif7" unicode="&#xf7;" d="M92 588L92 856L1106 856L1106 588L92 588M598 162Q535 162 488.50 202.50Q442 243 442 332Q442 427 488.50 464.50Q535 502 598 502Q660 502 708 464.50Q756 427 756 332Q756 243 708 202.50Q660 162 598 162M598 942Q535 942 488.50 982.50Q442 1023 442 1112Q442 1207 488.50 1244.50Q535 1282 598 1282Q660 1282 708 1244.50Q756 1207 756 1112Q756 1023 708 982.50Q660 942 598 942Z"  horiz-adv-x="1200" vert-adv-y="2048"  />

      
      <glyph glyph-name="unif8" unicode="&#xf8;" d="M1274 569Q1274 380 1202.50 248.50Q1131 117 997.50 48.50Q864-20 678-20Q617-20 559-11Q501-2 449 14L365-117L195-10L274 113Q186 188 136 303Q86 418 86 569Q86 850 245 1001.50Q404 1153 684 1153Q747 1153 806.50 1143Q866 1133 918 1114L989 1225L1157 1120L1090 1016Q1176 943 1225 830Q1274 717 1274 569M461 569Q461 526 463.50 490Q466 454 473 422L762 870Q743 877 723 880Q703 883 680 883Q559 883 510 803.50Q461 724 461 569M899 569Q899 606 897 639.50Q895 673 889 700L606 258Q623 254 641.50 252Q660 250 682 250Q765 250 812.50 286Q860 322 879.50 393.50Q899 465 899 569Z"  horiz-adv-x="1362" vert-adv-y="2048"  />

      
      <glyph glyph-name="unif9" unicode="&#xf9;" d="M1237 1133L1237 0L942 0L893 141L870 141Q835 84 781.50 48.50Q728 13 663-3.50Q598-20 528-20Q417-20 327.50 23Q238 66 185.50 158Q133 250 133 395L133 1133L524 1133L524 514Q524 404 555.50 346.50Q587 289 659 289Q733 289 773.50 329Q814 369 830 447Q846 525 846 637L846 1133L1237 1133M684 1569Q719 1523 767.50 1468Q816 1413 864.50 1360.50Q913 1308 946 1270L946 1241L686 1241Q644 1267 586 1307Q528 1347 465 1391.50Q402 1436 346.50 1477.50Q291 1519 254 1548L254 1569L684 1569Z"  horiz-adv-x="1372" vert-adv-y="2048"  />

      
      <glyph glyph-name="unifa" unicode="&#xfa;" d="M1237 1133L1237 0L942 0L893 141L870 141Q835 84 781.50 48.50Q728 13 663-3.50Q598-20 528-20Q417-20 327.50 23Q238 66 185.50 158Q133 250 133 395L133 1133L524 1133L524 514Q524 404 555.50 346.50Q587 289 659 289Q733 289 773.50 329Q814 369 830 447Q846 525 846 637L846 1133L1237 1133M1173 1569L1173 1548Q1137 1519 1081 1477.50Q1025 1436 962.50 1391.50Q900 1347 841.50 1307Q783 1267 741 1241L481 1241L481 1270Q516 1308 565 1360.50Q614 1413 663 1468Q712 1523 745 1569L1173 1569Z"  horiz-adv-x="1372" vert-adv-y="2048"  />

      
      <glyph glyph-name="unifb" unicode="&#xfb;" d="M1237 1133L1237 0L942 0L893 141L870 141Q835 84 781.50 48.50Q728 13 663-3.50Q598-20 528-20Q417-20 327.50 23Q238 66 185.50 158Q133 250 133 395L133 1133L524 1133L524 514Q524 404 555.50 346.50Q587 289 659 289Q733 289 773.50 329Q814 369 830 447Q846 525 846 637L846 1133L1237 1133M887 1569Q919 1522 966 1465.50Q1013 1409 1061 1357Q1109 1305 1143 1270L1143 1241L889 1241Q836 1272 789 1308.50Q742 1345 689 1391Q635 1345 591.50 1310Q548 1275 494 1241L236 1241L236 1270Q275 1307 323.50 1359Q372 1411 418 1466.50Q464 1522 494 1569L887 1569Z"  horiz-adv-x="1372" vert-adv-y="2048"  />

      
      <glyph glyph-name="unifc" unicode="&#xfc;" d="M1237 1133L1237 0L942 0L893 141L870 141Q835 84 781.50 48.50Q728 13 663-3.50Q598-20 528-20Q417-20 327.50 23Q238 66 185.50 158Q133 250 133 395L133 1133L524 1133L524 514Q524 404 555.50 346.50Q587 289 659 289Q733 289 773.50 329Q814 369 830 447Q846 525 846 637L846 1133L1237 1133M274 1413Q274 1495 323 1533Q372 1571 444 1571Q513 1571 564.50 1533Q616 1495 616 1413Q616 1334 564.50 1295.50Q513 1257 444 1257Q372 1257 323 1295.50Q274 1334 274 1413M753 1413Q753 1495 802.50 1533Q852 1571 925 1571Q995 1571 1046.50 1533Q1098 1495 1098 1413Q1098 1334 1046.50 1295.50Q995 1257 925 1257Q852 1257 802.50 1295.50Q753 1334 753 1413Z"  horiz-adv-x="1372" vert-adv-y="2048"  />

      
      <glyph glyph-name="unifd" unicode="&#xfd;" d="M-2 1133L410 1133L602 483Q606 469 610 448.50Q614 428 617 405Q620 382 621 360L629 360Q634 401 640.50 431.50Q647 462 653 481L850 1133L1249 1133L801-72Q749-210 680.50-303.50Q612-397 511.50-444.50Q411-492 262-492Q208-492 169.50-486.50Q131-481 102-475L102-168Q124-172 156-176Q188-180 223-180Q288-180 328.50-154Q369-128 395-85.50Q421-43 440 6L444 16L-2 1133M1112 1569L1112 1548Q1076 1519 1020 1477.50Q964 1436 901.50 1391.50Q839 1347 780.50 1307Q722 1267 680 1241L420 1241L420 1270Q455 1308 504 1360.50Q553 1413 602 1468Q651 1523 684 1569L1112 1569Z"  horiz-adv-x="1249" vert-adv-y="2048"  />

      
      <glyph glyph-name="unife" unicode="&#xfe;" d="M1229 569Q1229 376 1175 244.50Q1121 113 1027 46.50Q933-20 813-20Q743-20 689-1.50Q635 17 595 46.50Q555 76 526 109L512 109Q516 89 519 61.50Q522 34 524 6.50Q526-21 526-43L526-492L135-492L135 1556L526 1556L526 1212Q526 1130 520 1074Q514 1018 508 987L526 987Q552 1033 594 1070.50Q636 1108 694.50 1130.50Q753 1153 827 1153Q1004 1153 1116.50 1004.50Q1229 856 1229 569M831 573Q831 707 798 776.50Q765 846 682 846Q597 846 563 784.50Q529 723 526 600L526 571Q526 436 561.50 365.50Q597 295 688 295Q742 295 773 326.50Q804 358 817.50 420Q831 482 831 573Z"  horiz-adv-x="1317" vert-adv-y="2048"  />

      
      <glyph glyph-name="uniff" unicode="&#xff;" d="M-2 1133L410 1133L602 483Q606 469 610 448.50Q614 428 617 405Q620 382 621 360L629 360Q634 401 640.50 431.50Q647 462 653 481L850 1133L1249 1133L801-72Q749-210 680.50-303.50Q612-397 511.50-444.50Q411-492 262-492Q208-492 169.50-486.50Q131-481 102-475L102-168Q124-172 156-176Q188-180 223-180Q288-180 328.50-154Q369-128 395-85.50Q421-43 440 6L444 16L-2 1133M213 1413Q213 1495 262 1533Q311 1571 383 1571Q452 1571 503.50 1533Q555 1495 555 1413Q555 1334 503.50 1295.50Q452 1257 383 1257Q311 1257 262 1295.50Q213 1334 213 1413M692 1413Q692 1495 741.50 1533Q791 1571 864 1571Q934 1571 985.50 1533Q1037 1495 1037 1413Q1037 1334 985.50 1295.50Q934 1257 864 1257Q791 1257 741.50 1295.50Q692 1334 692 1413Z"  horiz-adv-x="1249" vert-adv-y="2048"  />

      
      <glyph glyph-name="uni0100" unicode="&#x0100;" d="M1055 0L983 274L508 274L434 0L0 0L477 1468L1004 1468L1487 0L1055 0M901 598L838 838Q828 877 809 949.50Q790 1022 771.50 1099.50Q753 1177 743 1227Q734 1177 717.50 1103.50Q701 1030 683.50 958Q666 886 653 838L590 598L901 598M1114 1807L1114 1571L387 1571L387 1807L1114 1807Z"  horiz-adv-x="1487" vert-adv-y="2048"  />

      
      <glyph glyph-name="uni0101" unicode="&#x0101;" d="M688 1153Q903 1153 1024 1046.50Q1145 940 1145 743L1145 0L874 0L799 150L791 150Q743 90 692.50 52.50Q642 15 577-2.50Q512-20 418-20Q320-20 242 20Q164 60 119 141Q74 222 74 346Q74 528 200 616Q326 704 565 715L754 721L754 737Q754 813 716.50 845Q679 877 616 877Q549 877 466.50 853.50Q384 830 301 793L188 1051Q286 1101 410 1127Q534 1153 688 1153M756 506L666 502Q558 498 514.50 464.50Q471 431 471 369Q471 311 502 283.50Q533 256 584 256Q655 256 705.50 301Q756 346 756 418L756 506M1010 1477L1010 1241L283 1241L283 1477L1010 1477Z"  horiz-adv-x="1276" vert-adv-y="2048"  />

      
      <glyph glyph-name="uni0102" unicode="&#x0102;" d="M1055 0L983 274L508 274L434 0L0 0L477 1468L1004 1468L1487 0L1055 0M901 598L838 838Q828 877 809 949.50Q790 1022 771.50 1099.50Q753 1177 743 1227Q734 1177 717.50 1103.50Q701 1030 683.50 958Q666 886 653 838L590 598L901 598M1153 1942Q1146 1831 1096.50 1747.50Q1047 1664 958 1617.50Q869 1571 745 1571Q550 1571 451 1670.50Q352 1770 344 1942L555 1942Q570 1885 592.50 1857Q615 1829 652 1820Q689 1811 745 1811Q789 1811 826.50 1821.50Q864 1832 892 1860.50Q920 1889 934 1942L1153 1942Z"  horiz-adv-x="1487" vert-adv-y="2048"  />

      
      <glyph glyph-name="uni0103" unicode="&#x0103;" d="M688 1153Q903 1153 1024 1046.50Q1145 940 1145 743L1145 0L874 0L799 150L791 150Q743 90 692.50 52.50Q642 15 577-2.50Q512-20 418-20Q320-20 242 20Q164 60 119 141Q74 222 74 346Q74 528 200 616Q326 704 565 715L754 721L754 737Q754 813 716.50 845Q679 877 616 877Q549 877 466.50 853.50Q384 830 301 793L188 1051Q286 1101 410 1127Q534 1153 688 1153M756 506L666 502Q558 498 514.50 464.50Q471 431 471 369Q471 311 502 283.50Q533 256 584 256Q655 256 705.50 301Q756 346 756 418L756 506M1049 1612Q1042 1501 992.50 1417.50Q943 1334 854 1287.50Q765 1241 641 1241Q446 1241 347 1340.50Q248 1440 240 1612L451 1612Q466 1555 488.50 1527Q511 1499 548 1490Q585 1481 641 1481Q685 1481 722.50 1491.50Q760 1502 788 1530.50Q816 1559 830 1612L1049 1612Z"  horiz-adv-x="1276" vert-adv-y="2048"  />

      
      <glyph glyph-name="uni0104" unicode="&#x0104;" d="M1055 0L983 274L508 274L434 0L0 0L477 1468L1004 1468L1487 0L1055 0M901 598L838 838Q828 877 809 949.50Q790 1022 771.50 1099.50Q753 1177 743 1227Q734 1177 717.50 1103.50Q701 1030 683.50 958Q666 886 653 838L590 598L901 598M1256-199Q1256-236 1277.50-251Q1299-266 1334-266Q1360-266 1395.50-259.50Q1431-253 1452-244L1452-465Q1418-475 1376-483.50Q1334-492 1278-492Q1162-492 1082-429.50Q1002-367 1002-260Q1002-214 1022.50-165.50Q1043-117 1093.50-63.50Q1144-10 1235 51L1389 0Q1320-66 1288-109Q1256-152 1256-199Z"  horiz-adv-x="1487" vert-adv-y="2048"  />

      
      <glyph glyph-name="uni0105" unicode="&#x0105;" d="M688 1153Q903 1153 1024 1046.50Q1145 940 1145 743L1145 0L874 0L799 150L791 150Q743 90 692.50 52.50Q642 15 577-2.50Q512-20 418-20Q320-20 242 20Q164 60 119 141Q74 222 74 346Q74 528 200 616Q326 704 565 715L754 721L754 737Q754 813 716.50 845Q679 877 616 877Q549 877 466.50 853.50Q384 830 301 793L188 1051Q286 1101 410 1127Q534 1153 688 1153M756 506L666 502Q558 498 514.50 464.50Q471 431 471 369Q471 311 502 283.50Q533 256 584 256Q655 256 705.50 301Q756 346 756 418L756 506M954-199Q954-236 975.50-251Q997-266 1032-266Q1058-266 1093.50-259.50Q1129-253 1150-244L1150-465Q1116-475 1074-483.50Q1032-492 976-492Q860-492 780-429.50Q700-367 700-260Q700-214 720.50-165.50Q741-117 791.50-63.50Q842-10 933 51L1087 0Q1018-66 986-109Q954-152 954-199Z"  horiz-adv-x="1276" vert-adv-y="2048"  />

      
      <glyph glyph-name="uni0106" unicode="&#x0106;" d="M809 1159Q739 1159 684 1129.50Q629 1100 590 1044Q551 988 530.50 907.50Q510 827 510 725Q510 587 545 493Q580 399 651.50 351Q723 303 831 303Q929 303 1019.50 330Q1110 357 1202 395L1202 61Q1105 18 1003.50-1Q902-20 788-20Q550-20 398.50 74.50Q247 169 175.50 337Q104 505 104 727Q104 893 150.50 1031Q197 1169 287 1270.50Q377 1372 509.50 1427.50Q642 1483 813 1483Q919 1483 1036.50 1458.50Q1154 1434 1266 1380L1145 1069Q1065 1107 983 1133Q901 1159 809 1159M1235 1899L1235 1878Q1199 1849 1143 1807.50Q1087 1766 1024.50 1721.50Q962 1677 903.50 1637Q845 1597 803 1571L543 1571L543 1600Q578 1638 627 1690.50Q676 1743 725 1798Q774 1853 807 1899L1235 1899Z"  horiz-adv-x="1329" vert-adv-y="2048"  />

      
      </font>
</defs>
</svg>
