<?xml version="1.0" standalone="no"?>
  <!DOCTYPE svg PUBLIC "-//W3C//DTD SVG 1.1//EN" "http://www.w3.org/Graphics/SVG/1.1/DTD/svg11.dtd" >
  <svg>
  <metadata>
  Created by font-carrier
  </metadata>
  <defs>
  <font id="OpenSansCondensed-BoldItalic" horiz-adv-x="2066" vert-adv-y="2066" >
    <font-face
      
      font-family="Open Sans Condensed"
      
      font-weight="400"
      
      font-stretch="normal"
      
      units-per-em="2048"
      
      ascent="2189"
      
      descent="-600"
      
    />
      <missing-glyph />

      

      
      <glyph glyph-name="uni21" unicode="&#x21;" d="M121 463L297 1462L580 1462L330 463L121 463M127-20Q67-20 34.50 8.50Q2 37 2 94Q2 174 50 236.50Q98 299 188 299Q242 299 272.50 268.50Q303 238 303 184Q303 93 250.50 36.50Q198-20 127-20Z"  horiz-adv-x="506" vert-adv-y="2048"  />

      
      <glyph glyph-name="uni22" unicode="&#x22;" d="M565 934L645 1462L911 1462L766 934L565 934M195 934L274 1462L539 1462L395 934L195 934Z"  horiz-adv-x="809" vert-adv-y="2048"  />

      
      <glyph glyph-name="uni23" unicode="&#x23;" d="M27 0L158 418L4 418L37 600L213 600L303 879L139 879L172 1063L358 1063L483 1462L670 1462L543 1063L696 1063L821 1462L1008 1462L881 1063L1036 1063L1004 879L825 879L737 600L903 600L870 418L682 418L549 0L365 0L496 418L340 418L211 0L27 0M399 600L553 600L641 879L487 879L399 600Z"  horiz-adv-x="979" vert-adv-y="2048"  />

      
      <glyph glyph-name="uni24" unicode="&#x24;" d="M250-121L293 84Q195 87 128.50 110.50Q62 134 14 168L61 418Q115 372 186.50 336.50Q258 301 338 295L414 657Q361 692 307.50 736.50Q254 781 219 842.50Q184 904 184 991Q184 1129 238.50 1217.50Q293 1306 381.50 1351Q470 1396 571 1403L604 1554L696 1554L666 1403Q760 1397 820 1372.50Q880 1348 928 1317L817 1106Q771 1141 722.50 1163.50Q674 1186 621 1192L547 850Q603 812 655.50 767.50Q708 723 742 661Q776 599 776 508Q776 375 722 284Q668 193 579.50 143Q491 93 385 84L342-119L250-121M432 303Q474 311 502.50 333Q531 355 545 387.50Q559 420 559 461Q559 489 552.50 511.50Q546 534 532 555Q518 576 494 598L432 303M467 909L526 1190Q483 1183 455 1161Q427 1139 413 1106Q399 1073 399 1032Q399 1010 406 989.50Q413 969 428.50 949.50Q444 930 467 909Z"  horiz-adv-x="889" vert-adv-y="2048"  />

      
      <glyph glyph-name="uni25" unicode="&#x25;" d="M250 0L1042 1462L1237 1462L444 0L250 0M315 565Q214 565 160 632Q106 699 106 836Q106 904 120 989Q134 1074 163 1160.50Q192 1247 236.50 1320Q281 1393 342.50 1438Q404 1483 483 1483Q578 1483 635 1416.50Q692 1350 692 1210Q692 1147 678.50 1063Q665 979 636.50 892Q608 805 563.50 731Q519 657 457.50 611Q396 565 315 565M338 739Q367 739 392.50 775.50Q418 812 438.50 869.50Q459 927 473.50 992Q488 1057 496 1116.50Q504 1176 504 1214Q504 1262 493 1284.50Q482 1307 459 1307Q429 1307 403.50 1271Q378 1235 357 1178.50Q336 1122 321.50 1057Q307 992 299 932.50Q291 873 291 834Q291 785 303.50 762Q316 739 338 739M1012-18Q909-18 856 49Q803 116 803 252Q803 334 819 423.50Q835 513 866 597.50Q897 682 942.50 750Q988 818 1047 858.50Q1106 899 1178 899Q1273 899 1329.50 833.50Q1386 768 1386 627Q1386 562 1372.50 477.50Q1359 393 1330.50 306.50Q1302 220 1257.50 146.50Q1213 73 1152 27.50Q1091-18 1012-18M1034 158Q1064 158 1089.50 193.50Q1115 229 1135.50 286Q1156 343 1170.50 407.50Q1185 472 1192.50 531.50Q1200 591 1200 631Q1200 678 1188 700.50Q1176 723 1153 723Q1121 723 1095 684.50Q1069 646 1049 586.50Q1029 527 1015 461Q1001 395 994 338Q987 281 987 250Q987 202 999.50 180Q1012 158 1034 158Z"  horiz-adv-x="1442" vert-adv-y="2048"  />

      
      <glyph glyph-name="uni26" unicode="&#x26;" d="M291-20Q155-20 75.50 60Q-4 140-4 285Q-4 393 35 487Q74 581 145 660.50Q216 740 313 803Q289 862 275.50 925Q262 988 262 1063Q262 1179 306.50 1273.50Q351 1368 433.50 1424.50Q516 1481 629 1481Q697 1481 756 1455Q815 1429 852 1375.50Q889 1322 889 1239Q889 1149 854.50 1066.50Q820 984 757 910Q694 836 610 770L702 520Q727 568 751 628Q775 688 797 760L1049 760Q1023 680 985.50 595.50Q948 511 903.50 431.50Q859 352 813 287L940 0L639 0L602 104Q527 48 457.50 14Q388-20 291-20M352 201Q385 201 413 214Q441 227 466.50 249Q492 271 516 297L391 633Q347 594 316.50 546.50Q286 499 270 444.50Q254 390 254 328Q254 287 265.50 258.50Q277 230 299 215.50Q321 201 352 201M526 936Q554 962 577.50 993Q601 1024 618.50 1059Q636 1094 645.50 1131.50Q655 1169 655 1206Q655 1241 643 1268.50Q631 1296 596 1296Q561 1296 540 1265Q519 1234 509.50 1189.50Q500 1145 500 1104Q500 1055 506.50 1014.50Q513 974 526 936Z"  horiz-adv-x="1057" vert-adv-y="2048"  />

      
      <glyph glyph-name="uni27" unicode="&#x27;" d="M199 934L279 1462L543 1462L399 934L199 934Z"  horiz-adv-x="438" vert-adv-y="2048"  />

      
      <glyph glyph-name="uni28" unicode="&#x28;" d="M115-324Q86-264 67.50-179Q49-94 40-1Q31 92 31 174Q31 341 64 522Q97 703 158.50 880Q220 1057 306.50 1214Q393 1371 500 1489L709 1489Q613 1362 531 1206.50Q449 1051 387.50 879Q326 707 292 529.50Q258 352 258 180Q258 90 264 3Q270-84 284.50-166.50Q299-249 324-324L115-324Z"  horiz-adv-x="553" vert-adv-y="2048"  />

      
      <glyph glyph-name="uni29" unicode="&#x29;" d="M-158-324Q-63-196 19-41Q101 114 162 285.50Q223 457 257 634.50Q291 812 291 983Q291 1069 284.50 1159.50Q278 1250 264 1335Q250 1420 225 1489L436 1489Q467 1416 485 1334.50Q503 1253 510.50 1166Q518 1079 518 989Q518 814 484.50 631Q451 448 388.50 273Q326 98 240.50-55Q155-208 51-324L-158-324Z"  horiz-adv-x="553" vert-adv-y="2048"  />

      
      <glyph glyph-name="uni2a" unicode="&#x2a;" d="M616 743L522 1004L365 774L201 936L412 1130L168 1200L244 1413L469 1286L475 1571L705 1542L639 1268L889 1333L909 1108L655 1102L813 860L616 743Z"  horiz-adv-x="825" vert-adv-y="2048"  />

      
      <glyph glyph-name="uni2b" unicode="&#x2b;" d="M616 831L922 831L922 614L616 614L616 233L395 233L395 614L88 614L88 831L395 831L395 1217L616 1217L616 831Z"  horiz-adv-x="969" vert-adv-y="2048"  />

      
      <glyph glyph-name="uni2c" unicode="&#x2c;" d="M-106-276Q-75-197-39.50-102Q-4-7 28.50 89Q61 185 82 266L326 266L332 244Q298 148 259.50 56.50Q221-35 179-118.50Q137-202 94-276L-106-276Z"  horiz-adv-x="475" vert-adv-y="2048"  />

      
      <glyph glyph-name="uni2d" unicode="&#x2d;" d="M25 432L74 668L553 668L502 432L25 432Z"  horiz-adv-x="584" vert-adv-y="2048"  />

      
      <glyph glyph-name="uni2e" unicode="&#x2e;" d="M131-20Q71-20 38.50 8.50Q6 37 6 94Q6 174 54 236.50Q102 299 190 299Q246 299 276.50 268.50Q307 238 307 184Q307 93 253.50 36.50Q200-20 131-20Z"  horiz-adv-x="473" vert-adv-y="2048"  />

      
      <glyph glyph-name="uni2f" unicode="&#x2f;" d="M-109-12L694 1475L924 1475L119-12L-109-12Z"  horiz-adv-x="752" vert-adv-y="2048"  />

      
      <glyph glyph-name="uni30" unicode="&#x30;" d="M334-20Q192-20 123.50 72Q55 164 55 362Q55 443 68 556.50Q81 670 109 796Q137 922 180.50 1044Q224 1166 285.50 1265Q347 1364 427 1423.50Q507 1483 608 1483Q680 1483 732.50 1460Q785 1437 820 1390Q855 1343 872 1270Q889 1197 889 1096Q889 1001 874.50 882.50Q860 764 830.50 638.50Q801 513 756 396Q711 279 649 185Q587 91 508.50 35.50Q430-20 334-20M362 207Q402 207 438.50 257.50Q475 308 507 391Q539 474 565 575Q591 676 610 778Q629 880 639 968Q649 1056 649 1112Q649 1184 635 1219.50Q621 1255 584 1255Q545 1255 508 1203Q471 1151 438.50 1065.50Q406 980 379.50 878Q353 776 333.50 674.50Q314 573 303.50 488Q293 403 293 354Q293 278 309 242.50Q325 207 362 207Z"  horiz-adv-x="889" vert-adv-y="2048"  />

      
      <glyph glyph-name="uni31" unicode="&#x31;" d="M291 0L479 895Q490 939 497.50 971Q505 1003 513.50 1036.50Q522 1070 535 1118Q518 1100 500.50 1080.50Q483 1061 463 1044L313 907L197 1067L627 1462L854 1462L543 0L291 0Z"  horiz-adv-x="889" vert-adv-y="2048"  />

      
      <glyph glyph-name="uni32" unicode="&#x32;" d="M-61 0L-25 182L332 598Q388 664 440 730.50Q492 797 533.50 864Q575 931 599 998.50Q623 1066 623 1133Q623 1192 599.50 1224.50Q576 1257 526 1257Q486 1257 445.50 1235Q405 1213 366.50 1180.50Q328 1148 293 1116L207 1296Q291 1390 384.50 1436.50Q478 1483 586 1483Q675 1483 742.50 1446Q810 1409 847.50 1342Q885 1275 885 1184Q885 1066 840.50 956.50Q796 847 719.50 741.50Q643 636 547 530L279 231L279 225L707 225L659 0L-61 0Z"  horiz-adv-x="889" vert-adv-y="2048"  />

      
      <glyph glyph-name="uni33" unicode="&#x33;" d="M256-20Q168-20 108-5Q48 10-20 47L-20 291Q41 242 118.50 221.50Q196 201 256 201Q315 201 360.50 220Q406 239 438.50 274.50Q471 310 487.50 358.50Q504 407 504 465Q504 525 483 564.50Q462 604 418 623.50Q374 643 305 643L231 643L276 860L350 860Q415 860 468 879.50Q521 899 559 935.50Q597 972 617 1022.50Q637 1073 637 1135Q637 1197 608.50 1229.50Q580 1262 520 1262Q470 1262 410 1238.50Q350 1215 285 1167L229 1362Q315 1427 398.50 1455Q482 1483 580 1483Q669 1483 741.50 1453Q814 1423 856.50 1360Q899 1297 899 1198Q899 1097 859 1010.50Q819 924 747 861Q675 798 578 766L578 760Q668 735 719 665Q770 595 770 479Q770 376 734 285.50Q698 195 631 126Q564 57 469 18.50Q374-20 256-20Z"  horiz-adv-x="889" vert-adv-y="2048"  />

      
      <glyph glyph-name="uni34" unicode="&#x34;" d="M348 0L412 301L-27 301L16 502L657 1468L907 1468L705 514L838 514L793 301L659 301L596 0L348 0M217 514L457 514L553 965Q558 987 565.50 1013Q573 1039 580.50 1066Q588 1093 594 1116L588 1116Q557 1059 541 1030Q525 1001 510 979L217 514Z"  horiz-adv-x="889" vert-adv-y="2048"  />

      
      <glyph glyph-name="uni35" unicode="&#x35;" d="M274-20Q216-20 167.50-13Q119-6 79.50 6.50Q40 19 10 35L10 295Q60 252 129 226.50Q198 201 274 201Q336 201 383 228.50Q430 256 462.50 302Q495 348 511.50 406.50Q528 465 528 526Q528 617 489.50 665Q451 713 371 713Q332 713 294.50 702Q257 691 217 676L143 748L334 1462L915 1462L866 1235L504 1235L416 915Q447 923 473.50 926.50Q500 930 524 930Q607 930 668 888.50Q729 847 762 767.50Q795 688 795 575Q795 472 767 367Q739 262 677.50 174Q616 86 516.50 33Q417-20 274-20Z"  horiz-adv-x="889" vert-adv-y="2048"  />

      
      <glyph glyph-name="uni36" unicode="&#x36;" d="M373-20Q262-20 192 30Q122 80 89.50 172Q57 264 57 389Q57 499 75.50 618.50Q94 738 130 855Q166 972 219 1077.50Q272 1183 340 1264Q389 1324 451 1374Q513 1424 587.50 1453.50Q662 1483 748 1483Q813 1483 860 1478Q907 1473 948 1462L899 1241Q861 1253 824 1259.50Q787 1266 750 1266Q660 1266 587 1213.50Q514 1161 458 1060Q402 959 362 811L369 811Q398 854 434 885Q470 916 513 933Q556 950 604 950Q724 950 776.50 857Q829 764 829 623Q829 523 803 411Q777 299 721.50 201Q666 103 579.50 41.50Q493-20 373-20M387 203Q438 203 474 246.50Q510 290 531.50 355Q553 420 563 486.50Q573 553 573 600Q573 665 552.50 699Q532 733 494 733Q465 733 440.50 719.50Q416 706 397.50 683Q379 660 367 631Q348 601 334.50 556Q321 511 314 460.50Q307 410 307 365Q307 325 312.50 294.50Q318 264 328.50 244Q339 224 354 213.50Q369 203 387 203Z"  horiz-adv-x="889" vert-adv-y="2048"  />

      
      <glyph glyph-name="uni37" unicode="&#x37;" d="M59 0L686 1233L201 1233L248 1460L989 1460L952 1286L322 0L59 0Z"  horiz-adv-x="889" vert-adv-y="2048"  />

      
      <glyph glyph-name="uni38" unicode="&#x38;" d="M360-20Q248-20 168 18Q88 56 46 128.50Q4 201 4 303Q4 406 40.50 488.50Q77 571 147 640Q217 709 317 768Q278 812 252 861Q226 910 213.50 962Q201 1014 201 1067Q201 1185 249.50 1279Q298 1373 389 1428Q480 1483 608 1483Q702 1483 770.50 1449Q839 1415 877 1350.50Q915 1286 915 1194Q915 1104 881 1026Q847 948 783.50 882.50Q720 817 631 766Q686 714 720 659.50Q754 605 770 547Q786 489 786 424Q786 309 732.50 207.50Q679 106 583 43Q487-20 360-20M365 186Q424 186 463.50 217.50Q503 249 523.50 300.50Q544 352 545 410Q545 453 532.50 492.50Q520 532 497.50 568.50Q475 605 444 639Q389 604 344.50 558.50Q300 513 274 454.50Q248 396 248 322Q248 264 279 225Q310 186 365 186M506 895Q562 930 598.50 971.50Q635 1013 652.50 1059.50Q670 1106 670 1157Q670 1217 644.50 1246.50Q619 1276 575 1276Q532 1276 501 1251.50Q470 1227 453 1183Q436 1139 436 1079Q436 1026 455.50 979.50Q475 933 506 895Z"  horiz-adv-x="889" vert-adv-y="2048"  />

      
      <glyph glyph-name="uni39" unicode="&#x39;" d="M211-20Q148-20 101-13Q54-6 12 4L12 225Q49 212 99 204.50Q149 197 201 197Q269 197 326 226.50Q383 256 430.50 313.50Q478 371 516.50 455.50Q555 540 584 651L578 651Q548 609 511 577.50Q474 546 431.50 529Q389 512 342 512Q262 512 213 553.50Q164 595 141.50 666.50Q119 738 119 827Q119 906 135.50 995.50Q152 1085 187 1171.50Q222 1258 277 1328.50Q332 1399 408 1441Q484 1483 584 1483Q683 1483 751 1435.50Q819 1388 854 1297.50Q889 1207 889 1077Q889 1009 880.50 929.50Q872 850 855 765Q838 680 813 596Q788 512 754 434Q717 345 666 263.50Q615 182 548.50 118Q482 54 398.50 17Q315-20 211-20M455 729Q481 729 502.50 740.50Q524 752 541.50 772Q559 792 573 817Q607 870 624 945.50Q641 1021 641 1098Q641 1152 631.50 1188Q622 1224 604.50 1242Q587 1260 561 1260Q514 1260 479 1218Q444 1176 421 1112Q398 1048 386.50 981.50Q375 915 375 866Q375 800 395.50 764.50Q416 729 455 729Z"  horiz-adv-x="889" vert-adv-y="2048"  />

      
      <glyph glyph-name="uni3a" unicode="&#x3a;" d="M303 811Q243 811 210.50 839Q178 867 178 924Q178 976 199 1022.50Q220 1069 261 1098.50Q302 1128 362 1128Q416 1128 446.50 1097Q477 1066 477 1014Q477 923 425.50 867Q374 811 303 811M125-20Q65-20 32.50 8.50Q0 37 0 94Q0 174 48 236.50Q96 299 184 299Q240 299 270.50 268.50Q301 238 301 184Q301 93 247.50 36.50Q194-20 125-20Z"  horiz-adv-x="483" vert-adv-y="2048"  />

      
      <glyph glyph-name="uni3b" unicode="&#x3b;" d="M-111-276Q-75-188-41.50-98Q-8-8 22.50 83Q53 174 78 266L322 266L328 244Q293 149 254.50 57.50Q216-34 174-117.50Q132-201 88-276L-111-276M309 811Q249 811 216.50 839Q184 867 184 924Q184 976 205 1022.50Q226 1069 267.50 1098.50Q309 1128 369 1128Q422 1128 452.50 1097Q483 1066 483 1014Q483 923 431.50 867Q380 811 309 811Z"  horiz-adv-x="483" vert-adv-y="2048"  />

      
      <glyph glyph-name="uni3c" unicode="&#x3c;" d="M922 246L80 664L80 807L922 1223L922 979L391 735L922 487L922 246Z"  horiz-adv-x="969" vert-adv-y="2048"  />

      
      <glyph glyph-name="uni3d" unicode="&#x3d;" d="M88 838L88 1055L922 1055L922 838L88 838M88 387L88 606L922 606L922 387L88 387Z"  horiz-adv-x="969" vert-adv-y="2048"  />

      
      <glyph glyph-name="uni3e" unicode="&#x3e;" d="M86 487L616 735L86 979L86 1223L928 807L928 664L86 246L86 487Z"  horiz-adv-x="969" vert-adv-y="2048"  />

      
      <glyph glyph-name="uni3f" unicode="&#x3f;" d="M158 463Q179 564 200 628Q221 692 253 741Q285 790 336 844Q389 903 433 947.50Q477 992 503.50 1040.50Q530 1089 530 1157Q530 1210 505 1235Q480 1260 430 1260Q370 1260 313.50 1232.50Q257 1205 207 1169L170 1362Q250 1424 332 1453.50Q414 1483 494 1483Q632 1483 704 1413Q776 1343 776 1221Q776 1125 742 1045Q708 965 652 896.50Q596 828 530 764Q471 705 441 665Q411 625 395.50 581Q380 537 365 463L158 463M172-20Q112-20 79.50 8.50Q47 37 47 94Q47 174 95 236.50Q143 299 233 299Q287 299 317.50 268.50Q348 238 348 184Q348 93 295.50 36.50Q243-20 172-20Z"  horiz-adv-x="684" vert-adv-y="2048"  />

      
      <glyph glyph-name="uni40" unicode="&#x40;" d="M537-164Q417-164 325.50-128.50Q234-93 172-27Q110 39 78.50 132Q47 225 47 340Q47 511 85 676.50Q123 842 194.50 987Q266 1132 367 1242.50Q468 1353 595.50 1416Q723 1479 872 1479Q1008 1479 1108 1417.50Q1208 1356 1263.50 1244.50Q1319 1133 1319 981Q1319 887 1301 784Q1283 681 1248.50 583Q1214 485 1165.50 406Q1117 327 1055.50 280Q994 233 922 233Q834 233 800 271Q766 309 754 375L750 375Q710 309 660.50 271Q611 233 561 233Q463 233 416 291.50Q369 350 369 465Q369 534 385.50 618.50Q402 703 436 787Q470 871 520.50 941Q571 1011 639.50 1053.50Q708 1096 793 1096Q868 1096 928 1081.50Q988 1067 1034 1044L911 535Q904 507 900.50 485Q897 463 897 449Q897 417 906 401Q915 385 932 385Q975 385 1009.50 427.50Q1044 470 1070 538.50Q1096 607 1113.50 686Q1131 765 1140 839Q1149 913 1149 965Q1149 1085 1114.50 1164.50Q1080 1244 1015 1283.50Q950 1323 858 1323Q740 1323 640.50 1267.50Q541 1212 463 1115.50Q385 1019 330.50 894.50Q276 770 247.50 632Q219 494 219 356Q219 248 252 166Q285 84 354.50 38Q424-8 535-8Q621-8 705.50 11Q790 30 879 72L879-80Q799-118 708-141Q617-164 537-164M604 387Q648 387 685.50 454.50Q723 522 758 655L829 934Q817 939 804 940.50Q791 942 772 942Q721 942 680.50 894Q640 846 611 773.50Q582 701 566.50 623Q551 545 551 485Q551 433 564.50 410Q578 387 604 387Z"  horiz-adv-x="1327" vert-adv-y="2048"  />

      
      <glyph glyph-name="uni41" unicode="&#x41;" d="M-127 0L496 1468L821 1468L836 0L565 0L571 373L301 373L154 0L-127 0M387 598L584 598L596 1042Q598 1092 600 1137.50Q602 1183 606 1231L600 1231Q593 1186 579.50 1141.50Q566 1097 549 1047L387 598Z"  horiz-adv-x="963" vert-adv-y="2048"  />

      
      <glyph glyph-name="uni42" unicode="&#x42;" d="M-6 0L303 1462L639 1462Q733 1462 813.50 1431.50Q894 1401 943.50 1335Q993 1269 993 1161Q993 1073 964.50 993.50Q936 914 876 855Q816 796 723 768L723 760Q795 734 836 662.50Q877 591 877 494Q877 364 821.50 251Q766 138 657.50 69Q549 0 389 0L-6 0M297 219L389 219Q466 219 515.50 258.50Q565 298 588.50 363.50Q612 429 612 506Q612 581 577.50 618Q543 655 481 655L389 655L297 219M434 864L518 864Q583 864 628.50 900.50Q674 937 698.50 996Q723 1055 723 1120Q723 1183 690.50 1215Q658 1247 592 1247L516 1247L434 864Z"  horiz-adv-x="973" vert-adv-y="2048"  />

      
      <glyph glyph-name="uni43" unicode="&#x43;" d="M424-20Q309-20 230.50 35.50Q152 91 112 196.50Q72 302 72 451Q72 585 99 728.50Q126 872 179.50 1006.50Q233 1141 311.50 1248.50Q390 1356 493 1419.50Q596 1483 723 1483Q804 1483 880.50 1462.50Q957 1442 1020 1395L895 1190Q854 1224 813 1240.50Q772 1257 729 1257Q649 1257 586.50 1198Q524 1139 478 1044.50Q432 950 401.50 841.50Q371 733 356.50 633Q342 533 342 465Q342 329 379 268Q416 207 492 207Q548 207 605.50 224.50Q663 242 721 270L721 41Q654 9 575-5.50Q496-20 424-20Z"  horiz-adv-x="881" vert-adv-y="2048"  />

      
      <glyph glyph-name="uni44" unicode="&#x44;" d="M-4 0L305 1462L594 1462Q803 1462 912.50 1345.50Q1022 1229 1022 1014Q1022 879 996.50 736.50Q971 594 917 462.50Q863 331 779 226.50Q695 122 577.50 61Q460 0 307 0L-4 0M299 229L344 229Q432 229 499 280Q566 331 614 415.50Q662 500 692.50 601Q723 702 737.50 803.50Q752 905 752 989Q752 1117 706 1176Q660 1235 569 1235L512 1235L299 229Z"  horiz-adv-x="1034" vert-adv-y="2048"  />

      
      <glyph glyph-name="uni45" unicode="&#x45;" d="M-4 0L305 1462L905 1462L858 1239L514 1239L436 870L756 870L709 647L389 647L297 225L643 225L596 0L-4 0Z"  horiz-adv-x="807" vert-adv-y="2048"  />

      
      <glyph glyph-name="uni46" unicode="&#x46;" d="M-4 0L305 1462L903 1462L858 1239L514 1239L424 817L743 817L694 594L377 594L252 0L-4 0Z"  horiz-adv-x="772" vert-adv-y="2048"  />

      
      <glyph glyph-name="uni47" unicode="&#x47;" d="M496-20Q281-20 177.50 101.50Q74 223 74 451Q74 605 104 754.50Q134 904 193 1035.50Q252 1167 338.50 1267.50Q425 1368 538.50 1425.50Q652 1483 791 1483Q891 1483 977.50 1457.50Q1064 1432 1122 1391L1008 1174Q951 1215 891 1236Q831 1257 766 1257Q669 1257 590.50 1185Q512 1113 456 995.50Q400 878 370 741Q340 604 340 473Q340 382 359.50 323Q379 264 419 235.50Q459 207 518 207Q549 207 579.50 211.50Q610 216 641 225L719 596L559 596L604 815L1018 815L858 57Q758 19 664-0.50Q570-20 496-20Z"  horiz-adv-x="1065" vert-adv-y="2048"  />

      
      <glyph glyph-name="uni48" unicode="&#x48;" d="M-4 0L305 1462L561 1462L436 877L760 877L885 1462L1141 1462L829 0L573 0L711 649L389 649L252 0L-4 0Z"  horiz-adv-x="1075" vert-adv-y="2048"  />

      
      <glyph glyph-name="uni49" unicode="&#x49;" d="M-6 0L305 1462L559 1462L250 0L-6 0Z"  horiz-adv-x="496" vert-adv-y="2048"  />

      
      <glyph glyph-name="uni4a" unicode="&#x4a;" d="M-147-426Q-202-426-241.50-420Q-281-414-313-401L-262-178Q-236-191-211-197Q-186-203-160-203Q-108-203-76-166Q-44-129-24.50-71Q-5-13 8 49L307 1462L563 1462L256 10Q223-145 166-241.50Q109-338 30.50-382Q-48-426-147-426Z"  horiz-adv-x="492" vert-adv-y="2048"  />

      
      <glyph glyph-name="uni4b" unicode="&#x4b;" d="M-4 0L305 1462L561 1462L422 807L514 963L852 1462L1133 1462L672 782L829 0L549 0L449 598L362 522L252 0L-4 0Z"  horiz-adv-x="944" vert-adv-y="2048"  />

      
      <glyph glyph-name="uni4c" unicode="&#x4c;" d="M-4 0L305 1462L561 1462L297 225L649 225L604 0L-4 0Z"  horiz-adv-x="758" vert-adv-y="2048"  />

      
      <glyph glyph-name="uni4d" unicode="&#x4d;" d="M-4 0L305 1462L645 1462L676 449L682 449L1128 1462L1491 1462L1180 0L930 0L1104 821Q1110 849 1117.50 877Q1125 905 1132.50 933.50Q1140 962 1147 991L1143 991L696 0L473 0L444 985L438 985Q431 943 425 905Q419 867 413 832Q407 797 399 764L238 0L-4 0Z"  horiz-adv-x="1425" vert-adv-y="2048"  />

      
      <glyph glyph-name="uni4e" unicode="&#x4e;" d="M-4 0L305 1462L594 1462L766 469L772 469Q783 532 793 592Q803 652 812.50 704.50Q822 757 829 795L973 1462L1214 1462L905 0L616 0L444 1016L438 1016Q431 965 423 913Q415 861 406 813.50Q397 766 389.50 726Q382 686 377 657L236 0L-4 0Z"  horiz-adv-x="1149" vert-adv-y="2048"  />

      
      <glyph glyph-name="uni4f" unicode="&#x4f;" d="M446-20Q320-20 237 29.50Q154 79 113 182Q72 285 72 444Q72 557 90.50 677Q109 797 145 914Q181 1031 235 1134Q289 1237 360.50 1316Q432 1395 521 1440Q610 1485 715 1485Q907 1485 995 1370Q1083 1255 1083 1028Q1083 931 1067.50 816.50Q1052 702 1019.50 584.50Q987 467 936 359Q885 251 814.50 165.50Q744 80 652 30Q560-20 446-20M467 209Q525 209 573.50 250Q622 291 661 360.50Q700 430 729.50 517Q759 604 779 697Q799 790 809 877.50Q819 965 819 1034Q819 1148 787.50 1202.50Q756 1257 694 1257Q634 1257 584 1215Q534 1173 495 1102Q456 1031 426.50 943.50Q397 856 378 764Q359 672 349.50 588.50Q340 505 340 442Q340 354 354 303Q368 252 396.50 230.50Q425 209 467 209Z"  horiz-adv-x="1098" vert-adv-y="2048"  />

      
      <glyph glyph-name="uni50" unicode="&#x50;" d="M-4 0L305 1462L596 1462Q722 1462 803 1420.50Q884 1379 922.50 1303.50Q961 1228 961 1126Q961 1013 930 906.50Q899 800 835.50 714.50Q772 629 676 578.50Q580 528 449 528L362 528L252 0L-4 0M410 752L451 752Q530 752 584.50 795Q639 838 667.50 915Q696 992 696 1094Q696 1171 660.50 1205Q625 1239 553 1239L514 1239L410 752Z"  horiz-adv-x="909" vert-adv-y="2048"  />

      
      <glyph glyph-name="uni51" unicode="&#x51;" d="M500-348L410-16Q400-16 392.50-15.50Q385-15 377-14Q274-3 206 50Q138 103 105 201Q72 299 72 444Q72 557 90.50 677Q109 797 145 914Q181 1031 235 1134Q289 1237 360.50 1316Q432 1395 521 1440Q610 1485 715 1485Q907 1485 995 1370Q1083 1255 1083 1028Q1083 932 1068 818.50Q1053 705 1021.50 587.50Q990 470 940.50 362.50Q891 255 822.50 170Q754 85 664 37L795-348L500-348M467 209Q525 209 573.50 250Q622 291 661 360.50Q700 430 729.50 517Q759 604 779 697Q799 790 809 877.50Q819 965 819 1034Q819 1148 787.50 1202.50Q756 1257 694 1257Q634 1257 584 1215Q534 1173 495 1102Q456 1031 426.50 943.50Q397 856 378 764Q359 672 349.50 588.50Q340 505 340 442Q340 354 354 303Q368 252 396.50 230.50Q425 209 467 209Z"  horiz-adv-x="1098" vert-adv-y="2048"  />

      
      <glyph glyph-name="uni52" unicode="&#x52;" d="M-4 0L305 1462L582 1462Q777 1462 873 1376Q969 1290 969 1130Q969 1007 934 905Q899 803 834.50 732Q770 661 682 629L825 0L543 0L440 578L373 578L252 0L-4 0M418 786L477 786Q534 786 575.50 813Q617 840 644.50 885Q672 930 685 985Q698 1040 698 1096Q698 1170 662 1206.50Q626 1243 555 1243L514 1243L418 786Z"  horiz-adv-x="948" vert-adv-y="2048"  />

      
      <glyph glyph-name="uni53" unicode="&#x53;" d="M274-20Q174-20 95.50-1Q17 18-43 61L8 326Q61 284 133.50 252.50Q206 221 276 221Q315 221 350.50 232.50Q386 244 413 268Q440 292 455.50 329.50Q471 367 471 420Q471 462 460.50 497Q450 532 421 570Q392 608 338 659Q279 714 239 768Q199 822 179.50 886Q160 950 160 1034Q160 1131 189.50 1213Q219 1295 277 1355.50Q335 1416 420.50 1449.50Q506 1483 618 1483Q697 1483 781 1459Q865 1435 928 1389L811 1157Q756 1198 703.50 1221.50Q651 1245 604 1245Q568 1245 536 1233.50Q504 1222 480 1198.50Q456 1175 442 1140.50Q428 1106 428 1061Q428 1019 442 983Q456 947 489 908.50Q522 870 578 819Q636 768 672.50 713.50Q709 659 726 594.50Q743 530 743 449Q743 354 713.50 269Q684 184 625.50 119Q567 54 479 17Q391-20 274-20Z"  horiz-adv-x="834" vert-adv-y="2048"  />

      
      <glyph glyph-name="uni54" unicode="&#x54;" d="M143 0L406 1235L162 1235L211 1462L954 1462L905 1235L662 1235L399 0L143 0Z"  horiz-adv-x="795" vert-adv-y="2048"  />

      
      <glyph glyph-name="uni55" unicode="&#x55;" d="M408-20Q303-20 227 19Q151 58 110.50 132.50Q70 207 70 311Q70 348 75.50 393.50Q81 439 90 485L299 1462L555 1462L346 479Q337 444 333.50 411Q330 378 330 352Q330 279 358.50 244Q387 209 442 209Q497 209 535.50 238Q574 267 601.50 328.50Q629 390 649 489L858 1462L1114 1462L899 455Q868 305 807.50 198.50Q747 92 649.50 36Q552-20 408-20Z"  horiz-adv-x="1042" vert-adv-y="2048"  />

      
      <glyph glyph-name="uni56" unicode="&#x56;" d="M203 0L184 1462L446 1462L434 629Q433 585 431 542.50Q429 500 425.50 453Q422 406 416 348L420 348Q431 388 444 430Q457 472 473.50 517Q490 562 510 610L854 1462L1128 1462L498 0L203 0Z"  horiz-adv-x="950" vert-adv-y="2048"  />

      
      <glyph glyph-name="uni57" unicode="&#x57;" d="M139 0L184 1462L432 1462L403 702Q399 618 394 552Q389 486 383 436L387 436Q410 502 435 568.50Q460 635 487 702L788 1462L1006 1462L979 715Q975 629 971.50 566.50Q968 504 963 438L967 438Q981 483 996 526.50Q1011 570 1028.50 615.50Q1046 661 1065 711L1352 1462L1610 1462L1042 0L748 0L770 713Q770 743 771.50 776.50Q773 810 776 846.50Q779 883 782 920L778 920Q763 872 747 825Q731 778 713 731L430 0L139 0Z"  horiz-adv-x="1434" vert-adv-y="2048"  />

      
      <glyph glyph-name="uni58" unicode="&#x58;" d="M-119 0L336 750L215 1462L481 1462L537 1014L772 1462L1047 1462L627 745L766 0L489 0L432 483L154 0L-119 0Z"  horiz-adv-x="897" vert-adv-y="2048"  />

      
      <glyph glyph-name="uni59" unicode="&#x59;" d="M182 0L299 557L182 1462L449 1462L494 893L780 1462L1055 1462L559 565L438 0L182 0Z"  horiz-adv-x="870" vert-adv-y="2048"  />

      
      <glyph glyph-name="uni5a" unicode="&#x5a;" d="M-82 0L-43 184L596 1239L190 1239L238 1462L934 1462L895 1276L254 225L682 225L635 0L-82 0Z"  horiz-adv-x="797" vert-adv-y="2048"  />

      
      <glyph glyph-name="uni5b" unicode="&#x5b;" d="M-82-338L307 1489L735 1489L694 1294L489 1294L184-143L389-143L346-338L-82-338Z"  horiz-adv-x="584" vert-adv-y="2048"  />

      
      <glyph glyph-name="uni5c" unicode="&#x5c;" d="M393-14L203 1477L420 1477L612-14L393-14Z"  horiz-adv-x="758" vert-adv-y="2048"  />

      
      <glyph glyph-name="uni5d" unicode="&#x5d;" d="M-150-338L-109-143L96-143L403 1294L197 1294L238 1489L668 1489L279-338L-150-338Z"  horiz-adv-x="584" vert-adv-y="2048"  />

      
      <glyph glyph-name="uni5e" unicode="&#x5e;" d="M-12 584L535 1462L678 1462L891 584L668 584L541 1108L221 584L-12 584Z"  horiz-adv-x="889" vert-adv-y="2048"  />

      
      <glyph glyph-name="uni5f" unicode="&#x5f;" d="M-188-338L-152-150L561-150L522-338L-188-338Z"  horiz-adv-x="709" vert-adv-y="2048"  />

      
      <glyph glyph-name="uni60" unicode="&#x60;" d="M481 1241Q456 1276 419 1333.50Q382 1391 348.50 1450Q315 1509 297 1550L297 1569L573 1569Q584 1525 596.50 1476.50Q609 1428 625.50 1375.50Q642 1323 662 1266L659 1241L481 1241Z"  horiz-adv-x="596" vert-adv-y="2048"  />

      
      <glyph glyph-name="uni61" unicode="&#x61;" d="M264-20Q194-20 143.50 18.50Q93 57 66 129.50Q39 202 39 303Q39 393 56 503.50Q73 614 107 725.50Q141 837 194 930Q247 1023 319 1080Q391 1137 483 1137Q528 1137 565.50 1120.50Q603 1104 632 1069.50Q661 1035 678 979L684 979L733 1116L946 1116L709 0L510 0L512 145L506 145Q470 96 434 59Q398 22 357 1Q316-20 264-20M367 188Q422 188 462 240Q502 292 529.50 368.50Q557 445 575 518Q598 615 606 676Q614 737 614 786Q614 852 592 887Q570 922 528 922Q485 922 448.50 880.50Q412 839 383.50 772Q355 705 334.50 626Q314 547 303.50 470.50Q293 394 293 336Q293 263 311.50 225.50Q330 188 367 188Z"  horiz-adv-x="932" vert-adv-y="2048"  />

      
      <glyph glyph-name="uni62" unicode="&#x62;" d="M440-20Q392-20 354.50-2.50Q317 15 290 48Q263 81 246 127L240 127L184 0L-14 0L315 1556L561 1556L475 1147Q471 1130 465 1105.50Q459 1081 451.50 1053Q444 1025 434 995L438 995Q472 1045 508.50 1076Q545 1107 586.50 1122Q628 1137 676 1137Q744 1137 793 1099Q842 1061 868.50 989Q895 917 895 815Q895 722 877 610Q859 498 823.50 387Q788 276 733.50 184Q679 92 605.50 36Q532-20 440-20M406 188Q446 188 481.50 229.50Q517 271 545.50 338.50Q574 406 595 485.50Q616 565 627.50 641.50Q639 718 639 776Q639 852 620 887Q601 922 563 922Q523 922 489 892Q455 862 428 811Q401 760 380 697Q359 634 345 567.50Q331 501 324 439.50Q317 378 317 330Q317 260 339 224Q361 188 406 188Z"  horiz-adv-x="928" vert-adv-y="2048"  />

      
      <glyph glyph-name="uni63" unicode="&#x63;" d="M340-20Q245-20 179 21.50Q113 63 79 141Q45 219 45 330Q45 430 63 541Q81 652 119 758Q157 864 217.50 949.50Q278 1035 363.50 1086Q449 1137 561 1137Q630 1137 688.50 1119.50Q747 1102 799 1067L698 870Q669 893 633 907.50Q597 922 563 922Q493 922 442.50 863Q392 804 360.50 714.50Q329 625 314 530.50Q299 436 299 365Q299 308 310.50 269.50Q322 231 345.50 212Q369 193 403 193Q445 193 495 212.50Q545 232 600 272L600 59Q553 27 483.50 3.50Q414-20 340-20Z"  horiz-adv-x="735" vert-adv-y="2048"  />

      
      <glyph glyph-name="uni64" unicode="&#x64;" d="M262-20Q193-20 143 18.50Q93 57 66 129.50Q39 202 39 303Q39 390 56 499.50Q73 609 107 721Q141 833 192.50 927Q244 1021 313.50 1079Q383 1137 471 1137Q518 1137 558.50 1122Q599 1107 630 1076Q661 1045 678 997L684 997Q689 1034 694.50 1068.50Q700 1103 705 1133Q710 1163 715 1186L795 1556L1040 1556L709 0L510 0L512 133L506 133Q467 84 431 50Q395 16 355-2Q315-20 262-20M367 188Q409 188 443.50 220Q478 252 505.50 305.50Q533 359 553.50 424Q574 489 587.50 556.50Q601 624 607.50 684Q614 744 614 786Q614 854 593 888Q572 922 528 922Q482 922 445 877.50Q408 833 379.50 762.50Q351 692 331.50 611.50Q312 531 302.50 457Q293 383 293 334Q293 262 311.50 225Q330 188 367 188Z"  horiz-adv-x="932" vert-adv-y="2048"  />

      
      <glyph glyph-name="uni65" unicode="&#x65;" d="M373-20Q271-20 197 22.50Q123 65 83 145.50Q43 226 43 338Q43 486 77 628Q111 770 177 884.50Q243 999 341.50 1067Q440 1135 569 1135Q692 1135 768 1066Q844 997 844 874Q844 777 807 702.50Q770 628 700 578Q630 528 532.50 502.50Q435 477 313 477L297 477Q291 449 288 420.50Q285 392 285 365Q285 266 322 223Q359 180 432 180Q497 180 551 196.50Q605 213 678 254L678 63Q605 16 529.50-2Q454-20 373-20M332 655L338 655Q443 655 503.50 680.50Q564 706 590 751Q616 796 616 852Q616 892 595.50 916Q575 940 535 940Q494 940 456 906Q418 872 386.50 808.50Q355 745 332 655Z"  horiz-adv-x="864" vert-adv-y="2048"  />

      
      <glyph glyph-name="uni66" unicode="&#x66;" d="M-109-492Q-143-492-174.50-488.50Q-206-485-240-473L-240-258Q-221-265-192-269.50Q-163-274-143-274Q-74-274-50.50-223Q-27-172-10-90L203 909L88 909L115 1040L244 1112L266 1206Q281 1274 302.50 1338Q324 1402 359 1454Q394 1506 450 1536.50Q506 1567 590 1567Q640 1567 691 1556.50Q742 1546 791 1522L705 1333Q685 1344 662 1351Q639 1358 621 1358Q573 1358 550 1317Q527 1276 512 1208L492 1116L649 1116L608 909L449 909L229-111Q206-225 168.50-311Q131-397 65.50-444.50Q0-492-109-492Z"  horiz-adv-x="555" vert-adv-y="2048"  />

      
      <glyph glyph-name="uni67" unicode="&#x67;" d="M221-492Q40-493-50.50-425.50Q-141-358-140-229Q-139-116-68-32Q3 52 126 94Q95 108 72 144Q49 180 49 228Q49 290 90 341.50Q131 393 202 444Q164 470 140.50 529.50Q117 589 117 665Q117 782 169.50 893Q222 1004 322 1068Q367 1098 424 1116Q481 1134 539 1134Q594 1134 632 1124.50Q670 1115 693 1106L1003 1106L972 960L836 922Q844 903 848 879Q852 855 852 828Q852 745 818 652.50Q784 560 728 498Q673 438 597 406Q521 374 426 374Q390 374 372.50 373Q355 372 347 369Q304 350 281 318.50Q258 287 258 258Q258 232 283 224Q294 220 311 218.50Q328 217 352 217L529 217Q608 217 659.50 189.50Q711 162 736.50 110.50Q762 59 762-13Q762-148 701.50-249.50Q641-351 538-410Q472-450 391-470.50Q310-491 221-492M230-307Q284-307 334-293Q384-279 423-252Q467-223 494-178.50Q521-134 521-80Q521-63 516-48.50Q511-34 497-24Q484-15 460-10Q436-5 399-5L257-5Q217-5 179-38.50Q141-72 116.50-119.50Q92-167 92-209Q92-265 127.50-286.50Q163-308 230-307M427 547Q472 547 508 581.50Q544 616 569 676.50Q594 737 604 815Q611 865 608 896.50Q605 928 591 944Q584 952 573 957Q562 962 547 962Q509 962 478 937.50Q447 913 424 873Q401 833 386.50 786.50Q372 740 366 696Q361 659 361 631.50Q361 604 369 585Q386 547 427 547Z"  horiz-adv-x="911" vert-adv-y="2048"  />

      
      <glyph glyph-name="uni68" unicode="&#x68;" d="M-12 0L317 1556L563 1556L489 1212Q482 1178 472 1140.50Q462 1103 451 1065Q440 1027 428 991L432 991Q462 1038 497 1070.50Q532 1103 574.50 1120Q617 1137 668 1137Q735 1137 782.50 1108Q830 1079 855.50 1025Q881 971 881 895Q881 857 873 806Q865 755 856 709L707 0L461 0L598 649Q609 697 616 742.50Q623 788 623 829Q623 867 605 890Q587 913 549 913Q511 913 478 885Q445 857 417 793.50Q389 730 365 621L233 0L-12 0Z"  horiz-adv-x="926" vert-adv-y="2048"  />

      
      <glyph glyph-name="uni69" unicode="&#x69;" d="M-12 0L225 1116L469 1116L233 0L-12 0M385 1262Q327 1262 297.50 1288Q268 1314 268 1366Q268 1409 285.50 1451.50Q303 1494 339.50 1522Q376 1550 432 1550Q488 1550 518.50 1525.50Q549 1501 549 1448Q549 1372 504 1317Q459 1262 385 1262Z"  horiz-adv-x="457" vert-adv-y="2048"  />

      
      <glyph glyph-name="uni6a" unicode="&#x6a;" d="M-131-492Q-165-492-196.50-488.50Q-228-485-260-473L-260-256Q-242-265-214-269.50Q-186-274-166-274Q-125-274-100-255Q-75-236-58.50-193Q-42-150-27-78L225 1116L469 1116L213-96Q187-219 148.50-307.50Q110-396 44.50-444Q-21-492-131-492M387 1262Q329 1262 299.50 1288Q270 1314 270 1366Q270 1409 287.50 1451.50Q305 1494 341.50 1522Q378 1550 434 1550Q490 1550 520.50 1525.50Q551 1501 551 1448Q551 1372 506 1317Q461 1262 387 1262Z"  horiz-adv-x="459" vert-adv-y="2048"  />

      
      <glyph glyph-name="uni6b" unicode="&#x6b;" d="M-14 0L317 1556L563 1556L418 883Q411 849 402 813Q393 777 383 738Q373 699 360 657L365 657L705 1116L973 1116L616 647L758 0L492 0L403 449L301 346L231 0L-14 0Z"  horiz-adv-x="870" vert-adv-y="2048"  />

      
      <glyph glyph-name="uni6c" unicode="&#x6c;" d="M-14 0L317 1556L563 1556L231 0L-14 0Z"  horiz-adv-x="453" vert-adv-y="2048"  />

      
      <glyph glyph-name="uni6d" unicode="&#x6d;" d="M-14 0L223 1116L422 1116L408 981L416 981Q446 1029 484 1064Q522 1099 567 1118Q612 1137 662 1137Q745 1137 795 1102.50Q845 1068 866 995L872 995Q904 1039 943.50 1071Q983 1103 1028.50 1120Q1074 1137 1124 1137Q1222 1137 1276.50 1077.50Q1331 1018 1331 907Q1331 873 1325.50 830.50Q1320 788 1311 743L1153 0L907 0L1051 680Q1060 721 1065.50 759Q1071 797 1071 823Q1071 870 1054.50 891.50Q1038 913 1004 913Q968 913 940.50 889.50Q913 866 892.50 827.50Q872 789 857.50 743.50Q843 698 834 653L694 0L449 0L596 688Q604 728 609 764.50Q614 801 614 825Q614 870 597.50 891.50Q581 913 549 913Q509 913 478.50 885.50Q448 858 425.50 812Q403 766 387 710Q371 654 360 598L233 0L-14 0Z"  horiz-adv-x="1374" vert-adv-y="2048"  />

      
      <glyph glyph-name="uni6e" unicode="&#x6e;" d="M-14 0L223 1116L420 1116L410 977L416 977Q447 1027 484.50 1063Q522 1099 565.50 1118Q609 1137 657 1137Q716 1137 767 1114Q818 1091 849.50 1039Q881 987 881 899Q881 862 874 815Q867 768 856 713L704 0L459 0L598 655Q607 703 615 749Q623 795 623 829Q623 870 606.50 891.50Q590 913 553 913Q505 913 468.50 872.50Q432 832 405 759Q378 686 356 588L233 0L-14 0Z"  horiz-adv-x="926" vert-adv-y="2048"  />

      
      <glyph glyph-name="uni6f" unicode="&#x6f;" d="M354-20Q256-20 186.50 23Q117 66 80 147Q43 228 43 342Q43 429 60.50 534.50Q78 640 115 746Q152 852 212.50 940.50Q273 1029 359 1083Q445 1137 559 1137Q656 1137 724.50 1093Q793 1049 829.50 967.50Q866 886 866 772Q866 674 847.50 565Q829 456 790 352Q751 248 690.50 164Q630 80 546 30Q462-20 354-20M383 188Q426 188 463 228Q500 268 528.50 334Q557 400 577 478.50Q597 557 607.50 634.50Q618 712 618 774Q618 823 608.50 857.50Q599 892 578.50 910Q558 928 526 928Q480 928 442.50 886Q405 844 376.50 776Q348 708 329 628.50Q310 549 300.50 473Q291 397 291 340Q291 268 314 228Q337 188 383 188Z"  horiz-adv-x="909" vert-adv-y="2048"  />

      
      <glyph glyph-name="uni70" unicode="&#x70;" d="M-115-483L223 1116L424 1116L412 965L420 965Q458 1025 497 1063Q536 1101 579 1119Q622 1137 670 1137Q740 1137 789.50 1101.50Q839 1066 866 994Q893 922 893 811Q893 715 875 603Q857 491 821 381Q785 271 731.50 180Q678 89 606.50 34.50Q535-20 446-20Q400-20 363-2.50Q326 15 299 48Q272 81 256 127L250 127Q243 72 234 22Q225-28 219-63L129-483L-115-483M403 195Q446 195 482.50 235.50Q519 276 548 342.50Q577 409 597.50 487Q618 565 628.50 642Q639 719 639 780Q639 856 620.50 892Q602 928 567 928Q528 928 494 896.50Q460 865 432.50 812.50Q405 760 383.50 695.50Q362 631 347 563.50Q332 496 324.50 436Q317 376 317 332Q317 263 338.50 229Q360 195 403 195Z"  horiz-adv-x="928" vert-adv-y="2048"  />

      
      <glyph glyph-name="uni71" unicode="&#x71;" d="M358-489L453-49Q457-30 463.50-3.50Q470 23 479 54.50Q488 86 498 119L492 119Q457 70 420.50 39Q384 8 343.50-6Q303-20 256-20Q189-20 139.50 16Q90 52 63.50 122Q37 192 37 293Q37 382 54.50 493Q72 604 107 717Q142 830 196 925Q250 1020 323 1078.50Q396 1137 489 1137Q544 1137 581.50 1119.50Q619 1102 643.50 1066.50Q668 1031 682 977L686 977L731 1116L946 1116L604-489L358-489M369 195Q409 195 442.50 225Q476 255 503 306.50Q530 358 551 421.50Q572 485 586 553Q600 621 607 685Q614 749 614 799Q614 858 592 890Q570 922 526 922Q484 922 448 881Q412 840 383.50 774Q355 708 334.50 629.50Q314 551 303.50 474.50Q293 398 293 338Q293 265 311.50 230Q330 195 369 195Z"  horiz-adv-x="934" vert-adv-y="2048"  />

      
      <glyph glyph-name="uni72" unicode="&#x72;" d="M-14 0L223 1116L416 1116L401 944L410 944Q444 1011 480.50 1053.50Q517 1096 561.50 1116.50Q606 1137 662 1137Q682 1137 701.50 1133.50Q721 1130 745 1122L672 856Q652 864 630 868Q608 872 584 872Q536 872 498 846Q460 820 431.50 777Q403 734 383.50 680.50Q364 627 352 571L231 0L-14 0Z"  horiz-adv-x="645" vert-adv-y="2048"  />

      
      <glyph glyph-name="uni73" unicode="&#x73;" d="M252-20Q160-20 97.50-4.50Q35 11-12 39L-12 274Q37 237 102.50 216Q168 195 221 195Q262 195 293.50 209.50Q325 224 342.50 252Q360 280 360 322Q360 350 352 376Q344 402 320.50 433Q297 464 252 506Q199 554 168.50 599.50Q138 645 125.50 692Q113 739 113 791Q113 887 152.50 965.50Q192 1044 269 1090.50Q346 1137 459 1137Q546 1137 623 1113Q700 1089 754 1051L655 862Q611 899 559.50 916.50Q508 934 471 934Q422 934 393.50 905.50Q365 877 365 827Q365 800 372 776.50Q379 753 401 725.50Q423 698 467 659Q518 612 552.50 569.50Q587 527 604 474.50Q621 422 621 346Q621 243 577.50 160Q534 77 451.50 28.50Q369-20 252-20Z"  horiz-adv-x="723" vert-adv-y="2048"  />

      
      <glyph glyph-name="uni74" unicode="&#x74;" d="M266-20Q157-20 111.50 42.50Q66 105 66 205Q66 239 71 279Q76 319 86 371L201 909L100 909L127 1040L264 1110L367 1354L541 1354L489 1116L664 1116L621 909L446 909L326 340Q321 317 317 296.50Q313 276 313 260Q313 226 327 211.50Q341 197 373 197Q388 197 419 202.50Q450 208 481 221L481 23Q435 0 374-10Q313-20 266-20Z"  horiz-adv-x="598" vert-adv-y="2048"  />

      
      <glyph glyph-name="uni75" unicode="&#x75;" d="M266-20Q195-20 145.50 8.50Q96 37 70.50 90.50Q45 144 45 219Q45 256 51.50 302.50Q58 349 66 393L221 1116L465 1116L326 453Q315 407 309 364Q303 321 303 287Q303 247 319.50 224Q336 201 371 201Q419 201 455.50 242Q492 283 519.50 357Q547 431 567 530L694 1116L938 1116L702 0L506 0L514 135L508 135Q476 87 438 52.50Q400 18 357-1Q314-20 266-20Z"  horiz-adv-x="926" vert-adv-y="2048"  />

      
      <glyph glyph-name="uni76" unicode="&#x76;" d="M156 0L123 1116L369 1116L365 592Q365 558 364 516.50Q363 475 360.50 434Q358 393 354 360L362 360Q370 387 379 413.50Q388 440 398.50 466Q409 492 418 516L668 1116L926 1116L420 0L156 0Z"  horiz-adv-x="817" vert-adv-y="2048"  />

      
      <glyph glyph-name="uni77" unicode="&#x77;" d="M106 0L131 1116L371 1116L352 631Q348 568 342.50 508.50Q337 449 332 393L338 393Q347 426 359 463Q371 500 384.50 538Q398 576 410 610L604 1116L883 1116L860 618Q857 559 852 497Q847 435 844 379L848 379Q863 422 877 466.50Q891 511 906.50 555.50Q922 600 938 643L1116 1116L1362 1116L913 0L629 0L659 592Q662 624 664.50 655.50Q667 687 669.50 719.50Q672 752 674 784L670 784Q661 756 651.50 729.50Q642 703 633 677Q624 651 614 623L379 0L106 0Z"  horiz-adv-x="1255" vert-adv-y="2048"  />

      
      <glyph glyph-name="uni78" unicode="&#x78;" d="M-100 0L264 575L145 1116L410 1116L459 786L645 1116L920 1116L569 567L694 0L430 0L373 356L168 0L-100 0Z"  horiz-adv-x="829" vert-adv-y="2048"  />

      
      <glyph glyph-name="uni79" unicode="&#x79;" d="M-23-492Q-64-492-97-487Q-130-482-156-473L-115-252Q-92-261-70-265.50Q-48-270-29-270Q22-270 52-236Q82-202 111-139L180 14L131 1116L379 1116L381 590Q381 555 380.50 519Q380 483 378.50 447Q377 411 375 375L381 375Q392 413 404.50 452Q417 491 429.50 525Q442 559 451 582L676 1116L934 1116L350-168Q306-263 257-336Q208-409 141.50-450.50Q75-492-23-492Z"  horiz-adv-x="823" vert-adv-y="2048"  />

      
      <glyph glyph-name="uni7a" unicode="&#x7a;" d="M-80 0L-47 152L436 907L133 907L178 1116L760 1116L725 950L254 209L582 209L537 0L-80 0Z"  horiz-adv-x="694" vert-adv-y="2048"  />

      
      <glyph glyph-name="uni7b" unicode="&#x7b;" d="M465-324Q278-324 196.50-255Q115-186 115-59Q115-32 119-2Q123 28 129 57L174 274Q177 290 180.50 308Q184 326 184 346Q184 409 151.50 439Q119 469 27 469L72 680Q170 682 224.50 725.50Q279 769 299 866L360 1157Q389 1287 448 1352.50Q507 1418 600 1440Q693 1462 825 1462L831 1462L784 1253Q696 1252 654.50 1219.50Q613 1187 596 1096L537 813Q517 715 452.50 651.50Q388 588 266 571L264 565Q350 540 389 491Q428 442 428 373Q428 350 425 321.50Q422 293 416 262L373 59Q370 40 368.50 23Q367 6 367-6Q367-61 391.50-87Q416-113 483-115L481-324L465-324Z"  horiz-adv-x="688" vert-adv-y="2048"  />

      
      <glyph glyph-name="uni7c" unicode="&#x7c;" d="M276-477L276 1571L494 1571L494-477L276-477Z"  horiz-adv-x="776" vert-adv-y="2048"  />

      
      <glyph glyph-name="uni7d" unicode="&#x7d;" d="M-121-324L-121-115Q-58-115-16.50-100Q25-85 50.50-50Q76-15 88 43L147 326Q167 424 232 487.50Q297 551 418 567L420 573Q334 598 294 647.50Q254 697 254 766Q254 791 257.50 818.50Q261 846 268 877L311 1079Q314 1098 315.50 1114.50Q317 1131 317 1145Q317 1199 285.50 1225.50Q254 1252 186 1253L231 1462L244 1462Q364 1462 434.50 1434.50Q505 1407 536 1351.50Q567 1296 567 1212Q567 1185 564 1147.50Q561 1110 555 1079L510 864Q506 848 503 830.50Q500 813 500 793Q500 730 533 700Q566 670 657 670L612 459Q548 458 501.50 437Q455 416 426.50 375Q398 334 385 272L324-18Q296-145 243-211Q190-277 102.50-300.50Q15-324-117-324L-121-324Z"  horiz-adv-x="688" vert-adv-y="2048"  />

      
      <glyph glyph-name="uni7e" unicode="&#x7e;" d="M475 616Q421 644 372 658Q323 672 279 672Q233 672 181.50 641Q130 610 78 551L78 784Q122 837 178 864Q234 891 301 891Q363 891 418.50 873Q474 855 532 827Q589 800 637 786Q685 772 729 772Q776 772 830 805Q884 838 930 893L930 659Q885 607 830 581Q775 555 709 555Q646 555 591.50 571.50Q537 588 475 616Z"  horiz-adv-x="969" vert-adv-y="2048"  />

      
      <glyph glyph-name="unia1" unicode="&#xa1;" d="M-82-373L172 649L383 649L201-373L-82-373M313 815Q260 815 229.50 844.50Q199 874 199 928Q199 1019 251 1076Q303 1133 373 1133Q433 1133 465.50 1104Q498 1075 498 1018Q498 965 477 918.50Q456 872 415 843.50Q374 815 313 815Z"  horiz-adv-x="506" vert-adv-y="2048"  />

      
      <glyph glyph-name="unia2" unicode="&#xa2;" d="M287-20L332 178Q224 201 175.50 288.50Q127 376 127 537Q127 623 143.50 723Q160 823 194.50 921.50Q229 1020 282 1104.50Q335 1189 407.50 1246.50Q480 1304 573 1319L608 1483L756 1483L723 1319Q769 1313 809.50 1295Q850 1277 881 1257L778 1057Q752 1080 715.50 1095Q679 1110 653 1110Q588 1110 537.50 1055Q487 1000 452 914Q417 828 399 731.50Q381 635 381 551Q381 463 406 422Q431 381 483 381Q524 381 565.50 396.50Q607 412 651 440L715 266Q664 223 596.50 202.50Q529 182 479 176L436-20L287-20Z"  horiz-adv-x="889" vert-adv-y="2048"  />

      
      <glyph glyph-name="unia3" unicode="&#xa3;" d="M-37 0L10 211Q57 238 91.50 273.50Q126 309 149.50 359.50Q173 410 188 479L223 647L96 647L137 840L262 840L319 1110Q345 1224 392 1307.50Q439 1391 515 1437Q591 1483 702 1483Q776 1483 845.50 1461.50Q915 1440 967 1399L862 1194Q827 1223 787 1239Q747 1255 709 1255Q646 1255 613 1210.50Q580 1166 561 1077L510 840L743 840L702 647L471 647L436 479Q418 390 372.50 328Q327 266 264 225L739 225L692 0L-37 0Z"  horiz-adv-x="889" vert-adv-y="2048"  />

      
      <glyph glyph-name="unia4" unicode="&#xa4;" d="M881 266L748 395Q700 366 646 350Q592 334 537 334Q477 334 422.50 350Q368 366 324 397L195 268L82 383L211 512Q179 559 163 612.50Q147 666 147 723Q147 779 163 831Q179 883 211 934L80 1065L195 1180L326 1049Q373 1083 427.50 1098.50Q482 1114 537 1114Q593 1114 646.50 1097.50Q700 1081 748 1049L881 1180L995 1067L864 936Q895 888 911.50 835Q928 782 928 723Q928 663 912 609Q896 555 864 508L993 381L881 266M537 496Q602 496 654 527Q706 558 737 610Q768 662 768 723Q768 785 736.50 837Q705 889 652.50 920.50Q600 952 537 952Q476 952 424 921Q372 890 340.50 838Q309 786 309 723Q309 661 340 609Q371 557 423 526.50Q475 496 537 496Z"  horiz-adv-x="1006" vert-adv-y="2048"  />

      
      <glyph glyph-name="unia5" unicode="&#xa5;" d="M190 0L242 240L27 240L61 406L276 406L307 553L92 553L129 717L305 717L223 1462L481 1462L506 911L762 1462L1026 1462L627 717L809 717L774 553L557 553L524 406L743 406L709 240L489 240L440 0L190 0Z"  horiz-adv-x="885" vert-adv-y="2048"  />

      
      <glyph glyph-name="unia6" unicode="&#xa6;" d="M276 791L276 1571L494 1571L494 791L276 791M276-477L276 303L494 303L494-477L276-477Z"  horiz-adv-x="776" vert-adv-y="2048"  />

      
      <glyph glyph-name="unia7" unicode="&#xa7;" d="M291 10Q211 10 143 28Q75 46 29 80L29 281Q92 229 158 207.50Q224 186 274 186Q342 186 383 227.50Q424 269 424 336Q424 370 406.50 395.50Q389 421 361 443.50Q333 466 301 489Q250 524 211 563Q172 602 149.50 650Q127 698 127 758Q127 828 151 881.50Q175 935 220 976Q265 1017 326 1049Q284 1090 265 1137Q246 1184 246 1253Q246 1327 285 1396Q324 1465 399.50 1510.50Q475 1556 582 1559Q668 1559 742 1538Q816 1517 877 1479L786 1311Q742 1348 691 1366Q640 1384 590 1384Q554 1384 526 1368Q498 1352 481.50 1324.50Q465 1297 465 1260Q465 1217 494 1185Q523 1153 575 1116Q643 1069 684 1027.50Q725 986 743.50 944Q762 902 762 854Q762 786 739.50 732Q717 678 675.50 633.50Q634 589 575 547Q604 515 624.50 467.50Q645 420 645 354Q645 259 601 181Q557 103 477.50 56.50Q398 10 291 10M467 635Q502 663 523.50 706.50Q545 750 545 801Q545 833 535 858.50Q525 884 500 910Q475 936 430 967Q400 952 379.50 927Q359 902 348.50 872.50Q338 843 338 811Q338 776 352 747Q366 718 394.50 691Q423 664 467 635Z"  horiz-adv-x="809" vert-adv-y="2048"  />

      
      <glyph glyph-name="unia8" unicode="&#xa8;" d="M760 1274Q711 1274 685 1298.50Q659 1323 659 1370Q659 1435 698 1485.50Q737 1536 809 1536Q853 1536 878 1512Q903 1488 903 1444Q903 1368 861 1321Q819 1274 760 1274M412 1274Q363 1274 337 1298.50Q311 1323 311 1370Q311 1435 350 1485.50Q389 1536 461 1536Q490 1536 510.50 1525.50Q531 1515 542 1494.50Q553 1474 553 1444Q553 1368 511.50 1321Q470 1274 412 1274Z"  horiz-adv-x="918" vert-adv-y="2048"  />

      
      <glyph glyph-name="unia9" unicode="&#xa9;" d="M838-20Q668-20 529.50 37Q391 94 292 195.50Q193 297 139.50 433.50Q86 570 86 729Q86 897 144.50 1035.50Q203 1174 307 1274Q411 1374 549.50 1428.50Q688 1483 848 1483Q1013 1483 1151.50 1426Q1290 1369 1392 1267Q1494 1165 1550 1027Q1606 889 1606 727Q1606 563 1548.50 426Q1491 289 1387 189Q1283 89 1143 34.50Q1003-20 838-20M879 266Q676 266 563.50 387.50Q451 509 451 729Q451 875 501.50 979Q552 1083 647.50 1138.50Q743 1194 877 1194Q954 1194 1027.50 1175.50Q1101 1157 1174 1122L1096 967Q1044 993 992.50 1005.50Q941 1018 895 1018Q786 1018 726 946Q666 874 666 723Q666 578 723 510Q780 442 897 442Q954 442 1015.50 457.50Q1077 473 1135 502L1135 326Q1075 297 1011.50 281.50Q948 266 879 266M852 115Q984 115 1093.50 159.50Q1203 204 1283 286Q1363 368 1406.50 480Q1450 592 1450 727Q1450 867 1404.50 981Q1359 1095 1277 1177Q1195 1259 1084.50 1303.50Q974 1348 844 1348Q708 1348 597 1300.50Q486 1253 406 1168.50Q326 1084 283 970.50Q240 857 240 725Q240 587 286.50 474.50Q333 362 416.50 281.50Q500 201 611 158Q722 115 852 115Z"  horiz-adv-x="1692" vert-adv-y="2048"  />

      
      <glyph glyph-name="uniaa" unicode="&#xaa;" d="M324 756Q282 756 238.50 779.50Q195 803 165 858.50Q135 914 135 1010Q135 1091 156 1173Q177 1255 218 1324Q259 1393 320 1435Q381 1477 461 1477Q518 1477 551 1449Q584 1421 600 1376L606 1376L641 1464L764 1464L616 768L485 768L496 860L489 860Q462 816 422.50 786Q383 756 324 756M369 903Q399 903 423 923.50Q447 944 465.50 977.50Q484 1011 496 1051Q508 1091 514 1131Q520 1171 520 1204Q520 1269 504.50 1301Q489 1333 457 1333Q424 1333 397 1305.50Q370 1278 351 1232.50Q332 1187 321.50 1131.50Q311 1076 311 1020Q311 959 326 931Q341 903 369 903Z"  horiz-adv-x="616" vert-adv-y="2048"  />

      
      <glyph glyph-name="uniab" unicode="&#xab;" d="M252 92L43 543L45 567L397 1014L571 905L297 549L451 178L252 92M674 92L463 543L467 567L819 1014L993 905L719 549L870 178L674 92Z"  horiz-adv-x="983" vert-adv-y="2048"  />

      
      <glyph glyph-name="uniac" unicode="&#xac;" d="M909 831L909 242L688 242L688 614L88 614L88 831L909 831Z"  horiz-adv-x="969" vert-adv-y="2048"  />

      
      <glyph glyph-name="uniad" unicode="&#xad;" d="M25 432L74 668L553 668L502 432L25 432Z"  horiz-adv-x="584" vert-adv-y="2048"  />

      
      <glyph glyph-name="uniae" unicode="&#xae;" d="M537 307L537 1184L815 1184Q987 1184 1075 1118Q1163 1052 1163 918Q1163 832 1129 771.50Q1095 711 1020 676L1217 307L987 307L834 639L748 639L748 307L537 307M748 788L803 788Q871 788 909.50 816.50Q948 845 948 909Q948 968 915 993Q882 1018 805 1018L748 1018L748 788M838-20Q668-20 529.50 37Q391 94 292 195.50Q193 297 139.50 433.50Q86 570 86 729Q86 897 144.50 1035.50Q203 1174 307 1274Q411 1374 549.50 1428.50Q688 1483 848 1483Q1013 1483 1151.50 1426Q1290 1369 1392 1267Q1494 1165 1550 1027Q1606 889 1606 727Q1606 563 1548.50 426Q1491 289 1387 189Q1283 89 1143 34.50Q1003-20 838-20M852 115Q984 115 1093.50 159.50Q1203 204 1283 286Q1363 368 1406.50 480Q1450 592 1450 727Q1450 867 1404.50 981Q1359 1095 1277 1177Q1195 1259 1084.50 1303.50Q974 1348 844 1348Q708 1348 597 1300.50Q486 1253 406 1168.50Q326 1084 283 970.50Q240 857 240 725Q240 587 286.50 474.50Q333 362 416.50 281.50Q500 201 611 158Q722 115 852 115Z"  horiz-adv-x="1692" vert-adv-y="2048"  />

      
      <glyph glyph-name="uniaf" unicode="&#xaf;" d="M199 1556L240 1745L1126 1745L1087 1556L199 1556Z"  horiz-adv-x="877" vert-adv-y="2048"  />

      
      <glyph glyph-name="unib0" unicode="&#xb0;" d="M369 883Q282 883 212.50 921Q143 959 102 1027Q61 1095 61 1184Q61 1273 102 1340.50Q143 1408 213 1445.50Q283 1483 369 1483Q458 1483 528 1445Q598 1407 638 1339.50Q678 1272 678 1184Q678 1094 637 1026Q596 958 526 920.50Q456 883 369 883M369 1042Q434 1042 471 1080Q508 1118 508 1184Q508 1247 471.50 1285Q435 1323 369 1323Q303 1323 267 1283.50Q231 1244 231 1184Q231 1118 268.50 1080Q306 1042 369 1042Z"  horiz-adv-x="741" vert-adv-y="2048"  />

      
      <glyph glyph-name="unib1" unicode="&#xb1;" d="M88 0L88 217L922 217L922 0L88 0M616 921L922 921L922 704L616 704L616 323L395 323L395 704L88 704L88 921L395 921L395 1307L616 1307L616 921Z"  horiz-adv-x="969" vert-adv-y="2048"  />

      
      <glyph glyph-name="unib2" unicode="&#xb2;" d="M104 852L135 1010L360 1251Q412 1307 449.50 1352Q487 1397 507.50 1437.50Q528 1478 528 1520Q528 1554 511.50 1573.50Q495 1593 463 1593Q425 1593 386 1565.50Q347 1538 315 1507L254 1634Q305 1691 375.50 1721Q446 1751 518 1751Q619 1751 673 1697Q727 1643 727 1554Q727 1483 694.50 1419Q662 1355 611.50 1297.50Q561 1240 506 1188L338 1018L631 1018L596 852L104 852Z"  horiz-adv-x="621" vert-adv-y="2048"  />

      
      <glyph glyph-name="unib3" unicode="&#xb3;" d="M328 836Q262 836 212 851.50Q162 867 127 895L127 1073Q164 1038 216.50 1018.50Q269 999 332 999Q395 999 432 1035.50Q469 1072 469 1133Q469 1177 442 1202Q415 1227 369 1227L287 1227L317 1370L387 1370Q435 1370 468 1389Q501 1408 518 1440.50Q535 1473 535 1513Q535 1552 515 1571.50Q495 1591 461 1591Q424 1591 389 1574.50Q354 1558 313 1526L246 1653Q305 1703 371.50 1726Q438 1749 502 1749Q580 1749 629 1723Q678 1697 701.50 1652.50Q725 1608 725 1550Q725 1469 680.50 1407Q636 1345 545 1313L543 1305Q590 1285 620.50 1243Q651 1201 651 1128Q651 1036 611 970.50Q571 905 498.50 870.50Q426 836 328 836Z"  horiz-adv-x="621" vert-adv-y="2048"  />

      
      <glyph glyph-name="unib4" unicode="&#xb4;" d="M227 1241L231 1262Q273 1314 311.50 1366Q350 1418 384.50 1469Q419 1520 449 1569L727 1569L725 1552Q703 1525 660 1481.50Q617 1438 567.50 1390.50Q518 1343 473.50 1302.50Q429 1262 403 1241L227 1241Z"  horiz-adv-x="596" vert-adv-y="2048"  />

      
      <glyph glyph-name="uni03BC" unicode="&#x03BC;" d="M-120-492L222 1116L466 1116L327 453Q317 407 311.50 369.50Q306 332 306 303Q306 254 321.50 228.50Q337 203 374 203Q414 203 448 230.50Q482 258 511.50 325.50Q541 393 566 512L695 1116L939 1116L703 0L511 0L513 121L509 121Q482 69 452 38Q422 7 390.50-6.50Q359-20 325-20Q291-20 266.50-4Q242 12 226 41L222 41Q221 16 219-12Q217-40 213.50-69Q210-98 204-129L126-492L-120-492Z"  horiz-adv-x="928" vert-adv-y="2048"  />

      
      <glyph glyph-name="unib6" unicode="&#xb6;" d="M512-260L510 598Q497 592 480 589Q463 586 440 586Q356 586 302 630.50Q248 675 217.50 748Q187 821 174.50 908Q162 995 162 1081Q162 1174 179 1259.50Q196 1345 233.50 1411.50Q271 1478 331.50 1517Q392 1556 479 1556L930 1556L930-260L782-260L782 1423L659 1423L659-260L512-260Z"  horiz-adv-x="1022" vert-adv-y="2048"  />

      
      <glyph glyph-name="unib7" unicode="&#xb7;" d="M246 564Q186 564 153.50 592.50Q121 621 121 678Q121 758 169 820.50Q217 883 305 883Q361 883 391.50 852.50Q422 822 422 768Q422 677 368.50 620.50Q315 564 246 564Z"  horiz-adv-x="479" vert-adv-y="2048"  />

      
      <glyph glyph-name="unib8" unicode="&#xb8;" d="M-63-492Q-102-492-139-487.50Q-176-483-213-473L-213-330Q-191-336-161.50-340Q-132-344-98-344Q-63-344-38.50-333Q-14-322-1-301Q12-280 12-252Q12-215-18.50-192.50Q-49-170-111-166L-8 0L121 0L66-86Q129-98 169-139Q209-180 209-248Q209-334 172.50-388Q136-442 74.50-467Q13-492-63-492Z"  horiz-adv-x="336" vert-adv-y="2048"  />

      
      <glyph glyph-name="unib9" unicode="&#xb9;" d="M317 852L434 1393Q442 1425 449 1449.50Q456 1474 463 1499Q450 1487 439 1475.50Q428 1464 420 1458L305 1374L227 1489L535 1729L692 1729L506 852L317 852Z"  horiz-adv-x="621" vert-adv-y="2048"  />

      
      <glyph glyph-name="uniba" unicode="&#xba;" d="M358 754Q249 754 194 824Q139 894 139 1012Q139 1096 160.50 1178.50Q182 1261 224.50 1329Q267 1397 330 1438Q393 1479 477 1479Q569 1479 631.50 1418Q694 1357 694 1223Q694 1139 671.50 1056Q649 973 606 904.50Q563 836 500.50 795Q438 754 358 754M383 907Q417 907 442.50 933.50Q468 960 485.50 1004.50Q503 1049 511.50 1102Q520 1155 520 1208Q520 1267 505 1297Q490 1327 455 1327Q421 1327 395 1300Q369 1273 351 1228Q333 1183 324 1129.50Q315 1076 315 1022Q315 961 331.50 934Q348 907 383 907Z"  horiz-adv-x="614" vert-adv-y="2048"  />

      
      <glyph glyph-name="unibb" unicode="&#xbb;" d="M580 92L406 199L680 557L526 926L725 1014L936 563L932 539L580 92M158 92L-16 199L258 557L106 926L303 1014L512 563L510 539L158 92Z"  horiz-adv-x="985" vert-adv-y="2048"  />

      
      <glyph glyph-name="unibc" unicode="&#xbc;" d="M168 0L1182 1462L1378 1462L362 0L168 0M270 586L387 1127Q395 1159 402 1183.50Q409 1208 416 1233Q403 1221 392 1209.50Q381 1198 373 1192L258 1108L180 1223L488 1463L645 1463L459 586L270 586M1058 0L1095 166L798 166L825 301L1231 883L1431 883L1310 315L1407 315L1374 166L1280 166L1243 0L1058 0M987 315L1126 315L1173 534Q1181 565 1187 591.50Q1193 618 1202 649Q1186 621 1172.50 595Q1159 569 1140 543L987 315Z"  horiz-adv-x="1497" vert-adv-y="2048"  />

      
      <glyph glyph-name="unibd" unicode="&#xbd;" d="M152 0L1166 1462L1362 1462L346 0L152 0M270 586L387 1127Q395 1159 402 1183.50Q409 1208 416 1233Q403 1221 392 1209.50Q381 1198 373 1192L258 1108L180 1223L488 1463L645 1463L459 586L270 586M841 0L872 158L1097 399Q1149 455 1186.50 500Q1224 545 1244.50 585.50Q1265 626 1265 668Q1265 702 1248.50 721.50Q1232 741 1200 741Q1162 741 1123 713.50Q1084 686 1052 655L991 782Q1042 839 1112.50 869Q1183 899 1255 899Q1356 899 1410 845Q1464 791 1464 702Q1464 631 1431.50 567Q1399 503 1348.50 445.50Q1298 388 1243 336L1075 166L1368 166L1333 0L841 0Z"  horiz-adv-x="1538" vert-adv-y="2048"  />

      
      <glyph glyph-name="unibe" unicode="&#xbe;" d="M281 570Q215 570 165 585.50Q115 601 80 629L80 807Q117 772 169.50 752.50Q222 733 285 733Q348 733 385 769.50Q422 806 422 867Q422 911 395 936Q368 961 322 961L240 961L270 1104L340 1104Q388 1104 421 1123Q454 1142 471 1174.50Q488 1207 488 1247Q488 1286 468 1305.50Q448 1325 414 1325Q377 1325 342 1308.50Q307 1292 266 1260L199 1387Q258 1437 324.50 1460Q391 1483 455 1483Q533 1483 582 1457Q631 1431 654.50 1386.50Q678 1342 678 1284Q678 1203 633.50 1141Q589 1079 498 1047L496 1039Q543 1019 573.50 977Q604 935 604 862Q604 770 564 704.50Q524 639 451.50 604.50Q379 570 281 570M193 0L1207 1462L1403 1462L387 0L193 0M1067 0L1104 166L807 166L834 301L1240 883L1440 883L1319 315L1416 315L1383 166L1289 166L1252 0L1067 0M996 315L1135 315L1182 534Q1190 565 1196 591.50Q1202 618 1211 649Q1195 621 1181.50 595Q1168 569 1149 543L996 315Z"  horiz-adv-x="1505" vert-adv-y="2048"  />

      
      <glyph glyph-name="unibf" unicode="&#xbf;" d="M522 645Q502 545 480.50 480.50Q459 416 427.50 367.50Q396 319 344 264Q291 206 247 161Q203 116 176.50 68Q150 20 150-49Q150-101 175.50-126.50Q201-152 250-152Q310-152 366.50-124.50Q423-97 473-61L510-254Q431-315 348.50-345Q266-375 186-375Q48-375-24-305Q-96-235-96-113Q-96-16-62 63.50Q-28 143 28 212Q84 281 150 344Q209 404 239 443.50Q269 483 284.50 527.50Q300 572 315 645L522 645M508 1128Q568 1128 600.50 1099.50Q633 1071 633 1014Q633 934 585 871.50Q537 809 447 809Q393 809 362.50 839.50Q332 870 332 924Q332 1015 385 1071.50Q438 1128 508 1128Z"  horiz-adv-x="682" vert-adv-y="2048"  />

      
      <glyph glyph-name="unic0" unicode="&#xc0;" d="M-127 0L496 1468L821 1468L836 0L565 0L571 373L301 373L154 0L-127 0M387 598L584 598L596 1042Q598 1092 600 1137.50Q602 1183 606 1231L600 1231Q593 1186 579.50 1141.50Q566 1097 549 1047L387 598M616 1622Q591 1657 554 1714.50Q517 1772 483.50 1831Q450 1890 432 1931L432 1950L708 1950Q719 1906 731.50 1857.50Q744 1809 760.50 1756.50Q777 1704 797 1647L794 1622L616 1622Z"  horiz-adv-x="963" vert-adv-y="2048"  />

      
      <glyph glyph-name="unic1" unicode="&#xc1;" d="M-127 0L496 1468L821 1468L836 0L565 0L571 373L301 373L154 0L-127 0M387 598L584 598L596 1042Q598 1092 600 1137.50Q602 1183 606 1231L600 1231Q593 1186 579.50 1141.50Q566 1097 549 1047L387 598M522 1622L526 1643Q568 1695 606.50 1747Q645 1799 679.50 1850Q714 1901 744 1950L1022 1950L1020 1933Q998 1906 955 1862.50Q912 1819 862.50 1771.50Q813 1724 768.50 1683.50Q724 1643 698 1622L522 1622Z"  horiz-adv-x="963" vert-adv-y="2048"  />

      
      <glyph glyph-name="unic2" unicode="&#xc2;" d="M-127 0L496 1468L821 1468L836 0L565 0L571 373L301 373L154 0L-127 0M387 598L584 598L596 1042Q598 1092 600 1137.50Q602 1183 606 1231L600 1231Q593 1186 579.50 1141.50Q566 1097 549 1047L387 598M393 1622L397 1645Q443 1692 485.50 1742.50Q528 1793 567.50 1845.50Q607 1898 641 1950L862 1950Q872 1911 891 1855Q910 1799 933 1743Q956 1687 975 1647L969 1622L821 1622Q805 1644 788 1669Q771 1694 753.50 1723.50Q736 1753 717 1786Q669 1734 626.50 1692.50Q584 1651 547 1622L393 1622Z"  horiz-adv-x="963" vert-adv-y="2048"  />

      
      <glyph glyph-name="unic3" unicode="&#xc3;" d="M-127 0L496 1468L821 1468L836 0L565 0L571 373L301 373L154 0L-127 0M387 598L584 598L596 1042Q598 1092 600 1137.50Q602 1183 606 1231L600 1231Q593 1186 579.50 1141.50Q566 1097 549 1047L387 598M374 1622Q392 1708 419 1776Q446 1844 490 1883.50Q534 1923 602 1923Q648 1923 681.50 1906.50Q715 1890 740 1869Q765 1848 787 1831.50Q809 1815 833 1815Q862 1815 881 1838.50Q900 1862 913 1925L1056 1925Q1037 1813 1001.50 1747Q966 1681 922 1652.50Q878 1624 831 1624Q786 1624 753 1640.50Q720 1657 694.50 1678.50Q669 1700 646 1716.50Q623 1733 598 1733Q572 1733 551 1707Q530 1681 518 1622L374 1622Z"  horiz-adv-x="963" vert-adv-y="2048"  />

      
      <glyph glyph-name="unic4" unicode="&#xc4;" d="M-127 0L496 1468L821 1468L836 0L565 0L571 373L301 373L154 0L-127 0M387 598L584 598L596 1042Q598 1092 600 1137.50Q602 1183 606 1231L600 1231Q593 1186 579.50 1141.50Q566 1097 549 1047L387 598M866 1655Q817 1655 791 1679.50Q765 1704 765 1751Q765 1816 804 1866.50Q843 1917 915 1917Q959 1917 984 1893Q1009 1869 1009 1825Q1009 1749 967 1702Q925 1655 866 1655M518 1655Q469 1655 443 1679.50Q417 1704 417 1751Q417 1816 456 1866.50Q495 1917 567 1917Q596 1917 616.50 1906.50Q637 1896 648 1875.50Q659 1855 659 1825Q659 1749 617.50 1702Q576 1655 518 1655Z"  horiz-adv-x="963" vert-adv-y="2048"  />

      
      <glyph glyph-name="unic5" unicode="&#xc5;" d="M-127 0L496 1468L821 1468L836 0L565 0L571 373L301 373L154 0L-127 0M387 598L584 598L596 1042Q598 1092 600 1137.50Q602 1183 606 1231L600 1231Q593 1186 579.50 1141.50Q566 1097 549 1047L387 598M704 1569Q594 1569 532.50 1631.50Q471 1694 471 1799Q471 1900 534 1962Q597 2024 704 2024Q804 2024 868.50 1962.50Q933 1901 933 1803Q933 1700 871.50 1634.50Q810 1569 704 1569M704 1696Q748 1696 776 1723Q804 1750 804 1796Q804 1841 777.50 1870Q751 1899 705 1899Q655 1899 628.50 1870Q602 1841 602 1796Q602 1750 627 1723Q652 1696 704 1696Z"  horiz-adv-x="963" vert-adv-y="2048"  />

      
      <glyph glyph-name="unic6" unicode="&#xc6;" d="M-133 0L575 1462L1376 1462L1329 1239L985 1239L907 870L1227 870L1180 647L860 647L770 225L1114 225L1067 0L469 0L549 373L315 373L143 0L-133 0M420 600L598 600L733 1239L711 1239L420 600Z"  horiz-adv-x="1278" vert-adv-y="2048"  />

      
      <glyph glyph-name="unic7" unicode="&#xc7;" d="M424-20Q309-20 230.50 35.50Q152 91 112 196.50Q72 302 72 451Q72 585 99 728.50Q126 872 179.50 1006.50Q233 1141 311.50 1248.50Q390 1356 493 1419.50Q596 1483 723 1483Q804 1483 880.50 1462.50Q957 1442 1020 1395L895 1190Q854 1224 813 1240.50Q772 1257 729 1257Q649 1257 586.50 1198Q524 1139 478 1044.50Q432 950 401.50 841.50Q371 733 356.50 633Q342 533 342 465Q342 329 379 268Q416 207 492 207Q548 207 605.50 224.50Q663 242 721 270L721 41Q654 9 575-5.50Q496-20 424-20M299-492Q260-492 223-487.50Q186-483 149-473L149-330Q171-336 200.50-340Q230-344 264-344Q299-344 323.50-333Q348-322 361-301Q374-280 374-252Q374-215 343.50-192.50Q313-170 251-166L354 0L483 0L428-86Q491-98 531-139Q571-180 571-248Q571-334 534.50-388Q498-442 436.50-467Q375-492 299-492Z"  horiz-adv-x="881" vert-adv-y="2048"  />

      
      <glyph glyph-name="unic8" unicode="&#xc8;" d="M-4 0L305 1462L905 1462L858 1239L514 1239L436 870L756 870L709 647L389 647L297 225L643 225L596 0L-4 0M555 1579Q530 1614 493 1671.50Q456 1729 422.50 1788Q389 1847 371 1888L371 1907L647 1907Q658 1863 670.50 1814.50Q683 1766 699.50 1713.50Q716 1661 736 1604L733 1579L555 1579Z"  horiz-adv-x="807" vert-adv-y="2048"  />

      
      <glyph glyph-name="unic9" unicode="&#xc9;" d="M-4 0L305 1462L905 1462L858 1239L514 1239L436 870L756 870L709 647L389 647L297 225L643 225L596 0L-4 0M469 1579L473 1600Q515 1652 553.50 1704Q592 1756 626.50 1807Q661 1858 691 1907L969 1907L967 1890Q945 1863 902 1819.50Q859 1776 809.50 1728.50Q760 1681 715.50 1640.50Q671 1600 645 1579L469 1579Z"  horiz-adv-x="807" vert-adv-y="2048"  />

      
      <glyph glyph-name="unica" unicode="&#xca;" d="M-4 0L305 1462L905 1462L858 1239L514 1239L436 870L756 870L709 647L389 647L297 225L643 225L596 0L-4 0M333 1579L337 1602Q383 1649 425.50 1699.50Q468 1750 507.50 1802.50Q547 1855 581 1907L802 1907Q812 1868 831 1812Q850 1756 873 1700Q896 1644 915 1604L909 1579L761 1579Q745 1601 728 1626Q711 1651 693.50 1680.50Q676 1710 657 1743Q609 1691 566.50 1649.50Q524 1608 487 1579L333 1579Z"  horiz-adv-x="807" vert-adv-y="2048"  />

      
      <glyph glyph-name="unicb" unicode="&#xcb;" d="M-4 0L305 1462L905 1462L858 1239L514 1239L436 870L756 870L709 647L389 647L297 225L643 225L596 0L-4 0M793 1612Q744 1612 718 1636.50Q692 1661 692 1708Q692 1773 731 1823.50Q770 1874 842 1874Q886 1874 911 1850Q936 1826 936 1782Q936 1706 894 1659Q852 1612 793 1612M445 1612Q396 1612 370 1636.50Q344 1661 344 1708Q344 1773 383 1823.50Q422 1874 494 1874Q523 1874 543.50 1863.50Q564 1853 575 1832.50Q586 1812 586 1782Q586 1706 544.50 1659Q503 1612 445 1612Z"  horiz-adv-x="807" vert-adv-y="2048"  />

      
      <glyph glyph-name="unicc" unicode="&#xcc;" d="M-6 0L305 1462L559 1462L250 0L-6 0M407 1618Q382 1653 345 1710.50Q308 1768 274.50 1827Q241 1886 223 1927L223 1946L499 1946Q510 1902 522.50 1853.50Q535 1805 551.50 1752.50Q568 1700 588 1643L585 1618L407 1618Z"  horiz-adv-x="496" vert-adv-y="2048"  />

      
      <glyph glyph-name="unicd" unicode="&#xcd;" d="M-6 0L305 1462L559 1462L250 0L-6 0M338 1618L342 1639Q384 1691 422.50 1743Q461 1795 495.50 1846Q530 1897 560 1946L838 1946L836 1929Q814 1902 771 1858.50Q728 1815 678.50 1767.50Q629 1720 584.50 1679.50Q540 1639 514 1618L338 1618Z"  horiz-adv-x="496" vert-adv-y="2048"  />

      
      <glyph glyph-name="unice" unicode="&#xce;" d="M-6 0L305 1462L559 1462L250 0L-6 0M176 1620L180 1643Q226 1690 268.50 1740.50Q311 1791 350.50 1843.50Q390 1896 424 1948L645 1948Q655 1909 674 1853Q693 1797 716 1741Q739 1685 758 1645L752 1620L604 1620Q588 1642 571 1667Q554 1692 536.50 1721.50Q519 1751 500 1784Q452 1732 409.50 1690.50Q367 1649 330 1620L176 1620Z"  horiz-adv-x="496" vert-adv-y="2048"  />

      
      <glyph glyph-name="unicf" unicode="&#xcf;" d="M-6 0L305 1462L559 1462L250 0L-6 0M647 1655Q598 1655 572 1679.50Q546 1704 546 1751Q546 1816 585 1866.50Q624 1917 696 1917Q740 1917 765 1893Q790 1869 790 1825Q790 1749 748 1702Q706 1655 647 1655M299 1655Q250 1655 224 1679.50Q198 1704 198 1751Q198 1816 237 1866.50Q276 1917 348 1917Q377 1917 397.50 1906.50Q418 1896 429 1875.50Q440 1855 440 1825Q440 1749 398.50 1702Q357 1655 299 1655Z"  horiz-adv-x="496" vert-adv-y="2048"  />

      
      <glyph glyph-name="unid0" unicode="&#xd0;" d="M-4 0L135 662L31 662L72 858L176 858L305 1462L594 1462Q803 1462 912.50 1345.50Q1022 1229 1022 1014Q1022 876 995.50 732.50Q969 589 914.50 458Q860 327 775 223.50Q690 120 573.50 60Q457 0 307 0L-4 0M299 229L344 229Q435 229 503.50 283Q572 337 619.50 424Q667 511 696 613.50Q725 716 738.50 815Q752 914 752 989Q752 1117 706 1176Q660 1235 569 1235L512 1235L432 858L582 858L541 662L389 662L299 229Z"  horiz-adv-x="1036" vert-adv-y="2048"  />

      
      <glyph glyph-name="unid1" unicode="&#xd1;" d="M-4 0L305 1462L594 1462L766 469L772 469Q783 532 793 592Q803 652 812.50 704.50Q822 757 829 795L973 1462L1214 1462L905 0L616 0L444 1016L438 1016Q431 965 423 913Q415 861 406 813.50Q397 766 389.50 726Q382 686 377 657L236 0L-4 0M454 1579Q472 1665 499 1733Q526 1801 570 1840.50Q614 1880 682 1880Q728 1880 761.50 1863.50Q795 1847 820 1826Q845 1805 867 1788.50Q889 1772 913 1772Q942 1772 961 1795.50Q980 1819 993 1882L1136 1882Q1117 1770 1081.50 1704Q1046 1638 1002 1609.50Q958 1581 911 1581Q866 1581 833 1597.50Q800 1614 774.50 1635.50Q749 1657 726 1673.50Q703 1690 678 1690Q652 1690 631 1664Q610 1638 598 1579L454 1579Z"  horiz-adv-x="1149" vert-adv-y="2048"  />

      
      <glyph glyph-name="unid2" unicode="&#xd2;" d="M446-20Q320-20 237 29.50Q154 79 113 182Q72 285 72 444Q72 557 90.50 677Q109 797 145 914Q181 1031 235 1134Q289 1237 360.50 1316Q432 1395 521 1440Q610 1485 715 1485Q907 1485 995 1370Q1083 1255 1083 1028Q1083 931 1067.50 816.50Q1052 702 1019.50 584.50Q987 467 936 359Q885 251 814.50 165.50Q744 80 652 30Q560-20 446-20M467 209Q525 209 573.50 250Q622 291 661 360.50Q700 430 729.50 517Q759 604 779 697Q799 790 809 877.50Q819 965 819 1034Q819 1148 787.50 1202.50Q756 1257 694 1257Q634 1257 584 1215Q534 1173 495 1102Q456 1031 426.50 943.50Q397 856 378 764Q359 672 349.50 588.50Q340 505 340 442Q340 354 354 303Q368 252 396.50 230.50Q425 209 467 209M682 1579Q657 1614 620 1671.50Q583 1729 549.50 1788Q516 1847 498 1888L498 1907L774 1907Q785 1863 797.50 1814.50Q810 1766 826.50 1713.50Q843 1661 863 1604L860 1579L682 1579Z"  horiz-adv-x="1098" vert-adv-y="2048"  />

      
      <glyph glyph-name="unid3" unicode="&#xd3;" d="M446-20Q320-20 237 29.50Q154 79 113 182Q72 285 72 444Q72 557 90.50 677Q109 797 145 914Q181 1031 235 1134Q289 1237 360.50 1316Q432 1395 521 1440Q610 1485 715 1485Q907 1485 995 1370Q1083 1255 1083 1028Q1083 931 1067.50 816.50Q1052 702 1019.50 584.50Q987 467 936 359Q885 251 814.50 165.50Q744 80 652 30Q560-20 446-20M467 209Q525 209 573.50 250Q622 291 661 360.50Q700 430 729.50 517Q759 604 779 697Q799 790 809 877.50Q819 965 819 1034Q819 1148 787.50 1202.50Q756 1257 694 1257Q634 1257 584 1215Q534 1173 495 1102Q456 1031 426.50 943.50Q397 856 378 764Q359 672 349.50 588.50Q340 505 340 442Q340 354 354 303Q368 252 396.50 230.50Q425 209 467 209M602 1579L606 1600Q648 1652 686.50 1704Q725 1756 759.50 1807Q794 1858 824 1907L1102 1907L1100 1890Q1078 1863 1035 1819.50Q992 1776 942.50 1728.50Q893 1681 848.50 1640.50Q804 1600 778 1579L602 1579Z"  horiz-adv-x="1098" vert-adv-y="2048"  />

      
      <glyph glyph-name="unid4" unicode="&#xd4;" d="M446-20Q320-20 237 29.50Q154 79 113 182Q72 285 72 444Q72 557 90.50 677Q109 797 145 914Q181 1031 235 1134Q289 1237 360.50 1316Q432 1395 521 1440Q610 1485 715 1485Q907 1485 995 1370Q1083 1255 1083 1028Q1083 931 1067.50 816.50Q1052 702 1019.50 584.50Q987 467 936 359Q885 251 814.50 165.50Q744 80 652 30Q560-20 446-20M467 209Q525 209 573.50 250Q622 291 661 360.50Q700 430 729.50 517Q759 604 779 697Q799 790 809 877.50Q819 965 819 1034Q819 1148 787.50 1202.50Q756 1257 694 1257Q634 1257 584 1215Q534 1173 495 1102Q456 1031 426.50 943.50Q397 856 378 764Q359 672 349.50 588.50Q340 505 340 442Q340 354 354 303Q368 252 396.50 230.50Q425 209 467 209M434 1579L438 1602Q484 1649 526.50 1699.50Q569 1750 608.50 1802.50Q648 1855 682 1907L903 1907Q913 1868 932 1812Q951 1756 974 1700Q997 1644 1016 1604L1010 1579L862 1579Q846 1601 829 1626Q812 1651 794.50 1680.50Q777 1710 758 1743Q710 1691 667.50 1649.50Q625 1608 588 1579L434 1579Z"  horiz-adv-x="1098" vert-adv-y="2048"  />

      
      <glyph glyph-name="unid5" unicode="&#xd5;" d="M446-20Q320-20 237 29.50Q154 79 113 182Q72 285 72 444Q72 557 90.50 677Q109 797 145 914Q181 1031 235 1134Q289 1237 360.50 1316Q432 1395 521 1440Q610 1485 715 1485Q907 1485 995 1370Q1083 1255 1083 1028Q1083 931 1067.50 816.50Q1052 702 1019.50 584.50Q987 467 936 359Q885 251 814.50 165.50Q744 80 652 30Q560-20 446-20M467 209Q525 209 573.50 250Q622 291 661 360.50Q700 430 729.50 517Q759 604 779 697Q799 790 809 877.50Q819 965 819 1034Q819 1148 787.50 1202.50Q756 1257 694 1257Q634 1257 584 1215Q534 1173 495 1102Q456 1031 426.50 943.50Q397 856 378 764Q359 672 349.50 588.50Q340 505 340 442Q340 354 354 303Q368 252 396.50 230.50Q425 209 467 209M432 1579Q450 1665 477 1733Q504 1801 548 1840.50Q592 1880 660 1880Q706 1880 739.50 1863.50Q773 1847 798 1826Q823 1805 845 1788.50Q867 1772 891 1772Q920 1772 939 1795.50Q958 1819 971 1882L1114 1882Q1095 1770 1059.50 1704Q1024 1638 980 1609.50Q936 1581 889 1581Q844 1581 811 1597.50Q778 1614 752.50 1635.50Q727 1657 704 1673.50Q681 1690 656 1690Q630 1690 609 1664Q588 1638 576 1579L432 1579Z"  horiz-adv-x="1098" vert-adv-y="2048"  />

      
      <glyph glyph-name="unid6" unicode="&#xd6;" d="M446-20Q320-20 237 29.50Q154 79 113 182Q72 285 72 444Q72 557 90.50 677Q109 797 145 914Q181 1031 235 1134Q289 1237 360.50 1316Q432 1395 521 1440Q610 1485 715 1485Q907 1485 995 1370Q1083 1255 1083 1028Q1083 931 1067.50 816.50Q1052 702 1019.50 584.50Q987 467 936 359Q885 251 814.50 165.50Q744 80 652 30Q560-20 446-20M467 209Q525 209 573.50 250Q622 291 661 360.50Q700 430 729.50 517Q759 604 779 697Q799 790 809 877.50Q819 965 819 1034Q819 1148 787.50 1202.50Q756 1257 694 1257Q634 1257 584 1215Q534 1173 495 1102Q456 1031 426.50 943.50Q397 856 378 764Q359 672 349.50 588.50Q340 505 340 442Q340 354 354 303Q368 252 396.50 230.50Q425 209 467 209M916 1612Q867 1612 841 1636.50Q815 1661 815 1708Q815 1773 854 1823.50Q893 1874 965 1874Q1009 1874 1034 1850Q1059 1826 1059 1782Q1059 1706 1017 1659Q975 1612 916 1612M568 1612Q519 1612 493 1636.50Q467 1661 467 1708Q467 1773 506 1823.50Q545 1874 617 1874Q646 1874 666.50 1863.50Q687 1853 698 1832.50Q709 1812 709 1782Q709 1706 667.50 1659Q626 1612 568 1612Z"  horiz-adv-x="1098" vert-adv-y="2048"  />

      
      <glyph glyph-name="unid7" unicode="&#xd7;" d="M766 1137L918 987L653 723L913 461L764 311L502 571L238 311L92 463L350 723L92 983L240 1135L502 877L766 1137Z"  horiz-adv-x="969" vert-adv-y="2048"  />

      
      <glyph glyph-name="unid8" unicode="&#xd8;" d="M123-109L4-39L127 154Q99 207 85.50 280Q72 353 72 444Q72 557 90 677Q108 797 144 914Q180 1031 234 1134Q288 1237 359.50 1316Q431 1395 519.50 1440Q608 1485 713 1485Q785 1485 842 1466.50Q899 1448 940 1411L1030 1552L1149 1483L1032 1300Q1058 1248 1070.50 1179.50Q1083 1111 1083 1028Q1083 931 1067.50 816.50Q1052 702 1019.50 584.50Q987 467 936 359Q885 251 814 165.50Q743 80 651 30Q559-20 444-20Q375-20 320-3.50Q265 13 223 47L123-109M465 209Q516 209 560 241Q604 273 640 328Q676 383 704.50 454Q733 525 754 604Q775 683 788 762Q801 841 807 911Q810 928 811 944.50Q812 961 813 977L365 274Q380 240 405.50 224.50Q431 209 465 209M344 471L799 1180Q783 1220 756.50 1238.50Q730 1257 692 1257Q639 1257 594.50 1223.50Q550 1190 514 1133Q478 1076 449.50 1003.50Q421 931 401 853Q381 775 367.50 699.50Q354 624 348 561Q347 536 345.50 513.50Q344 491 344 471Z"  horiz-adv-x="1100" vert-adv-y="2048"  />

      
      <glyph glyph-name="unid9" unicode="&#xd9;" d="M408-20Q303-20 227 19Q151 58 110.50 132.50Q70 207 70 311Q70 348 75.50 393.50Q81 439 90 485L299 1462L555 1462L346 479Q337 444 333.50 411Q330 378 330 352Q330 279 358.50 244Q387 209 442 209Q497 209 535.50 238Q574 267 601.50 328.50Q629 390 649 489L858 1462L1114 1462L899 455Q868 305 807.50 198.50Q747 92 649.50 36Q552-20 408-20M655 1579Q630 1614 593 1671.50Q556 1729 522.50 1788Q489 1847 471 1888L471 1907L747 1907Q758 1863 770.50 1814.50Q783 1766 799.50 1713.50Q816 1661 836 1604L833 1579L655 1579Z"  horiz-adv-x="1042" vert-adv-y="2048"  />

      
      <glyph glyph-name="unida" unicode="&#xda;" d="M408-20Q303-20 227 19Q151 58 110.50 132.50Q70 207 70 311Q70 348 75.50 393.50Q81 439 90 485L299 1462L555 1462L346 479Q337 444 333.50 411Q330 378 330 352Q330 279 358.50 244Q387 209 442 209Q497 209 535.50 238Q574 267 601.50 328.50Q629 390 649 489L858 1462L1114 1462L899 455Q868 305 807.50 198.50Q747 92 649.50 36Q552-20 408-20M583 1579L587 1600Q629 1652 667.50 1704Q706 1756 740.50 1807Q775 1858 805 1907L1083 1907L1081 1890Q1059 1863 1016 1819.50Q973 1776 923.50 1728.50Q874 1681 829.50 1640.50Q785 1600 759 1579L583 1579Z"  horiz-adv-x="1042" vert-adv-y="2048"  />

      
      <glyph glyph-name="unidb" unicode="&#xdb;" d="M408-20Q303-20 227 19Q151 58 110.50 132.50Q70 207 70 311Q70 348 75.50 393.50Q81 439 90 485L299 1462L555 1462L346 479Q337 444 333.50 411Q330 378 330 352Q330 279 358.50 244Q387 209 442 209Q497 209 535.50 238Q574 267 601.50 328.50Q629 390 649 489L858 1462L1114 1462L899 455Q868 305 807.50 198.50Q747 92 649.50 36Q552-20 408-20M432 1579L436 1602Q482 1649 524.50 1699.50Q567 1750 606.50 1802.50Q646 1855 680 1907L901 1907Q911 1868 930 1812Q949 1756 972 1700Q995 1644 1014 1604L1008 1579L860 1579Q844 1601 827 1626Q810 1651 792.50 1680.50Q775 1710 756 1743Q708 1691 665.50 1649.50Q623 1608 586 1579L432 1579Z"  horiz-adv-x="1042" vert-adv-y="2048"  />

      
      <glyph glyph-name="unidc" unicode="&#xdc;" d="M408-20Q303-20 227 19Q151 58 110.50 132.50Q70 207 70 311Q70 348 75.50 393.50Q81 439 90 485L299 1462L555 1462L346 479Q337 444 333.50 411Q330 378 330 352Q330 279 358.50 244Q387 209 442 209Q497 209 535.50 238Q574 267 601.50 328.50Q629 390 649 489L858 1462L1114 1462L899 455Q868 305 807.50 198.50Q747 92 649.50 36Q552-20 408-20M899 1612Q850 1612 824 1636.50Q798 1661 798 1708Q798 1773 837 1823.50Q876 1874 948 1874Q992 1874 1017 1850Q1042 1826 1042 1782Q1042 1706 1000 1659Q958 1612 899 1612M551 1612Q502 1612 476 1636.50Q450 1661 450 1708Q450 1773 489 1823.50Q528 1874 600 1874Q629 1874 649.50 1863.50Q670 1853 681 1832.50Q692 1812 692 1782Q692 1706 650.50 1659Q609 1612 551 1612Z"  horiz-adv-x="1042" vert-adv-y="2048"  />

      
      <glyph glyph-name="unidd" unicode="&#xdd;" d="M182 0L299 557L182 1462L449 1462L494 893L780 1462L1055 1462L559 565L438 0L182 0M499 1579L503 1600Q545 1652 583.50 1704Q622 1756 656.50 1807Q691 1858 721 1907L999 1907L997 1890Q975 1863 932 1819.50Q889 1776 839.50 1728.50Q790 1681 745.50 1640.50Q701 1600 675 1579L499 1579Z"  horiz-adv-x="870" vert-adv-y="2048"  />

      
      <glyph glyph-name="unide" unicode="&#xde;" d="M-4 0L305 1462L561 1462L512 1231L547 1231Q672 1231 752.50 1189.50Q833 1148 872 1072.50Q911 997 911 895Q911 783 879.50 676Q848 569 784 483Q720 397 624 346Q528 295 399 295L313 295L252 0L-4 0M358 518L401 518Q479 518 533.50 561.50Q588 605 616.50 682.50Q645 760 645 860Q645 939 610.50 972.50Q576 1006 502 1006L463 1006L358 518Z"  horiz-adv-x="907" vert-adv-y="2048"  />

      
      <glyph glyph-name="unidf" unicode="&#xdf;" d="M-137-492Q-171-492-202.50-487.50Q-234-483-266-473L-266-256Q-248-263-220-268.50Q-192-274-172-274Q-116-274-87.50-232Q-59-190-39-90L223 1141Q251 1273 308 1368.50Q365 1464 452.50 1515.50Q540 1567 659 1567Q820 1567 906.50 1491.50Q993 1416 993 1296Q993 1232 977.50 1180Q962 1128 931 1082Q900 1036 854 989Q797 936 758 890Q719 844 719 776Q719 754 727 729.50Q735 705 750 679Q765 653 786 623Q830 569 859.50 508.50Q889 448 889 356Q889 244 841 159Q793 74 707.50 27Q622-20 508-20Q447-20 390-7Q333 6 289 35L330 266Q376 226 423.50 210.50Q471 195 512 195Q571 195 602 233.50Q633 272 633 330Q633 360 624 385.50Q615 411 595.50 443Q576 475 543 522Q500 584 480.50 632.50Q461 681 461 739Q461 791 478 838.50Q495 886 527 931Q559 976 604 1020Q645 1060 675 1095Q705 1130 721 1168.50Q737 1207 737 1257Q737 1302 714.50 1329Q692 1356 645 1356Q599 1356 565 1329.50Q531 1303 506.50 1249.50Q482 1196 463 1116L201-109Q177-225 140-311.50Q103-398 38-445Q-27-492-137-492Z"  horiz-adv-x="987" vert-adv-y="2048"  />

      
      <glyph glyph-name="unie0" unicode="&#xe0;" d="M264-20Q194-20 143.50 18.50Q93 57 66 129.50Q39 202 39 303Q39 393 56 503.50Q73 614 107 725.50Q141 837 194 930Q247 1023 319 1080Q391 1137 483 1137Q528 1137 565.50 1120.50Q603 1104 632 1069.50Q661 1035 678 979L684 979L733 1116L946 1116L709 0L510 0L512 145L506 145Q470 96 434 59Q398 22 357 1Q316-20 264-20M367 188Q422 188 462 240Q502 292 529.50 368.50Q557 445 575 518Q598 615 606 676Q614 737 614 786Q614 852 592 887Q570 922 528 922Q485 922 448.50 880.50Q412 839 383.50 772Q355 705 334.50 626Q314 547 303.50 470.50Q293 394 293 336Q293 263 311.50 225.50Q330 188 367 188M547 1249Q522 1284 485 1341.50Q448 1399 414.50 1458Q381 1517 363 1558L363 1577L639 1577Q650 1533 662.50 1484.50Q675 1436 691.50 1383.50Q708 1331 728 1274L725 1249L547 1249Z"  horiz-adv-x="932" vert-adv-y="2048"  />

      
      <glyph glyph-name="unie1" unicode="&#xe1;" d="M264-20Q194-20 143.50 18.50Q93 57 66 129.50Q39 202 39 303Q39 393 56 503.50Q73 614 107 725.50Q141 837 194 930Q247 1023 319 1080Q391 1137 483 1137Q528 1137 565.50 1120.50Q603 1104 632 1069.50Q661 1035 678 979L684 979L733 1116L946 1116L709 0L510 0L512 145L506 145Q470 96 434 59Q398 22 357 1Q316-20 264-20M367 188Q422 188 462 240Q502 292 529.50 368.50Q557 445 575 518Q598 615 606 676Q614 737 614 786Q614 852 592 887Q570 922 528 922Q485 922 448.50 880.50Q412 839 383.50 772Q355 705 334.50 626Q314 547 303.50 470.50Q293 394 293 336Q293 263 311.50 225.50Q330 188 367 188M450 1249L454 1270Q496 1322 534.50 1374Q573 1426 607.50 1477Q642 1528 672 1577L950 1577L948 1560Q926 1533 883 1489.50Q840 1446 790.50 1398.50Q741 1351 696.50 1310.50Q652 1270 626 1249L450 1249Z"  horiz-adv-x="932" vert-adv-y="2048"  />

      
      <glyph glyph-name="unie2" unicode="&#xe2;" d="M264-20Q194-20 143.50 18.50Q93 57 66 129.50Q39 202 39 303Q39 393 56 503.50Q73 614 107 725.50Q141 837 194 930Q247 1023 319 1080Q391 1137 483 1137Q528 1137 565.50 1120.50Q603 1104 632 1069.50Q661 1035 678 979L684 979L733 1116L946 1116L709 0L510 0L512 145L506 145Q470 96 434 59Q398 22 357 1Q316-20 264-20M367 188Q422 188 462 240Q502 292 529.50 368.50Q557 445 575 518Q598 615 606 676Q614 737 614 786Q614 852 592 887Q570 922 528 922Q485 922 448.50 880.50Q412 839 383.50 772Q355 705 334.50 626Q314 547 303.50 470.50Q293 394 293 336Q293 263 311.50 225.50Q330 188 367 188M321 1249L325 1272Q371 1319 413.50 1369.50Q456 1420 495.50 1472.50Q535 1525 569 1577L790 1577Q800 1538 819 1482Q838 1426 861 1370Q884 1314 903 1274L897 1249L749 1249Q733 1271 716 1296Q699 1321 681.50 1350.50Q664 1380 645 1413Q597 1361 554.50 1319.50Q512 1278 475 1249L321 1249Z"  horiz-adv-x="932" vert-adv-y="2048"  />

      
      <glyph glyph-name="unie3" unicode="&#xe3;" d="M264-20Q194-20 143.50 18.50Q93 57 66 129.50Q39 202 39 303Q39 393 56 503.50Q73 614 107 725.50Q141 837 194 930Q247 1023 319 1080Q391 1137 483 1137Q528 1137 565.50 1120.50Q603 1104 632 1069.50Q661 1035 678 979L684 979L733 1116L946 1116L709 0L510 0L512 145L506 145Q470 96 434 59Q398 22 357 1Q316-20 264-20M367 188Q422 188 462 240Q502 292 529.50 368.50Q557 445 575 518Q598 615 606 676Q614 737 614 786Q614 852 592 887Q570 922 528 922Q485 922 448.50 880.50Q412 839 383.50 772Q355 705 334.50 626Q314 547 303.50 470.50Q293 394 293 336Q293 263 311.50 225.50Q330 188 367 188M305 1249Q323 1335 350 1403Q377 1471 421 1510.50Q465 1550 533 1550Q579 1550 612.50 1533.50Q646 1517 671 1496Q696 1475 718 1458.50Q740 1442 764 1442Q793 1442 812 1465.50Q831 1489 844 1552L987 1552Q968 1440 932.50 1374Q897 1308 853 1279.50Q809 1251 762 1251Q717 1251 684 1267.50Q651 1284 625.50 1305.50Q600 1327 577 1343.50Q554 1360 529 1360Q503 1360 482 1334Q461 1308 449 1249L305 1249Z"  horiz-adv-x="932" vert-adv-y="2048"  />

      
      <glyph glyph-name="unie4" unicode="&#xe4;" d="M264-20Q194-20 143.50 18.50Q93 57 66 129.50Q39 202 39 303Q39 393 56 503.50Q73 614 107 725.50Q141 837 194 930Q247 1023 319 1080Q391 1137 483 1137Q528 1137 565.50 1120.50Q603 1104 632 1069.50Q661 1035 678 979L684 979L733 1116L946 1116L709 0L510 0L512 145L506 145Q470 96 434 59Q398 22 357 1Q316-20 264-20M367 188Q422 188 462 240Q502 292 529.50 368.50Q557 445 575 518Q598 615 606 676Q614 737 614 786Q614 852 592 887Q570 922 528 922Q485 922 448.50 880.50Q412 839 383.50 772Q355 705 334.50 626Q314 547 303.50 470.50Q293 394 293 336Q293 263 311.50 225.50Q330 188 367 188M795 1282Q746 1282 720 1306.50Q694 1331 694 1378Q694 1443 733 1493.50Q772 1544 844 1544Q888 1544 913 1520Q938 1496 938 1452Q938 1376 896 1329Q854 1282 795 1282M447 1282Q398 1282 372 1306.50Q346 1331 346 1378Q346 1443 385 1493.50Q424 1544 496 1544Q525 1544 545.50 1533.50Q566 1523 577 1502.50Q588 1482 588 1452Q588 1376 546.50 1329Q505 1282 447 1282Z"  horiz-adv-x="932" vert-adv-y="2048"  />

      
      <glyph glyph-name="unie5" unicode="&#xe5;" d="M264-20Q194-20 143.50 18.50Q93 57 66 129.50Q39 202 39 303Q39 393 56 503.50Q73 614 107 725.50Q141 837 194 930Q247 1023 319 1080Q391 1137 483 1137Q528 1137 565.50 1120.50Q603 1104 632 1069.50Q661 1035 678 979L684 979L733 1116L946 1116L709 0L510 0L512 145L506 145Q470 96 434 59Q398 22 357 1Q316-20 264-20M367 188Q422 188 462 240Q502 292 529.50 368.50Q557 445 575 518Q598 615 606 676Q614 737 614 786Q614 852 592 887Q570 922 528 922Q485 922 448.50 880.50Q412 839 383.50 772Q355 705 334.50 626Q314 547 303.50 470.50Q293 394 293 336Q293 263 311.50 225.50Q330 188 367 188M643 1243Q533 1243 471.50 1305.50Q410 1368 410 1473Q410 1574 473 1636Q536 1698 643 1698Q743 1698 807.50 1636.50Q872 1575 872 1477Q872 1374 810.50 1308.50Q749 1243 643 1243M643 1370Q687 1370 715 1397Q743 1424 743 1470Q743 1515 716.50 1544Q690 1573 644 1573Q594 1573 567.50 1544Q541 1515 541 1470Q541 1424 566 1397Q591 1370 643 1370Z"  horiz-adv-x="932" vert-adv-y="2048"  />

      
      <glyph glyph-name="unie6" unicode="&#xe6;" d="M250-20Q187-20 139.50 18.50Q92 57 65.50 129.50Q39 202 39 303Q39 414 58.50 530.50Q78 647 115.50 755.50Q153 864 207 950Q261 1036 330.50 1086.50Q400 1137 483 1137Q523 1137 560 1123Q597 1109 627 1079.50Q657 1050 674 1004L678 1004L707 1116L881 1116L864 1026Q906 1070 959.50 1102.50Q1013 1135 1090 1135Q1206 1135 1273.50 1064Q1341 993 1341 874Q1341 776 1304 701.50Q1267 627 1197.50 577Q1128 527 1030.50 502Q933 477 813 477L795 477Q788 449 786 420.50Q784 392 784 365Q784 273 818.50 226.50Q853 180 932 180Q995 180 1059 201Q1123 222 1202 266L1161 55Q1089 14 1025-3Q961-20 883-20Q803-20 754 9.50Q705 39 686 88L666 0L494 0L514 137L510 137Q475 89 435 54Q395 19 349-0.50Q303-20 250-20M367 188Q408 188 440.50 218.50Q473 249 497.50 298Q522 347 539.50 404.50Q557 462 569 516Q591 611 599.50 674.50Q608 738 608 788Q608 855 587.50 888.50Q567 922 528 922Q489 922 454 884.50Q419 847 389.50 784.50Q360 722 338.50 645Q317 568 305 487Q293 406 293 334Q293 262 311.50 225Q330 188 367 188M831 655L838 655Q943 655 1003.50 680.50Q1064 706 1090 751Q1116 796 1116 852Q1116 892 1094 916Q1072 940 1032 940Q983 940 944.50 898.50Q906 857 878 791.50Q850 726 831 655Z"  horiz-adv-x="1360" vert-adv-y="2048"  />

      
      <glyph glyph-name="unie7" unicode="&#xe7;" d="M340-20Q245-20 179 21.50Q113 63 79 141Q45 219 45 330Q45 430 63 541Q81 652 119 758Q157 864 217.50 949.50Q278 1035 363.50 1086Q449 1137 561 1137Q630 1137 688.50 1119.50Q747 1102 799 1067L698 870Q669 893 633 907.50Q597 922 563 922Q493 922 442.50 863Q392 804 360.50 714.50Q329 625 314 530.50Q299 436 299 365Q299 308 310.50 269.50Q322 231 345.50 212Q369 193 403 193Q445 193 495 212.50Q545 232 600 272L600 59Q553 27 483.50 3.50Q414-20 340-20M197-492Q158-492 121-487.50Q84-483 47-473L47-330Q69-336 98.50-340Q128-344 162-344Q197-344 221.50-333Q246-322 259-301Q272-280 272-252Q272-215 241.50-192.50Q211-170 149-166L252 0L381 0L326-86Q389-98 429-139Q469-180 469-248Q469-334 432.50-388Q396-442 334.50-467Q273-492 197-492Z"  horiz-adv-x="735" vert-adv-y="2048"  />

      
      <glyph glyph-name="unie8" unicode="&#xe8;" d="M373-20Q271-20 197 22.50Q123 65 83 145.50Q43 226 43 338Q43 486 77 628Q111 770 177 884.50Q243 999 341.50 1067Q440 1135 569 1135Q692 1135 768 1066Q844 997 844 874Q844 777 807 702.50Q770 628 700 578Q630 528 532.50 502.50Q435 477 313 477L297 477Q291 449 288 420.50Q285 392 285 365Q285 266 322 223Q359 180 432 180Q497 180 551 196.50Q605 213 678 254L678 63Q605 16 529.50-2Q454-20 373-20M332 655L338 655Q443 655 503.50 680.50Q564 706 590 751Q616 796 616 852Q616 892 595.50 916Q575 940 535 940Q494 940 456 906Q418 872 386.50 808.50Q355 745 332 655M528 1241Q503 1276 466 1333.50Q429 1391 395.50 1450Q362 1509 344 1550L344 1569L620 1569Q631 1525 643.50 1476.50Q656 1428 672.50 1375.50Q689 1323 709 1266L706 1241L528 1241Z"  horiz-adv-x="864" vert-adv-y="2048"  />

      
      <glyph glyph-name="unie9" unicode="&#xe9;" d="M373-20Q271-20 197 22.50Q123 65 83 145.50Q43 226 43 338Q43 486 77 628Q111 770 177 884.50Q243 999 341.50 1067Q440 1135 569 1135Q692 1135 768 1066Q844 997 844 874Q844 777 807 702.50Q770 628 700 578Q630 528 532.50 502.50Q435 477 313 477L297 477Q291 449 288 420.50Q285 392 285 365Q285 266 322 223Q359 180 432 180Q497 180 551 196.50Q605 213 678 254L678 63Q605 16 529.50-2Q454-20 373-20M332 655L338 655Q443 655 503.50 680.50Q564 706 590 751Q616 796 616 852Q616 892 595.50 916Q575 940 535 940Q494 940 456 906Q418 872 386.50 808.50Q355 745 332 655M418 1241L422 1262Q464 1314 502.50 1366Q541 1418 575.50 1469Q610 1520 640 1569L918 1569L916 1552Q894 1525 851 1481.50Q808 1438 758.50 1390.50Q709 1343 664.50 1302.50Q620 1262 594 1241L418 1241Z"  horiz-adv-x="864" vert-adv-y="2048"  />

      
      <glyph glyph-name="uniea" unicode="&#xea;" d="M373-20Q271-20 197 22.50Q123 65 83 145.50Q43 226 43 338Q43 486 77 628Q111 770 177 884.50Q243 999 341.50 1067Q440 1135 569 1135Q692 1135 768 1066Q844 997 844 874Q844 777 807 702.50Q770 628 700 578Q630 528 532.50 502.50Q435 477 313 477L297 477Q291 449 288 420.50Q285 392 285 365Q285 266 322 223Q359 180 432 180Q497 180 551 196.50Q605 213 678 254L678 63Q605 16 529.50-2Q454-20 373-20M332 655L338 655Q443 655 503.50 680.50Q564 706 590 751Q616 796 616 852Q616 892 595.50 916Q575 940 535 940Q494 940 456 906Q418 872 386.50 808.50Q355 745 332 655M295 1241L299 1264Q345 1311 387.50 1361.50Q430 1412 469.50 1464.50Q509 1517 543 1569L764 1569Q774 1530 793 1474Q812 1418 835 1362Q858 1306 877 1266L871 1241L723 1241Q707 1263 690 1288Q673 1313 655.50 1342.50Q638 1372 619 1405Q571 1353 528.50 1311.50Q486 1270 449 1241L295 1241Z"  horiz-adv-x="864" vert-adv-y="2048"  />

      
      <glyph glyph-name="unieb" unicode="&#xeb;" d="M373-20Q271-20 197 22.50Q123 65 83 145.50Q43 226 43 338Q43 486 77 628Q111 770 177 884.50Q243 999 341.50 1067Q440 1135 569 1135Q692 1135 768 1066Q844 997 844 874Q844 777 807 702.50Q770 628 700 578Q630 528 532.50 502.50Q435 477 313 477L297 477Q291 449 288 420.50Q285 392 285 365Q285 266 322 223Q359 180 432 180Q497 180 551 196.50Q605 213 678 254L678 63Q605 16 529.50-2Q454-20 373-20M332 655L338 655Q443 655 503.50 680.50Q564 706 590 751Q616 796 616 852Q616 892 595.50 916Q575 940 535 940Q494 940 456 906Q418 872 386.50 808.50Q355 745 332 655M770 1274Q721 1274 695 1298.50Q669 1323 669 1370Q669 1435 708 1485.50Q747 1536 819 1536Q863 1536 888 1512Q913 1488 913 1444Q913 1368 871 1321Q829 1274 770 1274M422 1274Q373 1274 347 1298.50Q321 1323 321 1370Q321 1435 360 1485.50Q399 1536 471 1536Q500 1536 520.50 1525.50Q541 1515 552 1494.50Q563 1474 563 1444Q563 1368 521.50 1321Q480 1274 422 1274Z"  horiz-adv-x="864" vert-adv-y="2048"  />

      
      <glyph glyph-name="uniec" unicode="&#xec;" d="M-12 0L225 1116L469 1116L231 0L-12 0M309 1241Q284 1276 247 1333.50Q210 1391 176.50 1450Q143 1509 125 1550L125 1569L401 1569Q412 1525 424.50 1476.50Q437 1428 453.50 1375.50Q470 1323 490 1266L487 1241L309 1241Z"  horiz-adv-x="457" vert-adv-y="2048"  />

      
      <glyph glyph-name="unied" unicode="&#xed;" d="M-12 0L225 1116L469 1116L231 0L-12 0M219 1241L223 1262Q265 1314 303.50 1366Q342 1418 376.50 1469Q411 1520 441 1569L719 1569L717 1552Q695 1525 652 1481.50Q609 1438 559.50 1390.50Q510 1343 465.50 1302.50Q421 1262 395 1241L219 1241Z"  horiz-adv-x="457" vert-adv-y="2048"  />

      
      <glyph glyph-name="uniee" unicode="&#xee;" d="M-12 0L225 1116L469 1116L231 0L-12 0M71 1241L75 1264Q121 1311 163.50 1361.50Q206 1412 245.50 1464.50Q285 1517 319 1569L540 1569Q550 1530 569 1474Q588 1418 611 1362Q634 1306 653 1266L647 1241L499 1241Q483 1263 466 1288Q449 1313 431.50 1342.50Q414 1372 395 1405Q347 1353 304.50 1311.50Q262 1270 225 1241L71 1241Z"  horiz-adv-x="457" vert-adv-y="2048"  />

      
      <glyph glyph-name="unief" unicode="&#xef;" d="M-12 0L225 1116L469 1116L231 0L-12 0M545 1274Q496 1274 470 1298.50Q444 1323 444 1370Q444 1435 483 1485.50Q522 1536 594 1536Q638 1536 663 1512Q688 1488 688 1444Q688 1368 646 1321Q604 1274 545 1274M197 1274Q148 1274 122 1298.50Q96 1323 96 1370Q96 1435 135 1485.50Q174 1536 246 1536Q275 1536 295.50 1525.50Q316 1515 327 1494.50Q338 1474 338 1444Q338 1368 296.50 1321Q255 1274 197 1274Z"  horiz-adv-x="457" vert-adv-y="2048"  />

      
      <glyph glyph-name="unif0" unicode="&#xf0;" d="M342-20Q240-20 169 21Q98 62 61.50 140.50Q25 219 25 332Q25 431 52.50 545.50Q80 660 136.50 761.50Q193 863 279.50 928Q366 993 483 993Q537 993 570 964Q603 935 625 895L627 895Q627 990 611.50 1064Q596 1138 555 1204L397 1096L315 1210L487 1327Q466 1352 437.50 1379Q409 1406 375 1434L500 1571Q541 1545 579.50 1515Q618 1485 655 1448L821 1567L905 1452L739 1335Q781 1269 808 1195Q835 1121 848.50 1041.50Q862 962 862 877Q862 770 847 648Q832 526 796.50 407.50Q761 289 701.50 192.50Q642 96 553 38Q464-20 342-20M369 188Q408 188 441 217Q474 246 501 294Q528 342 547 400.50Q566 459 576 519Q586 579 586 631Q586 668 580 696Q574 724 562.50 743Q551 762 533.50 772Q516 782 492 782Q442 782 401.50 739Q361 696 332.50 628Q304 560 289 484Q274 408 274 342Q274 266 298.50 227Q323 188 369 188Z"  horiz-adv-x="907" vert-adv-y="2048"  />

      
      <glyph glyph-name="unif1" unicode="&#xf1;" d="M-14 0L223 1116L420 1116L410 977L416 977Q447 1027 484.50 1063Q522 1099 565.50 1118Q609 1137 657 1137Q716 1137 767 1114Q818 1091 849.50 1039Q881 987 881 899Q881 862 874 815Q867 768 856 713L704 0L459 0L598 655Q607 703 615 749Q623 795 623 829Q623 870 606.50 891.50Q590 913 553 913Q505 913 468.50 872.50Q432 832 405 759Q378 686 356 588L233 0L-14 0M305 1249Q323 1335 350 1403Q377 1471 421 1510.50Q465 1550 533 1550Q579 1550 612.50 1533.50Q646 1517 671 1496Q696 1475 718 1458.50Q740 1442 764 1442Q793 1442 812 1465.50Q831 1489 844 1552L987 1552Q968 1440 932.50 1374Q897 1308 853 1279.50Q809 1251 762 1251Q717 1251 684 1267.50Q651 1284 625.50 1305.50Q600 1327 577 1343.50Q554 1360 529 1360Q503 1360 482 1334Q461 1308 449 1249L305 1249Z"  horiz-adv-x="926" vert-adv-y="2048"  />

      
      <glyph glyph-name="unif2" unicode="&#xf2;" d="M354-20Q256-20 186.50 23Q117 66 80 147Q43 228 43 342Q43 429 60.50 534.50Q78 640 115 746Q152 852 212.50 940.50Q273 1029 359 1083Q445 1137 559 1137Q656 1137 724.50 1093Q793 1049 829.50 967.50Q866 886 866 772Q866 674 847.50 565Q829 456 790 352Q751 248 690.50 164Q630 80 546 30Q462-20 354-20M383 188Q426 188 463 228Q500 268 528.50 334Q557 400 577 478.50Q597 557 607.50 634.50Q618 712 618 774Q618 823 608.50 857.50Q599 892 578.50 910Q558 928 526 928Q480 928 442.50 886Q405 844 376.50 776Q348 708 329 628.50Q310 549 300.50 473Q291 397 291 340Q291 268 314 228Q337 188 383 188M512 1241Q487 1276 450 1333.50Q413 1391 379.50 1450Q346 1509 328 1550L328 1569L604 1569Q615 1525 627.50 1476.50Q640 1428 656.50 1375.50Q673 1323 693 1266L690 1241L512 1241Z"  horiz-adv-x="909" vert-adv-y="2048"  />

      
      <glyph glyph-name="unif3" unicode="&#xf3;" d="M354-20Q256-20 186.50 23Q117 66 80 147Q43 228 43 342Q43 429 60.50 534.50Q78 640 115 746Q152 852 212.50 940.50Q273 1029 359 1083Q445 1137 559 1137Q656 1137 724.50 1093Q793 1049 829.50 967.50Q866 886 866 772Q866 674 847.50 565Q829 456 790 352Q751 248 690.50 164Q630 80 546 30Q462-20 354-20M383 188Q426 188 463 228Q500 268 528.50 334Q557 400 577 478.50Q597 557 607.50 634.50Q618 712 618 774Q618 823 608.50 857.50Q599 892 578.50 910Q558 928 526 928Q480 928 442.50 886Q405 844 376.50 776Q348 708 329 628.50Q310 549 300.50 473Q291 397 291 340Q291 268 314 228Q337 188 383 188M446 1241L450 1262Q492 1314 530.50 1366Q569 1418 603.50 1469Q638 1520 668 1569L946 1569L944 1552Q922 1525 879 1481.50Q836 1438 786.50 1390.50Q737 1343 692.50 1302.50Q648 1262 622 1241L446 1241Z"  horiz-adv-x="909" vert-adv-y="2048"  />

      
      <glyph glyph-name="unif4" unicode="&#xf4;" d="M354-20Q256-20 186.50 23Q117 66 80 147Q43 228 43 342Q43 429 60.50 534.50Q78 640 115 746Q152 852 212.50 940.50Q273 1029 359 1083Q445 1137 559 1137Q656 1137 724.50 1093Q793 1049 829.50 967.50Q866 886 866 772Q866 674 847.50 565Q829 456 790 352Q751 248 690.50 164Q630 80 546 30Q462-20 354-20M383 188Q426 188 463 228Q500 268 528.50 334Q557 400 577 478.50Q597 557 607.50 634.50Q618 712 618 774Q618 823 608.50 857.50Q599 892 578.50 910Q558 928 526 928Q480 928 442.50 886Q405 844 376.50 776Q348 708 329 628.50Q310 549 300.50 473Q291 397 291 340Q291 268 314 228Q337 188 383 188M286 1241L290 1264Q336 1311 378.50 1361.50Q421 1412 460.50 1464.50Q500 1517 534 1569L755 1569Q765 1530 784 1474Q803 1418 826 1362Q849 1306 868 1266L862 1241L714 1241Q698 1263 681 1288Q664 1313 646.50 1342.50Q629 1372 610 1405Q562 1353 519.50 1311.50Q477 1270 440 1241L286 1241Z"  horiz-adv-x="909" vert-adv-y="2048"  />

      
      <glyph glyph-name="unif5" unicode="&#xf5;" d="M354-20Q256-20 186.50 23Q117 66 80 147Q43 228 43 342Q43 429 60.50 534.50Q78 640 115 746Q152 852 212.50 940.50Q273 1029 359 1083Q445 1137 559 1137Q656 1137 724.50 1093Q793 1049 829.50 967.50Q866 886 866 772Q866 674 847.50 565Q829 456 790 352Q751 248 690.50 164Q630 80 546 30Q462-20 354-20M383 188Q426 188 463 228Q500 268 528.50 334Q557 400 577 478.50Q597 557 607.50 634.50Q618 712 618 774Q618 823 608.50 857.50Q599 892 578.50 910Q558 928 526 928Q480 928 442.50 886Q405 844 376.50 776Q348 708 329 628.50Q310 549 300.50 473Q291 397 291 340Q291 268 314 228Q337 188 383 188M272 1241Q290 1327 317 1395Q344 1463 388 1502.50Q432 1542 500 1542Q546 1542 579.50 1525.50Q613 1509 638 1488Q663 1467 685 1450.50Q707 1434 731 1434Q760 1434 779 1457.50Q798 1481 811 1544L954 1544Q935 1432 899.50 1366Q864 1300 820 1271.50Q776 1243 729 1243Q684 1243 651 1259.50Q618 1276 592.50 1297.50Q567 1319 544 1335.50Q521 1352 496 1352Q470 1352 449 1326Q428 1300 416 1241L272 1241Z"  horiz-adv-x="909" vert-adv-y="2048"  />

      
      <glyph glyph-name="unif6" unicode="&#xf6;" d="M354-20Q256-20 186.50 23Q117 66 80 147Q43 228 43 342Q43 429 60.50 534.50Q78 640 115 746Q152 852 212.50 940.50Q273 1029 359 1083Q445 1137 559 1137Q656 1137 724.50 1093Q793 1049 829.50 967.50Q866 886 866 772Q866 674 847.50 565Q829 456 790 352Q751 248 690.50 164Q630 80 546 30Q462-20 354-20M383 188Q426 188 463 228Q500 268 528.50 334Q557 400 577 478.50Q597 557 607.50 634.50Q618 712 618 774Q618 823 608.50 857.50Q599 892 578.50 910Q558 928 526 928Q480 928 442.50 886Q405 844 376.50 776Q348 708 329 628.50Q310 549 300.50 473Q291 397 291 340Q291 268 314 228Q337 188 383 188M753 1274Q704 1274 678 1298.50Q652 1323 652 1370Q652 1435 691 1485.50Q730 1536 802 1536Q846 1536 871 1512Q896 1488 896 1444Q896 1368 854 1321Q812 1274 753 1274M405 1274Q356 1274 330 1298.50Q304 1323 304 1370Q304 1435 343 1485.50Q382 1536 454 1536Q483 1536 503.50 1525.50Q524 1515 535 1494.50Q546 1474 546 1444Q546 1368 504.50 1321Q463 1274 405 1274Z"  horiz-adv-x="909" vert-adv-y="2048"  />

      
      <glyph glyph-name="unif7" unicode="&#xf7;" d="M88 614L88 831L922 831L922 614L88 614M506 176Q440 176 402.50 216.50Q365 257 365 334Q365 409 401 449Q437 489 506 489Q572 489 606.50 449Q641 409 641 334Q641 257 605 216.50Q569 176 506 176M506 954Q440 954 402.50 994.50Q365 1035 365 1110Q365 1187 401 1227.50Q437 1268 506 1268Q572 1268 606.50 1227.50Q641 1187 641 1110Q641 1035 605 994.50Q569 954 506 954Z"  horiz-adv-x="969" vert-adv-y="2048"  />

      
      <glyph glyph-name="unif8" unicode="&#xf8;" d="M96-127L-16-57L96 119Q71 162 58 218.50Q45 275 45 342Q45 426 62 531.50Q79 637 116 743Q153 849 213 938.50Q273 1028 359.50 1082.50Q446 1137 561 1137Q609 1137 650 1123.50Q691 1110 723 1087L807 1217L922 1145L819 987Q842 944 855 890.50Q868 837 868 772Q868 682 850 575Q832 468 794 363.50Q756 259 695.50 172Q635 85 551 32.50Q467-20 356-20Q309-20 269-9.50Q229 1 195 23L96-127M381 180Q421 180 455.50 210Q490 240 518 291Q546 342 567.50 406Q589 470 603 537.50Q617 605 623 668Q625 682 625 695.50Q625 709 625 721L307 221Q321 202 339.50 191Q358 180 381 180M285 381L608 889Q595 912 575.50 924Q556 936 528 936Q489 936 455.50 904.50Q422 873 394 820.50Q366 768 344.50 703Q323 638 309 570Q295 502 289 440Q288 425 286.50 410Q285 395 285 381Z"  horiz-adv-x="909" vert-adv-y="2048"  />

      
      <glyph glyph-name="unif9" unicode="&#xf9;" d="M266-20Q195-20 145.50 8.50Q96 37 70.50 90.50Q45 144 45 219Q45 256 51.50 302.50Q58 349 66 393L221 1116L465 1116L326 453Q315 407 309 364Q303 321 303 287Q303 247 319.50 224Q336 201 371 201Q419 201 455.50 242Q492 283 519.50 357Q547 431 567 530L694 1116L938 1116L702 0L506 0L514 135L508 135Q476 87 438 52.50Q400 18 357-1Q314-20 266-20M518 1241Q493 1276 456 1333.50Q419 1391 385.50 1450Q352 1509 334 1550L334 1569L610 1569Q621 1525 633.50 1476.50Q646 1428 662.50 1375.50Q679 1323 699 1266L696 1241L518 1241Z"  horiz-adv-x="926" vert-adv-y="2048"  />

      
      <glyph glyph-name="unifa" unicode="&#xfa;" d="M266-20Q195-20 145.50 8.50Q96 37 70.50 90.50Q45 144 45 219Q45 256 51.50 302.50Q58 349 66 393L221 1116L465 1116L326 453Q315 407 309 364Q303 321 303 287Q303 247 319.50 224Q336 201 371 201Q419 201 455.50 242Q492 283 519.50 357Q547 431 567 530L694 1116L938 1116L702 0L506 0L514 135L508 135Q476 87 438 52.50Q400 18 357-1Q314-20 266-20M473 1241L477 1262Q519 1314 557.50 1366Q596 1418 630.50 1469Q665 1520 695 1569L973 1569L971 1552Q949 1525 906 1481.50Q863 1438 813.50 1390.50Q764 1343 719.50 1302.50Q675 1262 649 1241L473 1241Z"  horiz-adv-x="926" vert-adv-y="2048"  />

      
      <glyph glyph-name="unifb" unicode="&#xfb;" d="M266-20Q195-20 145.50 8.50Q96 37 70.50 90.50Q45 144 45 219Q45 256 51.50 302.50Q58 349 66 393L221 1116L465 1116L326 453Q315 407 309 364Q303 321 303 287Q303 247 319.50 224Q336 201 371 201Q419 201 455.50 242Q492 283 519.50 357Q547 431 567 530L694 1116L938 1116L702 0L506 0L514 135L508 135Q476 87 438 52.50Q400 18 357-1Q314-20 266-20M305 1241L309 1264Q355 1311 397.50 1361.50Q440 1412 479.50 1464.50Q519 1517 553 1569L774 1569Q784 1530 803 1474Q822 1418 845 1362Q868 1306 887 1266L881 1241L733 1241Q717 1263 700 1288Q683 1313 665.50 1342.50Q648 1372 629 1405Q581 1353 538.50 1311.50Q496 1270 459 1241L305 1241Z"  horiz-adv-x="926" vert-adv-y="2048"  />

      
      </font>
</defs>
</svg>
